<svg width="101" height="22" viewBox="0 0 101 22" fill="none" xmlns="http://www.w3.org/2000/svg">
<path fill-rule="evenodd" clip-rule="evenodd" d="M97.369 4.06099C91.7792 4.06099 88.7726 7.21584 88.6667 11.26C87.8621 6.98293 84.0933 3.8916 79.7315 3.9763C75.4333 3.91278 71.7068 6.96176 70.9022 11.1753C70.9445 7.25819 67.8108 4.03982 63.8937 3.9763C62.2422 3.9763 60.6542 4.6115 59.4897 5.77605V0.101543H55.2761V12.7633L55.2338 14.0337C54.9585 16.6381 53.2011 17.9508 51.2743 17.9508C49.284 17.9508 47.4419 17.0403 47.4419 14.0337L47.3361 12.9539V8.23217H53.8999V4.25155H47.3572V0.101543H43.1014V11.2176C42.1274 6.34773 37.3845 3.1717 32.4934 4.14568C30.4608 4.54798 28.6187 5.649 27.3059 7.25819V4.03982H26.8189C21.335 4.03982 18.3919 7.10997 18.2013 11.0271C17.4814 6.98293 13.9454 4.03982 9.83779 4.03982C7.86865 3.99747 5.96304 4.78089 4.58676 6.17834V0.0380249H0.479095V12.9327C0.563789 17.9085 4.01507 21.9103 9.37197 21.9103C13.9666 21.9103 17.312 18.9248 18.2013 14.923V21.4868H22.4149V13.3138V12.1704C22.5207 9.5661 24.1299 8.06278 26.7554 8.02043C24.0452 12.1916 25.2309 17.7814 29.4233 20.4916C33.5945 23.2018 39.1843 22.0161 41.8945 17.8238C42.5297 16.8498 42.9743 15.7488 43.1861 14.6054C43.1861 18.9671 46.6373 21.8891 50.8509 21.8891C52.6083 21.8891 54.1539 21.1268 55.3397 19.8988V21.4233H59.5532V12.5304V12.0011C59.659 9.12146 61.3529 7.8934 63.195 7.8934C65.0371 7.8934 66.6463 9.12146 66.6463 11.9587L66.6886 12.6574V21.4868H70.9869V14.8595C71.7491 19.1577 75.4333 21.9526 79.8162 21.9526C83.8392 22.1432 87.4175 19.4118 88.2856 15.4735H84.1356C83.4792 17.2944 81.743 18.4801 79.795 18.459C77.4871 18.459 75.5392 16.9345 75.031 14.309H88.7303V21.508H92.9438V13.2926L92.9861 12.1493C93.0708 9.58727 94.7435 8.08396 97.4326 8.08396H97.8984V4.01864H97.4326H97.369V4.06099ZM9.32963 17.8661C6.6406 17.8873 4.43855 15.7276 4.41737 13.0386C4.41737 13.0174 4.41737 12.9962 4.41737 12.9539C4.41737 10.2648 6.55589 8.04161 9.37197 8.04161C12.188 8.04161 14.3266 10.1801 14.3266 12.9539C14.3477 15.6429 12.1881 17.8449 9.49902 17.8661C9.45667 17.8661 9.41432 17.8661 9.39315 17.8661H9.32963ZM34.2508 17.8661C31.5618 17.8449 29.4021 15.6429 29.4233 12.9539C29.3809 10.2648 31.4983 8.04161 34.2932 8.04161C37.0881 8.04161 39.2054 10.1801 39.2054 12.9539C39.2266 15.6429 37.0669 17.8449 34.3779 17.8661C34.3567 17.8661 34.3355 17.8661 34.2932 17.8661H34.2508ZM75.1581 10.9636C75.7509 8.9309 77.6142 7.53344 79.7315 7.51227C82.4206 7.51227 83.9451 9.6508 84.305 10.9636H75.1581ZM95.8657 19.6659C95.8657 20.8092 96.8185 21.7832 97.9831 21.7832C99.1476 21.7832 100.1 20.8304 100.1 19.6659C100.1 18.5013 99.1476 17.5485 97.9831 17.5485C96.8185 17.5485 95.8657 18.5013 95.8657 19.6659ZM96.141 19.6659C96.141 18.6495 96.9668 17.8238 97.9831 17.8238C98.9994 17.8238 99.8252 18.6495 99.8252 19.6659C99.8252 20.6822 98.9994 21.508 97.9831 21.508C96.9668 21.508 96.141 20.6822 96.141 19.6659Z" fill="#c7c7c7"/>
<path fill-rule="evenodd" clip-rule="evenodd" d="M97.369 18.6919H98.216C98.5547 18.6919 98.6818 18.8401 98.6818 19.1154C98.6818 19.4118 98.5759 19.5812 98.216 19.5812H97.369V18.6919ZM97.369 19.8564H98.216C98.4489 19.8564 98.5971 20.047 98.5971 20.3646V20.6398L98.703 20.9363H99.0841V20.8939L98.9359 20.5975V20.2587C98.8935 20.0258 98.7876 19.8353 98.6394 19.7506C98.8723 19.6659 99.0206 19.4541 99.0206 19.0942C99.0206 18.713 98.7453 18.3954 98.2583 18.3954H97.0302V20.9363H97.369V19.8988V19.8564Z" fill="#c7c7c7"/>
</svg>
