<?xml version="1.0" encoding="utf-8"?>
<!-- Generator: Adobe Illustrator 26.0.3, SVG Export Plug-In . SVG Version: 6.00 Build 0)  -->
<svg version="1.1" id="Camada_1" xmlns="http://www.w3.org/2000/svg" xmlns:xlink="http://www.w3.org/1999/xlink" x="0px" y="0px"
	 viewBox="0 0 1920 995.1" style="enable-background:new 0 0 1920 995.1;" xml:space="preserve">
<style type="text/css">
	.st0{fill:#c7c7c7;}
	.st1{fill:#c7c7c7;}
	.st2{fill:#c7c7c7;}
	.st3{fill:#c7c7c7;}
	.st4{fill:#c7c7c7;}
	.st5{fill:#c7c7c7;}
	.st6{fill:#c7c7c7;}
	.st7{fill:#c7c7c7;}
	.st8{fill:#c7c7c7;}
	.st9{fill:#c7c7c7;}
	.st10{fill:#c7c7c7;}
	.st11{fill:#c7c7c7;}
	.st12{fill:#c7c7c7;}
	.st13{fill:#c7c7c7;}
	.st14{fill:#c7c7c7;}
</style>
<g>
	<path class="st0" d="M705.6,559.2c-0.2,11.4-4.4,18.9-13.4,23.4c-16.7,8.3-34.3,7.6-51.7,3.4c-19.6-4.7-37-14.1-52.4-27.1
		c-4.3-3.6-4.6-3.6-7.3,1.6c-4.1,8.1-8,16.3-12.3,24.3c-1.8,3.3-1.1,5.4,1.6,7.5c1,0.8,1.8,1.7,2.8,2.4
		c29.2,22.1,61.6,33.3,98.6,30.8c12.4-0.9,24.3-3.1,35.7-7.7c21.3-8.6,36.3-22.9,41-46.3c5.5-27-4.4-51.5-28.4-65.2
		c-9-5.1-18.5-9-28.3-12.2c-11.9-3.9-23.8-7.5-35.7-11.5c-7.9-2.6-15.5-6.1-22.1-11.3c-14.2-11.2-12.1-31.2,4.1-39.3
		c12.1-6,24.9-5.3,37.5-3.5c17.8,2.5,34.7,8.6,50.2,17.9c4.3,2.6,4.8,2.4,7.1-2.3c3.6-7.3,6.8-14.7,10.3-21.9
		c4.1-8.5,4.1-8.5-4.3-13c-0.4-0.2-0.9-0.4-1.3-0.7c-26.2-13.5-53.8-20.2-83.6-17.7c-15.4,1.3-29.9,4.9-43.4,12.5
		c-29.7,16.6-36.4,50.9-25.3,77c6.7,15.7,19.9,24.6,34.8,31.1c13.5,5.9,27.7,9.8,41.9,13.8c11.6,3.3,22.9,7.3,32.9,14.3
		C701.9,544.6,705.3,551.8,705.6,559.2z"/>
	<path class="st0" d="M397.3,508.2c0,35.6,0,71.2,0,106.8c0,1.7,0.1,3.4,0,5.2c-0.2,3.3,0.9,5,4.6,4.9c10.3-0.1,20.6-0.1,30.9,0
		c3.3,0,4.3-1.6,4.2-4.5c-0.1-1.7,0-3.4,0-5.2c0-25.8,0-51.6,0-77.3c0-9.3-0.6-8.6,8.9-8.6c28.5,0,57,0,85.5,0c1.5,0,2.9,0,4.4,0
		c6.8-0.1,7.1-0.4,7.2-7.1c0.1-7.1,0.1-14.2,0-21.4c0-6.8-0.1-6.8-7-6.8c-29.7,0-59.4,0-89.1,0c-1.7,0-3.4-0.1-5.2,0
		c-3.5,0.3-4.7-1.4-4.7-4.8c0.1-18.9,0.1-37.8,0-56.7c0-3.9,1.6-5.3,5.3-5c1.7,0.1,3.4,0,5.2,0c33.2,0,66.3,0,99.5,0
		c6.5,0,6.6-0.1,6.7-6.5c0.1-7.4,0.1-14.7,0.1-22.1c0-6.7-0.1-6.7-7.1-6.8c-0.7,0-1.5,0-2.2,0c-45.9,0-91.8,0-137.8,0
		c-1.5,0-3,0.1-4.4,0c-3.5-0.3-5,1.3-4.8,4.7c0.1,1.7,0,3.4,0,5.2C397.3,437.5,397.3,472.9,397.3,508.2z"/>
	<path class="st0" d="M238.4,761.9c-29.8-0.1-53.4,23.4-53.4,53.1c0,29.2,23.6,53,52.7,53.2c29.7,0.2,53.6-23.4,53.7-52.9
		C291.6,785.5,268.2,761.9,238.4,761.9z"/>
	<path class="st0" d="M344.3,938c27.9,0.1,50.2-21.9,50.3-49.6c0.1-27.8-21.8-50.2-49.5-50.5c-27.3-0.3-50.3,22.3-50.5,49.7
		C294.2,915.1,316.7,937.8,344.3,938z"/>
	<path class="st0" d="M150.3,676.7c-26.3,0-47.4,20.9-47.6,47c-0.1,26.4,21.3,47.6,47.8,47.5c26.3-0.1,47.1-21.2,47-47.5
		C197.5,697.4,176.7,676.7,150.3,676.7z"/>
	<path class="st0" d="M513.7,929.8c0.1-25.8-20.3-46.5-45.9-46.7c-25.9-0.2-46.9,20.6-46.9,46.5c0,25.6,20.8,46.3,46.3,46.3
		C493,975.9,513.6,955.4,513.7,929.8z"/>
	<path class="st0" d="M88.3,650.4c23.4,0,42.2-18.6,42.2-41.9c0.1-23.3-18.7-42.1-42.1-42.1s-42.1,18.5-42.1,41.9
		C46.3,631.8,64.8,650.4,88.3,650.4z"/>
	<path class="st0" d="M1383.9,615.3c-5.6-7.6-10.5-14.3-15.4-20.9c-19.7-27.2-39.3-54.4-59-81.6c-21.6-29.7-43.2-59.4-64.8-89.1
		c-6.8-9.3-13.6-18.6-20.4-27.8c-2.3-3.2-7.4-4.7-11-3.2c-3.5,1.4-1.8,4.6-2.2,7c0,0.2,0,0.5,0,0.7c0,72.4,0,144.8,0,217.2
		c0,1.5,0,2.9,0.1,4.4c0.1,2.1,1.3,3,3.3,3.1c2.3,0.1,3.8-0.7,3.9-3.3c0-2.2,0.1-4.4,0.1-6.6c0-68.7,0-137.4,0-206.2
		c0-2.2-0.8-4.7,1.1-7.2c2.4,3.1,4.4,5.8,6.4,8.6c21,28.9,42,57.9,63,86.9c25.7,35.5,51.5,70.9,77.3,106.4
		c4.5,6.1,8.9,12.3,13.5,18.3c2.3,3,7.5,4.3,10.6,2.8c3.2-1.6,1.5-4.7,1.9-7.2c0-0.2,0-0.5,0-0.7c0-72.2,0-144.3,0-216.5
		c0-1.7,0-3.4-0.1-5.2c-0.1-2.2-1.6-2.8-3.5-2.8s-3.4,0.6-3.5,2.8s-0.1,4.4-0.1,6.6c0,68,0,136,0,203.9
		C1384.8,608.5,1385.3,611.2,1383.9,615.3z"/>
	<path class="st0" d="M154.3,453.2c22.6-0.1,40.6-18.3,40.4-41c-0.1-22.6-18.4-40.5-41-40.4c-22.5,0.1-40.7,18.5-40.5,41
		C113.3,435.3,131.7,453.3,154.3,453.2z"/>
	<path class="st0" d="M198.6,518.2c0.4-22.6-17.3-41.2-39.8-41.7s-41.2,17.5-41.6,39.9c-0.3,22.8,17.1,41,39.8,41.5
		C179.7,558.5,198.2,540.8,198.6,518.2z"/>
	<path class="st0" d="M172.9,347.3c21.9-0.1,39.2-17.5,39.1-39.4c0-21.8-17.6-39.2-39.4-39.2c-21.8,0.1-39.2,17.6-39.1,39.4
		C133.5,330,151,347.4,172.9,347.3z"/>
	<path class="st0" d="M598.8,893.4c-21.4-0.1-39,17.2-39.2,38.5c-0.1,21.3,17.2,38.9,38.6,39.2c21.1,0.2,39-17.3,39.2-38.6
		C637.6,911.2,620.1,893.5,598.8,893.4z"/>
	<path class="st0" d="M1022.2,508.9c0,35.6,0,71.2,0,106.8c0,1.7,0.1,3.4,0,5.2c-0.2,3.2,1.4,4.5,4.4,4.3c1.2-0.1,2.5,0,3.7,0
		c44.7,0,89.4,0,134.1,0c1.7,0,3.4,0,5.2-0.1c2.2-0.1,2.9-1.6,2.9-3.5s-0.5-3.5-2.7-3.6c-2-0.1-3.9-0.1-5.9-0.1
		c-41.5,0-83,0-124.5,0c-1.7,0-3.4-0.1-5.2,0c-3.5,0.3-4.9-1.4-4.7-4.8c0.1-1.2,0-2.5,0-3.7c0-30.7,0-61.4,0-92.1
		c0-1.5,0.1-2.9,0-4.4c-0.1-2.7,1-4.2,3.9-4.1c2,0,3.9,0,5.9,0c34.9,0,69.8,0,104.6,0c2,0,3.9,0,5.9-0.1c2.4-0.2,3.2-2,3.2-4.2
		s-1.4-2.9-3.4-2.9s-3.9,0-5.9,0c-35.9,0-71.7,0-107.6,0c-6.5,0-6.6-0.1-6.6-6.5c0-18.7,0-37.3,0-56c0-11.3-0.1-22.6,0-33.9
		c0-5.2,0.2-5.2,5.5-5.4c1.7-0.1,3.4,0,5.2,0c39.5,0,79.1,0,118.6,0c2,0,3.9,0,5.9,0c2.5,0,3.4-1.5,3.3-3.8c-0.1-2-0.9-3.3-3-3.4
		c-1.7-0.1-3.4-0.1-5.2-0.1c-43,0-86,0-128.9,0c-1.2,0-2.5,0.1-3.7,0c-4-0.4-5.2,1.7-5,5.3c0.1,1.7,0,3.4,0,5.2
		C1022.2,438.2,1022.2,473.5,1022.2,508.9z"/>
	<path class="st0" d="M24,479.8c-0.5,21.1,15.7,38.3,36.8,38.9c20.7,0.6,38.4-16.3,38.7-37.1c0.4-20.9-16.3-38.2-37.3-38.6
		C41.7,442.7,24.5,459.2,24,479.8z"/>
	<path class="st0" d="M347.2,162c0,19.4,15.1,34.6,34.5,34.5c19.2,0,34.6-15.5,34.4-34.6c-0.1-18.9-15.3-34-34.2-34.2
		C362.7,127.5,347.2,142.8,347.2,162z"/>
	<path class="st0" d="M349.2,216.8c-0.1-19.1-16-34.8-34.9-34.4c-19.1,0.4-34.6,16.3-34.2,35.2c0.4,18.8,15.8,33.9,34.6,33.9
		C334,251.5,349.3,236,349.2,216.8z"/>
	<path class="st0" d="M226.4,616.9c0-19.3-15.2-34.5-34.6-34.4c-18.8,0.1-34.2,15.5-34.2,34.3c0,19,15.8,34.8,34.8,34.6
		C211.3,651.1,226.4,635.8,226.4,616.9z"/>
	<path class="st0" d="M758.6,903.8c0.1-18.8-14.6-33.8-33.3-34c-18.9-0.2-34.3,15-34.3,33.9c0.1,18.5,15.3,33.7,33.8,33.7
		C743.4,937.5,758.5,922.4,758.6,903.8z"/>
	<path class="st0" d="M220.7,245.3c18.5-0.1,33.1-14.8,32.9-33.4c-0.2-18.2-14.7-32.7-32.8-32.9c-18.3-0.1-33.3,14.8-33.3,33.2
		C187.5,230.8,202.1,245.4,220.7,245.3z"/>
	<path class="st0" d="M67.6,382.2c18.5,0,33.4-14.8,33.3-33.1c-0.1-18.3-15.2-33.2-33.5-33.1c-18.1,0.2-32.7,14.8-32.8,32.9
		C34.5,367.5,49.1,382.2,67.6,382.2z"/>
	<path class="st0" d="M426.7,124c0,18,14.3,32.4,32.2,32.3c17.8-0.1,32.4-14.9,32.2-32.6c-0.2-17.5-14.6-31.8-32.1-31.9
		C441,91.8,426.7,106,426.7,124z"/>
	<path class="st0" d="M250.1,737.6c17.7,0.1,32-13.9,32.2-31.5c0.2-17.7-13.8-32.1-31.4-32.3c-18.1-0.3-32.5,13.9-32.5,31.8
		C218.4,723.4,232.4,737.5,250.1,737.6z"/>
	<path class="st0" d="M265.1,318.9c17.4,0,31.5-13.7,31.7-30.9c0.2-17.5-14.2-31.9-31.8-31.7c-17.4,0.1-31.2,14.1-31.2,31.4
		C233.8,305,247.6,318.8,265.1,318.9z"/>
	<path class="st0" d="M838.3,877.6c17.5,0,31.4-13.9,31.2-31.3c-0.2-17-14.1-30.8-31.1-30.8s-31,13.8-31.2,30.8
		C807,863.8,820.8,877.6,838.3,877.6z"/>
	<path class="st0" d="M1493.7,511.8c0,34.6,0,69.2,0,103.8c0,2,0,3.9,0,5.9c0,1.9,0.7,3.3,2.9,3.4c2.3,0.1,3.9-0.9,4.1-3.2
		c0.2-2.2,0.2-4.4,0.2-6.6c0-68.5,0-137,0-205.5c0-2.2,0-4.4,0.1-6.6c0-2,1.1-3.2,3.1-3.3s3.9-0.1,5.9-0.1c20.9,0,41.7,0,62.6,0
		c1.7,0,3.4,0,5.2-0.1c2.2-0.2,2.8-1.7,2.7-3.6c0-1.9-0.6-3.4-2.8-3.5c-2-0.1-3.9-0.1-5.9-0.1c-49.8,0-99.7,0-149.5,0
		c-1.5,0-2.9,0-4.4,0c-2.3,0-4.7,0-4.6,3.2c0,3.2,2.1,4.1,4.9,4c1.5,0,2.9,0,4.4,0c15.2,0,30.4,0,45.7,0c6.9,0,13.8,0.1,20.6,0
		c3.3-0.1,5.1,1,4.9,4.6c-0.1,1.7,0,3.4,0,5.2C1493.7,443.6,1493.7,477.7,1493.7,511.8z"/>
	<path class="st0" d="M288.2,161.4c15.9,0.1,28.6-12.4,28.7-28.2c0.1-15.5-12.3-28.1-27.7-28.4c-16.1-0.2-28.8,11.9-29,27.8
		C260,148.6,272.4,161.3,288.2,161.4z"/>
	<path class="st0" d="M330.1,745.9c-15.6-0.1-28.2,12.4-28.2,27.9c0,15.4,12.8,28.1,28.2,28c15.3-0.1,27.5-12.3,27.7-27.6
		C358,758.6,345.7,746,330.1,745.9z"/>
	<path class="st0" d="M1784.3,507.4c0,35.8,0,71.7,0,107.5c0,1.7,0,3.4,0,5.2c-0.1,3.3,1.3,5.1,4.8,5.1c1.5,0,2.9,0,4.4,0
		c31.4,0,62.9,0,94.3,0c1.5,0,2.9,0,4.4,0c2.3,0,3.7-0.9,3.7-3.4c0.1-2.9-1.4-3.9-4.1-3.8c-1.7,0-3.4,0-5.2,0c-28.7,0-57.4,0-86.2,0
		c-9.8,0-9,0.7-9-9.3c0-68.7,0-137.4,0-206.2c0-2.2,0-4.4,0-6.6c0-2.5-1.4-3.4-3.8-3.4c-2,0.1-3.3,0.9-3.4,3c-0.1,2-0.1,3.9-0.1,5.9
		C1784.3,436.7,1784.3,472.1,1784.3,507.4z"/>
	<path class="st0" d="M544.6,139.2c15.1,0,27.1-12,27.1-27S559.6,85,544.7,85c-15,0-27,12-27,27.2
		C517.6,127.2,529.4,139.2,544.6,139.2z"/>
	<path class="st0" d="M237.3,339.5c-14.7,0-26.8,12-27,26.6c-0.2,14.9,12.2,27.4,27.1,27.3c14.6,0,26.8-12.1,26.9-26.7
		C264.5,351.8,252.3,339.5,237.3,339.5z"/>
	<path class="st0" d="M626.9,91.9c-13.7,0.1-24.7,11.4-24.5,25s11.6,24.7,25.1,24.5s24.7-11.6,24.5-25.2
		C651.9,102.6,640.7,91.8,626.9,91.9z"/>
	<path class="st0" d="M934,784.5c13.6,0.1,24.4-10.4,24.7-23.8c0.3-13.7-10.7-24.9-24.4-24.9c-13.9-0.1-24.7,10.8-24.6,24.6
		C909.9,774,920.5,784.5,934,784.5z"/>
	<path class="st0" d="M401.2,823.4c0,13.5,11,24.4,24.4,24.2c13.2-0.2,23.8-10.8,23.9-24c0.1-13.6-10.5-24.5-24.1-24.5
		C411.9,799.1,401.2,809.8,401.2,823.4z"/>
	<path class="st0" d="M109.5,203.8c-13.4-0.4-24.4,9.6-24.8,22.7c-0.4,13.8,9.6,24.7,23.2,25.1c13.3,0.4,24.1-9.9,24.5-23.2
		C132.7,214.9,122.7,204.2,109.5,203.8z"/>
	<path class="st0" d="M377.7,98c13-0.1,23.3-10.5,23.4-23.4c0-13.2-10.7-23.9-23.9-23.7c-12.9,0.1-23.3,10.6-23.4,23.5
		C353.7,87.5,364.4,98.1,377.7,98z"/>
	<path class="st0" d="M252.4,454.5c0.1-12.5-10.2-23-22.7-23.3c-12.8-0.3-23.6,10.2-23.7,23.1c-0.1,12.6,10.1,23,22.7,23.3
		C241.4,477.9,252.3,467.3,252.4,454.5z"/>
	<path class="st0" d="M730.5,147.8c0-12.5-9.9-22.5-22.3-22.4c-12.5,0.1-22.4,10-22.3,22.5c0.1,12.2,9.8,21.9,22,22
		C720.5,170.1,730.4,160.4,730.5,147.8z"/>
	<path class="st0" d="M529.1,821.4c-11.1,0-19.9,9-19.8,20.2c0.1,10.9,8.7,19.4,19.6,19.5c11.2,0.1,20.2-8.6,20.2-19.7
		C549.2,830.3,540.2,821.4,529.1,821.4z"/>
	<path class="st0" d="M476.6,61c11,0,19.6-8.5,19.7-19.5c0-10.9-8.7-19.8-19.5-19.9c-10.7-0.1-19.7,8.9-19.8,19.7
		C457,52.2,465.7,61,476.6,61z"/>
	<path class="st0" d="M264.8,536.8c0.2-11.1-8.2-19.9-19.1-20.2c-10.8-0.2-19.8,8.5-19.9,19.4c-0.1,10.6,8.2,19.4,18.8,19.7
		C255.5,556.2,264.6,547.6,264.8,536.8z"/>
	<path class="st0" d="M777.8,214.2c10.7,0,19.2-8.3,19.2-19c0-10.8-8.3-19.2-19-19.3c-10.6-0.1-19.3,8.5-19.4,19
		C758.6,205.4,767.3,214.1,777.8,214.2z"/>
	<path class="st0" d="M180.9,97.8c-10.4-0.1-18.9,8.1-18.8,18.4c0,9.9,8.3,18.2,18.2,18.5c10.3,0.2,18.7-8.1,18.7-18.5
		C198.9,105.9,191.1,97.9,180.9,97.8z"/>
	<path class="st0" d="M851.3,262.7c0-9.6-7.7-17.3-17.2-17.2c-9.5,0-17.2,7.9-17.1,17.4c0.1,9.6,7.7,17.2,17.3,17.2
		C843.8,280,851.4,272.3,851.3,262.7z"/>
	<path class="st0" d="M601.1,34.9c-0.1-9.7-7.8-17-17.5-16.8c-9.6,0.2-17.1,7.9-16.9,17.5c0.2,9.6,7.9,17,17.6,16.8
		C593.9,52.3,601.2,44.7,601.1,34.9z"/>
	<path class="st0" d="M280.4,632.6c9.2-0.1,16.7-7.8,16.5-17c-0.2-9-7.6-16.2-16.6-16.2c-9.4-0.1-16.9,7.4-16.8,16.7
		C263.6,625.4,271.1,632.7,280.4,632.6z"/>
	<path class="st1" d="M705.6,559.2c-0.3-7.4-3.7-14.6-11.1-19.8c-10-7-21.3-11-32.9-14.3c-14.2-4-28.4-7.9-41.9-13.8
		c-14.9-6.5-28.1-15.4-34.8-31.1c-11.2-26.1-4.4-60.4,25.3-77c13.5-7.5,28-11.2,43.4-12.5c29.7-2.4,57.3,4.2,83.6,17.7
		c0.4,0.2,0.9,0.4,1.3,0.7c8.5,4.5,8.4,4.5,4.3,13c-3.5,7.3-6.8,14.7-10.3,21.9c-2.3,4.8-2.8,4.9-7.1,2.3
		c-15.5-9.4-32.4-15.4-50.2-17.9c-12.6-1.8-25.4-2.5-37.5,3.5c-16.1,8.1-18.3,28.1-4.1,39.3c6.6,5.2,14.2,8.7,22.1,11.3
		c11.9,3.9,23.8,7.6,35.7,11.5c9.8,3.2,19.3,7.1,28.3,12.2c24,13.7,33.9,38.2,28.4,65.2c-4.7,23.3-19.8,37.7-41,46.3
		c-11.4,4.6-23.3,6.8-35.7,7.7c-37,2.5-69.4-8.7-98.6-30.8c-1-0.7-1.8-1.7-2.8-2.4c-2.7-2.1-3.4-4.2-1.6-7.5
		c4.3-8,8.1-16.2,12.3-24.3c2.7-5.2,3-5.2,7.3-1.6c15.4,13,32.8,22.5,52.4,27.1c17.4,4.1,35,4.9,51.7-3.4
		C701.1,578.1,705.4,570.7,705.6,559.2z"/>
	<path class="st1" d="M397.3,508.2c0-35.4,0-70.7,0-106.1c0-1.7,0.1-3.4,0-5.2c-0.2-3.5,1.3-5,4.8-4.7c1.5,0.1,2.9,0,4.4,0
		c45.9,0,91.8,0,137.8,0c0.7,0,1.5,0,2.2,0c7,0.1,7.1,0.1,7.1,6.8c0,7.4,0,14.7-0.1,22.1c-0.1,6.4-0.1,6.5-6.7,6.5
		c-33.2,0-66.3,0-99.5,0c-1.7,0-3.4,0.1-5.2,0c-3.7-0.3-5.3,1.1-5.3,5c0.1,18.9,0.1,37.8,0,56.7c0,3.4,1.1,5.1,4.7,4.8
		c1.7-0.1,3.4,0,5.2,0c29.7,0,59.4,0,89.1,0c6.9,0,7,0.1,7,6.8c0.1,7.1,0.1,14.2,0,21.4c-0.1,6.7-0.4,6.9-7.2,7.1
		c-1.5,0-2.9,0-4.4,0c-28.5,0-57,0-85.5,0c-9.5,0-8.9-0.7-8.9,8.6c0,25.8,0,51.6,0,77.3c0,1.7-0.1,3.4,0,5.2c0.1,3-0.9,4.6-4.2,4.5
		c-10.3-0.1-20.6-0.1-30.9,0c-3.7,0.1-4.8-1.6-4.6-4.9c0.1-1.7,0-3.4,0-5.2C397.3,579.4,397.3,543.8,397.3,508.2z"/>
	<path class="st2" d="M238.4,761.9c29.8,0.1,53.2,23.6,53.1,53.4c-0.1,29.5-24,53.1-53.7,52.9c-29.1-0.2-52.7-24-52.7-53.2
		C185,785.3,208.6,761.8,238.4,761.9z"/>
	<path class="st2" d="M344.3,938c-27.6-0.1-50-22.8-49.7-50.3s23.2-50.1,50.5-49.7c27.7,0.3,49.6,22.7,49.5,50.5
		C394.5,916.1,372.1,938.1,344.3,938z"/>
	<path class="st2" d="M150.3,676.7c26.4,0,47.2,20.7,47.3,47.1c0.1,26.3-20.8,47.4-47,47.5c-26.6,0.1-48-21.1-47.8-47.5
		C102.8,697.6,124,676.7,150.3,676.7z"/>
	<path class="st3" d="M513.7,929.8c-0.1,25.6-20.7,46.1-46.4,46.1c-25.6,0-46.3-20.7-46.3-46.3c0-25.9,20.9-46.7,46.9-46.5
		C493.4,883.3,513.8,904,513.7,929.8z"/>
	<path class="st3" d="M88.3,650.4c-23.4,0-42-18.6-42-42.1c0-23.4,18.7-42,42.1-41.9c23.3,0,42.1,18.8,42.1,42.1
		C130.5,631.8,111.7,650.5,88.3,650.4z"/>
	<path class="st4" d="M1383.9,615.3c1.4-4.2,0.9-6.9,0.9-9.5c0-68,0-136,0-203.9c0-2.2,0-4.4,0.1-6.6c0.1-2.2,1.6-2.8,3.5-2.8
		s3.4,0.6,3.5,2.8c0.1,1.7,0.1,3.4,0.1,5.2c0,72.2,0,144.3,0,216.5c0,0.2,0,0.5,0,0.7c-0.5,2.5,1.2,5.6-1.9,7.2
		c-3.1,1.5-8.3,0.2-10.6-2.8c-4.6-6-9-12.2-13.5-18.3c-25.8-35.5-51.6-70.9-77.3-106.4c-21-28.9-42-57.9-63-86.9
		c-2-2.8-4.1-5.5-6.4-8.6c-1.9,2.5-1.1,5-1.1,7.2c0,68.7,0,137.4,0,206.2c0,2.2,0,4.4-0.1,6.6c0,2.6-1.5,3.3-3.9,3.3
		c-2-0.1-3.2-0.9-3.3-3.1c0-1.5-0.1-2.9-0.1-4.4c0-72.4,0-144.8,0-217.2c0-0.2,0-0.5,0-0.7c0.4-2.4-1.3-5.7,2.2-7
		c3.6-1.4,8.7,0.1,11,3.2c6.9,9.2,13.7,18.5,20.4,27.8c21.6,29.7,43.2,59.4,64.8,89.1c19.7,27.2,39.3,54.4,59,81.6
		C1373.3,601.1,1378.3,607.7,1383.9,615.3z"/>
	<path class="st5" d="M807.1,509c0-35.6,0-71.2,0-106.8c0-2,0.1-3.9,0-5.9c-0.1-2.8,1.4-4,4.1-3.9c1,0,2,0,2.9,0
		c26.3,0,52.5,0.1,78.8,0.1c13.6,0,26.8,2.5,39.4,7.7c22.8,9.4,36.9,26.1,41.2,50.6c2.7,15.2,2.2,30.1-2.7,45
		c-7.5,22.9-23.6,36.7-45.9,43.9c-9.5,3.1-9.6,2.8-3.5,11.2c16.1,21.9,32.1,43.9,48.2,65.8c0.9,1.2,1.6,2.4,2.5,3.7
		c0.8,1.2,2,2.5,0.8,3.9c-1,1.2-2.7,0.8-4.2,0.8c-2.5-0.1-3.8-2-5.1-3.8c-12.4-17-24.9-34-37.3-51c-5.1-6.9-10.1-13.8-15-20.9
		c-2.6-3.8-5.6-5.7-10.4-5.2c-26.4,2.7-53,0.8-79.4,1.3c-7.1,0.1-7.1,0.1-7.1,7.5c0,21.1,0,42.2,0,63.3c0,2,0,3.9-0.1,5.9
		c-0.1,2.2-1.6,2.8-3.5,2.9c-1.9,0-3.5-0.5-3.6-2.7c-0.1-2-0.1-3.9-0.1-5.9C807,580.6,807.1,544.8,807.1,509z M814.3,468.9
		c0,20.6,0,41.2,0,61.9c0,7.5,0.1,7.5,7.8,7.5c20.9,0,41.7,0.2,62.6-0.1c11.5-0.1,23-1.4,34.1-4.5c20.3-5.6,35.9-17.2,43.7-37.1
		c6.6-16.9,7.2-34.4,1.8-51.9c-4.5-14.8-13.7-25.9-27-33.6c-12.8-7.4-26.8-11.1-41.4-11.3c-25-0.4-50.1-0.2-75.1-0.2
		c-1.2,0-2.5,0-3.7,0.1c-1.7,0.1-2.7,1.1-2.8,2.8c-0.1,2-0.1,3.9-0.1,5.9C814.3,428.6,814.3,448.7,814.3,468.9z"/>
	<path class="st6" d="M154.3,453.2c-22.6,0.1-41-17.9-41.2-40.4s18-40.9,40.5-41c22.7-0.1,40.9,17.8,41,40.4
		C194.9,434.9,176.9,453.1,154.3,453.2z"/>
	<path class="st6" d="M198.6,518.2c-0.4,22.6-18.9,40.3-41.6,39.7c-22.7-0.5-40.1-18.7-39.8-41.5c0.3-22.4,19-40.4,41.6-39.9
		C181.3,477.1,199,495.6,198.6,518.2z"/>
	<path class="st5" d="M1542.6,624.4c5.2-11.6,10-22.6,15-33.4c18.1-39.4,36.4-78.8,54.5-118.2c11.2-24.5,22.3-49.1,33.4-73.6
		c0.3-0.7,0.7-1.3,1-2c1.1-3,2.9-4.8,6.5-4.8c3.5,0,4.6,2.1,5.8,4.6c5.6,12,11.4,23.9,16.9,35.9c7.5,16.2,14.9,32.5,22.4,48.8
		c17.3,37.4,34.8,74.7,52.1,112c4,8.7,8,17.4,11.9,26.1c0.7,1.6,2.5,3.9-0.3,5c-2.2,0.9-4.9,0.9-6.6-1.7c-0.7-1-1.2-2.2-1.7-3.3
		c-9-19.9-18.2-39.7-27-59.6c-2-4.6-4.7-5.9-9.6-5.9c-42.5,0.2-85,0.2-127.4,0c-5,0-7.2,1.5-9.2,6.1c-8.8,20-18.1,39.7-27.3,59.5
		C1550.6,625.4,1550.4,625.3,1542.6,624.4z M1718.8,546.9c-1.9-8.4-62.7-139.9-66.8-144.2c-7.4,16.3-14.6,32.3-21.9,48.3
		c-7.2,15.8-14.4,31.7-21.6,47.5c-7.2,15.9-14.9,31.6-21.7,48.3C1631.5,546.9,1674.9,546.9,1718.8,546.9z"/>
	<path class="st6" d="M172.9,347.3c-21.9,0.1-39.3-17.2-39.4-39.1c0-21.9,17.3-39.3,39.1-39.4c21.8-0.1,39.3,17.4,39.4,39.2
		C212,329.8,194.8,347.2,172.9,347.3z"/>
	<path class="st7" d="M598.8,893.4c21.3,0.1,38.8,17.8,38.6,39.1c-0.2,21.3-18,38.8-39.2,38.6c-21.3-0.2-38.7-17.9-38.6-39.2
		C559.7,910.6,577.3,893.3,598.8,893.4z"/>
	<path class="st4" d="M1022.2,508.9c0-35.4,0-70.7,0-106.1c0-1.7,0.1-3.4,0-5.2c-0.3-3.6,1-5.7,5-5.3c1.2,0.1,2.5,0,3.7,0
		c43,0,86,0,128.9,0c1.7,0,3.4,0,5.2,0.1c2.1,0.1,2.9,1.3,3,3.4c0.1,2.3-0.7,3.8-3.3,3.8c-2,0-3.9,0-5.9,0c-39.5,0-79.1,0-118.6,0
		c-1.7,0-3.4-0.1-5.2,0c-5.2,0.2-5.4,0.3-5.5,5.4c-0.1,11.3,0,22.6,0,33.9c0,18.7,0,37.3,0,56c0,6.4,0.1,6.5,6.6,6.5
		c35.9,0,71.7,0,107.6,0c2,0,3.9,0,5.9,0s3.4,0.7,3.4,2.9s-0.8,3.9-3.2,4.2c-1.9,0.2-3.9,0.1-5.9,0.1c-34.9,0-69.8,0-104.6,0
		c-2,0-3.9,0.1-5.9,0c-2.9-0.1-3.9,1.4-3.9,4.1c0,1.5,0,2.9,0,4.4c0,30.7,0,61.4,0,92.1c0,1.2,0.1,2.5,0,3.7c-0.3,3.4,1.1,5,4.7,4.8
		c1.7-0.1,3.4,0,5.2,0c41.5,0,83,0,124.5,0c2,0,3.9,0,5.9,0.1c2.2,0.1,2.7,1.7,2.7,3.6s-0.7,3.4-2.9,3.5c-1.7,0.1-3.4,0.1-5.2,0.1
		c-44.7,0-89.4,0-134.1,0c-1.2,0-2.5-0.1-3.7,0c-3.1,0.2-4.6-1.1-4.4-4.3c0.1-1.7,0-3.4,0-5.2
		C1022.2,580.1,1022.2,544.5,1022.2,508.9z"/>
	<path class="st3" d="M24,479.8c0.5-20.6,17.7-37.2,38.2-36.7c21,0.4,37.6,17.7,37.3,38.6c-0.4,20.8-18,37.7-38.7,37.1
		C39.7,518.1,23.5,501,24,479.8z"/>
	<path class="st8" d="M347.2,162c0-19.2,15.5-34.5,34.7-34.4c18.9,0.2,34.1,15.4,34.2,34.2c0.1,19.2-15.2,34.6-34.4,34.6
		C362.3,196.6,347.2,181.4,347.2,162z"/>
	<path class="st8" d="M349.2,216.8c0.1,19.2-15.3,34.6-34.5,34.6c-18.9,0-34.2-15-34.6-33.9c-0.4-18.8,15.1-34.8,34.2-35.2
		C333.2,182.1,349.1,197.8,349.2,216.8z"/>
	<path class="st9" d="M226.4,616.9c0,18.9-15.1,34.2-34,34.4c-18.9,0.2-34.8-15.6-34.8-34.6c0-18.8,15.4-34.2,34.2-34.3
		C211.2,582.4,226.5,597.6,226.4,616.9z"/>
	<path class="st7" d="M758.6,903.8c-0.1,18.6-15.2,33.7-33.8,33.7c-18.5,0-33.7-15.3-33.8-33.7c-0.1-18.9,15.3-34.1,34.3-33.9
		C744,870,758.7,885,758.6,903.8z"/>
	<path class="st9" d="M220.7,245.3c-18.6,0.1-33.2-14.5-33.2-33.1c0-18.4,14.9-33.3,33.3-33.2c18.1,0.1,32.6,14.7,32.8,32.9
		C253.7,230.5,239.2,245.3,220.7,245.3z"/>
	<path class="st7" d="M67.6,382.2c-18.5,0-33.1-14.7-33-33.3c0.1-18.1,14.7-32.7,32.8-32.9c18.3-0.2,33.4,14.8,33.5,33.1
		C101,367.4,86.1,382.2,67.6,382.2z"/>
	<path class="st8" d="M426.7,124c0-18.1,14.3-32.2,32.4-32.1c17.5,0.1,31.9,14.4,32.1,31.9c0.2,17.7-14.4,32.4-32.2,32.6
		C441,156.5,426.6,142,426.7,124z"/>
	<path class="st9" d="M250.1,737.6c-17.7-0.1-31.7-14.2-31.7-32c0-18,14.4-32.1,32.5-31.8c17.6,0.3,31.5,14.6,31.4,32.3
		C282.1,723.7,267.7,737.7,250.1,737.6z"/>
	<path class="st8" d="M265.1,318.9c-17.4,0-31.3-13.9-31.3-31.3c0-17.4,13.9-31.3,31.2-31.4c17.6-0.1,31.9,14.2,31.8,31.7
		C296.6,305.2,282.5,318.9,265.1,318.9z"/>
	<path class="st7" d="M838.3,877.6c-17.5,0-31.3-13.9-31.2-31.4c0.2-17,14.2-30.8,31.2-30.8s30.9,13.8,31.1,30.8
		C869.7,863.7,855.9,877.7,838.3,877.6z"/>
	<path class="st10" d="M1493.7,511.8c0-34.1,0-68.2,0-102.4c0-1.7-0.1-3.4,0-5.2c0.3-3.6-1.5-4.7-4.9-4.6c-6.9,0.1-13.8,0-20.6,0
		c-15.2,0-30.4,0-45.7,0c-1.5,0-2.9,0-4.4,0c-2.8,0.1-4.9-0.8-4.9-4s2.4-3.2,4.6-3.2c1.5,0,2.9,0,4.4,0c49.8,0,99.7,0,149.5,0
		c2,0,3.9,0,5.9,0.1c2.2,0.1,2.8,1.6,2.8,3.5s-0.5,3.4-2.7,3.6c-1.7,0.1-3.4,0.1-5.2,0.1c-20.9,0-41.7,0-62.6,0c-2,0-3.9,0-5.9,0.1
		c-2.1,0.1-3.1,1.3-3.1,3.3c0,2.2-0.1,4.4-0.1,6.6c0,68.5,0,137,0,205.5c0,2.2,0.1,4.4-0.2,6.6c-0.2,2.3-1.8,3.3-4.1,3.2
		c-2.2-0.1-2.9-1.5-2.9-3.4c0-2,0-3.9,0-5.9C1493.7,581.1,1493.7,546.4,1493.7,511.8z"/>
	<path class="st9" d="M288.2,161.4c-15.8-0.1-28.2-12.8-28-28.8c0.2-15.9,12.8-28,29-27.8c15.5,0.2,27.8,12.8,27.7,28.4
		C316.8,149,304.1,161.5,288.2,161.4z"/>
	<path class="st9" d="M330.1,745.9c15.6,0.1,27.9,12.6,27.7,28.3c-0.2,15.3-12.5,27.5-27.7,27.6c-15.4,0.1-28.2-12.6-28.2-28
		S314.5,745.9,330.1,745.9z"/>
	<path class="st10" d="M1784.3,507.4c0-35.3,0-70.7,0-106c0-2,0-3.9,0.1-5.9c0.1-2.1,1.4-3,3.4-3c2.3-0.1,3.8,0.8,3.8,3.4
		c0,2.2,0,4.4,0,6.6c0,68.7,0,137.4,0,206.2c0,10-0.9,9.3,9,9.3c28.7,0,57.4,0,86.2,0c1.7,0,3.4,0.1,5.2,0c2.6-0.1,4.2,0.9,4.1,3.8
		c-0.1,2.5-1.4,3.4-3.7,3.4c-1.5,0-2.9,0-4.4,0c-31.4,0-62.9,0-94.3,0c-1.5,0-2.9,0-4.4,0c-3.5,0.1-4.8-1.8-4.8-5.1
		c0-1.7,0-3.4,0-5.2C1784.3,579.1,1784.3,543.2,1784.3,507.4z"/>
	<path class="st11" d="M544.6,139.2c-15.1,0-27-11.9-27-27.1c0.1-15.1,12-27.2,27-27.2c14.9,0,27,12.2,27,27.2
		C571.7,127.2,559.7,139.2,544.6,139.2z"/>
	<path class="st11" d="M237.3,339.5c15,0,27.2,12.3,27.1,27.2c-0.2,14.6-12.4,26.7-26.9,26.7c-14.9,0-27.2-12.5-27.1-27.3
		C210.5,351.5,222.6,339.6,237.3,339.5z"/>
	<path class="st11" d="M626.9,91.9c13.8-0.1,25,10.7,25.1,24.4c0.2,13.5-11,25-24.5,25.2c-13.6,0.2-24.9-10.9-25.1-24.5
		C602.3,103.3,613.3,92.1,626.9,91.9z"/>
	<path class="st7" d="M934,784.5c-13.6-0.1-24.2-10.6-24.3-24.1c-0.1-13.8,10.7-24.7,24.6-24.6c13.7,0.1,24.6,11.2,24.4,24.9
		C958.5,774.1,947.6,784.6,934,784.5z"/>
	<path class="st9" d="M401.2,823.4c0-13.6,10.7-24.3,24.3-24.3c13.6,0,24.2,10.9,24.1,24.5c-0.1,13.2-10.7,23.8-23.9,24
		C412.2,847.8,401.3,836.9,401.2,823.4z"/>
	<path class="st7" d="M109.5,203.8c13.3,0.4,23.2,11.2,22.9,24.7c-0.3,13.2-11.2,23.5-24.5,23.2c-13.6-0.4-23.6-11.3-23.2-25.1
		C85.1,213.3,96,203.3,109.5,203.8z"/>
	<path class="st12" d="M377.7,98c-13.3,0.1-24-10.4-23.9-23.7c0.1-12.9,10.5-23.3,23.4-23.5c13.2-0.2,23.9,10.5,23.9,23.7
		C401,87.5,390.7,97.9,377.7,98z"/>
	<path class="st13" d="M252.4,454.5c-0.1,12.8-11,23.4-23.7,23.1c-12.6-0.3-22.7-10.8-22.7-23.3c0.1-12.8,10.9-23.4,23.7-23.1
		C242.2,431.6,252.5,442.1,252.4,454.5z"/>
	<path class="st11" d="M730.5,147.8c0,12.6-9.9,22.3-22.6,22.1c-12.2-0.1-21.9-9.8-22-22c-0.1-12.6,9.7-22.5,22.3-22.5
		C720.6,125.4,730.5,135.3,730.5,147.8z"/>
	<path class="st12" d="M529.1,821.4c11.1,0,20.1,8.9,20,20c0,11.1-9,19.8-20.2,19.7c-10.9-0.1-19.5-8.7-19.6-19.5
		C509.2,830.4,518,821.4,529.1,821.4z"/>
	<path class="st12" d="M476.6,61c-10.9,0-19.6-8.8-19.6-19.7c0.1-10.8,9.1-19.7,19.8-19.7c10.8,0.1,19.5,9,19.5,19.9
		C496.3,52.5,487.7,61,476.6,61z"/>
	<path class="st13" d="M264.8,536.8c-0.2,10.9-9.3,19.4-20.1,19c-10.6-0.4-18.9-9.1-18.8-19.7c0.1-10.9,9.1-19.6,19.9-19.4
		C256.6,516.8,265,525.7,264.8,536.8z"/>
	<path class="st13" d="M777.8,214.2c-10.5,0-19.2-8.8-19.1-19.2c0.1-10.5,8.8-19.1,19.4-19c10.7,0.1,19,8.5,19,19.3
		C797,205.8,788.5,214.2,777.8,214.2z"/>
	<path class="st14" d="M180.9,97.8c10.1,0.1,18,8.1,18,18.3c0,10.4-8.4,18.7-18.7,18.5c-9.9-0.2-18.1-8.6-18.2-18.5
		C162.1,105.9,170.5,97.7,180.9,97.8z"/>
	<path class="st13" d="M851.3,262.7c0,9.7-7.5,17.3-17.1,17.3c-9.5,0-17.2-7.6-17.3-17.2c-0.1-9.5,7.6-17.3,17.1-17.4
		C843.6,245.4,851.3,253.1,851.3,262.7z"/>
	<path class="st12" d="M601.1,34.9c0.1,9.8-7.1,17.4-16.8,17.5c-9.7,0.1-17.4-7.2-17.6-16.8c-0.2-9.6,7.3-17.3,16.9-17.5
		C593.3,17.9,600.9,25.2,601.1,34.9z"/>
	<path class="st13" d="M280.4,632.6c-9.3,0.1-16.8-7.3-16.9-16.6c-0.1-9.3,7.5-16.7,16.8-16.7c9,0.1,16.3,7.2,16.6,16.2
		C297.2,624.8,289.7,632.5,280.4,632.6z"/>
</g>
</svg>
