<svg width="30" height="30" viewBox="0 0 30 30" fill="none" xmlns="http://www.w3.org/2000/svg">
<path d="M29.4018 13.9329C29.2113 11.4556 28.4067 9.04177 27.0092 6.96677C25.6541 4.93412 23.7909 3.26141 21.61 2.13922C19.9373 1.24993 18.074 0.741759 16.1896 0.572371C15.7661 0.487677 15.3426 0.572371 14.898 0.572371C13.8817 3.49431 12.823 6.37391 11.8067 9.29586C12.5477 9.31703 13.2888 9.27468 14.051 9.31703C14.6016 9.33821 15.1732 9.57111 15.4697 10.0369C15.8084 10.5663 15.7873 11.265 15.5755 11.8579C14.5592 14.7163 13.5429 17.5535 12.5266 20.4119C11.6373 20.4331 10.7268 20.4119 9.83751 20.4119C9.71047 20.4119 9.58343 20.4331 9.45639 20.3696C10.5998 17.2359 11.7008 14.0811 12.823 10.9474C12.2936 10.9474 11.7643 10.9474 11.2138 10.9474C11.1291 11.1168 11.0656 11.3073 11.0021 11.4767C9.96456 14.3775 8.92705 17.2571 7.91073 20.1579C7.86838 20.2426 7.86838 20.3908 7.76251 20.3908C6.91557 20.3908 6.04746 20.3908 5.20052 20.3908C5.0523 20.3908 4.88292 20.4119 4.7347 20.3696C7.10613 13.9117 9.39287 7.39024 11.722 0.911148C7.14848 1.88513 3.23138 5.31524 1.5375 9.65581C0.838776 11.3709 0.542347 13.2341 0.5 15.0762C0.542347 15.9655 0.605867 16.8548 0.775255 17.7229C1.32577 20.6237 2.80791 23.3551 4.94644 25.4089C6.72501 27.1239 8.94823 28.3732 11.3408 28.9872C13.6699 22.4869 15.9778 15.9655 18.3069 9.44407C18.3281 9.40173 18.3704 9.29585 18.3916 9.25351C19.8314 9.27468 21.25 9.25351 22.6898 9.25351C23.1556 9.25351 23.6426 9.21116 24.0873 9.35938C24.6166 9.50759 25.1036 9.88871 25.273 10.418C25.4 10.8415 25.3153 11.2862 25.1671 11.6885C24.2567 14.3563 23.2827 17.003 22.3511 19.6709C22.1181 20.3696 21.4194 20.7931 20.6995 20.8142C19.5773 20.8354 18.4763 20.8142 17.3541 20.8354C16.3378 23.6938 15.3215 26.5523 14.3051 29.4107C14.5804 29.5166 14.8556 29.4319 15.1309 29.453C15.5544 29.4954 15.9567 29.4107 16.3801 29.3683C19.0903 29.1143 21.737 28.0556 23.8755 26.3829C25.5906 25.0489 27.0092 23.2915 27.962 21.3224C28.809 19.6285 29.2748 17.7653 29.4018 15.8808C29.3383 15.2456 29.3595 14.5892 29.4018 13.9329Z" fill="#c7c7c7"/>
<path d="M17.9258 19.1839C18.4551 19.1839 19.0057 19.2051 19.535 19.1628C20.4878 16.4102 21.483 13.6788 22.4569 10.9263C22.0335 10.9263 21.6312 10.9263 21.2077 10.9263C21.0807 10.9474 20.9325 10.8839 20.8478 10.9898C19.8738 13.7212 18.8998 16.4526 17.9258 19.1839Z" fill="#c7c7c7"/>
</svg>
