<svg width="107" height="24" viewBox="0 0 107 24" fill="none" xmlns="http://www.w3.org/2000/svg">
<path d="M11.6534 0.714539L7.29164 5.07628H14.2366V12L18.5983 7.63828V0.714539H11.6534ZM14.2366 12V18.9238H7.29164L11.6534 23.2855H18.5983V16.3406L14.2366 12ZM14.2366 12L7.29164 5.07628V18.9238L14.2366 12ZM7.27047 18.9238L0.325562 12V18.9238H7.27047ZM0.325562 12L7.27047 5.07628H0.325562V12Z" fill="#c7c7c7"/>
<path d="M23.2353 4.29285H25.8185V19.686H23.2353V4.29285ZM29.1003 11.5977L34.0549 4.29285H31.0483L26.009 11.5977L31.7259 19.686H34.9654L29.1003 11.5977ZM97.5966 19.686H106.087V6.09259C106.087 5.09744 105.283 4.29285 104.287 4.29285H96.1145V6.62193H103.483V10.6661H97.5966C96.6015 10.6661 95.7969 11.4707 95.7969 12.4658V17.8862C95.7969 18.8814 96.6015 19.686 97.5966 19.686ZM98.38 13.0163H103.504V17.3569H98.38V13.0163ZM91.9221 4.29285C92.9173 4.29285 93.7219 5.09744 93.7219 6.09259V11.1531C93.7219 12.1482 92.9173 12.9528 91.9221 12.9528H90.8846L94.6323 19.7072H91.7951L86.777 10.6872H91.1387V6.64311H85.93V19.7072H83.3469V4.31403L91.9221 4.29285ZM71.8496 6.09259C71.8496 5.09744 72.6542 4.29285 73.6494 4.29285H81.166V6.62193H74.4328V10.6661H80.9331V12.9952H74.4328V17.3357H81.166V19.6648H73.6494C72.6542 19.6648 71.8496 18.8602 71.8496 17.8651V6.09259ZM60.6912 6.09259C60.6912 5.09744 61.4958 4.29285 62.491 4.29285H69.9017V6.62193H63.2744V17.3357H69.9017V19.6648H62.491C61.4958 19.6648 60.6912 18.8602 60.6912 17.8651V6.09259ZM47.7542 6.09259C47.7542 5.09744 48.5588 4.29285 49.554 4.29285H56.6471C57.6422 4.29285 58.4468 5.09744 58.4468 6.09259V17.9074C58.4468 18.9026 57.6422 19.7072 56.6471 19.7072H49.5751C48.58 19.7072 47.7754 18.9026 47.7754 17.9074L47.7542 6.09259ZM50.3585 17.3569H55.8848V6.64311H50.3585V17.3569ZM35.4312 11.4283V4.29285H38.0144V10.8778H42.9266V4.29285H45.5098V17.8862C45.5098 18.8814 44.7052 19.686 43.7101 19.686H36.0453V17.3357H42.9266V13.2069H37.231C36.2358 13.2281 35.4312 12.4023 35.4312 11.4283Z" fill="#c7c7c7"/>
</svg>
