<?xml version="1.0" encoding="utf-8"?>
<!-- Generator: Adobe Illustrator 26.0.3, SVG Export Plug-In . SVG Version: 6.00 Build 0)  -->
<svg version="1.1" id="Camada_1" xmlns="http://www.w3.org/2000/svg" xmlns:xlink="http://www.w3.org/1999/xlink" x="0px" y="0px"
	 viewBox="0 0 1920 401.1" style="enable-background:new 0 0 1920 401.1;" xml:space="preserve">
<style type="text/css">
	.st0{fill:#c7c7c7;}
	.st1{fill:#c7c7c7;}
</style>
<g>
	<path class="st0" d="M675.7,243.1c8.3,0,16,0,23.7,0c28.1,0,56.2,0,84.4-0.1c3.2,0,4.3,0.6,3.8,4.1c-2,13.8-5.7,27.2-8,40.8
		c-0.7,4.1-1.5,8.1-2,12.2c-0.2,1.8-0.9,2.4-2.6,2.3c-0.8-0.1-1.7,0-2.5,0c-61.1,0-122.1,0-183.2,0.1c-3.8,0-4.8-1-4.6-4.7
		c1.5-40.2,17.9-73.4,46.6-101.1c12.8-12.3,27.4-22.1,42.4-31.4c13.1-8.2,26-16.5,39-24.9c6.7-4.4,12.5-10,17.4-16.3
		c1.7-2.2,3.2-4.5,4.5-6.9c9.2-16.9,0.6-31.6-18.7-32c-13.7-0.3-25.1,5.2-35.3,13.9c-4.4,3.8-8.4,8-11.6,12.9
		c-1.5,2.3-2.6,2.1-4.4,0.6c-12.7-10.1-25.5-20.1-38.1-30.3c-7-5.7-7.2-6.8-1.1-13.8c19.6-22.3,42.9-38.9,72.3-45.9
		c22.1-5.3,43.8-4.3,64.9,4c47,18.4,64.5,73.8,37,116.1c-12.7,19.5-30.1,34.2-49.2,47.1c-14.5,9.8-29.9,18.1-44.9,27
		c-7.1,4.2-14.1,8.5-20.4,13.9C681,233.8,677.6,237.5,675.7,243.1z"/>
	<g>
		<path class="st1" d="M887.6,119.7c2.1-0.3,3.4-1.7,4.6-2.9c12.5-11.4,27.5-17,44-18.9c15.7-1.8,31-0.1,45.6,6.7
			c17.3,8.1,27,22.7,33.6,39.6c14.1,36.1,9.1,70.8-9.8,103.8c-14.6,25.7-35.3,45-63.7,54.7c-21.4,7.4-42.5,6.1-63.1-3.5
			c-4.5-2.1-8.8-4.6-12.3-8.2c-0.9-1-2.2-1.7-3.4-2.3c-2.2-1.2-3.6-0.6-3.7,2.1c-1.3,20.5-7.1,40.3-10.7,60.4
			c-1.1,5.9-2.1,11.9-2.7,17.9c-0.9,9.2-3,11.5-12.4,11.6c-10.7,0.2-21.5,0-32.2-0.1c-6.8,0-13.5-0.2-20.3-0.1
			c-3.1,0.1-4.1-0.7-3.9-3.9c0.7-8.5,2-16.9,3.7-25.3c13.5-65.8,25.5-131.9,38.3-197.8c2.8-14.3,5-28.7,7.5-43
			c1.3-7.4,3.8-9.6,11.4-9.8c10.9-0.2,21.8-0.1,32.6,0.5c4.1,0.2,8.3,0.1,12.4,0.2c6.2,0.2,6-1.5,5.8,6.3
			C889,111.9,887.3,115.6,887.6,119.7z M952.8,191.1c0-3.4,0.1-6.8,0-10.2c-0.6-12.3-8.4-22.3-20.2-25.2
			c-14.4-3.5-26.7,1.4-37.1,11.2c-16.4,15.4-23.3,34.6-20.3,57.1c1.3,10,4.8,19,15.2,22.7c13.7,4.9,27.2,4.4,39.1-4.9
			C945.9,228.9,954.3,212.3,952.8,191.1z"/>
		<path class="st1" d="M1120,122.4c4.2-2.2,7-5,10.1-7.4c17.1-13.1,36.3-19.1,57.8-17.7c14.1,0.9,27.1,4.7,38.1,14
			c14.2,12,18.4,27.7,16.8,45.6c-3.1,34.2-11.4,67.4-18.2,100.9c-2.8,14-5.9,28-7,42.2c-0.1,1.8-0.8,2.3-2.5,2.3
			c-20.9,0-41.9-0.1-62.8,0c-3,0-2.5-1.8-2.4-3.6c0.6-10.3,2.9-20.4,5.1-30.5c5.8-26.6,11.4-53.2,15.2-80.1c0.7-4.6,1-9.3,1-14
			c0-9.2-5.9-15.1-15.1-15.7c-11.4-0.7-20.6,4.2-28.8,11.4c-14.6,12.8-22.3,29.5-26.2,48c-5.6,26.6-9.9,53.5-15.7,80.1
			c-0.7,3.1-1.6,4.5-5.3,4.5c-19.8-0.2-39.7-0.2-59.5-0.1c-2.9,0-4-0.2-3.3-3.8c8.1-41.8,16-83.7,23.9-125.5
			c8.1-42.6,16.2-85.3,25.2-127.8c1.3-6.3,2.9-12.6,4.3-18.9c0.5-2.4,1.6-3.3,4.2-3.3c19.6,0.1,39.1,0.2,58.7,0c3.7,0,4,1.4,3.7,4.4
			c-1.9,18.4-6.3,36.3-10.1,54.3C1124.1,95,1121,108.1,1120,122.4z"/>
		<path class="st1" d="M1247.1,213c0.3-37.6,17.1-66.7,46.5-89c24.1-18.3,51.7-27.4,82-26.9c27.2,0.5,51.6,9.4,72.5,26.9
			c12,10.1,19.5,23,22.5,38.4c3.7,19.2,4.8,38.5-0.7,57.6c-8.8,30.9-28.9,53-56.1,69c-19.1,11.3-39.9,17.4-62,18
			c-30.4,0.9-57.6-8.2-80.7-28.3c-14.8-12.9-20.8-30.3-23.1-49.3C1247.4,224,1247,218.5,1247.1,213z M1371.2,154.5
			c-6.3-0.2-12.8,1-18.9,3.7c-23.5,10.7-36.1,29.2-37.7,54.6c-0.8,12.4,3.7,23.7,15.1,30.2c15.3,8.7,31.6,9.7,46.8,0.6
			c21.5-12.9,30.2-33.2,28.8-57.7C1404.1,166,1391.3,154.5,1371.2,154.5z"/>
		<path class="st1" d="M1564.7,126.3c5-5,9.3-9.2,14.2-12.7c23.6-16.6,49.6-20.5,77.1-12.9c20.7,5.7,30.8,20.9,33.7,41.5
			c2.5,17.2-1.1,33.9-4.3,50.7c-6,31.4-11.5,63-18.1,94.3c-0.9,4-1.9,8-2.6,12.1c-0.5,2.5-1.7,3.2-4.2,3.2
			c-20.3-0.1-40.5-0.1-60.8,0c-3,0-3.8-0.8-3.2-3.8c4.2-20.2,8.3-40.3,12.4-60.5c3.8-19,7.6-38,10.2-57.2c0.4-3.1,0.7-6.3-0.1-9.4
			c-2.7-11-10.8-15.4-23-12.3c-15.6,4.1-26.6,14.3-35.7,27.2c-7.8,11-10.3,23.8-13,36.6c-4.8,23.7-9.7,47.4-13.7,71.2
			c-1.4,8.2-1.5,8.2-9.9,8.2c-18.3,0-36.7-0.1-55,0.1c-3.1,0-4-0.5-3.5-3.8c3.3-21.3,7.4-42.5,11.5-63.7
			c8.3-42.6,16.7-85.2,25-127.8c0.8-4.1,2-5.8,6.7-5.7c18.5,0.4,36.9,0.1,55.4,0.1c4.9,0,4.9,0,4.1,4.9
			C1566.9,112.8,1564.8,118.8,1564.7,126.3z"/>
		<path class="st1" d="M123.3,126.6c4.4-2.5,7.3-5.4,10.2-8.3c13.3-13.4,29.8-19.2,48.2-20.8c11.7-1,23.4-0.3,34.7,3.3
			c18.6,5.9,28.7,19.1,31.7,38c2.8,17.2,0.8,34.4-2.8,51.2c-7.6,35.3-13.5,71-21.2,106.3c-1.6,7.1-0.2,6-7.2,6
			c-18.9,0.1-37.8,0-56.6,0c-5.4,0-5.6-0.1-4.6-5.6c2.2-11,4.7-22,6.8-33.1c5.3-26.8,10.4-53.7,15.6-80.5c1.1-5.9,0.2-11.5-1.8-17
			c-1.5-4.1-4.9-5.9-8.8-6.6c-12.4-2.4-23.1,1.8-32.8,8.9c-11.1,8.1-17.4,19.7-22.2,32.2c-6.4,16.6-9.6,34.1-12.2,51.6
			c-2.2,14.5-5.3,28.9-8,43.3c-1.3,6.7-1.2,6.7-8,6.7c-18.6,0-37.2,0-55.8,0c-4.9,0-4.8,0-4.1-4.8c5.2-33.4,12.5-66.4,18.9-99.6
			c5.5-28.6,10.9-57.2,16.4-85.8c2-10.5,2.1-10.5,12.7-10.5c17.1,0,34.2,0.1,51.3-0.1c3.5,0,4.2,1,3.5,4.2
			C125.7,112.5,123.7,119.1,123.3,126.6z"/>
		<path class="st1" d="M383.6,215.7c-19,0-38,0.1-57-0.1c-3.7,0-4.3,1.2-4,4.5c1.7,16.8,15,29,32.3,29.4
			c17.2,0.4,33.7-2.2,48.6-11.7c4.8-3,10-5.1,15.5-6.7c1.8-0.5,2.7-0.7,3,1.6c1.5,9.4,5.3,18.2,8.7,27c2.3,6,4.4,12.1,5.6,18.5
			c0.4,2.2-0.3,3.2-2,4.4c-27.4,18.4-57.4,26.5-90.4,23.4c-13.2-1.2-26.4-2.5-38.5-8.4c-31-15.2-49.4-39.2-50.7-74.6
			c-1.3-35.2,9.9-65.9,33.7-92c16.4-18,37-28.2,61-31.7c15.2-2.2,30.5-3.2,45.7-0.4c31.6,5.9,49.7,26,57.2,56.3
			c3.9,15.5,4.2,31.3,0.2,46.9c-0.6,2.4-1.5,4.7-2.5,7c-2,4.5-5.1,6.9-10.6,6.8C420.8,215.5,402.2,215.7,383.6,215.7z M361.6,175.4
			c8.3,0,16.5,0,24.8,0c1.3,0,3,0.7,3.4-1.8c1.6-10.1-6.4-22.4-16.3-24.8c-15-3.6-35.6,8.8-39.8,23.8c-0.7,2.5,0.3,2.8,2.3,2.8
			C344.5,175.4,353.1,175.4,361.6,175.4z"/>
		<path class="st1" d="M1825.1,215.7c-19.3,0-38.6,0.1-57.9-0.1c-3.6,0-4.1,1.1-3.5,4.3c3.2,19.2,15.5,29.6,35,29.6
			c16.7,0,32.5-3.2,46.9-12.2c4.6-2.9,9.6-4.8,14.8-6.2c1.7-0.5,2.6-0.3,2.8,1.6c1.6,11.5,6.9,21.7,10.5,32.5
			c1.3,3.9,2.2,7.9,3.4,11.9c0.9,3-0.2,4.7-2.8,6.4c-27.4,18-57.1,25.7-89.9,22.6c-14.1-1.3-28.1-2.9-40.7-9.6
			c-27.7-14.7-45.3-36.7-47.6-69c-2.5-35.2,6.3-66.9,30.6-93.2c19.2-20.8,43.3-32.7,71.3-36.6c19.2-2.7,38-0.9,55.7,7.4
			c23.2,10.9,36.8,29.2,40.9,54.3c2.7,16.1,0.8,32.1-2.9,47.9c-1.7,7.1-3.7,8.5-10.9,8.5C1862.3,215.7,1843.7,215.7,1825.1,215.7z
			 M1803.8,176.8c8.7,0,15.6-0.1,22.2-2.5c4.6-1.6,6.6-4.8,5.2-8.8c-2.8-8-7.9-14.3-16.5-16.5c-15.3-3.9-35.8,8.7-40,24
			c-0.7,2.4,0.4,2.5,2.1,2.5C1786.4,175.9,1796,176.4,1803.8,176.8z"/>
		<path class="st1" d="M575.5,158.7c-5.8,0-11.6-0.2-17.4,0.1c-5,0.2-7.4,2.2-7.8,6.9c-1.5,16.5-6.2,32.4-9,48.6
			c-0.8,4.6-0.9,9.3-0.4,14c0.9,7.1,5,11.7,11.8,13.8c7.1,2.2,14.4,2.2,21.7,1.4c4.1-0.4,5.5,0.6,4.8,4.8c-2.7,15.7-4.9,31.5-8.6,47
			c-1.9,7.9-3.8,9-12.1,9c-14.5,0-29-0.3-43-4.4c-21.8-6.3-37.5-19.3-43.6-41.9c-2.5-9.2-1.5-18.6-0.3-27.9
			c2.8-21.7,6.3-43.2,11.4-64.5c1.7-7,1.7-7-5.7-7c-4.8,0-9.6-0.1-14.5,0c-2.3,0.1-3.3-0.5-2.9-3c2.6-14.4,5.2-28.9,7.8-43.4
			c0.7-4.2,3-6.7,7.5-6.7c5.8,0,11.6-0.1,17.3,0.2c3.8,0.2,5.3-0.4,5.7-4.8c1-12.3,4.7-24.2,6.6-36.5c0.4-2.4,0.8-4.9,1.2-7.3
			c1.5-8,4.2-10.6,12.5-10.8c9.6-0.2,19.3-0.1,28.9-0.1c6.1,0,12.1,0,18.2,0.1c5.7,0.1,7.7,2.4,7,8c-1.1,9.9-4.3,19.3-6.4,28.9
			c-1.4,6.3-2.1,12.7-2.9,19.1c-0.3,2.6,0.6,3.3,3.2,3.3c10.9-0.1,21.8,0.2,32.6-0.2c4.2-0.1,4.7,1.3,4.3,5
			c-1.5,11.3-4.7,22.3-6.7,33.5c-0.7,3.7-1.5,7.3-1.3,11c0.1,2.7-0.7,3.6-3.5,3.5C586.5,158.5,581,158.7,575.5,158.7L575.5,158.7z"
			/>
	</g>
</g>
</svg>
