<svg width="85" height="22" viewBox="0 0 85 22" fill="none" xmlns="http://www.w3.org/2000/svg">
<path fill-rule="evenodd" clip-rule="evenodd" d="M23.8152 1.45045C24.8951 1.89509 25.615 2.5303 26.102 3.01729C26.7795 3.69484 27.3089 4.45709 27.8594 5.70633C28.177 6.51092 28.664 7.8025 28.664 10.7244C28.664 13.6464 28.3464 14.8321 27.9864 15.8696C27.6265 16.9071 27.0125 18.0081 26.229 18.8339C25.0221 20.0408 23.8152 20.676 22.1637 21.2053C20.6392 21.65 18.2678 21.8829 14.3295 21.8405C10.6665 21.7982 9.67135 21.7135 7.82925 21.4382C7.02466 21.3112 5.37312 20.8454 4.46266 20.4007C3.74276 19.9984 2.72642 19.2362 2.17591 18.601C1.54071 17.7964 0.926675 16.7589 0.693766 15.7426C0.460858 14.8956 0.164429 13.6464 0.164429 10.7244C0.164429 8.26831 0.524394 6.59561 0.841996 5.79101C1.28664 4.75351 2.17593 3.41958 2.72644 2.89024C3.97568 1.7257 5.33077 1.0905 6.89761 0.688206C8.5068 0.243562 10.3065 0.158868 14.3295 0.158868C18.056 0.116521 19.6229 0.391776 21.2321 0.688206C21.0839 0.645859 22.566 0.899935 23.8152 1.45045ZM19.3265 6.02393C19.1571 5.53694 18.7548 4.81704 18.5219 4.49944C18.2466 4.13949 17.6749 3.73718 17.1879 3.52545C16.7433 3.33489 15.4517 3.03846 14.5412 3.03846C13.652 3.03846 12.6991 3.12316 11.8946 3.39841C11.3652 3.5678 10.7724 3.92775 10.5183 4.2877C10.2854 4.6053 9.79839 5.17699 9.52313 5.93923C9.35374 6.38388 9.0785 8.03541 9.0785 10.5551C9.0785 13.0535 9.24788 14.6839 9.52313 15.8908C9.60783 16.2931 9.75603 17.013 10.4124 17.6694C11.1323 18.3469 11.4923 18.3892 11.9793 18.5586C12.5086 18.6857 13.6731 18.8339 14.5412 18.8339C15.4729 18.8339 16.6374 18.7069 17.1032 18.4739C17.5902 18.2622 18.1407 17.7964 18.4372 17.4364C18.7548 16.9918 19.03 16.4413 19.2418 15.8273C19.4112 15.3403 19.6017 13.0959 19.6017 10.5551C19.6017 8.07775 19.517 6.51092 19.3265 6.02393ZM41.4104 18.3681V12.99L43.3796 11.7831L49.0117 18.3681H46.9155V21.3747H61.737V18.3681H58.6457L49.1599 8.1201L56.0625 3.82188H60.0008V0.815241H46.9367V3.82188H49.3082L41.4104 9.00939V3.82188H44.4594V0.815241H29.7227V3.82188H32.814V18.3681H29.7227V21.3747H44.0994V18.3681H41.4104ZM75.5421 18.3681V3.82188H78.5911V0.815241H63.1768V3.82188H66.5857V18.3681H63.1768V21.3747H78.5911V18.3681H75.5421ZM82.9528 2.84791C83.2281 2.80556 83.4822 2.615 83.4822 2.2127C83.4822 1.76806 83.1222 1.61983 82.6776 1.61983H81.7459V3.94892H82.0212V2.91142H82.5929L83.1858 3.94892H83.5457L82.9528 2.84791ZM83.1434 2.2127C83.1434 2.5303 82.8682 2.61499 82.6564 2.61499H82.0212V1.8951H82.6141C82.8258 1.8951 83.1434 1.93744 83.1434 2.2127Z" fill="#c7c7c7"/>
<path fill-rule="evenodd" clip-rule="evenodd" d="M83.948 1.32352C83.5457 0.963569 83.0587 0.751831 82.5082 0.751831C81.4283 0.751831 80.4967 1.64112 80.4967 2.76331C80.4967 3.29265 80.7296 3.75846 81.0896 4.16076C81.4495 4.52071 81.9789 4.73245 82.487 4.73245C83.0587 4.73245 83.5245 4.54188 83.9268 4.16076C84.2868 3.75846 84.4985 3.27148 84.4985 2.76331C84.5197 2.2128 84.3079 1.72581 83.948 1.32352ZM82.5082 4.45719C82.0635 4.45719 81.6189 4.28781 81.3013 3.97021C80.9837 3.6526 80.772 3.20796 80.772 2.76331C80.772 2.27632 80.9625 1.83167 81.3013 1.51407C81.6189 1.19647 82.0635 1.02708 82.5082 1.02708C82.9952 1.02708 83.3975 1.19647 83.7574 1.51407C84.075 1.83167 84.2444 2.27632 84.2444 2.76331C84.2233 3.69495 83.461 4.45719 82.5082 4.45719Z" fill="#c7c7c7"/>
</svg>
