<svg width="107" height="22" viewBox="0 0 107 22" fill="none" xmlns="http://www.w3.org/2000/svg">
<path d="M101.569 0.984806H100.849V0.540161H102.755V0.984806H102.035V3.35623H101.569V0.984806ZM103.199 0.561336H104.004L104.703 2.93276H104.745L105.444 0.561336H106.248V3.35623H105.804V0.984806H105.761L105.063 3.35623H104.427L103.729 0.984806H103.686V3.35623H103.242L103.199 0.561336Z" fill="#c7c7c7"/>
<path d="M72.8365 10.9788C72.8365 7.35812 71.4391 4.13975 67.7337 4.13975C64.0072 4.13975 62.5886 7.35812 62.5886 10.9788C62.5886 14.5995 64.0283 17.8178 67.7337 17.8178C71.4391 17.8178 72.8365 14.5995 72.8365 10.9788ZM78.3204 10.9788C78.3204 17.1826 73.9375 21.7561 67.7337 21.7561C61.4028 21.7561 57.1046 17.3732 57.1046 10.9788C57.1046 4.94434 61.3393 0.201477 67.7337 0.201477C73.9375 0.201477 78.3204 4.79613 78.3204 10.9788ZM36.037 8.98848H26.4242C26.5301 8.28976 26.7206 7.63338 27.0382 6.99817C27.9063 5.26195 29.5367 4.16092 31.5482 4.16092C34.3219 4.16092 36.0158 6.04536 36.0158 8.84026L36.037 8.98848ZM41.0339 9.07317C40.7798 6.27827 39.7423 4.01271 38.0273 2.48821C36.3758 1.00607 34.1525 0.222652 31.4 0.222652C29.3673 0.222652 26.8053 0.921379 24.9209 2.46704C22.6765 4.33031 20.9191 7.20991 20.9191 11.127C20.9191 14.4936 22.0201 17.2038 23.9892 19.0247C25.916 20.8245 28.6262 21.7985 32.014 21.7985C34.7242 21.7985 38.0061 20.7821 39.4036 19.914C39.8906 19.6176 40.0599 19.4694 39.9329 18.9824L39.0436 16.4839C38.9377 16.0816 38.4931 15.9757 38.1332 16.1663C37.5826 16.4627 37.0109 16.7168 36.4181 16.9285C35.2112 17.3732 33.9408 17.6908 32.7339 17.6908C30.2143 17.6908 28.7745 17.0132 27.6734 15.7428C26.9747 14.9382 26.5724 13.9219 26.4454 12.7574H40.3564C40.8645 12.7574 41.0762 12.4186 41.0762 11.8046V10.7882C41.0974 10.2801 41.0763 9.53899 41.0339 9.07317ZM46.0309 3.18694C47.5977 1.15429 50.0538 0.222652 54.0768 0.222652C55.0296 0.222652 55.9824 0.328517 56.914 0.497905C57.3799 0.603772 57.4645 0.984897 57.3798 1.47189L56.914 3.82215C56.8082 4.26679 56.6811 4.39383 56.3424 4.39383C56.2577 4.39383 56.1518 4.39383 56.0671 4.37266C55.7283 4.33031 54.7967 4.22444 54.3944 4.22444C52.4041 4.22444 51.4513 4.73261 50.7314 5.47368C49.9056 6.36297 49.8844 7.67572 49.8844 10.026V20.4433C49.8844 21.1209 49.588 21.5232 48.8469 21.5232H45.6709C44.9934 21.5232 44.6969 21.1844 44.6334 20.4433V10.2165C44.6122 6.49001 44.824 4.73261 46.0309 3.18694ZM89.1613 7.50634C89.8812 6.76526 91.5327 4.71143 93.3748 1.23898C93.6924 0.646119 93.9677 0.497905 94.37 0.497905H97.7789C98.0965 0.497905 98.4565 0.646119 98.2659 1.23898C96.9108 5.26194 93.8195 8.79792 92.1044 10.6188C93.9677 12.3974 97.2919 16.5686 98.8376 20.6974C98.9858 21.0786 98.9011 21.4808 98.1388 21.4808H94.0524C93.6289 21.4808 93.2901 21.4385 93.0149 20.7398C91.9985 18.2201 90.4105 15.5734 88.6108 13.8372C86.6416 15.9334 85.1383 18.5166 84.122 20.7398C83.8679 21.2903 83.635 21.4808 83.0845 21.4808H79.3368C79.0827 21.4808 78.8286 21.1844 78.998 20.7398C80.1202 17.6908 82.3222 13.8796 85.5194 11.0211C83.021 8.0145 80.6284 4.33031 79.6756 1.23898C79.5273 0.77316 79.7814 0.497905 80.1202 0.497905H84.5243C85.0113 0.497905 85.2442 0.688466 85.4771 1.23898C86.557 3.7798 88.0391 6.17241 89.1613 7.50634ZM10.3959 7.50634C11.1158 6.76526 12.7673 4.71143 14.6094 1.23898C14.927 0.646119 15.2022 0.497905 15.6045 0.497905H19.0346C19.3311 0.497905 19.7122 0.646119 19.5005 1.23898C18.1454 5.26194 15.0328 8.79792 13.339 10.6188C15.2022 12.3974 18.5265 16.5898 20.0933 20.6974C20.2204 21.0786 20.1568 21.4808 19.3734 21.4808H15.2869C14.8635 21.4808 14.5459 21.4385 14.2494 20.7398C13.2331 18.2201 11.6451 15.5734 9.84533 13.8372C7.8762 15.9334 6.37289 18.5166 5.35656 20.7398C5.12365 21.2903 4.86956 21.4808 4.31905 21.4808H0.571352C0.31727 21.4808 0.0631932 21.1844 0.232581 20.7398C1.35478 17.6908 3.57798 13.8796 6.73284 11.0211C4.25554 8.0145 1.84176 4.33031 0.888955 1.23898C0.74074 0.77316 0.994817 0.497905 1.33359 0.497905H5.73769C6.22468 0.497905 6.45759 0.688466 6.71167 1.23898C7.79152 3.7798 9.27367 6.17241 10.3959 7.50634Z" fill="#c7c7c7"/>
</svg>
