<?xml version="1.0" encoding="utf-8"?>
<!-- Generator: Adobe Illustrator 26.0.3, SVG Export Plug-In . SVG Version: 6.00 Build 0)  -->
<svg version="1.1" id="Camada_1" xmlns="http://www.w3.org/2000/svg" xmlns:xlink="http://www.w3.org/1999/xlink" x="0px" y="0px"
	 viewBox="0 0 1920 444" style="enable-background:new 0 0 1920 444;" xml:space="preserve">
<style type="text/css">
	.st0{fill:#B8221F;}
	.st1{fill:#911B19;}
	.st2{fill:#FFFFFF;}
</style>
<g>
	<path class="st0" d="M1866.2,483c-38-12.3-76-24.7-114.1-36.7c-137.7-43.3-277.2-80-418-111.7c-86.9-19.6-174.1-37.2-261.6-53.4
		c-14.6-2.7-29.2-5.1-43.8-7.6c58.8-20.4,116.1-45.2,177.3-58.2c40.3-8.6,81.1-10.5,122.2-9c56.6,2.1,111,14.7,164.7,31.6
		c41.4,13,83.4,23.2,126.5,28.5c20.7,2.6,41.4,4.3,62.2,5.4c27.6,1.4,55.3,1.6,82.9,0.9c72.1-1.9,143-10.8,211.7-33.8
		c30.8-10.3,60.1-23.6,86.9-42.1c0,89,0,178,0,266.9c-10.3,0.1-20.5,2-30.7,3.1c-30.4,3-60.8,6.4-91.3,9.4
		C1916.2,478.6,1891.2,480.7,1866.2,483z"/>
	<path class="st0" d="M399.7,425.7c-15.3,4-30.6,7.7-45.8,11.9C257.8,464.2,168.7,505,88.7,565c-20.3,15.2-39.6,31.5-57.8,49
		c-13.3-1.1-26.7-2.5-39.9-4.4c0-114,0-227.9,0-341.9c51.7,0,103.1,3.9,153.6,15.5c58.8,13.5,111.2,39.9,159.3,76
		c25.6,19.2,50.5,39.2,77.8,56C387.6,418.8,393.7,422.2,399.7,425.7z"/>
	<path class="st1" d="M513,248.9c13.1-2.5,26.1-5.2,39.2-7.5c24.6-4.3,49.2-8.1,74-10.6c22.3-2.3,44.7-3.8,67.1-5.2
		c31.6-1.9,63.2-2.2,94.8-1.5c25.6,0.6,51.2,2.1,76.7,4c41.8,3.2,83.3,8.4,124.8,14.6c14.6,2.5,29.2,4.9,43.8,7.6
		c87.5,16.3,174.8,33.9,261.6,53.4c140.8,31.7,280.3,68.4,418,111.7c38.1,12,76,24.5,114.1,36.7c-0.6,0.2-1.3,0.4-1.9,0.5
		c-23.5,2-47.1,4.2-70.6,6.1c-46.3,3.6-92.6,7-138.9,10.4c-51.8,3.8-103.7,6.9-155.5,9.6c-49.7,2.6-99.5,4.7-149.2,6.5
		c-73.2,2.6-146.5,4.1-219.7,4.6c-19.7,0-39.3,0-59,0c-24-0.2-48-0.5-72-0.7c-5.3-0.1-10.7-0.2-16-0.3
		c-65.6-1.3-131.2-3.4-196.8-6.1c-28.5-1.2-56.9-2.5-85.4-4.1c-37.6-2.1-75.2-4.3-112.7-6.7c-26.3-1.6-52.5-3.4-78.8-5.3
		c-32.9-2.4-65.8-5-98.6-7.7c-28.5-2.3-57.1-4.8-85.6-7.4c-30-2.7-60-5.7-90-8.6c-17.4-1.7-34.7-3.7-52.1-5.6
		c18.3-17.6,37.6-33.9,57.8-49c80-59.9,169.2-100.8,265.2-127.3C482.5,256.6,497.8,252.8,513,248.9z"/>
	<path class="st2" d="M1919.9,386.9c-11.1,0.1-22,2-32.9,3.1c-32.6,3-65.2,6.4-97.9,9.4c-26.8,2.5-53.6,4.6-80.4,6.8
		c-0.7,0.2-1.4,0.4-2,0.5c-25.3,2-50.5,4.2-75.8,6.1c-49.7,3.6-99.4,7-149,10.4c-55.6,3.8-111.2,6.9-166.8,9.6
		c-53.3,2.6-106.7,4.7-160.1,6.5c-72.7,2.4-145.4,3.8-218.1,4.5c0-0.2,0-0.4,0-0.5c-5.8-0.1-11.7-0.2-17.5-0.3
		c-71.8-1.3-143.6-3.4-215.4-6.1c-31.1-1.2-62.3-2.5-93.4-4.1c-41.1-2.1-82.2-4.3-123.4-6.7c-28.7-1.6-57.5-3.4-86.2-5.3
		c-36-2.4-72-5-107.9-7.7c-31.2-2.3-62.5-4.8-93.7-7.4c-32.8-2.7-65.7-5.7-98.5-8.6c-19-1.7-38-3.7-57-5.6
		c-14.6-1.1-29.2-2.5-43.7-4.4c0,17.5,0.1,35-0.1,52.5c-0.1,3.8,0.9,4.6,5,4.6c310.6-0.1,621.2-0.1,931.8-0.1c0,0,0,0,0,0
		c326.1,0,652.2,0,978.3,0c0.5,0,1.1-0.1,1.6,0c2.7,0.5,3.3-0.5,3.3-3C1919.9,422.9,1919.9,404.9,1919.9,386.9z"/>
</g>
</svg>
