<?xml version="1.0" encoding="utf-8"?>
<!-- Generator: Adobe Illustrator 26.0.3, SVG Export Plug-In . SVG Version: 6.00 Build 0)  -->
<svg version="1.1" id="Camada_1" xmlns="http://www.w3.org/2000/svg" xmlns:xlink="http://www.w3.org/1999/xlink" x="0px" y="0px"
	 viewBox="0 0 1920 444" style="enable-background:new 0 0 1920 444;" xml:space="preserve">
<style type="text/css">
	.st0{fill:#B8221F;}
	.st1{fill:#911B19;}
</style>
<path class="st0" d="M1920,254.5c-50.9,11.6-102.9,16.8-155.4,18.1c-27.6,0.7-55.3,0.6-82.9-0.9c-20.8-1.1-41.5-2.8-62.2-5.4
	c-43.1-5.4-85.1-15.5-126.5-28.5c-53.7-16.9-108.1-29.5-164.7-31.6c-41.1-1.5-81.9,0.4-122.2,9c-61.2,13-118.5,37.8-177.3,58.2
	c14.6,2.5,29.2,4.9,43.8,7.6c87.5,16.3,174.8,33.9,261.6,53.4c102.3,23,203.9,48.7,304.6,77.6c22.7-1.7,45.3-3.6,68-5.5
	c0.7-0.1,1.4-0.3,2-0.5c26.8-2.3,53.6-4.4,80.4-6.8c32.6-3,65.2-6.3,97.9-9.4c11-1,21.8-2.9,32.9-3.1V254.5z"/>
<path class="st1" d="M293,412.9c36,2.7,71.9,5.2,107.9,7.7c28.7,1.9,57.5,3.7,86.2,5.3c41.1,2.3,82.2,4.6,123.4,6.7
	c31.1,1.6,62.3,2.9,93.4,4.1c71.8,2.7,143.6,4.8,215.4,6.1c5.8,0.1,11.7,0.2,17.5,0.3c0,0.2,0,0.4,0,0.5
	c72.7-0.6,145.4-2.1,218.1-4.5c53.4-1.8,106.7-3.9,160.1-6.5c55.6-2.7,111.3-5.8,166.8-9.6c49.7-3.4,99.4-6.8,149-10.4
	c19.7-1.4,39.3-3.1,59-4.7c-130.2-40.2-261.9-74.5-394.8-104.5c-86.9-19.6-174.1-37.2-261.6-53.4c-14.6-2.7-29.2-5.1-43.8-7.6
	c-41.4-6.2-83-11.4-124.8-14.6c-25.5-1.9-51.1-3.4-76.7-4c-31.6-0.7-63.2-0.4-94.8,1.5c-22.4,1.4-44.8,2.9-67.1,5.2
	c-24.8,2.6-49.5,6.3-74,10.6c-13.1,2.3-26.1,5-39.2,7.5c-15.3,4-30.6,7.7-45.8,11.9c-96,26.5-185.2,67.4-265.2,127.3
	c-6.9,5.2-13.7,10.5-20.4,15.9c5.9,0.5,11.8,1,17.7,1.5C230.5,408.1,261.8,410.6,293,412.9z"/>
<path class="st0" d="M381.5,415.1c-27.3-16.8-52.3-36.8-77.8-56c-48-36-100.5-62.5-159.3-76c-47.6-10.9-95.8-15-144.5-15.4v120.4h0
	c0-0.4,0-0.8,0-1.2c14.5,2,29.1,3.3,43.7,4.4c19,1.9,38,3.8,57,5.6c32.8,3,65.6,5.9,98.5,8.6c31.2,2.6,62.5,5,93.7,7.4
	c32.1,2.4,64.2,4.7,96.4,6.9C386.7,418.2,384.1,416.7,381.5,415.1z"/>
</svg>
