<?xml version="1.0" encoding="utf-8"?>
<!-- Generator: Adobe Illustrator 27.8.0, SVG Export Plug-In . SVG Version: 6.00 Build 0)  -->
<svg version="1.1" id="Camada_1" xmlns="http://www.w3.org/2000/svg" xmlns:xlink="http://www.w3.org/1999/xlink" x="0px" y="0px"
	 viewBox="0 0 144 144" style="enable-background:new 0 0 144 144;" xml:space="preserve">
<style type="text/css">
	.st0{display:none;fill:#FFFFFF;}
	.st1{fill:#D12824;}
</style>
<circle class="st0" cx="72" cy="72" r="72"/>
<g>
	<path class="st1" d="M15.1,92.2c-3.8-2.6-6.3-7.2-6.3-11.8V61.2c0-2.1-1.5-3.6-3.4-3.6S2,59.1,2,61.2v19.6c0,4.6,1.8,8.5,3.3,11
		c1.5,2.4,5,7.1,8,7.1c1.8,0,3.3-1.6,3.3-3.6C16.7,94,16.1,92.8,15.1,92.2z"/>
	<path class="st1" d="M5.5,52.1c2.3,0,3.4-1.7,3.4-3.4c0-1.7-1-3.5-3.4-3.5s-3.4,1.8-3.4,3.5C2.1,50.4,3.3,52.1,5.5,52.1z"/>
	<path class="st1" d="M40.8,63.5c2.1,0,3.9,0.5,5.7,1.3c0.5,0.2,0.9,0.3,1.5,0.3c1.9,0,3.4-1.6,3.4-3.6c0-1.5-0.7-2.6-1.9-3.2
		C47,57,44.1,56.3,41,56.3c-9.5,0-19.6,6.6-19.6,21.2S31.5,98.8,41,98.8c3.1,0,5.9-0.6,8.4-1.8c1.3-0.6,2.1-1.9,2.1-3.3
		c0-2.1-1.5-3.6-3.4-3.6c-0.6,0-1,0.1-1.5,0.3c-1.7,0.8-3.6,1.3-5.6,1.3c-5.9,0-12.8-3.6-12.8-14.1C28.1,67.1,34.9,63.5,40.8,63.5z"
		/>
	<path class="st1" d="M96.2,77.6c0-6.6-2.2-12.2-6.2-16.1c-3.5-3.3-8.3-5.2-13.4-5.2c-9.5,0-19.6,6.6-19.6,21.2
		C57,92,67.2,98.8,76.6,98.8C86.1,98.9,96.2,92.2,96.2,77.6z M89.4,77.6c0,10.4-6.8,14.1-12.8,14.1c-8.8,0-12.8-7.1-12.8-14.1
		c0-10.4,6.8-14,12.8-14C82.5,63.5,89.4,67.2,89.4,77.6z"/>
	<path class="st1" d="M122.5,56.3c-9.5,0-19.6,6.6-19.6,21.3v16.3c0,2.1,1.5,3.6,3.4,3.6s3.4-1.6,3.4-3.6V77.6
		c0-7.1,4-14.1,12.8-14.1c8.9,0,12.8,7.1,12.8,14.1v16.3c0,2.1,1.5,3.6,3.3,3.6c1.9,0,3.4-1.6,3.4-3.6V77.6
		C142,62.9,131.9,56.3,122.5,56.3z"/>
</g>
</svg>
