<svg width="1920" height="737" viewBox="0 0 1920 737" fill="none" xmlns="http://www.w3.org/2000/svg">
<path d="M179.268 645.747C127.099 610.141 93.4085 546.592 93.4085 483.944V220.282C93.4085 192.676 72.9015 171.042 46.6479 171.042C20.3944 171.042 0 192.789 0 220.395V488.902C0 552.113 24.5634 606.085 45.1831 640.226C65.4648 673.578 114.479 736.789 155.042 736.789C179.831 736.789 200.789 714.254 200.789 687.55C200.902 670.198 192.789 654.536 179.268 645.747Z" fill="#D12824"/>
<path d="M46.7606 95.4367C77.4085 95.4367 93.5212 71.662 93.5212 48.2254C93.5212 25.0141 78.8733 0 46.7606 0C14.6479 0 0 25.0141 0 48.2254C0 71.662 16 95.4367 46.7606 95.4367Z" fill="#D12824"/>
<path d="M531.606 250.929C559.211 250.929 585.465 256.675 609.127 267.718C615.211 270.873 621.972 272.563 628.733 272.563C654.986 272.563 675.493 250.929 675.493 223.323C675.493 202.816 665.69 186.929 648.338 178.929C613.634 161.126 575.437 152.45 531.606 152.45C402.479 152.45 263.437 243.605 263.437 443.605C263.437 644.394 402.479 735.774 531.606 735.774C574.423 735.774 613.409 727.211 647.324 710.31C664.676 701.746 675.493 684.394 675.493 664.901C675.493 637.296 654.986 615.662 628.733 615.662C621.071 615.662 614.423 617.239 608.451 620.394C584.451 631.662 558.535 637.295 531.493 637.295C450.93 637.295 356.845 586.591 356.845 443.492C356.958 301.408 451.042 250.929 531.606 250.929Z" fill="#D12824"/>
<path d="M1291.27 444.62C1291.27 353.465 1262.2 277.521 1207.33 224.902C1159.1 178.817 1093.75 153.352 1023.1 153.352C893.973 153.352 754.931 244.507 754.931 444.508C754.931 645.296 893.973 736.677 1023.1 736.677C1152.23 736.902 1291.27 645.409 1291.27 444.62ZM1197.75 444.62C1197.75 587.606 1103.66 638.423 1023.1 638.423C902.424 638.423 848.452 541.071 848.452 444.62C848.452 302.31 942.536 251.831 1023.1 251.831C1103.66 251.831 1197.75 302.31 1197.75 444.62Z" fill="#D12824"/>
<path d="M1651.83 152.45C1522.7 152.45 1383.66 243.83 1383.66 444.619V667.943C1383.66 695.549 1404.17 717.183 1430.42 717.183C1456.68 717.183 1477.18 695.549 1477.18 667.943V444.619C1477.18 348.168 1531.15 250.816 1651.83 250.816C1773.18 250.816 1827.49 348.168 1827.49 444.619V667.943C1827.49 695.549 1847.66 717.183 1873.24 717.183C1899.49 717.183 1920 695.549 1920 667.943V444.619C1920 243.943 1780.96 152.45 1651.83 152.45Z" fill="#D12824"/>
</svg>
