<?xml version="1.0" encoding="utf-8"?>
<!-- Generator: Adobe Illustrator 26.0.3, SVG Export Plug-In . SVG Version: 6.00 Build 0)  -->
<svg version="1.1" id="Camada_1" xmlns="http://www.w3.org/2000/svg" xmlns:xlink="http://www.w3.org/1999/xlink" x="0px" y="0px"
	 viewBox="0 0 361 602" style="enable-background:new 0 0 361 602;" xml:space="preserve">
<style type="text/css">
	.st0{fill:#ECECEC;}
	.st1{fill:#E1E1E1;}
	.st2{fill:#F5F5F5;}
	.st3{fill:#1A2E35;}
	.st4{fill:#FF4F5B;}
	.st5{opacity:0.6;}
	.st6{opacity:0.3;}
	.st7{fill:#375A64;}
	.st8{fill:#FAFAFA;}
	.st9{opacity:0.5;fill:#FFFFFF;}
</style>
<g>
	<g>
		<g>
			<rect x="289.5" y="342.7" class="st0" width="66.9" height="5.2"/>
			<rect x="338" y="342.7" class="st1" width="18.4" height="5.2"/>
		</g>
		<path class="st2" d="M281,347.9c0,0.4,0,23.4,0,23.4h-3.7v2.5h3.7v15.6h68.5v-14.2h-5.1v-3.1h5.1v-4.6h2.3v-2.1H349v-17.4H281z"/>
		<polygon class="st1" points="331.3,347.9 331.3,389.1 349.4,389.1 349.4,374.9 344.4,374.9 344.4,372.1 349.4,372.1 349.4,367.4 
			351.7,367.4 351.7,365 349,365 349,347.9 		"/>
		<g>
			<path class="st1" d="M332.6,373.4c0,0.1-12.4,0.3-27.7,0.3c-15.3,0-27.7-0.1-27.7-0.3s12.4-0.3,27.7-0.3
				C320.2,373.2,332.6,373.3,332.6,373.4z"/>
		</g>
		<g>
			<path class="st1" d="M332.6,371.1c0,0.1-12.4,0.3-27.7,0.3c-15.3,0-27.7-0.1-27.7-0.3c0-0.1,12.4-0.3,27.7-0.3
				C320.2,370.8,332.6,370.9,332.6,371.1z"/>
		</g>
		<g>
			<path class="st1" d="M336.1,364.7c0,0.1-12.4,0.3-27.7,0.3c-15.3,0-27.7-0.1-27.7-0.3c0-0.1,12.4-0.3,27.7-0.3
				C323.7,364.4,336.1,364.5,336.1,364.7z"/>
		</g>
		<g>
			<path class="st1" d="M336.5,382.1c0,0.1-12.4,0.3-27.7,0.3c-15.3,0-27.7-0.1-27.7-0.3c0-0.1,12.4-0.3,27.7-0.3
				C324.1,381.8,336.5,381.9,336.5,382.1z"/>
		</g>
		<g>
			<path class="st2" d="M288.8,394.3c0,0.4,0,23.4,0,23.4h-3.7v2.5h3.7v15.6h68.5v-14.2h-5.1v-3.1h5.1v-4.6h2.3v-2.1h-2.7v-17.4
				H288.8z"/>
			<polygon class="st1" points="339,394.4 339,435.6 357.2,435.6 357.2,421.4 352.1,421.4 352.1,418.6 357.2,418.6 357.2,414 
				359.5,414 359.5,411.6 356.8,411.5 356.8,394.3 			"/>
			<g>
				<path class="st1" d="M340.3,419.9c0,0.1-12.4,0.3-27.7,0.3c-15.3,0-27.7-0.1-27.7-0.3c0-0.1,12.4-0.3,27.7-0.3
					C327.9,419.6,340.3,419.8,340.3,419.9z"/>
			</g>
			<g>
				<path class="st1" d="M340.3,417.5c0,0.1-12.4,0.3-27.7,0.3c-15.3,0-27.7-0.1-27.7-0.3c0-0.1,12.4-0.3,27.7-0.3
					C327.9,417.3,340.3,417.4,340.3,417.5z"/>
			</g>
			<g>
				<path class="st1" d="M343.9,411.1c0,0.1-12.4,0.3-27.7,0.3c-15.3,0-27.7-0.1-27.7-0.3s12.4-0.3,27.7-0.3
					C331.5,410.9,343.9,411,343.9,411.1z"/>
			</g>
			<g>
				<path class="st1" d="M344.2,428.6c0,0.1-12.4,0.3-27.7,0.3c-15.3,0-27.7-0.1-27.7-0.3s12.4-0.3,27.7-0.3
					C331.8,428.3,344.2,428.4,344.2,428.6z"/>
			</g>
		</g>
		<g>
			<path class="st2" d="M287.8,301.1c0,0.4,0,23.4,0,23.4h-3.7v2.5h3.7v15.6h68.5v-14.2h-5.1v-3.1h5.1v-4.6h2.3v-2.1h-2.7v-17.4
				H287.8z"/>
			<polygon class="st1" points="338,301.2 338,342.4 356.2,342.4 356.2,328.2 351.1,328.2 351.1,325.3 356.2,325.4 356.2,320.8 
				358.5,320.8 358.5,318.4 355.8,318.3 355.8,301.1 			"/>
			<g>
				<path class="st1" d="M339.3,326.7c0,0.1-12.4,0.3-27.7,0.3c-15.3,0-27.7-0.1-27.7-0.3c0-0.1,12.4-0.3,27.7-0.3
					C326.9,326.4,339.3,326.6,339.3,326.7z"/>
			</g>
			<g>
				<path class="st1" d="M339.3,324.3c0,0.1-12.4,0.3-27.7,0.3c-15.3,0-27.7-0.1-27.7-0.3c0-0.1,12.4-0.3,27.7-0.3
					C326.9,324.1,339.3,324.2,339.3,324.3z"/>
			</g>
			<g>
				<path class="st1" d="M342.9,317.9c0,0.1-12.4,0.3-27.7,0.3c-15.3,0-27.7-0.1-27.7-0.3s12.4-0.3,27.7-0.3
					C330.5,317.7,342.9,317.8,342.9,317.9z"/>
			</g>
			<g>
				<path class="st1" d="M343.2,335.3c0,0.1-12.4,0.3-27.7,0.3c-15.3,0-27.7-0.1-27.7-0.3s12.4-0.3,27.7-0.3
					C330.8,335.1,343.2,335.2,343.2,335.3z"/>
			</g>
		</g>
		<g>
			<rect x="285" y="389.2" class="st0" width="66.9" height="5.2"/>
			<rect x="333.5" y="389.2" class="st1" width="18.4" height="5.2"/>
		</g>
	</g>
	<g>
		<g>
			<polygon class="st2" points="1.5,211 63.9,245.9 63.9,238 4.2,206.7 			"/>
			<polygon class="st3" points="63.9,245.9 14.8,218.4 10.7,224.2 41,242.2 41.2,250.1 63.9,262.4 			"/>
			<polygon class="st3" points="63.9,321.8 14.8,294.3 10.7,300.1 41,318.1 41.2,326 63.9,338.3 			"/>
			<path class="st4" d="M193.8,299.6H63.9v-71.9c0-5.1,4.1-9.3,9.3-9.3h120.7V299.6z"/>
			<rect x="63.9" y="302.6" class="st4" width="129.9" height="95.1"/>
			<polygon class="st3" points="63.2,379.7 8,379.7 8,384.7 63.9,390.7 			"/>
			<path class="st3" d="M55.2,399.5L55.2,399.5c-2.6,0-4.8-2.1-4.8-4.8v-4.8c0-2.6,2.1-4.8,4.8-4.8l0,0c2.6,0,4.8,2.1,4.8,4.8v4.8
				C60,397.3,57.8,399.5,55.2,399.5z"/>
			<polygon class="st3" points="14,382.7 14,366.2 21.5,366.2 21.5,383.8 			"/>
			<rect x="63.9" y="401" class="st4" width="129.9" height="30.3"/>
			<path class="st5" d="M193.8,299.6H63.9v-71.9c0-5.1,4.1-9.3,9.3-9.3h120.7V299.6z"/>
			<rect x="63.9" y="302.6" class="st5" width="129.9" height="95.1"/>
			<rect x="63.9" y="401" class="st5" width="129.9" height="30.3"/>
			<rect x="63.9" y="431.2" class="st4" width="129.9" height="12.3"/>
		</g>
		<rect x="164.6" y="206.7" class="st4" width="139.4" height="225.3"/>
		<rect x="164.6" y="206.7" class="st6" width="139.4" height="225.3"/>
		<rect x="257.3" y="203.5" class="st4" width="54" height="63.2"/>
		<g>
			<polygon class="st2" points="241.5,70.5 246.7,78.1 244.8,81.3 248.5,78.7 252.5,83 190.7,136.6 176.7,130.8 			"/>
			<polygon class="st3" points="263,79.3 259,75.5 251.4,82.3 215.9,113.7 220.7,117.5 			"/>
			<path class="st7" d="M195,139.9l34.7-30.3l0,0c-5.9-4.5-14.1-4.3-19.7,0.7l-27.2,24.2L195,139.9z"/>
		</g>
		<path class="st4" d="M138,165.9l17.6,25.5l131-90.7l0,0c-4.6-6.7-13.8-8.3-20.4-3.7l-59,40.8l-29.5-10.2l-37.7,26.5
			C136.3,156.8,135.3,162,138,165.9z"/>
		<path class="st4" d="M154.1,192.8v12.1c0,2.8,2.3,5.1,5.1,5.1h65.7h86.3v-17.2H154.1z"/>
		<path class="st3" d="M224.9,230.2v-37.4h86.3v30.7c0,3.7-3,6.7-6.7,6.7H224.9"/>
		<rect x="231" y="197.8" class="st7" width="45.8" height="23.8"/>
		<rect x="284.3" y="197.8" class="st7" width="2.6" height="2.6"/>
		<rect x="289.3" y="197.8" class="st7" width="2.6" height="2.6"/>
		<rect x="294.2" y="197.8" class="st7" width="2.6" height="2.6"/>
		<rect x="300.2" y="197.8" class="st2" width="6.9" height="2.6"/>
		<rect x="300.2" y="202.2" class="st2" width="6.9" height="2.6"/>
		<rect x="300.2" y="206.7" class="st2" width="6.9" height="2.6"/>
		<rect x="300.2" y="211.4" class="st2" width="6.9" height="2.6"/>
		<rect x="294.2" y="202.3" class="st7" width="2.6" height="2.6"/>
		<rect x="284.3" y="202.5" class="st7" width="2.6" height="2.6"/>
		<rect x="284.3" y="206.8" class="st7" width="2.6" height="2.6"/>
		<rect x="289.4" y="202.5" class="st7" width="2.6" height="2.6"/>
		<rect x="289.4" y="206.8" class="st7" width="2.6" height="2.6"/>
		<rect x="294.4" y="206.8" class="st7" width="2.6" height="2.6"/>
		<path class="st4" d="M299.7,219.4c0,2.5-2,4.5-4.5,4.5c-2.5,0-4.5-2-4.5-4.5c0-2.5,2-4.5,4.5-4.5C297.6,215,299.7,217,299.7,219.4
			z"/>
		<path class="st7" d="M289,219.4c0,1.5-1.2,2.6-2.6,2.6c-1.5,0-2.6-1.2-2.6-2.6c0-1.5,1.2-2.6,2.6-2.6
			C287.8,216.8,289,218,289,219.4z"/>
		<path class="st7" d="M306.6,219.5c0,1.5-1.2,2.6-2.6,2.6c-1.5,0-2.6-1.2-2.6-2.6c0-1.5,1.2-2.6,2.6-2.6
			C305.4,216.8,306.6,218,306.6,219.5z"/>
		<path class="st4" d="M311.3,337.6h-157v-62.3c0-4.7,3.8-8.6,8.6-8.6h148.4V337.6z"/>
		<path class="st4" d="M311.3,364.8h-157v-18.9c0-3.7,3-6.8,6.8-6.8h145.5c2.6,0,4.7,2.1,4.7,4.7V364.8z"/>
		<path class="st6" d="M252.4,351h-39.9c-2.9,0-5.2-2.3-5.2-5.2v-6.7h50.2v6.7C257.6,348.7,255.3,351,252.4,351z"/>
		<path class="st4" d="M311.3,417.7h-157v-44.8c0-3.9,3.2-7.1,7.1-7.1h142.7c3.9,0,7.1,3.2,7.1,7.1V417.7z"/>
		<path class="st6" d="M252.4,377.7h-39.9c-2.9,0-5.2-2.3-5.2-5.2v-6.7h50.2v6.7C257.6,375.4,255.3,377.7,252.4,377.7z"/>
		<rect x="154.3" y="420.4" class="st4" width="157" height="23.1"/>
		<rect x="195.7" y="249.5" class="st3" width="61.6" height="3.9"/>
		<rect x="174.4" y="235.1" class="st2" width="82.9" height="14.4"/>
		<g>
			<path class="st8" d="M257.1,201c0,0.1-5.1,0.3-11.4,0.3c-6.3,0-11.4-0.1-11.4-0.3c0-0.1,5.1-0.3,11.4-0.3
				C251.9,200.7,257.1,200.8,257.1,201z"/>
		</g>
		<g>
			<path class="st8" d="M243.9,204.7c0,0.1-2.2,0.3-4.8,0.3c-2.7,0-4.8-0.1-4.8-0.3c0-0.1,2.2-0.3,4.8-0.3
				C241.7,204.4,243.9,204.5,243.9,204.7z"/>
		</g>
		<g>
			<path class="st8" d="M243.9,208.6c0,0.1-2.2,0.3-4.8,0.3c-2.7,0-4.8-0.1-4.8-0.3c0-0.1,2.2-0.3,4.8-0.3
				C241.7,208.3,243.9,208.4,243.9,208.6z"/>
		</g>
		<g>
			<path class="st8" d="M244.2,215c0,0.1-2.2,0.3-4.8,0.3c-2.7,0-4.8-0.1-4.8-0.3c0-0.1,2.2-0.3,4.8-0.3
				C242,214.7,244.2,214.8,244.2,215z"/>
		</g>
		<g>
			<path class="st8" d="M270.7,215c0,0.1-2.2,0.3-4.8,0.3c-2.7,0-4.8-0.1-4.8-0.3c0-0.1,2.2-0.3,4.8-0.3
				C268.5,214.7,270.7,214.8,270.7,215z"/>
		</g>
		<rect x="154.3" y="420.4" class="st9" width="157" height="23.1"/>
		<g>
			<path class="st3" d="M280.9,95.8c0,0-0.1,0.1-0.3,0.2c-0.2,0.2-0.6,0.4-1,0.7c-0.9,0.6-2.1,1.5-3.8,2.6c-3.3,2.3-8,5.5-13.8,9.5
				c-11.7,8-27.7,19.2-45.3,31.9c-17.5,12.6-33.3,24.3-44.6,32.9c-5.6,4.3-10.2,7.7-13.4,10.1c-1.6,1.2-2.8,2.1-3.6,2.7
				c-0.4,0.3-0.7,0.5-1,0.7c-0.2,0.2-0.3,0.2-0.3,0.2s0.1-0.1,0.3-0.3c0.2-0.2,0.5-0.4,0.9-0.7c0.8-0.7,2-1.6,3.6-2.8
				c3.1-2.4,7.7-6,13.3-10.3c11.3-8.6,26.9-20.4,44.5-33c17.6-12.6,33.7-23.8,45.4-31.7c5.9-4,10.6-7.2,13.9-9.3
				c1.6-1.1,2.9-1.9,3.8-2.5c0.4-0.3,0.8-0.5,1-0.6C280.7,95.9,280.9,95.8,280.9,95.8z"/>
		</g>
		<g>
			<path class="st3" d="M311.2,330.7c0,0.1-35.1,0.3-78.3,0.3c-43.3,0-78.4-0.1-78.4-0.3s35.1-0.3,78.4-0.3
				C276.1,330.4,311.2,330.5,311.2,330.7z"/>
		</g>
		<g>
			<path class="st3" d="M311.2,324.9c0,0.1-35.1,0.3-78.3,0.3c-43.3,0-78.4-0.1-78.4-0.3c0-0.1,35.1-0.3,78.4-0.3
				C276.1,324.7,311.2,324.8,311.2,324.9z"/>
		</g>
		<g>
			<path class="st3" d="M311.2,319.2c0,0.1-35.1,0.3-78.3,0.3c-43.3,0-78.4-0.1-78.4-0.3s35.1-0.3,78.4-0.3
				C276.1,318.9,311.2,319,311.2,319.2z"/>
		</g>
		<g>
			<path class="st3" d="M311.2,313.4c0,0.1-35.1,0.3-78.3,0.3c-43.3,0-78.4-0.1-78.4-0.3s35.1-0.3,78.4-0.3
				C276.1,313.1,311.2,313.3,311.2,313.4z"/>
		</g>
		<g>
			<path class="st3" d="M311.4,364.7c0,0.1-35.2,0.3-78.7,0.3c-43.5,0-78.7-0.1-78.7-0.3c0-0.1,35.2-0.3,78.7-0.3
				C276.2,364.5,311.4,364.6,311.4,364.7z"/>
		</g>
		<g>
			<path class="st3" d="M311.4,417.7c0,0.1-35.2,0.3-78.7,0.3c-43.5,0-78.7-0.1-78.7-0.3s35.2-0.3,78.7-0.3
				C276.2,417.5,311.4,417.6,311.4,417.7z"/>
		</g>
		<g>
			<path class="st3" d="M257.6,339.1c0,0,0,0.2,0.1,0.7c0,0.5,0.1,1.2,0.1,2c0.1,0.9,0.1,1.9,0,3.2c-0.1,1.2-0.5,2.7-1.5,3.9
				c-0.5,0.6-1.2,1.2-2,1.5c-0.8,0.3-1.7,0.5-2.6,0.7c-1.8,0.3-3.8,0.5-5.8,0.5c-4.1,0-8.6-0.1-13.4-0.1c-4.7-0.1-9.3-0.1-13.4-0.2
				c-2.1-0.1-4,0-5.9-0.1c-0.9-0.1-1.8-0.2-2.6-0.6c-0.8-0.3-1.5-0.9-2-1.5c-1-1.3-1.4-2.7-1.4-4c-0.1-1.2,0-2.3,0-3.2
				c0-0.9,0.1-1.5,0.1-2c0-0.5,0.1-0.7,0.1-0.7c0,0,0,0.2,0,0.7c0,0.5,0,1.2,0,2c0,0.9,0,1.9,0.1,3.2c0.1,1.2,0.5,2.6,1.4,3.8
				c0.5,0.6,1.1,1.1,1.9,1.4c0.8,0.3,1.6,0.5,2.5,0.5c1.8,0.1,3.8,0.1,5.8,0.1c4.1,0,8.6,0.1,13.4,0.2c4.7,0,9.3,0.2,13.4,0.2
				c2,0,4-0.2,5.8-0.5c0.9-0.2,1.8-0.3,2.5-0.6c0.8-0.3,1.4-0.8,1.9-1.3c1-1.2,1.4-2.5,1.5-3.7c0.1-1.2,0.1-2.3,0.1-3.1
				c0-0.9,0-1.5,0-2C257.5,339.3,257.5,339.1,257.6,339.1z"/>
		</g>
		<g>
			<path class="st3" d="M257.6,365.3c0,0,0,0.2,0.1,0.7c0,0.5,0.1,1.2,0.1,2c0.1,0.9,0.1,1.9,0,3.2c-0.1,1.2-0.5,2.7-1.5,3.9
				c-0.5,0.6-1.2,1.2-2,1.5c-0.8,0.3-1.7,0.5-2.6,0.7c-1.8,0.3-3.8,0.5-5.8,0.5c-4.1,0-8.6-0.1-13.4-0.1c-4.7-0.1-9.3-0.1-13.4-0.2
				c-2.1-0.1-4,0-5.9-0.1c-0.9-0.1-1.8-0.2-2.6-0.6c-0.8-0.3-1.5-0.9-2-1.5c-1-1.3-1.4-2.7-1.4-4c-0.1-1.2,0-2.3,0-3.2
				c0-0.9,0.1-1.5,0.1-2c0-0.5,0.1-0.7,0.1-0.7c0,0,0,0.2,0,0.7c0,0.5,0,1.2,0,2c0,0.9,0,1.9,0.1,3.2c0.1,1.2,0.5,2.6,1.4,3.8
				c0.5,0.6,1.1,1.1,1.9,1.4c0.8,0.3,1.6,0.5,2.5,0.5c1.8,0.1,3.8,0.1,5.8,0.1c4.1,0,8.6,0.1,13.4,0.2c4.7,0,9.3,0.2,13.4,0.2
				c2,0,4-0.2,5.8-0.5c0.9-0.2,1.8-0.3,2.5-0.6c0.8-0.3,1.4-0.8,1.9-1.3c1-1.2,1.4-2.5,1.5-3.7c0.1-1.2,0.1-2.3,0.1-3.1
				c0-0.9,0-1.5,0-2C257.5,365.6,257.5,365.3,257.6,365.3z"/>
		</g>
	</g>
</g>
</svg>
