<?xml version="1.0" encoding="utf-8"?>
<!-- Generator: Adobe Illustrator 26.0.3, SVG Export Plug-In . SVG Version: 6.00 Build 0)  -->
<svg version="1.1" id="Camada_1" xmlns="http://www.w3.org/2000/svg" xmlns:xlink="http://www.w3.org/1999/xlink" x="0px" y="0px"
	 viewBox="0 0 100 65" style="enable-background:new 0 0 100 65;" xml:space="preserve">
<style type="text/css">
	.st0{fill:#D12824;}
</style>
<g id="Icon">
	<path class="st0" d="M9.3,36.7c-2.7-1.9-4.5-5.2-4.5-8.4V14.5c0-1.4-1.1-2.6-2.4-2.6S0,13.1,0,14.5v14c0,3.3,1.3,6.1,2.4,7.9
		c1.1,1.7,3.6,5,5.7,5c1.3,0,2.4-1.2,2.4-2.6C10.5,37.9,10,37.1,9.3,36.7z"/>
	<path class="st0" d="M2.4,8C4,8,4.9,6.8,4.9,5.5C4.9,4.3,4.1,3,2.4,3C0.8,3,0,4.3,0,5.5C0,6.8,0.8,8,2.4,8z"/>
	<path class="st0" d="M27.7,16.1c1.4,0,2.8,0.3,4,0.9c0.3,0.2,0.7,0.3,1,0.3c1.4,0,2.4-1.1,2.4-2.6c0-1.1-0.5-1.9-1.4-2.3
		c-1.7-1-3.7-1.4-6-1.4c-6.7,0-14,4.7-14,15.2s7.2,15.2,14,15.2c2.2,0,4.3-0.4,6-1.3c0.9-0.4,1.5-1.4,1.5-2.4c0-1.4-1.1-2.6-2.4-2.6
		c-0.4,0-0.7,0.1-1.1,0.2c-1.3,0.6-2.6,0.9-4,0.9c-4.2,0-9.1-2.6-9.1-10.1C18.6,18.7,23.5,16.1,27.7,16.1z"/>
	<path class="st0" d="M67.3,26.2c0-4.7-1.5-8.7-4.4-11.4C60.4,12.3,57,11,53.3,11c-6.7,0-14,4.7-14,15.2s7.2,15.2,14,15.2
		C60,41.4,67.3,36.6,67.3,26.2z M62.4,26.2c0,7.4-4.9,10.1-9.1,10.1c-6.3,0-9.1-5.1-9.1-10.1c0-7.4,4.9-10,9.1-10
		C57.5,16.1,62.4,18.8,62.4,26.2z"/>
	<path class="st0" d="M86,11c-6.7,0-14,4.8-14,15.2v11.6c0,1.4,1.1,2.6,2.4,2.6c1.4,0,2.4-1.1,2.4-2.6V26.2c0-5,2.8-10.1,9.1-10.1
		c6.3,0,9.1,5.1,9.1,10.1v11.6c0,1.4,1,2.6,2.4,2.6s2.4-1.1,2.4-2.6V26.2C100,15.7,92.8,11,86,11z"/>
	<path class="st0" d="M63.4,51.6c-0.6-1.1-1.7-1.7-3-1.7c-2.1,0-3.8,1.7-3.8,4.1c0,2.4,1.7,4.2,3.8,4.2c1.3,0,2.4-0.6,3-1.7V58h1
		V45.5h-1V51.6z M60.5,57.1c-1.6,0-2.9-1.4-2.9-3.1c0-1.8,1.3-3.1,2.9-3.1c1.5,0,2.9,1.2,2.9,3.1C63.4,55.9,62.1,57.1,60.5,57.1z"/>
	<path class="st0" d="M67.6,46.3c-0.4,0-0.8,0.3-0.8,0.8c0,0.4,0.4,0.8,0.8,0.8c0.5,0,0.8-0.3,0.8-0.8S68,46.3,67.6,46.3z"/>
	<rect x="67" y="50" class="st0" width="1" height="8"/>
	<path class="st0" d="M77,51.6c-0.6-1.1-1.7-1.7-3-1.7c-2.1,0-3.8,1.7-3.8,4.1c0,2.4,1.7,4.2,3.8,4.2c1.3,0,2.4-0.6,3-1.7v0.4
		c0,3.1-1.2,4.1-3.1,4.1c-0.9,0-1.8-0.5-2.4-1.4L70.7,60c0.7,1.3,2,1.9,3.3,1.9c2.5,0,4.1-1.3,4.1-5.2V50h-1L77,51.6L77,51.6z
		 M74.1,57.1c-1.6,0-2.9-1.4-2.9-3.1c0-1.8,1.3-3.1,2.9-3.1c1.5,0,2.9,1.2,2.9,3.1C77,55.9,75.7,57.1,74.1,57.1z"/>
	<path class="st0" d="M81.2,46.3c-0.4,0-0.8,0.3-0.8,0.8c0,0.4,0.4,0.8,0.8,0.8c0.5,0,0.8-0.3,0.8-0.8S81.6,46.3,81.2,46.3z"/>
	<rect x="80.7" y="50" class="st0" width="1" height="8"/>
	<polygon class="st0" points="85.8,46.9 84.8,46.9 84.8,50 83.4,50 83.4,51 84.8,51 84.8,58 85.8,58 85.8,51 87.6,51 87.6,50 
		85.8,50 	"/>
	<path class="st0" d="M95.3,51.6c-0.6-1.1-1.7-1.7-3-1.7c-2.1,0-3.8,1.7-3.8,4.1c0,2.4,1.7,4.2,3.8,4.2c1.3,0,2.4-0.6,3-1.7V58h1v-8
		h-1V51.6z M92.4,57.1c-1.6,0-2.9-1.4-2.9-3.1c0-1.8,1.3-3.1,2.9-3.1c1.5,0,2.9,1.2,2.9,3.1C95.3,55.9,94,57.1,92.4,57.1z"/>
	<rect x="99" y="45.5" class="st0" width="1" height="12.5"/>
</g>
</svg>
