<?xml version="1.0" encoding="utf-8"?>
<!-- Generator: Adobe Illustrator 26.0.3, SVG Export Plug-In . SVG Version: 6.00 Build 0)  -->
<svg version="1.1" id="Camada_1" xmlns="http://www.w3.org/2000/svg" xmlns:xlink="http://www.w3.org/1999/xlink" x="0px" y="0px"
	 viewBox="0 0 145 85" style="enable-background:new 0 0 145 85;" xml:space="preserve">
<style type="text/css">
	.st0{fill:#FFFFFF;}
</style>
<path class="st0" d="M44.2,45.4c-1.9-1.3-3.1-3.6-3.1-5.9V30c0-1-0.7-1.8-1.7-1.8c-1,0-1.7,0.8-1.7,1.8v9.7c0,2.3,0.9,4.2,1.6,5.5
	c0.7,1.2,2.5,3.5,4,3.5c0.9,0,1.7-0.8,1.7-1.8C45,46.3,44.7,45.7,44.2,45.4z"/>
<path class="st0" d="M39.4,25.5c1.1,0,1.7-0.9,1.7-1.7c0-0.8-0.5-1.7-1.7-1.7c-1.2,0-1.7,0.9-1.7,1.7C37.7,24.6,38.3,25.5,39.4,25.5
	z"/>
<path class="st0" d="M57,31.1c1,0,1.9,0.2,2.8,0.6c0.2,0.1,0.5,0.2,0.7,0.2c1,0,1.7-0.8,1.7-1.8c0-0.7-0.4-1.3-1-1.6
	c-1.3-0.6-2.6-1-4.2-1c-4.7,0-9.7,3.3-9.7,10.5c0,7.3,5,10.6,9.7,10.6c1.6,0,3-0.3,4.2-0.9c0.6-0.3,1-0.9,1-1.6c0-1-0.7-1.8-1.7-1.8
	c-0.3,0-0.5,0.1-0.7,0.2c-0.9,0.4-1.8,0.6-2.8,0.6c-2.9,0-6.3-1.8-6.3-7C50.7,32.9,54.1,31.1,57,31.1z"/>
<path class="st0" d="M84.5,38.1c0-3.3-1.1-6-3-8c-1.7-1.7-4.1-2.6-6.7-2.6c-4.7,0-9.7,3.3-9.7,10.5c0,7.3,5,10.6,9.7,10.6
	C79.5,48.7,84.5,45.4,84.5,38.1z M81.1,38.1c0,5.2-3.4,7-6.3,7c-4.4,0-6.3-3.5-6.3-7c0-5.2,3.4-7,6.3-7C77.7,31.1,81.1,33,81.1,38.1
	z"/>
<path class="st0" d="M97.5,27.5c-4.7,0-9.7,3.3-9.7,10.6v8.1c0,1,0.7,1.8,1.7,1.8c1,0,1.7-0.8,1.7-1.8v-8.1c0-3.5,2-7,6.3-7
	c4.4,0,6.4,3.5,6.4,7v8.1c0,1,0.7,1.8,1.7,1.8c1,0,1.7-0.8,1.7-1.8v-8.1C107.3,30.8,102.2,27.5,97.5,27.5z"/>
<path class="st0" d="M81.8,55.8c-0.4-0.7-1.2-1.2-2.1-1.2c-1.5,0-2.7,1.2-2.7,2.9c0,1.7,1.2,2.9,2.7,2.9c0.9,0,1.7-0.4,2.1-1.2v1.1
	h0.7v-8.7h-0.7V55.8z M79.8,59.6c-1.1,0-2-1-2-2.2c0-1.2,0.9-2.1,2-2.1c1,0,2,0.8,2,2.2C81.8,58.8,80.9,59.6,79.8,59.6z"/>
<path class="st0" d="M84.7,52.1c-0.3,0-0.6,0.2-0.6,0.5c0,0.3,0.3,0.5,0.6,0.5c0.3,0,0.6-0.2,0.6-0.5C85.3,52.3,85,52.1,84.7,52.1z"
	/>
<path class="st0" d="M85.1,54.7h-0.7v5.5h0.7V54.7z"/>
<path class="st0" d="M91.3,55.8c-0.4-0.7-1.2-1.2-2.1-1.2c-1.5,0-2.7,1.2-2.7,2.9c0,1.7,1.2,2.9,2.7,2.9c0.9,0,1.7-0.4,2.1-1.2v0.3
	c0,2.1-0.8,2.8-2.1,2.8c-0.6,0-1.3-0.3-1.7-1l-0.6,0.4c0.5,0.9,1.4,1.4,2.3,1.4c1.7,0,2.9-0.9,2.9-3.6v-4.7h-0.7V55.8z M89.2,59.6
	c-1.1,0-2-1-2-2.2c0-1.2,0.9-2.1,2-2.1c1,0,2,0.8,2,2.2C91.3,58.8,90.3,59.6,89.2,59.6z"/>
<path class="st0" d="M94.2,52.1c-0.3,0-0.6,0.2-0.6,0.5c0,0.3,0.3,0.5,0.6,0.5c0.3,0,0.6-0.2,0.6-0.5C94.7,52.3,94.5,52.1,94.2,52.1
	z"/>
<path class="st0" d="M94.5,54.7h-0.7v5.5h0.7V54.7z"/>
<path class="st0" d="M97.4,52.5h-0.7v2.2h-1v0.7h1v4.9h0.7v-4.9h1.2v-0.7h-1.2V52.5z"/>
<path class="st0" d="M104,55.8c-0.4-0.7-1.2-1.2-2.1-1.2c-1.5,0-2.7,1.2-2.7,2.9c0,1.7,1.2,2.9,2.7,2.9c0.9,0,1.7-0.4,2.1-1.2v1.1
	h0.7v-5.5H104V55.8z M102,59.6c-1.1,0-2-1-2-2.2c0-1.2,0.9-2.1,2-2.1c1,0,2,0.8,2,2.2C104,58.8,103.1,59.6,102,59.6z"/>
<path class="st0" d="M107.3,51.6h-0.7v8.7h0.7V51.6z"/>
</svg>
