<?xml version="1.0" encoding="utf-8"?>
<!-- Generator: Adobe Illustrator 26.0.3, SVG Export Plug-In . SVG Version: 6.00 Build 0)  -->
<svg version="1.1" id="Camada_1" xmlns="http://www.w3.org/2000/svg" xmlns:xlink="http://www.w3.org/1999/xlink" x="0px" y="0px"
	 viewBox="0 0 47 35" style="enable-background:new 0 0 47 35;" xml:space="preserve">
<style type="text/css">
	.st0{fill:#D12824;}
</style>
<g>
	<path class="st0" d="M21.1,1.2c-0.9,3.3-1.8,6.9-2.7,10.8c-0.9,3.9-1.7,7.7-2.4,11.5c-0.7,3.8-1.3,7.2-1.8,10.3H2.8L2,32.3
		c0.8-3.2,1.8-6.5,3-10.1S7.5,15,8.9,11.4s2.9-7,4.4-10.2C13.3,1.2,21.1,1.2,21.1,1.2z M45,1.2c-0.9,3.3-1.8,6.9-2.7,10.8
		s-1.7,7.7-2.4,11.5s-1.3,7.2-1.8,10.3H26.6l-1-1.4c0.8-3.2,1.8-6.5,3-10.1s2.6-7.2,4-10.8c1.5-3.6,2.9-7,4.4-10.2L45,1.2L45,1.2z"
		/>
</g>
</svg>
