<?xml version="1.0" encoding="utf-8"?>
<!-- Generator: Adobe Illustrator 26.0.3, SVG Export Plug-In . SVG Version: 6.00 Build 0)  -->
<svg version="1.1" id="Camada_1" xmlns="http://www.w3.org/2000/svg" xmlns:xlink="http://www.w3.org/1999/xlink" x="0px" y="0px"
	 viewBox="0 0 47 35" style="enable-background:new 0 0 47 35;" xml:space="preserve">
<style type="text/css">
	.st0{fill:#D12824;}
</style>
<g>
	<path class="st0" d="M25.9,33.8c0.9-3.3,1.8-6.9,2.7-10.8c0.9-3.9,1.7-7.7,2.4-11.5c0.7-3.8,1.3-7.2,1.8-10.3h11.4L45,2.7
		c-0.8,3.2-1.8,6.5-3,10.1s-2.5,7.2-3.9,10.8s-2.9,7-4.4,10.2H25.9z M2,33.8c0.9-3.3,1.8-6.9,2.7-10.8s1.7-7.7,2.4-11.5
		C7.9,7.7,8.5,4.3,8.9,1.2h11.5l1,1.4c-0.8,3.2-1.8,6.5-3,10.1s-2.6,7.2-4,10.8s-2.9,7-4.4,10.2L2,33.8L2,33.8z"/>
</g>
</svg>
