<?xml version="1.0" encoding="utf-8"?>
<!-- Generator: Adobe Illustrator 26.0.3, SVG Export Plug-In . SVG Version: 6.00 Build 0)  -->
<svg version="1.1" id="Camada_1" xmlns="http://www.w3.org/2000/svg" xmlns:xlink="http://www.w3.org/1999/xlink" x="0px" y="0px"
	 viewBox="0 0 1920 478.3" style="enable-background:new 0 0 1920 478.3;" xml:space="preserve">
<style type="text/css">
	.st0{fill:#0E4F78;}
	.st1{fill:#FDCB1C;}
	.st2{fill:#167C55;}
	.st3{fill:#208F6C;}
	.st4{fill:#3481AA;}
	.st5{fill:#FCCB1D;}
	.st6{fill:#3983A8;}
	.st7{fill:#49B488;}
	.st8{fill:#2C5E82;}
</style>
<g>
	<g>
		<path class="st0" d="M1550.3,400c0-11.4,0-22.7,0-34c0.5-1.2,0.5-2.5,0-3.7c0.1-1.7,1-4.1-1.7-4.3c-3.2-0.2-2.6,2.3-2.4,4.2
			c0,0.4,0,0.9,0,1.3c-0.1,10.5-0.1,21-0.2,31.6c0,1.4-0.1,2.9,0.1,4.3c0.2,2.3,1.5,2.7,3.4,1.9
			C1550.4,401.2,1550.7,400.8,1550.3,400z"/>
		<path class="st0" d="M1325.8,166.5c-1.9,0.8-1.8,2.5-2.1,3.7c-12.1,40.3-23.1,80.8-34.4,121.4c-9.7,34.7-19.3,69.4-29,104
			c-1.7,6.2-1.8,6.2-8.5,6.2c-20.3,0-40.6,0-61,0c-6.7,0-6.7,0-8.4-6.2c-14.2-52.5-28.2-105.1-42.7-157.6
			c-6.3-22.8-12.9-45.5-18.9-68.4c-0.3-1.2-0.9-2.3-1.3-3.3c-2.3,0.3-1.5,1.9-1.5,2.9c-0.1,6.4-0.1,13-0.1,19.4
			c0,68.7,0,137.4,0,206.1c0,7.5,0.9,7.1-7.1,7.1c-14.7,0-29.3,0-44,0c-7.3,0-6.3,0-6.3-6.5c0-86.3,0-172.6,0-258.9
			c0-10.7,0-21.4,0-32.1c0-4.4,0.1-4.5,4.6-4.5c28.7,0,57.3,0,86.1,0c4.3,0,4.3,0.1,5.9,5.6c10.4,36.2,20.8,72.4,31.2,108.6
			c10.6,36.8,21.1,73.6,31.7,110.5c0.5,1.9,1.3,4,1.9,5.8c2.8,0,2.7-1.9,3.1-3.4c8.2-23.9,14.4-48.5,21.5-72.8
			c14.3-49.5,28.4-99,42.6-148.5c2-7,1.5-5.7,7.5-5.8c23.6,0,47.3,0,71,0c11.8,0,17.9,5.9,18,17.6c0.1,23.6,0.1,47.3,0.1,71
			c0,68.7,0,137.4,0,206.1c0,1.1-0.1,2.1,0,3.1c0.3,2.9-0.6,4.2-3.9,4.2c-17.4-0.1-34.8-0.1-52.2,0c-2.4,0-3.5-0.9-3.3-3.2
			c0.1-1.5,0-2.9,0-4.4c0-50.9,0-101.8,0-152.8c0-23.1,0-46.1-0.1-69.1C1326.5,170.5,1327.2,168.4,1325.8,166.5z"/>
		<path class="st0" d="M976.1,325.1c0-2.8,0-5,0-7.3c0-70,0-140,0-209.9c0-1.1,0-2.1,0-3.1c0.1-4.7,0.1-4.8,4.9-4.8
			c12.1,0,24.3-0.1,36.4,0c10.5,0.1,16.7,6.5,16.7,17c0,93,0,186,0,279c0,0.9,0,1.7,0,2.5c0.2,2.3-0.6,3.7-3.1,3.4
			c-0.9-0.1-1.7,0-2.5,0c-23.8,0-47.8-0.1-71.6,0.1c-4.3,0-6.3-1.5-8.3-5c-26.9-48.3-53.7-96.6-81.2-144.6
			c-14.3-24.9-28.2-49.9-42.5-74.8c-0.6-1.2-1.1-2.8-3.1-3.4c-1.1,2-0.6,4.4-0.6,6.4c0,32.3,0,64.5,0,96.8c0,39.2,0,78.4,0,117.6
			c0,7.3,0.6,7-6.7,7c-15.5,0-31,0-46.5,0c-5.4,0-5.4-0.1-5.4-5.6c0-31.7,0-63.2,0-94.9c0-64.3,0-128.6,0-192.9c0-1.3,0-2.5,0-3.8
			c0.1-4.7,0.1-4.8,4.9-4.8c24.3,0,48.6,0,72.9-0.1c3.5,0,5.2,1.5,6.8,4.3c28.4,48.4,55.9,97.3,83.7,146
			c6.8,11.8,13.1,23.9,20.3,35.4c7.5,12.1,14.3,24.6,21.5,36.8C973.3,323.3,973.7,324.4,976.1,325.1z"/>
		<path class="st0" d="M615.7,331.5c-2.4,0.9-4.5,0.4-6.5,0.4c-22.2,0-44.4,0-66.6,0c-5.8,0-5.4-1.1-7.3,5.3
			c-5.9,19.6-11.9,39.3-17.8,58.9c-1.7,5.7-1.7,5.7-7.6,5.7c-20.1,0-40.3,0-60.3,0c-1.8,0-3.8,0.5-5.5-0.6c-0.9-2,0.4-3.7,1-5.4
			c17.6-58.3,34.8-116.8,53.1-174.9c12.1-38.5,23.5-77.3,35.5-115.8c2-6.5,2.1-5.5,7.2-5.5c29.1,0,58.2,0,87.4,0
			c11.8,0,18.3,4.7,21.7,16.1c10,32.9,19.5,65.8,30.1,98.6c19.1,59.8,36.6,120.1,55.1,180.1c2.1,7,4,7.5-5.4,7.4
			c-19.6,0-39.4,0-59,0c-5.9,0-5.9,0-7.6-5.7c-23.3-76.8-46.5-153.5-69.8-230.2c-0.8-2.4-1-4.9-2.9-7.3c-1.2,1-1.5,2.3-1.9,3.5
			c-10.8,35.6-21.6,71.3-32.4,107c-0.1,0.4-0.2,0.8-0.3,1.2c-1.1,4.1-0.9,4.4,3.1,4.6c1.5,0.1,2.9,0,4.4,0c10.7,0,21.4,0.1,32,0
			c2.6,0,4.3,0.4,5.2,3.2c5,17.1,10.3,34,15.5,51.1C615.8,329.8,615.7,330.6,615.7,331.5z"/>
		<path class="st1" d="M18.6,218.8c4.2-6.3,9.9-11.3,15.2-16.4c33.2-32.5,65.5-65.9,98.4-98.6c20.1-19.9,39.9-39.9,59.9-59.9
			c5.8-5.8,9.3-5.8,15.4,0.2c20.6,20.5,41.1,41.1,61.6,61.7c6.3,6.3,12.7,12.8,19.1,19.1c0.8,0.8,1.6,1.4,1.3,3
			c-5.2,1.6-10.8,1.5-16.3,2.4c-14.3,2.1-28.3,5-42.3,9.1c-0.8,0.2-1.6,0.2-2.5,0.4c-9.2-3.9-18.8-5.7-28.8-4.9
			c-30.2-0.1-52.8,14-69.9,37.8c-5.4,7.4-9.6,15.8-10.5,25.2c-7.9,7.2-15.9,14.5-23.7,21.7c-2.3-0.1-4.6-0.3-6.9-0.3
			C65.3,218.9,42,218.9,18.6,218.8z"/>
		<path class="st2" d="M380.9,218.8c0.4,2.6-1.8,3.5-3.1,4.9c-18.4,18.6-36.5,37.5-55.2,55.7c-29.5,28.8-58.1,58.4-87.2,87.5
			c-9.8,9.8-19.6,19.3-29.4,29.1c-0.9,0.9-1.7,1.9-3.1,1.6c-0.4-1.6-0.5-3.2,0-4.9c1.4-4.4,2.6-8.8,4.1-13.1
			c7.3-21,13.7-42.4,21.4-63.2c4.1-11.1,7.3-22.5,11.1-33.7c5.5-16.1,10.3-32.5,16.3-48.4c1.7-4.5,3.2-9,3.3-14
			c0.4-0.4,0.8-0.8,1.2-1.2c0,0,0.4-0.1,0.3-0.1c7.8,0,15.7,0,23.5,0c10.4,0,20.8,0.1,31.3,0.1C337.1,219,359,218.9,380.9,218.8z"/>
		<path class="st3" d="M258.9,220.3c0,4.9-1.6,9.4-3.3,14c-6,16-10.7,32.3-16.3,48.4c-3.9,11.2-7,22.7-11.1,33.7
			c-7.7,20.9-14.2,42.2-21.4,63.2c-1.5,4.3-2.7,8.8-4.1,13.1c-0.5,1.7-0.5,3.3,0,4.9l0,0c-1,0.1-1.4,0.3-0.3,1.1
			c-0.6,2.3-1.6,3.8-3.9,1.3c0.2-6.8-3.2-12.5-5.2-18.6c-9.6-29.8-19.8-59.5-29.3-89.3c-6.4-20.5-13.6-40.8-20.4-61.2
			c-1.1-3.3-2.5-6.5-2.3-10.1c1.1-0.9,2.1-0.8,3.2-0.8C182.6,220.2,220.8,220.2,258.9,220.3z"/>
		<path class="st4" d="M259.9,219.1c-43.4,0-86.6-0.1-130-0.2c-2.4,0-5,0.9-7.1-1.3c8.6-7.1,18.8-11.6,28.6-16.7
			c30.1-15.7,61.9-25.9,95.4-30.7c0.2,0,0.4,0,0.6,0.1c-0.2,2.1,0.4,4,1.5,5.9c3.1,5.4,5.4,11.2,7.4,17.1c2.9,8.4,3.8,17,3.9,25.8
			L259.9,219.1z"/>
		<path class="st5" d="M380.9,218.8c-21.9,0.1-43.8,0.1-65.7,0.2c-10.4,0-20.8,0-31.3-0.1c-0.2-6-0.9-12-2-17.9
			c-2.4-12-7.8-22.7-14.4-32.7c7.6-1.4,15.4-1.5,23.1-1.5c24.8,0.1,49.3,2.4,73.4,8.3c3.3,0.9,6.9,1.4,10.6,3.4
			c-11.9-1.6-23.1-3-34.4-3.7c-0.4,2.5,1.4,3.1,2.5,4.2c11.5,11.6,23,23.2,34.5,34.8C378.6,215.5,380.5,216.6,380.9,218.8z"/>
		<path class="st6" d="M119.3,197.7c1-9.4,5.2-17.8,10.5-25.2c17.1-23.8,39.7-37.9,69.9-37.8c3.4,2.3,7.2,3.7,11,5.2
			c1.8,0.8,4,1.2,4.3,3.8c-6.2,3.5-13.1,5.4-19.5,8.2c-18.7,8.2-36.3,18-53.1,29.4C134.3,186.4,126.9,192.2,119.3,197.7z"/>
		<path class="st7" d="M18.6,218.8c23.3,0.1,46.7,0.1,70,0.2c2.3,0,4.6,0.2,6.9,0.3c-3.4,5-8.2,8.9-12,13.6
			c-7,8.4-13.8,16.9-20.1,25.8c-2.6,3.7-2.8,3.7-5.6,0.9c-12.7-12.5-25.2-25.1-37.9-37.7C19.1,221.1,17.6,220.4,18.6,218.8z"/>
		<path class="st0" d="M1525.3,353.3c-2.1,1.7-2.5,3.9-3.2,5.8c-5.2,12.6-10.2,25.2-15.4,37.8c-0.3,0.8-0.8,1.5-1,2.4
			c-0.4,1.2-1,2.5-2.4,2.7c-1.8,0.3-2.4-1.3-3-2.6c-5.4-10.2-8.9-21.1-13.4-31.8c-1.9-4.6-3.3-9.4-6.1-13.6c-2.3,1-1.5,2.9-1.5,4.4
			c-0.1,12.3-0.1,24.7-0.1,37c0,1.5,0,2.9,0,4.4c0,1.5-0.9,2.3-2.4,2.1c-1.3-0.1-1.8-0.9-1.8-2c0-0.9,0-1.7,0-2.5
			c0-16.7,0-33.5,0-50.2c0-1.7-0.9-4.1,2-4.5c2.6-0.3,4.8-0.2,6,3c4.1,10.5,8.5,20.9,12.6,31.5c2.1,5.4,4.5,10.6,7.9,16.2
			c2.4-5.7,4.4-10.7,6.4-15.7c4-9.7,7.8-19.4,11.7-29.1c0.4-1.2,1-2.3,1.4-3.4c1-3,3.4-2.6,5.7-2.4c2.6,0.2,1.9,2.4,1.9,3.9
			c0,17,0,33.9,0,50.9c0,1.1,0,2.1-0.2,3.1c-0.1,1-1,1.3-1.8,1.4c-1.1,0.1-2.3-0.2-2.5-1.4c-0.3-1.4-0.2-2.9-0.2-4.4
			c0-12.6,0-25.1,0-37.7C1526,357,1526.5,355.3,1525.3,353.3z"/>
		<path class="st0" d="M267.5,168.3c6.7,10.1,12,20.8,14.4,32.7c1.2,5.9,1.8,11.9,2,17.9c-7.8,0-15.7,0-23.5,0
			c-0.1-8.8-1.1-17.4-3.9-25.8c-2-5.9-4.3-11.7-7.4-17.1c-1.1-1.9-1.7-3.8-1.5-5.9C254.1,169.1,260.7,168,267.5,168.3z"/>
		<path class="st0" d="M1538.9,142.5c-5.6-3.7-7.6-8.4-7.2-14.3c0.5-6.3,4.3-11,10.5-12.5c1.6-0.4,3.3-0.6,4.9-0.6
			c6.2,0.2,12.5,1.1,18.8,0.6c1-0.1,2.3,0,2.4,1.4c0.1,1.5-1.2,1.5-2.1,1.6c-1.6,0.3-3.3,0-4.9,1c-0.6,2.1,1.1,3.9,1.5,5.8
			c2,9.4-3.5,17.3-13.2,18c-1.7,0.1-3.3,0.1-5,0.1c-2.4,0-3.9,1.4-4.9,3.3c-1.9,3.2-0.9,5.8,2.7,6.5c2.3,0.4,4.6,0.3,6.9,0.4
			c2.9,0.1,5.9,0.1,8.7,0.5c4.6,0.6,8.4,2.8,9.6,7.7c1.4,5.6-0.2,11.1-4.9,13.8c-9,5.4-18.8,5.9-28.2,1.7
			c-7.7-3.4-8.5-13.3-1.8-18.7c2.6-2,4-3.2,2.3-6.9C1532.7,148.5,1535.4,145.5,1538.9,142.5z M1548.3,158.1
			c-2.3,0.1-4.9,0.1-7.6,0.5c-5.3,0.9-7.8,3.9-7.8,8.9c0,4.6,2.5,7.5,7.5,8.5c4.5,0.9,9.1,0.8,13.6-0.2c2.3-0.5,4.4-1.4,6.1-3
			c2.6-2.6,3.5-5.7,2.7-9.1c-1-3.5-3.9-4.7-7.1-5C1553.3,158.4,1551,158.3,1548.3,158.1z M1547,118.7c-6.8,0.1-11.2,4.4-11.1,11
			c0.1,6.7,4.3,10.5,11.4,10.4c7.2-0.1,11-3.8,10.8-10.7C1558.2,122.4,1554.1,118.6,1547,118.7z"/>
		<path class="st0" d="M1514.4,271.1c0-2.8,0-5.7,0-8.5c0-11.9,0-23.8,0-35.7c0-1.1,0-2.1,0.1-3.1c0.1-1.3,1.1-1.7,2.3-1.7
			s2,0.4,2.3,1.7c0.1,1.1,0.1,2,0.1,3.1c0,16.5,0,33.1,0,49.6c0,1.7,1,4.1-1.6,4.8c-2.4,0.8-3.8-0.9-5-2.7
			c-9.6-14.1-19.1-28-28.7-42c-1.1-1.6-1.8-3.7-4.6-5c0,2,0,3.5,0,5.2c0,13.4,0.1,26.8,0.1,40.2c0,0.9,0,1.7,0,2.5
			c-0.1,1.6-1.1,2.1-2.6,2c-1.3-0.1-1.7-1-1.8-2.1c0-1.1,0-2,0-3.1c0-16.3,0-32.6,0-49c0-1.7-1-4.2,1.3-5c2.7-1,4.2,1.1,5.5,3.1
			c1.6,2.5,3.2,4.8,4.9,7.3c8.4,12.2,16.7,24.5,25.2,36.7C1512.3,270,1512.6,271.2,1514.4,271.1z"/>
		<path class="st0" d="M1526.1,159.6c-2.7,1.1-4.5,0.6-5.7-2.5c-1.7-4.7-3.8-9.3-5.5-14.1c-0.9-2.4-2-3.9-4.9-3.8
			c-5.8,0.2-11.7,0.1-17.6,0c-2.5,0-3.8,1.1-4.6,3.3c-1.8,4.9-4,9.7-5.8,14.6c-1.1,2.9-2.7,3.4-5.3,2.4c-0.6-2,0.6-3.8,1.3-5.4
			c6.3-15.9,12.8-31.8,19.2-47.7c0.4-1,0.8-1.9,1.2-2.9c0.8-1.5,1.6-3.1,3.7-2.9c1.8,0.2,2,1.9,2.6,3.2c7.1,18,14.3,36.2,21.4,54.2
			C1526.2,158.5,1526.1,158.9,1526.1,159.6z M1511.9,135.2c-3.4-9-6.5-17.1-9.9-25.8c-4.9,7.5-6.9,15.1-10,22.3
			c-1.1,2.5,0,3.4,2.5,3.4C1500,135.1,1505.4,135.2,1511.9,135.2z"/>
		<path class="st0" d="M1848,276.5c-4.3,4.4-9.6,5.9-15.5,5.5c-7.6-0.5-13.2-4.4-15.5-11.7c-2.4-7.6-2.3-15.4,0.4-22.9
			c3.8-10.3,16.5-14.5,26.2-8.9c1.4,0.9,2.4,2.4,4.8,2.8c0-5.9-0.1-11.6,0.1-17.4c0.1-2-1.4-5.4,2-5.6c4.2-0.2,2.6,3.5,2.6,5.7
			c0.1,17.4,0.1,34.8,0.1,52.2c0,0.9,0,1.7,0,2.5c0,1.1-0.2,2.3-1.4,2.5c-1.6,0.3-2-1-2.3-2.3C1849.5,278.1,1849.6,277.2,1848,276.5
			z M1848.7,258c-0.1-1.3-0.1-4-0.6-6.7c-1.5-7.2-5.6-10.5-12.7-10.7c-7-0.2-11.7,2.9-13.7,9.6c-1.8,6.1-1.9,12.5-0.1,18.6
			c1.8,6.2,6.7,9.2,13.4,9.1c7.1-0.1,11.1-3.1,13-9.7C1848.8,265.3,1848.7,262.4,1848.7,258z"/>
		<path class="st0" d="M1885.6,260c-4,0-7.9-0.1-11.9,0c-3.4,0.1-3.9,0.9-3.3,4.3c1.2,8.2,6.4,13,14.9,13.3c4,0.2,7.9-0.4,11.7-1.8
			c1.2-0.4,2.6-1,2.9,0.9c0.3,1.4-0.4,2.3-1.6,3c-13.4,7.8-30.5-0.3-32.7-15.7c-0.9-6.1-0.3-12.1,2.5-17.7c4-7.9,11.6-11.5,20.5-9.8
			c6.8,1.3,11.7,7.2,12.9,15.2c0.1,0.9,0.2,1.7,0.2,2.5c0.3,5.6,0.3,5.6-5.3,5.6c-1.9,0-3.8,0-5.7,0C1889,260,1887.3,260,1885.6,260
			L1885.6,260z M1870.5,255.9c8.2,0,15.9,0,23.6,0c1.7,0,2.7-0.5,2.7-2.6c0.1-8.1-6.5-13.8-14.5-12.6
			C1875.4,241.9,1871.9,246.2,1870.5,255.9z"/>
		<path class="st0" d="M1632.3,380.8c-4.2,0-8.4,0-12.6,0c-2.3,0-2.8,1.1-2.7,3.2c0.3,7.8,5.8,13.7,13.8,14.4
			c4.4,0.3,8.8-0.3,13-1.8c1-0.3,2.1-0.8,2.7,0.5c0.4,1.3,0.1,2.4-1.2,3.2c-11.3,7.4-29,0.9-32.2-12c-1.8-7.3-1.6-14.6,1.9-21.4
			c4-7.6,11.2-11.1,20-9.7c6.7,1.1,11.5,6.3,13,14.3c0.1,0.4,0.2,0.9,0.2,1.2c1.3,7.6,1,7.9-6.4,7.9
			C1638.6,380.7,1635.5,380.7,1632.3,380.8C1632.3,380.7,1632.3,380.7,1632.3,380.8z M1630.1,376.5L1630.1,376.5c3.3,0,6.7,0.1,10,0
			c3.4-0.1,3.9-0.8,3.2-4.2c-1.2-7-5.8-11.2-12.3-11.1c-7.1,0.1-12.8,5.4-13.6,12.2c-0.3,2.3,0.6,3,2.7,3
			C1623.4,376.5,1626.8,376.5,1630.1,376.5z"/>
		<path class="st0" d="M1756.4,154.8c-2.3,0.4-3.3,2.1-4.8,3.1c-5.4,3.3-11.2,3.7-16.9,1.5c-8.4-3.1-9.9-14.9-2.9-20.7
			c3-2.5,6.5-3.7,10.3-4.1c4-0.4,7.9-0.6,11.9-0.8c2.1-0.1,2.8-1.1,2.8-3.1c0.1-7.5-4-11.6-11.6-11.4c-3.2,0.1-6.2,1-9.1,2.1
			c-1.4,0.6-2.8,1.1-3.5-1c-0.6-1.6,0.3-2.4,1.5-2.9c6.1-2.6,12.5-3.8,18.9-1.6c4.6,1.5,7.4,5.2,7.5,9.9c0.4,10.6,0.2,21.3,0.3,32
			c0,0.9-0.2,1.7-1.2,1.9c-1.2,0.2-1.9-0.4-2.3-1.6C1757,157.1,1756.7,156,1756.4,154.8z M1742.2,156.4c9.2-0.1,15.1-6.7,14.5-15.8
			c-0.1-1.9-0.6-3.2-2.9-3.1c-4.8,0.2-9.7,0.3-14.3,1.7c-5.4,1.6-8.1,5.3-7.4,10C1732.7,154.1,1736.1,156.4,1742.2,156.4z"/>
		<path class="st0" d="M1579.6,139.2c-0.5,11.2,4.8,17,15.7,17.2c3.8,0.1,7.5-0.4,11.1-1.6c1.2-0.4,2.6-1,3,0.9
			c0.4,1.4-0.3,2.5-1.6,3c-1.2,0.4-2.4,1-3.5,1.2c-9.6,1.7-19,2.4-25.8-6.4c-5.4-6.9-5.7-21.1-0.8-29.3c2.6-4.3,6.2-7.3,11.3-8.4
			c12.1-2.8,21.1,3.9,22.2,16.4c0.5,6.7,0.5,6.7-6,6.7c-6.7,0-13.4,0-20.1,0C1583.3,138.6,1581.4,138.2,1579.6,139.2z M1593.4,134.7
			L1593.4,134.7c3.1,0,6.2-0.1,9.3,0c2.9,0.1,4.1-0.8,3.7-4c-1.1-7.5-5.6-11.6-13-11.4c-7.5,0.2-13.4,5.7-13.7,12.8
			c-0.1,1.9,0.6,2.6,2.5,2.6C1585.9,134.7,1589.6,134.7,1593.4,134.7z"/>
		<path class="st0" d="M1717.7,396.8c-4.1,4.4-9.3,6.3-15.6,5.9c-6.8-0.4-11.2-3.9-12.1-9.7c-1.2-6.8,1.5-11.8,8.1-14.6
			c4.9-2.1,10.2-2.3,15.5-2.4c5.6-0.1,6.2-0.9,5.3-6.1c-1-5.6-4.1-8.4-9.9-8.6c-3.7-0.1-7.1,0.9-10.4,2.1c-1.4,0.5-2.8,1.2-3.7-0.8
			c-0.9-2,0.5-2.6,1.9-3.1c5.4-2.4,10.9-3,16.6-1.9c5.4,1,9.1,4.6,9.4,10.3c0.5,10.6,0.3,21.4,0.3,32c0,0.9-0.3,1.7-1.2,1.9
			c-1.3,0.3-1.8-0.5-2.3-1.6C1719.2,399.2,1719.6,397.8,1717.7,396.8z M1712.9,379.6c-4.6,0.2-9.2,0.4-13.4,2.5
			c-3.7,1.7-5.4,4.7-5,8.6s2.5,6.5,6.3,7.5c10,2.7,19.8-6,18.1-16.2c-0.2-1.5-0.9-2.3-2.3-2.4
			C1715.3,379.6,1714.2,379.6,1712.9,379.6z"/>
		<path class="st0" d="M1558.8,276.4c-4.4,4.1-9.6,6.2-15.8,5.7c-6.7-0.5-11-3.9-12-9.8c-1.2-6.2,1.5-11.5,7.5-14.3
			c4.6-2.1,9.7-2.5,14.7-2.6c7-0.1,8.5-2.6,5.8-9.1c-1.6-3.8-4.5-5.4-8.4-5.6c-3.9-0.2-7.4,0.6-11,2.1c-1.3,0.5-2.9,1.3-3.8-0.6
			c-1.1-2.3,0.6-2.8,2.3-3.5c4.9-2.1,10.1-2.7,15.4-2c5.3,0.8,8.7,3.7,10.1,8.9c0.5,2.3,0.9,4.5,0.9,6.8c0,7.9,0,15.9,0,23.8
			c0,0.9,0,1.7,0,2.5c0,1.2-0.2,2.3-1.4,2.5c-1.6,0.3-2.1-0.9-2.4-2.3C1560.3,278,1560.2,276.9,1558.8,276.4z M1559.8,262.9
			c-0.4-1.2,0.9-3.9-2.1-3.9c-6-0.1-12.1-0.2-17.8,2.7c-3.7,1.8-5,5.4-4.2,9.6c0.6,3.4,3,5.6,6.9,6.3
			C1552.1,279.4,1559.7,273.1,1559.8,262.9z"/>
		<path class="st0" d="M1802.8,395.8c-5.3,5.7-11,7.4-17.6,6.8c-5.7-0.6-9.7-3.9-10.8-8.9c-1.4-6,0.5-11,5.5-14.1
			c3.9-2.4,8.2-3,12.6-3.4c1.1-0.1,2.1,0.2,3.1-0.1c2.6-1,6.9,2.4,7.6-2.7c0.8-5.4-2.1-10.1-6.5-11.5c-3.8-1.2-7.4-0.4-11.1,0.6
			c-1.4,0.4-2.8,1-4.2,1.4c-1.3,0.4-1.9-0.3-2.4-1.4c-0.4-1.2-0.1-2,1.1-2.6c6.5-2.8,13.2-4.1,20.1-1.6c4.1,1.5,6.4,4.8,6.9,9
			c1.2,10.8,0.3,21.7,0.5,32.5c0,0.9-0.3,1.7-1.2,1.9c-1.2,0.3-2-0.3-2.4-1.5C1803.6,399.2,1803.4,398,1802.8,395.8z M1795.5,379.7
			c-3.5,0-7.9,0.4-11.9,2.4c-3.8,1.8-5.6,5.3-4.9,9.2c0.6,4.1,3.1,6.4,7.5,7.1c7.9,1.2,14.8-3.3,16.5-10.8
			C1804.4,380.4,1803.6,379.5,1795.5,379.7z"/>
		<path class="st0" d="M1758.9,276c-4.6,4.2-9.8,6.4-16,5.9c-6.7-0.5-11.1-3.9-12.2-9.8c-1.3-6.2,1.5-11.5,7.5-14.3
			c5-2.4,10.5-2.5,16-2.6c5.6-0.1,6.1-0.8,5.2-6.1c-1-5.7-4-8.3-9.9-8.5c-3.7-0.1-7.1,0.8-10.4,2.1c-1.4,0.5-2.8,1.1-3.7-0.9
			c-0.8-1.9,0.4-2.6,1.9-3.2c5.4-2.4,11-3,16.6-1.9c4.7,0.9,7.9,3.7,9.1,8.5c0.4,1.8,0.9,3.8,0.9,5.6c0.1,8.8,0.1,17.6,0,26.4
			c0,1.5,0.8,3.8-1.8,4c-2.1,0.1-1.7-1.9-2.1-3.2C1759.9,277.4,1759.5,276.9,1758.9,276z M1753.2,259c-4.4,0.2-8.8,0.5-12.9,2.5
			c-4.1,1.9-5.7,5.4-4.9,9.8c0.6,3.7,3.2,5.9,7.4,6.5c9.9,1.5,17.8-6.1,16.6-16.1c-0.2-1.7-0.8-2.8-2.6-2.7
			C1755.7,259,1754.5,259,1753.2,259z"/>
		<path class="st0" d="M1749.6,402.9c-13.4-6.7-18.1-17.5-14-31.8c3.4-11.7,18-18.1,29.1-12.8c1,0.5,1.8,1.1,1.5,2.4
			c-0.3,1.5-1.2,2.1-2.7,1.8c-1.8-0.4-3.7-0.9-5.6-1.1c-10.2-1.3-17.1,4-18.5,14.2c-0.2,1.6-0.2,3.3-0.2,5
			c0.2,13.1,7.9,19.5,20.8,17.3c1.2-0.2,2.5-0.5,3.7-0.9s2.1-0.2,2.4,1.2c0.2,1.1-0.1,2.1-1.1,2.7c-1.8,1-4,1.4-6,1.6
			c-1.3,0.1-2.6,0-3.7,0.5c-1.8,0.8-2,3-0.4,4.4c0.6,0.5,1.5,0.9,2,1.4c3.9,3.7,3,9.7-1.7,12.1c-2.3,1.2-4.8,1.4-7.3,1.3
			c-1.5,0-3.1-0.2-3.1-2.1c0-2.1,1.6-2,3.1-2c0.9,0,1.7,0,2.5-0.1c1.9-0.3,3.8-1,4.1-3.2c0.3-2.3-1.3-3.3-3.1-4.2
			c-3.9-1.8-3.9-1.9-2.1-6C1749.4,404.1,1749.5,403.7,1749.6,402.9z"/>
		<path class="st0" d="M1629.5,119.2c4.6-3.4,10.2-4.7,16.3-4.2c7.1,0.6,10.9,4.2,12.3,11.3c1.1,4.9,0.4,10,0.5,15
			c0.1,5.3,0,10.5,0,15.7c0,1.6-0.3,2.9-2.4,2.9s-2.3-1.4-2.3-3c0-7.1,0-14.3,0-21.4c0-1.1,0-2.1,0-3.1c0.3-12.7-6.8-14.1-15.7-12.7
			c-5.6,0.9-8.6,4.1-9.8,10c-1.2,5.6-0.5,11.3-0.6,17c-0.1,3.5,0,7.1,0,10.7c0,1.8-0.6,2.8-2.6,2.7c-1.7-0.1-1.9-1.2-1.9-2.6
			c0-13,0-26,0-39c0-1.1,0-2.3,1.3-2.6c1.3-0.3,2.5,0.1,2.9,1.5C1627.7,118.2,1628,119.1,1629.5,119.2z"/>
		<path class="st0" d="M1691,240.8c4.4-4.1,10.3-4.8,16.4-4.3c6.4,0.5,10.4,3.9,11.9,10.1c0.3,1.4,0.6,2.9,0.8,4.3
			c0.1,9,0.1,18,0.1,26.9c0,1.8-0.1,3.5-2.6,3.3c-1.9-0.1-2-1.7-2-3.2c0-4.6,0-9.2,0-13.8c0-3.5,0.1-7.1,0-10.6
			c-0.1-8.6-2.9-12.2-9.6-12.9c-8.9-0.9-14.6,3-16,11.2c-1.3,7.5-0.3,15-0.5,22.5c0,1.7,0,3.3-0.1,5c-0.1,1.2-0.8,1.8-1.9,1.9
			c-1.5,0.1-2.4-0.5-2.5-2.1c0-0.9,0-1.7,0-2.5c0-11.5,0-23,0-34.5c0-0.6,0-1.3,0-1.9c0-1.2-0.2-2.7,1.3-3.1c1.8-0.5,2.7,0.5,3,2.3
			C1689.4,240,1689.6,240.7,1691,240.8z"/>
		<path class="st0" d="M1633.4,258.4c0.2-2.5,0.2-4.9,0.9-7.4c2.6-9.7,9-14.6,19.2-14.5c9.6,0.1,16.1,5.3,18.4,14.7
			c1.4,5.6,1.4,11.2-0.2,16.7c-2.5,8.9-8.7,13.7-17.7,14c-9.6,0.2-16.1-4.2-19.1-13C1633.6,265.5,1633.4,262,1633.4,258.4z
			 M1668.1,259.2c-0.1-2.7-0.2-5.7-1.2-8.5c-2.1-6.5-7.4-10.3-14.2-10.2c-6.9,0.1-11.9,3.9-13.7,10.7c-1.5,5.6-1.5,11.2,0.3,16.7
			c2,6.2,6.7,9.7,13.1,9.9c6.8,0.3,11.6-2.9,14.2-9.2C1667.8,265.6,1668,262.5,1668.1,259.2z"/>
		<path class="st0" d="M1838.5,402.6c-9,0-15.2-4.2-18.1-12.7c-2.5-7.2-2.4-14.4,0.4-21.5c3.1-7.8,9.1-11.5,18.4-11.4
			c8.5,0.1,14.5,4.2,17.3,11.9c2.5,6.9,2.6,14,0.2,20.9C1853.8,398.3,1847.6,402.6,1838.5,402.6z M1853.5,379.6
			c0.1-2.9-0.3-5.6-1.2-8.2c-2.1-6.8-7.2-10.3-14.1-10.3c-6.7,0.1-11.5,3.5-13.6,10c-1.9,5.9-1.8,11.9,0.2,17.8
			c2.1,6.1,7,9.3,13.4,9.4c6.3,0.1,11.3-3.2,13.6-9.2C1853.2,386.2,1853.7,383,1853.5,379.6z"/>
		<path class="st0" d="M1570,362.5c5.7-5.5,12.2-6,19-5.2c5.8,0.6,9.4,4,10.8,9.8c0.4,1.8,0.8,3.8,0.8,5.6c0.1,8.4,0,16.7,0.1,25.1
			c0,0.4,0,0.9,0,1.3c0,1.6-0.2,3-2.3,3c-1.9,0-2.4-1.4-2.4-3c0-7.3,0-14.6,0-22c0-2.3,0-4.6-0.3-6.9c-0.6-5-2.9-7.3-7.8-8.4
			c-11.1-2.4-18,2.9-18.5,14.3c-0.3,6.7-0.1,13.4-0.1,20.1c0,1.3,0,2.5,0,3.8c-0.1,1.5-1,2.3-2.5,2.1c-1.2-0.1-2-0.6-2-1.8
			c-0.1-1.1-0.1-2-0.1-3.1c0-11.5,0-23,0-34.5c0-0.9,0-1.7,0-2.5c0-1.2,0.5-2,1.7-2.3s2,0.4,2.4,1.5
			C1569.3,360.2,1569.6,361.1,1570,362.5z"/>
		<path class="st0" d="M1669.8,137.8c0-0.4,0.1-1.5,0.1-2.6c1.2-15.9,15.4-24.9,30.2-19.1c1.2,0.4,2.4,1,2,2.6
			c-0.4,1.8-1.6,2.3-3.3,1.7c-5.2-1.5-10.3-1.8-15.2,0.4c-1,0.4-2,0.8-2.8,1.4c-6.7,5.6-6.7,13.1-5.7,20.7
			c0.9,6.7,4.6,11.1,11.2,12.8c3.9,1.1,7.8,0.5,11.8-0.2c1.4-0.3,3.4-1.9,4,0.9c0.4,2.1-1.3,2.8-3,3.3
			C1683,165.3,1669.9,155.6,1669.8,137.8z"/>
		<path class="st0" d="M1596.8,281.9c-12.7-0.2-19.9-6.7-21-18.6c-0.2-1.6-0.2-3.3-0.2-5c0.3-16.1,10.8-25.1,29.1-21.1
			c0.6,0.1,1.2,0.3,1.8,0.5c1.1,0.4,1.6,1.2,1.3,2.5c-0.3,1.1-0.9,1.9-2.1,1.7c-1.6-0.3-3.2-0.8-4.9-1.1
			c-12.1-1.9-19.4,3.9-20.3,16.1c-0.1,1.5-0.1,2.9,0,4.4c0.9,12.1,8.1,17.9,20.3,16.1c1.4-0.2,2.9-0.5,4.3-0.9
			c1-0.2,2.1-0.8,2.7,0.5c0.6,1.6,0,2.9-1.6,3.4C1602.8,281.8,1599.5,282.1,1596.8,281.9z"/>
		<path class="st0" d="M1665.1,363.3c3.9-5.3,9.3-6.9,15.8-6.1c1.5,0.2,3.1,0.2,2.9,2.4c-0.2,2-1.6,2-3.2,2
			c-11.2,0.2-15.9,4.6-16.3,15.8c-0.3,6.4,0,13-0.1,19.4c0,1.3,0,2.5-0.1,3.8c-0.1,0.9-0.8,1.4-1.7,1.5c-1.2,0.1-2.1-0.2-2.4-1.5
			c-0.2-1-0.1-2-0.1-3.1c0-11.7,0-23.4,0-35.2c0-0.2,0-0.4,0-0.6c0.1-1.6-0.5-3.8,2-3.8c2,0,1.9,1.7,2,3.2
			C1663.9,361.8,1663.6,362.8,1665.1,363.3z"/>
		<path class="st0" d="M1711.8,137.3c0-6,0-12.1,0-18.1c0-1.7-0.1-3.5,2.5-3.4c2.6,0,2.3,1.9,2.3,3.5c0,12.6,0,25,0,37.6
			c0,1.5,0,3-2,3.1c-2.4,0.1-2.7-1.4-2.6-3.2c0-1.1,0-2,0-3.1C1711.8,148.2,1711.8,142.8,1711.8,137.3z"/>
		<path class="st0" d="M1617.5,258.7c0-5.8,0-11.7,0-17.5c0-1.8-0.4-4.2,2.5-4.1c2.9,0.1,2.3,2.5,2.3,4.3c0,11.9,0,23.7,0,35.6
			c0,0.6,0,1.3,0,1.8c0,1.4-0.5,2.5-2.1,2.5c-1.8,0.1-2.6-1.1-2.6-2.8C1617.5,272,1617.5,265.3,1617.5,258.7z"/>
		<path class="st0" d="M1798.2,351.7c-2.5-0.2-4.6-1.8-6.9-3.4c-5-3.5-5.6-3.4-9.1,1.7c-0.8,1.2-1.6,2-2.9,1.3
			c-1.2-0.6-0.8-1.8-0.4-2.8c1.6-6.2,7-8.4,12.6-5c1.4,0.9,2.7,2,4.1,2.9c3.4,2.1,4.7,1.8,7.1-1.7c0.4-0.6,0.6-1.6,1.2-2.1
			c0.6-0.6,1.5-0.5,2.4-0.2c0.8,0.3,0.6,1,0.6,1.6C1806.5,348.2,1802.5,351.9,1798.2,351.7z"/>
		<path class="st0" d="M1581.1,109c3-3.8,5.6-7.3,8.4-10.6c2.5-2.9,5.3-3.1,7.4-0.5c2.9,3.5,5.6,7.2,8.6,11.1
			c-2.9,1.7-4.3-0.3-6-1.6c-6.1-5.2-6.1-5.2-12.2,0C1585.7,108.6,1584.4,110.5,1581.1,109z"/>
		<path class="st8" d="M214.9,143.6c-0.2-2.6-2.4-3-4.3-3.8c-3.8-1.5-7.5-2.9-11-5.2c10-0.8,19.5,1.1,28.8,4.9
			c-3,1.5-6.2,2.3-9.4,2.9c-0.6-0.2-1.2,0-1.5,0.5C216.6,143.2,215.7,143.5,214.9,143.6z"/>
		<path class="st0" d="M1620,228.5c-2.5-0.2-2.8-2-2.8-4c0-1.7,0.3-3.5,2.5-3.7c2.4-0.2,3.1,1.5,3.1,3.5
			C1622.8,226.3,1622.4,228.2,1620,228.5z"/>
		<path class="st0" d="M1548.1,349.2c-2.4-0.3-2.6-2.1-2.5-4.1c0-1.7,0.4-3.4,2.5-3.5c2.5-0.1,3,1.7,3,3.8
			C1551.2,347.2,1550.7,348.9,1548.1,349.2z"/>
		<path class="st0" d="M1714.4,107.1c-2.1-0.1-2.8-1.5-2.8-3.3c0-1.9,0-4,2.6-4.2c2.1-0.2,2.8,1.5,2.9,3.2
			C1717.1,104.8,1716.8,106.6,1714.4,107.1z"/>
		<path class="st0" d="M1782.9,279.4c0-19.8,0-39.4,0-59.2c-0.6-0.2-0.9-0.8-0.8-1.4c-1.6-0.6-2.9-0.5-3.3,1.4c-0.2,1-0.2,2-0.2,3.1
			c0,17.6,0,35.2,0,52.7c0,1.1,0,2.1,0.2,3.1c0.4,2,1.8,1.9,3.3,1.4C1783,280.6,1783.2,280.1,1782.9,279.4z"/>
		<path class="st7" d="M258.9,220.3c0.4-0.4,0.8-0.8,1.2-1.2c-43.4,0-86.6-0.1-130-0.2c-2.4,0-5,0.9-7.1-1.3
			c-0.5,0.2-1.3,0.3-1.7,0.6c-25.8,17.5-48.7,38.2-68.4,62.5c-3.3,4-6.8,8.1-10.1,12c4.6-2.4,8.6-5.3,11.5-9.4l0,0
			c0.8-0.1,1.2-0.5,1.3-1.2c1-0.2,2-0.3,2.3-1.6c2.4-1.7,4.7-3.4,7-5.3c4.8-3.7,4.8-3.7,9,0.5c23.4,23.3,46.7,46.7,70,70
			c15,15.1,30,30.3,45.1,45.4c3.1,3.1,5.8,6.5,9.6,8.9c0.2-6.8-3.2-12.5-5.2-18.6c-9.6-29.8-19.8-59.5-29.3-89.3
			c-6.4-20.5-13.6-40.8-20.4-61.2c-1.1-3.3-2.5-6.5-2.3-10.1c1.1-0.9,2.1-0.8,3.2-0.8C182.6,220.2,220.8,220.2,258.9,220.3z"/>
	</g>
</g>
</svg>
