<?xml version="1.0" encoding="utf-8"?>
<!-- Generator: Adobe Illustrator 26.0.3, SVG Export Plug-In . SVG Version: 6.00 Build 0)  -->
<svg version="1.1" id="Camada_1" xmlns="http://www.w3.org/2000/svg" xmlns:xlink="http://www.w3.org/1999/xlink" x="0px" y="0px"
	 viewBox="0 0 1920 1920" style="enable-background:new 0 0 1920 1920;" xml:space="preserve">
<style type="text/css">
	.st0{fill:#0E4F78;}
	.st1{fill:#FDCB1C;}
	.st2{fill:#167C55;}
	.st3{fill:#208F6C;}
	.st4{fill:#3481AA;}
	.st5{fill:#FCCB1D;}
	.st6{fill:#3983A8;}
	.st7{fill:#49B488;}
	.st8{fill:#2C5E82;}
</style>
<g>
	<g>
		<path class="st0" d="M1509.9,1117.6c0-10.6,0-21.1,0-31.7c0.5-1.1,0.5-2.3,0-3.4c0.1-1.6,0.9-3.8-1.6-4c-3-0.2-2.4,2.1-2.2,3.9
			c0,0.4,0,0.8,0,1.2c-0.1,9.8-0.1,19.6-0.2,29.4c0,1.3-0.1,2.7,0.1,4c0.2,2.1,1.4,2.5,3.2,1.8
			C1510,1118.7,1510.2,1118.3,1509.9,1117.6z"/>
		<path class="st0" d="M1300.7,900.1c-1.8,0.7-1.7,2.3-2,3.4c-11.3,37.5-21.5,75.3-32,113.1c-9,32.3-18,64.6-27,96.9
			c-1.6,5.8-1.7,5.8-7.9,5.8c-18.9,0-37.8,0-56.8,0c-6.2,0-6.2,0-7.8-5.8c-13.2-48.9-26.3-97.9-39.8-146.8
			c-5.9-21.2-12-42.4-17.6-63.7c-0.3-1.1-0.8-2.1-1.2-3.1c-2.1,0.3-1.4,1.8-1.4,2.7c-0.1,6-0.1,12.1-0.1,18.1c0,64,0,128,0,192
			c0,7,0.8,6.6-6.6,6.6c-13.7,0-27.3,0-41,0c-6.8,0-5.9,0-5.9-6.1c0-80.4,0-160.8,0-241.2c0-10,0-19.9,0-29.9c0-4.1,0.1-4.2,4.3-4.2
			c26.7,0,53.4,0,80.2,0c4,0,4,0.1,5.5,5.2c9.7,33.7,19.4,67.4,29.1,101.2c9.9,34.3,19.7,68.6,29.5,102.9c0.5,1.8,1.2,3.7,1.8,5.4
			c2.6,0,2.5-1.8,2.9-3.2c7.6-22.3,13.4-45.2,20-67.8c13.3-46.1,26.5-92.2,39.7-138.3c1.9-6.5,1.4-5.3,7-5.4c22,0,44.1,0,66.1,0
			c11,0,16.7,5.5,16.8,16.4c0.1,22,0.1,44.1,0.1,66.1c0,64,0,128,0,192c0,1-0.1,2,0,2.9c0.3,2.7-0.6,3.9-3.6,3.9
			c-16.2-0.1-32.4-0.1-48.6,0c-2.2,0-3.3-0.8-3.1-3c0.1-1.4,0-2.7,0-4.1c0-47.4,0-94.8,0-142.3c0-21.5,0-42.9-0.1-64.4
			C1301.4,903.8,1302,901.8,1300.7,900.1z"/>
		<path class="st0" d="M975,1047.8c0-2.6,0-4.7,0-6.8c0-65.2,0-130.4,0-195.5c0-1,0-2,0-2.9c0.1-4.4,0.1-4.5,4.6-4.5
			c11.3,0,22.6-0.1,33.9,0c9.8,0.1,15.6,6.1,15.6,15.8c0,86.6,0,173.3,0,259.9c0,0.8,0,1.6,0,2.3c0.2,2.1-0.6,3.4-2.9,3.2
			c-0.8-0.1-1.6,0-2.3,0c-22.2,0-44.5-0.1-66.7,0.1c-4,0-5.9-1.4-7.7-4.7c-25.1-45-50-90-75.6-134.7c-13.3-23.2-26.3-46.5-39.6-69.7
			c-0.6-1.1-1-2.6-2.9-3.2c-1,1.9-0.6,4.1-0.6,6c0,30.1,0,60.1,0,90.2c0,36.5,0,73,0,109.5c0,6.8,0.6,6.5-6.2,6.5
			c-14.4,0-28.9,0-43.3,0c-5,0-5-0.1-5-5.2c0-29.5,0-58.9,0-88.4c0-59.9,0-119.8,0-179.7c0-1.2,0-2.3,0-3.5c0.1-4.4,0.1-4.5,4.6-4.5
			c22.6,0,45.3,0,67.9-0.1c3.3,0,4.8,1.4,6.3,4c26.5,45.1,52.1,90.6,78,136c6.3,11,12.2,22.3,18.9,33c7,11.3,13.3,22.9,20,34.3
			C972.4,1046.1,972.8,1047.1,975,1047.8z"/>
		<path class="st0" d="M639.3,1053.8c-2.2,0.8-4.2,0.4-6.1,0.4c-20.7,0-41.4,0-62,0c-5.4,0-5-1-6.8,4.9
			c-5.5,18.3-11.1,36.6-16.6,54.9c-1.6,5.3-1.6,5.3-7.1,5.3c-18.7,0-37.5,0-56.2,0c-1.7,0-3.5,0.5-5.1-0.6c-0.8-1.9,0.4-3.4,0.9-5
			c16.4-54.3,32.4-108.8,49.5-162.9c11.3-35.9,21.9-72,33.1-107.9c1.9-6.1,2-5.1,6.7-5.1c27.1,0,54.2,0,81.4,0c11,0,17,4.4,20.2,15
			c9.3,30.6,18.2,61.3,28,91.8c17.8,55.7,34.1,111.9,51.3,167.8c2,6.5,3.7,7-5,6.9c-18.3,0-36.7,0-55,0c-5.5,0-5.5,0-7.1-5.3
			c-21.7-71.5-43.3-143-65-214.4c-0.7-2.2-0.9-4.6-2.7-6.8c-1.1,0.9-1.4,2.1-1.8,3.3c-10.1,33.2-20.1,66.4-30.2,99.7
			c-0.1,0.4-0.2,0.7-0.3,1.1c-1,3.8-0.8,4.1,2.9,4.3c1.4,0.1,2.7,0,4.1,0c10,0,19.9,0.1,29.8,0c2.4,0,4,0.4,4.8,3
			c4.7,15.9,9.6,31.7,14.4,47.6C639.4,1052.2,639.3,1052.9,639.3,1053.8z"/>
		<path class="st1" d="M83.1,948.8c3.9-5.9,9.2-10.5,14.2-15.3c30.9-30.3,61-61.4,91.7-91.8c18.7-18.5,37.2-37.2,55.8-55.8
			c5.4-5.4,8.7-5.4,14.3,0.2c19.2,19.1,38.3,38.3,57.4,57.5c5.9,5.9,11.8,11.9,17.8,17.8c0.7,0.7,1.5,1.3,1.2,2.8
			c-4.8,1.5-10.1,1.4-15.2,2.2c-13.3,2-26.4,4.7-39.4,8.5c-0.7,0.2-1.5,0.2-2.3,0.4c-8.6-3.6-17.5-5.3-26.8-4.6
			c-28.1-0.1-49.2,13-65.1,35.2c-5,6.9-8.9,14.7-9.8,23.5c-7.4,6.7-14.8,13.5-22.1,20.2c-2.1-0.1-4.3-0.3-6.4-0.3
			C126.6,948.9,104.9,948.9,83.1,948.8z"/>
		<path class="st2" d="M420.6,948.8c0.4,2.4-1.7,3.3-2.9,4.6c-17.1,17.3-34,34.9-51.4,51.9c-27.5,26.8-54.1,54.4-81.2,81.5
			c-9.1,9.1-18.3,18-27.4,27.1c-0.8,0.8-1.6,1.8-2.9,1.5c-0.4-1.5-0.5-3,0-4.6c1.3-4.1,2.4-8.2,3.8-12.2
			c6.8-19.6,12.8-39.5,19.9-58.9c3.8-10.3,6.8-21,10.3-31.4c5.1-15,9.6-30.3,15.2-45.1c1.6-4.2,3-8.4,3.1-13
			c0.4-0.4,0.7-0.7,1.1-1.1c0,0,0.4-0.1,0.3-0.1c7.3,0,14.6,0,21.9,0c9.7,0,19.4,0.1,29.2,0.1C379.8,949,400.2,948.9,420.6,948.8z"
			/>
		<path class="st3" d="M306.9,950.2c0,4.6-1.5,8.8-3.1,13c-5.6,14.9-10,30.1-15.2,45.1c-3.6,10.4-6.5,21.1-10.3,31.4
			c-7.2,19.5-13.2,39.3-19.9,58.9c-1.4,4-2.5,8.2-3.8,12.2c-0.5,1.6-0.5,3.1,0,4.6c0,0,0,0,0,0c-0.9,0.1-1.3,0.3-0.3,1
			c-0.6,2.1-1.5,3.5-3.6,1.2c0.2-6.3-3-11.6-4.8-17.3c-8.9-27.8-18.4-55.4-27.3-83.2c-6-19.1-12.7-38-19-57c-1-3.1-2.3-6.1-2.1-9.4
			c1-0.8,2-0.7,3-0.7C235.9,950.1,271.4,950.1,306.9,950.2z"/>
		<path class="st4" d="M307.9,949.1c-40.4,0-80.7-0.1-121.1-0.2c-2.2,0-4.7,0.8-6.6-1.2c8-6.6,17.5-10.8,26.6-15.6
			c28-14.6,57.7-24.1,88.9-28.6c0.2,0,0.4,0,0.6,0.1c-0.2,2,0.4,3.7,1.4,5.5c2.9,5,5,10.4,6.9,15.9c2.7,7.8,3.5,15.8,3.6,24
			L307.9,949.1z"/>
		<path class="st5" d="M420.6,948.8c-20.4,0.1-40.8,0.1-61.2,0.2c-9.7,0-19.4,0-29.2-0.1c-0.2-5.6-0.8-11.2-1.9-16.7
			c-2.2-11.2-7.3-21.1-13.4-30.5c7.1-1.3,14.3-1.4,21.5-1.4c23.1,0.1,45.9,2.2,68.4,7.7c3.1,0.8,6.4,1.3,9.9,3.2
			c-11.1-1.5-21.5-2.8-32-3.4c-0.4,2.3,1.3,2.9,2.3,3.9c10.7,10.8,21.4,21.6,32.1,32.4C418.4,945.7,420.2,946.7,420.6,948.8z"/>
		<path class="st6" d="M176.9,929.1c0.9-8.8,4.8-16.6,9.8-23.5c15.9-22.2,37-35.3,65.1-35.2c3.2,2.1,6.7,3.4,10.2,4.8
			c1.7,0.7,3.7,1.1,4,3.5c-5.8,3.3-12.2,5-18.2,7.6c-17.4,7.6-33.8,16.8-49.5,27.4C190.9,918.6,184,924,176.9,929.1z"/>
		<path class="st7" d="M83.1,948.8c21.7,0.1,43.5,0.1,65.2,0.2c2.1,0,4.3,0.2,6.4,0.3c-3.2,4.7-7.6,8.3-11.2,12.7
			c-6.5,7.8-12.9,15.7-18.7,24c-2.4,3.4-2.6,3.4-5.2,0.8c-11.8-11.6-23.5-23.4-35.3-35.1C83.6,950.9,82.2,950.3,83.1,948.8z"/>
		<path class="st0" d="M1486.6,1074.1c-2,1.6-2.3,3.6-3,5.4c-4.8,11.7-9.5,23.5-14.3,35.2c-0.3,0.7-0.7,1.4-0.9,2.2
			c-0.4,1.1-0.9,2.3-2.2,2.5c-1.7,0.3-2.2-1.2-2.8-2.4c-5-9.5-8.3-19.7-12.5-29.6c-1.8-4.3-3.1-8.8-5.7-12.7
			c-2.1,0.9-1.4,2.7-1.4,4.1c-0.1,11.5-0.1,23-0.1,34.5c0,1.4,0,2.7,0,4.1c0,1.4-0.8,2.1-2.2,2c-1.2-0.1-1.7-0.8-1.7-1.9
			c0-0.8,0-1.6,0-2.3c0-15.6,0-31.2,0-46.8c0-1.6-0.8-3.8,1.9-4.2c2.4-0.3,4.5-0.2,5.6,2.8c3.8,9.8,7.9,19.5,11.7,29.3
			c2,5,4.2,9.9,7.4,15.1c2.2-5.3,4.1-10,6-14.6c3.7-9,7.3-18.1,10.9-27.1c0.4-1.1,0.9-2.1,1.3-3.2c0.9-2.8,3.2-2.4,5.3-2.2
			c2.4,0.2,1.8,2.2,1.8,3.6c0,15.8,0,31.6,0,47.4c0,1,0,2-0.2,2.9c-0.1,0.9-0.9,1.2-1.7,1.3c-1,0.1-2.1-0.2-2.3-1.3
			c-0.3-1.3-0.2-2.7-0.2-4.1c0-11.7,0-23.4,0-35.1C1487.2,1077.5,1487.7,1075.9,1486.6,1074.1z"/>
		<path class="st0" d="M314.9,901.7c6.2,9.4,11.2,19.4,13.4,30.5c1.1,5.5,1.7,11.1,1.9,16.7c-7.3,0-14.6,0-21.9,0
			c-0.1-8.2-1-16.2-3.6-24c-1.9-5.5-4-10.9-6.9-15.9c-1-1.8-1.6-3.5-1.4-5.5C302.5,902.5,308.6,901.5,314.9,901.7z"/>
		<path class="st0" d="M1499.2,877.7c-5.2-3.4-7.1-7.8-6.7-13.3c0.5-5.9,4-10.2,9.8-11.6c1.5-0.4,3.1-0.6,4.6-0.6
			c5.8,0.2,11.6,1,17.5,0.6c0.9-0.1,2.1,0,2.2,1.3c0.1,1.4-1.1,1.4-2,1.5c-1.5,0.3-3.1,0-4.6,0.9c-0.6,2,1,3.6,1.4,5.4
			c1.9,8.8-3.3,16.1-12.3,16.8c-1.6,0.1-3.1,0.1-4.7,0.1c-2.2,0-3.6,1.3-4.6,3.1c-1.8,3-0.8,5.4,2.5,6.1c2.1,0.4,4.3,0.3,6.4,0.4
			c2.7,0.1,5.5,0.1,8.1,0.5c4.3,0.6,7.8,2.6,8.9,7.2c1.3,5.2-0.2,10.3-4.6,12.9c-8.4,5-17.5,5.5-26.3,1.6
			c-7.2-3.2-7.9-12.4-1.7-17.4c2.4-1.9,3.7-3,2.1-6.4C1493.5,883.3,1496,880.5,1499.2,877.7z M1508,892.2c-2.1,0.1-4.6,0.1-7.1,0.5
			c-4.9,0.8-7.3,3.6-7.3,8.3c0,4.3,2.3,7,7,7.9c4.2,0.8,8.5,0.7,12.7-0.2c2.1-0.5,4.1-1.3,5.7-2.8c2.4-2.4,3.3-5.3,2.5-8.5
			c-0.9-3.3-3.6-4.4-6.6-4.7C1512.7,892.5,1510.5,892.4,1508,892.2z M1506.8,855.5c-6.3,0.1-10.4,4.1-10.3,10.2
			c0.1,6.2,4,9.8,10.6,9.7c6.7-0.1,10.2-3.5,10.1-10C1517.2,859,1513.4,855.4,1506.8,855.5z"/>
		<path class="st0" d="M1476.4,997.5c0-2.6,0-5.3,0-7.9c0-11.1,0-22.2,0-33.3c0-1,0-2,0.1-2.9c0.1-1.2,1-1.6,2.1-1.6
			c1.1,0,1.9,0.4,2.1,1.6c0.1,1,0.1,1.9,0.1,2.9c0,15.4,0,30.8,0,46.2c0,1.6,0.9,3.8-1.5,4.5c-2.2,0.7-3.5-0.8-4.7-2.5
			c-8.9-13.1-17.8-26.1-26.7-39.1c-1-1.5-1.7-3.4-4.3-4.7c0,1.9,0,3.3,0,4.8c0,12.5,0.1,25,0.1,37.4c0,0.8,0,1.6,0,2.3
			c-0.1,1.5-1,2-2.4,1.9c-1.2-0.1-1.6-0.9-1.7-2c0-1,0-1.9,0-2.9c0-15.2,0-30.4,0-45.6c0-1.6-0.9-3.9,1.2-4.7c2.5-0.9,3.9,1,5.1,2.9
			c1.5,2.3,3,4.5,4.6,6.8c7.8,11.4,15.6,22.8,23.5,34.2C1474.5,996.5,1474.7,997.6,1476.4,997.5z"/>
		<path class="st0" d="M1487.3,893.6c-2.5,1-4.2,0.6-5.3-2.3c-1.6-4.4-3.5-8.7-5.1-13.1c-0.8-2.2-1.9-3.6-4.6-3.5
			c-5.4,0.2-10.9,0.1-16.4,0c-2.3,0-3.5,1-4.3,3.1c-1.7,4.6-3.7,9-5.4,13.6c-1,2.7-2.5,3.2-4.9,2.2c-0.6-1.9,0.6-3.5,1.2-5
			c5.9-14.8,11.9-29.6,17.9-44.4c0.4-0.9,0.7-1.8,1.1-2.7c0.7-1.4,1.5-2.9,3.4-2.7c1.7,0.2,1.9,1.8,2.4,3
			c6.6,16.8,13.3,33.7,19.9,50.5C1487.4,892.6,1487.3,893,1487.3,893.6z M1474.1,870.9c-3.2-8.4-6.1-15.9-9.2-24
			c-4.6,7-6.4,14.1-9.3,20.8c-1,2.3,0,3.2,2.3,3.2C1463,870.8,1468,870.9,1474.1,870.9z"/>
		<path class="st0" d="M1787.2,1002.5c-4,4.1-8.9,5.5-14.4,5.1c-7.1-0.5-12.3-4.1-14.4-10.9c-2.2-7.1-2.1-14.3,0.4-21.3
			c3.5-9.6,15.4-13.5,24.4-8.3c1.3,0.8,2.2,2.2,4.5,2.6c0-5.5-0.1-10.8,0.1-16.2c0.1-1.9-1.3-5,1.9-5.2c3.9-0.2,2.4,3.3,2.4,5.3
			c0.1,16.2,0.1,32.4,0.1,48.6c0,0.8,0,1.6,0,2.3c0,1-0.2,2.1-1.3,2.3c-1.5,0.3-1.9-0.9-2.1-2.1
			C1788.6,1004,1788.7,1003.2,1787.2,1002.5z M1787.8,985.3c-0.1-1.2-0.1-3.7-0.6-6.2c-1.4-6.7-5.2-9.8-11.8-10
			c-6.5-0.2-10.9,2.7-12.8,8.9c-1.7,5.7-1.8,11.6-0.1,17.3c1.7,5.8,6.2,8.6,12.5,8.5c6.6-0.1,10.3-2.9,12.1-9
			C1787.9,992.1,1787.8,989.4,1787.8,985.3z"/>
		<path class="st0" d="M1822.2,987.2c-3.7,0-7.4-0.1-11.1,0c-3.2,0.1-3.6,0.8-3.1,4c1.1,7.6,6,12.1,13.9,12.4
			c3.7,0.2,7.4-0.4,10.9-1.7c1.1-0.4,2.4-0.9,2.7,0.8c0.3,1.3-0.4,2.1-1.5,2.8c-12.5,7.3-28.4-0.3-30.5-14.6
			c-0.8-5.7-0.3-11.3,2.3-16.5c3.7-7.4,10.8-10.7,19.1-9.1c6.3,1.2,10.9,6.7,12,14.2c0.1,0.8,0.2,1.6,0.2,2.3
			c0.3,5.2,0.3,5.2-4.9,5.2c-1.8,0-3.5,0-5.3,0C1825.4,987.2,1823.8,987.2,1822.2,987.2C1822.2,987.2,1822.2,987.2,1822.2,987.2z
			 M1808.1,983.3c7.6,0,14.8,0,22,0c1.6,0,2.5-0.5,2.5-2.4c0.1-7.5-6.1-12.9-13.5-11.7C1812.7,970.3,1809.4,974.3,1808.1,983.3z"/>
		<path class="st0" d="M1586.2,1099.7c-3.9,0-7.8,0-11.7,0c-2.1,0-2.6,1-2.5,3c0.3,7.3,5.4,12.8,12.9,13.4c4.1,0.3,8.2-0.3,12.1-1.7
			c0.9-0.3,2-0.7,2.5,0.5c0.4,1.2,0.1,2.2-1.1,3c-10.5,6.9-27,0.8-30-11.2c-1.7-6.8-1.5-13.6,1.8-19.9c3.7-7.1,10.4-10.3,18.6-9
			c6.2,1,10.7,5.9,12.1,13.3c0.1,0.4,0.2,0.8,0.2,1.1c1.2,7.1,0.9,7.4-6,7.4C1592.1,1099.6,1589.2,1099.6,1586.2,1099.7
			C1586.2,1099.6,1586.2,1099.6,1586.2,1099.7z M1584.2,1095.7C1584.2,1095.7,1584.2,1095.7,1584.2,1095.7c3.1,0,6.2,0.1,9.3,0
			c3.2-0.1,3.6-0.7,3-3.9c-1.1-6.5-5.4-10.4-11.5-10.3c-6.6,0.1-11.9,5-12.7,11.4c-0.3,2.1,0.6,2.8,2.5,2.8
			C1578,1095.7,1581.1,1095.7,1584.2,1095.7z"/>
		<path class="st0" d="M1701.8,889.2c-2.1,0.4-3.1,2-4.5,2.9c-5,3.1-10.4,3.4-15.7,1.4c-7.8-2.9-9.2-13.9-2.7-19.3
			c2.8-2.3,6.1-3.4,9.6-3.8c3.7-0.4,7.4-0.6,11.1-0.7c2-0.1,2.6-1,2.6-2.9c0.1-7-3.7-10.8-10.8-10.6c-3,0.1-5.8,0.9-8.5,2
			c-1.3,0.6-2.6,1-3.3-0.9c-0.6-1.5,0.3-2.2,1.4-2.7c5.7-2.4,11.6-3.5,17.6-1.5c4.3,1.4,6.9,4.8,7,9.2c0.4,9.9,0.2,19.8,0.3,29.8
			c0,0.8-0.2,1.6-1.1,1.8c-1.1,0.2-1.8-0.4-2.1-1.5C1702.4,891.3,1702.1,890.3,1701.8,889.2z M1688.6,890.7
			c8.6-0.1,14.1-6.2,13.5-14.7c-0.1-1.8-0.6-3-2.7-2.9c-4.5,0.2-9,0.3-13.3,1.6c-5,1.5-7.5,4.9-6.9,9.3
			C1679.8,888.5,1682.9,890.7,1688.6,890.7z"/>
		<path class="st0" d="M1537.2,874.6c-0.5,10.4,4.5,15.8,14.6,16c3.5,0.1,7-0.4,10.3-1.5c1.1-0.4,2.4-0.9,2.8,0.8
			c0.4,1.3-0.3,2.3-1.5,2.8c-1.1,0.4-2.2,0.9-3.3,1.1c-8.9,1.6-17.7,2.2-24-6c-5-6.4-5.3-19.7-0.7-27.3c2.4-4,5.8-6.8,10.5-7.8
			c11.3-2.6,19.7,3.6,20.7,15.3c0.5,6.2,0.5,6.2-5.6,6.2c-6.2,0-12.5,0-18.7,0C1540.6,874.1,1538.8,873.7,1537.2,874.6z M1550,870.4
			C1550,870.4,1550,870.4,1550,870.4c2.9,0,5.8-0.1,8.7,0c2.7,0.1,3.8-0.7,3.4-3.7c-1-7-5.2-10.8-12.1-10.6
			c-7,0.2-12.5,5.3-12.8,11.9c-0.1,1.8,0.6,2.4,2.3,2.4C1543,870.4,1546.5,870.4,1550,870.4z"/>
		<path class="st0" d="M1665.8,1114.6c-3.8,4.1-8.7,5.9-14.5,5.5c-6.3-0.4-10.4-3.6-11.3-9c-1.1-6.3,1.4-11,7.5-13.6
			c4.6-2,9.5-2.1,14.4-2.2c5.2-0.1,5.8-0.8,4.9-5.7c-0.9-5.2-3.8-7.8-9.2-8c-3.4-0.1-6.6,0.8-9.7,2c-1.3,0.5-2.6,1.1-3.4-0.7
			c-0.8-1.9,0.5-2.4,1.8-2.9c5-2.2,10.2-2.8,15.5-1.8c5,0.9,8.5,4.3,8.8,9.6c0.5,9.9,0.3,19.9,0.3,29.8c0,0.8-0.3,1.6-1.1,1.8
			c-1.2,0.3-1.7-0.5-2.1-1.5C1667.2,1116.8,1667.6,1115.5,1665.8,1114.6z M1661.3,1098.6c-4.3,0.2-8.6,0.4-12.5,2.3
			c-3.4,1.6-5,4.4-4.7,8c0.3,3.6,2.3,6.1,5.9,7c9.3,2.5,18.4-5.6,16.9-15.1c-0.2-1.4-0.8-2.1-2.1-2.2
			C1663.6,1098.6,1662.5,1098.6,1661.3,1098.6z"/>
		<path class="st0" d="M1517.8,1002.4c-4.1,3.8-8.9,5.8-14.7,5.3c-6.2-0.5-10.2-3.6-11.2-9.1c-1.1-5.8,1.4-10.7,7-13.3
			c4.3-2,9-2.3,13.7-2.4c6.5-0.1,7.9-2.4,5.4-8.5c-1.5-3.5-4.2-5-7.8-5.2c-3.6-0.2-6.9,0.6-10.2,2c-1.2,0.5-2.7,1.2-3.5-0.6
			c-1-2.1,0.6-2.6,2.1-3.3c4.6-2,9.4-2.5,14.3-1.9c4.9,0.7,8.1,3.4,9.4,8.3c0.5,2.1,0.8,4.2,0.8,6.3c0,7.4,0,14.8,0,22.2
			c0,0.8,0,1.6,0,2.3c0,1.1-0.2,2.1-1.3,2.3c-1.5,0.3-2-0.8-2.2-2.1C1519.2,1003.9,1519.1,1002.9,1517.8,1002.4z M1518.7,989.9
			c-0.4-1.1,0.8-3.6-2-3.6c-5.6-0.1-11.3-0.2-16.6,2.5c-3.4,1.7-4.7,5-3.9,8.9c0.6,3.2,2.8,5.2,6.4,5.9
			C1511.5,1005.2,1518.6,999.4,1518.7,989.9z"/>
		<path class="st0" d="M1745.1,1113.7c-4.9,5.3-10.2,6.9-16.4,6.3c-5.3-0.6-9-3.6-10.1-8.3c-1.3-5.6,0.5-10.2,5.1-13.1
			c3.6-2.2,7.6-2.8,11.7-3.2c1-0.1,2,0.2,2.9-0.1c2.4-0.9,6.4,2.2,7.1-2.5c0.7-5-2-9.4-6.1-10.7c-3.5-1.1-6.9-0.4-10.3,0.6
			c-1.3,0.4-2.6,0.9-3.9,1.3c-1.2,0.4-1.8-0.3-2.2-1.3c-0.4-1.1-0.1-1.9,1-2.4c6.1-2.6,12.3-3.8,18.7-1.5c3.8,1.4,6,4.5,6.4,8.4
			c1.1,10.1,0.3,20.2,0.5,30.3c0,0.8-0.3,1.6-1.1,1.8c-1.1,0.3-1.9-0.3-2.2-1.4C1745.8,1116.8,1745.6,1115.7,1745.1,1113.7z
			 M1738.3,1098.7c-3.3,0-7.4,0.4-11.1,2.2c-3.5,1.7-5.2,4.9-4.6,8.6c0.6,3.8,2.9,6,7,6.6c7.4,1.1,13.8-3.1,15.4-10.1
			C1746.6,1099.3,1745.8,1098.5,1738.3,1098.7z"/>
		<path class="st0" d="M1704.2,1002.1c-4.3,3.9-9.1,6-14.9,5.5c-6.2-0.5-10.3-3.6-11.4-9.1c-1.2-5.8,1.4-10.7,7-13.3
			c4.7-2.2,9.8-2.3,14.9-2.4c5.2-0.1,5.7-0.7,4.8-5.7c-0.9-5.3-3.7-7.7-9.2-7.9c-3.4-0.1-6.6,0.7-9.7,2c-1.3,0.5-2.6,1-3.4-0.8
			c-0.7-1.8,0.4-2.4,1.8-3c5-2.2,10.2-2.8,15.5-1.8c4.4,0.8,7.4,3.4,8.5,7.9c0.4,1.7,0.8,3.5,0.8,5.2c0.1,8.2,0.1,16.4,0,24.6
			c0,1.4,0.7,3.5-1.7,3.7c-2,0.1-1.6-1.8-2-3C1705.1,1003.4,1704.7,1002.9,1704.2,1002.1z M1698.9,986.2c-4.1,0.2-8.2,0.5-12,2.3
			c-3.8,1.8-5.3,5-4.6,9.1c0.6,3.4,3,5.5,6.9,6.1c9.2,1.4,16.6-5.7,15.5-15c-0.2-1.6-0.7-2.6-2.4-2.5
			C1701.2,986.2,1700.1,986.2,1698.9,986.2z"/>
		<path class="st0" d="M1695.5,1120.3c-12.5-6.2-16.9-16.3-13-29.6c3.2-10.9,16.8-16.9,27.1-11.9c0.9,0.5,1.7,1,1.4,2.2
			c-0.3,1.4-1.1,2-2.5,1.7c-1.7-0.4-3.4-0.8-5.2-1c-9.5-1.2-15.9,3.7-17.2,13.2c-0.2,1.5-0.2,3.1-0.2,4.7
			c0.2,12.2,7.4,18.2,19.4,16.1c1.1-0.2,2.3-0.5,3.4-0.8c1.1-0.3,2-0.2,2.2,1.1c0.2,1-0.1,2-1,2.5c-1.7,0.9-3.7,1.3-5.6,1.5
			c-1.2,0.1-2.4,0-3.4,0.5c-1.7,0.7-1.9,2.8-0.4,4.1c0.6,0.5,1.4,0.8,1.9,1.3c3.6,3.4,2.8,9-1.6,11.3c-2.1,1.1-4.5,1.3-6.8,1.2
			c-1.4,0-2.9-0.2-2.9-2c0-2,1.5-1.9,2.9-1.9c0.8,0,1.6,0,2.3-0.1c1.8-0.3,3.5-0.9,3.8-3c0.3-2.1-1.2-3.1-2.9-3.9
			c-3.6-1.7-3.6-1.8-2-5.6C1695.3,1121.4,1695.4,1121,1695.5,1120.3z"/>
		<path class="st0" d="M1583.6,856c4.3-3.2,9.5-4.4,15.2-3.9c6.6,0.6,10.2,3.9,11.5,10.5c1,4.6,0.4,9.3,0.5,14c0.1,4.9,0,9.8,0,14.6
			c0,1.5-0.3,2.7-2.2,2.7c-1.9,0-2.1-1.3-2.1-2.8c0-6.6,0-13.3,0-19.9c0-1,0-2,0-2.9c0.3-11.8-6.3-13.1-14.6-11.8
			c-5.2,0.8-8,3.8-9.1,9.3c-1.1,5.2-0.5,10.5-0.6,15.8c-0.1,3.3,0,6.6,0,10c0,1.7-0.6,2.6-2.4,2.5c-1.6-0.1-1.8-1.1-1.8-2.4
			c0-12.1,0-24.2,0-36.3c0-1,0-2.1,1.2-2.4c1.2-0.3,2.3,0.1,2.7,1.4C1582,855.1,1582.2,855.9,1583.6,856z"/>
		<path class="st0" d="M1640.9,969.3c4.1-3.8,9.6-4.5,15.3-4c6,0.5,9.7,3.6,11.1,9.4c0.3,1.3,0.6,2.7,0.7,4
			c0.1,8.4,0.1,16.8,0.1,25.1c0,1.7-0.1,3.3-2.4,3.1c-1.8-0.1-1.9-1.6-1.9-3c0-4.3,0-8.6,0-12.9c0-3.3,0.1-6.6,0-9.9
			c-0.1-8-2.7-11.4-8.9-12c-8.3-0.8-13.6,2.8-14.9,10.4c-1.2,7-0.3,14-0.5,21c0,1.6,0,3.1-0.1,4.7c-0.1,1.1-0.7,1.7-1.8,1.8
			c-1.4,0.1-2.2-0.5-2.3-2c0-0.8,0-1.6,0-2.3c0-10.7,0-21.4,0-32.1c0-0.6,0-1.2,0-1.8c0-1.1-0.2-2.5,1.2-2.9
			c1.7-0.5,2.5,0.5,2.8,2.1C1639.4,968.5,1639.6,969.2,1640.9,969.3z"/>
		<path class="st0" d="M1587.3,985.7c0.2-2.3,0.2-4.6,0.8-6.9c2.4-9,8.4-13.6,17.9-13.5c8.9,0.1,15,4.9,17.1,13.7
			c1.3,5.2,1.3,10.4-0.2,15.6c-2.3,8.3-8.1,12.8-16.5,13c-8.9,0.2-15-3.9-17.8-12.1C1587.5,992.3,1587.3,989,1587.3,985.7z
			 M1619.6,986.4c-0.1-2.5-0.2-5.3-1.1-7.9c-2-6.1-6.9-9.6-13.2-9.5c-6.4,0.1-11.1,3.6-12.8,10c-1.4,5.2-1.4,10.4,0.3,15.6
			c1.9,5.8,6.2,9,12.2,9.2c6.3,0.3,10.8-2.7,13.2-8.6C1619.3,992.4,1619.5,989.5,1619.6,986.4z"/>
		<path class="st0" d="M1778.3,1120c-8.4,0-14.2-3.9-16.9-11.8c-2.3-6.7-2.2-13.4,0.4-20c2.9-7.3,8.5-10.7,17.1-10.6
			c7.9,0.1,13.5,3.9,16.1,11.1c2.3,6.4,2.4,13,0.2,19.5C1792.6,1116,1786.8,1120,1778.3,1120z M1792.3,1098.6
			c0.1-2.7-0.3-5.2-1.1-7.6c-2-6.3-6.7-9.6-13.1-9.6c-6.2,0.1-10.7,3.3-12.7,9.3c-1.8,5.5-1.7,11.1,0.2,16.6c2,5.7,6.5,8.7,12.5,8.8
			c5.9,0.1,10.5-3,12.7-8.6C1792,1104.7,1792.5,1101.7,1792.3,1098.6z"/>
		<path class="st0" d="M1528.2,1082.6c5.3-5.1,11.4-5.6,17.7-4.8c5.4,0.6,8.8,3.7,10.1,9.1c0.4,1.7,0.7,3.5,0.7,5.2
			c0.1,7.8,0,15.6,0.1,23.4c0,0.4,0,0.8,0,1.2c0,1.5-0.2,2.8-2.1,2.8c-1.8,0-2.2-1.3-2.2-2.8c0-6.8,0-13.6,0-20.5
			c0-2.1,0-4.3-0.3-6.4c-0.6-4.7-2.7-6.8-7.3-7.8c-10.3-2.2-16.8,2.7-17.2,13.3c-0.3,6.2-0.1,12.5-0.1,18.7c0,1.2,0,2.3,0,3.5
			c-0.1,1.4-0.9,2.1-2.3,2c-1.1-0.1-1.9-0.6-1.9-1.7c-0.1-1-0.1-1.9-0.1-2.9c0-10.7,0-21.4,0-32.1c0-0.8,0-1.6,0-2.3
			c0-1.1,0.5-1.9,1.6-2.1c1.1-0.2,1.9,0.4,2.2,1.4C1527.6,1080.5,1527.8,1081.3,1528.2,1082.6z"/>
		<path class="st0" d="M1621.2,873.3c0-0.4,0.1-1.4,0.1-2.4c1.1-14.8,14.3-23.2,28.1-17.8c1.1,0.4,2.2,0.9,1.9,2.4
			c-0.4,1.7-1.5,2.1-3.1,1.6c-4.8-1.4-9.6-1.7-14.2,0.4c-0.9,0.4-1.9,0.7-2.6,1.3c-6.2,5.2-6.2,12.2-5.3,19.3
			c0.8,6.2,4.3,10.3,10.4,11.9c3.6,1,7.3,0.5,11-0.2c1.3-0.3,3.2-1.8,3.7,0.8c0.4,2-1.2,2.6-2.8,3.1
			C1633.5,898.9,1621.3,889.9,1621.2,873.3z"/>
		<path class="st0" d="M1553.2,1007.6c-11.8-0.2-18.5-6.2-19.6-17.3c-0.2-1.5-0.2-3.1-0.2-4.7c0.3-15,10.1-23.4,27.1-19.7
			c0.6,0.1,1.1,0.3,1.7,0.5c1,0.4,1.5,1.1,1.2,2.3c-0.3,1-0.8,1.8-2,1.6c-1.5-0.3-3-0.7-4.6-1c-11.3-1.8-18.1,3.6-18.9,15
			c-0.1,1.4-0.1,2.7,0,4.1c0.8,11.3,7.5,16.7,18.9,15c1.3-0.2,2.7-0.5,4-0.8c0.9-0.2,2-0.7,2.5,0.5c0.6,1.5,0,2.7-1.5,3.2
			C1558.8,1007.5,1555.7,1007.7,1553.2,1007.6z"/>
		<path class="st0" d="M1616.8,1083.4c3.6-4.9,8.7-6.4,14.7-5.7c1.4,0.2,2.9,0.2,2.7,2.2c-0.2,1.9-1.5,1.9-3,1.9
			c-10.4,0.2-14.8,4.3-15.2,14.7c-0.3,6,0,12.1-0.1,18.1c0,1.2,0,2.3-0.1,3.5c-0.1,0.8-0.7,1.3-1.6,1.4c-1.1,0.1-2-0.2-2.2-1.4
			c-0.2-0.9-0.1-1.9-0.1-2.9c0-10.9,0-21.8,0-32.8c0-0.2,0-0.4,0-0.6c0.1-1.5-0.5-3.5,1.9-3.5c1.9,0,1.8,1.6,1.9,3
			C1615.7,1082,1615.4,1082.9,1616.8,1083.4z"/>
		<path class="st0" d="M1660.3,872.9c0-5.6,0-11.3,0-16.9c0-1.6-0.1-3.3,2.3-3.2c2.4,0,2.1,1.8,2.1,3.3c0,11.7,0,23.3,0,35
			c0,1.4,0,2.8-1.9,2.9c-2.2,0.1-2.5-1.3-2.4-3c0-1,0-1.9,0-2.9C1660.3,883,1660.3,878,1660.3,872.9z"/>
		<path class="st0" d="M1572.5,985.9c0-5.4,0-10.9,0-16.3c0-1.7-0.4-3.9,2.3-3.8c2.7,0.1,2.1,2.3,2.1,4c0,11.1,0,22.1,0,33.2
			c0,0.6,0,1.2,0,1.7c0,1.3-0.5,2.3-2,2.3c-1.7,0.1-2.4-1-2.4-2.6C1572.5,998.3,1572.5,992.1,1572.5,985.9z"/>
		<path class="st0" d="M1740.8,1072.6c-2.3-0.2-4.3-1.7-6.4-3.2c-4.7-3.3-5.2-3.2-8.5,1.6c-0.7,1.1-1.5,1.9-2.7,1.2
			c-1.1-0.6-0.7-1.7-0.4-2.6c1.5-5.8,6.5-7.8,11.7-4.7c1.3,0.8,2.5,1.9,3.8,2.7c3.2,2,4.4,1.7,6.6-1.6c0.4-0.6,0.6-1.5,1.1-2
			c0.6-0.6,1.4-0.5,2.2-0.2c0.7,0.3,0.6,0.9,0.6,1.5C1748.5,1069.3,1744.8,1072.8,1740.8,1072.6z"/>
		<path class="st0" d="M1538.6,846.5c2.8-3.5,5.2-6.8,7.8-9.9c2.3-2.7,4.9-2.9,6.9-0.5c2.7,3.3,5.2,6.7,8,10.3
			c-2.7,1.6-4-0.3-5.6-1.5c-5.7-4.8-5.7-4.8-11.4,0C1542.8,846.1,1541.6,847.9,1538.6,846.5z"/>
		<path class="st8" d="M265.9,878.7c-0.2-2.4-2.2-2.8-4-3.5c-3.5-1.4-7-2.7-10.2-4.8c9.3-0.7,18.2,1,26.8,4.6
			c-2.8,1.4-5.8,2.1-8.8,2.7c-0.6-0.2-1.1,0-1.4,0.5C267.5,878.4,266.7,878.6,265.9,878.7z"/>
		<path class="st0" d="M1574.8,957.8c-2.3-0.2-2.6-1.9-2.6-3.7c0-1.6,0.3-3.3,2.3-3.4c2.2-0.2,2.9,1.4,2.9,3.3
			C1577.4,955.8,1577,957.5,1574.8,957.8z"/>
		<path class="st0" d="M1507.8,1070.2c-2.2-0.3-2.4-2-2.3-3.8c0-1.6,0.4-3.2,2.3-3.3c2.3-0.1,2.8,1.6,2.8,3.5
			C1510.7,1068.4,1510.2,1070,1507.8,1070.2z"/>
		<path class="st0" d="M1662.7,844.7c-2-0.1-2.6-1.4-2.6-3.1c0-1.8,0-3.7,2.4-3.9c2-0.2,2.6,1.4,2.7,3
			C1665.2,842.6,1665,844.3,1662.7,844.7z"/>
		<path class="st0" d="M1726.5,1005.2c0-18.4,0-36.7,0-55.1c-0.6-0.2-0.8-0.7-0.7-1.3c-1.5-0.6-2.7-0.5-3.1,1.3
			c-0.2,0.9-0.2,1.9-0.2,2.9c0,16.4,0,32.8,0,49.1c0,1,0,2,0.2,2.9c0.4,1.9,1.7,1.8,3.1,1.3
			C1726.6,1006.3,1726.8,1005.9,1726.5,1005.2z"/>
		<path class="st7" d="M306.9,950.2c0.4-0.4,0.7-0.7,1.1-1.1c-40.4,0-80.7-0.1-121.1-0.2c-2.2,0-4.7,0.8-6.6-1.2
			c-0.5,0.2-1.2,0.3-1.6,0.6c-24,16.3-45.4,35.6-63.7,58.2c-3.1,3.7-6.3,7.5-9.4,11.2c4.3-2.2,8-4.9,10.7-8.8c0,0,0,0,0,0
			c0.7-0.1,1.1-0.5,1.2-1.1c0.9-0.2,1.9-0.3,2.1-1.5c2.2-1.6,4.4-3.2,6.5-4.9c4.5-3.4,4.5-3.4,8.4,0.5
			c21.8,21.7,43.5,43.5,65.2,65.2c14,14.1,27.9,28.2,42,42.3c2.9,2.9,5.4,6.1,8.9,8.3c0.2-6.3-3-11.6-4.8-17.3
			c-8.9-27.8-18.4-55.4-27.3-83.2c-6-19.1-12.7-38-19-57c-1-3.1-2.3-6.1-2.1-9.4c1-0.8,2-0.7,3-0.7
			C235.9,950.1,271.4,950.1,306.9,950.2z"/>
	</g>
</g>
</svg>
