<?xml version="1.0" encoding="utf-8"?>
<!-- Generator: Adobe Illustrator 26.0.3, SVG Export Plug-In . SVG Version: 6.00 Build 0)  -->
<svg version="1.1" id="Camada_1" xmlns="http://www.w3.org/2000/svg" xmlns:xlink="http://www.w3.org/1999/xlink" x="0px" y="0px"
	 viewBox="0 0 1920 1920" style="enable-background:new 0 0 1920 1920;" xml:space="preserve">
<style type="text/css">
	.st0{fill:#FBD51C;}
	.st1{fill:#16437A;}
	.st2{fill:#1A9A47;}
</style>
<g>
	<g>
		<path class="st0" d="M159.9,888.5c-0.9-0.4-1.4,0.3-2,0.8c-9.3,7.9-17.4,16.7-21.4,28.7c-1.4,4.2-2.8,8.3-3.6,12.6
			c-0.2,1-0.5,2-1.1,2.7c-0.9,1.1-2.2,1.2-2.4-0.4c-0.3-2.5-1.6-4.6-2.2-6.9c-0.8-3.1,1.3-5.6,2.4-8.1c2.7-6.5,5.1-13.1,8.9-19.1
			c6.1-9.7,14.6-16.7,24.4-22.5c6.8-4,13.9-7.6,21.1-10.7c6.5-2.8,13.3-5.2,20.3-6.7c3.2-0.7,6.3-1.7,9.5-2.4
			c9-1.9,18.1-2.9,27.2-3.9c9.3-1,18.5-1.2,27.8-1c1,0,1.9-0.3,2.9-0.5c5.8,0.5,11.4,2.6,17.3,1.7c11,0.9,22,2.4,32.7,4.7
			c12.1,2.6,24.1,5.8,35.6,10.7c10.2,4.3,19.6,9.7,28.2,16.4c3.7,2.9,6.9,6.3,10.3,9.6c0.7,0.7,1.4,1.1,2.3,1.2
			c-0.2,1,0.2,1.6,1.3,1.6c0.4,2.8,3.2,4.3,4.1,6.9c0.4,1.2,1.5,1.4,2.7,1.4c-0.1,1.1,0.8,1.6,1.3,2.2c2.2,4.9,4.8,9.5,6.8,14.6
			c2.4,6.2,4.2,12.5,4.8,19c0.5,5.7,0.1,11.5,0,17.3c0,1.8-0.5,2-2.1,1c-1.9-1.1-2.1-3.1-2.9-4.7c-5.1-9.5-13.2-16.1-21.3-22.8
			c-11.9-10-25.3-17.9-38.4-26c-8.9-5.5-18.3-10.3-28-14.6c-11-5-22.5-8.5-33.8-12.5c-1.2-0.4-2.4-0.4-3.6-0.2
			c-2.9-3.7-7.7-2.6-11.5-4.3c-1.5-0.7-3.7-1.4-5.7-0.3c-2.1-2.4-5.3-1.1-7.8-2.1c-5.5-2.1-11.5-2.5-17.2-3c-10.2-1-20.5-1.5-30.8-1
			c-4.7,0.2-9.6,0.1-14.2,1.2c-5.9,1.4-11.9,2.9-17.6,5.2c-7.8,3.1-15.1,6.9-22.1,11.4C161.2,886.6,160.8,889,159.9,888.5z"/>
		<path class="st1" d="M1131.5,908.6c0-24.4,0-48.8,0-73.2c0-4.9,0.1-5,5-5c8,0,16,0.1,24-0.1c2.8-0.1,3.8,1,3.8,3.7
			c-0.1,4.5,0,9.1,0,13.6c0,44.7,0,89.3,0,134c0,5,0,5-5.2,5c-7.7,0-15.3,0-23,0c-4.6,0-4.6-0.1-4.6-4.6
			C1131.5,957.6,1131.5,933.1,1131.5,908.6z"/>
		<path class="st1" d="M895.8,1096c0,7,0,14,0,21c0,1.7,0.8,4.2-1.4,4.6c-2.7,0.5-5.9,1.4-8-1.5c-3.1-4.4-6-9-9-13.6
			c-3.7-5.6-7.4-11.3-11.1-16.9c-0.5-0.7-0.7-1.9-1.8-1.6c-1.2,0.3-0.9,1.6-0.9,2.6c0,9-0.1,18,0,26.9c0,2.8-0.6,4.4-3.8,4.4
			c-3.3,0.1-3.9-1.5-3.9-4.3c0.1-14.4,0-28.8,0.1-43.3c0-1.6-0.9-3.8,1.9-4.3c2.7-0.4,5.7-1.1,7.5,1.7c6.3,9.6,12.4,19.4,18.5,29.1
			c0.2,0.3,0.4,0.6,0.6,0.8c0.6,0.6,0.8,1.9,1.9,1.6c1.3-0.3,0.9-1.6,0.9-2.5c0-9,0.2-18-0.1-26.9c-0.1-3.4,1.9-3.9,4.3-4
			c2.4-0.1,4.4,0.3,4.3,3.8C895.6,1081.1,895.8,1088.5,895.8,1096z"/>
		<path class="st2" d="M289.2,853c-5.9,0.9-11.5-1.1-17.3-1.7c0-20.8,0-41.6-0.1-62.4c0-2.1,0.7-3,2.9-2.9c3.7,0.1,7.3,0.2,11,0
			c2.7-0.1,3.6,0.8,3.6,3.6c-0.1,20.4-0.1,40.7-0.1,61.1C289.2,851.4,289.2,852.2,289.2,853z"/>
		<path class="st1" d="M1322.6,1104c0,5.5,0.2,11.1,0,16.6c-0.2,5.7-7.5,13-13.3,13.3c-4.8,0.2-9.5,0.1-14.3,0
			c-1.8-0.1-3.9-0.1-4-2.9c-0.1-4,1.6-5.2,5.3-3.4c3.4,1.6,6.9,2.2,10.6,1.2c4.2-1,7.5-5.6,7.1-10c-0.2-2-1-1.8-2.4-0.9
			c-9.9,6.4-20.8,1.6-23.3-10c-1.3-6.1-0.7-11.6,2.2-17c4.1-7.7,12.4-10.5,20.4-7c1.6,0.7,2.6,0.6,4.2-0.3c4.6-2.6,7.9-0.5,7.9,4.7
			c0,5.2,0,10.4,0,15.6C1322.9,1104,1322.8,1104,1322.6,1104z M1314,1099.8c-0.3-1.9,1.2-5.1-0.7-7c-4.4-4.5-11.7-6-15.2,1.6
			c-2.2,4.7-2.5,9.5-0.4,14.4c1.7,4.1,4.9,5.9,9,4.2C1313.1,1110.3,1314.7,1109.1,1314,1099.8z"/>
		<path class="st1" d="M670.1,1103.4c0,5.7,0.1,11.3,0,16.9c-0.2,8.8-7.6,14.5-14.7,13.7c-3.8-0.4-7.8,0-11.6-0.2
			c-3.3-0.2-5.1-3.3-3.6-6.2c1-1.8,2.5-0.7,3.8-0.2c3.8,1.4,7.6,2.4,11.6,1.3c3.7-1,6.8-5.9,6.1-9.6c-0.4-2.2-1.7-1.5-2.9-0.7
			c-3.9,2.7-8.1,2.5-12.4,1.5c-5.3-1.3-8.2-5.2-9.5-10.1c-2.2-8.6-1.8-16.8,5-23.4c4.5-4.3,10-5,15.8-3c2,0.7,3.5,1.6,5.9-0.2
			c3.2-2.4,6.8,0.1,6.8,4.1c0,5.3,0,10.6,0,16C670.3,1103.4,670.2,1103.4,670.1,1103.4z M662.2,1100.6c-0.4-2.6,1.1-5.6-0.9-7.9
			c-4.2-4.8-12.3-5.5-15.4,1.8c-1.8,4.4-1.8,8.9-0.6,13.3c1.4,5.2,6,7,11,4.7C661.5,1110.2,663.3,1106.2,662.2,1100.6z"/>
		<path class="st1" d="M632,1121.8c-4.6,0-5.4-0.7-7.2-6.4c-2.5-7.8-2.5-7.8-10.4-7.8c-3.1,0-6.2,0.1-9.3,0
			c-1.8-0.1-2.8,0.5-3.4,2.3c-1.3,3.4-2.9,6.6-4.4,9.9c-0.8,1.8-5.1,3.1-7.1,2c-2.2-1.2-1.1-3.1-0.5-4.7
			c5.2-15.1,12.6-29.3,17.8-44.5c0.8-2.3,2.5-2.7,4.5-2.5c2.2,0.2,5-1,6.3,2.2c4.8,12.7,9.7,25.3,14.6,38c0.9,2.3,1.8,4.5,2.6,6.8
			C636.9,1121.4,636.6,1121.8,632,1121.8z M612.7,1083.7c-0.3,0-0.6,0.1-0.9,0.1c-2,5-4,10-6,15c-0.4,1.1-1.1,2.5,1.1,2.5
			c3.5,0,7.1,0,10.6,0c1.1,0,2.1-0.3,1.5-1.8C616.9,1094.2,614.8,1089,612.7,1083.7z"/>
		<path class="st1" d="M1167.9,1094.1c0,7.9,0,15.7,0,23.6c0,1.5,0.3,3.6-1.6,3.9c-2.2,0.3-5.1,1.4-6.6-1.3
			c-0.9-1.6-1.7-1.3-2.9-0.6c-11.7,6.5-22.9,0-23.3-13.4c-0.2-5.5,0.1-10.8,3-15.7c4.1-7.1,11.7-9.9,19.3-6.9
			c3.7,1.5,3.7,1.5,3.7-2.6c0-3.4,0-6.9,0-10.3c0-4,0.5-4.2,4.7-4.5c3.4-0.2,3.8,1.6,3.8,4.3
			C1167.8,1078.4,1167.9,1086.2,1167.9,1094.1z M1159.4,1101.6c0-1.8,0-3.5,0-5.3c0-3.8-1.8-5.7-6.9-7c-3.1-0.8-6.4,0.6-8,3.3
			c-3,5.4-2.8,11.2-1.6,16.8c1.2,5.5,5.7,7,10.9,4.6c3.8-1.8,6.3-4.3,5.6-9C1159.3,1103.8,1159.4,1102.7,1159.4,1101.6z"/>
		<path class="st1" d="M1511.6,1103.3c0,2.6,0.1,4.6,0,6.6c-0.1,3.1,0.1,5.8,3.5,7.4c2.2,1,1.7,3-0.1,4.1c-3.3,2-6.6,1.1-9.3-0.9
			c-2-1.5-3.3-1.2-5.3-0.2c-4.4,2.3-8.9,3.1-13.7,0.5c-6.8-3.7-7.9-12.2-2.2-17.5c3.9-3.7,8.8-4.5,13.8-5c1.4-0.1,3.7,0.7,3.8-2
			c0.1-2.6,0.1-5.1-2.8-6.5c-3.2-1.4-6.1,0.1-9.1,0.6c-0.8,0.1-1.4,0.6-2.2,0.7c-1.4,0.2-3.3,1.6-3.8-0.8c-0.4-1.9-0.9-4.4,1.8-5.4
			c6.8-2.5,13.6-4,20.6-0.4c2.3,1.1,3.5,2.8,4.2,5.2C1511.9,1094.3,1511.5,1099.1,1511.6,1103.3z M1502.1,1108.3
			c0-4.8-0.4-5.1-5.1-4.1c-1.9,0.4-3.6,1.1-5.1,2.3c-3.1,2.7-2.6,6.8,0.8,8.4C1497,1116.8,1502.1,1113.2,1502.1,1108.3z"/>
		<path class="st1" d="M1713.2,1103.3c0,2.6,0.1,4.6,0,6.6c-0.1,3.1,0.1,5.8,3.5,7.4c2.2,1,1.7,3-0.1,4.1c-3.3,2-6.6,1.1-9.3-0.9
			c-2-1.5-3.3-1.2-5.3-0.2c-4.4,2.3-8.9,3.1-13.7,0.5c-6.8-3.7-7.9-12.2-2.2-17.5c3.9-3.7,8.8-4.5,13.8-5c1.4-0.1,3.7,0.7,3.8-2
			c0.1-2.6,0.1-5.1-2.8-6.5c-3.2-1.4-6.1,0.1-9.1,0.6c-0.8,0.1-1.4,0.6-2.2,0.7c-1.4,0.2-3.3,1.6-3.8-0.8c-0.4-1.9-0.9-4.4,1.8-5.4
			c6.8-2.5,13.6-4,20.6-0.4c2.3,1.1,3.5,2.8,4.2,5.2C1713.5,1094.3,1713.1,1099.1,1713.2,1103.3z M1703.7,1108.3
			c0-4.8-0.4-5.1-5.1-4.1c-1.9,0.4-3.6,1.1-5.1,2.3c-3.1,2.7-2.6,6.8,0.8,8.4C1698.6,1116.8,1703.7,1113.2,1703.7,1108.3z"/>
		<path class="st1" d="M1787.8,1103.3c0,2.6,0.1,4.6,0,6.6c-0.1,3.1,0.1,5.8,3.5,7.4c2.2,1,1.7,3-0.1,4.1c-3.3,2-6.6,1.1-9.3-0.9
			c-2-1.5-3.3-1.2-5.3-0.2c-4.4,2.3-8.9,3.1-13.7,0.5c-6.8-3.7-7.9-12.2-2.2-17.5c3.9-3.7,8.8-4.5,13.8-5c1.4-0.1,3.7,0.7,3.8-2
			c0.1-2.6,0.1-5.1-2.8-6.5c-3.2-1.4-6.1,0.1-9.1,0.6c-0.8,0.1-1.4,0.6-2.2,0.7c-1.4,0.2-3.3,1.6-3.8-0.8c-0.4-1.9-0.9-4.4,1.8-5.4
			c6.8-2.5,13.6-4,20.6-0.4c2.3,1.1,3.5,2.8,4.2,5.2C1788.1,1094.3,1787.7,1099.1,1787.8,1103.3z M1778.3,1108.3
			c0-4.8-0.4-5.1-5.1-4.1c-1.9,0.4-3.6,1.1-5.1,2.3c-3.1,2.7-2.6,6.8,0.8,8.4C1773.2,1116.8,1778.3,1113.2,1778.3,1108.3z"/>
		<path class="st1" d="M1397,1102.4c0-5.1,0-10.2,0-15.3c0-2,0.2-3.7,2.5-3.9c2.3-0.2,5.2-1.4,6.3,1.9c0.8,2.3,1.6,1.4,2.8,0.6
			c3.1-2.1,6.4-3.4,10.3-3.1c5.9,0.5,9.8,4.6,10.1,10.4c0.3,8.4,0.1,16.8,0.1,25.3c0,3.3-2.2,3.7-4.7,3.7c-2.4,0-4.3-0.3-4.2-3.6
			c0.2-7.5,0.1-15.1,0-22.6c0-4.6-3.5-7-7.6-4.8c-3.9,2.1-6.9,4.9-6.7,10.1c0.3,5.6-0.1,11.3,0.1,17c0.1,3.1-1.3,4.1-4.2,4
			c-4-0.1-4.8-0.7-4.8-4.2C1396.9,1112.6,1396.9,1107.5,1397,1102.4C1396.9,1102.4,1396.9,1102.4,1397,1102.4z"/>
		<path class="st1" d="M1389.8,1102.3c0,2.7,0.1,5.3,0,8c-0.1,2.8,0.4,5.1,3.4,6.5c2.1,1,2,3.5-0.1,4.7c-3.1,1.8-6.2,0.8-8.7-1.1
			c-2.1-1.6-3.6-1.5-5.6-0.2c-2.7,1.6-5.6,2.5-8.9,2.2c-4.9-0.5-9.3-3.5-10.3-7.2c-1.4-5.4,0.6-10.6,5.2-13.6
			c3.7-2.5,7.9-2.7,12-3.2c1.6-0.2,3.9,0.7,4.1-2.1c0.1-2.7-0.2-5.4-3.3-6.5c-3.5-1.3-6.7,0.5-10.1,0.9c-0.4,0-0.8,0.5-1.2,0.5
			c-1.3,0.1-3.1,1.8-3.7-0.2c-0.6-1.9-1.5-4.7,1.2-5.8c6.6-2.7,13.3-4,20.3-0.9c3.9,1.7,5.6,4.8,5.8,8.9
			C1389.9,1096.1,1389.8,1099.2,1389.8,1102.3z M1381.2,1108.8c0-5-0.6-5.5-5.2-4.9c-2.2,0.3-4.2,1.3-6.1,2.4
			c-2.9,1.8-3.3,5.5-0.8,7.4c2.6,2,5.6,1.8,8.5,0.5C1380.2,1113.3,1381.9,1111.6,1381.2,1108.8z"/>
		<path class="st1" d="M1090.6,1102.6c0,2.4,0.1,4.9,0,7.3c-0.1,2.8-0.2,5.6,3.4,6.6c1.3,0.4,1.6,1.8,1.4,3.1
			c-0.1,1.2-1,1.9-2.1,2.3c-3,1.1-5.9,0.2-8.1-1.8c-1.7-1.6-3-1.3-4.7-0.6c-1.4,0.6-2.8,1.2-4.3,1.8c-5.2,2.1-11.8,0-14.7-4.6
			c-2.5-4.1-1-10.8,3.3-14.4c4-3.4,8.8-3.9,13.7-4.3c1.4-0.1,3.5,0.6,3.7-1.7c0.3-2.2,0.3-4.3-2-5.8c-3.3-2.2-6.5-1.5-9.9-0.7
			c-1,0.2-1.9,0.7-2.8,0.9c-1.2,0.3-3,2-3.6-0.1c-0.6-1.9-1.5-4.7,1.2-5.9c6.1-2.6,12.5-3.7,19-1.2c4.4,1.7,6.2,5.1,6.4,9.6
			C1090.7,1096.4,1090.6,1099.5,1090.6,1102.6z M1082.5,1108.1c-0.5-1.4,1.1-3.9-2-4.2c-3.6-0.4-7.1,0.4-10,2.6
			c-2.7,2-2.4,6.7,0.6,8.2c3.5,1.7,6.6,0.1,9.7-1.4C1083,1112.1,1082.4,1110.1,1082.5,1108.1z"/>
		<path class="st1" d="M712.9,1102.3c0-5.1,0-10.2,0-15.3c0-1.7-0.3-3.9,2.3-4c2.2,0,5.2-1.1,6,2.4c0.6,2.5,1.7,1.3,2.8,0.5
			c4.4-3.2,8.9-4.6,14.2-2.2c4,1.8,5.9,5.2,6,9.2c0.3,8.6,0.1,17.3,0.1,25.9c0,3.2-2.2,3-4.3,3.1c-2.4,0.1-4.2-0.3-4.2-3.3
			c0.1-7.3,0-14.6,0-21.9c0-6.3-3.5-8.5-9-5.2c-3.4,2-5.9,4.8-5.7,9.3c0.2,5.6-0.1,11.3,0.1,16.9c0.1,3.3-1.3,4.2-4.3,4.2
			c-3,0.1-4.2-1-4.1-4C713,1112.7,712.9,1107.5,712.9,1102.3z"/>
		<path class="st1" d="M1194,1104.3c-2.7,0-5.3,0.1-8,0c-2.7-0.1-3.2,1.2-2.8,3.5c0.8,4.5,5.6,8.5,10.4,8.1c2.6-0.2,5.2-0.8,7.8-1.5
			c1.6-0.5,3.2-1.2,3.7,1c0.5,2.1,0.7,4.5-1.9,5.3c-11.2,3.1-18.9,3-26.4-6.2c-4.9-6-5.1-13.5-2.1-20.8c2.9-7.1,9-11.3,16.3-11.2
			c6.2,0,10.4,2.8,12.7,8.7c1.3,3.2,1.8,6.6,1.7,10.1c-0.1,2.1-1,3-3.1,3C1199.5,1104.3,1196.7,1104.3,1194,1104.3z M1189.6,1097.7
			c1.8,0,3.5-0.1,5.3,0c1.6,0.1,2.2-0.7,2-2.2c-0.2-2.9-3.2-5.9-6.3-6.4c-2.6-0.4-5.7,1.4-7,4c-1.9,4.1-1.6,4.6,3,4.6
			C1187.6,1097.7,1188.6,1097.7,1189.6,1097.7z"/>
		<path class="st1" d="M1024.6,1102.5c0-5.4,0-10.9,0-16.3c0-1.7,0.5-3.2,2.5-3.2c1.9,0.1,4.6-1.2,5.4,1.7c0.8,3,1.9,2.1,3.6,0.9
			c5.2-3.8,10.6-4.1,15.2-1.2c3.5,2.3,4.6,5.8,4.6,9.8c0.1,8-0.1,16,0.1,24c0.1,3.3-1.7,3.8-4.4,3.8c-2.6,0-4.1-0.6-4-3.7
			c0.2-7.6,0.1-15.3,0-23c0-4-1.9-5.6-5.8-5c-5,0.8-9,5.4-9,10.4c0,5.8-0.1,11.5,0,17.3c0.1,2.9-1,3.9-3.9,3.9
			c-2.8,0-4.4-0.5-4.3-3.8C1024.7,1112.9,1024.6,1107.7,1024.6,1102.5C1024.6,1102.5,1024.6,1102.5,1024.6,1102.5z"/>
		<path class="st1" d="M695.2,1104.3c-3,0-6,0-9,0c-2.1,0-2.7,0.8-2.2,2.9c1.7,6.5,6.7,8.9,12.4,8.7c2.3-0.1,4.6-0.8,6.8-1.4
			c1.3-0.3,2.8-1.8,3.4,0.6c0.4,1.8,1.1,4.4-1.3,5.3c-7.8,2.7-15.9,3.7-22.9-1.6c-6.8-5-9.2-12.6-7.5-20.7c1.9-8.7,6-16.3,18.4-15.6
			c6.8,0.4,11.4,4.5,13.1,11.9c2,8.6,1,9.9-7.6,9.9C697.7,1104.3,696.5,1104.3,695.2,1104.3z M691,1097.7
			C691,1097.7,691,1097.7,691,1097.7c1.9,0,3.8,0,5.6,0c1.9,0,2.5-0.8,2.2-2.7c-0.6-3.4-2.9-5.5-6.9-5.9c-3.2-0.3-5.5,1.3-6.9,4.1
			c-1.9,3.9-1.5,4.5,2.8,4.5C688.8,1097.7,689.9,1097.7,691,1097.7z"/>
		<path class="st1" d="M1001.5,1082.5c13.4-0.4,18.9,10.7,17.9,22.5c-0.4,4.9-1.8,9.4-5.7,13c-7.9,7.1-21.1,5.5-27.1-3.2
			c-4.3-6.2-5.1-12.9-2.6-19.5C986.6,1088,991.5,1082.2,1001.5,1082.5z M992.1,1102.4c0,1.4-0.1,2.9,0,4.3c0.6,5,3.9,8.6,8.4,9.4
			c3.2,0.5,7.5-1.7,8.9-5.1c2.2-5.5,2.3-11.3,0-16.8c-1.4-3.5-4.7-5.2-8.2-5.1c-3.5,0.2-6.4,1.9-7.9,5.5
			C992.2,1097.2,991.8,1099.7,992.1,1102.4z"/>
		<path class="st1" d="M826.3,1102.2c0,3.1,0,6.2,0,9.3c0,2.3,0.6,4.2,3.2,4.7c1.6,0.4,2,1.5,2.1,3c0.1,1.7-1,2.3-2.4,2.7
			c-3,1-5.9,0.3-8-1.9c-1.8-1.8-3-1.5-4.8-0.4c-4,2.4-8.2,3.8-12.9,1.5c-7-3.4-8.6-11.5-3.3-17.4c3.8-4.2,8.8-5.2,14.1-5.6
			c1.5-0.1,3.6,0.5,3.7-2.1c0-2.5,0.5-5.2-2.9-6.2c-3.9-1.2-7.4-0.1-11,1.1c-1,0.3-2.3,2.1-3.4,0.1c-1-1.7-0.3-5.7,1.2-6.3
			c6-2.2,12.1-3.6,18.4-1c4.1,1.7,5.9,4.8,6,9.1C826.4,1096,826.3,1099.1,826.3,1102.2C826.3,1102.2,826.3,1102.2,826.3,1102.2z
			 M818.1,1108.9c0-5.3-0.6-5.8-5.4-4.9c-1.8,0.3-3.4,0.9-4.9,1.9c-3.1,2-3.5,5-1.3,7.6c2.3,2.7,5.3,2,8,1.1
			C817.3,1113.7,818.9,1111.7,818.1,1108.9z"/>
		<path class="st1" d="M929.9,1102.7c0,2.2,0.1,4.4,0,6.6c-0.1,3.1-0.1,6,3.6,7.3c1.2,0.4,1.8,1.7,1.5,3.1c-0.3,1.3-1.3,2-2.5,2.4
			c-3.1,0.9-5.9,0.1-7.9-2.2c-1.3-1.5-2.2-1.4-3.6-0.6c-1.6,0.9-3.4,1.7-5.1,2.4c-4.9,1.8-10.8-0.2-13.8-4.5
			c-2.3-3.4-1.4-10,1.8-13.5c3.7-4.1,8.7-4.9,13.9-5.4c1.6-0.2,3.9,0.9,4-2.1c0.2-2.6,0.1-5.1-3-6.3c-3.7-1.5-6.9,0.2-10.3,0.8
			c-1.4,0.3-3.1,3-4.4,0c-1.2-2.9,0-5.6,2.7-6.4c5.4-1.7,10.8-2.7,16.3-0.8c4.4,1.5,6.5,4.8,6.7,9.3c0.1,3.3,0,6.6,0,10
			C929.8,1102.7,929.9,1102.7,929.9,1102.7z M921.8,1108.5c0-4.8-0.6-5.4-5.4-4.5c-2.1,0.4-4.1,1.1-5.7,2.4c-2.9,2.3-2.6,6.3,0.5,8
			C916.1,1117.1,921.8,1113.8,921.8,1108.5z"/>
		<path class="st1" d="M1452.5,1082.5c2.8,0,5.6,0.1,8.2,1.1c2,0.8,3.4,2.1,2.6,4.6c-0.8,2.4-2.5,2.4-4.5,2
			c-2.4-0.4-4.7-1.3-7.2-0.9c-5.9,0.9-7.8,5.2-8.7,12.8c-0.4,3.2,0.9,6.2,2.4,8.9c2.3,4.3,7.4,5.6,13.2,3.6c2.1-0.7,4.2-1.8,5.1,1.2
			c0.9,2.8-0.3,4.2-3.6,5.1c-4.7,1.3-9.3,2.2-14,0.6c-10.6-3.5-13.4-11.4-12.9-21.3c0.1-3,0.7-5.9,2.1-8.6
			C1438.8,1084.4,1445.1,1082.4,1452.5,1082.5z"/>
		<path class="st1" d="M748.7,1102.1c0.9-16.3,11.7-22.3,26.9-18.7c3.4,0.8,2.2,3.5,2,5.4c-0.2,2.6-2.2,1.4-3.6,1.2
			c-1.3-0.2-2.6-0.5-3.9-0.7c-3.8-0.5-7.1,0.4-9.3,3.7c-2.4,3.7-3.6,7.8-2.6,12.3c1.9,8.7,8,12.1,16.4,9.1c1.5-0.6,3.2-1.8,4.2,0.5
			c1,2.4-0.2,5-2.4,5.7c-4.8,1.4-9.7,2.7-14.7,0.9C753.5,1118.8,748.7,1111.5,748.7,1102.1z"/>
		<path class="st1" d="M954.8,1082.5c2.1,0.1,4.6,0,7.1,1c1.7,0.6,2.4,1.7,2.4,3.5c0,2.8-0.9,3.8-3.8,3.2c-2.5-0.4-4.9-1.4-7.5-0.9
			c-7,1.2-8.9,7.7-8.7,14.1c0.1,2.7,0.7,5.5,2.4,7.8c3.2,4.3,8.1,5.4,14,3.2c1.3-0.5,3-1.6,3.6,0.4c0.6,1.9,1.3,4.6-1.3,5.5
			c-6.2,2.4-12.5,3.2-18.6-0.2c-6.9-3.9-10.5-12.2-9.2-21.2C936.8,1087.9,943.2,1082.4,954.8,1082.5z"/>
		<path class="st1" d="M1346.1,1093.9c0-7.9,0.2-15.7-0.1-23.6c-0.1-4,2.2-3.9,4.9-4c2.8-0.1,4.3,1,4.3,4.1c-0.1,15.7,0,31.4,0,47.1
			c0,3.4-1.1,4.2-4.7,4.4c-3,0.1-4.4-0.7-4.3-4.1C1346.2,1109.8,1346.1,1101.8,1346.1,1093.9z"/>
		<path class="st1" d="M1098.3,1094c0-8,0.1-16-0.1-23.9c-0.1-3.4,1.7-3.7,4.4-3.8c2.8-0.1,4,0.9,4,3.8c-0.1,16-0.1,31.9,0,47.9
			c0,3-1.1,4.1-4.2,4c-2.9-0.1-4.3-0.9-4.2-4C1098.4,1109.9,1098.3,1102,1098.3,1094z"/>
		<path class="st1" d="M1663.9,1077.6c0.3-0.2,0.5-0.4,0.8-0.6c1-0.1,2-0.1,3-0.3c4.1-0.7,4.7-0.2,5,4c0.1,1.9,1,2.8,2.9,2.9
			c1.7,0.1,3.3-0.3,4.9,0.4c0.9,0.4,1.9,0.7,2.1,1.9c0.2,1.3-0.5,2.1-1.5,2.8c-1.7,1.2-3.6,0.8-5.5,0.9c-1.6,0.1-2.9,0.2-2.9,2.3
			c0,6.5-0.1,13.1,0.1,19.6c0.1,2.6,1.5,4.6,4.5,4.7c2,0.1,4.5,0.1,4.6,2.6c0.1,2.6-2.6,2.5-4.5,3c-0.6,0.2-1.3,0.1-2,0.1
			c-5.3,0.1-8.9-2.6-11.4-7c-0.1-0.8-0.2-1.7-0.3-2.5c0.1-6.4,0.1-12.8,0.2-19.2c0-2.1-0.2-3.5-2.7-4.2c-1.8-0.5-2.2-4.4-0.6-4.7
			C1665.1,1083.4,1663.8,1080.2,1663.9,1077.6z"/>
		<path class="st1" d="M1467.9,1102.5c0-5.3,0.1-10.6,0-15.9c-0.1-3.5,2.4-3.5,4.7-3.6c2.5-0.2,4.9,0.3,4.9,3.5
			c0.1,10.7,0.1,21.5,0,32.2c0,3.3-2.7,3.2-5.1,3.2c-2.3,0-4.5-0.1-4.5-3.4C1468,1113.1,1467.9,1107.8,1467.9,1102.5z"/>
		<path class="st1" d="M1283.2,1102.6c0,5,0,10,0,14.9c0,3.5-1,4.4-4.7,4.3c-3.9-0.1-4.9-0.9-4.9-4.5c0-10,0-19.9,0-29.9
			c0-3.3,1.6-4.6,5.4-4.6c3.3,0,4.2,0.9,4.2,4.4C1283.2,1092.4,1283.2,1097.5,1283.2,1102.6z"/>
		<path class="st1" d="M969.4,1102.3c0-5.2,0.1-10.4,0-15.6c-0.1-3.1,1.3-4,4.3-3.9c2.8,0.1,4.4,0.6,4.4,3.8
			c-0.1,10.5-0.1,21,0,31.5c0,3.1-1.5,3.7-4.2,3.7c-2.7,0-4.5-0.3-4.5-3.7C969.5,1112.9,969.4,1107.6,969.4,1102.3z"/>
		<path class="st1" d="M1743.8,1091c0.1-0.9,0.1-1.8,0.2-2.6c0.2-1.4-0.9-3.3,1.1-4.1c2.5-1,5-1,7.3,0.4c1.2,0.7,0.8,1.9,0.8,3
			c0,9.6,0,19.2,0,28.8c0,4.1-1.6,5.4-5.8,4.6c-1.2-0.2-2.3-0.6-3.5-0.9C1743.9,1110.5,1743.8,1100.8,1743.8,1091z"/>
		<path class="st1" d="M1330,1102.5c0-5.3,0.1-10.6-0.1-16c-0.1-3.2,1.9-3.2,4.1-3.4c2.3-0.2,3.9,0.4,3.9,3.1c0,10.7,0,21.5,0,32.2
			c0,2.7-1.5,3.4-3.8,3.3c-2.2-0.1-4.2-0.2-4.1-3.4C1330.1,1113.1,1330,1107.8,1330,1102.5z"/>
		<path class="st1" d="M692.7,1066.3c3-0.7,5.1,0.8,6.8,3.6c1.1,1.8,2.6,3.3,3.9,4.9c0.6,0.7,1,1.5,0.5,2.4c-0.4,1-1.4,0.9-2.2,1.1
			c-3.7,0.9-5.4-2.3-7.5-4c-2-1.7-2.9-1.2-4.2,0.5c-1.8,2.2-3.6,4.1-6.9,3.6c-2.4-0.4-2.9-1.5-1.8-3.3c1.6-2.5,3.3-4.9,5.2-7.2
			C688,1066,690.2,1066.2,692.7,1066.3z"/>
		<path class="st1" d="M1705.5,1066.3c1.3,0.2,3.1-0.6,3.9,1c0.8,1.7-1,2.5-1.9,3.5c-1.7,1.9-3.4,3.7-5.3,5.5
			c-0.7,0.7-1.6,1.4-2.5,1.6c-2.1,0.6-4.7,1.3-6.1-0.7c-1.2-1.6,1.3-2.6,2-4c0.6-1.1,1.7-2,2.3-3.2
			C1699.6,1067,1702.2,1066,1705.5,1066.3z"/>
		<path class="st1" d="M1370.3,1068.8c5.3-3.6,9.2-2.9,12.8,2.3c0.8,1.1,1.5,2.2,2.4,3.2c0.6,0.7,1.3,1.3,0.7,2.3
			c-0.5,0.8-1.4,1-2.4,1c-2.2-0.1-3.9-0.8-5.4-2.7c-2.4-3.2-3.1-3.1-5.4-0.1c-1.5,2-3.4,2.7-5.7,2.8c-2.4,0.1-3.6-0.8-2.3-3.3l0,0
			C1368.8,1070.6,1367.2,1072.2,1370.3,1068.8z"/>
		<path class="st1" d="M1646,1074.1c0-3.7,0.9-4.3,6.2-4.4c2.7,0,4.5,0.6,4.4,3.9c-0.1,3.4-1.5,4.7-5.3,4.7
			C1646.7,1078.3,1646,1077.8,1646,1074.1z"/>
		<path class="st1" d="M1743.8,1073.8c0-3.4,1.1-4.1,6.4-4.1c2.7,0,3.7,1.2,3.6,3.8c-0.1,3.7-1.1,4.8-5,4.7
			C1744.4,1078.3,1743.8,1077.7,1743.8,1073.8z"/>
		<path class="st1" d="M1472.4,1078.3c-4,0-4.6-0.6-4.5-4.6c0-3.3,1-3.9,5.6-3.9c3-0.1,4.3,1.1,4.1,4.2
			C1477.3,1077.2,1476.2,1078.4,1472.4,1078.3z"/>
		<path class="st1" d="M973.6,1078.4c-3.8,0-4-0.4-4.2-4.6c-0.2-3.5,1.5-4.1,4.4-4.1c2.7,0.1,4.5,0.5,4.3,3.9
			C977.8,1077.8,977.5,1078.4,973.6,1078.4z"/>
		<path class="st1" d="M787.1,1078.4c-3.4,0.6-3.6-1.8-3.8-4.5c-0.2-3,1.1-4.2,4.1-4.2c2.7,0.1,4.4,0.8,4.3,4
			C791.5,1077.6,791,1078.3,787.1,1078.4z"/>
		<path class="st1" d="M1330,1074c0-3.7,0.6-4.2,4.7-4.3c2.8-0.1,3.6,1.4,3.6,3.9c-0.1,3.5-1,4.7-4,4.7
			C1330.4,1078.4,1330,1077.9,1330,1074z"/>
		<path class="st1" d="M1315.8,932.5c-2.2-7.4-5.3-14-10.7-19.3c-8.2-8-17.8-14.4-27.9-19.5c-9.6-4.8-19-9.9-27.5-16.4
			c-5-3.8-8-12.3-5.4-16.8c3.9-6.8,10-10.3,17.8-10.6c9-0.4,17.7,0.7,26.3,3.7c4.2,1.5,8.7,2.1,12.9,3.9c2.9,1.2,4.9,0.1,5-2.7
			c0.1-6.9,0.1-13.7,0-20.6c0-1.9-0.8-3.6-2.9-4c-8.1-1.4-16.2-3.1-24.4-4c-7.8-0.9-15.7-1-23.6-0.7c-5.2,0.2-10.3,1.2-15.2,2.8
			c-4.9,1.6-9.6,3.9-14,7c-7.9,5.5-13.1,13-16,21.8c-1.9,5.6-2.8,11.8-1.6,17.9c1.1,6.2,2.9,12.2,6.3,17.3
			c6.2,9.2,15.2,15.5,24.5,21.3c10.6,6.6,22.1,11.6,32.2,19c7.4,5.4,9.4,11.3,7.9,19.5c-0.6,3.3-2.3,6.4-5.4,8.7
			c-4.4,3.3-9,5-14.4,5.6c-7.8,0.8-15.6,0.3-23.2-0.8c-6.9-1-13.7-3.6-20.1-6.8c-1.4-0.7-2.9-1.2-4.4-1.4c-1.8-0.3-3.4-0.2-3.4,2.3
			c0,7.8,0,15.5,0,23.3c0,2.2,1.1,3.7,3.5,4c6.6,1,13.2,2.4,19.9,3.2c3,0.4,6.1,0.8,9.2-0.3c2,0,3.9,0.1,5.9,0.1
			c2.9,3.9,7,1.8,10.6,2.3c1.7,0.2,2.9-0.6,3.5-2.3c1.8,0,3.5-0.1,5.3-0.1c0.6,0.7,1.4,0.5,2.2,0.5c7.7-0.1,14.9-2,21.9-5.3
			c14.6-6.9,23-18.7,26.4-34.1C1318.2,944.9,1317.6,938.8,1315.8,932.5z"/>
		<g>
			<path class="st0" d="M268.4,1125.9c0,0.4-0.2,0.9,0,1.2c0.3,0.4,0.8,0.2,0.9-0.4C269.3,1126.2,268.9,1126,268.4,1125.9z"/>
			<path class="st0" d="M541.2,989.5c0.7-1.2,0.6-2.7,0.1-3.8c-0.8-1.5-2-2.8-1.8-4.8c0.2-1.8-1-3.4-2.5-3.2c-2,0.2-2.2,2-1.5,3.8
				c-0.1,0.8-0.2,1.7-0.3,2.5c-0.2,0.1-0.4,0.2-0.5,0.4c-2.3,5.4-2.7,11.5-5.5,16.7c-1.4,2.6-1.5,6.2-5.1,7.2
				c-0.4,0.9-0.3,1.8,0,2.7c-3.6,5.3-6.8,10.9-12.8,14c-2.8,4.3-7.5,6.2-11.8,8.6c-6.9,3.8-13.9,7.4-21.5,9.6
				c-7,2.1-14.3,3.7-21.7,4.3c-14.5,1.2-28.9,0-43.3-2.2c-4.7-0.8-9.4-1.6-14.1-2.5c0,0,0,0,0,0c-0.9-1.2-2.8-0.4-3.5-2
				c-3.4-0.6-6.8-1.2-10-2.5c-1.2-0.5-2.2-1-3.4-0.3c-0.8-0.1-1.7-0.2-2.5-0.3c-0.9-2.5-2.9-2.2-5-1.9c-0.6-0.1-1.2-0.2-1.8-0.2h0
				c-0.9-2.1-2.5-2.2-4.3-1.7h0c-0.6-0.1-1.1-0.2-1.7-0.3h0c-1-1.6-2.2-2.4-4.1-1.5c-0.6-0.1-1.2-0.2-1.9-0.3
				c-0.4-2.1-2-1.8-3.5-1.7c-0.6-0.1-1.2-0.2-1.9-0.3c-1.8-0.3-3.6-0.9-5.2-1.6c1.7,0.7,3.4,1.3,5.2,1.6c0-1.2-0.9-2.1-1.8-2
				c-2.6,0.4-4.1-1.9-6.3-2.2c-1.3-0.2-2.1-1.8-3.6-1.1c-0.5-0.1-1.1-0.2-1.6-0.3c-0.6-1.6-1.8-2.2-3.5-1.8
				c-0.4-0.1-0.8-0.2-1.2-0.4c0.1-1.7-1.4-1.9-2.4-2.2c-2.8-1-5.4-2.4-8-3.9c-3.2-1.8-6.1-4.1-9.8-4.8c-0.4-0.1-0.7-0.3-1.1-0.4
				c-3.4-4-8.3-5.4-12.8-7.6c-0.4-0.2-0.7-0.3-1.1-0.5c-1.7-2.5-3.9-4.2-7-4.8l0,0c-0.4-0.2-0.7-0.3-1.1-0.5
				c0.2-0.8-0.3-1.4-0.8-1.7c-3.1-1.6-5.7-4-8.5-6c-12.5-8.5-24.2-17.6-31.4-31.4c-0.8-1.5-1.4-4.3-3.6-3.6c-2.2,0.8-1,3.4-0.9,5.3
				c0,3,0,6,0,9c0.6,2.5,1.5,5,1.8,7.5c0.9,9.8,4.7,18.6,9,27.3c0.2,0.4,0,0.9,0.1,1.3c7.6,10,15.1,20.1,25.4,27.6
				c3.6,1.2,6.3,3.9,9.4,5.8c7.4,4.6,15.4,7.5,23.5,10.5c6.1,2.2,12.3,3.6,18.5,5.5c1,0.3,2.2,0.2,3.3,0.4c1.6,0.3,3.4,0,4.3,1.8
				c1.1,0.1,2.1,0.3,3.2,0.4c2,3,4.9,1.9,7.6,1.8c0.8,0.1,1.6,0.1,2.4,0.2c1.9,1.7,4.2,1.9,6.6,2c2.9,0.1,5.8,0.6,8.8,1
				c4.4,0.6,8.8,1.5,13.3,0.5c2.4,0,4.8-0.3,7.2,0.3c0.2,1.2,1.1,1.9,2.2,2.3c0.1-0.7,0.2-1.3,0.3-2c-0.2-0.2-0.4-0.3-0.7-0.4
				c0.2,0.1,0.4,0.2,0.7,0.4c4.3-0.9,8.5-1,12.7,0.2c6.1-0.3,12.2-1.1,18.3-0.5c1.5-0.1,3-0.2,4.6-0.2c3,0.9,6.1,0.6,9-0.3
				c4.5-1.3,9.7,0,13.7-3.3c0.6-0.1,1.1-0.1,1.7-0.2c2.2,0.2,4.5,1,5.7-1.8c0.8-0.1,1.7-0.3,2.5-0.4c0.5,0.6,1.3,0.5,1.9,0.3
				c6-2,12.2-3.6,17.9-6.2c9.9-4.5,19.8-8.9,28.8-15.2c7.1-5,12.9-11.1,17.7-18.3c3.7-5.8,6.3-12.2,8.8-18.5c0.8-2.1,3.2-4.3,2-7.2
				C541.2,991.2,541.2,990.3,541.2,989.5z"/>
			<path class="st0" d="M395.5,1127.1c0.3,0.4,0.7,0.5,1-0.1c-0.2-0.2-0.5-0.5-0.7-0.7C395.4,1126.4,395.3,1126.8,395.5,1127.1z"/>
		</g>
		<g>
			<path class="st2" d="M259.8,1005.4c7.6,10,15.1,20.1,25.4,27.6c-0.1,1.9-0.3,3.7-0.3,5.6c0,27.6,0,55.3,0,82.9
				c0,2.2-0.1,4.1-2.4,5.2c-4.4,0-8.9,0-13.3,0c-0.1-0.6-0.5-0.8-1-0.8c-0.1-1.5-0.2-3.1-0.2-4.6c0-30.7,0-61.3,0-92
				c0-1.4-0.1-2.9-0.1-4.3c0.5-3.1-1.8-2.5-3.4-2.5c-28.1,0-56.1,0-84.2,0c-6.3,0-12.7-0.1-19,0.1c-2.5,0.1-3.3-0.8-3.2-3.3
				c0.2-3.1,0-6.2,0-9.3c0-4.4,0-4.4,4.3-4.4c30.8,0,61.7,0,92.5,0C256.7,1005.6,258.3,1005.5,259.8,1005.4z"/>
			<path class="st2" d="M524.2,1011.1c-3.6,5.3-6.8,10.9-12.8,14c-0.7,0-1.3-0.1-2-0.1c-30.9,0-61.8,0-92.7-0.1
				c-2.8,0-3.4,1.3-3.4,3.6c0,5.6,0,11.3-0.1,16.9c-4.7-0.8-9.4-1.6-14.1-2.4c-0.9-1.2-2.8-0.4-3.5-2c0.1-11.1,0.1-22.2,0.2-33.3
				c1.6-0.8,3.2-0.6,4.9-0.6c41,0,82,0,123,0c0.1,0.4,0.3,0.8,0.4,1.2C523.7,1009.2,523.8,1010.2,524.2,1011.1z"/>
			<path class="st2" d="M272,874.3c1.9-1.2,4.2-0.4,5.7,0.3c3.7,1.7,8.5,0.7,11.5,4.3c0,7.7,0,15.4,0,23.1c0,1.3,0.2,2.7-0.9,3.7
				c-1.5,0.6-3,0.4-4.6,0.4c-40.4,0-80.8,0-121.1,0.1c-0.4-0.7-0.8-1.5-1.3-2.3c0.4-5.3-0.6-10.5,0.6-15.8c1.4-0.1,2.9-0.3,4.3-0.3
				c19.6,0,39.2,0,58.8,0c14.5,0,29,0,43.5,0c2.5,0,3.6-0.6,3.5-3.4C271.8,881.2,272,877.8,272,874.3z"/>
			<path class="st2" d="M395.9,1063.7c4.3-0.9,8.5-1,12.7,0.2c3.5,0.4,4.6,2.2,4.5,5.9c-0.2,17.5-0.1,35-0.1,52.5
				c0,1.7,0,3.3-1.2,4.7c-5.1,0-10.3,0-15.4,0c-0.2-0.2-0.5-0.5-0.7-0.7c0-18.7,0-37.5-0.1-56.2c0-1.4-0.1-2.9-0.1-4.3
				C395.7,1065.1,395.8,1064.4,395.9,1063.7z"/>
			<path class="st2" d="M399.6,897.3c0-1.6,0.1-3.1,0.1-4.7c0-33.8,0-67.6,0-101.5c0-4.8,0-4.8,4.9-4.8c2.1,0,4.2,0,6.3,0
				c4.6,0,4.6,0,4.6,4.5c0,30.8,0,61.6,0,92.5c0,0.7,0.1,1.3,0,2c-0.3,2,0.9,2.8,2.7,2.9c1.1,0.1,2.2,0.1,3.3,0.1
				c33.4,0,66.8,0,100.2,0c4.6,0,4.6,0,4.6,4.6c0,2.7,0,5.3,0,8c0,4.4-0.1,4.5-4.4,4.5c-2.7,0-5.3,0-8,0c-34.4,0-68.8,0-103.2,0
				c-1.4,0-2.9,0.1-4.3,0.2c-1.2,0-2.3-0.2-2.7-1.4C402.8,901.6,400,900.2,399.6,897.3z"/>
		</g>
		<path class="st1" d="M1639.9,1093.6c-0.1-2.3,0.1-4.8-1.8-6.9c-4.4-4.7-10.7-5.7-16.9-2.4c-1.8,1-2.9,1.6-4.7-0.4
			c-1.9-2.1-4.8-1.1-7.2-0.4c-2.3,0.7-1.3,2.8-1.4,4.3c-0.1,4.1,0,8.2,0,12.3c0,0,0,0,0,0c0,4.8,0.1,9.5,0,14.3
			c-0.1,3.1-1,3.4-3.6,2c-2.3-1.1-3-2.7-3-5.2c0.1-6.5,0-13.1-0.1-19.6c0-3.5-1.9-5.7-4.9-7.3c-6.6-3.4-13.1-2-19.7,0
			c-2.9,0.9-4.2,3.4-2.8,6.2c1.2,2.5,3.3,0.8,5,0.2c3-0.9,6-1.9,9.1-1.3c2.8,0.5,4.1,2.8,4,6c-0.1,3.1-2.4,2.6-4.3,2.8
			c-5.6,0.5-11,1.7-14.8,6.4c-1.7,2.2-2.1,1.4-2.7-0.7c-1.4-4.2-4-7.3-8.2-9.4c-4.4-2.2-8.4-5.2-12.5-8.1c-2.3-1.7-3.4-4.2-2.5-7
			c0.9-2.8,3.2-3.6,6-3.8c3.2-0.2,6.1,0.7,9.1,1.8c3.1,1.1,5.3,0.2,5.9-2.2c0.6-2.3-1.1-4.9-3.8-5.6c-5-1.3-10.1-1.5-15.2-0.8
			c-6,0.8-10.1,4.6-11.7,10.4c-1.5,5.4,0.2,9.9,4.6,13.6c4.5,3.7,9.8,6,14.5,9.4c1.8,1.3,3,2.9,3.4,5.1c0.8,5.2-3.7,9.4-9.5,8.5
			c-2.5-0.4-5-0.8-7.3-2c-1.8-1-4.1-1.8-5.9-0.6c-1.7,1.1-0.4,6.6,1.6,7.4c6.1,2.4,12.5,2.4,18.7,1.3c4.6-0.8,9.6-2.2,11.7-7.6
			c0.6-1.6,1.7-1.2,2.1,0.3c0.8,2.9,2.7,4.7,5.3,6.1c4.9,2.5,9.7,2.1,14.3-0.6c1.7-1,2.8-0.9,4.5,0.1c3.5,2.2,7.3,3.3,11.2,0.5
			c1-0.7,1.7-0.1,2.7,0.4c5.4,2.6,8.7,0.4,8.7-5.4c0-5,0.2-10-0.1-15c-0.2-4,2.1-6.5,4.8-8.9c1.8-1.6,3.9-2.1,6.1-1
			c2.2,1,2.3,3,2.3,5.1c0,7.4,0.1,14.9-0.1,22.3c-0.1,3.9,2.5,3.5,4.9,3.6c2.5,0.1,4.7-0.2,4.7-3.6
			C1640,1110,1640.1,1101.8,1639.9,1093.6z M1592,1108c0,5-4.1,8.2-8.6,7.1c-3.3-0.8-4.6-5.3-2.2-8c2.4-2.7,5.6-3.5,9-3.2
			C1593.3,1104.2,1591.3,1107,1592,1108z"/>
		<path class="st1" d="M782.8,909c0-24.3,0-48.6,0-72.9c0-4.4,0-4.4,4.4-4.4c7.3,0,14.7,0.1,22,0c2.4,0,4.1,0.6,5.5,2.8
			c5.7,8.8,11.7,17.5,17.5,26.2c5.9,8.7,12,17.3,17.8,26.2c4.5,6.9,9.2,13.7,13.6,20.6c5.5,8.7,11.6,17.1,17.4,25.6
			c0.5,0.8,1,1.5,2.1,1.2c1.2-0.3,0.9-1.4,1-2.2c0.1-1.2,0-2.4,0-3.7c0-30.7,0-61.4,0-92.2c0-4.4,0.1-4.5,4.4-4.6
			c6.1,0,12.2,0.1,18.3,0c2.5-0.1,3.6,0.6,3.6,3.3c-0.1,49.3-0.1,98.7,0,148c0,2.2-0.6,3.2-3,3.1c-8-0.1-16-0.1-24,0
			c-1.4,0-2.7-0.1-3.5-1.4c-4.6-7.6-9.8-14.8-14.8-22.2c-9-13.5-17.9-27.1-26.9-40.6c-6.7-10.1-13.3-20.1-20-30.2
			c-1.9-2.8-3.8-5.6-5.6-8.4c-0.4-0.6-0.6-1.3-1.4-1.2c-1,0.1-1,1-1.1,1.8c-0.1,1.4-0.2,2.9-0.2,4.3c0,31.2,0,62.3,0,93.5
			c0,4.4,0,4.4-4.3,4.5c-6.2,0-12.4-0.2-18.6,0.1c-3.1,0.1-4.2-0.7-4.1-4C782.9,957.8,782.8,933.4,782.8,909z"/>
		<path class="st1" d="M1089.7,831.7c-4.9,0.1-9.8,0.2-14.6-0.1c-3.4-0.2-4.8,1.6-5.7,4.3c-0.3,0.8-0.3,1.8-0.6,2.6
			c-3.2,8.7-6.4,17.4-9.6,26.2c-2.1,5.9-4,11.8-6.1,17.6c-2.3,6.4-4.7,12.7-7,19.1c-2.2,6.1-4,12.2-6.4,18.2
			c-3.3,8.3-6.3,16.8-9,25.3c-0.5,1.5-1.5,2.7-2.3,4c-0.7,1.1-1.5,1.2-2.1-0.3c-2.4-6.9-5-13.8-7.7-20.6c-3.2-8-5.8-16.2-8.8-24.3
			c-1.5-4.1-3.5-8.1-4.8-12.4c-1.9-6.3-4.4-12.4-6.6-18.5c-1.4-4-2.9-7.9-4.6-11.8c-1.4-3.2-2.3-6.5-3.6-9.8
			c-1.6-4.2-3.2-8.5-4.6-12.8c-1.7-5.5-3.2-6.7-8.9-6.7c-3.8,0-7.5,0-11.3,0c-4.4,0-8.9,0-13.3,0c-1.9,0-3.4,0.5-2.1,2.7
			c2.2,3.8,3,8.2,4.7,12.2c3.2,7.8,5.2,16,8.5,23.8c3.2,7.7,5.5,15.7,8.8,23.3c4.6,10.5,7.3,21.7,12.5,32.1
			c3.4,6.9,5.6,14.4,7.9,21.8c1.8,5.8,4.5,11.3,6.3,17.2c1.9,6.3,4.6,12.3,6.7,18.6c0.7,2.1,1.8,2.8,3.8,2.8c8.5,0,17.1,0,25.6,0
			c2.8,0,4.1-1.6,4.7-4.1c0.2-0.9,0.1-1.8,0.5-2.6c3.3-6.5,4.7-13.6,7.5-20.3c1.6-4,2.4-8.2,4.1-12.1c3.6-8.3,5.9-17.1,9.3-25.5
			c1.6-4.1,2.6-8.4,4.5-12.4c2.8-6,4.3-12.3,6.6-18.4c1.9-5,3.8-10,5.4-15.1c1.3-4.3,3.1-8.3,5-12.4c2.1-4.6,3.7-9.5,5.3-14.4
			c1.5-4.7,3.7-9.1,4.7-14C1092.8,832.5,1091.9,831.7,1089.7,831.7z"/>
		<path class="st1" d="M1478.1,986.1c-4.1,0-8.2-0.2-12.3,0.1c-3.1,0.2-4.8-1.3-5.7-3.9c-2.1-5.7-3.9-11.6-6.3-17.2
			c-2.4-5.7-4.5-11.4-6.6-17.2c-1-2.9-2.9-3.7-5.8-3.7c-18.6,0.1-37.3,0.2-55.9,0c-3.3,0-5,1.4-6.1,4c-1.5,3.6-2.6,7.4-4.1,11.1
			c-1.8,4.4-3.5,8.8-5.8,13.1c-2,3.6-3.3,7.6-4.7,11.6c-0.6,1.8-1.5,2.2-3.1,2.2c-5.7,0-11.3,0-17,0c-2.5,0-3.2-1.3-2.1-3.7
			c4.1-9.5,7.8-19.2,11.4-29c3.6-9.8,7.7-19.5,11.3-29.3c2.8-7.5,6.8-14.6,9.7-22.1c1.3-3.4,2.7-6.9,3.9-10.4
			c2.3-6.5,4.8-12.9,7.5-19.3c2.3-5.4,4.1-11.1,6.2-16.6c1.6-4.2,3.5-8.4,5.2-12.6c1-2.4,1.8-4.9,2.6-7.4c0.8-2.6,2.2-4,5.3-3.9
			c8.1,0.2,16.2,0.3,24.3-0.1c3.9-0.2,5.3,1.9,6.4,4.8c3,7.7,5.9,15.3,8.8,23c2.3,6.1,4.1,12.3,6.8,18.2c3.5,7.4,5.6,15.4,9,22.8
			c1.8,3.8,2.8,8.3,4.7,12c2.7,5.2,4.2,10.7,6.6,15.9c1.9,4.1,3.3,8.3,4.9,12.5c2.3,5.9,4.4,11.9,6.7,17.8c2.3,6,5.1,11.8,6.9,18
			c0.7,2.4,1.4,5,2.7,7.1c1.4,2.3,0.4,2.4-1.4,2.4C1487.4,986.1,1482.7,986.1,1478.1,986.1z M1413.6,924c6.7,0,13.3-0.1,20,0
			c2.5,0,3.4-1.1,2.6-3.3c-1.3-3.7-2.9-7.3-4.4-11c-2.8-6.9-5.8-13.8-8.2-20.8c-2-5.8-4.4-11.5-6.7-17.1c-0.9-2.1-1-4.6-2.6-6.3
			c-0.7-0.7-1.8-2.2-2.3-0.1c-1.5,5.7-4.3,10.8-6.2,16.3c-2.6,7.5-5.9,14.9-8.7,22.4c-2,5.3-4,10.7-6.2,15.9c-1.1,2.6,0,4,2.8,4
			C1400.3,924.1,1406.9,924,1413.6,924z"/>
		<path class="st1" d="M728.2,986.1c-4.4,0-8.9,0-13.3,0c-1.7,0-2.5-0.6-3.1-2.2c-3-7.9-6.5-15.6-9.2-23.5
			c-1.4-3.9-3.3-7.7-4.2-11.8c-0.6-2.6-2.2-3.9-4.9-3.9c-19.5,0-39.1,0-58.6,0c-2.4,0-3.8,1.1-4.6,3.1c-3.4,8.7-6.5,17.4-10,26.1
			c-1.4,3.4-3,6.6-4,10.1c-0.4,1.4-1.5,2.2-3,2.2c-6.4,0-12.9,0-19.3,0c-1.3,0-2.4-0.1-1.5-2.1c1.9-4.5,3-9.5,5.4-13.8
			c5.1-9.5,8.1-19.8,12-29.7c4.5-11.4,9-22.8,13.4-34.2c3.9-10.5,8.5-20.7,12.3-31.2c2.1-6,4.6-11.9,6.9-17.8
			c2.2-5.6,4.1-11.4,6.7-16.9c1-2.1,1.2-4.3,2.4-6.4c1.1-1.8,2.2-2.7,4.1-2.7c8.8,0,17.5,0,26.3,0c4.6,0,4.6,4,5.7,6.6
			c2.5,5.6,3.6,11.8,6.5,17.2c5,9.3,7.7,19.5,11.7,29.2c2.3,5.5,4.6,10.9,6.6,16.5c2.2,6.2,4.7,12.3,7,18.4
			c2.1,5.7,4.3,11.4,6.7,17.1c2.4,5.7,4.4,11.5,6.6,17.2c2.3,6,4.7,12,7,18c1.5,4,3,8,4.5,12c0.8,2.1-0.1,2.8-2.1,2.8
			C737.3,986.1,732.8,986.1,728.2,986.1z M663.5,924c6.4,0,12.9,0,19.3,0c3.9,0,4.4-0.7,3.1-4.2c-1.8-4.7-4-9.3-5.6-14.1
			c-4.7-13.5-10.5-26.6-15.3-40c-0.2-0.5-0.5-1.2-0.8-1.3c-0.8-0.3-1,0.6-1.3,1.1c-3.4,6-5,12.6-7.6,18.9
			c-2.4,5.7-4.4,11.5-6.6,17.2c-2.3,6-4.8,12-7,18.1c-1.3,3.5-0.6,4.2,3.2,4.2C651.1,924.1,657.3,924,663.5,924z"/>
		<path class="st1" d="M1232,1070.3c2.5-0.5,4.1,0.8,5,3.6c3.8,10.7,7.7,21.4,11.7,32c0.3,0.9,0.4,2.2,1.7,2.1
			c1.2-0.1,1.4-1.3,1.7-2.2c3.9-10.9,7.8-21.9,11.7-32.8c0.8-2.3,4.4-3.7,6.5-2.4c1.3,0.8,0.9,1.8,0.5,2.9
			c-3.1,8.6-6.2,17.3-9.2,25.9c-2.3,6.4-4.7,12.9-6.9,19.3c-0.8,2.4-2.5,2.4-4.5,2.4c-2,0-3.9,0.1-4.8-2.4
			c-5.4-14.5-10.8-28.9-16.3-43.4c-0.1-0.3-0.1-0.7-0.2-1C1227.5,1070.5,1227.6,1070.4,1232,1070.3z"/>
		<path class="st1" d="M1279,1070.4c2.7-0.5,3.5,0.9,3.5,3.6c0,3-1.5,3.7-4.2,3.7c-2.9,0-3.7-1.3-3.8-4.1
			C1274.4,1070.1,1276.5,1070.3,1279,1070.4z"/>
		<path class="st1" d="M1719.9,1102.5c0-4.7,0-9.3,0-14c0-4.3,3.2-6.5,7-4.3c2.6,1.6,4.4,1.1,6.6-0.1c1.7-0.9,3.5-1.3,5.4-1.3
			c2.5,0,3.5,1.4,3.5,3.5c0,2.1-1.2,3.5-3.3,3.3c-4.3-0.3-6.7,2-8.9,5.2c-0.9,1.4-1.4,2.6-1.4,4.3c0.1,6.1-0.1,12.2,0.1,18.3
			c0.1,3.1-1.7,3.8-4.1,3.9c-3.9,0.2-4.8-0.7-4.8-4C1719.9,1112.4,1719.9,1107.4,1719.9,1102.5z"/>
		<path class="st1" d="M338.1,927.8c-15.3,0.2-27.3,13.8-27.2,27.6c0.1,15.9,10.7,29.1,28,29.1c13.9,0.6,27.2-13.5,27.2-28.2
			C366,941.6,352.8,927.6,338.1,927.8z M361,967.3c-1.5,4-3.8,7.2-6.9,9.7C357.2,974.5,359.5,971.3,361,967.3
			c0.8,0.1,1.1-0.2,1.4-0.7C362.2,967.1,361.8,967.4,361,967.3z"/>
		<path class="st1" d="M1655.4,1102.9c0,5-0.1,10,0,15c0.1,3.2-2.1,3.4-4.2,3.4c-2,0-4.6,0.2-4.5-3.3c0.1-10.3,0.1-20.6,0-30.9
			c0-3.4,2.2-3.4,4.4-3.4c2.4-0.1,4.4,0.5,4.3,3.7C1655.3,1092.5,1655.4,1097.7,1655.4,1102.9z"/>
		<path class="st1" d="M790.7,1102.3c0,5.3-0.1,10.6,0,15.9c0.1,2.8-1.4,2.9-3.6,3c-2.2,0.1-3.2-0.6-3.2-3c0.1-10.5,0.1-21,0-31.5
			c0-2.7,1.4-3,3.6-3c2.2,0,3.2,0.7,3.1,3.1C790.7,1091.9,790.7,1097.1,790.7,1102.3z"/>
	</g>
</g>
</svg>
