<?xml version="1.0" encoding="utf-8"?>
<!-- Generator: Adobe Illustrator 26.0.3, SVG Export Plug-In . SVG Version: 6.00 Build 0)  -->
<svg version="1.1" id="Camada_1" xmlns="http://www.w3.org/2000/svg" xmlns:xlink="http://www.w3.org/1999/xlink" x="0px" y="0px"
	 viewBox="0 0 1920 455.1" style="enable-background:new 0 0 1920 455.1;" xml:space="preserve">
<style type="text/css">
	.st0{fill:#FBD51C;}
	.st1{fill:#16437A;}
	.st2{fill:#1A9A47;}
</style>
<g>
	<g>
		<path class="st0" d="M55.2,142.3c-1-0.5-1.6,0.3-2.3,0.9c-10.5,8.9-19.7,18.9-24.2,32.5c-1.6,4.7-3.2,9.4-4.1,14.2
			c-0.2,1.1-0.6,2.3-1.2,3.1c-1,1.2-2.5,1.4-2.7-0.5c-0.3-2.8-1.8-5.2-2.5-7.8c-0.9-3.5,1.5-6.3,2.7-9.2c3.1-7.4,5.8-14.8,10.1-21.6
			c6.9-11,16.5-18.9,27.6-25.4c7.7-4.5,15.7-8.6,23.9-12.1c7.4-3.2,15-5.9,23-7.6c3.6-0.8,7.1-1.9,10.7-2.7
			c10.2-2.1,20.5-3.3,30.8-4.4c10.5-1.1,20.9-1.4,31.4-1.1c1.1,0,2.1-0.3,3.3-0.6c6.6,0.6,12.9,2.9,19.6,1.9c12.4,1,24.9,2.7,37,5.3
			c13.7,2.9,27.3,6.6,40.3,12.1c11.5,4.9,22.2,11,31.9,18.5c4.2,3.3,7.8,7.1,11.6,10.9c0.8,0.8,1.6,1.2,2.6,1.4
			c-0.2,1.1,0.2,1.8,1.5,1.8c0.5,3.2,3.6,4.9,4.6,7.8c0.5,1.4,1.7,1.6,3.1,1.6c-0.1,1.2,0.9,1.8,1.5,2.5c2.5,5.5,5.4,10.7,7.7,16.5
			c2.7,7,4.7,14.1,5.4,21.5c0.6,6.4,0.1,13,0,19.6c0,2-0.6,2.3-2.4,1.1c-2.1-1.2-2.4-3.5-3.3-5.3c-5.8-10.7-14.9-18.2-24.1-25.8
			c-13.5-11.3-28.6-20.2-43.4-29.4c-10.1-6.2-20.7-11.6-31.7-16.5c-12.4-5.7-25.4-9.6-38.2-14.1c-1.4-0.5-2.7-0.5-4.1-0.2
			c-3.3-4.2-8.7-2.9-13-4.9c-1.7-0.8-4.2-1.6-6.4-0.3c-2.4-2.7-6-1.2-8.8-2.4c-6.2-2.4-13-2.8-19.5-3.4c-11.5-1.1-23.2-1.7-34.8-1.1
			c-5.3,0.2-10.9,0.1-16.1,1.4c-6.7,1.6-13.5,3.3-19.9,5.9c-8.8,3.5-17.1,7.8-25,12.9C56.7,140.1,56.3,142.9,55.2,142.3z"/>
		<path class="st1" d="M1153.9,165c0-27.6,0-55.2,0-82.8c0-5.5,0.1-5.7,5.7-5.7c9,0,18.1,0.1,27.1-0.1c3.2-0.1,4.3,1.1,4.3,4.2
			c-0.1,5.1,0,10.3,0,15.4c0,50.5,0,101,0,151.5c0,5.7,0,5.7-5.9,5.7c-8.7,0-17.3,0-26,0c-5.2,0-5.2-0.1-5.2-5.2
			C1153.9,220.4,1153.9,192.7,1153.9,165z"/>
		<path class="st1" d="M887.4,376.9c0,7.9,0,15.8,0,23.7c0,1.9,0.9,4.7-1.6,5.2c-3.1,0.6-6.7,1.6-9-1.7c-3.5-5-6.8-10.2-10.2-15.4
			c-4.2-6.3-8.4-12.8-12.6-19.1c-0.6-0.8-0.8-2.1-2-1.8c-1.4,0.3-1,1.8-1,2.9c0,10.2-0.1,20.4,0,30.4c0,3.2-0.7,5-4.3,5
			c-3.7,0.1-4.4-1.7-4.4-4.9c0.1-16.3,0-32.6,0.1-49c0-1.8-1-4.3,2.1-4.9c3.1-0.5,6.4-1.2,8.5,1.9c7.1,10.9,14,21.9,20.9,32.9
			c0.2,0.3,0.5,0.7,0.7,0.9c0.7,0.7,0.9,2.1,2.1,1.8c1.5-0.3,1-1.8,1-2.8c0-10.2,0.2-20.4-0.1-30.4c-0.1-3.8,2.1-4.4,4.9-4.5
			c2.7-0.1,5,0.3,4.9,4.3C887.2,360.1,887.4,368.4,887.4,376.9z"/>
		<path class="st2" d="M201.5,102.1c-6.7,1-13-1.2-19.6-1.9c0-23.5,0-47-0.1-70.6c0-2.4,0.8-3.4,3.3-3.3c4.2,0.1,8.3,0.2,12.4,0
			c3.1-0.1,4.1,0.9,4.1,4.1c-0.1,23.1-0.1,46-0.1,69.1C201.5,100.3,201.5,101.2,201.5,102.1z"/>
		<path class="st1" d="M1370,386c0,6.2,0.2,12.6,0,18.8c-0.2,6.4-8.5,14.7-15,15c-5.4,0.2-10.7,0.1-16.2,0c-2-0.1-4.4-0.1-4.5-3.3
			c-0.1-4.5,1.8-5.9,6-3.8c3.8,1.8,7.8,2.5,12,1.4c4.7-1.1,8.5-6.3,8-11.3c-0.2-2.3-1.1-2-2.7-1c-11.2,7.2-23.5,1.8-26.3-11.3
			c-1.5-6.9-0.8-13.1,2.5-19.2c4.6-8.7,14-11.9,23.1-7.9c1.8,0.8,2.9,0.7,4.7-0.3c5.2-2.9,8.9-0.6,8.9,5.3s0,11.8,0,17.6
			C1370.4,386,1370.3,386,1370,386z M1360.3,381.2c-0.3-2.1,1.4-5.8-0.8-7.9c-5-5.1-13.2-6.8-17.2,1.8c-2.5,5.3-2.8,10.7-0.5,16.3
			c1.9,4.6,5.5,6.7,10.2,4.7C1359.3,393.1,1361.1,391.7,1360.3,381.2z"/>
		<path class="st1" d="M632.2,385.3c0,6.4,0.1,12.8,0,19.1c-0.2,10-8.6,16.4-16.6,15.5c-4.3-0.5-8.8,0-13.1-0.2
			c-3.7-0.2-5.8-3.7-4.1-7c1.1-2,2.8-0.8,4.3-0.2c4.3,1.6,8.6,2.7,13.1,1.5c4.2-1.1,7.7-6.7,6.9-10.9c-0.5-2.5-1.9-1.7-3.3-0.8
			c-4.4,3.1-9.2,2.8-14,1.7c-6-1.5-9.3-5.9-10.7-11.4c-2.5-9.7-2-19,5.7-26.5c5.1-4.9,11.3-5.7,17.9-3.4c2.3,0.8,4,1.8,6.7-0.2
			c3.6-2.7,7.7,0.1,7.7,4.6c0,6,0,12,0,18.1C632.4,385.3,632.3,385.3,632.2,385.3z M623.3,382.1c-0.5-2.9,1.2-6.3-1-8.9
			c-4.7-5.4-13.9-6.2-17.4,2c-2,5-2,10.1-0.7,15c1.6,5.9,6.8,7.9,12.4,5.3C622.5,393,624.5,388.5,623.3,382.1z"/>
		<path class="st1" d="M589.1,406.1c-5.2,0-6.1-0.8-8.1-7.2c-2.8-8.8-2.8-8.8-11.8-8.8c-3.5,0-7,0.1-10.5,0c-2-0.1-3.2,0.6-3.8,2.6
			c-1.5,3.8-3.3,7.5-5,11.2c-0.9,2-5.8,3.5-8,2.3c-2.5-1.4-1.2-3.5-0.6-5.3c5.9-17.1,14.2-33.1,20.1-50.3c0.9-2.6,2.8-3.1,5.1-2.8
			c2.5,0.2,5.7-1.1,7.1,2.5c5.4,14.4,11,28.6,16.5,43c1,2.6,2,5.1,2.9,7.7C594.6,405.7,594.3,406.1,589.1,406.1z M567.3,363
			c-0.3,0-0.7,0.1-1,0.1c-2.3,5.7-4.5,11.3-6.8,17c-0.5,1.2-1.2,2.8,1.2,2.8c4,0,8,0,12,0c1.2,0,2.4-0.3,1.7-2
			C572,374.9,569.7,369,567.3,363z"/>
		<path class="st1" d="M1195.1,374.8c0,8.9,0,17.8,0,26.7c0,1.7,0.3,4.1-1.8,4.4c-2.5,0.3-5.8,1.6-7.5-1.5c-1-1.8-1.9-1.5-3.3-0.7
			c-13.2,7.4-25.9,0-26.3-15.2c-0.2-6.2,0.1-12.2,3.4-17.8c4.6-8,13.2-11.2,21.8-7.8c4.2,1.7,4.2,1.7,4.2-2.9c0-3.8,0-7.8,0-11.6
			c0-4.5,0.6-4.7,5.3-5.1c3.8-0.2,4.3,1.8,4.3,4.9C1195,357,1195.1,365.8,1195.1,374.8z M1185.5,383.3c0-2,0-4,0-6
			c0-4.3-2-6.4-7.8-7.9c-3.5-0.9-7.2,0.7-9,3.7c-3.4,6.1-3.2,12.7-1.8,19c1.4,6.2,6.4,7.9,12.3,5.2c4.3-2,7.1-4.9,6.3-10.2
			C1185.4,385.8,1185.5,384.5,1185.5,383.3z"/>
		<path class="st1" d="M1583.8,385.2c0,2.9,0.1,5.2,0,7.5c-0.1,3.5,0.1,6.6,4,8.4c2.5,1.1,1.9,3.4-0.1,4.6c-3.7,2.3-7.5,1.2-10.5-1
			c-2.3-1.7-3.7-1.4-6-0.2c-5,2.6-10.1,3.5-15.5,0.6c-7.7-4.2-8.9-13.8-2.5-19.8c4.4-4.2,10-5.1,15.6-5.7c1.6-0.1,4.2,0.8,4.3-2.3
			c0.1-2.9,0.1-5.8-3.2-7.4c-3.6-1.6-6.9,0.1-10.3,0.7c-0.9,0.1-1.6,0.7-2.5,0.8c-1.6,0.2-3.7,1.8-4.3-0.9c-0.5-2.1-1-5,2-6.1
			c7.7-2.8,15.4-4.5,23.3-0.5c2.6,1.2,4,3.2,4.7,5.9C1584.1,375,1583.7,380.4,1583.8,385.2z M1573,390.8c0-5.4-0.5-5.8-5.8-4.6
			c-2.1,0.5-4.1,1.2-5.8,2.6c-3.5,3.1-2.9,7.7,0.9,9.5C1567.3,400.5,1573,396.4,1573,390.8z"/>
		<path class="st1" d="M1811.7,385.2c0,2.9,0.1,5.2,0,7.5c-0.1,3.5,0.1,6.6,4,8.4c2.5,1.1,1.9,3.4-0.1,4.6c-3.7,2.3-7.5,1.2-10.5-1
			c-2.3-1.7-3.7-1.4-6-0.2c-5,2.6-10.1,3.5-15.5,0.6c-7.7-4.2-8.9-13.8-2.5-19.8c4.4-4.2,10-5.1,15.6-5.7c1.6-0.1,4.2,0.8,4.3-2.3
			c0.1-2.9,0.1-5.8-3.2-7.4c-3.6-1.6-6.9,0.1-10.3,0.7c-0.9,0.1-1.6,0.7-2.5,0.8c-1.6,0.2-3.7,1.8-4.3-0.9c-0.5-2.1-1-5,2-6.1
			c7.7-2.8,15.4-4.5,23.3-0.5c2.6,1.2,4,3.2,4.7,5.9C1812.1,375,1811.6,380.4,1811.7,385.2z M1801,390.8c0-5.4-0.5-5.8-5.8-4.6
			c-2.1,0.5-4.1,1.2-5.8,2.6c-3.5,3.1-2.9,7.7,0.9,9.5C1795.2,400.5,1801,396.4,1801,390.8z"/>
		<path class="st1" d="M1896.1,385.2c0,2.9,0.1,5.2,0,7.5c-0.1,3.5,0.1,6.6,4,8.4c2.5,1.1,1.9,3.4-0.1,4.6c-3.7,2.3-7.5,1.2-10.5-1
			c-2.3-1.7-3.7-1.4-6-0.2c-5,2.6-10.1,3.5-15.5,0.6c-7.7-4.2-8.9-13.8-2.5-19.8c4.4-4.2,10-5.1,15.6-5.7c1.6-0.1,4.2,0.8,4.3-2.3
			c0.1-2.9,0.1-5.8-3.2-7.4c-3.6-1.6-6.9,0.1-10.3,0.7c-0.9,0.1-1.6,0.7-2.5,0.8c-1.6,0.2-3.7,1.8-4.3-0.9c-0.5-2.1-1-5,2-6.1
			c7.7-2.8,15.4-4.5,23.3-0.5c2.6,1.2,4,3.2,4.7,5.9C1896.4,375,1896,380.4,1896.1,385.2z M1885.4,390.8c0-5.4-0.5-5.8-5.8-4.6
			c-2.1,0.5-4.1,1.2-5.8,2.6c-3.5,3.1-2.9,7.7,0.9,9.5C1879.6,400.5,1885.4,396.4,1885.4,390.8z"/>
		<path class="st1" d="M1454.2,384.2c0-5.8,0-11.5,0-17.3c0-2.3,0.2-4.2,2.8-4.4c2.6-0.2,5.9-1.6,7.1,2.1c0.9,2.6,1.8,1.6,3.2,0.7
			c3.5-2.4,7.2-3.8,11.6-3.5c6.7,0.6,11.1,5.2,11.4,11.8c0.3,9.5,0.1,19,0.1,28.6c0,3.7-2.5,4.2-5.3,4.2c-2.7,0-4.9-0.3-4.7-4.1
			c0.2-8.5,0.1-17.1,0-25.6c0-5.2-4-7.9-8.6-5.4c-4.4,2.4-7.8,5.5-7.6,11.4c0.3,6.3-0.1,12.8,0.1,19.2c0.1,3.5-1.5,4.6-4.7,4.5
			c-4.5-0.1-5.4-0.8-5.4-4.7C1454.1,395.7,1454.1,389.9,1454.2,384.2C1454.1,384.2,1454.1,384.2,1454.2,384.2z"/>
		<path class="st1" d="M1446,384.1c0,3.1,0.1,6,0,9c-0.1,3.2,0.5,5.8,3.8,7.4c2.4,1.1,2.3,4-0.1,5.3c-3.5,2-7,0.9-9.8-1.2
			c-2.4-1.8-4.1-1.7-6.3-0.2c-3.1,1.8-6.3,2.8-10.1,2.5c-5.5-0.6-10.5-4-11.6-8.1c-1.6-6.1,0.7-12,5.9-15.4
			c4.2-2.8,8.9-3.1,13.6-3.6c1.8-0.2,4.4,0.8,4.6-2.4c0.1-3.1-0.2-6.1-3.7-7.4c-4-1.5-7.6,0.6-11.4,1c-0.5,0-0.9,0.6-1.4,0.6
			c-1.5,0.1-3.5,2-4.2-0.2c-0.7-2.1-1.7-5.3,1.4-6.6c7.5-3.1,15-4.5,23-1c4.4,1.9,6.3,5.4,6.6,10.1
			C1446.2,377,1446,380.5,1446,384.1z M1436.3,391.4c0-5.7-0.7-6.2-5.9-5.5c-2.5,0.3-4.7,1.5-6.9,2.7c-3.3,2-3.7,6.2-0.9,8.4
			c2.9,2.3,6.3,2,9.6,0.6C1435.2,396.5,1437.1,394.6,1436.3,391.4z"/>
		<path class="st1" d="M1107.7,384.4c0,2.7,0.1,5.5,0,8.3c-0.1,3.2-0.2,6.3,3.8,7.5c1.5,0.5,1.8,2,1.6,3.5c-0.1,1.4-1.1,2.1-2.4,2.6
			c-3.4,1.2-6.7,0.2-9.2-2c-1.9-1.8-3.4-1.5-5.3-0.7c-1.6,0.7-3.2,1.4-4.9,2c-5.9,2.4-13.3,0-16.6-5.2c-2.8-4.6-1.1-12.2,3.7-16.3
			c4.5-3.8,10-4.4,15.5-4.9c1.6-0.1,4,0.7,4.2-1.9c0.3-2.5,0.3-4.9-2.3-6.6c-3.7-2.5-7.4-1.7-11.2-0.8c-1.1,0.2-2.1,0.8-3.2,1
			c-1.4,0.3-3.4,2.3-4.1-0.1c-0.7-2.1-1.7-5.3,1.4-6.7c6.9-2.9,14.1-4.2,21.5-1.4c5,1.9,7,5.8,7.2,10.9
			C1107.8,377.4,1107.7,380.9,1107.7,384.4z M1098.5,390.6c-0.6-1.6,1.2-4.4-2.3-4.7c-4.1-0.5-8,0.5-11.3,2.9
			c-3.1,2.3-2.7,7.6,0.7,9.3c4,1.9,7.5,0.1,11-1.6C1099.1,395.1,1098.4,392.9,1098.5,390.6z"/>
		<path class="st1" d="M680.6,384.1c0-5.8,0-11.5,0-17.3c0-1.9-0.3-4.4,2.6-4.5c2.5,0,5.9-1.2,6.8,2.7c0.7,2.8,1.9,1.5,3.2,0.6
			c5-3.6,10.1-5.2,16.1-2.5c4.5,2,6.7,5.9,6.8,10.4c0.3,9.7,0.1,19.6,0.1,29.3c0,3.6-2.5,3.4-4.9,3.5c-2.7,0.1-4.7-0.3-4.7-3.7
			c0.1-8.3,0-16.5,0-24.8c0-7.1-4-9.6-10.2-5.9c-3.8,2.3-6.7,5.4-6.4,10.5c0.2,6.3-0.1,12.8,0.1,19.1c0.1,3.7-1.5,4.7-4.9,4.7
			c-3.4,0.1-4.7-1.1-4.6-4.5C680.7,395.8,680.6,389.9,680.6,384.1z"/>
		<path class="st1" d="M1224.6,386.3c-3.1,0-6,0.1-9,0c-3.1-0.1-3.6,1.4-3.2,4c0.9,5.1,6.3,9.6,11.8,9.2c2.9-0.2,5.9-0.9,8.8-1.7
			c1.8-0.6,3.6-1.4,4.2,1.1c0.6,2.4,0.8,5.1-2.1,6c-12.7,3.5-21.4,3.4-29.9-7c-5.5-6.8-5.8-15.3-2.4-23.5c3.3-8,10.2-12.8,18.4-12.7
			c7,0,11.8,3.2,14.4,9.8c1.5,3.6,2,7.5,1.9,11.4c-0.1,2.4-1.1,3.4-3.5,3.4C1230.8,386.3,1227.7,386.3,1224.6,386.3z M1219.7,378.9
			c2,0,4-0.1,6,0c1.8,0.1,2.5-0.8,2.3-2.5c-0.2-3.3-3.6-6.7-7.1-7.2c-2.9-0.5-6.4,1.6-7.9,4.5c-2.1,4.6-1.8,5.2,3.4,5.2
			C1217.4,378.9,1218.5,378.9,1219.7,378.9z"/>
		<path class="st1" d="M1033.1,384.3c0-6.1,0-12.3,0-18.4c0-1.9,0.6-3.6,2.8-3.6c2.1,0.1,5.2-1.4,6.1,1.9c0.9,3.4,2.1,2.4,4.1,1
			c5.9-4.3,12-4.6,17.2-1.4c4,2.6,5.2,6.6,5.2,11.1c0.1,9-0.1,18.1,0.1,27.1c0.1,3.7-1.9,4.3-5,4.3c-2.9,0-4.6-0.7-4.5-4.2
			c0.2-8.6,0.1-17.3,0-26c0-4.5-2.1-6.3-6.6-5.7c-5.7,0.9-10.2,6.1-10.2,11.8c0,6.6-0.1,13,0,19.6c0.1,3.3-1.1,4.4-4.4,4.4
			c-3.2,0-5-0.6-4.9-4.3C1033.2,396,1033.1,390.2,1033.1,384.3L1033.1,384.3z"/>
		<path class="st1" d="M660.6,386.3c-3.4,0-6.8,0-10.2,0c-2.4,0-3.1,0.9-2.5,3.3c1.9,7.4,7.6,10.1,14,9.8c2.6-0.1,5.2-0.9,7.7-1.6
			c1.5-0.3,3.2-2,3.8,0.7c0.5,2,1.2,5-1.5,6c-8.8,3.1-18,4.2-25.9-1.8c-7.7-5.7-10.4-14.2-8.5-23.4c2.1-9.8,6.8-18.4,20.8-17.6
			c7.7,0.5,12.9,5.1,14.8,13.5c2.3,9.7,1.1,11.2-8.6,11.2C663.4,386.3,662,386.3,660.6,386.3z M655.8,378.9L655.8,378.9
			c2.1,0,4.3,0,6.3,0c2.1,0,2.8-0.9,2.5-3.1c-0.7-3.8-3.3-6.2-7.8-6.7c-3.6-0.3-6.2,1.5-7.8,4.6c-2.1,4.4-1.7,5.1,3.2,5.1
			C653.3,378.9,654.6,378.9,655.8,378.9z"/>
		<path class="st1" d="M1006.9,361.7c15.2-0.5,21.4,12.1,20.2,25.4c-0.5,5.5-2,10.6-6.4,14.7c-8.9,8-23.9,6.2-30.6-3.6
			c-4.9-7-5.8-14.6-2.9-22.1C990.1,367.9,995.6,361.3,1006.9,361.7z M996.3,384.2c0,1.6-0.1,3.3,0,4.9c0.7,5.7,4.4,9.7,9.5,10.6
			c3.6,0.6,8.5-1.9,10.1-5.8c2.5-6.2,2.6-12.8,0-19c-1.6-4-5.3-5.9-9.3-5.8c-4,0.2-7.2,2.1-8.9,6.2
			C996.4,378.3,996,381.1,996.3,384.2z"/>
		<path class="st1" d="M808.8,383.9c0,3.5,0,7,0,10.5c0,2.6,0.7,4.7,3.6,5.3c1.8,0.5,2.3,1.7,2.4,3.4c0.1,1.9-1.1,2.6-2.7,3.1
			c-3.4,1.1-6.7,0.3-9-2.1c-2-2-3.4-1.7-5.4-0.5c-4.5,2.7-9.3,4.3-14.6,1.7c-7.9-3.8-9.7-13-3.7-19.7c4.3-4.7,10-5.9,15.9-6.3
			c1.7-0.1,4.1,0.6,4.2-2.4c0-2.8,0.6-5.9-3.3-7c-4.4-1.4-8.4-0.1-12.4,1.2c-1.1,0.3-2.6,2.4-3.8,0.1c-1.1-1.9-0.3-6.4,1.4-7.1
			c6.8-2.5,13.7-4.1,20.8-1.1c4.6,1.9,6.7,5.4,6.8,10.3C808.9,376.9,808.8,380.4,808.8,383.9L808.8,383.9z M799.6,391.5
			c0-6-0.7-6.6-6.1-5.5c-2,0.3-3.8,1-5.5,2.1c-3.5,2.3-4,5.7-1.5,8.6c2.6,3.1,6,2.3,9,1.2C798.6,396.9,800.5,394.7,799.6,391.5z"/>
		<path class="st1" d="M926,384.5c0,2.5,0.1,5,0,7.5c-0.1,3.5-0.1,6.8,4.1,8.3c1.4,0.5,2,1.9,1.7,3.5c-0.3,1.5-1.5,2.3-2.8,2.7
			c-3.5,1-6.7,0.1-8.9-2.5c-1.5-1.7-2.5-1.6-4.1-0.7c-1.8,1-3.8,1.9-5.8,2.7c-5.5,2-12.2-0.2-15.6-5.1c-2.6-3.8-1.6-11.3,2-15.3
			c4.2-4.6,9.8-5.5,15.7-6.1c1.8-0.2,4.4,1,4.5-2.4c0.2-2.9,0.1-5.8-3.4-7.1c-4.2-1.7-7.8,0.2-11.6,0.9c-1.6,0.3-3.5,3.4-5,0
			c-1.4-3.3,0-6.3,3.1-7.2c6.1-1.9,12.2-3.1,18.4-0.9c5,1.7,7.4,5.4,7.6,10.5c0.1,3.7,0,7.5,0,11.3C925.9,384.5,926,384.5,926,384.5
			z M916.8,391.1c0-5.4-0.7-6.1-6.1-5.1c-2.4,0.5-4.6,1.2-6.4,2.7c-3.3,2.6-2.9,7.1,0.6,9C910.4,400.8,916.8,397.1,916.8,391.1z"/>
		<path class="st1" d="M1516.9,361.7c3.2,0,6.3,0.1,9.3,1.2c2.3,0.9,3.8,2.4,2.9,5.2c-0.9,2.7-2.8,2.7-5.1,2.3
			c-2.7-0.5-5.3-1.5-8.1-1c-6.7,1-8.8,5.9-9.8,14.5c-0.5,3.6,1,7,2.7,10.1c2.6,4.9,8.4,6.3,14.9,4.1c2.4-0.8,4.7-2,5.8,1.4
			c1,3.2-0.3,4.7-4.1,5.8c-5.3,1.5-10.5,2.5-15.8,0.7c-12-4-15.2-12.9-14.6-24.1c0.1-3.4,0.8-6.7,2.4-9.7
			C1501.5,363.8,1508.6,361.6,1516.9,361.7z"/>
		<path class="st1" d="M721.1,383.8c1-18.4,13.2-25.2,30.4-21.1c3.8,0.9,2.5,4,2.3,6.1c-0.2,2.9-2.5,1.6-4.1,1.4
			c-1.5-0.2-2.9-0.6-4.4-0.8c-4.3-0.6-8,0.5-10.5,4.2c-2.7,4.2-4.1,8.8-2.9,13.9c2.1,9.8,9,13.7,18.5,10.3c1.7-0.7,3.6-2,4.7,0.6
			c1.1,2.7-0.2,5.7-2.7,6.4c-5.4,1.6-11,3.1-16.6,1C726.5,402.7,721.1,394.5,721.1,383.8z"/>
		<path class="st1" d="M954.1,361.7c2.4,0.1,5.2,0,8,1.1c1.9,0.7,2.7,1.9,2.7,4c0,3.2-1,4.3-4.3,3.6c-2.8-0.5-5.5-1.6-8.5-1
			c-7.9,1.4-10.1,8.7-9.8,15.9c0.1,3.1,0.8,6.2,2.7,8.8c3.6,4.9,9.2,6.1,15.8,3.6c1.5-0.6,3.4-1.8,4.1,0.5c0.7,2.1,1.5,5.2-1.5,6.2
			c-7,2.7-14.1,3.6-21-0.2c-7.8-4.4-11.9-13.8-10.4-24C933.8,367.8,941,361.6,954.1,361.7z"/>
		<path class="st1" d="M1396.6,374.6c0-8.9,0.2-17.8-0.1-26.7c-0.1-4.5,2.5-4.4,5.5-4.5c3.2-0.1,4.9,1.1,4.9,4.6
			c-0.1,17.8,0,35.5,0,53.3c0,3.8-1.2,4.7-5.3,5c-3.4,0.1-5-0.8-4.9-4.6C1396.7,392.5,1396.6,383.5,1396.6,374.6z"/>
		<path class="st1" d="M1116.4,374.7c0-9,0.1-18.1-0.1-27c-0.1-3.8,1.9-4.2,5-4.3c3.2-0.1,4.5,1,4.5,4.3c-0.1,18.1-0.1,36.1,0,54.2
			c0,3.4-1.2,4.6-4.7,4.5c-3.3-0.1-4.9-1-4.7-4.5C1116.5,392.6,1116.4,383.7,1116.4,374.7z"/>
		<path class="st1" d="M1756,356.1c0.3-0.2,0.6-0.5,0.9-0.7c1.1-0.1,2.3-0.1,3.4-0.3c4.6-0.8,5.3-0.2,5.7,4.5
			c0.1,2.1,1.1,3.2,3.3,3.3c1.9,0.1,3.7-0.3,5.5,0.5c1,0.5,2.1,0.8,2.4,2.1c0.2,1.5-0.6,2.4-1.7,3.2c-1.9,1.4-4.1,0.9-6.2,1
			c-1.8,0.1-3.3,0.2-3.3,2.6c0,7.4-0.1,14.8,0.1,22.2c0.1,2.9,1.7,5.2,5.1,5.3c2.3,0.1,5.1,0.1,5.2,2.9c0.1,2.9-2.9,2.8-5.1,3.4
			c-0.7,0.2-1.5,0.1-2.3,0.1c-6,0.1-10.1-2.9-12.9-7.9c-0.1-0.9-0.2-1.9-0.3-2.8c0.1-7.2,0.1-14.5,0.2-21.7c0-2.4-0.2-4-3.1-4.7
			c-2-0.6-2.5-5-0.7-5.3C1757.4,362.7,1755.9,359.1,1756,356.1z"/>
		<path class="st1" d="M1534.4,384.3c0-6,0.1-12,0-18c-0.1-4,2.7-4,5.3-4.1c2.8-0.2,5.5,0.3,5.5,4c0.1,12.1,0.1,24.3,0,36.4
			c0,3.7-3.1,3.6-5.8,3.6c-2.6,0-5.1-0.1-5.1-3.8C1534.5,396.3,1534.4,390.3,1534.4,384.3z"/>
		<path class="st1" d="M1325.5,384.4c0,5.7,0,11.3,0,16.8c0,4-1.1,5-5.3,4.9c-4.4-0.1-5.5-1-5.5-5.1c0-11.3,0-22.5,0-33.8
			c0-3.7,1.8-5.2,6.1-5.2c3.7,0,4.7,1,4.7,5C1325.5,372.9,1325.5,378.6,1325.5,384.4z"/>
		<path class="st1" d="M970.6,384.1c0-5.9,0.1-11.8,0-17.6c-0.1-3.5,1.5-4.5,4.9-4.4c3.2,0.1,5,0.7,5,4.3c-0.1,11.9-0.1,23.7,0,35.6
			c0,3.5-1.7,4.2-4.7,4.2c-3.1,0-5.1-0.3-5.1-4.2C970.8,396,970.6,390,970.6,384.1z"/>
		<path class="st1" d="M1846.4,371.3c0.1-1,0.1-2,0.2-2.9c0.2-1.6-1-3.7,1.2-4.6c2.8-1.1,5.7-1.1,8.3,0.5c1.4,0.8,0.9,2.1,0.9,3.4
			c0,10.9,0,21.7,0,32.6c0,4.6-1.8,6.1-6.6,5.2c-1.4-0.2-2.6-0.7-4-1C1846.5,393.3,1846.4,382.4,1846.4,371.3z"/>
		<path class="st1" d="M1378.4,384.3c0-6,0.1-12-0.1-18.1c-0.1-3.6,2.1-3.6,4.6-3.8c2.6-0.2,4.4,0.5,4.4,3.5c0,12.1,0,24.3,0,36.4
			c0,3.1-1.7,3.8-4.3,3.7c-2.5-0.1-4.7-0.2-4.6-3.8C1378.5,396.3,1378.4,390.3,1378.4,384.3z"/>
		<path class="st1" d="M657.7,343.3c3.4-0.8,5.8,0.9,7.7,4.1c1.2,2,2.9,3.7,4.4,5.5c0.7,0.8,1.1,1.7,0.6,2.7c-0.5,1.1-1.6,1-2.5,1.2
			c-4.2,1-6.1-2.6-8.5-4.5c-2.3-1.9-3.3-1.4-4.7,0.6c-2,2.5-4.1,4.6-7.8,4.1c-2.7-0.5-3.3-1.7-2-3.7c1.8-2.8,3.7-5.5,5.9-8.1
			C652.4,343,654.9,343.2,657.7,343.3z"/>
		<path class="st1" d="M1803,343.3c1.5,0.2,3.5-0.7,4.4,1.1c0.9,1.9-1.1,2.8-2.1,4c-1.9,2.1-3.8,4.2-6,6.2c-0.8,0.8-1.8,1.6-2.8,1.8
			c-2.4,0.7-5.3,1.5-6.9-0.8c-1.4-1.8,1.5-2.9,2.3-4.5c0.7-1.2,1.9-2.3,2.6-3.6C1796.4,344.1,1799.3,343,1803,343.3z"/>
		<path class="st1" d="M1424,346.2c6-4.1,10.4-3.3,14.5,2.6c0.9,1.2,1.7,2.5,2.7,3.6c0.7,0.8,1.5,1.5,0.8,2.6
			c-0.6,0.9-1.6,1.1-2.7,1.1c-2.5-0.1-4.4-0.9-6.1-3.1c-2.7-3.6-3.5-3.5-6.1-0.1c-1.7,2.3-3.8,3.1-6.4,3.2c-2.7,0.1-4.1-0.9-2.6-3.7
			l0,0C1422.3,348.2,1420.5,350,1424,346.2z"/>
		<path class="st1" d="M1735.8,352.2c0-4.2,1-4.9,7-5c3.1,0,5.1,0.7,5,4.4c-0.1,3.8-1.7,5.3-6,5.3
			C1736.5,356.9,1735.8,356.3,1735.8,352.2z"/>
		<path class="st1" d="M1846.4,351.8c0-3.8,1.2-4.6,7.2-4.6c3.1,0,4.2,1.4,4.1,4.3c-0.1,4.2-1.2,5.4-5.7,5.3
			C1847,356.9,1846.4,356.2,1846.4,351.8z"/>
		<path class="st1" d="M1539.4,356.9c-4.5,0-5.2-0.7-5.1-5.2c0-3.7,1.1-4.4,6.3-4.4c3.4-0.1,4.9,1.2,4.6,4.7
			C1545,355.7,1543.7,357,1539.4,356.9z"/>
		<path class="st1" d="M975.4,357c-4.3,0-4.5-0.5-4.7-5.2c-0.2-4,1.7-4.6,5-4.6c3.1,0.1,5.1,0.6,4.9,4.4
			C980.1,356.3,979.8,357,975.4,357z"/>
		<path class="st1" d="M764.5,357c-3.8,0.7-4.1-2-4.3-5.1c-0.2-3.4,1.2-4.7,4.6-4.7c3.1,0.1,5,0.9,4.9,4.5
			C769.5,356.1,768.9,356.9,764.5,357z"/>
		<path class="st1" d="M1378.4,352.1c0-4.2,0.7-4.7,5.3-4.9c3.2-0.1,4.1,1.6,4.1,4.4c-0.1,4-1.1,5.3-4.5,5.3
			C1378.9,357,1378.4,356.5,1378.4,352.1z"/>
		<path class="st1" d="M1362.4,192c-2.5-8.4-6-15.8-12.1-21.8c-9.3-9-20.1-16.3-31.5-22.1c-10.9-5.4-21.5-11.2-31.1-18.5
			c-5.7-4.3-9-13.9-6.1-19c4.4-7.7,11.3-11.6,20.1-12c10.2-0.5,20,0.8,29.7,4.2c4.7,1.7,9.8,2.4,14.6,4.4c3.3,1.4,5.5,0.1,5.7-3.1
			c0.1-7.8,0.1-15.5,0-23.3c0-2.1-0.9-4.1-3.3-4.5c-9.2-1.6-18.3-3.5-27.6-4.5c-8.8-1-17.8-1.1-26.7-0.8c-5.9,0.2-11.6,1.4-17.2,3.2
			c-5.5,1.8-10.9,4.4-15.8,7.9c-8.9,6.2-14.8,14.7-18.1,24.7c-2.1,6.3-3.2,13.3-1.8,20.2c1.2,7,3.3,13.8,7.1,19.6
			c7,10.4,17.2,17.5,27.7,24.1c12,7.5,25,13.1,36.4,21.5c8.4,6.1,10.6,12.8,8.9,22.1c-0.7,3.7-2.6,7.2-6.1,9.8
			c-5,3.7-10.2,5.7-16.3,6.3c-8.8,0.9-17.6,0.3-26.2-0.9c-7.8-1.1-15.5-4.1-22.7-7.7c-1.6-0.8-3.3-1.4-5-1.6c-2-0.3-3.8-0.2-3.8,2.6
			c0,8.8,0,17.5,0,26.3c0,2.5,1.2,4.2,4,4.5c7.5,1.1,14.9,2.7,22.5,3.6c3.4,0.5,6.9,0.9,10.4-0.3c2.3,0,4.4,0.1,6.7,0.1
			c3.3,4.4,7.9,2,12,2.6c1.9,0.2,3.3-0.7,4-2.6c2,0,4-0.1,6-0.1c0.7,0.8,1.6,0.6,2.5,0.6c8.7-0.1,16.8-2.3,24.8-6
			c16.5-7.8,26-21.1,29.9-38.6C1365.1,206.1,1364.4,199.2,1362.4,192z"/>
		<g>
			<path class="st0" d="M177.9,410.7c0,0.5-0.2,1,0,1.4c0.3,0.5,0.9,0.2,1-0.5C179,411.1,178.5,410.9,177.9,410.7z"/>
			<path class="st0" d="M486.4,256.5c0.8-1.4,0.7-3.1,0.1-4.3c-0.9-1.7-2.3-3.2-2-5.4c0.2-2-1.1-3.8-2.8-3.6
				c-2.3,0.2-2.5,2.3-1.7,4.3c-0.1,0.9-0.2,1.9-0.3,2.8c-0.2,0.1-0.5,0.2-0.6,0.5c-2.6,6.1-3.1,13-6.2,18.9c-1.6,2.9-1.7,7-5.8,8.1
				c-0.5,1-0.3,2,0,3.1c-4.1,6-7.7,12.3-14.5,15.8c-3.2,4.9-8.5,7-13.3,9.7c-7.8,4.3-15.7,8.4-24.3,10.9c-7.9,2.4-16.2,4.2-24.5,4.9
				c-16.4,1.4-32.7,0-49-2.5c-5.3-0.9-10.6-1.8-15.9-2.8l0,0c-1-1.4-3.2-0.5-4-2.3c-3.8-0.7-7.7-1.4-11.3-2.8
				c-1.4-0.6-2.5-1.1-3.8-0.3c-0.9-0.1-1.9-0.2-2.8-0.3c-1-2.8-3.3-2.5-5.7-2.1c-0.7-0.1-1.4-0.2-2-0.2l0,0c-1-2.4-2.8-2.5-4.9-1.9
				l0,0c-0.7-0.1-1.2-0.2-1.9-0.3l0,0c-1.1-1.8-2.5-2.7-4.6-1.7c-0.7-0.1-1.4-0.2-2.1-0.3c-0.5-2.4-2.3-2-4-1.9
				c-0.7-0.1-1.4-0.2-2.1-0.3c-2-0.3-4.1-1-5.9-1.8c1.9,0.8,3.8,1.5,5.9,1.8c0-1.4-1-2.4-2-2.3c-2.9,0.5-4.6-2.1-7.1-2.5
				c-1.5-0.2-2.4-2-4.1-1.2c-0.6-0.1-1.2-0.2-1.8-0.3c-0.7-1.8-2-2.5-4-2c-0.5-0.1-0.9-0.2-1.4-0.5c0.1-1.9-1.6-2.1-2.7-2.5
				c-3.2-1.1-6.1-2.7-9-4.4c-3.6-2-6.9-4.6-11.1-5.4c-0.5-0.1-0.8-0.3-1.2-0.5c-3.8-4.5-9.4-6.1-14.5-8.6c-0.5-0.2-0.8-0.3-1.2-0.6
				c-1.9-2.8-4.4-4.7-7.9-5.4l0,0c-0.5-0.2-0.8-0.3-1.2-0.6c0.2-0.9-0.3-1.6-0.9-1.9c-3.5-1.8-6.4-4.5-9.6-6.8
				c-14.1-9.6-27.4-19.9-35.5-35.5c-0.9-1.7-1.6-4.9-4.1-4.1c-2.5,0.9-1.1,3.8-1,6c0,3.4,0,6.8,0,10.2c0.7,2.8,1.7,5.7,2,8.5
				c1,11.1,5.3,21,10.2,30.9c0.2,0.5,0,1,0.1,1.5c8.6,11.3,17.1,22.7,28.7,31.2c4.1,1.4,7.1,4.4,10.6,6.6
				c8.4,5.2,17.4,8.5,26.6,11.9c6.9,2.5,13.9,4.1,20.9,6.2c1.1,0.3,2.5,0.2,3.7,0.5c1.8,0.3,3.8,0,4.9,2c1.2,0.1,2.4,0.3,3.6,0.5
				c2.3,3.4,5.5,2.1,8.6,2c0.9,0.1,1.8,0.1,2.7,0.2c2.1,1.9,4.7,2.1,7.5,2.3c3.3,0.1,6.6,0.7,10,1.1c5,0.7,10,1.7,15,0.6
				c2.7,0,5.4-0.3,8.1,0.3c0.2,1.4,1.2,2.1,2.5,2.6c0.1-0.8,0.2-1.5,0.3-2.3c-0.2-0.2-0.5-0.3-0.8-0.5c0.2,0.1,0.5,0.2,0.8,0.5
				c4.9-1,9.6-1.1,14.4,0.2c6.9-0.3,13.8-1.2,20.7-0.6c1.7-0.1,3.4-0.2,5.2-0.2c3.4,1,6.9,0.7,10.2-0.3c5.1-1.5,11,0,15.5-3.7
				c0.7-0.1,1.2-0.1,1.9-0.2c2.5,0.2,5.1,1.1,6.4-2c0.9-0.1,1.9-0.3,2.8-0.5c0.6,0.7,1.5,0.6,2.1,0.3c6.8-2.3,13.8-4.1,20.2-7
				c11.2-5.1,22.4-10.1,32.6-17.2c8-5.7,14.6-12.6,20-20.7c4.2-6.6,7.1-13.8,10-20.9c0.9-2.4,3.6-4.9,2.3-8.1
				C486.4,258.4,486.4,257.4,486.4,256.5z"/>
			<path class="st0" d="M321.7,412.1c0.3,0.5,0.8,0.6,1.1-0.1c-0.2-0.2-0.6-0.6-0.8-0.8C321.6,411.3,321.4,411.8,321.7,412.1z"/>
		</g>
		<g>
			<path class="st2" d="M168.2,274.5c8.6,11.3,17.1,22.7,28.7,31.2c-0.1,2.1-0.3,4.2-0.3,6.3c0,31.2,0,62.5,0,93.7
				c0,2.5-0.1,4.6-2.7,5.9c-5,0-10.1,0-15,0c-0.1-0.7-0.6-0.9-1.1-0.9c-0.1-1.7-0.2-3.5-0.2-5.2c0-34.7,0-69.3,0-104
				c0-1.6-0.1-3.3-0.1-4.9c0.6-3.5-2-2.8-3.8-2.8c-31.8,0-63.4,0-95.2,0c-7.1,0-14.4-0.1-21.5,0.1c-2.8,0.1-3.7-0.9-3.6-3.7
				c0.2-3.5,0-7,0-10.5c0-5,0-5,4.9-5c34.8,0,69.8,0,104.6,0C164.7,274.7,166.5,274.6,168.2,274.5z"/>
			<path class="st2" d="M467.2,280.9c-4.1,6-7.7,12.3-14.5,15.8c-0.8,0-1.5-0.1-2.3-0.1c-34.9,0-69.9,0-104.8-0.1
				c-3.2,0-3.8,1.5-3.8,4.1c0,6.3,0,12.8-0.1,19.1c-5.3-0.9-10.6-1.8-15.9-2.7c-1-1.4-3.2-0.5-4-2.3c0.1-12.6,0.1-25.1,0.2-37.7
				c1.8-0.9,3.6-0.7,5.5-0.7c46.4,0,92.7,0,139.1,0c0.1,0.5,0.3,0.9,0.5,1.4C466.6,278.8,466.8,279.9,467.2,280.9z"/>
			<path class="st2" d="M182,126.2c2.1-1.4,4.7-0.5,6.4,0.3c4.2,1.9,9.6,0.8,13,4.9c0,8.7,0,17.4,0,26.1c0,1.5,0.2,3.1-1,4.2
				c-1.7,0.7-3.4,0.5-5.2,0.5c-45.7,0-91.4,0-136.9,0.1c-0.5-0.8-0.9-1.7-1.5-2.6c0.5-6-0.7-11.9,0.7-17.9c1.6-0.1,3.3-0.3,4.9-0.3
				c22.2,0,44.3,0,66.5,0c16.4,0,32.8,0,49.2,0c2.8,0,4.1-0.7,4-3.8C181.8,134,182,130.2,182,126.2z"/>
			<path class="st2" d="M322.1,340.4c4.9-1,9.6-1.1,14.4,0.2c4,0.5,5.2,2.5,5.1,6.7c-0.2,19.8-0.1,39.6-0.1,59.4
				c0,1.9,0,3.7-1.4,5.3c-5.8,0-11.6,0-17.4,0c-0.2-0.2-0.6-0.6-0.8-0.8c0-21.1,0-42.4-0.1-63.6c0-1.6-0.1-3.3-0.1-4.9
				C321.9,342,322,341.2,322.1,340.4z"/>
			<path class="st2" d="M326.3,152.2c0-1.8,0.1-3.5,0.1-5.3c0-38.2,0-76.4,0-114.8c0-5.4,0-5.4,5.5-5.4c2.4,0,4.7,0,7.1,0
				c5.2,0,5.2,0,5.2,5.1c0,34.8,0,69.7,0,104.6c0,0.8,0.1,1.5,0,2.3c-0.3,2.3,1,3.2,3.1,3.3c1.2,0.1,2.5,0.1,3.7,0.1
				c37.8,0,75.5,0,113.3,0c5.2,0,5.2,0,5.2,5.2c0,3.1,0,6,0,9c0,5-0.1,5.1-5,5.1c-3.1,0-6,0-9,0c-38.9,0-77.8,0-116.7,0
				c-1.6,0-3.3,0.1-4.9,0.2c-1.4,0-2.6-0.2-3.1-1.6C329.9,157.1,326.8,155.5,326.3,152.2z"/>
		</g>
		<path class="st1" d="M1728.9,374.2c-0.1-2.6,0.1-5.4-2-7.8c-5-5.3-12.1-6.4-19.1-2.7c-2,1.1-3.3,1.8-5.3-0.5
			c-2.1-2.4-5.4-1.2-8.1-0.5c-2.6,0.8-1.5,3.2-1.6,4.9c-0.1,4.6,0,9.3,0,13.9l0,0c0,5.4,0.1,10.7,0,16.2c-0.1,3.5-1.1,3.8-4.1,2.3
			c-2.6-1.2-3.4-3.1-3.4-5.9c0.1-7.4,0-14.8-0.1-22.2c0-4-2.1-6.4-5.5-8.3c-7.5-3.8-14.8-2.3-22.3,0c-3.3,1-4.7,3.8-3.2,7
			c1.4,2.8,3.7,0.9,5.7,0.2c3.4-1,6.8-2.1,10.3-1.5c3.2,0.6,4.6,3.2,4.5,6.8c-0.1,3.5-2.7,2.9-4.9,3.2c-6.3,0.6-12.4,1.9-16.7,7.2
			c-1.9,2.5-2.4,1.6-3.1-0.8c-1.6-4.7-4.5-8.3-9.3-10.6c-5-2.5-9.5-5.9-14.1-9.2c-2.6-1.9-3.8-4.7-2.8-7.9c1-3.2,3.6-4.1,6.8-4.3
			c3.6-0.2,6.9,0.8,10.3,2c3.5,1.2,6,0.2,6.7-2.5c0.7-2.6-1.2-5.5-4.3-6.3c-5.7-1.5-11.4-1.7-17.2-0.9c-6.8,0.9-11.4,5.2-13.2,11.8
			c-1.7,6.1,0.2,11.2,5.2,15.4c5.1,4.2,11.1,6.8,16.4,10.6c2,1.5,3.4,3.3,3.8,5.8c0.9,5.9-4.2,10.6-10.7,9.6
			c-2.8-0.5-5.7-0.9-8.3-2.3c-2-1.1-4.6-2-6.7-0.7c-1.9,1.2-0.5,7.5,1.8,8.4c6.9,2.7,14.1,2.7,21.1,1.5c5.2-0.9,10.9-2.5,13.2-8.6
			c0.7-1.8,1.9-1.4,2.4,0.3c0.9,3.3,3.1,5.3,6,6.9c5.5,2.8,11,2.4,16.2-0.7c1.9-1.1,3.2-1,5.1,0.1c4,2.5,8.3,3.7,12.7,0.6
			c1.1-0.8,1.9-0.1,3.1,0.5c6.1,2.9,9.8,0.5,9.8-6.1c0-5.7,0.2-11.3-0.1-17c-0.2-4.5,2.4-7.4,5.4-10.1c2-1.8,4.4-2.4,6.9-1.1
			c2.5,1.1,2.6,3.4,2.6,5.8c0,8.4,0.1,16.8-0.1,25.2c-0.1,4.4,2.8,4,5.5,4.1c2.8,0.1,5.3-0.2,5.3-4.1
			C1729,392.8,1729.1,383.5,1728.9,374.2z M1674.7,390.5c0,5.7-4.6,9.3-9.7,8c-3.7-0.9-5.2-6-2.5-9s6.3-4,10.2-3.6
			C1676.2,386.2,1673.9,389.4,1674.7,390.5z"/>
		<path class="st1" d="M759.6,165.5c0-27.5,0-55,0-82.4c0-5,0-5,5-5c8.3,0,16.6,0.1,24.9,0c2.7,0,4.6,0.7,6.2,3.2
			c6.4,10,13.2,19.8,19.8,29.6c6.7,9.8,13.6,19.6,20.1,29.6c5.1,7.8,10.4,15.5,15.4,23.3c6.2,9.8,13.1,19.3,19.7,28.9
			c0.6,0.9,1.1,1.7,2.4,1.4c1.4-0.3,1-1.6,1.1-2.5c0.1-1.4,0-2.7,0-4.2c0-34.7,0-69.4,0-104.3c0-5,0.1-5.1,5-5.2
			c6.9,0,13.8,0.1,20.7,0c2.8-0.1,4.1,0.7,4.1,3.7c-0.1,55.7-0.1,111.6,0,167.4c0,2.5-0.7,3.6-3.4,3.5c-9-0.1-18.1-0.1-27.1,0
			c-1.6,0-3.1-0.1-4-1.6c-5.2-8.6-11.1-16.7-16.7-25.1c-10.2-15.3-20.2-30.6-30.4-45.9c-7.6-11.4-15-22.7-22.6-34.2
			c-2.1-3.2-4.3-6.3-6.3-9.5c-0.5-0.7-0.7-1.5-1.6-1.4c-1.1,0.1-1.1,1.1-1.2,2c-0.1,1.6-0.2,3.3-0.2,4.9c0,35.3,0,70.5,0,105.7
			c0,5,0,5-4.9,5.1c-7,0-14-0.2-21,0.1c-3.5,0.1-4.7-0.8-4.6-4.5C759.7,220.7,759.6,193.1,759.6,165.5z"/>
		<path class="st1" d="M1106.7,78.1c-5.5,0.1-11.1,0.2-16.5-0.1c-3.8-0.2-5.4,1.8-6.4,4.9c-0.3,0.9-0.3,2-0.7,2.9
			c-3.6,9.8-7.2,19.7-10.9,29.6c-2.4,6.7-4.5,13.3-6.9,19.9c-2.6,7.2-5.3,14.4-7.9,21.6c-2.5,6.9-4.5,13.8-7.2,20.6
			c-3.7,9.4-7.1,19-10.2,28.6c-0.6,1.7-1.7,3.1-2.6,4.5c-0.8,1.2-1.7,1.4-2.4-0.3c-2.7-7.8-5.7-15.6-8.7-23.3
			c-3.6-9-6.6-18.3-10-27.5c-1.7-4.6-4-9.2-5.4-14c-2.1-7.1-5-14-7.5-20.9c-1.6-4.5-3.3-8.9-5.2-13.3c-1.6-3.6-2.6-7.4-4.1-11.1
			c-1.8-4.7-3.6-9.6-5.2-14.5c-1.9-6.2-3.6-7.6-10.1-7.6c-4.3,0-8.5,0-12.8,0c-5,0-10.1,0-15,0c-2.1,0-3.8,0.6-2.4,3.1
			c2.5,4.3,3.4,9.3,5.3,13.8c3.6,8.8,5.9,18.1,9.6,26.9c3.6,8.7,6.2,17.8,10,26.3c5.2,11.9,8.3,24.5,14.1,36.3
			c3.8,7.8,6.3,16.3,8.9,24.7c2,6.6,5.1,12.8,7.1,19.5c2.1,7.1,5.2,13.9,7.6,21c0.8,2.4,2,3.2,4.3,3.2c9.6,0,19.3,0,28.9,0
			c3.2,0,4.6-1.8,5.3-4.6c0.2-1,0.1-2,0.6-2.9c3.7-7.4,5.3-15.4,8.5-23c1.8-4.5,2.7-9.3,4.6-13.7c4.1-9.4,6.7-19.3,10.5-28.8
			c1.8-4.6,2.9-9.5,5.1-14c3.2-6.8,4.9-13.9,7.5-20.8c2.1-5.7,4.3-11.3,6.1-17.1c1.5-4.9,3.5-9.4,5.7-14c2.4-5.2,4.2-10.7,6-16.3
			c1.7-5.3,4.2-10.3,5.3-15.8C1110.2,79,1109.2,78.1,1106.7,78.1z"/>
		<path class="st1" d="M1545.9,252.7c-4.6,0-9.3-0.2-13.9,0.1c-3.5,0.2-5.4-1.5-6.4-4.4c-2.4-6.4-4.4-13.1-7.1-19.5
			c-2.7-6.4-5.1-12.9-7.5-19.5c-1.1-3.3-3.3-4.2-6.6-4.2c-21,0.1-42.2,0.2-63.2,0c-3.7,0-5.7,1.6-6.9,4.5c-1.7,4.1-2.9,8.4-4.6,12.6
			c-2,5-4,10-6.6,14.8c-2.3,4.1-3.7,8.6-5.3,13.1c-0.7,2-1.7,2.5-3.5,2.5c-6.4,0-12.8,0-19.2,0c-2.8,0-3.6-1.5-2.4-4.2
			c4.6-10.7,8.8-21.7,12.9-32.8c4.1-11.1,8.7-22.1,12.8-33.1c3.2-8.5,7.7-16.5,11-25c1.5-3.8,3.1-7.8,4.4-11.8
			c2.6-7.4,5.4-14.6,8.5-21.8c2.6-6.1,4.6-12.6,7-18.8c1.8-4.7,4-9.5,5.9-14.2c1.1-2.7,2-5.5,2.9-8.4c0.9-2.9,2.5-4.5,6-4.4
			c9.2,0.2,18.3,0.3,27.5-0.1c4.4-0.2,6,2.1,7.2,5.4c3.4,8.7,6.7,17.3,10,26c2.6,6.9,4.6,13.9,7.7,20.6c4,8.4,6.3,17.4,10.2,25.8
			c2,4.3,3.2,9.4,5.3,13.6c3.1,5.9,4.7,12.1,7.5,18c2.1,4.6,3.7,9.4,5.5,14.1c2.6,6.7,5,13.5,7.6,20.1c2.6,6.8,5.8,13.3,7.8,20.4
			c0.8,2.7,1.6,5.7,3.1,8c1.6,2.6,0.5,2.7-1.6,2.7C1556.4,252.7,1551.1,252.7,1545.9,252.7z M1473,182.4c7.6,0,15-0.1,22.6,0
			c2.8,0,3.8-1.2,2.9-3.7c-1.5-4.2-3.3-8.3-5-12.4c-3.2-7.8-6.6-15.6-9.3-23.5c-2.3-6.6-5-13-7.6-19.3c-1-2.4-1.1-5.2-2.9-7.1
			c-0.8-0.8-2-2.5-2.6-0.1c-1.7,6.4-4.9,12.2-7,18.4c-2.9,8.5-6.7,16.8-9.8,25.3c-2.3,6-4.5,12.1-7,18c-1.2,2.9,0,4.5,3.2,4.5
			C1457.9,182.5,1465.4,182.4,1473,182.4z"/>
		<path class="st1" d="M697.9,252.7c-5,0-10.1,0-15,0c-1.9,0-2.8-0.7-3.5-2.5c-3.4-8.9-7.4-17.6-10.4-26.6
			c-1.6-4.4-3.7-8.7-4.7-13.3c-0.7-2.9-2.5-4.4-5.5-4.4c-22.1,0-44.2,0-66.3,0c-2.7,0-4.3,1.2-5.2,3.5c-3.8,9.8-7.4,19.7-11.3,29.5
			c-1.6,3.8-3.4,7.5-4.5,11.4c-0.5,1.6-1.7,2.5-3.4,2.5c-7.2,0-14.6,0-21.8,0c-1.5,0-2.7-0.1-1.7-2.4c2.1-5.1,3.4-10.7,6.1-15.6
			c5.8-10.7,9.2-22.4,13.6-33.6c5.1-12.9,10.2-25.8,15.2-38.7c4.4-11.9,9.6-23.4,13.9-35.3c2.4-6.8,5.2-13.5,7.8-20.1
			c2.5-6.3,4.6-12.9,7.6-19.1c1.1-2.4,1.4-4.9,2.7-7.2c1.2-2,2.5-3.1,4.6-3.1c10,0,19.8,0,29.7,0c5.2,0,5.2,4.5,6.4,7.5
			c2.8,6.3,4.1,13.3,7.4,19.5c5.7,10.5,8.7,22.1,13.2,33c2.6,6.2,5.2,12.3,7.5,18.7c2.5,7,5.3,13.9,7.9,20.8
			c2.4,6.4,4.9,12.9,7.6,19.3c2.7,6.4,5,13,7.5,19.5c2.6,6.8,5.3,13.6,7.9,20.4c1.7,4.5,3.4,9,5.1,13.6c0.9,2.4-0.1,3.2-2.4,3.2
			C708.2,252.7,703.1,252.7,697.9,252.7z M624.7,182.4c7.2,0,14.6,0,21.8,0c4.4,0,5-0.8,3.5-4.7c-2-5.3-4.5-10.5-6.3-15.9
			c-5.3-15.3-11.9-30.1-17.3-45.2c-0.2-0.6-0.6-1.4-0.9-1.5c-0.9-0.3-1.1,0.7-1.5,1.2c-3.8,6.8-5.7,14.2-8.6,21.4
			c-2.7,6.4-5,13-7.5,19.5c-2.6,6.8-5.4,13.6-7.9,20.5c-1.5,4-0.7,4.7,3.6,4.7C610.7,182.5,617.7,182.4,624.7,182.4z"/>
		<path class="st1" d="M1267.6,347.9c2.8-0.6,4.6,0.9,5.7,4.1c4.3,12.1,8.7,24.2,13.2,36.2c0.3,1,0.5,2.5,1.9,2.4
			c1.4-0.1,1.6-1.5,1.9-2.5c4.4-12.3,8.8-24.8,13.2-37.1c0.9-2.6,5-4.2,7.4-2.7c1.5,0.9,1,2,0.6,3.3c-3.5,9.7-7,19.6-10.4,29.3
			c-2.6,7.2-5.3,14.6-7.8,21.8c-0.9,2.7-2.8,2.7-5.1,2.7c-2.3,0-4.4,0.1-5.4-2.7c-6.1-16.4-12.2-32.7-18.4-49.1
			c-0.1-0.3-0.1-0.8-0.2-1.1C1262.5,348.1,1262.6,348,1267.6,347.9z"/>
		<path class="st1" d="M1320.7,348c3.1-0.6,4,1,4,4.1c0,3.4-1.7,4.2-4.7,4.2c-3.3,0-4.2-1.5-4.3-4.6
			C1315.5,347.6,1317.9,347.9,1320.7,348z"/>
		<path class="st1" d="M1819.3,384.3c0-5.3,0-10.5,0-15.8c0-4.9,3.6-7.4,7.9-4.9c2.9,1.8,5,1.2,7.5-0.1c1.9-1,4-1.5,6.1-1.5
			c2.8,0,4,1.6,4,4s-1.4,4-3.7,3.7c-4.9-0.3-7.6,2.3-10.1,5.9c-1,1.6-1.6,2.9-1.6,4.9c0.1,6.9-0.1,13.8,0.1,20.7
			c0.1,3.5-1.9,4.3-4.6,4.4c-4.4,0.2-5.4-0.8-5.4-4.5C1819.3,395.5,1819.3,389.8,1819.3,384.3z"/>
		<path class="st1" d="M256.8,186.7c-17.3,0.2-30.9,15.6-30.8,31.2c0.1,18,12.1,32.9,31.7,32.9c15.7,0.7,30.8-15.3,30.8-31.9
			C288.3,202.3,273.4,186.5,256.8,186.7z M282.7,231.4c-1.7,4.5-4.3,8.1-7.8,11C278.4,239.5,281,235.9,282.7,231.4
			c0.9,0.1,1.2-0.2,1.6-0.8C284,231.2,283.6,231.5,282.7,231.4z"/>
		<path class="st1" d="M1746.4,384.7c0,5.7-0.1,11.3,0,17c0.1,3.6-2.4,3.8-4.7,3.8c-2.3,0-5.2,0.2-5.1-3.7c0.1-11.6,0.1-23.3,0-34.9
			c0-3.8,2.5-3.8,5-3.8c2.7-0.1,5,0.6,4.9,4.2C1746.3,373,1746.4,378.9,1746.4,384.7z"/>
		<path class="st1" d="M768.6,384.1c0,6-0.1,12,0,18c0.1,3.2-1.6,3.3-4.1,3.4s-3.6-0.7-3.6-3.4c0.1-11.9,0.1-23.7,0-35.6
			c0-3.1,1.6-3.4,4.1-3.4s3.6,0.8,3.5,3.5C768.6,372.3,768.6,378.2,768.6,384.1z"/>
	</g>
</g>
</svg>
