<?xml version="1.0" encoding="utf-8"?>
<!-- Generator: Adobe Illustrator 26.0.3, SVG Export Plug-In . SVG Version: 6.00 Build 0)  -->
<svg version="1.1" id="Camada_1" xmlns="http://www.w3.org/2000/svg" xmlns:xlink="http://www.w3.org/1999/xlink" x="0px" y="0px"
	 viewBox="0 0 1920 806.5" style="enable-background:new 0 0 1920 806.5;" xml:space="preserve">
<style type="text/css">
	.st0{fill:#DD0C19;}
	.st1{fill:#37444C;}
</style>
<g>
	<g>
		<path class="st0" d="M76.3,430.7c18.1,0,38.7-5.3,53.7,1.5c16.9,7.6,11.7,31.9,17.3,48.6C198,630.4,388.7,712.4,540.7,611.7
			c55-36.4,92.5-91.1,103.4-158.6c3.3-20.5,11.7-24.6,30-23.6c26.3,1.3,52.6,0.7,78.9,0.3c13.2-0.3,17.9,4.5,15.5,17.7
			c-19.4,113.7-70.8,209-172.6,269.2c-37.5,22.2-77.2,45.8-121.2,53.9c-82.1,15.3-161.7,4.1-238.4-29.5
			C120.2,690,52.2,600.5,22.9,479.6c-12.1-49.8-11.8-49.8,39.7-49.8c4.5,0,9,0,13.6,0C76.3,430.1,76.3,430.3,76.3,430.7z"/>
		<path class="st0" d="M707.4,370.3c-18.1,0-38.5,5.2-53.7-1.5c-15.8-6.9-10.4-30.3-15.8-46.1C579.2,151.9,376.2,94.2,233.4,205.1
			c-50.2,39.1-78.8,86.9-92.6,146c-3.5,15.1-9.2,21.1-25.1,20.5c-26.3-1.1-52.6-1.1-78.9,0.3c-18.3,0.9-21-6-18.2-22.3
			C37.9,235.2,92.5,144.7,195.3,85C315.1,15.4,439.2,4,562.6,68.3C675,126.9,747,219.5,767.4,347.7c3.3,20.9-3.2,25.5-21.8,24
			c-12.6-1.1-25.4-0.1-38.1-0.1C707.4,371.2,707.4,370.8,707.4,370.3z"/>
		<path class="st1" d="M1041.3,393.4c41.3,20.2,56.2,45,50.2,81.4c-5,30.7-31.6,54.3-72.9,57.4c-42.4,3.3-85.2,1.2-127.8,2
			c-12.2,0.3-12.5-6.5-12.5-15.5c0.1-77.6,0.4-155.1,0-232.6c0-12.8,4.1-17.5,17.3-17.3c37.2,0.8,74.5-1.1,111.5,1.3
			c53,3.3,78.8,32.3,73.1,76.9C1077.2,370.3,1061.3,382.8,1041.3,393.4z M937.6,425.3c0.3,65.5,0.3,65.5,63.8,58.7
			c18.1-1.9,32.3-9.4,32.8-29.1c0.5-20.5-14.9-24.7-31.9-29.8c-17-5-45.2,14.2-50.1-13.3c-6.4-35.3,24.6-37.3,50-41.2
			c12.5-1.9,18.7-10,19.3-22.3c0.5-13.6-5.8-22.2-19.1-25.6c-14.1-3.7-28.4-3.9-43-4.4c-16.5-0.7-22.7,4.8-22.1,21.5
			C938.2,368.2,937.6,396.7,937.6,425.3z"/>
		<path class="st1" d="M1811,470.9c0,9,1.1,18.2-0.3,27c-1.7,11.8,7.2,31.4-5,33.9c-15.9,3.3-37.2,12.4-51.9-6.4
			c-6.8-8.6-11.3-0.8-15.7,2c-18.7,12-39.2,14.1-60.1,10.1c-25.1-4.8-43-19-47.6-45.3c-4.8-27.6,6.6-50.5,32.7-61.5
			c16.7-7,33.6-15,54.2-7.4c12.4,4.7,32.4-3.3,34-12.5c2.7-15.8-13.7-23-29.2-25.2c-12.2-1.7-25.1-0.3-33.5,7.8
			c-22.5,21.7-33-1.6-45.4-11.6c-11.4-9,2.5-18.7,7.4-19.8c28.7-6.2,56.2-18.5,87.2-14.6c44.8,5.6,69,27.6,72.4,72.1
			c1.3,17,0.3,34.1,0.3,51.3C1810.6,470.9,1810.7,470.9,1811,470.9z M1736.3,453.6c-32.2,0.4-53.7,11.4-51.4,27.4
			c2.1,15.5,14.5,19.1,28,19c23-0.3,40.8-15.5,41.6-34C1755.3,450.9,1745,454,1736.3,453.6z"/>
		<path class="st1" d="M1429.7,472.3c0,10.8,0,21.7,0,32.4c0,28-20.5,42.4-43.3,25.8c-15.9-11.7-23-3.5-34,1.5
			c-44,19.8-93.4-1.3-99-42.3c-5.6-41.9,36.4-78.9,81.7-68.2c14.9,3.6,23.6-4.5,35.5-6c10.9-1.3,4-11.3,0.4-16.7
			c-11.4-16.9-37.2-18.6-61.5-4.7c-14.5,8.4-36.4,0-40.8-15.1c-2.3-7.6,3.3-9.4,7.6-12.2c35.2-22.5,73.1-25.9,112-12.9
			c31.5,10.5,38.4,38.3,40.8,67c1.5,17,0.3,34.3,0.3,51.4C1429.4,472.3,1429.5,472.3,1429.7,472.3z M1357.3,453.2
			c-16.6,5.4-43.7-2.7-48.2,25.4c-2.8,17,12.9,21.3,27.5,21.3c23.4,0,40.4-15,40.9-33.9C1377.7,451.2,1367.5,454.1,1357.3,453.2z"/>
		<path class="st1" d="M1528.1,538.8c-12.6-0.4-25.4,0-37.5-4.8c-11.8-4.7-31.1-8.5-30.7-18.3c0.5-11.6,14.6-22.9,23.5-33.7
			c5.8-7.2,11-2.7,15.5,2.4c12,13.6,27.9,10.6,43,10c6.5-0.3,12.8-2.9,13.4-10.8c0.7-7.6-4.3-11.8-10.6-13.7
			c-11.3-3.2-23-5-34.3-8.5c-25.2-7.6-48-17.9-49.3-49.6c-1.2-28.6,10.2-46.6,42.1-58.5c28.2-10.5,57.1-9.3,84.5,4
			c7.7,3.7,21.4,13,14,18.3c-11.3,8.1-15.4,31.5-37.1,22.5c-3.3-1.3-6-4.4-9.3-5.4c-13.4-4.1-30.3-8-35.2,8
			c-5,16.1,13.3,15.1,23.5,19c22.3,8.4,49.8,8.2,62.3,33.5c16.2,32.6,0.1,68.7-34.8,80.1C1557.2,537.7,1542.9,539.6,1528.1,538.8z"
			/>
		<path class="st1" d="M1902.9,392.3c0,40.5-1.5,81,0.5,121.6c1.2,24.7-14.3,20.3-27.9,19.4c-13.2-0.8-31.4,8.6-30.8-19.3
			c1.5-81,1.3-162.1-0.1-243c-0.4-24.8,13.6-22.3,29.4-21.9c15,0.4,30.8-4.1,29.5,21.7C1901.3,311.3,1902.9,351.8,1902.9,392.3z"/>
		<path class="st1" d="M1120.9,446.1c0-24.3-0.5-48.6,0.4-72.8c0.3-7.7-6-22.1,7.6-21.5c16.3,0.5,37.7-12.4,48.6,8.1
			c5.4,10.2,6.5,10,14,3.9c6.1-5.2,12.8-10.9,20.2-13c11.8-3.3,27.4-9.3,36,0.3c8.8,9.8,3.6,25.9,2.7,39.1
			c-0.8,11.3-10.4,6.2-17,6.2c-40.7-0.1-53.4,12-54.5,52.7c-0.5,21.5-1.3,43.3,0.3,64.7c1.3,17.3-5,22.7-21.4,20.6
			c-7.2-0.9-14.5-0.5-21.7,0c-11.4,0.8-17.3-0.1-15.7-15.4C1122.8,494.9,1120.9,470.3,1120.9,446.1z"/>
	</g>
</g>
</svg>
