<?xml version="1.0" encoding="utf-8"?>
<!-- Generator: Adobe Illustrator 26.0.3, SVG Export Plug-In . SVG Version: 6.00 Build 0)  -->
<svg version="1.1" id="Camada_1" xmlns="http://www.w3.org/2000/svg" xmlns:xlink="http://www.w3.org/1999/xlink" x="0px" y="0px"
	 viewBox="0 0 1920 1920" style="enable-background:new 0 0 1920 1920;" xml:space="preserve">
<style type="text/css">
	.st0{fill:#DD0C19;}
	.st1{fill:#37444C;}
</style>
<g>
	<g>
		<path class="st0" d="M294.9,981.9c13.6,0,29.1-4,40.4,1.1c12.7,5.7,8.8,24,13,36.6c38.2,112.6,181.7,174.3,296.1,98.5
			c41.4-27.4,69.6-68.6,77.8-119.4c2.5-15.4,8.8-18.5,22.6-17.8c19.8,1,39.6,0.5,59.4,0.2c9.9-0.2,13.5,3.4,11.7,13.3
			C801.3,1080,762.6,1151.7,686,1197c-28.2,16.7-58.1,34.5-91.2,40.6c-61.8,11.5-121.7,3.1-179.4-22.2
			c-87.5-38.4-138.7-105.7-160.7-196.7c-9.1-37.5-8.9-37.5,29.9-37.5c3.4,0,6.8,0,10.2,0C294.9,981.4,294.9,981.6,294.9,981.9z"/>
		<path class="st0" d="M769.9,936.4c-13.6,0-29,3.9-40.4-1.1c-11.9-5.2-7.8-22.8-11.9-34.7c-44.2-128.6-197-172-304.5-88.5
			c-37.8,29.4-59.3,65.4-69.7,109.9c-2.6,11.4-6.9,15.9-18.9,15.4c-19.8-0.8-39.6-0.8-59.4,0.2c-13.8,0.7-15.8-4.5-13.7-16.8
			c14.6-86.1,55.7-154.2,133-199.1c90.2-52.4,183.6-61,276.5-12.6c84.6,44.1,138.8,113.8,154.1,210.3c2.5,15.7-2.4,19.2-16.4,18.1
			c-9.5-0.8-19.1-0.1-28.7-0.1C769.9,937.1,769.9,936.8,769.9,936.4z"/>
		<path class="st1" d="M1021.2,953.8c31.1,15.2,42.3,33.9,37.8,61.3c-3.8,23.1-23.8,40.9-54.9,43.2c-31.9,2.5-64.1,0.9-96.2,1.5
			c-9.2,0.2-9.4-4.9-9.4-11.7c0.1-58.4,0.3-116.7,0-175.1c0-9.6,3.1-13.2,13-13c28,0.6,56.1-0.8,83.9,1c39.9,2.5,59.3,24.3,55,57.9
			C1048.2,936.4,1036.2,945.8,1021.2,953.8z M943.1,977.8c0.2,49.3,0.2,49.3,48,44.2c13.6-1.4,24.3-7.1,24.7-21.9
			c0.4-15.4-11.2-18.6-24-22.4c-12.8-3.8-34,10.7-37.7-10c-4.8-26.6,18.5-28.1,37.6-31c9.4-1.4,14.1-7.5,14.5-16.8
			c0.4-10.2-4.4-16.7-14.4-19.3c-10.6-2.8-21.4-2.9-32.4-3.3c-12.4-0.5-17.1,3.6-16.6,16.2C943.6,934.8,943.1,956.3,943.1,977.8z"/>
		<path class="st1" d="M1600.5,1012.1c0,6.8,0.8,13.7-0.2,20.3c-1.3,8.9,5.4,23.6-3.8,25.5c-12,2.5-28,9.3-39.1-4.8
			c-5.1-6.5-8.5-0.6-11.8,1.5c-14.1,9-29.5,10.6-45.2,7.6c-18.9-3.6-32.4-14.3-35.8-34.1c-3.6-20.8,5-38,24.6-46.3
			c12.6-5.3,25.3-11.3,40.8-5.6c9.3,3.5,24.4-2.5,25.6-9.4c2-11.9-10.3-17.3-22-19c-9.2-1.3-18.9-0.2-25.2,5.9
			c-16.9,16.3-24.8-1.2-34.2-8.7c-8.6-6.8,1.9-14.1,5.6-14.9c21.6-4.7,42.3-13.9,65.6-11c33.7,4.2,51.9,20.8,54.5,54.3
			c1,12.8,0.2,25.7,0.2,38.6C1600.2,1012.1,1600.3,1012.1,1600.5,1012.1z M1544.3,999.1c-24.2,0.3-40.4,8.6-38.7,20.6
			c1.6,11.7,10.9,14.4,21.1,14.3c17.3-0.2,30.7-11.7,31.3-25.6C1558.6,997.1,1550.8,999.4,1544.3,999.1z"/>
		<path class="st1" d="M1313.5,1013.2c0,8.1,0,16.3,0,24.4c0,21.1-15.4,31.9-32.6,19.4c-12-8.8-17.3-2.6-25.6,1.1
			c-33.1,14.9-70.3-1-74.5-31.8c-4.2-31.5,27.4-59.4,61.5-51.3c11.2,2.7,17.8-3.4,26.7-4.5c8.2-1,3-8.5,0.3-12.6
			c-8.6-12.7-28-14-46.3-3.5c-10.9,6.3-27.4,0-30.7-11.4c-1.7-5.7,2.5-7.1,5.7-9.2c26.5-16.9,55-19.5,84.3-9.7
			c23.7,7.9,28.9,28.8,30.7,50.4c1.1,12.8,0.2,25.8,0.2,38.7C1313.3,1013.2,1313.4,1013.2,1313.5,1013.2z M1259,998.8
			c-12.5,4.1-32.9-2-36.3,19.1c-2.1,12.8,9.7,16,20.7,16c17.6,0,30.4-11.3,30.8-25.5C1274.4,997.3,1266.7,999.5,1259,998.8z"/>
		<path class="st1" d="M1387.6,1063.2c-9.5-0.3-19.1,0-28.2-3.6c-8.9-3.5-23.4-6.4-23.1-13.8c0.4-8.7,11-17.2,17.7-25.4
			c4.4-5.4,8.3-2,11.7,1.8c9,10.2,21,8,32.4,7.5c4.9-0.2,9.6-2.2,10.1-8.1c0.5-5.7-3.2-8.9-8-10.3c-8.5-2.4-17.3-3.8-25.8-6.4
			c-19-5.7-36.1-13.5-37.1-37.3c-0.9-21.5,7.7-35.1,31.7-44c21.2-7.9,43-7,63.6,3c5.8,2.8,16.1,9.8,10.5,13.8
			c-8.5,6.1-11.6,23.7-27.9,16.9c-2.5-1-4.5-3.3-7-4.1c-10.1-3.1-22.8-6-26.5,6c-3.8,12.1,10,11.4,17.7,14.3
			c16.8,6.3,37.5,6.2,46.9,25.2c12.2,24.5,0.1,51.7-26.2,60.3C1409.5,1062.4,1398.7,1063.8,1387.6,1063.2z"/>
		<path class="st1" d="M1669.7,953c0,30.5-1.1,61,0.4,91.5c0.9,18.6-10.8,15.3-21,14.6c-9.9-0.6-23.6,6.5-23.2-14.5
			c1.1-61,1-122-0.1-182.9c-0.3-18.7,10.2-16.8,22.1-16.5c11.3,0.3,23.2-3.1,22.2,16.3C1668.5,892,1669.7,922.5,1669.7,953z"/>
		<path class="st1" d="M1081.1,993.5c0-18.3-0.4-36.6,0.3-54.8c0.2-5.8-4.5-16.6,5.7-16.2c12.3,0.4,28.4-9.3,36.6,6.1
			c4.1,7.7,4.9,7.5,10.5,2.9c4.6-3.9,9.6-8.2,15.2-9.8c8.9-2.5,20.6-7,27.1,0.2c6.6,7.4,2.7,19.5,2,29.4c-0.6,8.5-7.8,4.7-12.8,4.7
			c-30.6-0.1-40.2,9-41,39.7c-0.4,16.2-1,32.6,0.2,48.7c1,13-3.8,17.1-16.1,15.5c-5.4-0.7-10.9-0.4-16.3,0
			c-8.6,0.6-13-0.1-11.8-11.6C1082.5,1030.2,1081.1,1011.7,1081.1,993.5z"/>
	</g>
</g>
</svg>
