<?xml version="1.0" encoding="utf-8"?>
<!-- Generator: Adobe Illustrator 26.0.3, SVG Export Plug-In . SVG Version: 6.00 Build 0)  -->
<svg version="1.1" id="Camada_1" xmlns="http://www.w3.org/2000/svg" xmlns:xlink="http://www.w3.org/1999/xlink" x="0px" y="0px"
	 viewBox="0 0 1920 964.3" style="enable-background:new 0 0 1920 964.3;" xml:space="preserve">
<style type="text/css">
	.st0{fill:#244692;}
	.st1{fill:#F4E422;}
</style>
<g>
	<g>
		<path class="st0" d="M497.4,420.8c0,13.9-0.2,27.8,0.2,41.7c0.2,4.7-1,5.4-5.4,4.2c-48.4-13.5-97.9-20.8-148.3-19.8
			c-39.8,0.9-77.3,9.7-110.4,32.8c-31.8,22.1-53.5,51.7-65.6,88c-16.7,49.8-17.4,100.5-3.1,151.1c14.1,50,44.1,87.9,91,111.3
			c26.6,13.4,55.2,18.9,84.9,19.6c38.9,0.9,77.3-3.5,115.5-11.1c16.7-3.3,25.5-10.8,32.8-26c43.6-93.2,88-186.1,133.2-278.7
			c12.8-26.4,25.5-53,38.7-79.2c1.7-3.3,3.5-4.7,7.3-4.7c39.8,0.2,79.5,0.2,119.3,0c4.2,0,5.9,1.6,7.5,5.2
			c25.7,62.5,51.4,125.2,77.1,187.7c24.5,59.4,49,118.8,73.4,178.1c0.3,0.9,0.9,1.7,1,2.6c1.4,6.8,5.9,9.9,12.3,12.5
			c24.5,9.7,49.1,18.4,75.2,22.9c28.5,5,56.8,6.6,85.1-2.6c35.4-11.6,47.1-46.9,24.7-77.3c-11.5-15.5-26.6-27.1-41-39.2
			c-25.3-21.2-52.4-40.3-77.1-62.3c-21.9-19.6-42.5-40.3-55.7-67.2c-28-57.1-6.4-120.5,50.5-149c26.6-13.2,55-18.2,84.4-19.3
			c42.2-1.6,83.9,3.1,125.2,11.6c2.6,0.5,4.9,0.9,5.2,4.7c3,25,5.9,50.2,9.4,75.2c0.7,5.4,0,5.7-4.9,4
			c-31.8-11.3-64.1-19.6-98.1-18.9c-20.3,0.3-39.8,3.8-56.3,16.8c-18.8,14.8-23.6,35.6-12.5,56.8c8.5,16.5,21.5,29.5,35.9,40.8
			c24,18.8,48.4,36.5,72.6,55c22.2,17.2,43.1,35.6,59.7,58.3c25.7,35.4,30.9,73.8,14.2,114.2c-10.4,25.3-29,43.9-53,57
			c-29.9,16.1-62.3,21.2-95.8,21.9c-42,0.9-83-5.6-123.8-14.2c-38.4-8.2-76.6-16-114.9-24c-3.5-0.7-5-2.4-6.3-5.6
			c-15.8-41.5-31.8-83-47.6-124.5c-3.3-8.7-3.3-8.7-12.3-8.7c-57.6,0-115.3,0-173.1-0.2c-4.2,0-6.3,1.2-8,5.2
			c-18.1,42.7-36.5,85.3-54.7,128c-1.6,3.5-3.6,5.2-7.1,6.4c-48.6,15.1-97.9,26.2-148.5,33.2c-40.5,5.6-80.9,6.1-121.2,1
			c-56.8-7.1-109.4-25-156.4-58.7c-45.5-32.6-75.5-76-91.7-129C21.9,685.9,21.4,622.2,37.7,559c13.9-54.5,42.5-100.2,87.7-134.6
			c31.6-24.1,66.8-41.2,105.2-51.7c49.8-13.9,100.7-17.4,152.1-14.2c36.3,2.3,72.2,7.1,108,13.9c4.2,0.9,5.7,2.3,5.7,6.6
			c-0.2,14.1,0,28.1,0,42.2C496.6,420.8,496.9,420.8,497.4,420.8z M724,527.6c-2.4,1.7-2.8,4.3-3.8,6.6
			c-6.4,14.2-12.7,28.5-18.9,42.7c-15.5,34.9-30.9,69.8-46.5,104.5c-1.7,3.8-1,4.9,3.1,4.7c40.6-0.2,81.4-0.2,122.1,0
			c4.3,0,5-0.9,3.5-5c-9.4-23.6-18.4-47.4-27.4-71.2C745.4,582.6,734.8,555.2,724,527.6z"/>
		<path class="st0" d="M1577.2,539c-14.1-4.7-28-9.4-42.2-12.8c-27.6-6.8-55.4-10.4-83.7-5.6c-14.1,2.4-26.9,8-37.5,17.9
			c-14.8,13.9-18.4,31.3-10.4,49.8c6.3,14.2,16.3,25.5,27.8,35.8c21.9,19.8,46.5,35.9,69.8,54c25.9,19.8,51.2,40.1,71,66.5
			c14.8,19.8,24.5,41.7,25,66.7c1.2,48.4-26.4,91-71,110.8c-27.4,12.2-56.3,16.8-86.1,17.5c-48.4,1.2-95.8-7.5-142.9-17.9
			c-3.3-0.7-3.6-2.4-4-5c-1.7-14.1-2.8-28.5-5.7-42.4c-2.6-12.2-3.5-24.3-5.6-36.5c-0.7-3.6-0.5-5.7,4.3-3.8
			c17,6.6,34,13.4,51.6,18.2c25.9,7.1,51.9,11.6,78.8,10.6c14.8-0.5,29.2-3.3,42.5-9.7c29.2-13.9,37.3-43.6,19.6-70.3
			c-9.5-14.4-22.4-25.5-35.6-36.5c-26.7-22.2-55-42.5-81.3-65.5c-20.5-17.9-39.6-37.2-54.2-60.4c-31.3-50.2-20.1-113,26.7-147.8
			c21-15.5,45-23.4,70.5-27.4c44.8-6.9,89.2-3.1,133.5,4c8.3,1.4,16.5,3.1,24.7,4.5c2.8,0.5,4.2,1.6,4.5,4.5c3.3,26,6.6,51.9,9.9,78
			C1577.6,537.1,1577.4,537.8,1577.2,539z"/>
		<path class="st0" d="M1753.8,690.6c0,78.1,0,156.3,0.2,234.4c0,4.2-0.9,5.7-5.4,5.7c-32.8-0.2-65.5-0.2-98.3,0
			c-4.2,0-5.4-1-5.4-5.4c0.2-156.8,0.2-313.4,0-470.2c0-4.5,1.6-5.2,5.6-5.2c32.8,0.2,65.5,0.2,98.3-0.2c5.2,0,5.2,2.4,5.2,6.3
			C1753.8,534.2,1753.8,612.5,1753.8,690.6z"/>
		<path class="st1" d="M1504.8,212.4c0.2-14.2,1.6-28.6,5.2-42.2c6.9-25.2,17.7-49,33.7-70.3c10.6-14.1,22.6-26.4,36.5-37.2
			c14.9-11.6,31.4-20.5,49.1-27.1c14.2-5.4,29-8.9,43.9-10.9c14.1-1.9,28.5-1.4,42.7-0.7c16.7,0.9,33,4.7,48.6,10.6
			c4,1.6,8.2,2.8,11.8,4.9c1.2,0.7,3.3,0.2,3.1,2.4c0,1.9-1.7,2.3-3,3.1c-8.3,5.7-16.7,11.3-25.2,17c-13.9,9.4-28,18.6-42,28.1
			c-11.1,7.6-21.7,16-33.2,22.9c-6.9,4.2-13.7,8.5-20.5,12.8c-6.6,4.3-13.2,8.9-19.6,13.4c-15.8,10.6-32.5,20.1-47.7,31.3
			c-15.5,11.3-31.8,21.2-47.6,32.1c-10.2,7.1-20,14.9-31.1,20.8c-3.8,2.1-5.2,1.6-5.2-2.6C1504.8,218,1504.8,215.2,1504.8,212.4z"/>
		<path class="st1" d="M1506.6,240.2c0-3.5,1-5.2,3.3-6.8c14.9-9.7,29.7-19.4,44.4-29.3c16.7-11.3,33.3-22.7,50.2-33.9
			c20.3-13.5,41-26.9,61.3-40.6c16.1-10.9,32.1-22.1,48.3-33c14.6-9.9,29.3-19.4,43.9-29.2c6.1-4,11.8-8.5,17.9-12.5
			c4.2-2.8,8.7-5.2,13.2-7.5c2.3-1,5-1,7.1,0.3c7.6,5,15.3,10.2,22.7,15.6c3.5,2.4,4,4.5-0.5,7.3c-11.8,7.3-22.9,16-34.9,22.9
			c-14.1,8.2-27.1,17.5-40.5,26.6c-16.3,11.1-32.8,22.1-49,33.3c-11.5,8-23.4,15.5-34.9,23.4c-11.8,8.2-23.8,16.1-35.6,24.1
			c-11.3,7.6-22.9,14.8-34.6,21.9c-8.5,5.2-16.1,11.5-24.5,17c-15.1,10.2-30.6,20.3-45.7,30.7c-3.6,2.4-4.3,1.7-5.9-2.3
			C1509.2,259.1,1508.8,249.1,1506.6,240.2z"/>
		<path class="st1" d="M1520.6,291.8c-0.5-2.8,1.2-4.2,2.8-5.6c8.7-7.6,18.6-13.2,28-19.8c10.2-7.3,20.8-13.9,31.3-20.7
			c15.6-10.4,31.4-20.7,47.1-31.3c20.5-13.7,40.8-27.6,61.3-41.3c23.6-15.8,47.1-31.8,70.8-47.6c12.7-8.5,25.5-16.7,38.4-25
			c9.2-6.1,18.1-12.3,27.6-17.9c2.1-1.2,2.8-5.6,5.7-4.5c3.1,1.2,6.3,3.6,8.5,6.3c3.5,3.6,6.1,8.2,9.2,12.2c1.7,2.3,0,3.3-1,4.9
			c-5.4,7.5-13.9,10.8-21.2,15.8c-11.1,7.6-22.6,14.8-33.5,22.7c-10.2,7.3-21,13.7-31.4,20.7c-8,5.2-15.8,10.6-23.8,15.8
			c-14.6,9.5-29.3,18.6-43.6,28.5c-12.3,8.7-24.8,17.2-37.5,25.5c-13.7,9-27.4,17.9-40.8,27.4c-11.1,8-22.4,15.6-34,22.7
			c-16.5,10.1-31.9,21.7-48.1,32.3c-1.7,1.2-4.3,1.9-5.2,0.3C1527.4,305.8,1520.6,300.1,1520.6,291.8z"/>
		<path class="st1" d="M1875.4,135c-0.3,2.3-0.7,4-2.6,5.2c-13.7,7.6-25.7,17.7-39.1,26c-13.5,8.3-26.7,17.4-39.8,26.2
			c-13.7,9.4-28.1,17.9-41.5,28c-13.5,10.1-27.4,20-42.2,28.5c-20,11.5-37.7,26-57,38.7c-16,10.6-32.1,20.5-48.1,31.1
			c-14.6,9.5-28.8,19.4-43.1,29.5c-3.5,2.4-5.2,0.3-7.1-1.4c-3.8-3.5-6.4-7.8-9.7-11.8c-2.3-2.6,0-3.5,1.2-4.3
			c6.6-4.7,13.2-9.2,19.8-13.7c9-6.4,18.4-12.2,27.4-18.6c7.1-5,14.1-10.4,22.2-13.9c2.8-1.2,5-3.8,7.6-5.6
			c14.8-9.9,29.7-19.6,44.4-29.5c12.3-8.2,24.3-16.7,36.6-24.8c24.8-16.7,49.7-33.3,74.5-50.2c12.5-8.3,24.5-17.4,37.2-25.2
			c15.5-9.5,30.4-20,45.3-30.2c1.7-1.2,4-1.9,5.2-0.3C1870.9,123.5,1874,129.1,1875.4,135z"/>
		<path class="st1" d="M1890.5,177.5c0.2,2.6-1,4.3-3.3,5.7c-20,13.2-40.1,26.4-59.9,39.8c-13.2,8.9-25.9,18.1-39.1,26.9
			c-5.4,3.6-11.5,6.4-16.8,10.1c-10.1,6.6-19.8,13.9-29.9,20.5c-8.7,5.6-16.3,12.5-26,16.1c-4,1.6-6.1,5.7-9.7,8.2
			c-18.6,12.2-36.3,25.5-55.2,37c-10.6,6.4-20.1,14.4-30.7,20.7c-7.6,4.5-14.6,9.5-21.9,14.4c-2.4,1.7-5.4,1.4-8-0.2
			c-11.1-7.1-11.3-7.5-0.3-14.8c14.9-10.1,30.6-19.6,45.7-29.5c12.8-8.5,25.3-17.9,38.4-26.2c17.7-11.3,34.6-23.6,52.3-34.9
			c16.3-10.4,31.8-22.4,48.1-33c11.5-7.5,23.3-14.4,34.6-22.2c17.7-12.3,35.6-24.1,53.5-36.3c7.1-4.9,14.4-9.4,21.5-14.2
			c1.9-1.4,3.6-1.6,4.5,0.7C1888.7,169.9,1889.6,173.7,1890.5,177.5z"/>
		<path class="st1" d="M1893.9,224.6c-0.5,4.9-4.5,7.1-7.8,9.2c-16.8,9.9-31.9,22.2-48.3,32.6c-11.1,7.1-22.6,13.5-33,21.7
			c-11.1,8.7-22.9,16.1-34.7,23.4c-15.3,9.4-29.2,20.7-44.6,30c-12.8,7.6-24.8,16.7-37.3,25.2c-14.8,10.2-29.7,20.5-44.4,30.7
			c-1.2,0.9-2.6,1.6-4,2.1c-3.3,1-6.6-0.2-8.2-2.4c-1.9-2.8,2.1-3.5,3.5-4.7c11.6-8.3,23.3-16.3,35.6-23.6
			c7.3-4.3,13.9-10.2,21-14.9c11.1-7.3,22.1-14.8,33.3-21.9c7.3-4.5,14.2-9.9,21.4-14.8c15.3-10.8,31.3-20.7,47.1-30.7
			c13.2-8.5,25.9-17.9,38.9-26.6c9.2-6.3,18.9-11.6,28.3-17.7c9-6.1,17.5-12.7,26.4-18.9c1.4-1,3-2.6,5-0.9
			C1892.9,223,1894.3,223.2,1893.9,224.6z"/>
	</g>
</g>
</svg>
