<?xml version="1.0" encoding="utf-8"?>
<!-- Generator: Adobe Illustrator 27.8.0, SVG Export Plug-In . SVG Version: 6.00 Build 0)  -->
<svg version="1.1" id="Camada_1" xmlns="http://www.w3.org/2000/svg" xmlns:xlink="http://www.w3.org/1999/xlink" x="0px" y="0px"
	 viewBox="0 0 1080 492.5" style="enable-background:new 0 0 1080 492.5;" xml:space="preserve">
<style type="text/css">
	.st0{fill:#020202;}
	.st1{fill:#016A55;}
	.st2{font-family:'MicrosoftPhagsPa';}
	.st3{font-size:69.9874px;}
</style>
<g>
	<path class="st0" d="M1061.81,270.95c-4.11-15.65-14.03-43.58-32.47-59.1c-3.94-3.32-3.89-5.82-0.16-9.51
		c17.75-17.52,29.77-47.94,32.63-63.27c2.85-15.33,2.71-20.85,0-34.71s-18.53-48.16-40.35-64.67
		c-18.59-14.07-39.05-22.23-62.59-22.21c-59.77,0.03-119.54,0.44-179.3-0.33c-12.94-0.17-14.83,4.23-14.64,15.63
		c0.68,41.6,0.7,83.22-0.17,124.81c-0.14,6.79,8.36,20.43-9.35,20.13c-12.4-0.21-24.13,4.14-28.55-16.32
		c-0.34-1.57-0.72-3.14-1.11-4.71C710.46,90.33,663.93,43.02,610.82,20.45c-14.68-7.16-29.56-11.83-43.88-13.27
		c-16.4-1.58-22.32-2.39-31.45-1.6c-94.11,2.37-170.55,73.64-183.8,168.94c-5.46,9.17-18.97,1.03-27.84,2.96
		c-10.77,2.34-8.24-6.64-8.26-12.37c-0.13-36.43-0.07-72.86-0.07-109.29c0-38.82,0-38.34-38.51-38.62
		c-11.35-0.08-14.48,2.88-14.3,14.25c0.69,43.94-0.05,87.89,0.51,131.83c0.14,10.9-2.18,14.91-14.17,14.77
		c-55.73-0.67-111.48-0.61-167.22-0.02c-10.94,0.12-13.52-2.96-13.33-13.53c0.68-37,0.26-74.01,0.26-111.02
		c0-36.04-0.03-35.12-35.37-36.41C18.08,16.5,15.93,21.58,16,35.28c0.59,106.4,0.33,212.8,0.33,319.19c0,39.52,0,38.97,39.65,39.05
		c11.44,0.02,13.13-3.75,13.01-13.8c-0.52-43.94,0.18-87.9-0.49-131.84c-0.17-11.48,1.79-15.83,14.73-15.65
		c55.15,0.79,110.32,0.66,165.47,0.07c11.32-0.12,14.81,2.7,14.57,14.28c-0.76,36.41-0.28,72.85-0.28,109.28
		c0,38.34,0,37.87,39.47,37.6c11.04-0.08,13.45-3.42,13.31-13.83c-0.58-43.36-0.49-86.74,0.04-130.1c0.08-6.2-6.13-19.07,8.86-16.57
		c8.93,1.49,21.25-6.78,27.53,4.54c10.36,67,51.57,121.18,108.59,147.65c40.69,19.67,88.29,24.76,134.68,10.15
		c72.38-22.8,116.27-73.99,131.76-147.56c4.46-21.16,17.68-14.53,29.34-15.01c15-0.62,8.22,11.41,8.31,17.58
		c0.61,43.36,0.54,86.74,0.15,130.1c-0.08,9.06,1.34,13.1,11.97,13.01c61.54-0.55,123.1,0.12,184.64-0.52
		c32.15-0.33,57.36-15.21,77.57-39.95c10.78-13.21,21.15-39.93,22.61-43.84S1065.91,286.59,1061.81,270.95z M648.96,114.06
		c1.19,5.87,1.75,11.98,1.59,18.26c-1.08,41.23-35.87,102.01-76.55,100.18c-39.97-1.8-81.51-60.26-80-101
		c1.13-30.49,22.54-56.59,49.23-69.32C581.11,62.25,621.78,80.79,648.96,114.06z M817.47,81.76c-0.18-9.3,2.96-11.63,11.93-11.54
		c42.35,0.43,84.72-0.31,127.07,0.36c31.11,0.5,53.19,24.13,52.89,54.75c-0.31,31.01-22.23,52.11-54.67,52.37
		c-19.73,0.16-39.46,0.03-59.19,0.03c-22.05,0-44.11-0.37-66.14,0.18c-8.71,0.22-12.15-1.65-11.93-11.23
		C818.09,138.39,818.02,110.06,817.47,81.76z M958.73,339.94c-43.5,0.92-87.03,0.08-130.54,0.5c-8.38,0.08-10.84-2.35-10.71-10.66
		c0.47-28.88,0.46-57.78,0-86.67c-0.13-8.23,2.13-10.93,10.61-10.72c22.61,0.56,45.25,0.19,67.88,0.19
		c20.31,0,40.62-0.26,60.92,0.06c30.68,0.48,53.41,22.51,53.99,51.82C1011.49,315.09,989.73,339.28,958.73,339.94z"/>
	<path class="st1" d="M406.09,204.71c0.2-79.38,60.14-141.51,135.35-142.53c65.23-0.88,139.54,53.45,139.16,143.73
		c-0.37,86.13-70.18,143.14-138.44,142.17C465.44,346.99,405.89,285.15,406.09,204.71z M519.12,150.32
		c-1.09,29.32,20.42,53.12,49.19,54.41c29.28,1.32,53.58-21.61,54.36-51.29c0.79-30.01-21.2-55.02-49.57-56.39
		C543.35,95.61,520.3,118.35,519.12,150.32z"/>
</g>
<text transform="matrix(1 0 0 1 16 476.4844)" class="st2 st3">Hospital Oftalmológico de Brasília</text>
</svg>
