<?xml version="1.0" encoding="utf-8"?>
<!-- Generator: Adobe Illustrator 27.8.0, SVG Export Plug-In . SVG Version: 6.00 Build 0)  -->
<svg version="1.1" id="Camada_1" xmlns="http://www.w3.org/2000/svg" xmlns:xlink="http://www.w3.org/1999/xlink" x="0px" y="0px"
	 viewBox="0 0 1920 478.3" style="enable-background:new 0 0 1920 478.3;" xml:space="preserve">
<style type="text/css">
	.st0{fill:#FFFFFF;}
	.st1{fill:#B52D27;}
</style>
<path class="st0" d="M816-27.9c-1.8,0.1-3.7,0.2-5.5,0.2c-167,0-334,0-501,0c-1.8,0-3.7-0.1-5.5-0.2c1.3-0.3,2.7-1,4-1
	c21-0.1,42,0,63,0c146.8,0,293.7,0,440.5,0C813-28.8,814.5-28.2,816-27.9z"/>
<g>
	<path class="st1" d="M345.4,198.9c-42.4,50.3-94,71.3-160.4,55c-5.3,22.1-9.9,44.2-16.3,65.8c-2.1,7.1-8.8,17.7-13.9,18
		c-12.4,0.8-29.3,7.7-33.9-6.9c-21.9,1.2-43.7,7.4-62.2,2c-15.3-4.5-28.1-21.4-38.9-35.3c-4-5.2,0.8-17.3,1.6-26.2
		c6.9,2.7,14.7,4.3,20.7,8.4c22.6,15.7,43.2,8.4,51.2-20.9c10.1-37,18.1-74.5,27-111.8c3.9-16.5,8.7-32.8,11.2-49.5
		c0.9-5.8-3.6-12.5-5.6-18.7c-4.9,3.8-9.8,7.6-14.6,11.5c-0.5,0.4-0.5,1.4-1,2c-6,7.5-11.8,15.2-18.6,22c-0.7,0.7-11.1-5.5-10.8-7
		c2.6-10.3,3.9-23.7,11.1-29.4c12.7-10.3,28.9-21.5,44.3-22.6c50.6-3.7,102.1-8.5,152-2.7c66,7.8,86.2,46.3,70.5,120.8
		c22-29.4,47.7-47.9,81.1-52.3c32.9-4.3,65-1.4,93.6,18.4c43.2,29.8,60.2,84.5,40.9,133.3c-19,48.3-73.7,77.7-128.6,69.3
		C377.1,331.5,351.7,295.9,345.4,198.9z M502.8,260c-1.6-37.9-7.9-68.7-29.5-93.9c-15.1-17.6-31.1-16.7-41,1
		c-17.6,31.2-2.2,111.1,25.8,134c15,12.2,32.6,8.2,38.7-10C500.7,279.4,501.6,266.7,502.8,260z M273.7,135.4
		c-5.5-14.8-8.6-27.9-15.3-38.8c-3.3-5.4-13.8-9.8-20.1-8.9c-6.3,0.9-15,8.2-16.7,14.3c-9,32.7-17,65.7-23.6,98.9
		c-3.7,18.7,5.7,27.5,24.3,21.7c10.9-3.4,23.5-12,28.3-21.7C260.7,180.1,266.3,157.1,273.7,135.4z"/>
	<path class="st1" d="M1500.5,260.8c20.4,40.2,56.8,52.4,90.4,31.1c13.9-8.8,24.4-23,36.1-35c24-24.8,45-53.5,72.3-73.9
		c47.7-35.7,112.4-33.2,159.8,1c45,32.5,50.4,83.2,34.3,128.9c-1.3,3.6-7.9,8.4-10.7,7.6c-4.4-1.2-9.7-6-10.8-10.3
		c-2.4-9.2-1.3-19.2-3.5-28.5c-13.7-58-90.6-94.7-145.5-63.8c-35.2,19.8-66,49.3-94.6,78.5c-36.5,37.4-77.5,58.2-130.1,53.3
		c-31.9-3-56.1-19.7-70.9-47.1c-23.1-42.8-23.5-86.8,3.4-128.2c23.3-35.9,57.5-51.8,100.9-45.5c35.7,5.2,72.7,39.7,82.3,75.6
		c3.3,12.6-3.7,15-12.7,18.3C1568.1,235,1535.1,247.7,1500.5,260.8z M1537.5,207.5c-10.6-33-24.7-47.6-39.8-43.3
		c-15.8,4.5-19.6,27.3-9.7,63C1504.4,220.7,1520.5,214.3,1537.5,207.5z"/>
	<path class="st1" d="M931.4,135.7c-26.6,58.1-52,114.4-78.3,170.2c-14.5,30.6-29.2,61.3-46.6,90.3c-23.2,38.9-49.3,46-92.2,30.1
		c-26.2-9.7-52.4-20.3-79.4-26.8c-34.2-8.2-64.3-1.2-84,32.5c-3.7,6.3-14.4,8.4-22.7,12.9c-9.1-35.8,31-84.8,68.8-94.2
		c30.4-7.7,58.6-2.7,86.2,9.7c16.8,7.6,33,16.7,49.9,23.9c30.6,13,41.4,8.9,57.2-20.5c4.1-7.7,7.2-16,4.7-21.8
		c-9.5-14.3-21.3-27.7-28-43.2c-13-30.5-22.7-62.3-34.8-93.2c-2.1-5.4-9.3-8.9-14.2-13.2c-2.6,6.3-5.4,12.5-7.5,19
		c-0.6,1.8,1.5,4.3,1.3,6.4c-0.8,7.6-1.3,15.5-3.9,22.5c-0.6,1.7-12.1,2.3-13.1,0.4c-4-7.4-9.7-16.9-7.8-23.8
		c3.6-13,10.2-26.1,18.5-36.8c20.7-26.3,43.2-51.3,66.3-78.3c19.6,51.8,39.4,104.3,61.2,161.7c6.2-8.8,9.9-12.9,12.1-17.6
		c13.8-29.3,27.3-58.9,40.9-88.3C898.2,131.6,898.3,131.6,931.4,135.7z"/>
	<path class="st1" d="M967.7,82.3c19.5-10.3,38.1-20.1,56.2-29.6c24.1,25.4,23.8,36.1-1.1,70.8c48.6,10.3,75.1,42,88.1,88.5
		c-39.2,15.5-76.7,30.4-114,45.2c14.6,41.4,52.4,48,102.6,16.5c3.9,4.5,8.6,9.8,12.7,14.6c-25.8,43.3-78.6,67.1-124.9,58
		c-41.8-8.2-73.4-42.5-80.1-87c-7.9-52.5,14.7-101.6,57.3-124.5C1000.3,115.6,1001.1,107.8,967.7,82.3z M1031.8,204.6
		c-9.6-33.9-25.7-49.2-41.9-42.3c-14.3,6-17.1,34.7-5.1,61.3C1000.1,217.3,1015.5,211.1,1031.8,204.6z"/>
	<path class="st1" d="M1305.4,85.1c-5.4,8.5-9.9,17.8-16.5,25.1c-5,5.5-12.9,8.5-19.5,12.6c-1.5-7.6-6.8-18.3-3.6-22.2
		c8.3-10.3,19-21.2,31-25.4c35.1-12.3,71.4-21.5,110.2-32.7c-20.2,87.3-40.3,174.4-62.4,270c26.6-8.7,47.3-15.5,68.8-22.6
		c-6.4,50.9-84.1,64.6-153.3,53.4c19.1-84.4,38.3-168.8,57.4-253.1C1313.4,88.5,1309.4,86.8,1305.4,85.1z"/>
	<path class="st1" d="M572.8,337.4c19.4-85.1,38.5-168.7,57.5-252.2c-3.1-1.7-6.2-3.3-9.2-5c-6.1,7.2-14.2,13.6-17.9,21.8
		c-4.7,10.6-9.8,20.9-21.5,14c-4.2-2.5-5.2-20.7-0.8-25.4c9.5-10.1,22.6-18.9,35.8-23.4c33.3-11.3,67.5-19.9,103-30.1
		c-19.8,85.9-40.1,173.6-60.3,260.9c27,18.7,43.2-17.1,67.3-12.9C719,334.3,648.2,349.8,572.8,337.4z"/>
	<path class="st1" d="M1190.7,311.7c26.3-8.7,47.7-15.8,70.7-23.5c-12.7,50.2-72.5,64.5-155.2,53.8c9.6-42.2,19.2-84.2,28.8-126.2
		c8.4-36.6,17.2-73.1,24.9-109.8c1.2-5.8-2.7-12.6-4.3-18.9c-5.5,4-11.3,7.8-16.5,12.1c-1.5,1.2-1.3,4.4-2.7,6
		c-5.4,6-10.8,12.1-17.1,17.1c-1,0.8-9.6-4.5-9.4-6.4c0.9-8.3,1.3-18.7,6.4-24.2c7.6-8.3,18.2-15.5,28.9-18.9
		c35.4-11.4,71.3-20.9,108.2-31.4C1233.3,128,1212.9,216,1190.7,311.7z"/>
</g>
</svg>
