<?xml version="1.0" encoding="utf-8"?>
<!-- Generator: Adobe Illustrator 26.0.3, SVG Export Plug-In . SVG Version: 6.00 Build 0)  -->
<svg version="1.1" id="Camada_1" xmlns="http://www.w3.org/2000/svg" xmlns:xlink="http://www.w3.org/1999/xlink" x="0px" y="0px"
	 viewBox="0 0 1920 738.7" style="enable-background:new 0 0 1920 738.7;" xml:space="preserve">
<style type="text/css">
	.st0{fill:#C51819;}
	.st1{fill:#1E1E1F;}
</style>
<g>
	<g>
		<path class="st0" d="M375.6,715.5c-193.4,0-349.5-154.3-349.5-345.9c0-193.2,155.3-346.4,351.1-346.3
			c187.6,0.2,348.7,151.8,346.9,349C722.3,564.3,566.1,714.5,375.6,715.5z M349.4,228c-1.6,6.4-2.4,9.3-3.2,12.3
			c-10.6,47-31.2,89.4-58.7,128.9c-22.7,32.8-51.3,60.5-76.4,91.2c-13.6,16.6-26.7,33.6-35,53.6c-22.7,53.7-0.3,92.9,57.6,99
			c78.7,8.3,150.7-13.4,218.2-52.5c30.2-17.4,58.1-38.2,78.7-67.2c19.8-27.8,23.7-56.5,5.4-87.3c-18.2-31-41.7-58.4-59.7-89.6
			c-16.6-28.9-30.5-58.7-29.7-93.4c0.8-33.6,11.4-64.8,21.9-96.1c4.2-12.3,11.2-23.4,17.4-34.9c6.1-11.2,12-22.4,17.9-33.7
			c-39.2,50.4-69.7,105.2-84.4,167.9c-8.6,36.9-4.3,72,13.1,105.6c5.6,10.7,11.4,21.3,17.3,31.8c10.4,18.2,21.3,36.5,29.4,55.8
			c23.2,54.7,14.1,85.6-35.3,119c-1.6,1.1-3.2,2.2-4.8,3.2c-58.2,35.8-119.2,56-187.9,34.2c-27.7-8.8-37.7-25.7-28.8-53.6
			c7.2-22.6,17.9-43.2,31.5-63.2c23.5-34.9,46.9-70.1,64.9-108.3C336.2,313.4,349.2,274,349.4,228z"/>
		<path class="st0" d="M1298.3,286.3c0-53.9,0.2-107.6-0.2-161.5c0-8.5,2.4-12.6,10.6-14.9c10.9-2.9,21.6-6.7,32.1-10.7
			c7.5-2.9,9.3-0.8,9.3,6.9c-0.3,44.5-0.2,88.9-0.2,133.4c0,14.2,0,14.2,13,8.8c44.9-19.2,91.5-13.1,121.2,16.6
			c28,28,36.6,63.8,36.6,101.9c0,32.5-6.7,63.5-23.7,91.8c-19.4,32.3-47.8,48.5-85.7,46.4c-36.6-1.9-70.9-11-100.4-34.1
			c-9-6.9-13.3-14.7-13.1-26.7C1298.7,391.6,1298.3,339,1298.3,286.3z M1349.9,372.1c0,16,0,32,0,48c0,34.1,3.2,37.9,37.3,44.1
			c3,0.6,6.2,1,9.3,1.3c28,2.9,45.1-6.2,55.5-32.3c15.2-38.2,16.3-77.7,4.3-116.9c-7.8-25.6-26.5-37.4-53.3-37.3
			c-16,0.2-30.5,5.4-44.9,11.7c-6.4,2.9-8.5,6.7-8.3,13.4C1350.1,326.8,1349.9,349.5,1349.9,372.1z"/>
		<path class="st0" d="M1243.2,382.8c0,22.2-0.3,44.5,0.2,66.7c0.2,7.8-2.6,13-8.3,17.9c-33.7,28.3-73.3,39.7-116.4,36.5
			c-42.4-3.2-76.1-41.1-76.9-83.5c-0.8-43.3,29.4-77.1,74.4-83.2c21.3-2.9,42.9-1.4,64.3-1.3c8.6,0,11.5-2.2,11.4-11.2
			c-0.2-27.3-17-45.4-44.6-46.2c-20.8-0.6-40.1,5.4-58.4,14.9c-8.2,4.3-11,2.1-14.4-5.8c-11-25.7-11.2-25.6,14.6-36.5
			c23.8-9.9,48.8-13.9,74.4-12.5c48,2.4,79.5,35.7,79.5,83.3c0,20.3,0,40.5,0,60.8C1242.9,382.8,1243.1,382.8,1243.2,382.8z
			 M1190.6,413.2c0-10.1-0.2-20.3,0-30.4c0-5-1-8.2-6.9-8.2c-15.2,0.2-30.4-0.8-45.6,0.2c-17.9,1.1-32.5,9-38.9,26.9
			c-6.6,18.2-1.9,34.5,11,48.5c16.6,17.9,42.2,20.2,68,7.2c9-4.5,13.8-10.2,12.5-21C1189.8,428.9,1190.6,420.9,1190.6,413.2z"/>
		<path class="st0" d="M1684.3,390.9c0-32.8,0.2-65.4-0.2-98.2c-0.2-7.5,2.6-12,8.5-16.3c37.7-27.3,79.2-41.6,126-37.4
			c17.8,1.6,34.4,7,48.6,18.2c16.3,12.8,24.9,29.4,24.9,50.5c0,60.5-0.2,120.9,0.2,181.2c0,8.8-2.4,11.8-11.2,11.2
			c-10.1-0.6-20.3-0.8-30.4,0c-9.3,0.8-11.8-2.4-11.8-11.7c0.5-51.5,0.2-102.8,0.2-154.3c0-42.9-25.7-63.3-68-54.2
			c-2.7,0.6-5.3,1.3-7.8,2.1c-24.5,7.5-25.3,8.8-25.3,33.7c0,57.7-0.2,115.3,0.2,173.1c0,8.6-2.2,11.8-11.2,11.2
			c-10.1-0.8-20.3-0.8-30.4,0c-9.6,0.6-12.8-2.2-12.6-12.2C1684.8,455.7,1684.3,423.3,1684.3,390.9z"/>
		<path class="st0" d="M908.8,507.1c-26.7,0.2-53.7-10.6-78.7-28.1c-4.5-3-5.3-5.9-2.1-10.6c5.4-8.2,8.6-19.7,16-23.8
			c8.2-4.6,15.7,6.9,23.8,10.6c19.2,8.5,38.5,11.8,59.3,8.5c7-1.1,13.6-3.5,19.7-7.2c10.4-6.4,16.5-15.4,16-28
			c-0.3-12-7.7-19.5-17.9-24c-16.2-6.9-32.6-12.6-48.9-19.2c-9.8-4-19.7-7.7-28.9-12.8c-40.9-22.2-48.6-74.2-16.2-107.8
			c20.3-21.1,46.1-28.3,74.4-28c25.7,0.2,48.8,9.4,71,21.3c4.8,2.6,5.9,5.3,2.9,10.1c-4.6,7.2-9,14.6-13,22.2
			c-3,5.8-6.2,5.3-11.2,2.6c-16-8.6-32.8-14.7-51.2-14.4c-9.4,0.2-18.6,1.8-27,6.7c-9.9,5.8-15.5,14.2-15.2,25.7
			c0.2,10.9,7.5,16.8,16.5,20.8c10.2,4.6,20.8,8.8,31.5,12.3c14.4,4.8,28.1,11.4,42.2,17.1c59.5,24.5,52.1,97.1,10.6,125.2
			C961.6,501,938.1,506.6,908.8,507.1z"/>
		<path class="st0" d="M1630,367.3c0,40.5-0.2,80.9,0.2,121.6c0.2,8.5-1.8,12.2-10.9,11.5c-10.9-0.8-21.9-1-32.6,0
			c-11,1-12.6-3.7-12.6-13.4c0.5-52.6,0.3-105.1,0.2-157.7c0-22.6,0-45.1-0.6-67.8c-0.2-6.6,1.9-9.9,8.3-11.7
			c13.1-3.7,26.2-7.5,39-12.2c7.7-2.7,9.3-0.6,9.3,6.9C1629.8,285.5,1630,326.3,1630,367.3z"/>
		<path class="st0" d="M1602.9,130.7c21.1,0.6,34.9,15.2,34.1,36.1c-0.8,19.8-16.6,33.9-37.6,33.3c-18.7-0.5-34.2-15.7-33.9-33.4
			C1565.8,145.1,1581.5,130.1,1602.9,130.7z"/>
		<path class="st1" d="M1690.1,565.9c-3,10.1-7.8,11.8-16,7.4c-4.2-2.2-9.9-1.6-12.2,3.5c-2.6,6.1,2.9,8,7,10.1
			c3.8,1.9,7.8,3.5,11.7,5.4c7.4,4,10.7,10.1,9.4,18.4c-1.3,8.2-6.4,13.1-14.4,15.2c-8.3,2.1-16.3,0.5-23.7-3.8
			c-2.7-1.6-5.6-3.5-3.4-7.4c1.8-3,3.8-6.1,8.3-3.8c6.6,3.4,15.5,8.6,19.2-0.5c3.8-9.8-8-10.2-13.9-13.3c-12.2-6.4-16.6-14.2-13-24
			c3.8-10.2,17-14.9,30.1-11c5.8,1.8,9.8,3.8,17.9,1c13.9-4.8,30.7-1.4,46.4-1.3c2.9,0,3.7,2.4,3.8,5c0.2,3-0.6,5.4-4.2,5.8
			c-1.9,0.2-4,0.3-5.9,0c-9.8-1.6-11.8,3.2-11.2,12c0.6,10.6,0.3,21.1,0.2,31.5c0,4.3,1.9,9.9-5.9,10.1c-8.6,0.2-6.6-5.9-6.6-10.6
			c-0.2-11.4-0.5-22.6,0.2-33.9c0.5-7.4-2.4-9.9-9.3-9.1C1698.9,573.3,1693.9,572.5,1690.1,565.9z"/>
		<path class="st1" d="M878.3,591.5c-6.9,6.2-7.7,12.6-10.2,18.1c-1.6,3.5-3.8,5.4-8,5.4c-4.2,0-6.2-2.1-7.8-5.8
			c-2.4-5.4-3.4-11.7-9-16.6c-3.7,9-2.7,17.6-3.5,25.7c-0.5,5.3-2.1,7.7-7.7,7.5c-6.2-0.3-5.3-4.3-5-8.2c1.3-15.8,2.6-31.8,4-47.7
			c0.3-3.7-0.6-8.2,5.3-8.6c5-0.3,8.8,0.3,11,5.9c3.8,9.6,6.4,19.7,13.4,29.9c4.3-10.7,8.5-19.8,11.7-29.1c1.9-5.4,5.1-7,10.6-6.7
			c6.6,0.3,5.8,5.3,6.1,9.3c1.3,15.5,2.6,31,3.7,46.5c0.3,4.2,1.6,8.6-5.6,8.8c-6.4,0.2-6.6-3.7-6.9-8.3
			C879.9,609.7,879.1,601.7,878.3,591.5z"/>
		<path class="st1" d="M1622,546.6c-9.3,8.8-9.4,13.8,2.4,18.6c14.1,5.8,19.7,22.4,15.4,37.7c-4.3,15.4-17.6,24.6-34.5,24
			c-16.6-0.6-29.3-11.2-32.1-26.9c-2.9-15.8,4.3-30.5,18.6-36.5c5.4-2.2,9.8-3.8,11.5-10.7C1605.3,545.3,1612.5,544.6,1622,546.6z
			 M1607.1,572.2c-12.3-0.2-21.6,8.8-21.6,21.1c-0.2,12.5,8.8,21.9,20.8,22.1c12,0.2,21.3-9,21.8-21.3
			C1628.4,581.8,1619.4,572.3,1607.1,572.2z"/>
		<path class="st1" d="M1549.5,597.6c0-9.1,0-18.2,0-27.5c0-4.3-0.6-8.6,6.1-8.8c6.6-0.2,6.6,3.8,6.6,8.5c-0.2,15.7,0,31.2-0.2,46.9
			c0,3.5,1.8,8.5-4.2,9.3c-4.3,0.5-8.3,0.3-11.2-4.2c-7-11.2-14.6-22.1-21.8-33.1c-1.1,0-2.2,0.2-3.2,0.2c0,9.3,0,18.7,0,28
			c0,4.8,0.8,9.6-6.7,9.3c-7-0.2-5.8-5-5.8-9c0-15.2-0.2-30.4,0-45.6c0-3.5-2.1-8.5,3.7-9.8c4.8-1,9-0.3,12,4.6
			c6.7,10.9,14.1,21.3,21.1,32C1547.1,598.2,1548.2,597.9,1549.5,597.6z"/>
		<path class="st1" d="M1157.8,590.5c-2.7,8.2-0.6,16.6-1.3,25c-0.3,4.6,1.9,10.7-6.7,10.6c-7.7-0.2-5.9-5.6-6.1-10.1
			c-0.2-14.9-0.2-29.6,0-44.5c0-3.5-1.9-8.5,3.7-9.8c5.4-1.3,9.6,0.3,12.8,5.4c6.4,10.6,13.6,20.6,21.6,32.8
			c4.3-10.6,1.8-19.8,2.4-28.6c0.3-4.3-1.6-9.8,6.1-9.9c7.5-0.2,6.6,4.8,6.6,9.4c0,15.2,0.2,30.4,0,45.6c0,3.5,1.9,8.3-4.2,9.3
			c-5,0.8-9-0.2-12-5c-5.3-8.6-11-17-16.6-25.4C1163,593.3,1162,590.4,1157.8,590.5z"/>
		<path class="st1" d="M1497.5,609.4c0,3.8,0,7.8,0,11.7c0,3.5-2.6,5.9-5.1,4.6c-7.8-4.2-15,0.8-22.4,1.1
			c-13.8,0.6-25.9-7.7-30.5-21c-5.3-14.9-0.5-31,11.8-39.5c10.7-7.4,29.6-7.7,38.9-0.6c2.4,1.8,4.2,3.5,2.2,6.7
			c-1.8,2.7-3.4,5.8-7.2,3.7c-4.2-2.1-8.6-3.8-13.3-3.8c-9,0-16,3.5-19.5,12c-3.8,9.1-2.4,17.8,4.5,25c6.2,6.6,14.2,7.7,22.6,4
			c2.9-1.3,5.8-2.7,6.2-6.2c0.5-3.8-2.6-4.2-5.3-4.6c-3.7-0.6-3.8-3.4-3.7-6.2c0.2-3.4,2.4-4.2,5.4-4.6
			C1496.1,589.1,1497.5,590.9,1497.5,609.4z"/>
		<path class="st1" d="M1292.2,594.5c0-3-0.5-6.2,0.2-9.3c1.4-7.8-5-18.7,4-23c14.2-6.7,39.3,1.9,46.2,13.6
			c12.2,20.5,1.1,45.7-21.8,49.6c-27.3,4.5-28.6,3.4-28.6-23.8C1292.2,599.2,1292.2,596.8,1292.2,594.5z M1304.7,592.3
			c0,5.4,0,10.9,0,16.3c0,3.5,0.8,6.1,5.1,6.2c9.4,0.2,18.1-1.4,22.4-11.2s1.4-22.4-6.2-27.5c-5.4-3.7-12-5-17.9-3
			c-6.4,2.1-2.2,8.8-3.2,13.4C1304.3,588.3,1304.7,590.4,1304.7,592.3z"/>
		<path class="st1" d="M960.2,594.4c0-3-0.8-6.6,0.2-9.3c2.6-7.7-6.9-19.7,5.4-23c19.5-5.3,39,2.4,45.6,15.4
			c11,21.6-1.1,45.4-24.6,48.3c-26.4,3.2-26.4,3.2-26.4-23C960.2,599.8,960.2,597.1,960.2,594.4z M972.6,593.3c0,5.1,0,10.1,0,15.2
			c0,3.4,0.6,5.8,4.8,6.6c10.1,1.9,21-4.5,23.5-14.4c3.2-12.3-1.8-23.2-12.3-26.7c-12.2-4.2-15.8-1.4-16,11.4
			C972.6,587.8,972.6,590.5,972.6,593.3z"/>
		<path class="st1" d="M906.3,593.7c0-7.4,0.6-14.9-0.2-22.2c-0.8-8.6,2.9-10.7,10.7-10.2c8.2,0.6,16.3,0.3,24.5,0
			c4.5-0.2,6.4,1.8,6.2,6.2c-0.2,4.3-2.7,5-6.2,5c-4.6-0.2-9.4,0.2-14.1,0c-5.4-0.3-8.6,0.6-8.6,7.4c-0.2,7.2,3.2,7.8,9.1,8.3
			c5.1,0.5,14.6-4.8,14.4,5.6c-0.2,9.3-9.1,4.3-14.1,5c-5.4,0.6-9.6,0.3-9.6,8c0,7,3,8.6,9.3,8.3c5.1-0.3,10.1,0,15.2,0
			c3.7,0,5.9,1.1,6.1,5.3c0.2,4.8-2.4,5.9-6.6,5.9c-9.8-0.2-19.5-0.3-29.3,0c-5.8,0.2-7.4-2.4-7.2-7.7
			C906.6,610.2,906.3,601.9,906.3,593.7z"/>
		<path class="st1" d="M1810.9,626.9c-14.1,0-26.1-7.8-31-20.6c-5.1-13.1-1.6-28.3,8.6-37.4c9.9-9,26.2-10.9,38.2-4.5
			c3.5,1.9,8.6,3.2,5.4,9.3c-3,5.9-6.6,2.9-10.6,1.3c-11.4-4.8-21.3-2.6-27,5.9c-5.6,8.2-5,21,2.1,28.1c8,8.2,17.3,8.2,26.7,2.7
			c4-2.2,7.4-4.8,10.6,1c3.4,5.9-1.6,7.5-5.1,9.6C1823.2,625.6,1817.1,626.7,1810.9,626.9z"/>
		<path class="st1" d="M1406.2,561.6c4-0.5,6.9,0.6,8.3,4.8c6.1,17.6,12.5,35.2,18.7,52.8c0.8,2.4,2.4,5.6-1.9,6.4
			c-4.8,0.8-9.4,0.8-10.9-5.6c-1.4-6.4-3.7-11-12.2-10.9c-8.5,0.2-14.4,1.4-15.8,10.9c-1,6.4-6.1,6.9-10.7,5.6
			c-5.4-1.6-2.1-5.8-1.1-8.6c5.6-16.2,11.5-32.3,17.1-48.5C1398.9,564,1400.8,560.5,1406.2,561.6z M1406.5,579.5
			c-3.4,7-8,12.6-5.3,19c1,2.4,8.3,2.2,9.4,0.2C1414.5,592.1,1408.6,586.9,1406.5,579.5z"/>
		<path class="st1" d="M1081.9,626.9c-14.2,0-26.1-7.8-30.9-20.8c-5-13.4-1.6-28.6,8.6-37.4c9.9-8.8,26.2-10.7,38.4-4.5
			c3.5,1.8,8.6,3.2,5.4,9.3c-3,5.8-6.6,3-10.7,1.3c-11.5-4.8-21.4-2.6-27,5.9c-5.9,9.3-5.3,18.6,1.4,27c6.6,8.3,16.2,9.6,27.3,3.7
			c4-2.1,7.2-5,10.4,1c3.2,5.9-1.6,7.5-5.1,9.6C1094.3,625.4,1088.1,626.7,1081.9,626.9z"/>
		<path class="st1" d="M1260.2,621.9c0.5,3-1,4-3.2,4c-4.3,0.2-8.8,0.5-10.1-5.3c-1.6-6.9-4.2-11.8-13.1-11.5
			c-7.8,0.3-13.8,1.1-15,10.2c-0.8,6.1-5.3,7.5-10.4,6.2c-6.7-1.8-2.2-6.4-1.3-9.3c5.4-16.3,11.4-32.3,17-48.5
			c1.4-4.3,3.5-6.4,8.3-6.4c4.5,0,7.4,1.1,8.8,5.8c5.9,17.3,12.2,34.5,18.2,51.8C1259.6,620,1259.9,621.1,1260.2,621.9z
			 M1233.2,579.2c-4.2,6.9-7.8,12.6-5.8,19c0.8,2.6,8.2,2.4,9.4,0.3C1240.8,592.1,1234.8,586.7,1233.2,579.2z"/>
		<path class="st1" d="M1893.7,620.1c0.8,5.1-1.4,5.6-3.8,5.8c-5,0.5-8.6-1-9.4-6.2c-1.3-9-6.7-10.6-14.9-10.4
			c-6.9,0.2-11,1.8-12.6,9c-0.8,3.7-1.6,7.8-7,7.8c-5.1,0.2-8.6-0.5-6.1-7c6.2-17.1,12-34.5,18.4-51.7c2.2-6.2,12.6-8.6,14.7-3.4
			C1880.6,582.9,1887.1,602.4,1893.7,620.1z M1866.2,580.5c-1.4,6.4-8,11.7-4.3,18.1c1.3,2.2,8.3,2.2,9.4-0.2
			C1874,592,1868.8,586.4,1866.2,580.5z"/>
		<path class="st1" d="M1025.4,594.4c0-8.5,0.2-17.1,0-25.6c-0.2-4.5,0.6-7.5,6.2-7.5c5.3,0,6.6,2.4,6.6,7.2
			c-0.2,16.6-0.2,33.3,0,49.9c0,4.5-0.8,7.4-6.2,7.4c-5.3,0-6.6-2.4-6.6-7.2C1025.6,610.7,1025.4,602.5,1025.4,594.4z"/>
		<path class="st1" d="M1358.1,593.9c0-8.6,0.2-17.1,0-25.7c0-4.2,1.1-6.6,5.9-6.7c5.1-0.2,6.9,2.1,6.7,7c-0.2,16.8-0.2,33.6,0,50.4
			c0,4.8-1.1,7.4-6.6,7.2c-5.6,0-6.2-3-6.2-7.5C1358.2,610.4,1358.1,602.1,1358.1,593.9z"/>
		<path class="st1" d="M1116.6,592.6c0-7.8,0-15.7,0-23.4c0-4.3,0.2-7.7,5.9-7.8c5.1,0,6.7,2.2,6.7,7c-0.2,16.8-0.2,33.6,0,50.4
			c0,4.8-1.4,7.2-6.6,7.2c-5.6,0-6.2-3.2-6.1-7.7C1116.6,609.7,1116.6,601.3,1116.6,592.6z"/>
		<path class="st1" d="M1754.7,593.7c0-8.5,0-17.1,0-25.6c0-4.2,1.1-6.6,5.8-6.7c5-0.2,6.9,1.8,6.9,6.9c-0.2,17.1-0.2,34.1,0,51.2
			c0,5.1-2.2,6.7-7,6.6c-4.8-0.2-5.8-2.7-5.6-6.7C1754.7,610.7,1754.7,602.2,1754.7,593.7z"/>
	</g>
</g>
</svg>
