<?xml version="1.0" encoding="utf-8"?>
<!-- Generator: Adobe Illustrator 26.0.3, SVG Export Plug-In . SVG Version: 6.00 Build 0)  -->
<svg version="1.1" id="Camada_1" xmlns="http://www.w3.org/2000/svg" xmlns:xlink="http://www.w3.org/1999/xlink" x="0px" y="0px"
	 viewBox="0 0 1920 1920" style="enable-background:new 0 0 1920 1920;" xml:space="preserve">
<style type="text/css">
	.st0{fill:#C51819;}
	.st1{fill:#1E1E1F;}
</style>
<g>
	<g>
		<path class="st0" d="M594.6,1176.4c-120.9,0-218.5-96.5-218.5-216.3c0-120.8,97.1-216.6,219.5-216.5
			c117.3,0.1,218,94.9,216.9,218.2C811.4,1081.9,713.7,1175.8,594.6,1176.4z M578.2,871.6c-1,4-1.5,5.8-2,7.7
			c-6.6,29.4-19.5,55.9-36.7,80.6c-14.2,20.5-32.1,37.8-47.8,57c-8.5,10.4-16.7,21-21.9,33.5c-14.2,33.6-0.2,58.1,36,61.9
			c49.2,5.2,94.2-8.4,136.4-32.8c18.9-10.9,36.3-23.9,49.2-42c12.4-17.4,14.8-35.3,3.4-54.6c-11.4-19.4-26.1-36.5-37.3-56
			c-10.4-18.1-19.1-36.7-18.6-58.4c0.5-21,7.1-40.5,13.7-60.1c2.6-7.7,7-14.6,10.9-21.8c3.8-7,7.5-14,11.2-21.1
			c-24.5,31.5-43.6,65.8-52.8,105c-5.4,23.1-2.7,45,8.2,66c3.5,6.7,7.1,13.3,10.8,19.9c6.5,11.4,13.3,22.8,18.4,34.9
			c14.5,34.2,8.8,53.5-22.1,74.4c-1,0.7-2,1.4-3,2c-36.4,22.4-74.5,35-117.5,21.4c-17.3-5.5-23.6-16.1-18-33.5
			c4.5-14.1,11.2-27,19.7-39.5c14.7-21.8,29.3-43.8,40.6-67.7C570,925,578.1,900.4,578.2,871.6z"/>
		<path class="st0" d="M1171.5,908.1c0-33.7,0.1-67.3-0.1-101c0-5.3,1.5-7.9,6.6-9.3c6.8-1.8,13.5-4.2,20.1-6.7
			c4.7-1.8,5.8-0.5,5.8,4.3c-0.2,27.8-0.1,55.6-0.1,83.4c0,8.9,0,8.9,8.1,5.5c28.1-12,57.2-8.2,75.8,10.4
			c17.5,17.5,22.9,39.9,22.9,63.7c0,20.3-4.2,39.7-14.8,57.4c-12.1,20.2-29.9,30.3-53.6,29c-22.9-1.2-44.3-6.9-62.8-21.3
			c-5.6-4.3-8.3-9.2-8.2-16.7C1171.8,973.9,1171.5,941,1171.5,908.1z M1203.8,961.7c0,10,0,20,0,30c0,21.3,2,23.7,23.3,27.6
			c1.9,0.4,3.9,0.6,5.8,0.8c17.5,1.8,28.2-3.9,34.7-20.2c9.5-23.9,10.2-48.6,2.7-73.1c-4.9-16-16.6-23.4-33.3-23.3
			c-10,0.1-19.1,3.4-28.1,7.3c-4,1.8-5.3,4.2-5.2,8.4C1203.9,933.4,1203.8,947.6,1203.8,961.7z"/>
		<path class="st0" d="M1137.1,968.4c0,13.9-0.2,27.8,0.1,41.7c0.1,4.9-1.6,8.1-5.2,11.2c-21.1,17.7-45.8,24.8-72.8,22.8
			c-26.5-2-47.6-25.7-48.1-52.2c-0.5-27.1,18.4-48.2,46.5-52c13.3-1.8,26.8-0.9,40.2-0.8c5.4,0,7.2-1.4,7.1-7
			c-0.1-17.1-10.6-28.4-27.9-28.9c-13-0.4-25.1,3.4-36.5,9.3c-5.1,2.7-6.9,1.3-9-3.6c-6.9-16.1-7-16,9.1-22.8
			c14.9-6.2,30.5-8.7,46.5-7.8c30,1.5,49.7,22.3,49.7,52.1c0,12.7,0,25.3,0,38C1136.9,968.4,1137,968.4,1137.1,968.4z M1104.2,987.4
			c0-6.3-0.1-12.7,0-19c0-3.1-0.6-5.1-4.3-5.1c-9.5,0.1-19-0.5-28.5,0.1c-11.2,0.7-20.3,5.6-24.3,16.8c-4.1,11.4-1.2,21.6,6.9,30.3
			c10.4,11.2,26.4,12.6,42.5,4.5c5.6-2.8,8.6-6.4,7.8-13.1C1103.7,997.2,1104.2,992.2,1104.2,987.4z"/>
		<path class="st0" d="M1412.9,973.5c0-20.5,0.1-40.9-0.1-61.4c-0.1-4.7,1.6-7.5,5.3-10.2c23.6-17.1,49.5-26,78.8-23.4
			c11.1,1,21.5,4.4,30.4,11.4c10.2,8,15.6,18.4,15.6,31.6c0,37.8-0.1,75.6,0.1,113.3c0,5.5-1.5,7.4-7,7c-6.3-0.4-12.7-0.5-19,0
			c-5.8,0.5-7.4-1.5-7.4-7.3c0.3-32.2,0.1-64.3,0.1-96.5c0-26.8-16.1-39.6-42.5-33.9c-1.7,0.4-3.3,0.8-4.9,1.3
			c-15.3,4.7-15.8,5.5-15.8,21.1c0,36.1-0.1,72.1,0.1,108.2c0,5.4-1.4,7.4-7,7c-6.3-0.5-12.7-0.5-19,0c-6,0.4-8-1.4-7.9-7.6
			C1413.2,1014,1412.9,993.7,1412.9,973.5z"/>
		<path class="st0" d="M928,1046.1c-16.7,0.1-33.6-6.6-49.2-17.6c-2.8-1.9-3.3-3.7-1.3-6.6c3.4-5.1,5.4-12.3,10-14.9
			c5.1-2.9,9.8,4.3,14.9,6.6c12,5.3,24.1,7.4,37.1,5.3c4.4-0.7,8.5-2.2,12.3-4.5c6.5-4,10.3-9.6,10-17.5c-0.2-7.5-4.8-12.2-11.2-15
			c-10.1-4.3-20.4-7.9-30.6-12c-6.1-2.5-12.3-4.8-18.1-8c-25.6-13.9-30.4-46.4-10.1-67.4c12.7-13.2,28.8-17.7,46.5-17.5
			c16.1,0.1,30.5,5.9,44.4,13.3c3,1.6,3.7,3.3,1.8,6.3c-2.9,4.5-5.6,9.1-8.1,13.9c-1.9,3.6-3.9,3.3-7,1.6c-10-5.4-20.5-9.2-32-9
			c-5.9,0.1-11.6,1.1-16.9,4.2c-6.2,3.6-9.7,8.9-9.5,16.1c0.1,6.8,4.7,10.5,10.3,13c6.4,2.9,13,5.5,19.7,7.7c9,3,17.6,7.1,26.4,10.7
			c37.2,15.3,32.6,60.7,6.6,78.3C961,1042.3,946.3,1045.8,928,1046.1z"/>
		<path class="st0" d="M1378.9,958.7c0,25.3-0.1,50.6,0.1,76c0.1,5.3-1.1,7.6-6.8,7.2c-6.8-0.5-13.7-0.6-20.4,0
			c-6.9,0.6-7.9-2.3-7.9-8.4c0.3-32.9,0.2-65.7,0.1-98.6c0-14.1,0-28.2-0.4-42.4c-0.1-4.1,1.2-6.2,5.2-7.3
			c8.2-2.3,16.4-4.7,24.4-7.6c4.8-1.7,5.8-0.4,5.8,4.3C1378.8,907.6,1378.9,933.1,1378.9,958.7z"/>
		<path class="st0" d="M1362,810.8c13.2,0.4,21.8,9.5,21.3,22.6c-0.5,12.4-10.4,21.2-23.5,20.8c-11.7-0.3-21.4-9.8-21.2-20.9
			C1338.8,819.8,1348.6,810.4,1362,810.8z"/>
		<path class="st1" d="M1416.5,1082.9c-1.9,6.3-4.9,7.4-10,4.6c-2.6-1.4-6.2-1-7.6,2.2c-1.6,3.8,1.8,5,4.4,6.3
			c2.4,1.2,4.9,2.2,7.3,3.4c4.6,2.5,6.7,6.3,5.9,11.5c-0.8,5.1-4,8.2-9,9.5c-5.2,1.3-10.2,0.3-14.8-2.4c-1.7-1-3.5-2.2-2.1-4.6
			c1.1-1.9,2.4-3.8,5.2-2.4c4.1,2.1,9.7,5.4,12-0.3c2.4-6.1-5-6.4-8.7-8.3c-7.6-4-10.4-8.9-8.1-15c2.4-6.4,10.6-9.3,18.8-6.9
			c3.6,1.1,6.1,2.4,11.2,0.6c8.7-3,19.2-0.9,29-0.8c1.8,0,2.3,1.5,2.4,3.1c0.1,1.9-0.4,3.4-2.6,3.6c-1.2,0.1-2.5,0.2-3.7,0
			c-6.1-1-7.4,2-7,7.5c0.4,6.6,0.2,13.2,0.1,19.7c0,2.7,1.2,6.2-3.7,6.3c-5.4,0.1-4.1-3.7-4.1-6.6c-0.1-7.1-0.3-14.1,0.1-21.2
			c0.3-4.6-1.5-6.2-5.8-5.7C1422,1087.5,1418.9,1087,1416.5,1082.9z"/>
		<path class="st1" d="M908.9,1098.9c-4.3,3.9-4.8,7.9-6.4,11.3c-1,2.2-2.4,3.4-5,3.4s-3.9-1.3-4.9-3.6c-1.5-3.4-2.1-7.3-5.6-10.4
			c-2.3,5.6-1.7,11-2.2,16.1c-0.3,3.3-1.3,4.8-4.8,4.7c-3.9-0.2-3.3-2.7-3.1-5.1c0.8-9.9,1.6-19.9,2.5-29.8c0.2-2.3-0.4-5.1,3.3-5.4
			c3.1-0.2,5.5,0.2,6.9,3.7c2.4,6,4,12.3,8.4,18.7c2.7-6.7,5.3-12.4,7.3-18.2c1.2-3.4,3.2-4.4,6.6-4.2c4.1,0.2,3.6,3.3,3.8,5.8
			c0.8,9.7,1.6,19.4,2.3,29.1c0.2,2.6,1,5.4-3.5,5.5c-4,0.1-4.1-2.3-4.3-5.2C909.9,1110.3,909.4,1105.3,908.9,1098.9z"/>
		<path class="st1" d="M1373.9,1070.8c-5.8,5.5-5.9,8.6,1.5,11.6c8.8,3.6,12.3,14,9.6,23.6c-2.7,9.6-11,15.4-21.6,15
			c-10.4-0.4-18.3-7-20.1-16.8c-1.8-9.9,2.7-19.1,11.6-22.8c3.4-1.4,6.1-2.4,7.2-6.7C1363.5,1070,1368,1069.6,1373.9,1070.8z
			 M1364.6,1086.8c-7.7-0.1-13.5,5.5-13.5,13.2c-0.1,7.8,5.5,13.7,13,13.8c7.5,0.1,13.3-5.6,13.6-13.3
			C1377.9,1092.8,1372.3,1086.9,1364.6,1086.8z"/>
		<path class="st1" d="M1328.6,1102.7c0-5.7,0-11.4,0-17.2c0-2.7-0.4-5.4,3.8-5.5c4.1-0.1,4.1,2.4,4.1,5.3c-0.1,9.8,0,19.5-0.1,29.3
			c0,2.2,1.1,5.3-2.6,5.8c-2.7,0.3-5.2,0.2-7-2.6c-4.4-7-9.1-13.8-13.6-20.7c-0.7,0-1.4,0.1-2,0.1c0,5.8,0,11.7,0,17.5
			c0,3,0.5,6-4.2,5.8c-4.4-0.1-3.6-3.1-3.6-5.6c0-9.5-0.1-19,0-28.5c0-2.2-1.3-5.3,2.3-6.1c3-0.6,5.6-0.2,7.5,2.9
			c4.2,6.8,8.8,13.3,13.2,20C1327.1,1103.1,1327.8,1102.9,1328.6,1102.7z"/>
		<path class="st1" d="M1083.7,1098.3c-1.7,5.1-0.4,10.4-0.8,15.6c-0.2,2.9,1.2,6.7-4.2,6.6c-4.8-0.1-3.7-3.5-3.8-6.3
			c-0.1-9.3-0.1-18.5,0-27.8c0-2.2-1.2-5.3,2.3-6.1c3.4-0.8,6,0.2,8,3.4c4,6.6,8.5,12.9,13.5,20.5c2.7-6.6,1.1-12.4,1.5-17.9
			c0.2-2.7-1-6.1,3.8-6.2c4.7-0.1,4.1,3,4.1,5.9c0,9.5,0.1,19,0,28.5c0,2.2,1.2,5.2-2.6,5.8c-3.1,0.5-5.6-0.1-7.5-3.1
			c-3.3-5.4-6.9-10.6-10.4-15.9C1086.9,1100,1086.3,1098.2,1083.7,1098.3z"/>
		<path class="st1" d="M1296.1,1110.1c0,2.4,0,4.9,0,7.3c0,2.2-1.6,3.7-3.2,2.9c-4.9-2.6-9.4,0.5-14,0.7
			c-8.6,0.4-16.2-4.8-19.1-13.1c-3.3-9.3-0.3-19.4,7.4-24.7c6.7-4.6,18.5-4.8,24.3-0.4c1.5,1.1,2.6,2.2,1.4,4.2
			c-1.1,1.7-2.1,3.6-4.5,2.3c-2.6-1.3-5.4-2.4-8.3-2.4c-5.6,0-10,2.2-12.2,7.5c-2.4,5.7-1.5,11.1,2.8,15.6c3.9,4.1,8.9,4.8,14.1,2.5
			c1.8-0.8,3.6-1.7,3.9-3.9c0.3-2.4-1.6-2.6-3.3-2.9c-2.3-0.4-2.4-2.1-2.3-3.9c0.1-2.1,1.5-2.6,3.4-2.9
			C1295.2,1097.4,1296.1,1098.5,1296.1,1110.1z"/>
		<path class="st1" d="M1167.7,1100.8c0-1.9-0.3-3.9,0.1-5.8c0.9-4.9-3.1-11.7,2.5-14.4c8.9-4.2,24.6,1.2,28.9,8.5
			c7.6,12.8,0.7,28.6-13.6,31c-17.1,2.8-17.9,2.1-17.9-14.9C1167.7,1103.7,1167.7,1102.2,1167.7,1100.8z M1175.5,1099.4
			c0,3.4,0,6.8,0,10.2c0,2.2,0.5,3.8,3.2,3.9c5.9,0.1,11.3-0.9,14-7s0.9-14-3.9-17.2c-3.4-2.3-7.5-3.1-11.2-1.9
			c-4,1.3-1.4,5.5-2,8.4C1175.3,1096.9,1175.5,1098.2,1175.5,1099.4z"/>
		<path class="st1" d="M960.1,1100.7c0-1.9-0.5-4.1,0.1-5.8c1.6-4.8-4.3-12.3,3.4-14.4c12.2-3.3,24.4,1.5,28.5,9.6
			c6.9,13.5-0.7,28.4-15.4,30.2c-16.5,2-16.5,2-16.5-14.4C960.1,1104.1,960.1,1102.4,960.1,1100.7z M967.9,1100c0,3.2,0,6.3,0,9.5
			c0,2.1,0.4,3.6,3,4.1c6.3,1.2,13.1-2.8,14.7-9c2-7.7-1.1-14.5-7.7-16.7c-7.6-2.6-9.9-0.9-10,7.1
			C967.9,1096.6,967.9,1098.3,967.9,1100z"/>
		<path class="st1" d="M926.4,1100.3c0-4.6,0.4-9.3-0.1-13.9c-0.5-5.4,1.8-6.7,6.7-6.4c5.1,0.4,10.2,0.2,15.3,0
			c2.8-0.1,4,1.1,3.9,3.9c-0.1,2.7-1.7,3.1-3.9,3.1c-2.9-0.1-5.9,0.1-8.8,0c-3.4-0.2-5.4,0.4-5.4,4.6c-0.1,4.5,2,4.9,5.7,5.2
			c3.2,0.3,9.1-3,9,3.5c-0.1,5.8-5.7,2.7-8.8,3.1c-3.4,0.4-6,0.2-6,5c0,4.4,1.9,5.4,5.8,5.2c3.2-0.2,6.3,0,9.5,0
			c2.3,0,3.7,0.7,3.8,3.3c0.1,3-1.5,3.7-4.1,3.7c-6.1-0.1-12.2-0.2-18.3,0c-3.6,0.1-4.6-1.5-4.5-4.8
			C926.6,1110.6,926.4,1105.4,926.4,1100.3z"/>
		<path class="st1" d="M1492,1121c-8.8,0-16.3-4.9-19.4-12.9c-3.2-8.2-1-17.7,5.4-23.4c6.2-5.6,16.4-6.8,23.9-2.8
			c2.2,1.2,5.4,2,3.4,5.8c-1.9,3.7-4.1,1.8-6.6,0.8c-7.1-3-13.3-1.6-16.9,3.7c-3.5,5.1-3.1,13.1,1.3,17.6c5,5.1,10.8,5.1,16.7,1.7
			c2.5-1.4,4.6-3,6.6,0.6c2.1,3.7-1,4.7-3.2,6C1499.7,1120.2,1495.9,1120.9,1492,1121z"/>
		<path class="st1" d="M1239,1080.2c2.5-0.3,4.3,0.4,5.2,3c3.8,11,7.8,22,11.7,33c0.5,1.5,1.5,3.5-1.2,4c-3,0.5-5.9,0.5-6.8-3.5
			s-2.3-6.9-7.6-6.8c-5.3,0.1-9,0.9-9.9,6.8c-0.6,4-3.8,4.3-6.7,3.5c-3.4-1-1.3-3.6-0.7-5.4c3.5-10.1,7.2-20.2,10.7-30.3
			C1234.4,1081.7,1235.6,1079.5,1239,1080.2z M1239.2,1091.4c-2.1,4.4-5,7.9-3.3,11.9c0.6,1.5,5.2,1.4,5.9,0.1
			C1244.2,1099.3,1240.5,1096,1239.2,1091.4z"/>
		<path class="st1" d="M1036.2,1121c-8.9,0-16.3-4.9-19.3-13c-3.1-8.4-1-17.9,5.4-23.4c6.2-5.5,16.4-6.7,24-2.8
			c2.2,1.1,5.4,2,3.4,5.8c-1.9,3.6-4.1,1.9-6.7,0.8c-7.2-3-13.4-1.6-16.9,3.7c-3.7,5.8-3.3,11.6,0.9,16.9c4.1,5.2,10.1,6,17.1,2.3
			c2.5-1.3,4.5-3.1,6.5,0.6s-1,4.7-3.2,6C1044,1120.1,1040.1,1120.9,1036.2,1121z"/>
		<path class="st1" d="M1147.7,1117.9c0.3,1.9-0.6,2.5-2,2.5c-2.7,0.1-5.5,0.3-6.3-3.3c-1-4.3-2.6-7.4-8.2-7.2
			c-4.9,0.2-8.6,0.7-9.4,6.4c-0.5,3.8-3.3,4.7-6.5,3.9c-4.2-1.1-1.4-4-0.8-5.8c3.4-10.2,7.1-20.2,10.6-30.3c0.9-2.7,2.2-4,5.2-4
			c2.8,0,4.6,0.7,5.5,3.6c3.7,10.8,7.6,21.6,11.4,32.4C1147.3,1116.7,1147.5,1117.4,1147.7,1117.9z M1130.8,1091.2
			c-2.6,4.3-4.9,7.9-3.6,11.9c0.5,1.6,5.1,1.5,5.9,0.2C1135.6,1099.3,1131.8,1095.9,1130.8,1091.2z"/>
		<path class="st1" d="M1543.8,1116.8c0.5,3.2-0.9,3.5-2.4,3.6c-3.1,0.3-5.4-0.6-5.9-3.9c-0.8-5.6-4.2-6.6-9.3-6.5
			c-4.3,0.1-6.9,1.1-7.9,5.6c-0.5,2.3-1,4.9-4.4,4.9c-3.2,0.1-5.4-0.3-3.8-4.4c3.9-10.7,7.5-21.6,11.5-32.3c1.4-3.9,7.9-5.4,9.2-2.1
			C1535.6,1093.5,1539.7,1105.7,1543.8,1116.8z M1526.6,1092c-0.9,4-5,7.3-2.7,11.3c0.8,1.4,5.2,1.4,5.9-0.1
			C1531.5,1099.2,1528.2,1095.7,1526.6,1092z"/>
		<path class="st1" d="M1000.9,1100.7c0-5.3,0.1-10.7,0-16c-0.1-2.8,0.4-4.7,3.9-4.7c3.3,0,4.1,1.5,4.1,4.5
			c-0.1,10.4-0.1,20.8,0,31.2c0,2.8-0.5,4.6-3.9,4.6c-3.3,0-4.1-1.5-4.1-4.5C1001,1110.9,1000.9,1105.8,1000.9,1100.7z"/>
		<path class="st1" d="M1208.9,1100.4c0-5.4,0.1-10.7,0-16.1c0-2.6,0.7-4.1,3.7-4.2c3.2-0.1,4.3,1.3,4.2,4.4
			c-0.1,10.5-0.1,21,0,31.5c0,3-0.7,4.6-4.1,4.5c-3.5,0-3.9-1.9-3.9-4.7C1209,1110.7,1208.9,1105.5,1208.9,1100.4z"/>
		<path class="st1" d="M1057.9,1099.6c0-4.9,0-9.8,0-14.6c0-2.7,0.1-4.8,3.7-4.9c3.2,0,4.2,1.4,4.2,4.4c-0.1,10.5-0.1,21,0,31.5
			c0,3-0.9,4.5-4.1,4.5c-3.5,0-3.9-2-3.8-4.8C1057.9,1110.3,1057.9,1105,1057.9,1099.6z"/>
		<path class="st1" d="M1456.9,1100.3c0-5.3,0-10.7,0-16c0-2.6,0.7-4.1,3.6-4.2c3.1-0.1,4.3,1.1,4.3,4.3c-0.1,10.7-0.1,21.3,0,32
			c0,3.2-1.4,4.2-4.4,4.1s-3.6-1.7-3.5-4.2C1456.9,1110.9,1456.9,1105.6,1456.9,1100.3z"/>
	</g>
</g>
</svg>
