<?xml version="1.0" encoding="utf-8"?>
<!-- Generator: Adobe Illustrator 26.0.3, SVG Export Plug-In . SVG Version: 6.00 Build 0)  -->
<svg version="1.1" id="Camada_1" xmlns="http://www.w3.org/2000/svg" xmlns:xlink="http://www.w3.org/1999/xlink" x="0px" y="0px"
	 viewBox="0 0 1920 1920" style="enable-background:new 0 0 1920 1920;" xml:space="preserve">
<style type="text/css">
	.st0{fill:#243563;}
	.st1{fill:#7B7A7A;}
</style>
<g>
	<g>
		<path class="st0" d="M1138,1092.9c-12.9,18.6-30.3,25.5-50.1,28.1c-91.2,11.9-146.2-56.2-135.3-140.8
			c9.4-73.2,71.8-116.5,143-101.1c17,3.7,31.3,11.7,41.4,26.1c0.7-0.6,1.6-1,1.6-1.4c1.1-18.8,1.1-18.8,19.8-18.8
			c13.7,0,27.3,0.2,41-0.1c5.4-0.1,7.3,1.5,7.2,7.1c-0.2,73.1-0.1,146.2-0.4,219.3c-0.1,21.1-5.4,41.4-17.4,58.6
			c-29.3,42.1-69.1,66.4-121.8,61.6c-51.5-4.8-87.5-32.5-107.5-80.4c-4.5-10.7-4.2-10.9,7.3-10.9c17.5,0,35,0.1,52.5-0.1
			c4.4,0,7.7,0.7,11,4.3c21,22.7,47.6,28.7,73,17C1128.5,1149.7,1141.3,1125.2,1138,1092.9z M1135.1,999.4
			c0.2-33.4-23.8-57.4-57.4-57.6c-32.3-0.1-56.9,24.4-57.1,57c-0.2,33.4,23.9,58.6,56.5,58.9
			C1110.5,1058,1134.9,1033.5,1135.1,999.4z"/>
		<path class="st0" d="M609,897.9c-10.2,0-20.3-0.4-30.5,0.1c-6.6,0.3-9.7-1.5-11.3-8.5c-3.5-14.9-12.8-21.5-27.1-21
			c-11.5,0.4-21.2,6.9-24.7,16.4c-3.4,9.4-0.4,19.3,9.2,26.9c13.3,10.6,29.4,16.2,44.9,22.5c17.7,7.1,34,16.1,49.7,26.8
			c49.2,33.6,41.5,119.4-11.5,145c-43.4,21-88.6,21.3-131.5-1.1c-33.2-17.3-46-48.2-45.9-84.9c0-4.9,1.4-6.8,6.5-6.7
			c22.1,0.2,44.1,0.3,66.2,0c5.9-0.1,6.4,2.6,7,7.5c2.9,22.8,16.4,35.3,35.2,33.2c11.2-1.3,24.8-12.5,27.6-22.9
			c2.9-10.8-3.8-17.7-10.2-24.5c-6.3-6.8-14.7-10.6-23.1-14.1c-17.5-7.2-35.3-13.5-52-22.4c-32.8-17.5-53-43-51.6-81.9
			c0.6-16.6,5.9-31.5,16.1-44.6c39.4-50.8,128.9-55.6,173.6-9.5c15.8,16.3,20.9,36.6,23.1,58.3c0.5,5.1-2,5.8-6.2,5.7
			C631.4,897.8,620.2,897.9,609,897.9z"/>
		<path class="st0" d="M859.9,907.1c1-22.2,1-22.2,21.1-22.2c13.3,0,26.6,0.2,39.9-0.1c5.5-0.1,7.1,1.9,7.1,7.3
			c-0.1,71.7-0.2,143.4,0,215.1c0,6.6-2.9,7.3-8.2,7.2c-16.1-0.2-32.3-0.8-48.3,0.2c-9.7,0.6-12.6-2.7-11.2-11.7
			c0.4-2.6,0.1-5.4,0.1-10.2c-27,32.5-61.8,32.9-96.9,26.9c-53.5-9.2-88.5-53.9-90.9-112.9c-0.9-22.6,2.1-44.6,11.9-65.4
			c24.8-52.6,88.1-78.9,143-59.4C840.2,886.5,850.4,894.6,859.9,907.1z M799.2,941.8c-32.1-0.3-57.1,24.3-57.5,56.6
			c-0.4,33.2,23.8,58.7,56.3,59.2c33.3,0.6,58.2-24.2,58.4-58C856.5,966.2,832.7,942.1,799.2,941.8z"/>
		<path class="st0" d="M1417.6,907c1.5-22.1,1.5-22.1,20.9-22.1c13,0,25.9,0.2,38.9-0.1c5.9-0.2,8.6,0.8,8.6,7.8
			c-0.3,71.3-0.3,142.7,0,214c0,7-2.7,8-8.7,7.8c-16.1-0.3-32.2-0.6-48.3,0.1c-8.9,0.4-12.1-2.5-10.8-11.1c0.4-2.7,0.1-5.5,0.1-10.6
			c-23.8,29.5-54.8,31.5-86.8,28.2c-45.5-4.7-77.4-29.3-92.1-72c-17.8-51.8-12.9-101.5,28.3-141.7c33.8-32.9,75.3-37.3,119.2-24.7
			C1399.2,886.2,1408.8,894.5,1417.6,907z M1414.3,998.5c-0.2-33.4-24.2-56.9-58.1-56.7c-32.1,0.1-56.3,24.9-56.2,57.8
			c0,33.2,24.5,58.1,57.2,58.1C1390.5,1057.7,1414.6,1032.8,1414.3,998.5z"/>
		<path class="st1" d="M1402.8,746.2c0.5-10.2,0.5-20.3,3.1-30.2c3.6-14.1,11.8-24,26.5-26.5c16.2-2.7,32.3-3.1,44.7,10.8
			c6.7,7.4,10.9,15.9,11.6,26.1c1,14,1.6,28-0.2,41.9c-5.2,39.6-44.8,43.8-67.7,31.2c-10.7-5.9-14.4-16.8-16.1-28.1
			C1403.5,762.9,1403.4,754.5,1402.8,746.2z M1473.2,746.1c0-4.9,0.3-9.8-0.1-14.6c-0.3-4.8-0.7-9.8-2-14.4
			c-3.5-12.9-11.3-18.3-25.6-18.4c-14.1-0.1-22.9,5.3-25.9,18c-4.7,20.2-5,40.8,0.4,61c3.1,11.8,12.4,17.4,25.5,17.3
			c13.3-0.1,21.4-5.8,25.2-17.8C1474.1,767,1473.2,756.5,1473.2,746.1z"/>
		<path class="st1" d="M1121.4,746.7c0-15.7,0.3-31.4-0.1-47.1c-0.2-6.3,1.4-9.9,8.3-10.4c16.7-1.1,33.2-2.7,49.1,5.8
			c10.9,5.8,12.8,14.7,13,25.2c0.1,11.1-0.4,22.3-12.4,27.5c-9.3,4-11.2,8.7-4.3,16.6c7.9,8.8,13.9,19,19.6,29.3
			c1.6,2.9,6.8,6.8,2.6,9.4c-3.9,2.4-9.4,2-13.9-3.1c-9.1-10.4-14.6-22.8-21.7-34.2c-5.7-9.2-14-12.8-24-10.3
			c-4.1,1-3.3,3.9-3.3,6.5c-0.1,11.2-0.1,22.3,0,33.5c0,4.3,0.4,8.4-6.1,8.6c-7,0.2-6.8-4.2-6.7-9
			C1121.4,778.8,1121.4,762.7,1121.4,746.7z M1134.2,722.8c0,24.4,0.6,25,23.6,21.8c14.2-2,20-10.5,18.5-27.4
			c-1.3-14.5-10-19.1-32.7-18.6c-16.3,0.3-7,12.3-9.3,19C1133.7,719.1,1134.2,721,1134.2,722.8z"/>
		<path class="st1" d="M1099,772.6c0,5.2-0.6,10.6,0.1,15.7c1.5,10.4-3,14.6-12.9,15.4c-11.1,0.9-22.2,2.5-33.4,0.7
			c-16.4-2.6-26.8-11.6-30.4-27.6c-4.4-19.3-4.7-38.8,0-58.2c4.3-17.6,16.1-27.5,33.8-29.9c11.1-1.5,22.4-0.9,33.3,2.1
			c3.4,0.9,8.2,1.1,6.7,7.1c-1.4,5.4-4.5,4.6-8.8,3.6c-40.1-8.9-54.2,2.4-54.3,43.3c0,5.2-0.1,10.5,0.3,15.7
			c1.6,26.1,13.5,36,39.5,34.4c10.1-0.6,15.7-3.5,13.7-14.8c-0.7-3.7-0.4-7.7,0-11.5c1.1-9.9,0.1-17.5-13.1-15.1
			c-4,0.7-5.6-2-5.5-5.8c0.1-3.5,2-5,5.4-4.8c0.7,0,1.4,0,2.1,0C1099,741.7,1099,741.7,1099,772.6z"/>
		<path class="st1" d="M1317.8,746c0-15.4,0.3-30.8-0.2-46.2c-0.2-6.9,1.9-10.5,9-10.9c12.6-0.7,25.2-2,37.6,0.9
			c15,3.5,22.2,11.7,23.7,26.8c2,19.5-4,33-17.3,39.4c-7.5,3.6-15.5,4.1-23.6,4.1c-19.2,0-15.9,0.1-16.1,16.7
			c-0.1,6.3-0.1,12.6,0,18.9c0.1,4.7-0.8,8.2-6.8,8.1c-6.2-0.1-6.4-4-6.4-8.5C1317.8,778.9,1317.8,762.5,1317.8,746z M1330.9,724.4
			c0,6.3,0,12.5,0,18.8c0,2.8-0.1,6.2,3.8,6.2c11.4,0.1,23.5,2.9,33-5.8c8.8-8.1,7.4-19.2,5.7-29.5c-2.2-12.6-14.9-17.8-35.5-15.3
			c-12.6,1.5-5,11.4-6.8,17.3C1330.3,718.6,1330.9,721.6,1330.9,724.4z"/>
		<path class="st1" d="M1294,735.5c0,11.9,0.3,23.8-0.1,35.6c-0.6,19.6-10.1,30.3-29.3,33.5c-7.3,1.2-14.6,1.1-21.9-0.3
			c-17.7-3.5-27.1-12.4-27.9-30.3c-1.1-25.8-0.4-51.7-0.6-77.6c0-5.2,2.4-6.5,7.1-6.5c5.8,0,5.7,3.7,5.7,7.7
			c0,23.1-0.2,46.1,0.1,69.2c0.2,17,7.3,25.4,22.6,27.6c19.4,2.9,31.1-6.6,31.6-26.5c0.6-22.7,0.2-45.4,0.2-68.1
			c0-4.8-1.3-10.2,6.8-9.9c7.6,0.3,5.6,5.7,5.7,9.9C1294.1,711.7,1294,723.6,1294,735.5C1294,735.5,1294,735.5,1294,735.5z"/>
	</g>
</g>
</svg>
