<?xml version="1.0" encoding="utf-8"?>
<!-- Generator: Adobe Illustrator 26.0.3, SVG Export Plug-In . SVG Version: 6.00 Build 0)  -->
<svg version="1.1" id="Camada_1" xmlns="http://www.w3.org/2000/svg" xmlns:xlink="http://www.w3.org/1999/xlink" x="0px" y="0px"
	 viewBox="0 0 1920 1022.6" style="enable-background:new 0 0 1920 1022.6;" xml:space="preserve">
<style type="text/css">
	.st0{fill:#243563;}
	.st1{fill:#7B7A7A;}
</style>
<g>
	<g>
		<path class="st0" d="M1275.5,743.6c-22.9,33-53.7,45.2-88.8,49.8c-161.6,21.1-259.1-99.6-239.8-249.6
			c16.7-129.7,127.3-206.5,253.5-179.2c30.1,6.6,55.5,20.7,73.4,46.3c1.2-1.1,2.8-1.8,2.8-2.5c1.9-33.3,1.9-33.3,35.1-33.3
			c24.3,0,48.4,0.4,72.7-0.2c9.6-0.2,12.9,2.7,12.8,12.6c-0.4,129.6-0.2,259.1-0.7,388.7c-0.2,37.4-9.6,73.4-30.8,103.9
			c-51.9,74.6-122.5,117.7-215.9,109.2c-91.3-8.5-155.1-57.6-190.5-142.5c-8-19-7.4-19.3,12.9-19.3c31,0,62,0.2,93.1-0.2
			c7.8,0,13.6,1.2,19.5,7.6c37.2,40.2,84.4,50.9,129.4,30.1C1258.7,844.3,1281.4,800.9,1275.5,743.6z M1270.4,577.9
			c0.4-59.2-42.2-101.7-101.7-102.1c-57.2-0.2-100.8,43.2-101.2,101c-0.4,59.2,42.4,103.9,100.1,104.4
			C1226.8,681.8,1270,638.3,1270.4,577.9z"/>
		<path class="st0" d="M337.9,398c-18.1,0-36-0.7-54.1,0.2c-11.7,0.5-17.2-2.7-20-15.1c-6.2-26.4-22.7-38.1-48-37.2
			c-20.4,0.7-37.6,12.2-43.8,29.1c-6,16.7-0.7,34.2,16.3,47.7c23.6,18.8,52.1,28.7,79.6,39.9c31.4,12.6,60.3,28.5,88.1,47.5
			c87.2,59.6,73.6,211.6-20.4,257c-76.9,37.2-157,37.8-233.1-1.9C43.7,734.4,21,679.6,21.2,614.6c0-8.7,2.5-12.1,11.5-11.9
			c39.2,0.4,78.2,0.5,117.3,0c10.5-0.2,11.3,4.6,12.4,13.3c5.1,40.4,29.1,62.6,62.4,58.8c19.9-2.3,44-22.2,48.9-40.6
			c5.1-19.1-6.7-31.4-18.1-43.4c-11.2-12.1-26.1-18.8-40.9-25c-31-12.8-62.6-23.9-92.2-39.7c-58.1-31-93.9-76.2-91.5-145.2
			c1.1-29.4,10.5-55.8,28.5-79c69.8-90,228.5-98.5,307.7-16.8c28,28.9,37,64.9,40.9,103.3c0.9,9-3.5,10.3-11,10.1
			C377.6,397.8,357.8,398,337.9,398z"/>
		<path class="st0" d="M782.6,414.3c1.8-39.3,1.8-39.3,37.4-39.3c23.6,0,47.1,0.4,70.7-0.2c9.7-0.2,12.6,3.4,12.6,12.9
			c-0.2,127.1-0.4,254.2,0,381.2c0,11.7-5.1,12.9-14.5,12.8c-28.5-0.4-57.2-1.4-85.6,0.4c-17.2,1.1-22.3-4.8-19.9-20.7
			c0.7-4.6,0.2-9.6,0.2-18.1c-47.9,57.6-109.5,58.3-171.7,47.7c-94.8-16.3-156.9-95.5-161.1-200.1c-1.6-40.1,3.7-79,21.1-115.9
			c44-93.2,156.1-139.8,253.5-105.3C747.7,377.8,765.8,392.1,782.6,414.3z M675,475.8c-56.9-0.5-101.2,43.1-101.9,100.3
			c-0.7,58.8,42.2,104,99.8,104.9c59,1.1,103.2-42.9,103.5-102.8C776.6,519,734.4,476.3,675,475.8z"/>
		<path class="st0" d="M1771.1,414.1c2.7-39.2,2.7-39.2,37-39.2c23,0,45.9,0.4,68.9-0.2c10.5-0.4,15.2,1.4,15.2,13.8
			c-0.5,126.4-0.5,252.9,0,379.3c0,12.4-4.8,14.2-15.4,13.8c-28.5-0.5-57.1-1.1-85.6,0.2c-15.8,0.7-21.4-4.4-19.1-19.7
			c0.7-4.8,0.2-9.7,0.2-18.8c-42.2,52.3-97.1,55.8-153.8,50c-80.6-8.3-137.2-51.9-163.2-127.6c-31.5-91.8-22.9-179.9,50.2-251.1
			c59.9-58.3,133.5-66.1,211.3-43.8C1738.5,377.3,1755.5,392,1771.1,414.1z M1765.2,576.3c-0.4-59.2-42.9-100.8-103-100.5
			c-56.9,0.2-99.8,44.1-99.6,102.4c0,58.8,43.4,103,101.4,103C1723,681.2,1765.8,637.1,1765.2,576.3z"/>
		<path class="st1" d="M1744.8,129.1c0.9-18.1,0.9-36,5.5-53.5c6.4-25,20.9-42.5,47-47c28.7-4.8,57.2-5.5,79.2,19.1
			c11.9,13.1,19.3,28.2,20.6,46.3c1.8,24.8,2.8,49.6-0.4,74.3c-9.2,70.2-79.4,77.6-120,55.3c-19-10.5-25.5-29.8-28.5-49.8
			C1746.1,158.7,1745.9,143.8,1744.8,129.1z M1869.6,128.9c0-8.7,0.5-17.4-0.2-25.9c-0.5-8.5-1.2-17.4-3.5-25.5
			c-6.2-22.9-20-32.4-45.4-32.6c-25-0.2-40.6,9.4-45.9,31.9c-8.3,35.8-8.9,72.3,0.7,108.1c5.5,20.9,22,30.8,45.2,30.7
			c23.6-0.2,37.9-10.3,44.7-31.5C1871.2,166,1869.6,147.4,1869.6,128.9z"/>
		<path class="st1" d="M1246.1,130c0-27.8,0.5-55.7-0.2-83.5c-0.4-11.2,2.5-17.5,14.7-18.4c29.6-1.9,58.8-4.8,87,10.3
			c19.3,10.3,22.7,26.1,23,44.7c0.2,19.7-0.7,39.5-22,48.7c-16.5,7.1-19.9,15.4-7.6,29.4c14,15.6,24.6,33.7,34.7,51.9
			c2.8,5.1,12.1,12.1,4.6,16.7c-6.9,4.3-16.7,3.5-24.6-5.5c-16.1-18.4-25.9-40.4-38.5-60.6c-10.1-16.3-24.8-22.7-42.5-18.3
			c-7.3,1.8-5.8,6.9-5.8,11.5c-0.2,19.9-0.2,39.5,0,59.4c0,7.6,0.7,14.9-10.8,15.2c-12.4,0.4-12.1-7.4-11.9-16
			C1246.1,186.9,1246.1,158.4,1246.1,130z M1268.8,87.6c0,43.2,1.1,44.3,41.8,38.6c25.2-3.5,35.4-18.6,32.8-48.6
			c-2.3-25.7-17.7-33.9-58-33c-28.9,0.5-12.4,21.8-16.5,33.7C1267.9,81.1,1268.8,84.5,1268.8,87.6z"/>
		<path class="st1" d="M1206.4,175.9c0,9.2-1.1,18.8,0.2,27.8c2.7,18.4-5.3,25.9-22.9,27.3c-19.7,1.6-39.3,4.4-59.2,1.2
			c-29.1-4.6-47.5-20.6-53.9-48.9c-7.8-34.2-8.3-68.8,0-103.2c7.6-31.2,28.5-48.7,59.9-53c19.7-2.7,39.7-1.6,59,3.7
			c6,1.6,14.5,1.9,11.9,12.6c-2.5,9.6-8,8.2-15.6,6.4c-71.1-15.8-96.1,4.3-96.2,76.7c0,9.2-0.2,18.6,0.5,27.8
			c2.8,46.3,23.9,63.8,70,61c17.9-1.1,27.8-6.2,24.3-26.2c-1.2-6.6-0.7-13.6,0-20.4c1.9-17.5,0.2-31-23.2-26.8
			c-7.1,1.2-9.9-3.5-9.7-10.3c0.2-6.2,3.5-8.9,9.6-8.5c1.2,0,2.5,0,3.7,0C1206.4,121.1,1206.4,121.1,1206.4,175.9z"/>
		<path class="st1" d="M1594.2,128.8c0-27.3,0.5-54.6-0.4-81.9c-0.4-12.2,3.4-18.6,16-19.3c22.3-1.2,44.7-3.5,66.6,1.6
			c26.6,6.2,39.3,20.7,42,47.5c3.5,34.6-7.1,58.5-30.7,69.8c-13.3,6.4-27.5,7.3-41.8,7.3c-34,0-28.2,0.2-28.5,29.6
			c-0.2,11.2-0.2,22.3,0,33.5c0.2,8.3-1.4,14.5-12.1,14.4c-11-0.2-11.3-7.1-11.3-15.1C1594.2,187.1,1594.2,158,1594.2,128.8z
			 M1617.4,90.5c0,11.2,0,22.2,0,33.3c0,5-0.2,11,6.7,11c20.2,0.2,41.7,5.1,58.5-10.3c15.6-14.4,13.1-34,10.1-52.3
			c-3.9-22.3-26.4-31.5-62.9-27.1c-22.3,2.7-8.9,20.2-12.1,30.7C1616.3,80.2,1617.4,85.5,1617.4,90.5z"/>
		<path class="st1" d="M1552,110.2c0,21.1,0.5,42.2-0.2,63.1c-1.1,34.7-17.9,53.7-51.9,59.4c-12.9,2.1-25.9,1.9-38.8-0.5
			c-31.4-6.2-48-22-49.5-53.7c-1.9-45.7-0.7-91.6-1.1-137.5c0-9.2,4.3-11.5,12.6-11.5c10.3,0,10.1,6.6,10.1,13.6
			c0,40.9-0.4,81.7,0.2,122.7c0.4,30.1,12.9,45,40.1,48.9c34.4,5.1,55.1-11.7,56-47c1.1-40.2,0.4-80.5,0.4-120.7
			c0-8.5-2.3-18.1,12.1-17.5c13.5,0.5,9.9,10.1,10.1,17.5C1552.2,68,1552,89.1,1552,110.2L1552,110.2z"/>
	</g>
</g>
</svg>
