<?xml version="1.0" encoding="utf-8"?>
<!-- Generator: Adobe Illustrator 27.8.0, SVG Export Plug-In . SVG Version: 6.00 Build 0)  -->
<svg version="1.1" id="Camada_3" xmlns="http://www.w3.org/2000/svg" xmlns:xlink="http://www.w3.org/1999/xlink" x="0px" y="0px"
	 viewBox="0 0 1920 442.3" style="enable-background:new 0 0 1920 442.3;" xml:space="preserve">
<style type="text/css">
	.st0{fill:#AD212A;}
	.st1{fill:#1A4359;}
	.st2{fill:#6D6D6D;}
</style>
<g>
	<path class="st0" d="M117.3,192.4c9.8,15.2,18.5,31.2,31.9,43.6c27.9,25.8,60,28.3,94.3,15.5c12.1-4.5,22.6-11.8,32.1-20.5
		c1.6-1.5,2.7-2.9,4.3,0.2c6.1,11.1,12.5,22.2,19.3,34.4c-92.4,0-183.8,0-275.9,0c45.6-81,91.3-162.2,136.9-243.4
		c2.1,0.2,2.3,1.9,3,3.1c14.8,27.2,29.5,54.5,44.3,81.7c1.4,2.6,1.3,4.1-0.4,6.7c-6.2,9.1-10,19.4-14.4,29.4
		c-3.9,8.7-8.4,17-15.5,23.6c-7.3,6.7-15.4,8.8-24.7,5.1c-5.1-2-9.9-4.5-14.9-6.8c-9.1-4.1-17.1-2.7-23.9,4.4
		c-2.9,3-5.6,6.2-9.4,8.5c1.1,1.3,1.8,1.5,3.3,0.9c4.6-1.7,8.3-4.5,12-7.5c6.8-5.4,13.9-5.9,21.2-1.1c1.7,1.1,3.4,2.1,5.2,3.1
		c13.2,7.4,24.9,6.4,36.5-3.1c6.4-5.3,11.5-11.7,15.6-18.9c5.1-9,11.8-16.6,18.6-24.3c2.1-2.3,3-2.4,4.6,0.5
		c5.8,11.1,11.9,22.2,17.8,33.3c0.6,1.1,1.2,2.3,1.3,3.5c1.1,14.9-12.5,35-26.6,39.4c-3.2,1-6.6,1.3-10.1,2c12,7.5,26.7,0.4,48-23.3
		c3.8,6.5,7.4,12.9,11.2,19.2c1.1,1.8,0.8,3.2-0.2,5c-26.2,48.2-93.2,52.7-125.3,8.5c-5.9-8.1-11.7-16.3-18.8-23.4
		c-0.3-0.4-0.7-0.8-1-1.2c-0.6-0.7-1.3-1.1-2.3-0.4c0.4,0.5,0.9,1,1.3,1.5C116.8,191.8,117.1,192.1,117.3,192.4z M97.8,178.8
		c0.9-4.7,2.4-8,4.9-11.1c3.8-4.5,3.5-9-0.5-13.1c-1-1-1.8-2.6-3.5-2.1s-1.8,2.3-1.9,3.6C96.4,163.5,96.1,170.7,97.8,178.8z"/>
	<path class="st0" d="M453.9,72.5c37.2,0.1,58.8,14.5,67.7,40.2c1.4,4.1,1.2,6.1-3.8,5.3c-0.9-0.1-1.8-0.1-2.7,0
		c-7.9,0.8-13.2-0.6-18.3-8.9c-8.9-14.7-24.8-17.4-41-16.5c-9.3,0.5-18,2.9-25,9.7c-11.3,11-9.9,25.6,3.5,34.1
		c7.3,4.6,15.5,7.2,23.8,9.6c14.2,4,28.8,6.7,41.9,13.9c18.5,10.1,26.9,24.6,23.8,42.6c-3.5,20.7-17.1,32.5-36.2,38.3
		c-16.4,5-33.3,5-49.7,0c-21.9-6.6-35.2-21.9-41.8-43.3c-1-3.4-0.6-5.3,3.5-4.6c0.4,0.1,0.7,0,1.1,0c9.4-1.1,15.7,0.6,21,10.8
		c9.2,17.8,27.1,21.1,45.8,20.3c7.1-0.3,14.1-1.6,20.6-4.9c11.1-5.7,16.8-16.6,14.3-27.3c-1.6-7.1-6.6-11.1-12.5-14.3
		c-11-6-23.2-8.7-35.1-11.9c-9.7-2.6-19.2-5.8-28.3-10.1c-31.7-14.8-30.5-51.6-8.5-69.3C430.7,76,445.2,72.5,453.9,72.5z"/>
	<path class="st0" d="M1183.7,222.3c-17.2,22.4-50.5,26.3-73,9.2c-20.4-15.5-26.7-36.8-23.1-61.1c3.2-21.5,15.1-37.3,35.5-45.7
		c21.5-8.8,46.4-2.2,60.2,15.7c1.2-4.5,0.6-8.8,0.5-13c-0.1-3.2,1.1-4,4.1-4.1c15.1-0.5,15.1-0.6,15.1,14.4
		c0,32.1-0.1,64.2,0.1,96.3c0,3.9-0.4,6.3-5.2,5.7c-4.5-0.6-10.5,1.9-13.1-1.1c-2.2-2.6-0.7-8.3-0.8-12.7
		C1183.9,225,1183.8,224.2,1183.7,222.3z M1183.8,181.7c0-2,0.2-4,0-6c-1.8-15.2-8.8-27.1-23.1-33.4c-13.7-6-27.3-4.8-39.3,4.4
		c-13.7,10.5-17.1,25.2-15.5,41.5c2.4,25.4,26.8,41.7,51,34.2C1173.4,217.3,1184,201.4,1183.8,181.7z"/>
	<path class="st0" d="M638.2,140.3c0-4.8,0.1-9,0-13.1c-0.1-2.8,0.8-3.7,3.7-3.8c15.2-0.7,15.2-0.8,15.2,14.1
		c0,32.3-0.1,64.6,0.1,96.8c0,4.2-1,5.9-5.4,5.4c-4.3-0.5-9.9,1.8-12.7-0.9c-2.7-2.7-0.6-8.3-0.9-12.6c-0.1-0.9,0-1.8,0-1.8
		c-2.3,1.8-4.9,3.8-7.5,5.9c-19.1,15.9-48.3,15.9-67.8,0.1c-31.9-25.9-29.5-77.8,4.4-100.7c18.3-12.3,52.7-12.6,69.3,9.9
		C636.8,139.7,637.2,139.8,638.2,140.3z M597.6,138.9c-9,0.4-15.9,2.9-22.3,7.9c-12.2,9.7-16.3,22.8-15.7,37.8
		c1,27.5,25.4,45.6,51,38c17.2-5.2,28.4-22.7,27.6-43.2C637.3,155.4,619.6,137.8,597.6,138.9z"/>
	<path class="st0" d="M892.8,158.1c0-25.2,0.1-50.4-0.1-75.5c0-4,0.5-5.7,5.2-5.6c33.4,0.2,66.9,0.2,100.3,0c4.3,0,5.5,1.3,5.1,5.3
		c-0.6,4.8,2.1,11.1-1.2,14.2c-3,2.8-9.1,0.8-13.8,0.8c-23,0.1-46.1,0.1-69.1,0c-4,0-5.7,0.6-5.6,5.2c0.3,15.3,0.2,30.7,0,46
		c0,3.4,0.9,4.2,4.3,4.2c20.5-0.2,40.9,0.1,61.4-0.2c4.5-0.1,5.7,1.4,5.3,5.5c-0.3,3.3-0.3,6.6,0,9.8c0.4,4-1.3,4.8-5,4.7
		c-20.3-0.2-40.6,0-60.9-0.2c-4.1,0-5.2,1-5.1,5.1c0.2,19.2,0,38.3,0.2,57.5c0,3.9-1.1,5.1-4.9,4.8c-3.8-0.3-7.7-0.3-11.5,0
		c-3.9,0.3-4.8-1.2-4.8-4.9C892.9,209.2,892.8,183.7,892.8,158.1z"/>
	<path class="st0" d="M1836.1,242.1c-34.5,0.2-60.6-25.8-60.7-60.5c-0.1-34.6,25.5-60.3,60-60.4c35.5-0.1,61.1,25.1,61.2,60.2
		C1896.6,216.3,1871,242,1836.1,242.1z M1877.5,181.7c0-25-16.9-42.6-41.1-42.9s-41.9,17.8-41.8,42.8c0.1,24.9,17.2,42.5,41.5,42.5
		C1860.3,224.2,1877.5,206.6,1877.5,181.7z"/>
	<path class="st0" d="M799.9,181.4c0,35.1-25,60.5-60.1,60.7c-34.7,0.3-60.7-25.8-60.6-60.9c0-34.8,25.6-60,60.8-60
		C774.8,121.3,799.9,146.4,799.9,181.4z M781.2,181.7c0-24.8-17.2-42.7-41.3-42.9c-24.2-0.2-42.3,18.2-42.1,42.8
		c0.2,24.7,17.7,42.5,41.8,42.5C763.8,224.2,781.2,206.5,781.2,181.7z"/>
	<path class="st0" d="M1619.4,156.4c-4.9,1.1-8.8-0.9-12.7-6.3c-8.7-12-32.2-15-44.4-6.6c-9.4,6.4-8.9,15.9,1.3,20.9
		c8.6,4.2,17.9,6.1,27.2,8c8.1,1.6,16,3.6,23.4,7.4c22.2,11.5,24.5,37.6,4.6,52.9c-27.2,21-73.6,8.3-86.1-23.5
		c-2.2-5.6-2.2-5.7,3.8-5.7c0.5,0,1.1,0,1.6,0c7.4-0.6,13.9-0.4,17.8,8.2c2.6,5.6,8.8,8.6,14.9,10.5c10.4,3.2,20.9,3,31.2-0.6
		c1.5-0.5,3-1.4,4.3-2.3c9.9-6.8,9-18.1-1.9-23.1c-9.9-4.5-20.5-6.4-31.1-8.6c-8.3-1.7-16.2-4.4-23.3-9.1
		c-17.1-11.5-18.2-34.6-2.1-47.6c10.4-8.4,22.9-10.1,35.7-9.6c20.5,0.9,36.6,9.1,45.2,28.8c2.8,6.3,2.7,6.3-4.4,6.3
		C1623.1,156.4,1621.9,156.4,1619.4,156.4z"/>
	<path class="st0" d="M1250.8,139.7c12.3-14.6,27.3-19.9,45.2-18.1c20.8,2.1,35.8,16.2,39.2,36.7c0.8,4.7,1.2,9.4,1.1,14.2
		c-0.1,20.8-0.1,41.6,0.1,62.4c0,3.8-1,4.9-4.9,4.9c-14.1-0.1-14.1,0.1-14.1-13.7c0-18.3,0.2-36.5-0.1-54.8
		c-0.1-11.2-2.9-21.4-13.3-27.8c-18-11.2-43.8-2.3-51,17.6c-1.9,5.2-2.6,10.6-2.6,16.1c0.1,19.2-0.1,38.3,0.1,57.5
		c0,3.7-0.8,5-4.8,5.1c-14.4,0-14.4,0.2-14.4-14c0-32.3,0.1-64.6-0.1-96.9c0-4.3,1.1-5.9,5.5-5.4c4.3,0.5,9.8-1.8,12.7,0.9
		c2.8,2.5,0.6,7.9,0.9,12C1250.6,137.2,1250.7,138,1250.8,139.7z"/>
	<path class="st0" d="M1646.7,181.5c0-29.8,17.8-52.9,45.5-59.1c28.9-6.5,57.3,8.4,67.1,35.1c1.2,3.4,1.4,5.3-3,4.6
		c-0.9-0.1-1.8-0.1-2.7,0c-7.4,1-12.1-1.1-16.7-8c-9.4-14.2-24.4-17.5-40.3-14.4c-16.3,3.2-26.1,14.3-29.6,30.2
		c-3.8,17.1-0.7,32.8,13.1,44.9c18.9,16.5,48.8,11,60.5-11.2c2.2-4.1,4.5-5.6,8.8-5c1.1,0.1,2.2,0,3.3,0c10.5,0,10.5,0,6,9.8
		c-11.7,25.4-38.8,38.3-67,32.1C1664.5,234.6,1646.7,211.1,1646.7,181.5z"/>
	<path class="st0" d="M1470.9,162.2c-1.7,0-2.9-0.1-4.2,0c-8.4,0.7-14.5-0.3-20.2-8.9c-9.3-14-24.8-16.8-40.6-13.2
		c-16.5,3.8-25.7,15.4-28.9,31.6c-3,15.7-0.1,30.3,11.9,41.8c18.7,18,50.1,13.1,62.1-9.8c2.2-4.2,4.6-5.3,8.8-5c4,0.3,8,0.1,12,0.1
		c-3.6,24.5-30.7,44.7-57.7,43.4c-32-1.5-55.6-24.9-56.9-56.5c-1.4-32.5,19.1-59.7,48-63.6C1437,117.6,1464.2,134,1470.9,162.2z"/>
	<path class="st0" d="M1030.2,141.2c12.1-18.2,29.2-19.8,47.3-18.9c1.7,0.1,2.3,0.9,2.2,2.4c0,0.4,0,0.7,0,1.1
		c-0.1,4.9,1.6,11.1-0.8,14.4c-2.5,3.5-9.1,1.1-13.9,1.1c-20.3,0.3-34.9,14.5-35,34.8c-0.1,19.3-0.1,38.7,0.1,58
		c0,4-0.6,5.7-5.3,5.6c-13.9-0.2-13.9,0-13.9-13.9c0-32.5,0.1-64.9-0.1-97.4c0-4.2,1.1-5.6,5.2-5.1c4.5,0.6,10.5-1.9,13.1,1.1
		c2.2,2.5,0.7,8.3,0.9,12.7C1030,138,1030.1,138.8,1030.2,141.2z"/>
	<path class="st0" d="M1510.8,182c0,17.5-0.1,35,0.1,52.6c0,3.6-0.6,5-4.7,5c-14.3-0.1-14.3,0.1-14.3-14.1c0-32.3,0.1-64.6-0.1-96.9
		c0-3.9,0.7-5.3,5-5.3c13.9,0.2,13.9-0.1,13.9,13.8C1510.8,152.1,1510.8,167.1,1510.8,182z"/>
	<path class="st1" d="M464.4,417.9c-6.6,1.7-10.7,0.1-14.2-5.5c-6.3-10-13.6-19.4-20.3-29.2c-1.4-2.1-2.4-2.9-4.4-0.5
		c-3.3,3.9-6.9,7.5-10.5,11.2c-1.6,1.7-2.2,3.6-2.2,5.9c0.1,4.6-0.2,9.1,0.1,13.7c0.2,3.6-0.6,5-4.7,5.1c-4.6,0.1-3.9-2.5-3.9-5.2
		c0-22.1,0-44.1,0-66.2c0-3-0.1-5.1,4.2-5c3.8,0.1,4.5,1.4,4.5,4.8c-0.2,12-0.1,24-0.1,36.5c2.7-0.9,3.8-2.9,5.1-4.4
		c9.5-10.3,18.9-20.8,28.4-31.1c5.7-6.2,5.7-6.2,15.3-5c-2.9,3.2-5.5,6.1-8.1,9c-5.4,5.9-10.6,12.1-16.3,17.7
		c-3.1,3.1-3.7,5.1-0.8,8.9c8.6,11.3,16.6,23.1,24.8,34.7C462.4,414.7,463.2,416.1,464.4,417.9z"/>
	<path class="st0" d="M564,93.2c0-18.3,16.7-28.2,32.9-20.5c3.5,1.7,6.5,4,9.5,6.5c2.4,2,4.9,3.8,8,4.5c5.4,1.2,9-1.2,8.5-6.7
		c-0.4-5.3,1.8-5.8,6.1-5.7c10,0.3,11.5,2,8.9,12.1c-3.2,12.5-16,19.1-29,14.9c-4.6-1.5-8.5-4.1-12.2-7.1c-2.1-1.8-4.2-3.4-6.8-4.5
		c-6.3-2.7-10.8-0.1-10.6,6.6c0.1,4.8-1.9,5.5-5.7,5.1c-1.3-0.1-2.6-0.2-3.8,0C565.2,98.9,562.5,97.6,564,93.2z"/>
	<path class="st1" d="M494.1,418.8c-16.3-0.1-27.6-11.7-27.5-28.2c0.1-16.1,12.1-27.9,28.2-27.7s28,12.2,27.9,28.1
		C522.6,407.5,510.8,419,494.1,418.8z M513.5,391.2c0.1-11.6-7.6-19.7-18.8-19.8c-11.1-0.1-19.1,8-19.3,19.4
		c-0.2,11.2,7.9,19.8,18.8,20C505.3,410.9,513.5,402.6,513.5,391.2z"/>
	<path class="st1" d="M573.6,387.8c0.2-8.8,5.2-17.7,16.1-22.7c10.7-4.9,25.6-2.2,33.8,5.6c1.1,1.1,2.5,2.2,0.7,3.4
		c-2,1.3-2.5,5.3-6.1,3.7c-0.8-0.4-1.4-1.1-2.2-1.6c-9.5-6.6-21.1-6.2-28.1,0.9c-7,7.2-7.1,18.5-0.5,28.1c1.1,1.6,4.3,2.6,1.9,5.8
		c-3.7,4.9-4.9,5.1-8.6,0.1C576.1,405,573.6,398.3,573.6,387.8z"/>
	<path class="st1" d="M543.8,371.3c5.4-6.4,11.9-7.7,19.1-7.5c4,0.1,3.2,2.4,3.2,4.6c0.1,2.4,0.4,4.8-3.4,4.4
		c-3.1-0.3-6.2-0.2-9.2,0.9c-6.6,2.5-10.3,8-10.4,16.3c-0.1,7.8-0.2,15.7,0,23.5c0.1,3.3-0.4,5-4.3,4.8c-3.5-0.1-4.7-0.9-4.7-4.6
		c0.2-14.9,0.1-29.9,0.1-44.8c0-3.1,0-5,4.2-5c3.9,0,5.3,1.2,4.7,4.9C543.1,369.3,543.4,369.8,543.8,371.3z"/>
	<path class="st0" d="M1514.1,89c-0.1,7.3-5.6,12.9-12.8,12.9c-7.1,0-12.9-5.8-13-12.9c-0.1-7.3,5.9-13.3,13.2-13.1
		C1508.9,76.2,1514.2,81.7,1514.1,89z"/>
	<path class="st1" d="M596.9,417.8c4-8.1,10.3-9.9,18-8.8c4.3,0.6,5.5-1,5.4-5.3c-0.2-12.6,0.6-14,8.8-19.4c0,10.4,0,20.6,0,30.7
		c0,2.1-0.7,2.9-2.8,2.9C616.7,417.7,607,417.8,596.9,417.8z"/>
	<g>
		<path class="st2" d="M720.2,357c-2.5-4-5.6-6.7-9.4-8.1c-3.8-1.4-8.2-2.1-13.4-2.2c-3.4,0-6.8,0.4-9.9,1.2
			c-3.2,0.8-6.1,2.4-8.8,4.8c-2.7,2.4-4,5.5-4,9.2c0,1.9,0.4,3.5,1.3,4.9c0.9,1.4,1.9,2.6,3.1,3.5c1.2,0.9,2.9,1.7,5.2,2.5
			s4.3,1.4,6.1,1.8c1.8,0.4,4.3,0.9,7.4,1.5c9.4,1.8,15.8,3.6,19.3,5.3c6.9,3.4,10.3,8.8,10.3,16.3c0,4-0.9,7.5-2.8,10.4
			s-4.4,5.1-7.5,6.6s-6.2,2.5-9.4,3.2c-3.2,0.6-6.5,1-10.1,1c-6.4,0-12.4-1.4-18.2-4.1c-5.7-2.8-10-6.8-12.7-12.2l5.2-2.6
			c2.2,4.3,5.7,7.7,10.7,10.1c5,2.4,10,3.6,15,3.6c2.7,0,5.2-0.2,7.7-0.6c2.5-0.4,5.1-1.2,7.6-2.3c2.6-1.1,4.7-2.7,6.2-4.9
			c1.6-2.2,2.4-4.9,2.4-8.1c0-1.8-0.3-3.4-0.9-4.9c-0.6-1.5-1.5-2.7-2.9-3.8c-1.3-1.1-2.6-2-3.9-2.7c-1.3-0.7-3-1.4-5.3-2
			s-4.2-1.1-5.6-1.5c-1.4-0.3-3.5-0.7-6.2-1.2c-3-0.6-5.3-1-6.9-1.4c-1.6-0.4-3.7-0.9-6.3-1.7s-4.6-1.6-6-2.4
			c-1.4-0.9-2.8-1.9-4.4-3.2c-1.5-1.3-2.6-2.8-3.3-4.6s-1-3.8-1-6c-0.1-3.8,0.8-7.1,2.5-9.9c1.8-2.8,4.1-5,7.1-6.5s6-2.6,9.2-3.3
			s6.4-1.1,9.8-1.1c6.2,0,11.5,0.9,15.9,2.6c4.3,1.7,8.2,5.1,11.7,10.2L720.2,357z"/>
		<path class="st2" d="M791.6,364.7v53.1h-5.3v-11.3c-5,8.1-12.3,12.2-21.7,12.2c-7.5,0-13.9-2.6-19.1-7.7
			c-5.2-5.2-7.9-11.7-7.9-19.7s2.6-14.5,7.8-19.6s11.6-7.6,19.2-7.6c4.5,0,8.7,1,12.6,3.1c3.9,2.1,6.9,5.1,9.1,9.1v-11.6H791.6z
			 M749.1,375.3c-4.2,4.1-6.2,9.4-6.2,16s2.1,11.9,6.2,16c4.2,4.2,9.3,6.2,15.5,6.2c4.1,0,7.7-0.8,10.9-2.5c3.2-1.6,5.6-3.8,7.2-6.3
			c1.6-2.6,2.9-5.4,3.7-8.6c0.8-3.2,0.8-6.3,0-9.5s-2-6.1-3.7-8.7c-1.6-2.6-4.1-4.7-7.2-6.3c-3.2-1.6-6.8-2.5-10.9-2.5
			C758.5,369.1,753.3,371.2,749.1,375.3z"/>
		<path class="st2" d="M851.2,417.8v-9.6c-3.8,6.8-10.1,10.3-18.9,10.4c-7.2,0-13-2.1-17.4-6.3s-6.6-9.9-6.6-17.2v-30.7h5.3v30.5
			c0,6,1.7,10.5,5.1,13.7c3.4,3.2,8,4.8,13.9,4.7c5.4-0.1,9.9-1.9,13.4-5.6c3.5-3.7,5.2-8.2,5.2-13.8v-29.6h5.3v53.2h-5.3V417.8z
			 M834.2,355.8l9.9-13.2v-0.1h-7l-8.1,12.9v0.4L834.2,355.8L834.2,355.8z"/>
		<path class="st2" d="M924.2,342.5v75.3H919v-11.7c-2.2,3.9-5.2,7-9.2,9.2s-8.3,3.3-12.9,3.3c-7.7,0-14-2.4-19-7.3
			c-5-4.9-7.5-11.6-7.5-20.1s2.5-15.2,7.6-20.1c5.1-4.9,11.4-7.3,19.1-7.3c4.8,0,9.2,1,13.1,3.1c3.9,2.1,6.9,5.2,9,9.4v-33.8
			L924.2,342.5L924.2,342.5z M881.7,374.7c-4.1,3.9-6.1,9.4-6.1,16.6c0,7.1,2.1,12.6,6.2,16.5c4.1,3.9,9.3,5.8,15.5,5.8
			c6.3,0,11.5-2.1,15.6-6.2c4.1-4.2,6.1-9.5,6.1-16.1c0-6.5-2.1-11.9-6.2-16c-4.1-4.2-9.3-6.2-15.5-6.2
			C890.9,368.9,885.7,370.8,881.7,374.7z"/>
		<path class="st2" d="M945.9,411.1c-5.2-5-7.7-11.7-7.7-19.9c0-7.9,2.6-14.4,7.9-19.6s11.6-7.8,19.1-7.8c8.2,0,14.8,2.5,20,7.6
			c5.1,5.1,7.2,12.5,6.3,22.3h-47.9c0.5,6,2.8,10.8,6.9,14.4c4.1,3.6,9,5.4,14.7,5.4c3.7,0,7.3-0.7,10.9-2.1
			c3.6-1.4,6.3-3.4,8.3-5.9l3.8,3c-2.5,3.3-5.8,5.8-10,7.6s-8.5,2.6-12.9,2.6C957.4,418.7,951,416.2,945.9,411.1z M986.6,389.1
			c-0.1-6.5-2-11.5-5.9-15.1s-9.1-5.4-15.6-5.4c-5.7,0-10.5,1.8-14.6,5.5s-6.4,8.6-7,14.9L986.6,389.1L986.6,389.1z"/>
	</g>
</g>
</svg>
