<?xml version="1.0" encoding="utf-8"?>
<!-- Generator: Adobe Illustrator 26.0.3, SVG Export Plug-In . SVG Version: 6.00 Build 0)  -->
<svg version="1.1" id="Camada_1" xmlns="http://www.w3.org/2000/svg" xmlns:xlink="http://www.w3.org/1999/xlink" x="0px" y="0px"
	 viewBox="0 0 1920 1920" style="enable-background:new 0 0 1920 1920;" xml:space="preserve">
<style type="text/css">
	.st0{fill:#ECECEC;}
	.st1{fill:#F5F5F5;}
	.st2{fill:#E1E0E0;}
	.st3{fill:#FFFFFF;}
	.st4{fill:#E9505E;}
	.st5{fill:none;stroke:#FFFFFF;stroke-miterlimit:10;}
	.st6{fill:#EA505E;}
	.st7{fill:#192E35;}
	.st8{fill:#385A65;}
	.st9{fill:#C88A76;}
	.st10{fill:#B66956;}
	.st11{opacity:0.3;}
	.st12{fill:#FBFBFB;}
	.st13{opacity:0.5;}
</style>
<g>
	<g>
		<g>
			<g>
				<g>
					<g>
						<g>
							<g>
								<g>
									<g>
										<path class="st0" d="M1857.4,571.3h-105.7c-7.3,0-13.2-5.9-13.2-13.2V411.9c0-7.3,5.9-13.2,13.2-13.2h67l51.9,53.5v106
											C1870.6,565.3,1864.7,571.3,1857.4,571.3z"/>
									</g>
								</g>
							</g>
						</g>
					</g>
					<g>
						<g>
							<g>
								<g>
									<g>
										<path class="st1" d="M1818.8,398.6v41.2c0,6.8,5.5,12.3,12.3,12.3h39.6L1818.8,398.6z"/>
									</g>
								</g>
							</g>
						</g>
					</g>
					<g>
						<g>
							<g>
								<g>
									<g>
										<path class="st2" d="M1819.3,443.4c0,0-0.5,10,10.8,13.3c0.4,0.1,0.9,0.2,1.3,0.3c5.2,0.9,39.2,7,39.2,6.2s0-11.1,0-11.1
											H1831C1831,452,1821.2,451.7,1819.3,443.4z"/>
									</g>
								</g>
							</g>
						</g>
					</g>
				</g>
			</g>
			<g>
				<g>
					<g>
						<g>
							<g>
								<g>
									<path class="st2" d="M1857.4,571.3c0-0.1,0.8,0,2.3-0.3s3.7-0.9,6-2.8c2.2-1.8,4.5-5,4.7-9.3c0.1-4.3,0-9.2,0-14.7
										c0-22.1-0.1-53.8-0.2-92.1l0.1,0.3c-15.7-16.2-33.2-34.2-51.9-53.4l0.3,0.1c-12.4,0-25.4,0-38.7,0c-6.7,0-13.4,0-20.2,0
										c-1.7,0-3.4,0-5.1,0s-3.5-0.1-5.1,0.2c-3.3,0.5-6.3,2.4-8.3,5.2c-1.4,1.9-2.2,4.2-2.3,6.5c-0.1,2.3,0,4.8,0,7.2
										c0,4.8,0,9.5,0,14.3c0,9.4,0,18.7,0,27.9c0,18.3,0,35.9,0,52.7c0,8.4,0,16.6,0,24.5c0,4,0,7.9,0,11.8c0,1.9,0,3.8,0,5.7
										s-0.1,3.8,0.2,5.6c0.7,3.6,3,6.7,6,8.5c1.5,0.9,3.2,1.5,4.9,1.7c1.7,0.2,3.5,0.1,5.2,0.1c6.9,0,13.6,0,19.9,0
										c25.4,0.1,45.9,0.1,60.2,0.1c7.1,0,12.6,0.1,16.4,0.1c1.9,0,3.3,0,4.3,0C1856.9,571.2,1857.4,571.3,1857.4,571.3
										s-0.5,0-1.4,0c-1,0-2.4,0-4.3,0c-3.8,0-9.3,0-16.4,0.1c-14.2,0-34.8,0.1-60.2,0.1c-6.4,0-13,0-19.9,0
										c-1.7,0-3.5,0.1-5.3-0.1c-1.8-0.2-3.6-0.9-5.2-1.8c-3.2-1.9-5.6-5.2-6.3-9c-0.4-1.9-0.2-3.8-0.3-5.7c0-1.9,0-3.8,0-5.7
										c0-3.9,0-7.8,0-11.8c0-8,0-16.1,0-24.5c0-16.8,0-34.4,0-52.7c0-9.1,0-18.4,0-27.9c0-4.7,0-9.5,0-14.3c0-2.4,0-4.8,0-7.2
										c0.2-2.5,1-4.9,2.5-7c2.1-2.9,5.4-5,8.9-5.5c1.8-0.3,3.5-0.2,5.2-0.2s3.4,0,5.1,0c6.8,0,13.6,0,20.2,0
										c13.3,0,26.2,0,38.7,0h0.2l0.1,0.1c18.7,19.3,36.1,37.3,51.8,53.5l0.1,0.1v0.2c-0.1,38.3-0.1,70-0.2,92.1
										c0,5.5,0,10.5-0.1,14.8c-0.3,4.4-2.6,7.6-4.9,9.5s-4.6,2.5-6.1,2.7c-0.8,0.1-1.3,0.2-1.7,0.2
										C1857.6,571.3,1857.4,571.3,1857.4,571.3z"/>
								</g>
							</g>
						</g>
					</g>
				</g>
			</g>
			<g>
				<g>
					<g>
						<g>
							<g>
								<g>
									<path class="st2" d="M1870.6,452c0,0-0.3,0.1-1,0.1c-0.8,0-1.7,0.1-2.9,0.1c-2.7,0-6.3,0.1-10.7,0.1
										c-4.6,0-9.9,0.1-15.9,0.1c-3,0-6.1,0-9.4,0c-3.4-0.1-6.8-1.6-9.2-4.3c-1.2-1.3-2.1-2.9-2.6-4.6c-0.6-1.6-0.6-3.5-0.6-5
										c0-3.3,0-6.4,0-9.4c0-6,0.1-11.3,0.1-15.9c0.1-4.4,0.1-8.1,0.1-10.7c0-1.2,0.1-2.1,0.1-2.9c0-0.7,0.1-1,0.1-1
										s0.1,0.3,0.1,1c0,0.8,0.1,1.7,0.1,2.9c0,2.7,0.1,6.3,0.1,10.7c0,4.6,0.1,9.9,0.1,15.9c0,3,0,6.1,0,9.4
										c-0.2,3.2,0.7,6.5,3,9c2.2,2.5,5.4,4,8.5,4c3.2,0,6.4,0,9.4,0c6,0,11.3,0.1,15.9,0.1c4.4,0.1,8.1,0.1,10.7,0.1
										c1.2,0,2.1,0.1,2.9,0.1C1870.3,452,1870.6,452,1870.6,452z"/>
								</g>
							</g>
						</g>
					</g>
				</g>
			</g>
		</g>
		<g>
			<g>
				<path class="st2" d="M1816.8,435.3c0,0.3-12.5,0.5-27.9,0.5s-27.9-0.2-27.9-0.5s12.5-0.5,27.9-0.5
					C1804.3,434.9,1816.8,435.1,1816.8,435.3z"/>
			</g>
		</g>
		<g>
			<g>
				<path class="st2" d="M1843.2,455.8c0,0.3-18.4,0.5-41.1,0.5s-41.1-0.2-41.1-0.5s18.4-0.5,41.1-0.5
					C1824.8,455.4,1843.2,455.6,1843.2,455.8z"/>
			</g>
		</g>
		<g>
			<g>
				<path class="st2" d="M1843.2,476.4c0,0.3-18.4,0.5-41.1,0.5s-41.1-0.2-41.1-0.5s18.4-0.5,41.1-0.5
					C1824.8,475.9,1843.2,476.1,1843.2,476.4z"/>
			</g>
		</g>
		<g>
			<g>
				<path class="st2" d="M1843.2,496.9c0,0.3-18.4,0.5-41.1,0.5s-41.1-0.2-41.1-0.5s18.4-0.5,41.1-0.5
					C1824.8,496.4,1843.2,496.6,1843.2,496.9z"/>
			</g>
		</g>
		<g>
			<g>
				<path class="st2" d="M1843.2,517.4c0,0.3-18.4,0.5-41.1,0.5s-41.1-0.2-41.1-0.5s18.4-0.5,41.1-0.5
					C1824.8,517,1843.2,517.2,1843.2,517.4z"/>
			</g>
		</g>
		<g>
			<g>
				<path class="st2" d="M1843.2,542.8c0,0.3-18.4,0.5-41.1,0.5s-41.1-0.2-41.1-0.5s18.4-0.5,41.1-0.5
					C1824.8,542.3,1843.2,542.5,1843.2,542.8z"/>
			</g>
		</g>
		<g>
			<path class="st2" d="M1803.3,542.8h-87.2c-0.7,0-1.3-0.6-1.3-1.3v-37.8c0-0.7,0.6-1.3,1.3-1.3h87.2c0.7,0,1.3,0.6,1.3,1.3v37.8
				C1804.6,542.2,1804,542.8,1803.3,542.8z"/>
		</g>
		<g>
			<path class="st3" d="M1725.2,515.6h6.9c5,0,8.4,3,8.4,7.6s-3.4,7.6-8.4,7.6h-6.9V515.6z M1732,527.9c3,0,5-1.8,5-4.7
				s-2-4.7-5-4.7h-3.2v9.4H1732z"/>
			<path class="st3" d="M1742.3,523.2c0-4.5,3.5-7.9,8.3-7.9s8.3,3.3,8.3,7.9c0,4.5-3.5,7.9-8.3,7.9S1742.3,527.7,1742.3,523.2z
				 M1755.4,523.2c0-2.9-2-4.9-4.8-4.9s-4.8,2-4.8,4.9s2,4.9,4.8,4.9S1755.4,526.1,1755.4,523.2z"/>
			<path class="st3" d="M1760.6,523.2c0-4.6,3.5-7.9,8.3-7.9c2.6,0,4.8,1,6.3,2.7l-2.3,2.1c-1-1.2-2.3-1.8-3.8-1.8
				c-2.9,0-4.9,2-4.9,4.9s2,4.9,4.9,4.9c1.5,0,2.8-0.6,3.8-1.8l2.3,2.1c-1.4,1.8-3.6,2.7-6.3,2.7
				C1764.1,531.1,1760.6,527.8,1760.6,523.2z"/>
			<path class="st3" d="M1786.8,530.8l-3.7-5.3l-3.6,5.3h-4l5.6-7.7l-5.4-7.5h4l3.5,4.9l3.4-4.9h3.8l-5.3,7.4l5.7,7.9h-4V530.8z"/>
		</g>
	</g>
	<g>
		<g>
			<g>
				<g>
					<g>
						<g>
							<g>
								<g>
									<g>
										<path class="st0" d="M1656.6,278h-103.2c-7.1,0-12.9-5.8-12.9-12.9V122.2c0-7.1,5.8-12.9,12.9-12.9h65.5l50.7,52.2V265
											C1669.5,272.3,1663.7,278,1656.6,278z"/>
									</g>
								</g>
							</g>
						</g>
					</g>
					<g>
						<g>
							<g>
								<g>
									<g>
										<path class="st1" d="M1618.9,109.4v40.2c0,6.6,5.4,12,12,12h38.7L1618.9,109.4z"/>
									</g>
								</g>
							</g>
						</g>
					</g>
					<g>
						<g>
							<g>
								<g>
									<g>
										<path class="st2" d="M1619.4,153.1c0,0-0.5,9.8,10.6,13c0.4,0.1,0.8,0.2,1.3,0.3c5,0.9,38.3,6.8,38.3,6s0-10.8,0-10.8
											h-38.7C1630.9,161.6,1621.2,161.2,1619.4,153.1z"/>
									</g>
								</g>
							</g>
						</g>
					</g>
				</g>
			</g>
			<g>
				<g>
					<g>
						<g>
							<g>
								<g>
									<path class="st2" d="M1656.6,278c0-0.1,0.8,0,2.2-0.3c1.4-0.3,3.6-0.9,5.9-2.7c2.2-1.8,4.4-4.9,4.6-9.1c0.1-4.2,0-9,0-14.4
										c0-21.6-0.1-52.6-0.2-90l0.1,0.3c-15.3-15.8-32.4-33.4-50.7-52.2l0.3,0.1c-12.1,0-24.8,0-37.8,0c-6.5,0-13.1,0-19.8,0
										c-1.7,0-3.3,0-5,0s-3.4-0.1-5,0.2c-3.2,0.5-6.2,2.4-8.1,5c-1.3,1.9-2.1,4.1-2.3,6.3c-0.1,2.3,0,4.7,0,7c0,4.7,0,9.3,0,13.9
										c0,9.2,0,18.3,0,27.2c0,17.9,0,35.1,0,51.5c0,8.2,0,16.2,0,24c0,3.9,0,7.7,0,11.5c0,1.9,0,3.8,0,5.6c0,1.9-0.1,3.7,0.2,5.4
										c0.7,3.5,2.9,6.5,5.8,8.3c1.5,0.9,3.1,1.5,4.8,1.7c1.6,0.2,3.4,0.1,5.1,0.1c6.8,0,13.3,0,19.5,0
										c24.8,0.1,44.9,0.1,58.8,0.1c6.9,0,12.3,0.1,16,0.1c1.8,0,3.2,0,4.2,0C1656.1,278,1656.6,278,1656.6,278s-0.5,0-1.4,0
										c-1,0-2.3,0-4.2,0c-3.7,0-9.1,0-16,0.1c-13.9,0-34,0.1-58.8,0.1c-6.2,0-12.7,0-19.5,0c-1.7,0-3.4,0.1-5.2-0.1
										c-1.8-0.2-3.5-0.8-5-1.8c-3.1-1.8-5.5-5.1-6.2-8.8c-0.4-1.9-0.2-3.7-0.3-5.6c0-1.9,0-3.7,0-5.6c0-3.8,0-7.6,0-11.5
										c0-7.8,0-15.8,0-24c0-16.4,0-33.6,0-51.5c0-8.9,0-18,0-27.2c0-4.6,0-9.3,0-13.9c0-2.4,0-4.7,0-7.1c0.1-2.4,1-4.8,2.4-6.8
										c2-2.9,5.2-4.9,8.7-5.4c1.7-0.3,3.4-0.2,5.1-0.2s3.3,0,5,0c6.7,0,13.3,0,19.8,0c13,0,25.6,0,37.8,0h0.2l0.1,0.1
										c18.2,18.8,35.3,36.5,50.6,52.3l0.1,0.1v0.2c-0.1,37.4-0.1,68.3-0.2,90c0,5.4,0,10.2-0.1,14.4c-0.3,4.3-2.6,7.5-4.8,9.3
										c-2.3,1.8-4.5,2.4-6,2.7c-0.7,0.1-1.3,0.2-1.7,0.2C1656.8,278,1656.6,278,1656.6,278z"/>
								</g>
							</g>
						</g>
					</g>
				</g>
			</g>
			<g>
				<g>
					<g>
						<g>
							<g>
								<g>
									<path class="st2" d="M1669.5,161.6c0,0-0.3,0.1-1,0.1c-0.8,0-1.7,0.1-2.8,0.1c-2.6,0-6.1,0.1-10.5,0.1
										c-4.5,0-9.7,0.1-15.5,0.1c-2.9,0-6,0-9.2,0c-3.3-0.1-6.7-1.6-9-4.2c-1.2-1.3-2-2.9-2.5-4.5s-0.6-3.4-0.6-4.9
										c0-3.2,0-6.2,0-9.2c0-5.8,0.1-11.1,0.1-15.5c0.1-4.3,0.1-7.9,0.1-10.5c0-1.2,0.1-2.1,0.1-2.8c0-0.7,0.1-1,0.1-1
										s0.1,0.3,0.1,1c0,0.8,0.1,1.7,0.1,2.8c0,2.6,0.1,6.1,0.1,10.5c0,4.5,0.1,9.7,0.1,15.5c0,2.9,0,6,0,9.2
										c-0.2,3.1,0.7,6.4,2.9,8.8c2.1,2.5,5.3,3.9,8.3,3.9c3.2,0,6.2,0,9.2,0c5.8,0,11.1,0.1,15.5,0.1c4.3,0.1,7.9,0.1,10.5,0.1
										c1.2,0,2.1,0.1,2.8,0.1C1669.2,161.5,1669.5,161.5,1669.5,161.6z"/>
								</g>
							</g>
						</g>
					</g>
				</g>
			</g>
		</g>
		<g>
			<g>
				<path class="st2" d="M1616.9,145.2c0,0.3-12.2,0.5-27.2,0.5s-27.2-0.2-27.2-0.5s12.2-0.5,27.2-0.5
					C1604.7,144.8,1616.9,145,1616.9,145.2z"/>
			</g>
		</g>
		<g>
			<g>
				<path class="st2" d="M1642.7,165.3c0,0.3-18,0.5-40.1,0.5c-22.2,0-40.1-0.2-40.1-0.5s18-0.5,40.1-0.5
					C1624.8,164.8,1642.7,165,1642.7,165.3z"/>
			</g>
		</g>
		<g>
			<g>
				<path class="st2" d="M1642.7,185.3c0,0.3-18,0.5-40.1,0.5c-22.2,0-40.1-0.2-40.1-0.5s18-0.5,40.1-0.5
					C1624.8,184.9,1642.7,185.1,1642.7,185.3z"/>
			</g>
		</g>
		<g>
			<g>
				<path class="st2" d="M1642.7,205.4c0,0.3-18,0.5-40.1,0.5c-22.2,0-40.1-0.2-40.1-0.5s18-0.5,40.1-0.5
					C1624.8,204.9,1642.7,205.1,1642.7,205.4z"/>
			</g>
		</g>
		<g>
			<g>
				<path class="st2" d="M1642.7,225.5c0,0.3-18,0.5-40.1,0.5c-22.2,0-40.1-0.2-40.1-0.5s18-0.5,40.1-0.5
					C1624.8,225,1642.7,225.2,1642.7,225.5z"/>
			</g>
		</g>
		<g>
			<g>
				<path class="st2" d="M1642.7,250.2c0,0.3-18,0.5-40.1,0.5c-22.2,0-40.1-0.2-40.1-0.5s18-0.5,40.1-0.5
					C1624.8,249.7,1642.7,249.9,1642.7,250.2z"/>
			</g>
		</g>
		<g>
			<path class="st2" d="M1603.8,250.2h-85.2c-0.7,0-1.2-0.6-1.2-1.2v-36.9c0-0.7,0.6-1.2,1.2-1.2h85.2c0.7,0,1.2,0.6,1.2,1.2V249
				C1605,249.6,1604.5,250.2,1603.8,250.2z"/>
		</g>
		<g>
			<path class="st3" d="M1551.6,229c0,3.3-2.5,5.4-6.5,5.4h-3v4.1h-3.4v-14.9h6.4C1549.1,223.6,1551.6,225.7,1551.6,229z
				 M1548.1,229c0-1.6-1.1-2.6-3.2-2.6h-2.8v5.2h2.8C1547.1,231.6,1548.1,230.7,1548.1,229z"/>
			<path class="st3" d="M1554.1,223.6h6.8c4.9,0,8.2,2.9,8.2,7.4s-3.3,7.4-8.2,7.4h-6.8V223.6z M1560.7,235.7c3,0,4.9-1.8,4.9-4.6
				s-1.9-4.6-4.9-4.6h-3.1v9.2L1560.7,235.7L1560.7,235.7z"/>
			<path class="st3" d="M1575.1,226.4v3.9h6.9v2.8h-6.9v5.4h-3.4v-14.9h11.2v2.8H1575.1z"/>
		</g>
	</g>
	<g>
		<g>
			<g>
				<g>
					<g>
						<g>
							<g>
								<g>
									<g>
										<path class="st0" d="M1857.4,1076.2h-105.7c-7.3,0-13.2-5.9-13.2-13.2V916.8c0-7.3,5.9-13.2,13.2-13.2h67l51.9,53.5v106
											C1870.6,1070.3,1864.7,1076.2,1857.4,1076.2z"/>
									</g>
								</g>
							</g>
						</g>
					</g>
					<g>
						<g>
							<g>
								<g>
									<g>
										<path class="st1" d="M1818.8,903.5v41.2c0,6.8,5.5,12.3,12.3,12.3h39.6L1818.8,903.5z"/>
									</g>
								</g>
							</g>
						</g>
					</g>
					<g>
						<g>
							<g>
								<g>
									<g>
										<path class="st2" d="M1819.3,948.3c0,0-0.5,10,10.8,13.3c0.4,0.1,0.9,0.2,1.3,0.3c5.2,0.9,39.2,7,39.2,6.2s0-11.1,0-11.1
											H1831C1831,957,1821.2,956.6,1819.3,948.3z"/>
									</g>
								</g>
							</g>
						</g>
					</g>
				</g>
			</g>
			<g>
				<g>
					<g>
						<g>
							<g>
								<g>
									<path class="st2" d="M1857.4,1076.2c0-0.1,0.8,0,2.3-0.3s3.7-0.9,6-2.8c2.2-1.8,4.5-5,4.7-9.3c0.1-4.3,0-9.2,0-14.7
										c0-22.1-0.1-53.8-0.2-92.1l0.1,0.3c-15.7-16.2-33.2-34.2-51.9-53.4l0.3,0.1c-12.4,0-25.4,0-38.7,0c-6.7,0-13.4,0-20.2,0
										c-1.7,0-3.4,0-5.1,0s-3.5-0.1-5.1,0.2c-3.3,0.5-6.3,2.4-8.3,5.2c-1.4,1.9-2.2,4.2-2.3,6.5c-0.1,2.3,0,4.8,0,7.2
										c0,4.8,0,9.5,0,14.3c0,9.4,0,18.7,0,27.9c0,18.3,0,35.9,0,52.7c0,8.4,0,16.6,0,24.5c0,4,0,7.9,0,11.8c0,1.9,0,3.8,0,5.7
										c0,1.9-0.1,3.8,0.2,5.6c0.7,3.6,3,6.7,6,8.5c1.5,0.9,3.2,1.5,4.9,1.7c1.7,0.2,3.5,0.1,5.2,0.1c6.9,0,13.6,0,19.9,0
										c25.4,0.1,45.9,0.1,60.2,0.1c7.1,0,12.6,0.1,16.4,0.1c1.9,0,3.3,0,4.3,0C1856.9,1076.2,1857.4,1076.2,1857.4,1076.2
										s-0.5,0-1.4,0c-1,0-2.4,0-4.3,0c-3.8,0-9.3,0-16.4,0.1c-14.2,0-34.8,0.1-60.2,0.1c-6.4,0-13,0-19.9,0
										c-1.7,0-3.5,0.1-5.3-0.1s-3.6-0.9-5.2-1.8c-3.2-1.9-5.6-5.2-6.3-9c-0.4-1.9-0.2-3.8-0.3-5.7c0-1.9,0-3.8,0-5.7
										c0-3.9,0-7.8,0-11.8c0-8,0-16.1,0-24.5c0-16.8,0-34.4,0-52.7c0-9.1,0-18.4,0-27.9c0-4.7,0-9.5,0-14.3c0-2.4,0-4.8,0-7.2
										c0.2-2.5,1-4.9,2.5-7c2.1-2.9,5.4-5,8.9-5.5c1.8-0.3,3.5-0.2,5.2-0.2s3.4,0,5.1,0c6.8,0,13.6,0,20.2,0
										c13.3,0,26.2,0,38.7,0h0.2l0.1,0.1c18.7,19.3,36.1,37.3,51.8,53.5l0.1,0.1v0.2c-0.1,38.3-0.1,70-0.2,92.1
										c0,5.5,0,10.5-0.1,14.8c-0.3,4.4-2.6,7.6-4.9,9.5s-4.6,2.5-6.1,2.7c-0.8,0.1-1.3,0.2-1.7,0.2
										C1857.6,1076.2,1857.4,1076.2,1857.4,1076.2z"/>
								</g>
							</g>
						</g>
					</g>
				</g>
			</g>
			<g>
				<g>
					<g>
						<g>
							<g>
								<g>
									<path class="st2" d="M1870.6,957c0,0-0.3,0.1-1,0.1c-0.8,0-1.7,0.1-2.9,0.1c-2.7,0-6.3,0.1-10.7,0.1
										c-4.6,0-9.9,0.1-15.9,0.1c-3,0-6.1,0-9.4,0c-3.4-0.1-6.8-1.6-9.2-4.3c-1.2-1.3-2.1-2.9-2.6-4.6c-0.6-1.6-0.6-3.5-0.6-5
										c0-3.3,0-6.4,0-9.4c0-6,0.1-11.3,0.1-15.9c0.1-4.4,0.1-8.1,0.1-10.7c0-1.2,0.1-2.1,0.1-2.9c0-0.7,0.1-1,0.1-1
										s0.1,0.3,0.1,1c0,0.8,0.1,1.7,0.1,2.9c0,2.7,0.1,6.3,0.1,10.7c0,4.6,0.1,9.9,0.1,15.9c0,3,0,6.1,0,9.4
										c-0.2,3.2,0.7,6.5,3,9c2.2,2.5,5.4,4,8.5,4c3.2,0,6.4,0,9.4,0c6,0,11.3,0.1,15.9,0.1c4.4,0.1,8.1,0.1,10.7,0.1
										c1.2,0,2.1,0.1,2.9,0.1C1870.3,956.9,1870.6,956.9,1870.6,957z"/>
								</g>
							</g>
						</g>
					</g>
				</g>
			</g>
		</g>
		<g>
			<g>
				<path class="st2" d="M1816.8,940.2c0,0.3-12.5,0.5-27.9,0.5s-27.9-0.2-27.9-0.5s12.5-0.5,27.9-0.5
					C1804.3,939.8,1816.8,940,1816.8,940.2z"/>
			</g>
		</g>
		<g>
			<g>
				<path class="st2" d="M1843.2,960.8c0,0.3-18.4,0.5-41.1,0.5s-41.1-0.2-41.1-0.5s18.4-0.5,41.1-0.5
					C1824.8,960.3,1843.2,960.5,1843.2,960.8z"/>
			</g>
		</g>
		<g>
			<g>
				<path class="st2" d="M1843.2,981.3c0,0.3-18.4,0.5-41.1,0.5s-41.1-0.2-41.1-0.5s18.4-0.5,41.1-0.5
					C1824.8,980.8,1843.2,981,1843.2,981.3z"/>
			</g>
		</g>
		<g>
			<g>
				<path class="st2" d="M1843.2,1001.8c0,0.3-18.4,0.5-41.1,0.5s-41.1-0.2-41.1-0.5s18.4-0.5,41.1-0.5
					C1824.8,1001.4,1843.2,1001.6,1843.2,1001.8z"/>
			</g>
		</g>
		<g>
			<g>
				<path class="st2" d="M1843.2,1022.4c0,0.3-18.4,0.5-41.1,0.5s-41.1-0.2-41.1-0.5s18.4-0.5,41.1-0.5
					C1824.8,1021.9,1843.2,1022.1,1843.2,1022.4z"/>
			</g>
		</g>
		<g>
			<g>
				<path class="st2" d="M1843.2,1047.7c0,0.3-18.4,0.5-41.1,0.5s-41.1-0.2-41.1-0.5s18.4-0.5,41.1-0.5
					C1824.8,1047.2,1843.2,1047.4,1843.2,1047.7z"/>
			</g>
		</g>
		<g>
			<path class="st2" d="M1803.3,1047.7h-87.2c-0.7,0-1.3-0.6-1.3-1.3v-37.8c0-0.7,0.6-1.3,1.3-1.3h87.2c0.7,0,1.3,0.6,1.3,1.3v37.8
				C1804.6,1047.1,1804,1047.7,1803.3,1047.7z"/>
		</g>
		<g>
			<path class="st3" d="M1725.2,1020.5h6.9c5,0,8.4,3,8.4,7.6s-3.4,7.6-8.4,7.6h-6.9V1020.5z M1732,1032.9c3,0,5-1.8,5-4.7
				s-2-4.7-5-4.7h-3.2v9.4H1732z"/>
			<path class="st3" d="M1742.3,1028.1c0-4.5,3.5-7.9,8.3-7.9s8.3,3.3,8.3,7.9c0,4.5-3.5,7.9-8.3,7.9S1742.3,1032.7,1742.3,1028.1z
				 M1755.4,1028.1c0-2.9-2-4.9-4.8-4.9s-4.8,2-4.8,4.9s2,4.9,4.8,4.9S1755.4,1031,1755.4,1028.1z"/>
			<path class="st3" d="M1760.6,1028.1c0-4.6,3.5-7.9,8.3-7.9c2.6,0,4.8,1,6.3,2.7l-2.3,2.1c-1-1.2-2.3-1.8-3.8-1.8
				c-2.9,0-4.9,2-4.9,4.9s2,4.9,4.9,4.9c1.5,0,2.8-0.6,3.8-1.8l2.3,2.1c-1.4,1.8-3.6,2.7-6.3,2.7
				C1764.1,1036,1760.6,1032.7,1760.6,1028.1z"/>
			<path class="st3" d="M1786.8,1035.7l-3.7-5.3l-3.6,5.3h-4l5.6-7.7l-5.4-7.5h4l3.5,4.9l3.4-4.9h3.8l-5.3,7.4l5.7,7.9
				L1786.8,1035.7L1786.8,1035.7z"/>
		</g>
	</g>
	<g>
		<g>
			<g>
				<g>
					<g>
						<g>
							<g>
								<g>
									<g>
										<path class="st0" d="M1656.6,793.8h-103.2c-7.1,0-12.9-5.8-12.9-12.9V638c0-7.1,5.8-12.9,12.9-12.9h65.5l50.7,52.2v103.5
											C1669.5,788,1663.7,793.8,1656.6,793.8z"/>
									</g>
								</g>
							</g>
						</g>
					</g>
					<g>
						<g>
							<g>
								<g>
									<g>
										<path class="st1" d="M1618.9,625.1v40.2c0,6.6,5.4,12,12,12h38.7L1618.9,625.1z"/>
									</g>
								</g>
							</g>
						</g>
					</g>
					<g>
						<g>
							<g>
								<g>
									<g>
										<path class="st2" d="M1619.4,668.8c0,0-0.5,9.8,10.6,13c0.4,0.1,0.8,0.2,1.3,0.3c5,0.9,38.3,6.8,38.3,6s0-10.8,0-10.8
											h-38.7C1630.9,677.3,1621.2,677,1619.4,668.8z"/>
									</g>
								</g>
							</g>
						</g>
					</g>
				</g>
			</g>
			<g>
				<g>
					<g>
						<g>
							<g>
								<g>
									<path class="st2" d="M1656.6,793.8c0-0.1,0.8,0,2.2-0.3c1.4-0.3,3.6-0.9,5.9-2.7c2.2-1.8,4.4-4.9,4.6-9.1
										c0.1-4.2,0-9,0-14.4c0-21.6-0.1-52.6-0.2-90l0.1,0.3c-15.3-15.8-32.4-33.4-50.7-52.2l0.3,0.1c-12.1,0-24.8,0-37.8,0
										c-6.5,0-13.1,0-19.8,0c-1.7,0-3.3,0-5,0s-3.4-0.1-5,0.2c-3.2,0.5-6.2,2.4-8.1,5c-1.3,1.9-2.1,4.1-2.3,6.3
										c-0.1,2.3,0,4.7,0,7c0,4.7,0,9.3,0,13.9c0,9.2,0,18.3,0,27.2c0,17.9,0,35.1,0,51.5c0,8.2,0,16.2,0,24c0,3.9,0,7.7,0,11.5
										c0,1.9,0,3.8,0,5.6c0,1.9-0.1,3.7,0.2,5.4c0.7,3.5,2.9,6.5,5.8,8.3c1.5,0.9,3.1,1.5,4.8,1.7c1.6,0.2,3.4,0.1,5.1,0.1
										c6.8,0,13.3,0,19.5,0c24.8,0.1,44.9,0.1,58.8,0.1c6.9,0,12.3,0.1,16,0.1c1.8,0,3.2,0,4.2,0
										C1656.1,793.7,1656.6,793.8,1656.6,793.8s-0.5,0-1.4,0c-1,0-2.3,0-4.2,0c-3.7,0-9.1,0-16,0.1c-13.9,0-34,0.1-58.8,0.1
										c-6.2,0-12.7,0-19.5,0c-1.7,0-3.4,0.1-5.2-0.1c-1.8-0.2-3.5-0.8-5-1.8c-3.1-1.8-5.5-5.1-6.2-8.8c-0.4-1.9-0.2-3.7-0.3-5.6
										c0-1.9,0-3.7,0-5.6c0-3.8,0-7.6,0-11.5c0-7.8,0-15.8,0-24c0-16.4,0-33.6,0-51.5c0-8.9,0-18,0-27.2c0-4.6,0-9.3,0-13.9
										c0-2.4,0-4.7,0-7.1c0.1-2.4,1-4.8,2.4-6.8c2-2.9,5.2-4.9,8.7-5.4c1.7-0.3,3.4-0.2,5.1-0.2s3.3,0,5,0c6.7,0,13.3,0,19.8,0
										c13,0,25.6,0,37.8,0h0.2l0.1,0.1c18.2,18.8,35.3,36.5,50.6,52.3l0.1,0.1v0.2c-0.1,37.4-0.1,68.3-0.2,90
										c0,5.4,0,10.2-0.1,14.4c-0.3,4.3-2.6,7.5-4.8,9.3c-2.3,1.8-4.5,2.4-6,2.7c-0.7,0.1-1.3,0.2-1.7,0.2
										C1656.8,793.8,1656.6,793.8,1656.6,793.8z"/>
								</g>
							</g>
						</g>
					</g>
				</g>
			</g>
			<g>
				<g>
					<g>
						<g>
							<g>
								<g>
									<path class="st2" d="M1669.5,677.3c0,0-0.3,0.1-1,0.1c-0.8,0-1.7,0.1-2.8,0.1c-2.6,0-6.1,0.1-10.5,0.1
										c-4.5,0-9.7,0.1-15.5,0.1c-2.9,0-6,0-9.2,0c-3.3-0.1-6.7-1.6-9-4.2c-1.2-1.3-2-2.9-2.5-4.5s-0.6-3.4-0.6-4.9
										c0-3.2,0-6.2,0-9.2c0-5.8,0.1-11.1,0.1-15.5c0.1-4.3,0.1-7.9,0.1-10.5c0-1.2,0.1-2.1,0.1-2.8s0.1-1,0.1-1s0.1,0.3,0.1,1
										c0,0.8,0.1,1.7,0.1,2.8c0,2.6,0.1,6.1,0.1,10.5c0,4.5,0.1,9.7,0.1,15.5c0,2.9,0,6,0,9.2c-0.2,3.1,0.7,6.4,2.9,8.8
										c2.1,2.5,5.3,3.9,8.3,3.9c3.2,0,6.2,0,9.2,0c5.8,0,11.1,0.1,15.5,0.1c4.3,0.1,7.9,0.1,10.5,0.1c1.2,0,2.1,0.1,2.8,0.1
										C1669.2,677.2,1669.5,677.3,1669.5,677.3z"/>
								</g>
							</g>
						</g>
					</g>
				</g>
			</g>
		</g>
		<g>
			<g>
				<path class="st2" d="M1616.9,661c0,0.3-12.2,0.5-27.2,0.5s-27.2-0.2-27.2-0.5s12.2-0.5,27.2-0.5
					C1604.7,660.5,1616.9,660.7,1616.9,661z"/>
			</g>
		</g>
		<g>
			<g>
				<path class="st2" d="M1642.7,681c0,0.3-18,0.5-40.1,0.5c-22.2,0-40.1-0.2-40.1-0.5s18-0.5,40.1-0.5
					C1624.8,680.6,1642.7,680.8,1642.7,681z"/>
			</g>
		</g>
		<g>
			<g>
				<path class="st2" d="M1642.7,701.1c0,0.3-18,0.5-40.1,0.5c-22.2,0-40.1-0.2-40.1-0.5s18-0.5,40.1-0.5
					C1624.8,700.6,1642.7,700.8,1642.7,701.1z"/>
			</g>
		</g>
		<g>
			<g>
				<path class="st2" d="M1642.7,721.1c0,0.3-18,0.5-40.1,0.5c-22.2,0-40.1-0.2-40.1-0.5s18-0.5,40.1-0.5
					C1624.8,720.7,1642.7,720.9,1642.7,721.1z"/>
			</g>
		</g>
		<g>
			<g>
				<path class="st2" d="M1642.7,741.2c0,0.3-18,0.5-40.1,0.5c-22.2,0-40.1-0.2-40.1-0.5s18-0.5,40.1-0.5
					C1624.8,740.7,1642.7,740.9,1642.7,741.2z"/>
			</g>
		</g>
		<g>
			<g>
				<path class="st2" d="M1642.7,765.9c0,0.3-18,0.5-40.1,0.5c-22.2,0-40.1-0.2-40.1-0.5s18-0.5,40.1-0.5
					C1624.8,765.5,1642.7,765.7,1642.7,765.9z"/>
			</g>
		</g>
		<g>
			<path class="st2" d="M1603.8,765.9h-85.2c-0.7,0-1.2-0.6-1.2-1.2v-36.9c0-0.7,0.6-1.2,1.2-1.2h85.2c0.7,0,1.2,0.6,1.2,1.2v36.9
				C1605,765.4,1604.5,765.9,1603.8,765.9z"/>
		</g>
		<g>
			<path class="st3" d="M1551.6,744.8c0,3.3-2.5,5.4-6.5,5.4h-3v4.1h-3.4v-14.9h6.4C1549.1,739.4,1551.6,741.4,1551.6,744.8z
				 M1548.1,744.8c0-1.6-1.1-2.6-3.2-2.6h-2.8v5.2h2.8C1547.1,747.4,1548.1,746.4,1548.1,744.8z"/>
			<path class="st3" d="M1554.1,739.4h6.8c4.9,0,8.2,2.9,8.2,7.4s-3.3,7.4-8.2,7.4h-6.8V739.4z M1560.7,751.4c3,0,4.9-1.8,4.9-4.6
				s-1.9-4.6-4.9-4.6h-3.1v9.2L1560.7,751.4L1560.7,751.4z"/>
			<path class="st3" d="M1575.1,742.1v3.9h6.9v2.8h-6.9v5.4h-3.4v-14.9h11.2v2.8H1575.1z"/>
		</g>
	</g>
	<g>
		<g>
			<rect x="1056.2" y="581.6" class="st4" width="18.5" height="14.2"/>
		</g>
		<g>
			<rect x="1079.6" y="548.9" class="st4" width="18.5" height="46.8"/>
		</g>
		<g>
			<rect x="1105.4" y="569.1" class="st4" width="18.5" height="26.7"/>
		</g>
		<g>
			<rect x="1129.9" y="535.3" class="st4" width="18.5" height="60.4"/>
		</g>
		<g>
			<path class="st4" d="M1064.2,567c-5.1,0-9.2-4.1-9.2-9.2c0-5.1,4.1-9.2,9.2-9.2s9.2,4.1,9.2,9.2
				C1073.4,562.9,1069.3,567,1064.2,567z M1064.2,551c-3.8,0-6.8,3.1-6.8,6.8c0,3.8,3.1,6.8,6.8,6.8c3.8,0,6.8-3.1,6.8-6.8
				C1071,554,1068,551,1064.2,551z"/>
		</g>
		<g>
			<path class="st4" d="M1090.7,532c-5.1,0-9.2-4.1-9.2-9.2c0-5.1,4.1-9.2,9.2-9.2s9.2,4.1,9.2,9.2
				C1099.9,527.8,1095.8,532,1090.7,532z M1090.7,515.9c-3.8,0-6.8,3.1-6.8,6.8c0,3.8,3.1,6.8,6.8,6.8c3.8,0,6.8-3.1,6.8-6.8
				S1094.4,515.9,1090.7,515.9z"/>
		</g>
		<g>
			<path class="st4" d="M1114.6,554.2c-5.1,0-9.2-4.1-9.2-9.2c0-5.1,4.1-9.2,9.2-9.2s9.2,4.1,9.2,9.2
				C1123.8,550,1119.7,554.2,1114.6,554.2z M1114.6,538.1c-3.8,0-6.8,3.1-6.8,6.8s3.1,6.8,6.8,6.8c3.8,0,6.8-3.1,6.8-6.8
				S1118.4,538.1,1114.6,538.1z"/>
		</g>
		<g>
			<path class="st4" d="M1140.2,522c-5.1,0-9.2-4.1-9.2-9.2c0-5.1,4.1-9.2,9.2-9.2s9.2,4.1,9.2,9.2
				C1149.4,517.8,1145.3,522,1140.2,522z M1140.2,506c-3.8,0-6.8,3.1-6.8,6.8c0,3.8,3.1,6.8,6.8,6.8c3.8,0,6.8-3.1,6.8-6.8
				C1147,509,1144,506,1140.2,506z"/>
		</g>
		<g>
			
				<rect x="1114.4" y="528.1" transform="matrix(0.575 -0.8181 0.8181 0.575 46.0201 1147.2039)" class="st4" width="25.8" height="2.4"/>
		</g>
		<g>
			
				<rect x="1101.3" y="526.9" transform="matrix(0.7227 -0.6912 0.6912 0.7227 -64.1027 910.4537)" class="st4" width="2.4" height="16.4"/>
		</g>
		<g>
			
				<rect x="1063.4" y="539.2" transform="matrix(0.6132 -0.7899 0.7899 0.6132 -10.301 1059.7419)" class="st4" width="27.2" height="2.4"/>
		</g>
	</g>
	<g>
		<g>
			
				<rect x="163.2" y="679.9" transform="matrix(0.8312 -0.556 0.556 0.8312 -464.6648 346.9262)" class="st1" width="351.5" height="517.5"/>
		</g>
		<g>
			<g>
				<polygon class="st2" points="477.9,1035.7 474.6,1056.2 329.4,1035.3 332.7,1014.7 				"/>
			</g>
			<g>
				<polygon class="st2" points="404.8,962.5 425.6,965.5 402.5,1108.5 381.7,1105.5 				"/>
			</g>
		</g>
		<g>
			<g>
				<path class="st5" d="M363.5,789.2"/>
			</g>
		</g>
		<g>
			<g>
				<path class="st2" d="M271,780.7c0.2,0.3-29.1,20.3-65.4,44.5c-36.3,24.3-65.9,43.7-66.1,43.4c-0.2-0.3,29.1-20.3,65.4-44.6
					C241.2,799.9,270.8,780.4,271,780.7z"/>
			</g>
		</g>
		<g>
			<g>
				<path class="st2" d="M378.5,753.8c0.2,0.3-48.5,33.2-108.7,73.5c-60.3,40.3-109.3,72.7-109.5,72.4s48.5-33.2,108.7-73.5
					S378.3,753.5,378.5,753.8z"/>
			</g>
		</g>
		<g>
			<g>
				<path class="st2" d="M400,786c0.2,0.3-48.5,33.2-108.7,73.5C231,899.8,182,932.2,181.8,931.9s48.5-33.2,108.7-73.5
					C350.8,818.1,399.8,785.7,400,786z"/>
			</g>
		</g>
		<g>
			<g>
				<path class="st2" d="M421.5,818.2c0.2,0.3-48.5,33.2-108.7,73.5c-60.3,40.3-109.3,72.7-109.5,72.4s48.5-33.2,108.7-73.5
					C372.3,850.3,421.3,817.8,421.5,818.2z"/>
			</g>
		</g>
		<g>
			<g>
				<path class="st2" d="M443.1,850.4c0.2,0.3-48.5,33.2-108.7,73.5c-60.3,40.3-109.3,72.7-109.5,72.4s48.5-33.2,108.7-73.5
					C393.8,882.5,442.9,850,443.1,850.4z"/>
			</g>
		</g>
	</g>
	<g>
		<g>
			
				<rect x="1168.6" y="959.5" transform="matrix(0.8312 -0.556 0.556 0.8312 -432.1128 930.4716)" class="st1" width="295.2" height="434.6"/>
		</g>
		<g>
			<g>
				<polygon class="st2" points="1432.9,1258.3 1430.1,1275.6 1308.2,1258 1310.9,1240.8 				"/>
			</g>
			<g>
				<polygon class="st2" points="1371.5,1196.9 1389,1199.4 1369.6,1319.5 1352.1,1316.9 				"/>
			</g>
		</g>
		<g>
			<g>
				<path class="st5" d="M1336.8,1051.3"/>
			</g>
		</g>
		<g>
			<g>
				<path class="st2" d="M1259.1,1044.2c0.2,0.3-24.4,17.1-54.9,37.5s-55.4,36.7-55.6,36.4c-0.2-0.3,24.3-17.1,54.9-37.5
					C1234,1060.2,1258.9,1043.9,1259.1,1044.2z"/>
			</g>
		</g>
		<g>
			<g>
				<path class="st2" d="M1349.4,1021.6c0.2,0.3-40.7,28-91.3,61.9c-50.6,33.9-91.8,61-92,60.7s40.6-28,91.3-61.9
					C1308,1048.5,1349.2,1021.3,1349.4,1021.6z"/>
			</g>
		</g>
		<g>
			<g>
				<path class="st2" d="M1367.5,1048.6c0.2,0.3-40.7,28-91.3,61.9c-50.6,33.9-91.8,61-92,60.7s40.6-28,91.3-61.9
					C1326.1,1075.5,1367.3,1048.3,1367.5,1048.6z"/>
			</g>
		</g>
		<g>
			<g>
				<path class="st2" d="M1385.5,1075.7c0.2,0.3-40.7,28-91.3,61.9c-50.6,33.9-91.8,61-92,60.7s40.6-28,91.3-61.9
					C1344.1,1102.5,1385.3,1075.4,1385.5,1075.7z"/>
			</g>
		</g>
		<g>
			<g>
				<path class="st2" d="M1403.6,1102.7c0.2,0.3-40.7,28-91.3,61.9c-50.6,33.9-91.8,61-92,60.7s40.6-28,91.3-61.9
					C1362.2,1129.6,1403.4,1102.4,1403.6,1102.7z"/>
			</g>
		</g>
	</g>
	<g>
		<g>
			
				<rect x="467.1" y="615.4" transform="matrix(0.4716 -0.8818 0.8818 0.4716 -311.5975 1014.3489)" class="st1" width="447" height="303.6"/>
		</g>
		<g>
			<g>
				<polygon class="st2" points="673.2,912.5 656.2,918.4 613.1,799.2 630.1,793.4 				"/>
			</g>
			<g>
				<polygon class="st2" points="699.3,827 705.5,844.1 587.1,884.7 580.9,867.6 				"/>
			</g>
		</g>
		<g>
			<g>
				<path class="st5" d="M814.5,725.1"/>
			</g>
		</g>
		<g>
			<g>
				<path class="st2" d="M783.4,651.2c-0.2,0.4-27.4-13.7-60.6-31.5c-33.3-17.8-60.1-32.5-59.9-32.9c0.2-0.4,27.4,13.7,60.6,31.5
					C756.8,636.1,783.6,650.8,783.4,651.2z"/>
			</g>
		</g>
		<g>
			<g>
				<path class="st2" d="M847.6,722.1c-0.2,0.4-45.1-23.2-100.4-52.8c-55.2-29.5-99.8-53.8-99.6-54.2s45.1,23.2,100.4,52.8
					C803.2,697.5,847.8,721.7,847.6,722.1z"/>
			</g>
		</g>
		<g>
			<g>
				<path class="st2" d="M831.8,751.6c-0.2,0.4-45.1-23.2-100.4-52.8c-55.2-29.5-99.8-53.8-99.6-54.2s45.1,23.2,100.4,52.8
					C787.4,727,832,751.2,831.8,751.6z"/>
			</g>
		</g>
		<g>
			<g>
				<path class="st2" d="M816,781.1c-0.2,0.4-45.1-23.2-100.4-52.8c-55.2-29.5-99.8-53.8-99.6-54.2s45.1,23.2,100.4,52.8
					C771.7,756.5,816.3,780.7,816,781.1z"/>
			</g>
		</g>
		<g>
			<g>
				<path class="st2" d="M800.3,810.6c-0.2,0.4-45.1-23.2-100.4-52.8c-55.2-29.5-99.8-53.8-99.6-54.2s45.1,23.2,100.4,52.8
					C755.9,786,800.5,810.2,800.3,810.6z"/>
			</g>
		</g>
	</g>
	<g>
		<g>
			<path class="st6" d="M76.6,1678.8c8.8,0.3,17.1,5.1,22.9,11.7s9.4,15,11.6,23.5c4.4,16.5,1.7,35.9-3,52.3
				c-17.8-6.4-28.8-25.4-33.8-35.4C66.5,1715.1,61.9,1681.8,76.6,1678.8"/>
		</g>
		<g>
			<path class="st6" d="M133.8,1786.2c-5.6-8.1-5.8-19.3-1.3-28.1c4.4-8.8,13-15.1,22.4-18c4.3-1.3,9.4-1.9,13.2,0.6
				c3.5,2.4,5.1,7,4.6,11.2s-2.6,8.1-5.1,11.5C158.9,1775.3,148.3,1785,133.8,1786.2"/>
		</g>
		<g>
			<g>
				<path class="st7" d="M135.8,1841.3c-0.1,0-0.4-1.2-0.8-3.4c-0.5-2.4-1.1-5.6-1.8-9.4c-1.4-7.9-3.6-19.1-1.9-31.5
					c1.6-12.3,6.5-22.9,11.7-29.2c2.5-3.2,5-5.4,6.8-6.8c0.9-0.7,1.6-1.2,2.1-1.5s0.8-0.5,0.8-0.4c0.2,0.2-4.2,2.9-9,9.3
					c-4.9,6.3-9.6,16.7-11.2,28.8c-1.7,12.2,0.4,23.3,1.6,31.2c0.6,4,1.2,7.2,1.4,9.5C135.7,1840,135.8,1841.2,135.8,1841.3z"/>
			</g>
		</g>
		<g>
			<g>
				<path class="st7" d="M82.4,1703.9c0,0,0.3,0.4,0.7,1.3c0.5,1,1.1,2.3,1.8,4c1.6,3.5,3.8,8.5,6.5,14.7
					c5.4,12.5,12.5,29.8,20,49.1c7.5,19.3,13.9,37,18.3,49.8c2.2,6.4,4,11.6,5.1,15.2c0.5,1.7,1,3.1,1.3,4.2c0.3,1,0.4,1.5,0.4,1.5
					s-0.3-0.5-0.6-1.4c-0.4-1.1-0.9-2.4-1.5-4.1c-1.4-3.7-3.2-8.8-5.5-15.1c-4.6-12.7-11.2-30.3-18.6-49.6
					c-7.5-19.3-14.5-36.7-19.7-49.2c-2.5-6.2-4.6-11.2-6.1-14.9c-0.7-1.7-1.2-3-1.6-4.1C82.5,1704.4,82.3,1703.9,82.4,1703.9z"/>
			</g>
		</g>
		<g>
			<path class="st6" d="M114.6,1804.9c-10.5-17.9-30.1-30.1-50.8-31.6c-5.3-0.4-11.6,0.5-14,5.2c-2.4,4.7,0.8,10.3,4.4,14.2
				c14.9,16.2,40.2,21.8,60.6,13.5"/>
		</g>
		<g>
			<g>
				<path class="st7" d="M71.8,1787.4c0-0.1,1.2,0,3.3,0.1c1.1,0.1,2.4,0.2,3.8,0.4c1.5,0.3,3.2,0.4,5,0.9c1.9,0.5,3.9,0.9,6,1.7
					c2.2,0.6,4.4,1.6,6.7,2.5c4.6,2.1,9.5,4.8,14.1,8.4s8.5,7.6,11.7,11.5c1.5,2,3,3.9,4.1,5.9c1.3,1.9,2.2,3.7,3.1,5.4
					c0.9,1.7,1.5,3.3,2.1,4.7c0.6,1.4,1,2.6,1.3,3.6c0.6,2,0.9,3.2,0.9,3.2c-0.3,0.1-1.5-4.5-5-11.1c-0.9-1.6-1.9-3.5-3.1-5.3
					c-1.2-1.9-2.6-3.7-4.1-5.7c-3.2-3.8-7-7.7-11.5-11.3c-4.6-3.5-9.3-6.2-13.8-8.3c-2.3-1-4.4-1.9-6.6-2.6
					c-2.1-0.8-4.1-1.3-5.9-1.8C76.5,1787.9,71.8,1787.7,71.8,1787.4z"/>
			</g>
		</g>
	</g>
	<g>
		<g>
			<g>
				<path class="st7" d="M1253.7,582.2c-7.7,1.8-11.4,10.6-12.1,18.4c-0.7,7.8,0.3,16.1-3,23.2c-3.7,8-12.5,14-12.8,22.8
					c-0.2,5.4,3,10.5,2.9,15.8c-0.3,8.9-9.3,15.5-9.8,24.4c-0.3,6.4,3.9,12.5,2.9,18.8c-0.8,4.9-4.6,8.8-6.2,13.4
					c-3.2,9.4,3.2,19.7,11.6,24.9c9.3,5.9,21.3,7.4,31.8,4s19.4-11.5,23.5-21.7c4.6-11.2,3.6-23.9,2.6-36
					c-3.1-37.8-5.5-75.6-7-113.5"/>
			</g>
			<g>
				<g>
					<path class="st8" d="M1231.5,715.4c-0.2-0.1,2.1-0.8,3.5-4.2c0.7-1.6,1-3.8,0.9-6.4c-0.1-2.5-1-5.3-1.9-8.4
						c-0.9-3.1-2-6.7-1.4-10.7c0.7-4.1,3.6-7.4,6.2-10.7c1.3-1.7,2.7-3.4,3.5-5.3c0.9-1.9,1.1-4.2,0.4-6.2
						c-1.3-4.3-5.5-7.4-7.4-12.3c-0.9-2.5-1-5.2-0.4-7.6c0.5-2.5,1.5-4.7,2.5-6.8c2-4.2,4.3-8.1,5.2-12.3c1.8-8.3,1-16.1,2.2-22.6
						c1.1-6.5,3.9-11.4,6.6-13.9c1.3-1.3,2.6-2,3.4-2.5c0.9-0.4,1.4-0.6,1.4-0.5c0.1,0.1-1.9,0.8-4.4,3.3s-5,7.3-6,13.7
						c-0.5,3.2-0.6,6.7-0.7,10.5s-0.3,7.9-1.2,12.2c-0.9,4.3-3.2,8.4-5.2,12.5s-3.8,8.9-2,13.4c1.7,4.4,5.8,7.6,7.4,12.4
						c0.8,2.4,0.5,5-0.5,7.2s-2.4,3.9-3.7,5.6c-2.7,3.3-5.4,6.4-6.1,10.1c-0.7,3.6,0.4,7.1,1.2,10.2c0.9,3.1,1.7,6,1.7,8.7
						c0.1,2.6-0.4,4.9-1.2,6.6c-0.8,1.7-1.9,2.8-2.7,3.3C1232,715.3,1231.5,715.4,1231.5,715.4z"/>
				</g>
			</g>
		</g>
		<path class="st9" d="M1211,777.1l-23.5,67.8l-98,5.3l-16.3,36.4l102.3,10.4c20.4,8.4,43.7-1.9,51.2-22.7l27.3-76.2L1211,777.1z"/>
		<g>
			<g>
				<g>
					<path class="st9" d="M1413.7,1415.9c0,0-71.8-228.1-73.3-235.5c-1.4-6.7,26.1-170.9,29.5-213.4l-97.1,3.6c0,0,0,0.3,0,0.7
						l-41.3,2.3l36.9,466.6h44.7l-4.4-154.8c27.5,73.9,67,149.3,67,149.3L1413.7,1415.9z"/>
				</g>
				<g>
					<path class="st10" d="M1310.6,1340.9c0-1.4-0.5-51.9-0.5-51.9c-0.6,3-17.1-43.8-16.7-46.6
						C1293.5,1240.9,1310.6,1340.9,1310.6,1340.9z"/>
				</g>
			</g>
			<g>
				<path class="st10" d="M1291.4,1220.2c-0.1,0-0.2,1-0.3,2.8c-0.1,1.8-0.1,4.5,0.1,7.7c0.1,1.6,0.2,3.4,0.4,5.3
					c0.2,1.9,0.5,4,0.9,6.1c0.8,4.3,2.1,8.9,3.7,13.6c3.2,9.4,6.8,17.7,9.4,23.7c1.2,2.7,2.2,5.1,3.1,7.1c0.8,1.7,1.2,2.6,1.3,2.5
					c0.1,0-0.2-1-0.8-2.7c-0.6-1.7-1.5-4.2-2.7-7.2c-2.3-6.1-5.7-14.4-8.9-23.8c-1.6-4.7-2.8-9.2-3.7-13.4c-0.5-2.1-0.8-4.1-1.1-6
					c-0.3-1.9-0.5-3.6-0.6-5.3c-0.3-3.2-0.4-5.8-0.5-7.7C1291.6,1221.2,1291.5,1220.2,1291.4,1220.2z"/>
			</g>
		</g>
		<g>
			<g>
				<g>
					<g>
						<path class="st8" d="M1267.7,1442.5v-4.2l45.7-2l0.1,17.3l-2.8,0.2c-12.6,0.7-63.9,2.9-72.3,0.3
							C1229,1451.3,1267.7,1442.5,1267.7,1442.5z"/>
					</g>
				</g>
				<g>
					<g>
						<path class="st7" d="M1314.1,1452.6c0,0-0.3,0-0.8,0.1c-0.7,0-1.4,0.1-2.2,0.1c-2.2,0.1-5,0.2-8.3,0.4
							c-7,0.3-16.6,0.5-27.3,0.6c-10.7,0-20.3-0.1-27.3-0.3c-3.3-0.1-6-0.2-8.3-0.3c-0.8,0-1.6-0.1-2.2-0.1c-0.5,0-0.8-0.1-0.8-0.1
							s0.3,0,0.8,0c0.7,0,1.4,0,2.3,0c2.2,0,5,0.1,8.3,0.1c7,0.1,16.6,0.2,27.3,0.2c10.7,0,20.3-0.2,27.3-0.4c3.3-0.1,6-0.2,8.3-0.2
							c0.8,0,1.6,0,2.3,0C1313.9,1452.5,1314.1,1452.5,1314.1,1452.6z"/>
					</g>
				</g>
				<g>
					<g>
						<path class="st7" d="M1252.8,1454c-0.2,0-0.3-2-1.6-3.9c-1.2-2-2.9-3-2.8-3.2c0-0.1,2,0.7,3.3,2.9
							C1253.1,1451.9,1253,1454.1,1252.8,1454z"/>
					</g>
				</g>
				<g>
					<g>
						<path class="st7" d="M1266.2,1447.2c-0.1,0.1-0.8-0.7-1.4-1.7c-0.7-1-1.1-2-1-2c0.1-0.1,0.8,0.7,1.4,1.7
							C1265.9,1446.2,1266.4,1447.1,1266.2,1447.2z"/>
					</g>
				</g>
				<g>
					<g>
						<path class="st7" d="M1269.9,1445.2c-0.1,0.1-0.8-0.4-1.6-1.1c-0.8-0.7-1.3-1.4-1.2-1.5c0.1-0.1,0.8,0.4,1.6,1.1
							C1269.5,1444.4,1270,1445.1,1269.9,1445.2z"/>
					</g>
				</g>
				<g>
					<g>
						<path class="st7" d="M1272.2,1440.9c0,0.2-1.1,0.3-2.4,0.3s-2.4-0.1-2.4-0.2c0-0.2,1.1-0.3,2.4-0.3
							C1271.2,1440.6,1272.2,1440.8,1272.2,1440.9z"/>
					</g>
				</g>
				<g>
					<g>
						<path class="st7" d="M1273,1437.9c0.1,0.1-1.1,0.7-2.6,0.8c-1.5,0.1-2.8-0.2-2.7-0.4c0-0.2,1.2-0.1,2.7-0.2
							C1271.8,1438,1273,1437.7,1273,1437.9z"/>
					</g>
				</g>
				<g>
					<g>
						<path class="st7" d="M1264.7,1443.2c0,0.1-1.1,0.2-2.9,0c-0.9-0.1-2-0.3-3.1-0.7c-0.6-0.2-1.2-0.4-1.8-0.7
							c-0.3-0.2-0.6-0.5-0.7-0.9s0.1-0.9,0.4-1.2c2.8-1.5,5.6,0.1,6.6,1.5c0.6,0.7,0.8,1.5,1,1.9c0.1,0.5,0.1,0.8,0.1,0.8
							c-0.1,0-0.2-1.2-1.3-2.5c-0.6-0.7-1.4-1.3-2.5-1.6c-1-0.3-2.5-0.4-3.5,0.2c-0.5,0.3-0.3,0.9,0.2,1.2c0.5,0.3,1.1,0.5,1.6,0.7
							c1.1,0.4,2.1,0.6,3,0.8C1263.6,1443.1,1264.7,1443.1,1264.7,1443.2z"/>
					</g>
				</g>
				<g>
					<g>
						<path class="st7" d="M1263.9,1443.4c0,0-0.5-0.7-0.3-2c0.1-0.6,0.3-1.4,0.8-2.1s1.2-1.5,2.4-1.5c0.7,0.1,1,0.9,0.9,1.3
							c-0.1,0.5-0.3,1-0.5,1.3c-0.4,0.7-0.9,1.3-1.4,1.8c-0.9,0.9-1.6,1.2-1.7,1.2c-0.1-0.1,0.6-0.5,1.4-1.5
							c0.4-0.5,0.8-1.1,1.2-1.8c0.4-0.6,0.7-1.7-0.1-1.9c-0.7-0.1-1.5,0.7-1.9,1.2c-0.5,0.6-0.7,1.3-0.8,1.9
							C1263.7,1442.6,1264,1443.3,1263.9,1443.4z"/>
					</g>
				</g>
				<g>
					<g>
						<path class="st7" d="M1313.2,1440.1c0,0.1-1.3-0.1-3.4,0.1c-2,0.2-4.9,1.1-7.3,3.1c-2.5,2-3.9,4.6-4.6,6.5
							c-0.7,2-0.8,3.3-0.9,3.3c0,0-0.1-0.3,0-0.9c0-0.6,0.2-1.4,0.5-2.5c0.6-2,2-4.7,4.6-6.8c2.6-2.1,5.5-2.9,7.6-3
							c1.1-0.1,1.9,0,2.5,0.1C1312.9,1440,1313.2,1440.1,1313.2,1440.1z"/>
					</g>
				</g>
				<g>
					<g>
						<path class="st7" d="M1291.3,1448.9c0,0.1-2.9,0.6-6.6,0.6s-6.7-0.4-6.7-0.6s3,0,6.7,0
							C1288.3,1449,1291.2,1448.8,1291.3,1448.9z"/>
					</g>
				</g>
				<g>
					<g>
						<path class="st7" d="M1300.2,1448.8c0.1,0.1-0.2,0.6-0.5,1.3c-0.3,0.7-0.5,1.3-0.6,1.3s-0.2-0.7,0.1-1.5
							C1299.5,1449.1,1300.1,1448.7,1300.2,1448.8z"/>
					</g>
				</g>
				<g>
					<g>
						<path class="st7" d="M1303.5,1444.6c0.1,0.1-0.2,0.6-0.7,1.1s-0.9,0.8-1,0.7c-0.1-0.1,0.2-0.6,0.7-1.1
							C1303,1444.8,1303.4,1444.5,1303.5,1444.6z"/>
					</g>
				</g>
				<g>
					<g>
						<path class="st7" d="M1308.3,1442.7c0,0.2-0.6,0.2-1.3,0.4c-0.7,0.2-1.1,0.6-1.3,0.5c-0.1-0.1,0.3-0.7,1.1-1
							C1307.7,1442.3,1308.4,1442.6,1308.3,1442.7z"/>
					</g>
				</g>
				<g>
					<g>
						<path class="st7" d="M1311.8,1441.8c0.1,0.1-0.2,0.4-0.6,0.5s-0.7,0.2-0.8,0c-0.1-0.1,0.2-0.4,0.6-0.5
							C1311.3,1441.7,1311.7,1441.7,1311.8,1441.8z"/>
					</g>
				</g>
			</g>
		</g>
		<g>
			<g>
				<g>
					<g>
						<path class="st8" d="M1374.8,1438.5l-1.7-3.8l40.9-20.6l7.2,15.7l-2.5,1.3c-11.2,5.8-57.1,28.8-65.8,29.9
							C1343.2,1462.3,1374.8,1438.5,1374.8,1438.5z"/>
					</g>
				</g>
				<g>
					<g>
						<path class="st7" d="M1421.4,1428.6c0,0-0.2,0.2-0.7,0.4c-0.6,0.3-1.3,0.7-2,1.1c-2,1-4.5,2.3-7.4,3.7
							c-6.3,3.1-15,7.3-24.7,11.7c-9.7,4.4-18.6,8.2-25.1,10.9c-3,1.2-5.6,2.3-7.7,3.1c-0.8,0.3-1.5,0.6-2.1,0.8
							c-0.5,0.2-0.7,0.3-0.7,0.2c0,0,0.2-0.1,0.7-0.3c0.6-0.3,1.3-0.6,2.1-0.9c2.1-0.9,4.6-2,7.6-3.3c6.4-2.8,15.3-6.6,25-11
							s18.4-8.5,24.7-11.6c2.9-1.4,5.4-2.6,7.5-3.6c0.8-0.4,1.4-0.7,2-1C1421.1,1428.7,1421.4,1428.6,1421.4,1428.6z"/>
					</g>
				</g>
				<g>
					<g>
						<path class="st7" d="M1366,1455.1c-0.1,0.1-1.1-1.7-3-3s-3.9-1.6-3.9-1.7s2.1-0.2,4.2,1.3
							C1365.4,1453,1366.2,1455,1366,1455.1z"/>
					</g>
				</g>
				<g>
					<g>
						<path class="st7" d="M1375.5,1443.3c-0.1,0.1-1-0.3-2-1s-1.8-1.3-1.7-1.5c0.1-0.1,1,0.3,2,1S1375.5,1443.2,1375.5,1443.3z"/>
					</g>
				</g>
				<g>
					<g>
						<path class="st7" d="M1378,1440c0,0.1-0.9,0-1.9-0.3s-1.8-0.7-1.7-0.8c0-0.1,0.9,0,1.9,0.3S1378.1,1439.9,1378,1440z"/>
					</g>
				</g>
				<g>
					<g>
						<path class="st7" d="M1378.4,1435.1c0.1,0.1-0.8,0.7-2,1.3c-1.2,0.6-2.2,0.9-2.3,0.8c-0.1-0.1,0.8-0.7,2-1.3
							C1377.3,1435.3,1378.3,1435,1378.4,1435.1z"/>
					</g>
				</g>
				<g>
					<g>
						<path class="st7" d="M1377.8,1432c0.1,0.1-0.7,1.1-2.1,1.8c-1.4,0.7-2.6,0.9-2.6,0.8c0-0.2,1.1-0.6,2.4-1.3
							C1376.8,1432.7,1377.7,1431.9,1377.8,1432z"/>
					</g>
				</g>
				<g>
					<g>
						<path class="st7" d="M1372.4,1440.3c0,0.1-0.9,0.6-2.7,1.2c-0.9,0.3-1.9,0.5-3.1,0.7c-0.6,0.1-1.2,0.2-1.9,0.1
							c-0.3-0.1-0.7-0.2-1-0.5s-0.3-0.9-0.1-1.2c1.9-2.5,5.1-2.2,6.7-1.3c0.8,0.4,1.4,1,1.7,1.4c0.3,0.4,0.4,0.7,0.4,0.7
							c-0.1,0.1-0.7-1-2.2-1.7c-0.8-0.4-1.8-0.6-2.9-0.4c-1.1,0.1-2.4,0.7-3.1,1.7c-0.3,0.5,0.1,0.9,0.7,1s1.2,0,1.8,0
							c1.2-0.1,2.2-0.3,3.1-0.5C1371.4,1440.7,1372.4,1440.2,1372.4,1440.3z"/>
					</g>
				</g>
				<g>
					<g>
						<path class="st7" d="M1371.8,1440.8c0,0-0.7-0.5-1.1-1.7c-0.2-0.6-0.3-1.4-0.2-2.3c0.2-0.8,0.4-1.9,1.6-2.4
							c0.7-0.2,2.2,1.1,2.3,1.6c0.2,0.5-0.8,0.2-0.8,0.6c-0.1,0.8-0.3,1.6-0.5,2.2c-0.5,1.2-1,1.8-1,1.8c-0.1,0,0.3-0.7,0.7-1.9
							c0.2-0.6,0.3-1.3,0.4-2.1c0.1-0.7-0.1-1.9-0.8-1.7c-0.7,0.2-1.1,1.2-1.2,1.9c-0.2,0.8-0.1,1.5,0,2.1
							C1371.3,1440.1,1371.9,1440.7,1371.8,1440.8z"/>
					</g>
				</g>
				<g>
					<g>
						<path class="st7" d="M1415.4,1417.6c0,0.1-1.2,0.4-3,1.5c-1.8,1-4,3-5.4,5.8s-1.7,5.8-1.5,7.8c0.2,2.1,0.7,3.3,0.6,3.3
							c0,0-0.2-0.3-0.4-0.8c-0.2-0.6-0.4-1.4-0.6-2.4c-0.3-2.1-0.1-5.2,1.4-8.1s3.9-4.9,5.7-5.9c0.9-0.5,1.7-0.8,2.3-1
							C1415.1,1417.7,1415.4,1417.6,1415.4,1417.6z"/>
					</g>
				</g>
				<g>
					<g>
						<path class="st7" d="M1399,1434.7c0.1,0.1-2.4,1.8-5.8,3.3s-6.3,2.4-6.3,2.2c-0.1-0.2,2.7-1.2,6.1-2.7
							C1396.3,1435.9,1398.9,1434.5,1399,1434.7z"/>
					</g>
				</g>
				<g>
					<g>
						<path class="st7" d="M1407.1,1430.9c0.1,0.1,0,0.7,0,1.4c0,0.7,0.1,1.4,0,1.4c-0.1,0.1-0.5-0.6-0.5-1.4
							S1407,1430.9,1407.1,1430.9z"/>
					</g>
				</g>
				<g>
					<g>
						<path class="st7" d="M1408.4,1425.7c0.1,0.1,0.1,0.6-0.2,1.2c-0.2,0.6-0.5,1.1-0.7,1c-0.1-0.1-0.1-0.6,0.2-1.2
							S1408.3,1425.7,1408.4,1425.7z"/>
					</g>
				</g>
				<g>
					<g>
						<path class="st7" d="M1412,1422c0,0.2-0.5,0.4-1,0.9s-0.8,1-1,1c-0.1,0-0.1-0.8,0.6-1.4C1411.3,1421.9,1412,1421.9,1412,1422z
							"/>
					</g>
				</g>
				<g>
					<g>
						<path class="st7" d="M1414.8,1419.8c0.1,0.1,0,0.4-0.3,0.7c-0.3,0.3-0.6,0.4-0.7,0.3s0-0.4,0.3-0.7
							C1414.4,1419.8,1414.7,1419.7,1414.8,1419.8z"/>
					</g>
				</g>
			</g>
		</g>
		<g>
			<g>
				<g>
					<g>
						<g>
							<g>
								<g>
									<g>
										<path class="st6" d="M1363.6,889.8l-7.6-92.9l39.1,0.7c0,0,1.8-13.7-4-43.8c-3.5-18.4-15.8-29.7-29.6-36.5v-0.2l-1.2-0.3
											c-17.5-8.2-35.8-9.4-35.8-9.4l-48,0.6c0,0-36.7-4.6-57,21.6c-7.8,10.1-32,79-32,79l57.7,27.8l-5.5-38.2
											c0,0,1.1,27.7,4.6,36.5c2,4.9,7.7,20.1,7.7,20.1l-0.7,45.9L1363.6,889.8z"/>
									</g>
								</g>
							</g>
						</g>
					</g>
					<g>
						<polygon class="st6" points="1337.1,783.4 1329.9,813.7 1397.2,813.7 1392.8,762.8 						"/>
					</g>
					<g>
						<g>
							<path class="st7" d="M1397.2,813.7c0-0.2-3.4-0.6-8.9-0.9c-5.5-0.3-13.1-0.6-21.6-0.6c-8.4,0-16.1,0.4-21.6,0.8
								c-5.5,0.4-8.9,0.9-8.9,1.1c0,0.2,3.4,0.1,8.9,0c5.5-0.2,13.1-0.4,21.5-0.4s16,0.1,21.5,0.1
								C1393.8,814,1397.2,813.9,1397.2,813.7z"/>
						</g>
					</g>
					<g>
						<g>
							<path class="st7" d="M1334.2,762.6c-0.2,0-0.3,3-0.2,7.7c0.1,4.8,0.2,11.3,0.5,18.6s0.6,13.8,0.9,18.6s0.6,7.7,0.8,7.7
								c0.2,0,0.3-3,0.2-7.7c-0.1-4.8-0.2-11.3-0.5-18.6s-0.6-13.8-0.9-18.6S1334.4,762.6,1334.2,762.6z"/>
						</g>
					</g>
					<g class="st11">
						<path d="M1273,788.9c0,0,14.9,110.8,57,107.9c0,0,18.9-0.2,25-12.8v-5L1273,788.9z"/>
					</g>
				</g>
			</g>
			<g class="st11">
				<polygon points="1334.2,769.1 1326.1,823.4 1331.3,833 1339.9,814.3 1336.3,814.2 				"/>
			</g>
			<g>
				<g>
					<path class="st7" d="M1251.9,854.7c-0.1,0-0.5-0.9-1.1-2.6c-0.7-1.7-1.5-4.2-2.5-7.3c-2-6.2-4.5-14.8-6.4-24.6
						s-2.9-18.7-3.2-25.2c-0.2-3.3-0.2-5.9-0.2-7.7s0.1-2.8,0.2-2.8c0.2,0,0.4,4,0.9,10.5c0.6,6.5,1.6,15.3,3.6,25
						c1.9,9.7,4.3,18.3,6,24.6c0.8,2.9,1.5,5.4,2.1,7.4C1251.8,853.7,1252,854.7,1251.9,854.7z"/>
				</g>
			</g>
			<g>
				<g>
					<path class="st7" d="M1268.9,886.6c-0.4,0.1-1.4-2.3-2.3-5.3c-0.9-3.1-1.4-5.6-1-5.7c0.4-0.1,1.4,2.3,2.3,5.3
						C1268.8,883.9,1269.3,886.5,1268.9,886.6z"/>
				</g>
			</g>
			<g>
				<g>
					<path class="st7" d="M1274.7,886.1c-0.3,0.1-1.5-3.5-1.5-8.1c-0.1-4.6,1-8.2,1.3-8.1c0.4,0.1,0,3.7,0.1,8.1
						C1274.6,882.5,1275.1,886.1,1274.7,886.1z"/>
				</g>
			</g>
			<g>
				<g>
					<path class="st7" d="M1246.3,837.6c-0.2,0.3-13.6-6-30-14.2s-29.5-15.1-29.4-15.4c0.2-0.3,13.6,6,30,14.2
						C1233.3,830.4,1246.4,837.3,1246.3,837.6z"/>
				</g>
			</g>
		</g>
		<g>
			<g>
				<g>
					<g>
						<g>
							<g>
								<g>
									<g>
										<g>
											<path class="st9" d="M1269.9,717c0.3-13.2,0.4-27,0.4-27s-16.9-3.3-19.8-25.5c-2.8-21.2,5-70.9,5-70.9l0,0
												c24.7-9.3,50.3-0.9,67.2,19.1l0,0l-4.2,106.9c-0.5,12.4-11.6,21.9-24.8,21.3l0,0C1280.3,740.2,1269.6,729.5,1269.9,717z"
												/>
										</g>
									</g>
								</g>
								<g>
									<g>
										<g>
											<g>
												<path class="st7" d="M1254.2,633.2c-0.1,1.5,1.1,2.8,2.7,2.9c1.6,0.1,2.9-1,3-2.5s-1.1-2.8-2.7-2.9
													S1254.3,631.8,1254.2,633.2z"/>
											</g>
										</g>
									</g>
									<g>
										<g>
											<g>
												<g>
													<path class="st7" d="M1253.2,629.5c0.3,0.4,2.5-1.2,5.6-1.1c3.1,0,5.3,1.7,5.6,1.3c0.2-0.2-0.2-0.8-1.1-1.6
														c-0.9-0.7-2.6-1.5-4.5-1.5s-3.5,0.6-4.5,1.3C1253.3,628.7,1253,629.3,1253.2,629.5z"/>
												</g>
											</g>
										</g>
									</g>
								</g>
								<g>
									<g>
										<g>
											<g>
												<path class="st7" d="M1285.2,635.2c-0.1,1.5,1.1,2.8,2.7,2.9c1.6,0.1,2.9-1,3-2.5s-1.1-2.8-2.7-2.9
													S1285.3,633.7,1285.2,635.2z"/>
											</g>
										</g>
									</g>
									<g>
										<g>
											<g>
												<g>
													<path class="st7" d="M1285,631.5c0.3,0.4,2.5-1.2,5.6-1.1c3.1,0,5.3,1.7,5.6,1.3c0.2-0.2-0.2-0.8-1.1-1.6
														c-0.9-0.7-2.6-1.5-4.5-1.5s-3.5,0.6-4.5,1.3C1285.2,630.6,1284.8,631.3,1285,631.5z"/>
												</g>
											</g>
										</g>
									</g>
								</g>
								<g>
									<g>
										<g>
											<g>
												<path class="st7" d="M1273.3,653.8c0-0.2-1.9-0.6-4.9-1c-0.8-0.1-1.5-0.3-1.6-0.8c-0.2-0.6,0.2-1.4,0.6-2.3
													c0.8-1.9,1.6-3.8,2.5-5.9c3.4-8.4,5.9-15.3,5.6-15.4c-0.3-0.1-3.4,6.5-6.8,14.9c-0.8,2.1-1.6,4-2.4,5.9
													c-0.3,0.9-0.9,1.9-0.5,3.1c0.2,0.6,0.8,1,1.3,1.2s0.9,0.2,1.3,0.2C1271.4,653.9,1273.3,654,1273.3,653.8z"/>
											</g>
										</g>
									</g>
								</g>
								<g>
									<g>
										<g>
											<path class="st10" d="M1270.3,689.9c0,0,14.9,1.3,29.9-7.1c0,0-7.6,15-29.7,12.4L1270.3,689.9z"/>
										</g>
									</g>
								</g>
							</g>
						</g>
					</g>
				</g>
			</g>
			<g>
				<g>
					<path class="st7" d="M1294.8,622.6c-0.6,1-3,0.5-5.6,0.1c-2.6-0.5-4.9-1-5.1-2.1c-0.3-1.1,2.4-2.6,5.9-1.9
						C1293.5,619.4,1295.4,621.7,1294.8,622.6z"/>
				</g>
			</g>
			<g>
				<g>
					<path class="st7" d="M1264.4,618.2c-0.2,1.1-2.7,1.5-5.6,1.7c-2.9,0.1-5.4-0.1-5.7-1.1c-0.3-1.1,2.1-2.8,5.5-2.9
						C1262.1,615.6,1264.7,617.1,1264.4,618.2z"/>
				</g>
			</g>
			<g>
				<path class="st10" d="M1273.4,661.1c-0.6-0.2-1.4,0.2-1.7,0.8c-0.4,0.7-0.2,1.7,0.4,2.2s1.6,0.5,2.2,0s0.8-1.4,0.5-2.2
					c-0.4-0.7-1.3-1.1-2-0.9"/>
			</g>
			<g>
				<g>
					<path class="st7" d="M1274.1,661.4c0.1-0.1-0.5-0.9-1.8-0.6c-0.6,0.1-1.4,0.7-1.7,1.6c-0.2,0.9,0,2,0.9,2.8
						c1,0.7,2.2,0.5,2.9,0c0.8-0.5,1.1-1.5,0.9-2.2c-0.3-1.4-1.3-1.6-1.3-1.4c-0.1,0.2,0.4,0.6,0.3,1.5c0,0.4-0.2,0.8-0.6,1
						s-1,0.2-1.3-0.1c-0.4-0.3-0.5-0.8-0.5-1.3c0.1-0.4,0.3-0.8,0.7-1C1273.4,661.4,1274,661.6,1274.1,661.4z"/>
				</g>
			</g>
			<g>
				<g>
					<path class="st7" d="M1312.5,638.7c-2.6,6.1-9.1,10.8-8.2,17.4c0.6,4.3,3.3,8.2,2.8,12.5c-0.7,5.3-6.2,9.1-7,14.4
						c-1,6.5,5.4,11.6,7.9,17.7c3.7,8.9-1,18.9-1.1,28.5c-0.2,14.7,12.4,28.5,27.1,29.7c5.9,0.5,12.6-1.3,15.7-6.4
						c2.5-4.2,2-9.6,3.6-14.2c2.3-7,8.9-12.1,10.3-19.3c2.6-13.1-13.3-24-12.3-37.3c0.4-5.7,4-10.7,5.5-16.2
						c2-7.2,0.2-15.3-4.6-21.1c-3.9-4.7-9.6-7.7-12.9-12.8c-3.8-5.8-3.9-13.1-5.3-19.8c-3.5-16.4-15.8-30.7-31.6-36.5
						c-15.8-5.8-34.4-3-47.7,7.3c0,0-3.8,17.2,13.8,20c17.6,2.9,25.8-0.4,27.8,6.6c0,0-2,8.2,5.3,16.1
						C1308.7,633.3,1315.5,631.7,1312.5,638.7z"/>
				</g>
				<g>
					<g>
						<path class="st8" d="M1340.6,757.8c0,0-0.6,0-1.6-0.2s-2.6-0.5-4.5-1.2c-3.8-1.4-9.1-4.4-13.6-10.1c-2.3-2.8-4.4-6.3-5.8-10.3
							c-1.5-4-2.3-8.6-2.4-13.4c-0.1-4.8,0.6-9.8,1.9-14.9c0.7-2.5,1.5-5,2.5-7.5s2.2-4.9,2.9-7.5c0.7-2.5,0.6-5.2,0-7.6
							c-0.7-2.5-1.8-4.8-3-7.1c-1.1-2.3-2.3-4.6-3-7.1c-0.8-2.4-1-5-0.5-7.5c1-4.9,4-8.5,5.8-12.3c1.9-3.7,2.4-7.6,2.4-11.1
							c-0.3-7.1-3.3-12.3-5.8-15.4c-2.6-3-4.5-4.2-4.4-4.3c0,0,2.1,1,4.8,4c2.6,3,5.9,8.3,6.4,15.7c0.2,3.6-0.4,7.7-2.3,11.6
							c-1.8,3.9-4.7,7.5-5.6,12s1.2,9.2,3.5,13.7c1.1,2.3,2.3,4.7,3.1,7.4c0.7,2.6,0.8,5.6,0,8.3c-0.7,2.7-2,5.2-2.9,7.6
							c-1,2.4-1.8,4.9-2.5,7.4c-1.3,4.9-2,9.8-1.9,14.5c0,9.4,3.3,17.6,7.7,23.1c4.3,5.6,9.4,8.7,13.1,10.2
							C1338.4,757.4,1340.6,757.6,1340.6,757.8z"/>
					</g>
				</g>
				<g>
					<g>
						<path class="st8" d="M1338,626.4c0,0.1-1.4,0.3-3.9,0.6c-2.5,0.2-6.2,0.5-10.7-0.3c-4.4-0.8-10-3-13.5-8.2
							c-1.7-2.6-2.4-5.8-3.6-8.7c-1.1-3-3.1-5.5-5.9-7.3c-5.7-3.6-12.4-4.1-18.3-4.8s-11.4-1.9-15.2-4.7c-3.8-2.7-5.7-6.2-6.2-8.7
							c-0.3-1.3-0.3-2.3-0.2-2.9c0.1-0.7,0.2-1,0.2-1c0.2,0-0.2,1.4,0.5,3.8c0.6,2.4,2.6,5.6,6.2,8c3.6,2.6,8.9,3.7,14.8,4.3
							c5.8,0.7,12.7,1,18.9,4.9c3,1.9,5.3,4.8,6.4,8c1.2,3.1,1.8,6.1,3.4,8.5c3.2,4.8,8.4,7.1,12.7,7.9c4.3,0.9,8,0.7,10.5,0.7
							C1336.6,626.3,1338,626.3,1338,626.4z"/>
					</g>
				</g>
				<g>
					<g>
						<path class="st8" d="M1331.6,605.2c0,0.1-1.1,0.4-3.1,0.4c-2,0.1-5-0.3-8.2-1.9c-1.6-0.8-3.3-1.9-4.8-3.4
							c-1.6-1.5-2.8-3.4-4-5.4c-2.3-4-4.6-8.8-9.5-10.9c-4.8-2-10-1.6-14.6-1.3c-4.6,0.5-8.9,0.6-12.5-0.1c-3.5-0.6-6.2-2.1-7.7-3.4
							c-0.7-0.7-1.3-1.3-1.5-1.7c-0.3-0.4-0.4-0.7-0.4-0.7c0.1-0.1,0.7,0.8,2.3,2c1.5,1.2,4.1,2.4,7.5,2.9s7.6,0.3,12.2-0.2
							c4.6-0.4,10-0.9,15.2,1.3c2.6,1.1,4.7,3.1,6.2,5.2c1.5,2.1,2.6,4.3,3.8,6.3c1.1,2,2.3,3.8,3.8,5.2c1.4,1.4,3,2.5,4.5,3.3
							c3.1,1.6,5.9,2.1,7.8,2.2C1330.5,605.2,1331.5,605.1,1331.6,605.2z"/>
					</g>
				</g>
				<g>
					<g>
						<path class="st8" d="M1348.4,752.1c-0.1-0.1,0.7-1.7,1.7-4.9s1.9-8,1.7-14c-0.2-5.9-1.6-13.1-5.6-19.9
							c-1.9-3.4-4.8-6.4-7.2-10.2c-1.2-1.9-2.2-4-2.6-6.3s-0.2-4.8,0.6-7c1.5-4.5,4.1-8.3,4.6-12.4c0.7-4.1-1.4-7.9-3.4-11.3
							c-1-1.7-2-3.4-2.8-5.2s-1.3-3.6-1.5-5.4c-0.4-3.6,0-6.9,0.3-9.9c0.8-5.9,0.2-10.8-1.2-13.8c-1.4-3-3.2-4-3.1-4.1
							c0,0,0.1,0,0.3,0.1c0.2,0.1,0.5,0.3,0.8,0.6c0.7,0.6,1.6,1.6,2.4,3.1c1.6,3,2.4,8.1,1.7,14.1c-0.2,3-0.6,6.3-0.1,9.7
							c0.3,3.5,2.1,6.7,4.2,10.1c1,1.7,2.1,3.5,2.8,5.5c0.8,2,1.1,4.3,0.8,6.6c-0.6,4.6-3.3,8.4-4.7,12.6c-0.7,2.1-0.9,4.3-0.5,6.4
							c0.4,2.1,1.3,4,2.4,5.8c2.2,3.6,5.1,6.7,7.1,10.3c4,7.1,5.3,14.4,5.4,20.5c0,6.1-1.1,11-2.2,14.1c-0.6,1.6-1.1,2.8-1.5,3.6
							C1348.6,751.8,1348.4,752.2,1348.4,752.1z"/>
					</g>
				</g>
			</g>
		</g>
		<g>
			<g>
				<path class="st7" d="M1242.3,1237.3c0,0-17.5-166.2-18.5-227.6s27.6-122,27.6-122l112.2-4.7c0,0,22.2,62.3,22.6,88.5
					c0.8,50.9-13.5,101.1-11.9,141.5l3.7,124.5"/>
			</g>
			<g>
				<g>
					<path class="st12" d="M1381.8,1032.9c0,0-0.6,0.5-1.8,1.4c-0.3,0.2-0.7,0.5-1,0.7c-0.4,0.3-0.7,0.7-1.1,1
						c-0.8,0.8-1.7,1.6-2.5,2.8c-3.6,4.4-6.3,12.4-8.8,22.2c-1.4,4.9-2.8,10.4-5.7,15.8c-0.8,1.3-1.5,2.7-2.5,3.9
						c-0.5,0.6-0.9,1.3-1.5,1.9l-1.7,1.7c-2.3,2.3-5.3,4-8.4,5.4c-6.3,2.8-13.4,4.1-19.8,7.3c-6.5,3.2-11.4,9.3-14.4,16.4
						c-3.2,7.1-5.1,14.5-7.7,21.4s-6.1,13.5-11.7,17.8c-5.6,4.4-12.4,5.4-18.4,5.8s-11.6,0.2-16.6,0.9c-5,0.7-9.4,2.3-12.6,4.7
						c-3.1,2.5-5,5.6-5.8,8.2c-0.9,2.7-0.7,4.9-0.4,6.4c0.3,1.5,0.7,2.2,0.6,2.2c0,0-0.5-0.7-0.9-2.1c-0.4-1.5-0.6-3.8,0.2-6.6
						c0.8-2.8,2.6-6,5.9-8.7c3.2-2.6,7.8-4.3,12.9-5.1c5.1-0.8,10.8-0.7,16.7-1.1c5.9-0.4,12.5-1.5,17.7-5.6
						c5.3-4,8.7-10.4,11.2-17.2c2.6-6.8,4.5-14.3,7.7-21.5c3-7.2,8.2-13.8,15-17c6.7-3.3,13.8-4.6,19.9-7.3c3.1-1.3,5.9-3,8.1-5.1
						l1.7-1.6c0.5-0.6,0.9-1.2,1.4-1.8c1-1.2,1.7-2.5,2.4-3.8c2.9-5.2,4.3-10.7,5.7-15.5c2.6-9.8,5.5-17.9,9.3-22.3
						c0.8-1.2,1.8-2,2.6-2.8c0.4-0.4,0.8-0.7,1.1-1c0.4-0.2,0.7-0.5,1.1-0.7C1381.1,1033.3,1381.7,1032.9,1381.8,1032.9z"/>
				</g>
			</g>
			<g>
				<g>
					<path class="st12" d="M1382.5,956c0,0,0.1,0.8,0.1,2.2c0,1.5-0.2,3.6-0.8,6.4c-1.3,5.4-5.3,12.9-12.7,19.6
						c-3.7,3.4-8.1,6.7-13.1,9.6c-5,3-10.6,5.8-16.3,9c-5.7,3.2-11.5,6.9-16.6,11.7c-5.2,4.8-9.1,11.1-12.6,17.7
						s-6.7,13.4-10.9,19.2c-2.1,2.9-4.5,5.6-7.1,7.9s-5.5,4.1-8.5,5.6c-5.9,3.1-11.9,4.9-17.4,6.7c-5.6,1.7-10.8,3.2-15.3,5.1
						s-8.5,4-11.7,6.2c-3.2,2.3-5.6,4.6-7.3,6.8c-3.5,4.3-4.2,7.4-4.4,7.3c0,0,0.2-0.7,0.7-2.1c0.6-1.3,1.5-3.3,3.3-5.5
						c1.7-2.2,4.1-4.7,7.3-7c3.2-2.3,7.2-4.6,11.7-6.5c4.6-2,9.8-3.6,15.3-5.3c5.5-1.8,11.4-3.7,17.2-6.7c2.9-1.5,5.7-3.3,8.2-5.5
						s4.8-4.8,6.9-7.7c4.1-5.7,7.2-12.4,10.8-19.1c3.5-6.7,7.5-13.1,12.9-18c5.3-4.9,11.2-8.6,16.9-11.8c5.7-3.2,11.3-6,16.3-8.9
						s9.4-6,13.1-9.3c7.4-6.5,11.4-13.7,12.8-19C1382.7,959.1,1382.3,956,1382.5,956z"/>
				</g>
			</g>
			<g>
				<g>
					<path class="st12" d="M1224.3,1018.4c0,0-0.1-0.2-0.2-0.5s-0.4-0.8-0.5-1.6c-0.3-1.4-0.5-3.6,0.3-6.2
						c1.4-5.3,7.2-11.9,16.5-15.2c4.6-1.6,9.9-2.5,15.3-4s11.3-3.5,15.7-8c2.2-2.2,4-4.9,5.6-7.8c1.5-2.9,2.7-6.1,3.9-9.4
						c2.3-6.5,4.3-13.6,8.3-20c3.9-6.5,10.3-11,17-13.2c6.6-2.4,13.3-3.5,19.5-4.9s12-3.1,16.9-5.8c4.9-2.8,8.7-6.4,11.5-10.3
						c5.6-7.8,7.1-15.8,7.3-21.1c0.1-5.4-0.7-8.3-0.6-8.3c0,0,1,2.9,1.1,8.3c0,5.4-1.4,13.6-7,21.6c-2.8,4-6.7,7.9-11.7,10.8
						c-5.1,2.8-11,4.6-17.2,6c-6.2,1.5-12.9,2.6-19.3,5c-6.5,2.2-12.5,6.5-16.3,12.7s-5.8,13.2-8.2,19.7c-1.2,3.3-2.4,6.5-4,9.5
						s-3.5,5.8-5.8,8.1c-4.7,4.7-10.8,6.8-16.3,8.2s-10.7,2.3-15.3,3.8c-9,3.1-14.8,9.4-16.3,14.4c-0.8,2.5-0.7,4.7-0.5,6
						C1224.2,1017.7,1224.4,1018.4,1224.3,1018.4z"/>
				</g>
			</g>
			<g>
				<g>
					<path class="st12" d="M1372.8,1159c0,0,0.1,0.6,0.2,1.6c0.1,1.1,0,2.7-0.5,4.7c-0.9,4-4,9.5-9.8,14.1
						c-2.9,2.3-6.3,4.4-10.3,6.1s-8.4,3.1-13,4.5s-9.4,2.9-14.1,5.1s-9.1,5.3-12.8,9.3c-3.8,4-7.1,8.3-10.7,12.2
						c-3.6,3.9-7.7,7-12,9.4c-8.6,4.7-17.5,6.4-24.8,6.4c-7.4,0.1-13.2-1.5-17-2.8c-1.9-0.7-3.4-1.3-4.3-1.9c-1-0.5-1.5-0.8-1.4-0.8
						c0,0,0.6,0.1,1.5,0.5c1,0.4,2.4,1,4.4,1.6c3.8,1.2,9.6,2.6,16.9,2.4c7.2-0.2,15.8-1.9,24.2-6.6c4.2-2.3,8.1-5.4,11.6-9.2
						c3.6-3.8,6.8-8.1,10.7-12.2c3.8-4.1,8.4-7.4,13.2-9.6c4.8-2.2,9.7-3.7,14.3-5.1c4.6-1.4,9-2.7,12.9-4.3
						c3.9-1.6,7.3-3.6,10.2-5.8c5.8-4.4,8.9-9.6,9.9-13.4C1373,1161.3,1372.6,1159,1372.8,1159z"/>
				</g>
			</g>
		</g>
		<g>
			<path class="st9" d="M1360,813.8l-21.7,0.5c-1.4,7.3-4.9,12.3-4.9,12.3c-18.1-31.5-32.2-73.7-35.7-90.6c0.5-1.7,1.1-3.6,1.9-5.7
				c0.9-2.4,0.1-7-0.3-9.5c-0.6-3.8-1.7-8.9-2-11.2c-1-7.2-2.1-8.3-4.6-7.5c-3.4,1.1,1.4,20.1-1.4,20.5c-1.5,0.2-3.3-6.3-3.9-11.6
				c-0.5-5.3-2.9-21.8-4.7-22.9c-2.6-1.6-4.8,0.9-4.2,6.3c0.7,5.4,1.5,21.5-1.3,21.7s-5.1-27-5.1-27s0.4-5.9-2.8-5.8
				c-5.9,0.3-1.3,29-0.8,31.7c0.4,1.9-2.7,2.2-3,0.2c-0.3-2.1-1.7-27.3-7.7-27.1c-4.6,0.2,3.6,23.7,1,29.1
				c-2.6,5.5-4.4-18.5-8.8-18.2c-1.6,0.1-2.8,0.4,0.2,14c1.6,7.3,6.4,20.7,10.5,31.8c7,37.6,37.6,158,85.6,135.9
				c26.9-12.3,37.8-67,37.8-67L1360,813.8z"/>
			<g>
				<g>
					<path class="st10" d="M1267.5,716.8c0,0,0.2,0,0.6-0.1s1.1-0.6,1-1.5c-0.1-1.6-0.3-4-0.7-7c-0.3-3.1-1.2-6.7-1.2-11.1
						c0-2.2,0-4.5,0.1-7c0.1-1.2,0.1-2.5,0.4-3.7c0.2-1.2,1-2.5,1.9-2.4h0.1l0,0c0.9,0,1.7,0.7,1.9,1.8c0.3,1.1,0.4,2.3,0.3,3.5l0,0
						l0,0c0.6,6.7,1.3,14,2.8,21.7c0.2,1,0.4,2,0.7,2.9c0.2,0.5,0.3,1,0.5,1.5c0.1,0.3,0.2,0.5,0.4,0.8c0.2,0.2,0.4,0.6,1.1,0.7
						c1.1-0.1,1.4-0.9,1.6-1.4s0.4-1.1,0.5-1.6c0.2-1.1,0.3-2.1,0.4-3.2c0.3-4.2,0.1-8.6-0.2-13c-0.1-2.2-0.7-4.5-0.3-6.5
						c0.2-1,0.6-2,1.3-2.4c0.3-0.2,0.7-0.2,1.1-0.1c0.2,0.1,0.4,0.1,0.6,0.3s0.1,0.1,0.3,0.4c0.9,1.9,1.3,4.3,1.8,6.5
						c0.5,2.3,0.9,4.7,1.2,7c0.4,2.4,0.7,4.8,1,7.2c0.2,2.4,0.6,5,1.2,7.4c0.3,1.2,0.7,2.5,1.2,3.7c0.3,0.6,0.5,1.2,1.1,1.8
						c0.2,0.3,0.8,0.8,1.6,0.6c0.7-0.2,0.9-0.8,1.1-1.2c0.4-1.5,0.3-2.7,0.3-4.1c-0.1-1.3-0.2-2.6-0.3-3.8c-0.2-2.2-0.4-4.4-0.5-6.5
						c0-1.1,0-2.1,0.1-3.1c0.1-0.5,0.1-1,0.3-1.4c0.1-0.2,0.2-0.3,0.3-0.4c0,0,0.1,0,0.1-0.1l0.3-0.1c1.7-0.7,2.3,1.7,2.8,3.6
						c0.4,2,0.7,4.1,1.1,6.2c0.7,4.1,1.6,8.2,2,12.1c0.2,1.9,0.3,4-0.2,5.6c-0.6,1.9-1.2,3.7-1.8,5.6l-0.1,0.2v0.2
						c3.2,14,7.6,26.5,11.6,37.6c4.1,11.1,8.2,20.7,11.9,28.6c3.6,7.9,6.9,13.9,9.1,18c1.1,2,2,3.5,2.7,4.7c0.6,1,1,1.6,1,1.6
						s-0.2-0.6-0.8-1.7c-0.6-1.2-1.5-2.8-2.5-4.8c-2.1-4.2-5.2-10.3-8.7-18.2s-7.5-17.5-11.6-28.6c-4-11.1-8.3-23.7-11.4-37.5v0.3
						c0.6-1.8,1.2-3.7,1.8-5.5c0.7-2.1,0.5-4.2,0.3-6.2c-0.5-4.1-1.3-8-2-12.1c-0.4-2-0.6-4.1-1.1-6.3c-0.2-1.1-0.5-2.1-1.1-3.2
						c-0.3-0.5-0.7-1.1-1.4-1.4c-0.7-0.3-1.5-0.2-2.1-0.1l-0.4,0.1c-0.2,0.1-0.4,0.2-0.6,0.3c-0.3,0.3-0.5,0.6-0.7,0.9
						c-0.3,0.6-0.4,1.2-0.4,1.8c-0.1,1.1-0.1,2.3-0.1,3.4c0.1,2.2,0.3,4.4,0.5,6.6c0.1,1.3,0.2,2.5,0.3,3.8c0,1.2,0.1,2.6-0.2,3.5
						c-0.1,0.3-0.2,0.2,0,0.4l0,0c0-0.1,0,0.1,0,0.1l0,0v-0.1c0,0,0.1-0.1,0-0.1c0,0-0.1,0-0.2-0.1c-0.3-0.3-0.6-0.9-0.8-1.4
						c-0.5-1.1-0.8-2.3-1.1-3.5c-0.6-2.4-0.9-4.8-1.2-7.2c-0.3-2.4-0.6-4.9-1-7.3c-0.4-2.4-0.8-4.8-1.3-7.1s-0.9-4.6-2-7
						c-0.1-0.2-0.5-0.8-0.8-0.9c-0.3-0.2-0.6-0.3-1-0.4c-0.7-0.2-1.6-0.1-2.2,0.3c-1.3,0.9-1.7,2.2-1.9,3.4c-0.2,1.2-0.2,2.4,0,3.6
						c0.1,1.1,0.2,2.2,0.3,3.3c0.3,4.4,0.5,8.7,0.2,12.8c-0.1,1-0.2,2-0.4,3c-0.1,0.5-0.2,0.9-0.4,1.3c-0.1,0.2-0.2,0.4-0.3,0.5
						c-0.1,0.2-0.2,0-0.2,0.3c0.1-0.3,0-0.1-0.1-0.3c-0.1-0.1-0.2-0.4-0.3-0.5c-0.2-0.4-0.3-0.9-0.5-1.3c-0.3-0.9-0.5-1.9-0.7-2.8
						c-1.5-7.6-2.3-15-2.9-21.6v0.1c0.1-1.3,0-2.6-0.4-3.9c-0.2-0.6-0.5-1.2-1-1.7s-1.3-0.7-1.9-0.7h0.1c-1-0.2-1.8,0.4-2.2,1.1
						c-0.4,0.6-0.6,1.3-0.8,2c-0.3,1.4-0.3,2.7-0.3,3.9c-0.1,2.5-0.1,4.9,0,7.1c0.1,4.4,1.1,8.1,1.4,11.1c0.5,3,0.8,5.4,0.9,7
						c0.2,0.8-0.4,1.2-0.8,1.4C1267.7,716.8,1267.5,716.8,1267.5,716.8z"/>
				</g>
			</g>
		</g>
		<path class="st9" d="M1097.9,849.7c0,0-7.2-0.3-15.1,1.7c-13.4,3.5-36.7,17.6-37.6,35h16.9c0,0-9.4,20.1-6.7,18.2
			c7.2-4.8,21.5-19.4,21.5-19.4L1097.9,849.7z"/>
		<g>
			<g>
				<g>
					<path class="st7" d="M1327.9,547.2c-0.4,0-1.9-13.9-3.4-31.1c-1.5-17.2-2.4-31.2-2.1-31.3c0.4,0,1.9,13.9,3.4,31.1
						C1327.3,533.2,1328.3,547.1,1327.9,547.2z"/>
				</g>
			</g>
			<g>
				<g>
					<path class="st7" d="M1401.8,485.6c0.3,0.2-11.1,16.7-25.4,36.9c-14.4,20.2-26.2,36.4-26.5,36.1c-0.3-0.2,11.1-16.7,25.4-36.9
						C1389.7,501.6,1401.5,485.4,1401.8,485.6z"/>
				</g>
			</g>
			<g>
				<g>
					<path class="st7" d="M1432.6,560.6c0.1,0.4-13.2,3.4-29.7,6.8c-16.5,3.4-29.9,5.8-30,5.5c-0.1-0.4,13.2-3.4,29.7-6.8
						S1432.5,560.2,1432.6,560.6z"/>
				</g>
			</g>
		</g>
	</g>
	<g>
		<path class="st6" d="M547,918.2l-92,473.3l-12.1,62l614.6-3c27.6-0.1,52-24.6,60.9-61l109-446.9c6.7-27.6-8-56.4-29-56.3
			L576.3,887C562.6,886.9,550.6,899.7,547,918.2z"/>
	</g>
	<g class="st13">
		<path d="M547,918.2l-92,473.3l-12.1,62l614.6-3c27.6-0.1,52-24.6,60.9-61l109-446.9c6.7-27.6-8-56.4-29-56.3L576.3,887
			C562.6,886.9,550.6,899.7,547,918.2z"/>
	</g>
	<g>
		<path class="st6" d="M998.6,1359.5l-65.1-524.4c-2.7-21.5-19.8-37.5-40-37.4l-142.7,0.5c-10.6,0-20.7,4.5-28.2,12.5l-67.8,72
			l-396.8,2c-24.3,0.1-42.9,23.1-39.7,48.9l60.4,484.7c2.7,21.5,19.8,37.5,39.9,37.4l691.7-1.4c77,1.6,84.4-21.2,84.4-21.2
			C1006.5,1452.7,998.6,1359.5,998.6,1359.5z"/>
	</g>
	<g class="st13">
		<path class="st3" d="M520.7,1177.8c0.5,32.1-19,64.6-63.5,64.6c-15.6,0-34.3,0-49.9,0v-127c15.6,0,34.3,0,49.9,0
			C500.7,1115.4,520.1,1146.4,520.7,1177.8z M431,1219.3h26.1c28.8,0,40.3-21,39.7-41.7c-0.5-19.8-12.2-39.6-39.7-39.6H431V1219.3z"
			/>
		<path class="st3" d="M663.1,1179.6c-0.4,32.8-20.5,65.7-65.1,65.7s-65.3-32.1-65.3-65.5s21.4-66.9,65.3-66.9
			C641.7,1112.8,663.5,1146.4,663.1,1179.6z M556.3,1180.1c0.5,20.9,11.8,43.2,41.7,43.2s41.2-22.5,41.5-43.4
			c0.4-21.4-11.6-45.4-41.5-45.4C568.1,1134.6,555.7,1158.7,556.3,1180.1z"/>
		<path class="st3" d="M792.7,1226.4c-13.1,12.9-29.9,18.9-48.3,18.9c-47.2,0-67.1-32.5-67.3-65.5c-0.2-33.2,21.4-66.9,67.3-66.9
			c17.2,0,33.6,6.5,46.6,19.4l-16,15.4c-8.3-8.2-19.6-12-30.7-12c-30.7,0-43.9,22.9-43.7,44.1c0.2,21.1,12.3,43,43.7,43
			c11.1,0,23.6-4.5,31.9-12.9L792.7,1226.4z"/>
	</g>
	<g>
		<g>
			<g>
				<path class="st7" d="M1013.7,543.7c0,0,0.1-0.5,0.2-1.6c0.1-1.1,0.3-2.7,0.5-4.7c0.1-2.1,0.6-4.5,1.3-7.5
					c0.3-1.5,0.5-3.1,1.1-4.7c0.5-1.6,1-3.4,1.6-5.3c2.5-7.3,6.4-16.1,12.9-24.8c6.5-8.7,15.6-17.3,27.3-23.8
					c5.8-3.4,12.4-5.8,19.3-8c7-1.7,14.5-3.1,22.3-2.9c3.9-0.2,7.8,0.4,11.8,0.7c2,0.2,4,0.7,6,1.1s4,0.8,6,1.4
					c8,2.1,15.8,5.9,23.3,10.6c14.9,9.4,27.5,24.7,34.4,43.2c3.5,9.3,5.1,19.4,5.1,29.7c0.2,10.3-1.8,20.7-5.4,30.6l-1.2,3l-0.2,0.4
					l0.2,0.4c6.5,15,12.9,29.8,19.1,44.1l1.1-1.2c-13.4-5.2-26.5-10.2-39-15l-0.5-0.2l-0.4,0.4c-10.8,10.5-23.7,17.6-36.8,21.3
					c-13.1,3.7-26.3,3.9-38.4,1.8c-12-2.1-22.9-6.7-31.9-12.7c-9.1-5.9-16.3-13.1-22-20.4c-5.6-7.4-9.2-15-12-21.8
					c-2.4-6.9-3.9-13.1-4.7-18.2c-0.3-2.5-0.6-4.8-0.8-6.8c-0.1-1.9-0.1-3.6-0.1-5c0-1.3-0.1-2.3-0.1-3
					C1013.7,544,1013.7,543.7,1013.7,543.7s0,0.3-0.1,1c0,0.8,0,1.8,0,3.1c0,1.4,0,3,0,5c0.2,2,0.4,4.3,0.7,6.8
					c0.6,5.1,2.1,11.4,4.4,18.4c2.7,6.9,6.4,14.6,11.9,22.1c5.6,7.5,12.9,14.8,22.1,20.9c9.1,6.1,20.1,10.8,32.4,13
					c12.2,2.2,25.6,2.1,39-1.6c13.3-3.7,26.5-10.9,37.6-21.6l-0.9,0.2c12.5,4.8,25.5,9.9,39,15l2,0.8l-0.9-2
					c-6.2-14.3-12.6-29.1-19.1-44.1v0.8l1.2-3c3.7-10.1,5.8-20.7,5.6-31.3c0-10.5-1.7-20.9-5.2-30.4c-7.1-18.9-19.9-34.5-35.2-44
					c-7.6-4.8-15.6-8.6-23.7-10.7c-2-0.7-4.1-1.1-6.1-1.4s-4-0.9-6.1-1.1c-4.1-0.3-8.1-0.9-12-0.7c-7.9-0.2-15.5,1.3-22.6,3.1
					c-7,2.2-13.7,4.7-19.5,8.2c-11.9,6.7-21,15.5-27.5,24.3c-6.5,8.9-10.4,17.8-12.8,25.2c-0.5,1.9-1.1,3.7-1.5,5.3
					c-0.5,1.7-0.7,3.3-1,4.8c-0.6,3-1,5.5-1.1,7.6c-0.1,2-0.3,3.5-0.3,4.7C1013.7,543.1,1013.7,543.7,1013.7,543.7z"/>
			</g>
		</g>
	</g>
</g>
</svg>
