<?xml version="1.0" encoding="utf-8"?>
<!-- Generator: Adobe Illustrator 26.0.3, SVG Export Plug-In . SVG Version: 6.00 Build 0)  -->
<svg version="1.1" id="Camada_1" xmlns="http://www.w3.org/2000/svg" xmlns:xlink="http://www.w3.org/1999/xlink" x="0px" y="0px"
	 viewBox="0 0 1920 1920" style="enable-background:new 0 0 1920 1920;" xml:space="preserve">
<style type="text/css">
	.st0{fill:#F5F5F5;}
	.st1{fill:#E1E0E0;}
	.st2{fill:#FFFFFF;}
	.st3{fill:#192E35;}
	.st4{fill:#385A65;}
	.st5{fill:#EA505E;}
	.st6{opacity:0.6;}
	.st7{opacity:0.3;}
	.st8{fill:#FBFBFB;}
	.st9{opacity:0.5;fill:#FFFFFF;}
	.st10{fill:#ECECEC;}
</style>
<g>
	<g>
		<g>
			<g>
				<g>
					<g>
						<g>
							<g>
								<polygon class="st0" points="1418.9,1307.2 1418.9,1419 1582.3,1419 1762.6,1419 1762.6,1307.2 								"/>
							</g>
						</g>
					</g>
				</g>
			</g>
			<g>
				<g>
					<g>
						<g>
							<g>
								<polygon class="st1" points="1404.5,1276 1404.5,1307.2 1774.6,1307.2 1774.6,1276 1582.3,1276 								"/>
							</g>
						</g>
					</g>
				</g>
			</g>
			<g>
				<g>
					<g>
						<g>
							<g>
								<polygon class="st1" points="1589.5,1419 1762.6,1419 1762.6,1307.2 1774.6,1307.2 1774.6,1276 1582.3,1276 1582.3,1304.3 
																	"/>
							</g>
						</g>
					</g>
				</g>
			</g>
			<g>
				<g>
					<g>
						<g>
							<g>
								<rect x="1467" y="1325.2" class="st1" width="69.7" height="16.8"/>
							</g>
						</g>
					</g>
				</g>
			</g>
			<g>
				<g>
					<g>
						<g>
							<g>
								<rect x="1458" y="1363.1" class="st2" width="89.5" height="35.5"/>
							</g>
						</g>
					</g>
				</g>
			</g>
		</g>
	</g>
	<g>
		<g>
			<g>
				<g>
					<g>
						<g>
							<g>
								<polygon class="st0" points="1441.3,1144.2 1441.3,1275.2 1632.8,1275.2 1843.9,1275.2 1843.9,1144.2 								"/>
							</g>
						</g>
					</g>
				</g>
			</g>
			<g>
				<g>
					<g>
						<g>
							<g>
								<polygon class="st1" points="1424.4,1107.6 1424.4,1144.2 1858,1144.2 1858,1107.6 1632.8,1107.6 								"/>
							</g>
						</g>
					</g>
				</g>
			</g>
			<g>
				<g>
					<g>
						<g>
							<g>
								<polygon class="st1" points="1641.2,1275.2 1843.9,1275.2 1843.9,1144.2 1858,1144.2 1858,1107.6 1632.8,1107.6 
									1632.8,1140.8 								"/>
							</g>
						</g>
					</g>
				</g>
			</g>
			<g>
				<g>
					<g>
						<g>
							<g>
								<rect x="1497.6" y="1165.3" class="st1" width="81.7" height="19.7"/>
							</g>
						</g>
					</g>
				</g>
			</g>
			<g>
				<g>
					<g>
						<g>
							<g>
								<rect x="1487.1" y="1209.7" class="st2" width="104.8" height="41.6"/>
							</g>
						</g>
					</g>
				</g>
			</g>
		</g>
	</g>
	<g>
		<g>
			<polygon class="st0" points="596.9,498.4 596.9,526.6 607.5,531.2 593.7,531.2 591.1,549 840.9,575.9 865.8,536.7 			"/>
			<polygon class="st3" points="558.3,558.3 561.5,541.8 592.4,545.4 737,562.4 731.6,580.3 			"/>
			<path class="st4" d="M835.7,591.7L695,576.3l0,0c6.8-21.7,28.1-35.5,50.7-32.8l110.9,13.3L835.7,591.7z"/>
		</g>
		<path class="st5" d="M1025,557.3l0.2,95.1L536,653.7l0,0c-0.1-24.9,20.1-45.1,44.9-45.2l220.1-0.6l56.4-77.4l141.4,0.7
			C1013.3,531.3,1024.9,543,1025,557.3z"/>
		<g>
			<path class="st3" d="M1023.3,634c0,0.4-108.2,0.8-241.6,0.8c-133.4,0-241.6-0.4-241.6-0.8c0-0.4,108.1-0.8,241.6-0.8
				C915.1,633.2,1023.3,633.5,1023.3,634z"/>
		</g>
		<polygon class="st0" points="1493.8,707.7 1302.2,815.1 1302.2,790.6 1485.5,694.7 		"/>
		<polygon class="st3" points="1302.2,815.1 1452.9,730.5 1465.5,748.4 1372.4,803.7 1371.8,827.7 1302.2,865.5 		"/>
		<polygon class="st3" points="1302.2,1048.1 1452.9,963.5 1465.5,981.5 1372.4,1036.7 1371.8,1060.8 1302.2,1098.6 		"/>
		<path class="st5" d="M903.3,979.8h398.9v-240c0-5.1-4.1-9.3-9.3-9.3H903.3V979.8z"/>
		
			<rect x="903.3" y="989" transform="matrix(-1 -1.224647e-16 1.224647e-16 -1 2205.5889 2269.8406)" class="st5" width="398.9" height="291.8"/>
		<polygon class="st3" points="1304.4,1225.6 1473.8,1225.6 1473.8,1241.1 1302.1,1259.5 		"/>
		<path class="st3" d="M1328.8,1286.5L1328.8,1286.5c8.1,0,14.6-6.6,14.6-14.6v-14.6c0-8.1-6.6-14.6-14.6-14.6l0,0
			c-8.1,0-14.6,6.6-14.6,14.6v14.6C1314.2,1279.9,1320.8,1286.5,1328.8,1286.5z"/>
		<polygon class="st3" points="1455.4,1234.8 1455.4,1184.3 1432.5,1184.3 1432.5,1238.3 		"/>
		
			<rect x="903.3" y="1291.1" transform="matrix(-1 -1.224647e-16 1.224647e-16 -1 2205.4705 2675.1016)" class="st5" width="398.8" height="92.9"/>
		<path class="st6" d="M903.3,979.8h398.9v-240c0-5.1-4.1-9.3-9.3-9.3H903.3V979.8z"/>
		
			<rect x="903.3" y="989" transform="matrix(-1 -1.224647e-16 1.224647e-16 -1 2205.5889 2269.8406)" class="st6" width="398.9" height="291.8"/>
		
			<rect x="903.3" y="1291.1" transform="matrix(-1 -1.224647e-16 1.224647e-16 -1 2205.4705 2675.1016)" class="st6" width="398.8" height="92.9"/>
		
			<rect x="903.3" y="1384" transform="matrix(-1 -1.224647e-16 1.224647e-16 -1 2205.4705 2805.6658)" class="st5" width="398.8" height="37.6"/>
		
			<rect x="565.2" y="694.5" transform="matrix(-1 -1.224647e-16 1.224647e-16 -1 1558.3251 2080.6594)" class="st5" width="427.9" height="691.7"/>
		
			<rect x="565.2" y="694.5" transform="matrix(-1 -1.224647e-16 1.224647e-16 -1 1558.3251 2080.6594)" class="st7" width="427.9" height="691.7"/>
		
			<rect x="542.7" y="684.9" transform="matrix(-1 -1.224647e-16 1.224647e-16 -1 1251.0543 1563.8309)" class="st5" width="165.7" height="194.1"/>
		<path class="st5" d="M1025.2,651.9V689c0,8.6-7,15.6-15.6,15.6H807.8H542.7v-52.7H1025.2z"/>
		<path class="st3" d="M807.8,766.7V651.9H542.7v94.3c0,11.3,9.2,20.5,20.5,20.5H807.8"/>
		
			<rect x="648.6" y="667.4" transform="matrix(-1 -1.224647e-16 1.224647e-16 -1 1437.8698 1408.0527)" class="st4" width="140.7" height="73.2"/>
		
			<rect x="617.6" y="667.4" transform="matrix(-1 -1.224647e-16 1.224647e-16 -1 1243.1587 1342.75)" class="st4" width="7.9" height="7.9"/>
		
			<rect x="602.4" y="667.4" transform="matrix(-1 -1.224647e-16 1.224647e-16 -1 1212.6279 1342.75)" class="st4" width="7.9" height="7.9"/>
		
			<rect x="587.1" y="667.4" transform="matrix(-1 -1.224647e-16 1.224647e-16 -1 1182.097 1342.75)" class="st4" width="7.9" height="7.9"/>
		
			<rect x="555.4" y="667.4" transform="matrix(-1 -1.224647e-16 1.224647e-16 -1 1132.0602 1342.75)" class="st0" width="21.3" height="7.9"/>
		
			<rect x="555.4" y="680.9" transform="matrix(-1 -1.224647e-16 1.224647e-16 -1 1132.0602 1369.771)" class="st0" width="21.3" height="7.9"/>
		
			<rect x="555.4" y="694.5" transform="matrix(-1 -1.224647e-16 1.224647e-16 -1 1132.0602 1396.8981)" class="st0" width="21.3" height="7.9"/>
		
			<rect x="555.4" y="709" transform="matrix(-1 -1.224647e-16 1.224647e-16 -1 1132.0602 1425.9635)" class="st0" width="21.3" height="7.9"/>
		
			<rect x="587.1" y="681.2" transform="matrix(-1 -1.224647e-16 1.224647e-16 -1 1182.097 1370.2612)" class="st4" width="7.9" height="7.9"/>
		
			<rect x="617.6" y="681.6" transform="matrix(-1 -1.224647e-16 1.224647e-16 -1 1243.1587 1371.0997)" class="st4" width="7.9" height="7.9"/>
		
			<rect x="617.6" y="694.8" transform="matrix(-1 -1.224647e-16 1.224647e-16 -1 1243.1587 1397.428)" class="st4" width="7.9" height="7.9"/>
		
			<rect x="601.9" y="681.6" transform="matrix(-1 -1.224647e-16 1.224647e-16 -1 1211.6211 1371.0997)" class="st4" width="7.9" height="7.9"/>
		
			<rect x="601.9" y="694.8" transform="matrix(-1 -1.224647e-16 1.224647e-16 -1 1211.6211 1397.428)" class="st4" width="7.9" height="7.9"/>
		
			<rect x="586.4" y="694.8" transform="matrix(-1 -1.224647e-16 1.224647e-16 -1 1180.7629 1397.428)" class="st4" width="7.9" height="7.9"/>
		<path class="st5" d="M578.3,733.7c0,7.6,6.2,13.7,13.7,13.7c7.6,0,13.7-6.1,13.7-13.7c0-7.6-6.1-13.7-13.7-13.7
			C584.5,719.9,578.3,726.1,578.3,733.7z"/>
		<path class="st4" d="M611,733.7c0,4.5,3.6,8.1,8.1,8.1c4.5,0,8.1-3.6,8.1-8.1c0-4.5-3.6-8.1-8.1-8.1
			C614.6,725.6,611,729.2,611,733.7z"/>
		<path class="st4" d="M557.1,733.8c0,4.5,3.6,8.1,8.1,8.1c4.5,0,8.1-3.6,8.1-8.1c0-4.5-3.6-8.1-8.1-8.1
			C560.7,725.7,557.1,729.3,557.1,733.8z"/>
		<path class="st5" d="M542.7,1096.4h482V887.5c0-4.7-3.8-8.6-8.6-8.6H542.7V1096.4z"/>
		<path class="st5" d="M542.7,1179.9h482v-72.8c0-3.4-2.7-6.1-6.1-6.1H547c-2.4,0-4.3,1.9-4.3,4.3V1179.9z"/>
		<path class="st7" d="M710.4,1137.5H859c1.6,0,2.8-1.3,2.8-2.8V1101H707.6v33.7C707.6,1136.3,708.8,1137.5,710.4,1137.5z"/>
		<path class="st5" d="M542.7,1342.5h482v-152.4c0-3.9-3.2-7.1-7.1-7.1H549.8c-3.9,0-7.1,3.2-7.1,7.1V1342.5z"/>
		<path class="st7" d="M710.4,1219.6H859c1.6,0,2.8-1.3,2.8-2.8V1183H707.6v33.7C707.6,1218.3,708.8,1219.6,710.4,1219.6z"/>
		
			<rect x="542.7" y="1350.7" transform="matrix(-1 -1.224647e-16 1.224647e-16 -1 1567.3523 2772.3167)" class="st5" width="482" height="71"/>
		
			<rect x="708.4" y="826.1" transform="matrix(-1 -1.224647e-16 1.224647e-16 -1 1605.903 1664.1478)" class="st3" width="189.2" height="11.9"/>
		
			<rect x="708.4" y="781.9" transform="matrix(-1 -1.224647e-16 1.224647e-16 -1 1671.3347 1608.0585)" class="st0" width="254.6" height="44.2"/>
		<g>
			<path class="st8" d="M709.1,677c0,0.5,15.7,0.8,35.1,0.8c19.4,0,35.1-0.4,35.1-0.8c0-0.5-15.7-0.8-35.1-0.8
				C724.8,676.2,709.1,676.5,709.1,677z"/>
		</g>
		<g>
			<path class="st8" d="M749.6,688.3c0,0.5,6.7,0.8,14.9,0.8c8.2,0,14.9-0.4,14.9-0.8c0-0.5-6.7-0.8-14.9-0.8
				C756.2,687.5,749.6,687.9,749.6,688.3z"/>
		</g>
		<g>
			<path class="st8" d="M749.6,700.3c0,0.5,6.7,0.8,14.9,0.8c8.2,0,14.9-0.4,14.9-0.8c0-0.5-6.7-0.8-14.9-0.8
				C756.2,699.5,749.6,699.8,749.6,700.3z"/>
		</g>
		<g>
			<path class="st8" d="M748.7,719.9c0,0.5,6.7,0.8,14.9,0.8c8.2,0,14.9-0.4,14.9-0.8c0-0.5-6.7-0.8-14.9-0.8
				C755.3,719.1,748.7,719.5,748.7,719.9z"/>
		</g>
		<g>
			<path class="st8" d="M667.2,719.9c0,0.5,6.7,0.8,14.9,0.8c8.2,0,14.9-0.4,14.9-0.8c0-0.5-6.7-0.8-14.9-0.8
				C673.9,719.1,667.2,719.5,667.2,719.9z"/>
		</g>
		
			<rect x="542.7" y="1350.7" transform="matrix(-1 -1.224647e-16 1.224647e-16 -1 1567.3523 2772.3167)" class="st9" width="482" height="71"/>
		<g>
			<path class="st3" d="M543,1075.3c0,0.5,107.7,0.8,240.5,0.8c132.9,0,240.6-0.4,240.6-0.8c0-0.5-107.7-0.8-240.6-0.8
				C650.7,1074.5,543,1074.8,543,1075.3z"/>
		</g>
		<g>
			<path class="st3" d="M543,1057.6c0,0.5,107.7,0.8,240.5,0.8c132.9,0,240.6-0.4,240.6-0.8c0-0.5-107.7-0.8-240.6-0.8
				C650.7,1056.8,543,1057.2,543,1057.6z"/>
		</g>
		<g>
			<path class="st3" d="M543,1039.9c0,0.5,107.7,0.8,240.5,0.8c132.9,0,240.6-0.4,240.6-0.8c0-0.5-107.7-0.8-240.6-0.8
				C650.7,1039.1,543,1039.5,543,1039.9z"/>
		</g>
		<g>
			<path class="st3" d="M543,1022.3c0,0.5,107.7,0.8,240.5,0.8c132.9,0,240.6-0.4,240.6-0.8c0-0.5-107.7-0.8-240.6-0.8
				C650.7,1021.4,543,1021.8,543,1022.3z"/>
		</g>
		<g>
			<path class="st3" d="M542.2,1179.8c0,0.5,108.2,0.8,241.6,0.8c133.5,0,241.7-0.4,241.7-0.8c0-0.5-108.2-0.8-241.7-0.8
				C650.4,1179,542.2,1179.4,542.2,1179.8z"/>
		</g>
		<g>
			<path class="st3" d="M542.2,1342.5c0,0.5,108.2,0.8,241.6,0.8c133.5,0,241.7-0.4,241.7-0.8c0-0.5-108.2-0.8-241.7-0.8
				C650.4,1341.7,542.2,1342.1,542.2,1342.5z"/>
		</g>
		<g>
			<path class="st3" d="M707.6,1101c-0.1,0-0.1,0.7-0.2,2.1c-0.1,1.6-0.2,3.6-0.4,6.1c-0.2,2.7-0.4,6-0.1,9.8
				c0.4,3.8,1.6,8.3,4.7,12.1c1.6,1.9,3.7,3.5,6.2,4.5c2.5,1,5.2,1.6,8,2.1c5.6,1.1,11.6,1.5,18,1.7c12.7,0.1,26.5-0.2,41.1-0.4
				c14.6-0.2,28.4-0.4,41.1-0.6c6.3-0.2,12.3-0.1,18-0.4c2.8-0.2,5.6-0.7,8.1-1.8c2.5-1.1,4.6-2.8,6.1-4.7c3.1-3.9,4.1-8.4,4.4-12.2
				c0.2-3.8,0.1-7.1,0-9.8c-0.1-2.7-0.3-4.7-0.4-6.1c-0.1-1.4-0.2-2.1-0.3-2.1c-0.1,0-0.1,0.7,0,2.1c0,1.6,0.1,3.6,0.1,6.1
				c0,2.7,0.1,5.9-0.2,9.7c-0.3,3.7-1.5,8-4.4,11.6c-1.4,1.8-3.4,3.3-5.7,4.3c-2.3,1-5,1.4-7.7,1.6c-5.5,0.3-11.6,0.2-17.9,0.3
				c-12.7,0.2-26.5,0.3-41.1,0.5c-14.6,0.1-28.5,0.5-41.1,0.5c-6.3-0.1-12.2-0.5-17.7-1.5c-2.7-0.5-5.4-1-7.7-2
				c-2.4-0.9-4.3-2.4-5.8-4.1c-3-3.5-4.3-7.8-4.7-11.5c-0.4-3.7-0.3-7-0.2-9.7c0.1-2.7,0.1-4.7,0.1-6.2
				C707.7,1101.7,707.6,1101,707.6,1101z"/>
		</g>
		<g>
			<path class="st3" d="M707.6,1181.6c-0.1,0-0.1,0.7-0.2,2.1c-0.1,1.6-0.2,3.6-0.4,6.1c-0.2,2.7-0.4,6-0.1,9.8
				c0.4,3.8,1.6,8.3,4.7,12.1c1.6,1.9,3.7,3.5,6.2,4.5c2.5,1,5.2,1.6,8,2.1c5.6,1.1,11.6,1.5,18,1.7c12.7,0.1,26.5-0.2,41.1-0.4
				c14.6-0.2,28.4-0.4,41.1-0.6c6.3-0.2,12.3-0.1,18-0.4c2.8-0.2,5.6-0.7,8.1-1.8c2.5-1.1,4.6-2.8,6.1-4.7c3.1-3.9,4.1-8.4,4.4-12.2
				c0.2-3.8,0.1-7.1,0-9.8c-0.1-2.7-0.3-4.7-0.4-6.1c-0.1-1.4-0.2-2.1-0.3-2.1c-0.1,0-0.1,0.7,0,2.1c0,1.6,0.1,3.6,0.1,6.1
				c0,2.7,0.1,5.9-0.2,9.7c-0.3,3.7-1.5,8-4.4,11.6c-1.4,1.8-3.4,3.3-5.7,4.3c-2.3,1-5,1.4-7.7,1.6c-5.5,0.3-11.6,0.2-17.9,0.3
				c-12.7,0.2-26.5,0.3-41.1,0.5c-14.6,0.1-28.5,0.5-41.1,0.5c-6.3-0.1-12.2-0.5-17.7-1.5c-2.7-0.5-5.4-1-7.7-2
				c-2.4-0.9-4.3-2.4-5.8-4.1c-3-3.5-4.3-7.8-4.7-11.5c-0.4-3.7-0.3-7-0.2-9.7c0.1-2.7,0.1-4.7,0.1-6.2
				C707.7,1182.3,707.6,1181.6,707.6,1181.6z"/>
		</g>
	</g>
	<g>
		<g>
			<rect x="334.1" y="1074.9" class="st10" width="246.8" height="19.1"/>
			<rect x="513.1" y="1074.9" class="st1" width="67.8" height="19.1"/>
		</g>
		<path class="st0" d="M302.7,1094.1c0,1.6,0,86.2,0,86.2h-13.5v9.4h13.5v57.7h252.7v-52.5h-18.7v-11.4h18.7v-17.2h8.3v-7.8h-9.9
			v-64.4H302.7z"/>
		<polygon class="st1" points="488.4,1094.3 488.4,1246.4 555.5,1246.4 555.5,1193.9 536.7,1193.9 536.7,1183.4 555.5,1183.4 
			555.5,1166.3 563.8,1166.3 563.8,1157.5 553.9,1157.5 553.9,1094.1 		"/>
		<g>
			<path class="st1" d="M493.1,1188.4c0,0.5-45.7,1-102.1,1c-56.4,0-102.1-0.4-102.1-1c0-0.5,45.7-1,102.1-1
				C447.4,1187.5,493.1,1187.9,493.1,1188.4z"/>
		</g>
		<g>
			<path class="st1" d="M493.1,1179.7c0,0.5-45.7,1-102.1,1c-56.4,0-102.1-0.4-102.1-1c0-0.5,45.7-1,102.1-1
				C447.4,1178.7,493.1,1179.1,493.1,1179.7z"/>
		</g>
		<g>
			<path class="st1" d="M506.3,1156.1c0,0.5-45.7,1-102.1,1c-56.4,0-102.1-0.4-102.1-1c0-0.5,45.7-1,102.1-1
				C460.5,1155.1,506.3,1155.6,506.3,1156.1z"/>
		</g>
		<g>
			<path class="st1" d="M507.5,1220.3c0,0.5-45.7,1-102.1,1c-56.4,0-102.1-0.4-102.1-1c0-0.5,45.7-1,102.1-1
				C461.8,1219.4,507.5,1219.8,507.5,1220.3z"/>
		</g>
		<g>
			<path class="st0" d="M331.4,1265.7c0,1.6,0,86.2,0,86.2h-13.5v9.4h13.5v57.7h252.7v-52.5h-18.7V1355h18.7v-17.2h8.3v-7.8h-9.9
				v-64.4H331.4z"/>
			<polygon class="st1" points="517,1265.9 517,1418 584.1,1418 584.1,1365.5 565.4,1365.5 565.4,1355 584.1,1355.4 584.1,1338.2 
				592.6,1338.2 592.5,1329.4 582.6,1329.1 582.6,1265.7 			"/>
			<g>
				<path class="st1" d="M521.8,1360c0,0.5-45.7,1-102.1,1c-56.4,0-102.1-0.4-102.1-1c0-0.5,45.7-1,102.1-1
					C476.1,1359.1,521.8,1359.5,521.8,1360z"/>
			</g>
			<g>
				<path class="st1" d="M521.8,1351.3c0,0.5-45.7,1-102.1,1c-56.4,0-102.1-0.4-102.1-1c0-0.5,45.7-1,102.1-1
					C476.1,1350.3,521.8,1350.7,521.8,1351.3z"/>
			</g>
			<g>
				<path class="st1" d="M534.9,1327.7c0,0.5-45.7,1-102.1,1c-56.4,0-102.1-0.4-102.1-1c0-0.5,45.7-1,102.1-1
					C489.2,1326.7,534.9,1327.2,534.9,1327.7z"/>
			</g>
			<g>
				<path class="st1" d="M536.2,1391.9c0,0.5-45.7,1-102.1,1c-56.4,0-102.1-0.4-102.1-1c0-0.5,45.7-1,102.1-1
					C490.5,1391,536.2,1391.4,536.2,1391.9z"/>
			</g>
		</g>
		<g>
			<path class="st0" d="M327.7,921.6c0,1.6,0,86.2,0,86.2h-13.5v9.4h13.5v57.7h252.7v-52.5h-18.7V1011h18.7v-17.2h8.3V986h-9.9
				v-64.4H327.7z"/>
			<polygon class="st1" points="513.4,921.9 513.4,1074 580.5,1074 580.5,1021.4 561.7,1021.4 561.7,1011 580.5,1011.3 580.5,994.2 
				588.9,994.2 588.8,985.3 578.9,985 578.9,921.6 			"/>
			<g>
				<path class="st1" d="M518.1,1016c0,0.5-45.7,1-102.1,1c-56.4,0-102.1-0.4-102.1-1c0-0.5,45.7-1,102.1-1
					C472.4,1015,518.1,1015.4,518.1,1016z"/>
			</g>
			<g>
				<path class="st1" d="M518.1,1007.2c0,0.5-45.7,1-102.1,1c-56.4,0-102.1-0.4-102.1-1c0-0.5,45.7-1,102.1-1
					C472.4,1006.3,518.1,1006.7,518.1,1007.2z"/>
			</g>
			<g>
				<path class="st1" d="M531.3,983.6c0,0.5-45.7,1-102.1,1c-56.4,0-102.1-0.4-102.1-1c0-0.5,45.7-1,102.1-1
					C485.5,982.7,531.3,983.1,531.3,983.6z"/>
			</g>
			<g>
				<path class="st1" d="M532.5,1047.9c0,0.5-45.7,1-102.1,1c-56.4,0-102.1-0.4-102.1-1c0-0.5,45.7-1,102.1-1
					C486.8,1046.9,532.5,1047.3,532.5,1047.9z"/>
			</g>
		</g>
		<g>
			<rect x="317.5" y="1246.5" class="st10" width="246.8" height="19.1"/>
			<rect x="496.6" y="1246.5" class="st1" width="67.8" height="19.1"/>
		</g>
	</g>
	<g>
		<g>
			<g>
				<path class="st5" d="M249,1229.7c20.9,7.3,48.2,0.8,66.1-12.3c17.9-13.1,30.8-31.8,42.2-50.8c4.9-8.1,9.6-16.6,11.2-25.9
					c1.5-9.3-0.7-19.8-8-25.9c-11.3-9.5-28.5-4.7-41.3,2.6C279.3,1140.1,252,1183.7,249,1229.7"/>
			</g>
			<g>
				<path class="st5" d="M271.5,1279.8c12.6,16.6,34.2,24,55,24.9c20.8,1,41.3-4.8,60.8-12.2c7-2.7,14.8-6.4,17.2-13.6
					c1.8-5.4-0.1-11.6-3.7-16c-3.6-4.4-8.8-7.3-14-9.6c-19.1-8.1-41-8.5-61.2-3.3C305.4,1255.2,287.8,1266.9,271.5,1279.8"/>
			</g>
			<g>
				<path class="st5" d="M248.7,1140c17.3,0.3,30.4-14.8,38.3-30.3c10.9-21.4,14.5-46.4,10.3-70c-1.6-8.9-4.9-18.4-12.9-22.7
					c-8.1-4.3-18.5-1.5-25.3,4.7c-6.8,6.2-10.4,15-13.1,23.7C236.7,1075.5,238.7,1110.1,248.7,1140"/>
			</g>
			<g>
				<path class="st5" d="M191.8,1235.8c29.5-50.3,34.5-111.8,17-167.5c-2.8-9-8.2-19.4-17.6-20c-10.5-0.7-17,11-19.9,21.1
					c-10.1,35.3-8,72.9-5.7,109.6C166.9,1201.6,174.7,1221,191.8,1235.8"/>
			</g>
			<g>
				<path class="st5" d="M161.1,1256.5c-10.7-34.4-37.9-63.3-71.7-76c-7.8-3-17.8-4.6-23.7,1.4c-5.7,5.9-4,15.7-0.3,23.1
					c5.9,11.9,15.6,21.4,25.2,30.6c8.8,8.3,17.8,16.7,28.9,21.5S150.9,1263.1,161.1,1256.5"/>
			</g>
			<g>
				<g>
					<path class="st3" d="M344.2,1127.3c0,0-0.2,0.2-0.5,0.5c-0.4,0.3-0.9,0.7-1.6,1.2c-1.5,1.1-3.6,2.7-6.2,4.6
						c-1.4,1-2.9,2.1-4.5,3.3c-1.6,1.2-3.3,2.7-5.2,4.2c-3.7,3.1-8,6.3-12.3,10.5c-2.2,2-4.5,4.1-7,6.3c-2.4,2.2-4.7,4.7-7.2,7.2
						c-5.1,4.9-10,10.6-15.3,16.5c-10.3,12.1-20.8,26-30.5,41.5c-9.6,15.6-17.3,31.3-23.5,45.8c-2.9,7.4-5.8,14.3-7.9,21.1
						c-1.1,3.3-2.3,6.5-3.2,9.7c-0.9,3.1-1.7,6.2-2.5,9.1c-1.8,5.7-2.8,11.1-3.9,15.7c-0.5,2.3-1.1,4.5-1.4,6.5
						c-0.3,2-0.7,3.8-1,5.5c-0.6,3.2-1,5.8-1.4,7.6c-0.2,0.8-0.3,1.5-0.4,2c-0.1,0.4-0.2,0.7-0.2,0.7c0,0,0-0.2,0-0.7
						c0.1-0.5,0.2-1.2,0.3-2c0.3-1.9,0.6-4.4,1.1-7.7c0.3-1.7,0.5-3.5,0.8-5.5c0.4-2,0.9-4.2,1.3-6.5c1-4.7,2-10,3.7-15.8
						c0.8-2.9,1.6-5.9,2.5-9.1c0.9-3.2,2.1-6.4,3.1-9.7c2.1-6.8,4.9-13.8,7.8-21.2c6.2-14.7,13.9-30.4,23.5-46.1
						c9.7-15.6,20.3-29.6,30.7-41.6c5.3-5.9,10.3-11.6,15.5-16.5c2.5-2.5,4.9-5,7.3-7.2c2.4-2.2,4.8-4.3,7-6.3
						c4.4-4.1,8.8-7.3,12.5-10.4c1.9-1.5,3.6-2.9,5.2-4.1c1.7-1.2,3.2-2.3,4.6-3.2c2.7-1.9,4.8-3.3,6.4-4.4c0.7-0.5,1.2-0.8,1.7-1.1
						C344,1127.4,344.2,1127.3,344.2,1127.3z"/>
				</g>
			</g>
			<g>
				<g>
					<path class="st3" d="M383.4,1266.7c0,0-0.7-0.1-2-0.3c-1.3-0.2-3.2-0.7-5.8-1.2c-5-1-12.3-2.1-21.4-2.6
						c-18.1-1.2-43.8,1-69.5,11.7c-25.7,10.7-45.3,27.4-57.3,41c-6,6.8-10.4,12.8-13.2,17c-1.5,2.1-2.5,3.8-3.2,4.9
						c-0.7,1.1-1.1,1.7-1.2,1.7c0,0,0.3-0.7,0.9-1.8c0.7-1.2,1.6-2.9,3-5.1c2.7-4.3,7-10.4,12.9-17.4c11.8-13.9,31.5-30.9,57.5-41.7
						c26-10.8,51.9-12.8,70.1-11.4c9.1,0.7,16.5,1.9,21.4,3.1c2.5,0.5,4.4,1.1,5.7,1.4C382.7,1266.5,383.4,1266.7,383.4,1266.7z"/>
				</g>
			</g>
			<g>
				<g>
					<path class="st3" d="M274.3,1037.1c0,0,0,0.3-0.1,0.8c-0.1,0.6-0.3,1.3-0.5,2.3c-0.5,2.1-1.1,5-1.9,8.7
						c-1.7,7.5-4.3,18.4-7.6,31.7c-6.5,26.8-16,63.6-25.8,104.5c-4.9,20.4-9.3,40-13.1,57.8c-3.7,17.8-6.9,33.9-9.3,47.5
						c-1.3,6.8-2.2,12.9-3.1,18.3c-0.9,5.4-1.6,10-2.2,13.9c-0.6,3.7-1,6.7-1.4,8.8c-0.2,0.9-0.3,1.7-0.4,2.3
						c-0.1,0.5-0.2,0.8-0.2,0.8c0,0,0-0.3,0-0.8c0.1-0.6,0.1-1.3,0.3-2.3c0.3-2.1,0.6-5.1,1.1-8.8c0.5-3.8,1.1-8.5,2-13.9
						c0.8-5.4,1.7-11.6,2.9-18.4c2.3-13.6,5.4-29.7,9-47.5c3.8-17.8,8.2-37.4,13-57.8c9.9-40.9,19.5-77.7,26.2-104.4
						c3.4-13.3,6.1-24.1,8-31.6c0.9-3.7,1.7-6.5,2.2-8.6c0.2-0.9,0.4-1.6,0.6-2.2C274.1,1037.4,274.2,1037.1,274.3,1037.1z"/>
				</g>
			</g>
			<g>
				<g>
					<path class="st3" d="M206.4,1330.2c0,0-0.1-0.2-0.2-0.6c-0.1-0.5-0.2-1.1-0.4-1.8c-0.4-1.7-0.8-4.1-1.5-7
						c-1.3-6.1-2.9-14.9-4.8-25.9c-3.8-21.9-8.3-52.3-11-86c-1.3-16.9-2.1-33-2.4-47.7c-0.2-14.7-0.1-27.9,0.3-39
						c0.1-5.6,0.5-10.6,0.7-15c0.2-4.4,0.5-8.2,0.8-11.3c0.3-3,0.5-5.4,0.7-7.1c0.1-0.7,0.2-1.3,0.2-1.8c0.1-0.4,0.1-0.6,0.1-0.6
						c0,0,0,0.2,0,0.6c0,0.5,0,1.1-0.1,1.9c-0.1,1.7-0.2,4.1-0.4,7.1c-0.2,3.1-0.4,6.9-0.6,11.3c-0.2,4.4-0.5,9.4-0.5,15
						c-0.3,11.1-0.4,24.3,0,39c0.4,14.7,1.2,30.8,2.5,47.6c2.8,33.7,7.1,64.1,10.6,86c1.8,11,3.3,19.8,4.4,25.9c0.5,3,0.9,5.3,1.2,7
						c0.1,0.7,0.2,1.3,0.3,1.8C206.4,1329.9,206.4,1330.1,206.4,1330.2z"/>
				</g>
			</g>
			<g>
				<g>
					<path class="st3" d="M208.6,1336.5c0,0-0.3-0.6-0.8-1.7c-0.5-1.3-1.1-3-1.9-5.1c-0.4-1.1-0.9-2.3-1.4-3.7
						c-0.6-1.3-1.2-2.7-1.9-4.2c-0.7-1.5-1.4-3.2-2.2-4.9c-0.8-1.7-1.8-3.5-2.7-5.4c-1-1.9-2-3.8-3-5.9c-1.2-2-2.4-4-3.6-6.2
						c-2.4-4.3-5.4-8.6-8.4-13.3c-6.3-9.1-13.8-18.8-22.3-28.4c-8.6-9.6-17.3-18.1-25.5-25.6c-4.2-3.6-8.1-7.2-12.1-10.2
						c-1.9-1.5-3.8-3-5.6-4.5c-1.8-1.4-3.6-2.7-5.3-3.9c-3.3-2.5-6.5-4.7-9.3-6.5c-2.7-1.9-5.1-3.5-7.2-4.7
						c-1.9-1.2-3.4-2.2-4.6-2.9c-1-0.7-1.6-1.1-1.6-1.1c0,0,0.6,0.3,1.7,0.9c1.2,0.7,2.8,1.6,4.7,2.7c2.1,1.1,4.5,2.7,7.3,4.5
						c2.8,1.8,6,3.9,9.4,6.4c1.7,1.2,3.5,2.5,5.4,3.9c1.8,1.4,3.7,2.9,5.7,4.4c4,3,7.9,6.5,12.2,10.1c8.3,7.4,17.1,16,25.7,25.6
						c8.5,9.7,16,19.4,22.3,28.6c2.9,4.7,6,9.1,8.3,13.5c1.2,2.2,2.4,4.2,3.5,6.2c1,2.1,2,4,3,5.9c0.9,1.9,1.9,3.7,2.6,5.4
						c0.7,1.7,1.4,3.4,2.1,5c0.6,1.5,1.2,3,1.8,4.3c0.5,1.3,0.9,2.6,1.3,3.7c0.7,2.1,1.3,3.8,1.7,5.2
						C208.5,1335.9,208.6,1336.5,208.6,1336.5z"/>
				</g>
			</g>
			<g>
				<g>
					<path class="st3" d="M333.3,1185.6c0,0.2-3.6,0.2-9.3,0.5c-5.7,0.3-13.7,1.1-22.3,2.7c-8.6,1.6-16.3,3.9-21.7,5.7
						c-5.5,1.8-8.8,3.1-8.9,2.9c0-0.1,0.8-0.5,2.2-1.2c1.5-0.7,3.6-1.6,6.3-2.6c5.4-2.1,13.1-4.4,21.8-6.1
						c8.7-1.6,16.7-2.2,22.5-2.3c2.9,0,5.2,0,6.9,0.1C332.4,1185.4,333.3,1185.6,333.3,1185.6z"/>
				</g>
			</g>
			<g>
				<g>
					<path class="st3" d="M355.6,1294.5c-0.4,0.2-3.8-9.4-12.2-18.3c-8.3-9-17.6-13.1-17.4-13.5c0.1-0.1,2.5,0.7,6,2.7
						c3.5,2,8.2,5.3,12.4,9.9c4.2,4.6,7.2,9.4,8.9,13.1C355.1,1292,355.7,1294.5,355.6,1294.5z"/>
				</g>
			</g>
			<g>
				<g>
					<path class="st3" d="M279.6,1077.9c0.3,0.3-5.2,5.7-11.1,13c-6,7.3-10.2,13.7-10.5,13.5c-0.3-0.2,3.4-7,9.4-14.4
						C273.4,1082.7,279.3,1077.7,279.6,1077.9z"/>
				</g>
			</g>
			<g>
				<g>
					<path class="st3" d="M261.7,1047.1c0.4-0.1,1.6,5.2,2.7,11.7c1.1,6.5,1.7,11.8,1.3,11.9c-0.4,0.1-1.6-5.2-2.7-11.7
						C261.9,1052.5,261.3,1047.2,261.7,1047.1z"/>
				</g>
			</g>
			<g>
				<g>
					<path class="st3" d="M206.4,1143.8c0.3,0.2-3.5,8.3-8.6,18.2c-5.1,9.9-9.5,17.7-9.9,17.6c-0.3-0.2,3.5-8.3,8.6-18.2
						C201.7,1151.5,206.1,1143.7,206.4,1143.8z"/>
				</g>
			</g>
			<g>
				<g>
					<path class="st3" d="M173.5,1111c0.3-0.2,3.6,5.7,7.3,13.2c3.7,7.4,6.4,13.6,6.1,13.8c-0.3,0.2-3.6-5.7-7.3-13.2
						C175.9,1117.3,173.2,1111.2,173.5,1111z"/>
				</g>
			</g>
			<g>
				<g>
					<path class="st3" d="M125.2,1223.3c-0.1,0.4-6-0.7-13.3-1.2c-7.3-0.5-13.3-0.2-13.3-0.6c0-0.4,6-1.3,13.4-0.7
						C119.5,1221.2,125.3,1223,125.2,1223.3z"/>
				</g>
			</g>
		</g>
		<g>
			<g>
				<path class="st3" d="M158.2,1322.6l16.4,86.5c1.1,5.7,6.1,9.9,11.9,9.9h48.6c5.9,0,11-4.3,12-10.1l14.3-86.2H158.2z"/>
			</g>
			<g>
				<polygon class="st4" points="163.6,1350.7 256.5,1350.7 261.4,1322.6 158.2,1322.6 				"/>
			</g>
			<g>
				<polygon class="st8" points="163.6,1350.7 165.5,1361 255.1,1361 256.5,1350.7 				"/>
			</g>
		</g>
	</g>
</g>
</svg>
