<?xml version="1.0" encoding="utf-8"?>
<!-- Generator: Adobe Illustrator 26.0.3, SVG Export Plug-In . SVG Version: 6.00 Build 0)  -->
<svg version="1.1" id="Camada_1" xmlns="http://www.w3.org/2000/svg" xmlns:xlink="http://www.w3.org/1999/xlink" x="0px" y="0px"
	 viewBox="0 0 1920 1920" style="enable-background:new 0 0 1920 1920;" xml:space="preserve">
<style type="text/css">
	.st0{fill:#ECECEC;}
	.st1{fill:#E1E0E0;}
	.st2{fill:#F5F5F5;}
	.st3{fill:#FFFFFF;}
	.st4{fill:#192E35;}
	.st5{fill:#385A65;}
	.st6{fill:#EA505E;}
	.st7{opacity:0.6;enable-background:new    ;}
	.st8{opacity:0.3;enable-background:new    ;}
	.st9{fill:#FBFBFB;}
	.st10{opacity:0.5;fill:#FFFFFF;enable-background:new    ;}
	.st11{fill:#E1E1E1;}
</style>
<g>
	<g>
		<g>
			<rect x="334.2" y="1088.9" class="st0" width="246.8" height="19.1"/>
			<rect x="513.2" y="1088.9" class="st1" width="67.8" height="19.1"/>
		</g>
		<path class="st2" d="M302.9,1108.1c0,1.6,0,86.2,0,86.2h-13.5v9.4h13.5v57.7h252.7v-52.5h-18.7v-11.4h18.7v-17.2h8.3v-7.8H554
			v-64.4L302.9,1108.1L302.9,1108.1z"/>
		<polygon class="st1" points="488.5,1108.3 488.5,1260.4 555.7,1260.4 555.7,1207.9 536.9,1207.9 536.9,1197.4 555.7,1197.4 
			555.7,1180.3 564,1180.3 564,1171.5 554.1,1171.5 554.1,1108.1 		"/>
		<g>
			<path class="st1" d="M493.2,1202.4c0,0.5-45.7,1-102.1,1s-102.1-0.4-102.1-1c0-0.5,45.7-1,102.1-1
				C447.5,1201.5,493.2,1201.9,493.2,1202.4z"/>
		</g>
		<g>
			<path class="st1" d="M493.2,1193.7c0,0.5-45.7,1-102.1,1s-102.1-0.4-102.1-1c0-0.5,45.7-1,102.1-1S493.2,1193.1,493.2,1193.7z"/>
		</g>
		<g>
			<path class="st1" d="M506.5,1170.1c0,0.5-45.7,1-102.1,1s-102.1-0.4-102.1-1c0-0.5,45.7-1,102.1-1
				C460.7,1169.1,506.5,1169.6,506.5,1170.1z"/>
		</g>
		<g>
			<path class="st1" d="M507.7,1234.3c0,0.5-45.7,1-102.1,1s-102.1-0.4-102.1-1c0-0.5,45.7-1,102.1-1
				C462,1233.4,507.7,1233.8,507.7,1234.3z"/>
		</g>
		<g>
			<path class="st2" d="M331.5,1279.7c0,1.6,0,86.2,0,86.2H318v9.4h13.5v57.7h252.7v-52.5h-18.7V1369h18.7v-17.2h8.3v-7.8h-9.9
				v-64.4L331.5,1279.7L331.5,1279.7z"/>
			<polygon class="st1" points="517.2,1279.9 517.2,1432 584.2,1432 584.2,1379.5 565.6,1379.5 565.6,1369 584.2,1369.4 
				584.2,1352.2 592.8,1352.2 592.7,1343.4 582.8,1343.1 582.8,1279.7 			"/>
			<g>
				<path class="st1" d="M522,1374c0,0.5-45.7,1-102.1,1s-102.1-0.4-102.1-1c0-0.5,45.7-1,102.1-1C476.2,1373.1,522,1373.5,522,1374
					z"/>
			</g>
			<g>
				<path class="st1" d="M522,1365.3c0,0.5-45.7,1-102.1,1s-102.1-0.4-102.1-1c0-0.5,45.7-1,102.1-1
					C476.2,1364.3,522,1364.7,522,1365.3z"/>
			</g>
			<g>
				<path class="st1" d="M535.1,1341.7c0,0.5-45.7,1-102.1,1s-102.1-0.4-102.1-1c0-0.5,45.7-1,102.1-1S535.1,1341.2,535.1,1341.7z"
					/>
			</g>
			<g>
				<path class="st1" d="M536.4,1405.9c0,0.5-45.7,1-102.1,1s-102.1-0.4-102.1-1c0-0.5,45.7-1,102.1-1
					C490.7,1405,536.4,1405.4,536.4,1405.9z"/>
			</g>
		</g>
		<g>
			<path class="st2" d="M327.9,935.6c0,1.6,0,86.2,0,86.2h-13.5v9.4h13.5v57.7h252.7v-52.5h-18.7V1025h18.7v-17.2h8.3v-7.8H579
				v-64.4H327.9z"/>
			<polygon class="st1" points="513.6,935.9 513.6,1088 580.7,1088 580.7,1035.4 561.9,1035.4 561.9,1025 580.7,1025.3 
				580.7,1008.2 589.1,1008.2 589,999.3 579.1,999 579.1,935.6 			"/>
			<g>
				<path class="st1" d="M518.2,1030c0,0.5-45.7,1-102.1,1s-102.1-0.4-102.1-1c0-0.5,45.7-1,102.1-1S518.2,1029.4,518.2,1030z"/>
			</g>
			<g>
				<path class="st1" d="M518.2,1021.2c0,0.5-45.7,1-102.1,1s-102.1-0.4-102.1-1c0-0.5,45.7-1,102.1-1
					C472.5,1020.3,518.2,1020.7,518.2,1021.2z"/>
			</g>
			<g>
				<path class="st1" d="M531.5,997.6c0,0.5-45.7,1-102.1,1s-102.1-0.4-102.1-1c0-0.5,45.7-1,102.1-1
					C485.7,996.7,531.5,997.1,531.5,997.6z"/>
			</g>
			<g>
				<path class="st1" d="M532.7,1061.9c0,0.5-45.7,1-102.1,1s-102.1-0.4-102.1-1c0-0.5,45.7-1,102.1-1S532.7,1061.3,532.7,1061.9z"
					/>
			</g>
		</g>
		<g>
			<rect x="317.7" y="1260.5" class="st0" width="246.8" height="19.1"/>
			<rect x="496.8" y="1260.5" class="st1" width="67.8" height="19.1"/>
		</g>
	</g>
	<g>
		<g>
			<g>
				<g>
					<g>
						<g>
							<g>
								<polygon class="st2" points="1418.9,1762.3 1418.9,1874.1 1582.3,1874.1 1762.6,1874.1 1762.6,1762.3 								"/>
							</g>
						</g>
					</g>
				</g>
			</g>
			<g>
				<g>
					<g>
						<g>
							<g>
								<polygon class="st1" points="1404.5,1731.1 1404.5,1762.3 1774.6,1762.3 1774.6,1731.1 1582.3,1731.1 								"/>
							</g>
						</g>
					</g>
				</g>
			</g>
			<g>
				<g>
					<g>
						<g>
							<g>
								<polygon class="st1" points="1589.5,1874.1 1762.6,1874.1 1762.6,1762.3 1774.6,1762.3 1774.6,1731.1 1582.3,1731.1 
									1582.3,1759.4 								"/>
							</g>
						</g>
					</g>
				</g>
			</g>
			<g>
				<g>
					<g>
						<g>
							<g>
								<rect x="1467" y="1780.3" class="st1" width="69.7" height="16.8"/>
							</g>
						</g>
					</g>
				</g>
			</g>
			<g>
				<g>
					<g>
						<g>
							<g>
								<rect x="1458" y="1818.2" class="st3" width="89.5" height="35.5"/>
							</g>
						</g>
					</g>
				</g>
			</g>
		</g>
	</g>
	<g>
		<g>
			<g>
				<g>
					<g>
						<g>
							<g>
								<polygon class="st2" points="1441.3,1599.3 1441.3,1730.3 1632.8,1730.3 1843.9,1730.3 1843.9,1599.3 								"/>
							</g>
						</g>
					</g>
				</g>
			</g>
			<g>
				<g>
					<g>
						<g>
							<g>
								<polygon class="st1" points="1424.4,1562.7 1424.4,1599.3 1858,1599.3 1858,1562.7 1632.8,1562.7 								"/>
							</g>
						</g>
					</g>
				</g>
			</g>
			<g>
				<g>
					<g>
						<g>
							<g>
								<polygon class="st1" points="1641.2,1730.3 1843.9,1730.3 1843.9,1599.3 1858,1599.3 1858,1562.7 1632.8,1562.7 
									1632.8,1595.9 								"/>
							</g>
						</g>
					</g>
				</g>
			</g>
			<g>
				<g>
					<g>
						<g>
							<g>
								<rect x="1497.6" y="1620.4" class="st1" width="81.7" height="19.7"/>
							</g>
						</g>
					</g>
				</g>
			</g>
			<g>
				<g>
					<g>
						<g>
							<g>
								<rect x="1487.1" y="1664.8" class="st3" width="104.8" height="41.6"/>
							</g>
						</g>
					</g>
				</g>
			</g>
		</g>
	</g>
	<g>
		<g>
			<polygon class="st2" points="596.9,498.4 596.9,526.6 607.5,531.2 593.7,531.2 591.1,549 840.9,575.9 865.8,536.7 			"/>
			<polygon class="st4" points="558.3,558.3 561.5,541.8 592.4,545.4 737,562.4 731.6,580.3 			"/>
			<path class="st5" d="M835.7,591.7L695,576.3l0,0c6.8-21.7,28.1-35.5,50.7-32.8l110.9,13.3L835.7,591.7z"/>
		</g>
		<path class="st6" d="M1025,557.3l0.2,95.1L536,653.7l0,0c-0.1-24.9,20.1-45.1,44.9-45.2l220.1-0.6l56.4-77.4l141.4,0.7
			C1013.3,531.3,1024.9,543,1025,557.3z"/>
		<g>
			<path class="st4" d="M1023.3,634c0,0.4-108.2,0.8-241.6,0.8s-241.6-0.4-241.6-0.8c0-0.4,108.1-0.8,241.6-0.8
				C915.1,633.2,1023.3,633.5,1023.3,634z"/>
		</g>
		<polygon class="st2" points="1493.8,707.7 1302.2,815.1 1302.2,790.6 1485.5,694.7 		"/>
		<polygon class="st4" points="1302.2,815.1 1452.9,730.5 1465.5,748.4 1372.4,803.7 1371.8,827.7 1302.2,865.5 		"/>
		<polygon class="st4" points="1302.2,1048.1 1452.9,963.5 1465.5,981.5 1372.4,1036.7 1371.8,1060.8 1302.2,1098.6 		"/>
		<path class="st6" d="M903.3,979.8h398.9v-240c0-5.1-4.1-9.3-9.3-9.3H903.3V979.8z"/>
		<rect x="903.4" y="989" class="st6" width="398.9" height="291.8"/>
		<polygon class="st4" points="1304.4,1225.6 1473.8,1225.6 1473.8,1241.1 1302.1,1259.5 		"/>
		<path class="st4" d="M1328.8,1286.5L1328.8,1286.5c8.1,0,14.6-6.6,14.6-14.6v-14.6c0-8.1-6.6-14.6-14.6-14.6l0,0
			c-8.1,0-14.6,6.6-14.6,14.6v14.6C1314.2,1279.9,1320.8,1286.5,1328.8,1286.5z"/>
		<polygon class="st4" points="1455.4,1234.8 1455.4,1184.3 1432.5,1184.3 1432.5,1238.3 		"/>
		<rect x="903.4" y="1291.1" class="st6" width="398.8" height="92.9"/>
		<path class="st7" d="M903.3,979.8h398.9v-240c0-5.1-4.1-9.3-9.3-9.3H903.3V979.8z"/>
		<rect x="903.4" y="989" class="st7" width="398.9" height="291.8"/>
		<rect x="903.4" y="1291.1" class="st7" width="398.8" height="92.9"/>
		<rect x="903.4" y="1384.1" class="st6" width="398.8" height="37.6"/>
		<rect x="565.2" y="694.5" class="st6" width="427.9" height="691.7"/>
		<rect x="565.2" y="694.5" class="st8" width="427.9" height="691.7"/>
		<rect x="542.7" y="684.8" class="st6" width="165.7" height="194.1"/>
		<path class="st6" d="M1025.2,651.9V689c0,8.6-7,15.6-15.6,15.6H807.8H542.7v-52.7L1025.2,651.9L1025.2,651.9z"/>
		<path class="st4" d="M807.8,766.7V651.9H542.7v94.3c0,11.3,9.2,20.5,20.5,20.5H807.8"/>
		<rect x="648.6" y="667.5" class="st5" width="140.7" height="73.2"/>
		<rect x="617.7" y="667.4" class="st5" width="7.9" height="7.9"/>
		<rect x="602.3" y="667.4" class="st5" width="7.9" height="7.9"/>
		<rect x="587.1" y="667.4" class="st5" width="7.9" height="7.9"/>
		<rect x="555.4" y="667.4" class="st2" width="21.3" height="7.9"/>
		<rect x="555.4" y="681" class="st2" width="21.3" height="7.9"/>
		<rect x="555.4" y="694.5" class="st2" width="21.3" height="7.9"/>
		<rect x="555.4" y="709.1" class="st2" width="21.3" height="7.9"/>
		<rect x="587.1" y="681.2" class="st5" width="7.9" height="7.9"/>
		<rect x="617.7" y="681.6" class="st5" width="7.9" height="7.9"/>
		<rect x="617.7" y="694.7" class="st5" width="7.9" height="7.9"/>
		<rect x="601.8" y="681.6" class="st5" width="7.9" height="7.9"/>
		<rect x="601.8" y="694.7" class="st5" width="7.9" height="7.9"/>
		<rect x="586.5" y="694.7" class="st5" width="7.9" height="7.9"/>
		<path class="st6" d="M578.3,733.7c0,7.6,6.2,13.7,13.7,13.7c7.6,0,13.7-6.1,13.7-13.7c0-7.6-6.1-13.7-13.7-13.7
			C584.5,719.9,578.3,726.1,578.3,733.7z"/>
		<path class="st5" d="M611,733.7c0,4.5,3.6,8.1,8.1,8.1s8.1-3.6,8.1-8.1s-3.6-8.1-8.1-8.1C614.6,725.6,611,729.2,611,733.7z"/>
		<path class="st5" d="M557.1,733.8c0,4.5,3.6,8.1,8.1,8.1s8.1-3.6,8.1-8.1s-3.6-8.1-8.1-8.1C560.7,725.7,557.1,729.3,557.1,733.8z"
			/>
		<path class="st6" d="M542.7,1096.4h482V887.5c0-4.7-3.8-8.6-8.6-8.6H542.7V1096.4z"/>
		<path class="st6" d="M542.7,1179.9h482v-72.8c0-3.4-2.7-6.1-6.1-6.1H547c-2.4,0-4.3,1.9-4.3,4.3V1179.9z"/>
		<path class="st8" d="M710.4,1137.5H859c1.6,0,2.8-1.3,2.8-2.8V1101H707.6v33.7C707.6,1136.3,708.8,1137.5,710.4,1137.5z"/>
		<path class="st6" d="M542.7,1342.5h482v-152.4c0-3.9-3.2-7.1-7.1-7.1H549.8c-3.9,0-7.1,3.2-7.1,7.1V1342.5z"/>
		<path class="st8" d="M710.4,1219.6H859c1.6,0,2.8-1.3,2.8-2.8V1183H707.6v33.7C707.6,1218.3,708.8,1219.6,710.4,1219.6z"/>
		<rect x="542.7" y="1350.6" class="st6" width="482" height="71"/>
		<rect x="708.3" y="826.1" class="st4" width="189.2" height="11.9"/>
		<rect x="708.3" y="782" class="st2" width="254.6" height="44.2"/>
		<g>
			<path class="st9" d="M709.1,677c0,0.5,15.7,0.8,35.1,0.8c19.4,0,35.1-0.4,35.1-0.8c0-0.5-15.7-0.8-35.1-0.8
				S709.1,676.5,709.1,677z"/>
		</g>
		<g>
			<path class="st9" d="M749.6,688.3c0,0.5,6.7,0.8,14.9,0.8s14.9-0.4,14.9-0.8c0-0.5-6.7-0.8-14.9-0.8
				C756.2,687.5,749.6,687.9,749.6,688.3z"/>
		</g>
		<g>
			<path class="st9" d="M749.6,700.3c0,0.5,6.7,0.8,14.9,0.8s14.9-0.4,14.9-0.8c0-0.5-6.7-0.8-14.9-0.8
				C756.2,699.5,749.6,699.8,749.6,700.3z"/>
		</g>
		<g>
			<path class="st9" d="M748.7,719.9c0,0.5,6.7,0.8,14.9,0.8s14.9-0.4,14.9-0.8c0-0.5-6.7-0.8-14.9-0.8
				C755.3,719.1,748.7,719.5,748.7,719.9z"/>
		</g>
		<g>
			<path class="st9" d="M667.2,719.9c0,0.5,6.7,0.8,14.9,0.8s14.9-0.4,14.9-0.8c0-0.5-6.7-0.8-14.9-0.8
				C673.9,719.1,667.2,719.5,667.2,719.9z"/>
		</g>
		<rect x="542.7" y="1350.6" class="st10" width="482" height="71"/>
		<g>
			<path class="st4" d="M543,1075.3c0,0.5,107.7,0.8,240.5,0.8c132.9,0,240.6-0.4,240.6-0.8c0-0.5-107.7-0.8-240.6-0.8
				C650.7,1074.5,543,1074.8,543,1075.3z"/>
		</g>
		<g>
			<path class="st4" d="M543,1057.6c0,0.5,107.7,0.8,240.5,0.8c132.9,0,240.6-0.4,240.6-0.8c0-0.5-107.7-0.8-240.6-0.8
				C650.7,1056.8,543,1057.2,543,1057.6z"/>
		</g>
		<g>
			<path class="st4" d="M543,1039.9c0,0.5,107.7,0.8,240.5,0.8c132.9,0,240.6-0.4,240.6-0.8c0-0.5-107.7-0.8-240.6-0.8
				C650.7,1039.1,543,1039.5,543,1039.9z"/>
		</g>
		<g>
			<path class="st4" d="M543,1022.3c0,0.5,107.7,0.8,240.5,0.8c132.9,0,240.6-0.4,240.6-0.8c0-0.5-107.7-0.8-240.6-0.8
				C650.7,1021.4,543,1021.8,543,1022.3z"/>
		</g>
		<g>
			<path class="st4" d="M542.2,1179.8c0,0.5,108.2,0.8,241.6,0.8c133.5,0,241.7-0.4,241.7-0.8c0-0.5-108.2-0.8-241.7-0.8
				C650.4,1179,542.2,1179.4,542.2,1179.8z"/>
		</g>
		<g>
			<path class="st4" d="M542.2,1342.5c0,0.5,108.2,0.8,241.6,0.8c133.5,0,241.7-0.4,241.7-0.8c0-0.5-108.2-0.8-241.7-0.8
				C650.4,1341.7,542.2,1342.1,542.2,1342.5z"/>
		</g>
		<g>
			<path class="st4" d="M707.6,1101c-0.1,0-0.1,0.7-0.2,2.1c-0.1,1.6-0.2,3.6-0.4,6.1c-0.2,2.7-0.4,6-0.1,9.8
				c0.4,3.8,1.6,8.3,4.7,12.1c1.6,1.9,3.7,3.5,6.2,4.5s5.2,1.6,8,2.1c5.6,1.1,11.6,1.5,18,1.7c12.7,0.1,26.5-0.2,41.1-0.4
				c14.6-0.2,28.4-0.4,41.1-0.6c6.3-0.2,12.3-0.1,18-0.4c2.8-0.2,5.6-0.7,8.1-1.8c2.5-1.1,4.6-2.8,6.1-4.7c3.1-3.9,4.1-8.4,4.4-12.2
				c0.2-3.8,0.1-7.1,0-9.8c-0.1-2.7-0.3-4.7-0.4-6.1c-0.1-1.4-0.2-2.1-0.3-2.1s-0.1,0.7,0,2.1c0,1.6,0.1,3.6,0.1,6.1
				c0,2.7,0.1,5.9-0.2,9.7c-0.3,3.7-1.5,8-4.4,11.6c-1.4,1.8-3.4,3.3-5.7,4.3s-5,1.4-7.7,1.6c-5.5,0.3-11.6,0.2-17.9,0.3
				c-12.7,0.2-26.5,0.3-41.1,0.5c-14.6,0.1-28.5,0.5-41.1,0.5c-6.3-0.1-12.2-0.5-17.7-1.5c-2.7-0.5-5.4-1-7.7-2
				c-2.4-0.9-4.3-2.4-5.8-4.1c-3-3.5-4.3-7.8-4.7-11.5s-0.3-7-0.2-9.7s0.1-4.7,0.1-6.2C707.7,1101.7,707.6,1101,707.6,1101z"/>
		</g>
		<g>
			<path class="st4" d="M707.6,1181.6c-0.1,0-0.1,0.7-0.2,2.1c-0.1,1.6-0.2,3.6-0.4,6.1c-0.2,2.7-0.4,6-0.1,9.8
				c0.4,3.8,1.6,8.3,4.7,12.1c1.6,1.9,3.7,3.5,6.2,4.5s5.2,1.6,8,2.1c5.6,1.1,11.6,1.5,18,1.7c12.7,0.1,26.5-0.2,41.1-0.4
				c14.6-0.2,28.4-0.4,41.1-0.6c6.3-0.2,12.3-0.1,18-0.4c2.8-0.2,5.6-0.7,8.1-1.8c2.5-1.1,4.6-2.8,6.1-4.7c3.1-3.9,4.1-8.4,4.4-12.2
				c0.2-3.8,0.1-7.1,0-9.8c-0.1-2.7-0.3-4.7-0.4-6.1c-0.1-1.4-0.2-2.1-0.3-2.1s-0.1,0.7,0,2.1c0,1.6,0.1,3.6,0.1,6.1
				c0,2.7,0.1,5.9-0.2,9.7c-0.3,3.7-1.5,8-4.4,11.6c-1.4,1.8-3.4,3.3-5.7,4.3s-5,1.4-7.7,1.6c-5.5,0.3-11.6,0.2-17.9,0.3
				c-12.7,0.2-26.5,0.3-41.1,0.5c-14.6,0.1-28.5,0.5-41.1,0.5c-6.3-0.1-12.2-0.5-17.7-1.5c-2.7-0.5-5.4-1-7.7-2
				c-2.4-0.9-4.3-2.4-5.8-4.1c-3-3.5-4.3-7.8-4.7-11.5s-0.3-7-0.2-9.7s0.1-4.7,0.1-6.2C707.7,1182.3,707.6,1181.6,707.6,1181.6z"/>
		</g>
	</g>
	<g>
		<g>
			<g>
				<path class="st6" d="M249,1698.4c20.9,7.3,48.2,0.8,66.1-12.3c17.9-13.1,30.8-31.8,42.2-50.8c4.9-8.1,9.6-16.6,11.2-25.9
					c1.5-9.3-0.7-19.8-8-25.9c-11.3-9.5-28.5-4.7-41.3,2.6C279.3,1608.8,252,1652.4,249,1698.4"/>
			</g>
			<g>
				<path class="st6" d="M271.5,1748.5c12.6,16.6,34.2,24,55,24.9c20.8,1,41.3-4.8,60.8-12.2c7-2.7,14.8-6.4,17.2-13.6
					c1.8-5.4-0.1-11.6-3.7-16s-8.8-7.3-14-9.6c-19.1-8.1-41-8.5-61.2-3.3C305.4,1723.9,287.8,1735.6,271.5,1748.5"/>
			</g>
			<g>
				<path class="st6" d="M248.7,1608.7c17.3,0.3,30.4-14.8,38.3-30.3c10.9-21.4,14.5-46.4,10.3-70c-1.6-8.9-4.9-18.4-12.9-22.7
					c-8.1-4.3-18.5-1.5-25.3,4.7c-6.8,6.2-10.4,15-13.1,23.7C236.7,1544.2,238.7,1578.8,248.7,1608.7"/>
			</g>
			<g>
				<path class="st6" d="M191.8,1704.5c29.5-50.3,34.5-111.8,17-167.5c-2.8-9-8.2-19.4-17.6-20c-10.5-0.7-17,11-19.9,21.1
					c-10.1,35.3-8,72.9-5.7,109.6C166.9,1670.3,174.7,1689.7,191.8,1704.5"/>
			</g>
			<g>
				<path class="st6" d="M161.1,1725.2c-10.7-34.4-37.9-63.3-71.7-76c-7.8-3-17.8-4.6-23.7,1.4c-5.7,5.9-4,15.7-0.3,23.1
					c5.9,11.9,15.6,21.4,25.2,30.6c8.8,8.3,17.8,16.7,28.9,21.5S150.9,1731.8,161.1,1725.2"/>
			</g>
			<g>
				<g>
					<path class="st4" d="M344.2,1596c0,0-0.2,0.2-0.5,0.5c-0.4,0.3-0.9,0.7-1.6,1.2c-1.5,1.1-3.6,2.7-6.2,4.6
						c-1.4,1-2.9,2.1-4.5,3.3c-1.6,1.2-3.3,2.7-5.2,4.2c-3.7,3.1-8,6.3-12.3,10.5c-2.2,2-4.5,4.1-7,6.3c-2.4,2.2-4.7,4.7-7.2,7.2
						c-5.1,4.9-10,10.6-15.3,16.5c-10.3,12.1-20.8,26-30.5,41.5c-9.6,15.6-17.3,31.3-23.5,45.8c-2.9,7.4-5.8,14.3-7.9,21.1
						c-1.1,3.3-2.3,6.5-3.2,9.7c-0.9,3.1-1.7,6.2-2.5,9.1c-1.8,5.7-2.8,11.1-3.9,15.7c-0.5,2.3-1.1,4.5-1.4,6.5
						c-0.3,2-0.7,3.8-1,5.5c-0.6,3.2-1,5.8-1.4,7.6c-0.2,0.8-0.3,1.5-0.4,2c-0.1,0.4-0.2,0.7-0.2,0.7s0-0.2,0-0.7
						c0.1-0.5,0.2-1.2,0.3-2c0.3-1.9,0.6-4.4,1.1-7.7c0.3-1.7,0.5-3.5,0.8-5.5c0.4-2,0.9-4.2,1.3-6.5c1-4.7,2-10,3.7-15.8
						c0.8-2.9,1.6-5.9,2.5-9.1s2.1-6.4,3.1-9.7c2.1-6.8,4.9-13.8,7.8-21.2c6.2-14.7,13.9-30.4,23.5-46.1
						c9.7-15.6,20.3-29.6,30.7-41.6c5.3-5.9,10.3-11.6,15.5-16.5c2.5-2.5,4.9-5,7.3-7.2s4.8-4.3,7-6.3c4.4-4.1,8.8-7.3,12.5-10.4
						c1.9-1.5,3.6-2.9,5.2-4.1c1.7-1.2,3.2-2.3,4.6-3.2c2.7-1.9,4.8-3.3,6.4-4.4c0.7-0.5,1.2-0.8,1.7-1.1
						C344,1596.1,344.2,1596,344.2,1596z"/>
				</g>
			</g>
			<g>
				<g>
					<path class="st4" d="M383.4,1735.4c0,0-0.7-0.1-2-0.3c-1.3-0.2-3.2-0.7-5.8-1.2c-5-1-12.3-2.1-21.4-2.6
						c-18.1-1.2-43.8,1-69.5,11.7s-45.3,27.4-57.3,41c-6,6.8-10.4,12.8-13.2,17c-1.5,2.1-2.5,3.8-3.2,4.9s-1.1,1.7-1.2,1.7
						c0,0,0.3-0.7,0.9-1.8c0.7-1.2,1.6-2.9,3-5.1c2.7-4.3,7-10.4,12.9-17.4c11.8-13.9,31.5-30.9,57.5-41.7
						c26-10.8,51.9-12.8,70.1-11.4c9.1,0.7,16.5,1.9,21.4,3.1c2.5,0.5,4.4,1.1,5.7,1.4C382.7,1735.2,383.4,1735.4,383.4,1735.4z"/>
				</g>
			</g>
			<g>
				<g>
					<path class="st4" d="M274.3,1505.8c0,0,0,0.3-0.1,0.8c-0.1,0.6-0.3,1.3-0.5,2.3c-0.5,2.1-1.1,5-1.9,8.7
						c-1.7,7.5-4.3,18.4-7.6,31.7c-6.5,26.8-16,63.6-25.8,104.5c-4.9,20.4-9.3,40-13.1,57.8c-3.7,17.8-6.9,33.9-9.3,47.5
						c-1.3,6.8-2.2,12.9-3.1,18.3c-0.9,5.4-1.6,10-2.2,13.9c-0.6,3.7-1,6.7-1.4,8.8c-0.2,0.9-0.3,1.7-0.4,2.3
						c-0.1,0.5-0.2,0.8-0.2,0.8s0-0.3,0-0.8c0.1-0.6,0.1-1.3,0.3-2.3c0.3-2.1,0.6-5.1,1.1-8.8c0.5-3.8,1.1-8.5,2-13.9
						c0.8-5.4,1.7-11.6,2.9-18.4c2.3-13.6,5.4-29.7,9-47.5c3.8-17.8,8.2-37.4,13-57.8c9.9-40.9,19.5-77.7,26.2-104.4
						c3.4-13.3,6.1-24.1,8-31.6c0.9-3.7,1.7-6.5,2.2-8.6c0.2-0.9,0.4-1.6,0.6-2.2C274.1,1506.1,274.2,1505.8,274.3,1505.8z"/>
				</g>
			</g>
			<g>
				<g>
					<path class="st4" d="M206.4,1798.9c0,0-0.1-0.2-0.2-0.6c-0.1-0.5-0.2-1.1-0.4-1.8c-0.4-1.7-0.8-4.1-1.5-7
						c-1.3-6.1-2.9-14.9-4.8-25.9c-3.8-21.9-8.3-52.3-11-86c-1.3-16.9-2.1-33-2.4-47.7c-0.2-14.7-0.1-27.9,0.3-39
						c0.1-5.6,0.5-10.6,0.7-15s0.5-8.2,0.8-11.3c0.3-3,0.5-5.4,0.7-7.1c0.1-0.7,0.2-1.3,0.2-1.8c0.1-0.4,0.1-0.6,0.1-0.6
						s0,0.2,0,0.6c0,0.5,0,1.1-0.1,1.9c-0.1,1.7-0.2,4.1-0.4,7.1c-0.2,3.1-0.4,6.9-0.6,11.3c-0.2,4.4-0.5,9.4-0.5,15
						c-0.3,11.1-0.4,24.3,0,39s1.2,30.8,2.5,47.6c2.8,33.7,7.1,64.1,10.6,86c1.8,11,3.3,19.8,4.4,25.9c0.5,3,0.9,5.3,1.2,7
						c0.1,0.7,0.2,1.3,0.3,1.8C206.4,1798.6,206.4,1798.8,206.4,1798.9z"/>
				</g>
			</g>
			<g>
				<g>
					<path class="st4" d="M208.6,1805.2c0,0-0.3-0.6-0.8-1.7c-0.5-1.3-1.1-3-1.9-5.1c-0.4-1.1-0.9-2.3-1.4-3.7
						c-0.6-1.3-1.2-2.7-1.9-4.2s-1.4-3.2-2.2-4.9c-0.8-1.7-1.8-3.5-2.7-5.4c-1-1.9-2-3.8-3-5.9c-1.2-2-2.4-4-3.6-6.2
						c-2.4-4.3-5.4-8.6-8.4-13.3c-6.3-9.1-13.8-18.8-22.3-28.4c-8.6-9.6-17.3-18.1-25.5-25.6c-4.2-3.6-8.1-7.2-12.1-10.2
						c-1.9-1.5-3.8-3-5.6-4.5c-1.8-1.4-3.6-2.7-5.3-3.9c-3.3-2.5-6.5-4.7-9.3-6.5c-2.7-1.9-5.1-3.5-7.2-4.7
						c-1.9-1.2-3.4-2.2-4.6-2.9c-1-0.7-1.6-1.1-1.6-1.1s0.6,0.3,1.7,0.9c1.2,0.7,2.8,1.6,4.7,2.7c2.1,1.1,4.5,2.7,7.3,4.5
						s6,3.9,9.4,6.4c1.7,1.2,3.5,2.5,5.4,3.9c1.8,1.4,3.7,2.9,5.7,4.4c4,3,7.9,6.5,12.2,10.1c8.3,7.4,17.1,16,25.7,25.6
						c8.5,9.7,16,19.4,22.3,28.6c2.9,4.7,6,9.1,8.3,13.5c1.2,2.2,2.4,4.2,3.5,6.2c1,2.1,2,4,3,5.9c0.9,1.9,1.9,3.7,2.6,5.4
						c0.7,1.7,1.4,3.4,2.1,5c0.6,1.5,1.2,3,1.8,4.3c0.5,1.3,0.9,2.6,1.3,3.7c0.7,2.1,1.3,3.8,1.7,5.2
						C208.5,1804.6,208.6,1805.2,208.6,1805.2z"/>
				</g>
			</g>
			<g>
				<g>
					<path class="st4" d="M333.3,1654.3c0,0.2-3.6,0.2-9.3,0.5c-5.7,0.3-13.7,1.1-22.3,2.7c-8.6,1.6-16.3,3.9-21.7,5.7
						c-5.5,1.8-8.8,3.1-8.9,2.9c0-0.1,0.8-0.5,2.2-1.2c1.5-0.7,3.6-1.6,6.3-2.6c5.4-2.1,13.1-4.4,21.8-6.1
						c8.7-1.6,16.7-2.2,22.5-2.3c2.9,0,5.2,0,6.9,0.1C332.4,1654.1,333.3,1654.3,333.3,1654.3z"/>
				</g>
			</g>
			<g>
				<g>
					<path class="st4" d="M355.6,1763.2c-0.4,0.2-3.8-9.4-12.2-18.3c-8.3-9-17.6-13.1-17.4-13.5c0.1-0.1,2.5,0.7,6,2.7
						s8.2,5.3,12.4,9.9c4.2,4.6,7.2,9.4,8.9,13.1C355.1,1760.7,355.7,1763.2,355.6,1763.2z"/>
				</g>
			</g>
			<g>
				<g>
					<path class="st4" d="M279.6,1546.6c0.3,0.3-5.2,5.7-11.1,13c-6,7.3-10.2,13.7-10.5,13.5s3.4-7,9.4-14.4
						C273.4,1551.4,279.3,1546.4,279.6,1546.6z"/>
				</g>
			</g>
			<g>
				<g>
					<path class="st4" d="M261.7,1515.8c0.4-0.1,1.6,5.2,2.7,11.7s1.7,11.8,1.3,11.9c-0.4,0.1-1.6-5.2-2.7-11.7
						S261.3,1515.9,261.7,1515.8z"/>
				</g>
			</g>
			<g>
				<g>
					<path class="st4" d="M206.4,1612.5c0.3,0.2-3.5,8.3-8.6,18.2c-5.1,9.9-9.5,17.7-9.9,17.6c-0.3-0.2,3.5-8.3,8.6-18.2
						C201.7,1620.2,206.1,1612.4,206.4,1612.5z"/>
				</g>
			</g>
			<g>
				<g>
					<path class="st4" d="M173.5,1579.7c0.3-0.2,3.6,5.7,7.3,13.2c3.7,7.4,6.4,13.6,6.1,13.8c-0.3,0.2-3.6-5.7-7.3-13.2
						C175.9,1586,173.2,1579.9,173.5,1579.7z"/>
				</g>
			</g>
			<g>
				<g>
					<path class="st4" d="M125.2,1692c-0.1,0.4-6-0.7-13.3-1.2s-13.3-0.2-13.3-0.6s6-1.3,13.4-0.7
						C119.5,1689.9,125.3,1691.7,125.2,1692z"/>
				</g>
			</g>
		</g>
		<g>
			<g>
				<path class="st4" d="M158.2,1791.3l16.4,86.5c1.1,5.7,6.1,9.9,11.9,9.9h48.6c5.9,0,11-4.3,12-10.1l14.3-86.2H158.2V1791.3z"/>
			</g>
			<g>
				<polygon class="st5" points="163.6,1819.4 256.5,1819.4 261.4,1791.3 158.2,1791.3 				"/>
			</g>
			<g>
				<polygon class="st9" points="163.6,1819.4 165.5,1829.7 255.1,1829.7 256.5,1819.4 				"/>
			</g>
		</g>
	</g>
</g>
<path class="st0" d="M1391.2,1328.8l13.9,13.1c0.9,0.8,2.1,1.2,3.3,0.9l18.7-4.1c3-0.6,5.4,2.4,4.1,5.1l-8.1,17.3
	c-0.5,1.1-0.5,2.4,0.1,3.4l9.6,16.5c1.5,2.6-0.6,5.9-3.6,5.5l-18.9-2.4c-1.2-0.2-2.4,0.3-3.2,1.2l-12.7,14.2c-2,2.3-5.8,1.2-6.3-1.8
	l-3.6-18.8c-0.2-1.2-1-2.2-2.1-2.7l-17.5-7.7c-2.8-1.2-2.9-5.1-0.3-6.6l16.7-9.2c1.1-0.6,1.8-1.6,1.9-2.8l1.9-19
	C1385.4,1328.1,1389,1326.7,1391.2,1328.8z"/>
<path class="st0" d="M1690,765.5l2.3,8.7c0.1,0.5,0.5,1,1.1,1.2l8.4,3c1.3,0.5,1.5,2.3,0.3,3.1l-7.5,4.8c-0.5,0.3-0.8,0.8-0.8,1.4
	l-0.3,8.9c0,1.4-1.7,2.2-2.8,1.3l-6.9-5.7c-0.4-0.4-1-0.5-1.6-0.3l-8.6,2.5c-1.4,0.4-2.6-0.9-2.1-2.3l3.2-8.3
	c0.2-0.5,0.1-1.1-0.2-1.6l-5-7.4c-0.8-1.2,0.1-2.8,1.5-2.7l8.9,0.5c0.6,0,1.1-0.2,1.5-0.7l5.5-7.1
	C1687.9,763.8,1689.7,764.2,1690,765.5z"/>
<path class="st2" d="M1460.3,458.3l-2.2,26.8c-0.1,1.7,0.6,3.3,1.9,4.4l20.8,17c3.3,2.7,2.1,8-2.1,9l-26.2,6.2
	c-1.7,0.4-3,1.6-3.6,3.1l-9.8,25.1c-1.6,4-7,4.5-9.2,0.8l-14-23c-0.9-1.5-2.4-2.4-4.1-2.5l-26.9-1.6c-4.3-0.2-6.4-5.3-3.6-8.5
	l17.6-20.4c1.1-1.3,1.5-3,1.1-4.7l-6.8-26c-1.1-4.1,3-7.7,7-6.1l24.8,10.4c1.6,0.7,3.4,0.5,4.8-0.4l22.6-14.5
	C1456,451.2,1460.7,454,1460.3,458.3z"/>
<path class="st0" d="M391.5,534.4l15.2,15.1c1,1,2.3,1.4,3.7,1.1l21.1-4c3.3-0.6,6,2.9,4.4,5.9l-9.7,19.2c-0.6,1.2-0.6,2.6,0.1,3.8
	l10.3,18.8c1.6,3-0.9,6.6-4.2,6l-21.2-3.3c-1.3-0.2-2.7,0.3-3.6,1.2l-14.7,15.6c-2.3,2.5-6.5,1.2-7-2.2l-3.4-21.2
	c-0.2-1.3-1.1-2.5-2.3-3.1l-19.4-9.2c-3.1-1.5-3.2-5.8-0.1-7.4l19.1-9.8c1.2-0.6,2-1.8,2.2-3.1l2.7-21.3
	C385,533.4,389.1,532,391.5,534.4z"/>
<g>
	<g>
		<g>
			<g>
				
					<rect x="1672.4" y="1105.9" transform="matrix(0.4742 -0.8804 0.8804 0.4742 -85.0495 2104.4133)" class="st11" width="93.9" height="34.9"/>
			</g>
		</g>
		<g>
			<g>
				
					<rect x="1680.7" y="1110.4" transform="matrix(0.4742 -0.8804 0.8804 0.4742 -84.6183 2114.0872)" class="st0" width="93.9" height="34.9"/>
			</g>
		</g>
		<g>
			<g>
				<path class="st3" d="M1733,1103.3c-2.1,3.8-0.6,8.6,3.2,10.7c3.8,2.1,8.6,0.6,10.7-3.2c2.1-3.8,0.6-8.6-3.2-10.7
					C1739.8,1098,1735,1099.4,1733,1103.3z"/>
			</g>
		</g>
		<g>
			<g>
				<g>
					<path class="st0" d="M1719.6,1086.3c0.4,0,1.1,3.6,1.6,8.1c0.5,4.5,0.6,8.2,0.2,8.3c-0.4,0-1.1-3.6-1.6-8.1
						C1719.3,1090,1719.2,1086.3,1719.6,1086.3z"/>
				</g>
			</g>
		</g>
		<g>
			<g>
				<g>
					<path class="st0" d="M1714.6,1095.4c0.4,0,1.1,3.6,1.6,8.1c0.5,4.5,0.6,8.2,0.2,8.3c-0.4,0-1.1-3.6-1.6-8.1
						C1714.4,1099.2,1714.3,1095.4,1714.6,1095.4z"/>
				</g>
			</g>
		</g>
		<g>
			<g>
				<g>
					<path class="st0" d="M1709.7,1104.6c0.4,0,1.1,3.6,1.6,8.1c0.5,4.5,0.6,8.2,0.2,8.3c-0.4,0-1.1-3.6-1.6-8.1
						C1709.4,1108.3,1709.3,1104.6,1709.7,1104.6z"/>
				</g>
			</g>
		</g>
		<g>
			<g>
				<g>
					<path class="st0" d="M1704.8,1113.7c0.4,0,1.1,3.6,1.6,8.1c0.5,4.5,0.6,8.2,0.2,8.3c-0.4,0-1.1-3.6-1.6-8.1
						C1704.5,1117.4,1704.4,1113.7,1704.8,1113.7z"/>
				</g>
			</g>
		</g>
		<g>
			<g>
				<g>
					<path class="st0" d="M1699.9,1122.8c0.4,0,1.1,3.6,1.6,8.1c0.5,4.5,0.6,8.2,0.2,8.3c-0.4,0-1.1-3.6-1.6-8.1
						C1699.6,1126.6,1699.5,1122.9,1699.9,1122.8z"/>
				</g>
			</g>
		</g>
		<g>
			<g>
				<g>
					<path class="st0" d="M1694.9,1132c0.4,0,1.1,3.6,1.6,8.1c0.5,4.5,0.6,8.2,0.2,8.3c-0.4,0-1.1-3.6-1.6-8.1
						C1694.7,1135.7,1694.6,1132,1694.9,1132z"/>
				</g>
			</g>
		</g>
		<g>
			<g>
				<g>
					<path class="st0" d="M1690,1141.1c0.4,0,1.1,3.6,1.6,8.1c0.5,4.5,0.6,8.2,0.2,8.3c-0.4,0-1.1-3.6-1.6-8.1
						C1689.7,1144.9,1689.6,1141.2,1690,1141.1z"/>
				</g>
			</g>
		</g>
		<g>
			<g>
				<g>
					<path class="st0" d="M1724,1078.2c0.4,0,1.1,3.6,1.6,8.1c0.5,4.5,0.6,8.2,0.2,8.3c-0.4,0-1.1-3.6-1.6-8.1
						C1723.7,1082,1723.6,1078.3,1724,1078.2z"/>
				</g>
			</g>
		</g>
		<g>
			<g>
				<g>
					<path class="st0" d="M1729.5,1075.6c0.4,0,0.9,2.1,1.2,4.8c0.3,2.7,0.2,4.9-0.1,4.9c-0.4,0-0.9-2.1-1.2-4.8
						C1729,1077.8,1729.1,1075.6,1729.5,1075.6z"/>
				</g>
			</g>
		</g>
	</g>
	<g>
		<g>
			<g>
				<path class="st11" d="M1669.6,1141.6l37.7-73.9c0,0-14.6-11.9-17.1-41.8c-1.7-19.8,10.2-33.4,11.8-40.8c1-4.5-8.7-8.7-13-10.4
					c-4.1-1.6-11.6-2.9-17.5,1.7c-11,8.6-18.6,39.3-18.6,39.3s0.1,7.1-7.6,3l-27.4-14.8c-3.6-1.9-7.7-2.6-11.6-1.8
					c-3.5,0.8-7.1,2.8-9.2,7.5c-4.8,10.9-1.8,18.5-3,20.7c-1.2,2.2-6.3,4.4-7.5,11.9c-1.2,7.5,0.5,7.7-1.2,10.7
					c-1.6,3-5.2,11-5.8,16.7c-0.6,5.7,0.4,9.1,0.4,9.1s-6.6,9.4-6.5,16.7c0.1,9.5,15.6,24.1,24.9,24.7c4.4,0.3,22.8,5.2,31.5,7.4
					C1638.4,1129.8,1664.2,1134,1669.6,1141.6z"/>
			</g>
		</g>
		<g>
			<g>
				<path class="st0" d="M1679,1147.7l39.8-73.9c0,0-14.6-11.9-17.1-41.8c-1.7-19.8,0.3-33.9,1.9-41.4c1-4.5-1.3-9.2-5.7-10.9
					c-4.1-1.6-9.5-2.6-15.5,2c-11,8.6-18.2,40-18.2,40s0.1,7.1-7.6,3l-27.4-14.8c-3.6-1.9-7.7-2.6-11.6-1.8
					c-3.5,0.8-7.1,2.8-9.2,7.5c-4.8,10.9-1.8,18.5-3,20.7c-1.2,2.2-6.3,4.4-7.5,11.9c-1.2,7.5,0.5,7.7-1.2,10.7
					c-1.6,3-5.2,11-5.8,16.7c-0.6,5.7,0.4,9.1,0.4,9.1s-6.1,9.4-6.5,16.7c-0.4,7.2,9.5,16.5,13.4,18.6c3.8,2.1,34.3,11.4,43,13.6
					C1649.9,1136,1673.5,1140.2,1679,1147.7z"/>
			</g>
		</g>
		<g>
			<g>
				<g>
					<path class="st0" d="M1658.2,999.5c0.4-0.1,1.8,4.6,3.5,10.3c1.7,5.7,3.1,10.4,2.7,10.5c-0.4,0.1-2.4-4.3-4.1-10.1
						C1658.6,1004.4,1657.8,999.6,1658.2,999.5z"/>
				</g>
			</g>
		</g>
		<g>
			<g>
				<g>
					<path class="st0" d="M1662,988.8c0.4-0.1,1.7,4.1,3.6,9.2c2,5.1,3.3,9.3,2.9,9.5c-0.3,0.1-2.2-3.9-4.2-9
						C1662.3,993.4,1661.7,988.9,1662,988.8z"/>
				</g>
			</g>
		</g>
		<g>
			<g>
				<g>
					<path class="st0" d="M1667.6,980.3c0.4-0.1,1.4,3.4,3.2,7.3c2,4,2.9,7.6,2.5,7.7c-0.4,0.1-1.9-3.1-3.8-7.1
						C1667.6,984.1,1667.2,980.4,1667.6,980.3z"/>
				</g>
			</g>
		</g>
		<g>
			<g>
				<g>
					<path class="st0" d="M1674.6,974.5c0.4-0.1,1.6,2.2,2.8,5.2c1.2,3,1.8,5.6,1.5,5.8c-0.4,0.1-1.6-2.2-2.8-5.2
						C1674.9,977.2,1674.2,974.7,1674.6,974.5z"/>
				</g>
			</g>
		</g>
		<g>
			<g>
				<g>
					<path class="st0" d="M1682.5,973.1c0.3-0.2,1.3,1,2.3,2.7c0.9,1.7,1.4,3.2,1,3.4s-1.4-1.1-2.3-2.7
						C1682.7,974.9,1682.2,973.3,1682.5,973.1z"/>
				</g>
			</g>
		</g>
		<g>
			<g>
				<g>
					<path class="st0" d="M1653.3,1013.7c0.4-0.1,1.7,2.4,2.9,5.6c1.2,3.2,2,5.9,1.6,6.1c-0.4,0.1-1.7-2.4-2.9-5.6
						C1653.7,1016.5,1653,1013.8,1653.3,1013.7z"/>
				</g>
			</g>
		</g>
		<g>
			<g>
				<g>
					<path class="st0" d="M1594.8,1015.4c0.3-0.2,3,4.3,5.9,10c2.9,5.7,5,10.4,4.7,10.6c-0.3,0.2-3-4.3-5.9-10
						C1596.6,1020.3,1594.5,1015.6,1594.8,1015.4z"/>
				</g>
			</g>
		</g>
		<g>
			<g>
				<g>
					<path class="st0" d="M1602,1003.1c0.3-0.2,2,2.4,3.8,5.8c1.7,3.4,2.9,6.3,2.5,6.5c-0.3,0.2-2-2.4-3.8-5.8
						C1602.8,1006.2,1601.6,1003.3,1602,1003.1z"/>
				</g>
			</g>
		</g>
		<g>
			<g>
				<g>
					<path class="st0" d="M1589.3,1035.6c0.3-0.2,2.7,2.8,4.9,7.1c2.2,4.2,3.3,7.9,3,8.1c-0.4,0.1-2.1-3.3-4.2-7.4
						C1590.8,1039.1,1589,1035.8,1589.3,1035.6z"/>
				</g>
			</g>
		</g>
		<g>
			<g>
				<g>
					<path class="st0" d="M1585.7,1052c0.4-0.2,2.2,3.1,4.2,7.4c2,4.2,3.3,7.8,2.9,8c-0.4,0.2-2.2-3.1-4.2-7.4
						C1586.6,1055.7,1585.3,1052.1,1585.7,1052z"/>
				</g>
			</g>
		</g>
		<g>
			<g>
				<g>
					<path class="st0" d="M1579.8,1070.5c0.4-0.1,2.2,3.9,4.6,8.7c2.4,4.9,4.4,8.8,4.1,9c-0.3,0.2-2.9-3.4-5.3-8.4
						C1580.7,1074.9,1579.5,1070.7,1579.8,1070.5z"/>
				</g>
			</g>
		</g>
		<g>
			<g>
				<g>
					<path class="st0" d="M1575.7,1086.6c0.4-0.1,2.5,4.5,5.3,10.2c2.8,5.7,5.1,10.2,4.8,10.4c-0.3,0.2-3.3-4.1-6-9.8
						C1576.9,1091.7,1575.3,1086.7,1575.7,1086.6z"/>
				</g>
			</g>
		</g>
	</g>
</g>
<g>
	<g>
		<g>
			<g>
				
					<rect x="176.4" y="538.7" transform="matrix(0.9341 -0.3569 0.3569 0.9341 -191.4887 104.9252)" class="st11" width="24.3" height="65.3"/>
			</g>
		</g>
		<g>
			<g>
				
					<rect x="182.6" y="536.4" transform="matrix(0.9341 -0.3569 0.3569 0.9341 -190.251 106.96)" class="st0" width="24.3" height="65.3"/>
			</g>
		</g>
		<g>
			<g>
				<path class="st3" d="M184.2,555c1.1,2.8,4.2,4.2,7.1,3.2c2.8-1.1,4.2-4.2,3.2-7.1c-1.1-2.8-4.2-4.2-7.1-3.2
					C184.5,549,183.1,552.2,184.2,555z"/>
			</g>
		</g>
		<g>
			<g>
				<g>
					<path class="st0" d="M169.1,554.3c0.2-0.2,2.4,1,5,2.8c2.6,1.8,4.6,3.4,4.5,3.6c-0.2,0.2-2.4-1-5-2.8
						C171,556.2,169,554.6,169.1,554.3z"/>
				</g>
			</g>
		</g>
		<g>
			<g>
				<g>
					<path class="st0" d="M171.7,561.1c0.2-0.2,2.4,1,5,2.8c2.6,1.8,4.6,3.4,4.5,3.6c-0.2,0.2-2.4-1-5-2.8
						C173.5,562.9,171.5,561.3,171.7,561.1z"/>
				</g>
			</g>
		</g>
		<g>
			<g>
				<g>
					<path class="st0" d="M174.3,567.8c0.2-0.2,2.4,1,5,2.8c2.6,1.8,4.6,3.4,4.5,3.6c-0.2,0.2-2.4-1-5-2.8
						C176.1,569.7,174.1,568.1,174.3,567.8z"/>
				</g>
			</g>
		</g>
		<g>
			<g>
				<g>
					<path class="st0" d="M176.9,574.6c0.2-0.2,2.4,1,5,2.8c2.6,1.8,4.6,3.4,4.5,3.6c-0.2,0.2-2.4-1-5-2.8
						C178.7,576.4,176.7,574.8,176.9,574.6z"/>
				</g>
			</g>
		</g>
		<g>
			<g>
				<g>
					<path class="st0" d="M179.4,581.3c0.2-0.2,2.4,1,5,2.8c2.6,1.8,4.6,3.4,4.5,3.6c-0.2,0.2-2.4-1-5-2.8
						C181.3,583.2,179.3,581.6,179.4,581.3z"/>
				</g>
			</g>
		</g>
		<g>
			<g>
				<g>
					<path class="st0" d="M182,588.1c0.2-0.2,2.4,1,5,2.8c2.6,1.8,4.6,3.4,4.5,3.6c-0.2,0.2-2.4-1-5-2.8
						C183.9,589.9,181.9,588.3,182,588.1z"/>
				</g>
			</g>
		</g>
		<g>
			<g>
				<g>
					<path class="st0" d="M184.6,594.8c0.2-0.2,2.4,1,5,2.8c2.6,1.8,4.6,3.4,4.5,3.6c-0.2,0.2-2.4-1-5-2.8
						C186.4,596.7,184.4,595,184.6,594.8z"/>
				</g>
			</g>
		</g>
		<g>
			<g>
				<g>
					<path class="st0" d="M166.9,548.4c0.2-0.2,2.4,1,5,2.8c2.6,1.8,4.6,3.4,4.5,3.6c-0.2,0.2-2.4-1-5-2.8
						C168.8,550.2,166.8,548.6,166.9,548.4z"/>
				</g>
			</g>
		</g>
		<g>
			<g>
				<g>
					<path class="st0" d="M168,544.3c0.2-0.2,1.5,0.5,3.1,1.5c1.5,1.1,2.7,2.1,2.5,2.3c-0.2,0.2-1.5-0.5-3.1-1.5
						C169,545.5,167.8,544.5,168,544.3z"/>
				</g>
			</g>
		</g>
	</g>
	<g>
		<g>
			<g>
				<path class="st11" d="M175.6,605.8l-21.8-53.4c0,0-12.9,2.3-29.8-10c-11.2-8.1-13-20.5-16.1-24.7c-1.9-2.6-8.5,0.6-11.4,2.1
					c-2.7,1.4-6.8,4.8-7,10c-0.5,9.7,12.2,27.7,12.2,27.7s3.8,3.2-1.9,5.4l-20.2,7.7c-2.6,1-4.9,2.9-6.2,5.3c-1.2,2.2-1.8,5-0.2,8.3
					c3.5,7.5,8.9,9.4,9.5,11c0.6,1.6-0.5,5.3,2.9,9.3s4.3,3.2,5.1,5.5c0.9,2.2,3.4,7.7,6.2,10.6c2.7,2.9,5,3.9,5,3.9s2,7.7,5.8,11
					c5,4.3,19.8,2.8,24.3-1.9c2.1-2.2,13.1-9.6,18.2-13.2C155.2,616.8,169.1,605.2,175.6,605.8z"/>
			</g>
		</g>
		<g>
			<g>
				<path class="st0" d="M183.1,603.6l-20.8-54.5c0,0-12.9,2.3-29.8-10c-11.2-8.1-17.7-15.6-20.9-19.8c-1.9-2.6-5.5-3.5-8.3-2
					c-2.7,1.4-5.7,3.8-6,9.1c-0.5,9.7,12.8,27.8,12.8,27.8s3.8,3.2-1.9,5.4L88,567.3c-2.6,1-4.9,2.9-6.2,5.3c-1.2,2.2-1.8,5-0.2,8.3
					c3.5,7.5,8.9,9.4,9.5,11c0.6,1.6-0.5,5.3,2.9,9.3c3.4,4,4.3,3.2,5.1,5.5c0.9,2.2,3.4,7.7,6.2,10.6c2.7,2.9,5,3.9,5,3.9
					s2.2,7.5,5.8,11c3.7,3.5,13,2.5,15.8,1.4c2.8-1.1,21.5-12.9,26.7-16.5C163.7,613.6,176.6,603.1,183.1,603.6z"/>
			</g>
		</g>
		<g>
			<g>
				<g>
					<path class="st0" d="M95.6,547.3c0.1-0.2,3.2,1.1,7,2.8c3.8,1.7,6.9,3.1,6.8,3.3c-0.1,0.2-3.4-0.7-7.2-2.4
						C98.4,549.3,95.5,547.5,95.6,547.3z"/>
				</g>
			</g>
		</g>
		<g>
			<g>
				<g>
					<path class="st0" d="M91.7,540.4c0.1-0.2,2.9,1,6.5,2.3c3.6,1.3,6.4,2.5,6.3,2.8c-0.1,0.2-3-0.6-6.6-1.9
						C94.2,542.3,91.6,540.6,91.7,540.4z"/>
				</g>
			</g>
		</g>
		<g>
			<g>
				<g>
					<path class="st0" d="M89.7,533.6c0.1-0.3,2.4,0.8,5.3,1.6c3,0.8,5.3,1.9,5.2,2.1c-0.1,0.2-2.5-0.4-5.5-1.2
						C91.7,535.3,89.6,533.8,89.7,533.6z"/>
				</g>
			</g>
		</g>
		<g>
			<g>
				<g>
					<path class="st0" d="M89.9,527.3c0.1-0.3,1.9,0.2,4,0.9c2.1,0.8,3.8,1.6,3.7,1.8c-0.1,0.3-1.9-0.2-4-0.9
						C91.4,528.4,89.8,527.5,89.9,527.3z"/>
				</g>
			</g>
		</g>
		<g>
			<g>
				<g>
					<path class="st0" d="M92.8,522.5c0-0.3,1.2-0.2,2.5,0s2.3,0.7,2.3,1c-0.1,0.3-1.2,0.2-2.5,0C93.7,523.2,92.7,522.7,92.8,522.5z
						"/>
				</g>
			</g>
		</g>
		<g>
			<g>
				<g>
					<path class="st0" d="M100.8,556.3c0.1-0.3,2,0.2,4.3,1c2.3,0.8,4,1.7,3.9,1.9c-0.1,0.3-2-0.2-4.3-1
						C102.5,557.4,100.7,556.5,100.8,556.3z"/>
				</g>
			</g>
		</g>
		<g>
			<g>
				<g>
					<path class="st0" d="M75.2,587.8c0.1-0.3,3.6,0.4,7.9,1.4c4.3,1,7.8,2.1,7.7,2.4c-0.1,0.3-3.6-0.4-7.9-1.4
						C78.5,589.2,75.1,588.1,75.2,587.8z"/>
				</g>
			</g>
		</g>
		<g>
			<g>
				<g>
					<path class="st0" d="M71.9,578.5c0.1-0.3,2.2,0,4.8,0.7c2.6,0.6,4.6,1.3,4.5,1.6c-0.1,0.3-2.2,0-4.8-0.7
						C73.9,579.5,71.9,578.7,71.9,578.5z"/>
				</g>
			</g>
		</g>
		<g>
			<g>
				<g>
					<path class="st0" d="M83.3,599.9c0-0.3,2.7-0.1,5.9,0.6c3.2,0.8,5.7,1.9,5.6,2.1c-0.1,0.3-2.7-0.4-5.8-1.1
						C85.9,600.7,83.3,600.2,83.3,599.9z"/>
				</g>
			</g>
		</g>
		<g>
			<g>
				<g>
					<path class="st0" d="M90.3,609.3c0.1-0.3,2.7,0.3,5.8,1.1c3.1,0.9,5.6,1.8,5.5,2.1c-0.1,0.3-2.7-0.3-5.8-1.1
						C92.7,610.4,90.2,609.5,90.3,609.3z"/>
				</g>
			</g>
		</g>
		<g>
			<g>
				<g>
					<path class="st0" d="M97.4,620.8c0.1-0.3,3,0.6,6.7,1.5c3.6,1,6.6,1.7,6.6,1.9c0,0.3-3.1,0-6.8-1
						C100.1,622.3,97.3,621,97.4,620.8z"/>
				</g>
			</g>
		</g>
		<g>
			<g>
				<g>
					<path class="st0" d="M104,630.2c0.1-0.2,3.5,0.7,7.8,1.8c4.2,1.1,7.7,2,7.7,2.2c0,0.3-3.6-0.1-7.9-1.3
						C107.2,631.9,103.9,630.5,104,630.2z"/>
				</g>
			</g>
		</g>
	</g>
</g>
</svg>
