<?xml version="1.0" encoding="utf-8"?>
<!-- Generator: Adobe Illustrator 26.0.3, SVG Export Plug-In . SVG Version: 6.00 Build 0)  -->
<svg version="1.1" id="Camada_1" xmlns="http://www.w3.org/2000/svg" xmlns:xlink="http://www.w3.org/1999/xlink" x="0px" y="0px"
	 viewBox="0 0 1920 1920" style="enable-background:new 0 0 1920 1920;" xml:space="preserve">
<style type="text/css">
	.st0{fill:#192E35;}
	.st1{fill:#E1E0E0;}
	.st2{fill:#FFFFFF;}
	.st3{fill-rule:evenodd;clip-rule:evenodd;fill:#FFFFFF;}
	.st4{fill:#ECECEC;}
	.st5{fill:#F5F5F5;}
	.st6{fill:#E9505E;}
	.st7{fill:#385A65;}
	.st8{opacity:0.3;}
	.st9{opacity:0.1;}
	.st10{fill:#F9BE9D;}
	.st11{fill:#F3986E;}
</style>
<g>
	<g>
		<polygon class="st0" points="692.8,1406.6 797.9,1406.6 814.6,1477.2 653,1477.2 		"/>
	</g>
	<g>
		<g>
			<g>
				<g>
					<g>
						<path class="st1" d="M593.4,678.3H493.3c-2.2,0-4.1-1.8-4.1-4.1V574.1c0-2.2,1.8-4.1,4.1-4.1h100.1c2.2,0,4.1,1.8,4.1,4.1
							v100.1C597.5,676.5,595.7,678.3,593.4,678.3z"/>
					</g>
				</g>
			</g>
		</g>
		<g>
			<g>
				<g>
					<g>
						<path class="st2" d="M518.1,650.4l3.9-14.7c-2.2-4-3.4-8.5-3.4-13.1c0-15,12.2-27.2,27.2-27.2c15,0,27.2,12.2,27.2,27.2
							c0,15-12.2,27.2-27.2,27.2c-4.5,0-8.9-1.1-12.9-3.3L518.1,650.4z M533.6,641l0.9,0.6c3.4,2,7.3,3.1,11.3,3.1
							c12.2,0,22-9.9,22-22c0-12.2-9.9-22-22-22c-12.2,0-22,9.9-22,22c0,4,1.1,8,3.2,11.4l0.6,0.9l-2.2,8.2L533.6,641z"/>
					</g>
				</g>
			</g>
		</g>
		<g>
			<g>
				<g>
					<g>
						<path class="st3" d="M555.6,626.5c-1.1-0.7-2.6-1.4-3.9-0.9c-1,0.4-1.7,2-2.3,2.8c-0.3,0.4-0.7,0.5-1.3,0.3
							c-3.8-1.5-6.7-4-8.8-7.5c-0.4-0.5-0.3-1,0.1-1.5c0.6-0.7,1.4-1.6,1.6-2.6c0.2-1-0.3-2.2-0.7-3.1c-0.5-1.1-1.1-2.8-2.3-3.4
							c-1.1-0.6-2.4-0.3-3.4,0.5c-1.6,1.3-2.4,3.4-2.4,5.4c0,0.6,0.1,1.2,0.2,1.7c0.3,1.3,1,2.6,1.7,3.8c0.5,0.9,1.1,1.8,1.7,2.6
							c2,2.8,4.6,5.2,7.5,6.9c1.5,0.9,3,1.7,4.7,2.2c1.8,0.6,3.5,1.2,5.4,0.9c2.1-0.4,4.1-1.7,4.9-3.7c0.2-0.6,0.4-1.2,0.2-1.9
							C558.4,627.9,556.7,627.1,555.6,626.5z"/>
					</g>
				</g>
			</g>
		</g>
	</g>
	<g>
		<g>
			<g>
				<g>
					<g>
						<path class="st4" d="M1675,1307c5.3-3.2,10.9-5.6,16.8-7.3l3.5-16.6l28-0.5l4,16.4c5.9,1.4,11.6,3.7,17,6.7l14.2-9.3
							l20.2,19.5l-8.8,14.5c3.2,5.3,5.6,10.9,7.3,16.8l16.6,3.5l0.5,28l-16.4,4c-1.4,5.9-3.7,11.6-6.7,17l9.3,14.2l-19.5,20.2
							l-14.5-8.8c-5.3,3.2-10.9,5.6-16.8,7.3l-3.5,16.6l-28,0.5l-4-16.4c-5.9-1.4-11.6-3.7-17-6.7l-14.2,9.3l-20.2-19.5l8.8-14.5
							c-3.2-5.3-5.6-10.9-7.3-16.8l-16.6-3.5l-0.5-28l16.4-4c1.4-5.9,3.7-11.6,6.7-17l-9.3-14.2l19.5-20.2L1675,1307L1675,1307z
							 M1689.9,1344.3c-11.5,11.9-11.2,31,0.7,42.5c11.9,11.5,31,11.2,42.5-0.7c11.5-11.9,11.2-31-0.7-42.5
							C1720.5,1332,1701.4,1332.3,1689.9,1344.3z"/>
					</g>
				</g>
			</g>
		</g>
	</g>
	<g>
		<g>
			<g>
				<g>
					<g>
						<g>
							<path class="st4" d="M1420.1,1236.4c0,0,1.6-2.2,5.6-4.9c4-2.6,10.9-5.6,19.6-4.6c4.3,0.5,9,1.9,13.3,4.7
								c4.3,2.8,8.3,6.9,10.8,12.1c1.3,2.6,2.2,5.4,2.7,8.4c0.5,3,0.6,6.1,0.2,9.3c-0.8,6.3-3.7,12.5-8.3,17.3c-4.7,4.8-10.8,8-17,9
								c-3.1,0.6-6.3,0.6-9.3,0.2c-3-0.4-5.9-1.2-8.5-2.4c-5.3-2.3-9.5-6.2-12.5-10.3c-3-4.2-4.6-8.9-5.2-13.2
								c-1.2-8.7,1.5-15.7,3.9-19.8C1418,1238,1420.1,1236.4,1420.1,1236.4c0.2,0.1-1.8,2-4.1,6.1c-2.3,4.1-4.7,10.9-3.3,19.2
								c0.7,4.1,2.3,8.5,5.2,12.5c2.9,3.9,6.9,7.6,12,9.7c2.5,1.1,5.2,1.9,8.1,2.3c2.8,0.4,5.8,0.4,8.8-0.2c5.9-0.9,11.6-4,16.1-8.5
								c4.4-4.6,7.2-10.4,7.9-16.4c0.4-3,0.4-5.9-0.1-8.8c-0.5-2.8-1.3-5.6-2.5-8c-2.3-5-6.1-8.9-10.1-11.6
								c-4.1-2.8-8.6-4.2-12.7-4.7c-8.4-1-15.1,1.6-19.1,4C1422.1,1234.5,1420.3,1236.5,1420.1,1236.4z"/>
						</g>
					</g>
				</g>
			</g>
		</g>
	</g>
	<g>
		<g>
			<g>
				<g>
					<g>
						<g>
							<path class="st4" d="M1704,1282.1c0,0-0.3-0.1-0.9-0.5c-0.7-0.4-1.6-0.9-2.8-1.6c-2.5-1.5-6.2-3.6-10.9-6.4l0.3,0
								c-5,5.2-11.5,12-19.3,20.3l0.1-0.5c2.8,4.3,6,9,9.3,14.1l0.2,0.3l-0.1,0.3c-2.8,5-5.1,10.7-6.6,16.9l-0.1,0.3l-0.3,0.1
								c-5.1,1.3-10.7,2.6-16.4,4.1l0.5-0.6c0.2,8.8,0.4,18.2,0.6,28l-0.5-0.7c5.1,1.1,10.8,2.2,16.6,3.4l0.4,0.1l0.1,0.4
								c1.5,5.4,3.9,11.2,7.2,16.6l0.2,0.4l-0.2,0.4c-2.7,4.5-5.7,9.4-8.8,14.5l-0.1-1c6.3,6.1,13.2,12.7,20.2,19.4l-1-0.1
								c4.4-2.9,9.2-6.1,14.2-9.3l0.4-0.3l0.4,0.2c4.9,2.8,10.7,5.1,16.8,6.6l0.5,0.1l0.1,0.5c1.3,5.2,2.6,10.8,4,16.4l-0.8-0.6
								c8.9-0.2,18.4-0.3,28-0.5l-0.8,0.7c1.1-5.2,2.3-10.9,3.4-16.6l0.1-0.5l0.5-0.1c5.5-1.6,11.2-4,16.5-7.2l0,0l0.5-0.3l0.4,0.3
								c4.9,2.9,9.7,5.9,14.5,8.8l-1.1,0.1c6.6-6.8,13.1-13.5,19.5-20.2l-0.1,1.1c-3.1-4.8-6.2-9.5-9.3-14.2l-0.3-0.4l0.3-0.4
								c3-5.3,5.2-11,6.6-16.8l0.1-0.5l0.5-0.1c5.6-1.4,11-2.7,16.5-4l-0.6,0.8c-0.2-9.6-0.3-18.9-0.5-28l0.6,0.8
								c-5.6-1.2-11.1-2.3-16.6-3.5l-0.5-0.1l-0.1-0.4c-1.7-5.9-4.1-11.5-7.2-16.6l-0.2-0.4l0.2-0.4c3-5,5.9-9.8,8.8-14.5l0.1,0.9
								c-7.1-6.9-13.8-13.3-20.1-19.5l0.8,0.1c-5,3.3-9.7,6.3-14.2,9.2l-0.3,0.2l-0.3-0.2c-5.6-3.2-11.3-5.3-16.8-6.7l-0.3-0.1
								l-0.1-0.3c-1.4-6-2.7-11.4-4-16.5l0.5,0.4c-10.9,0.1-20.1,0.3-28,0.4l0.4-0.3c-1.4,6.6-2.6,12-3.6,16.6l0,0.2l-0.2,0
								c-5.9,1.7-10.1,3.6-12.8,4.9c-1.3,0.7-2.3,1.2-3,1.6C1704.3,1281.9,1704,1282.1,1704,1282.1c0,0,0.3-0.2,0.9-0.6
								c0.6-0.4,1.6-1,3-1.7c2.7-1.4,6.8-3.5,12.8-5.2l-0.2,0.2c0.9-4.5,2-10,3.3-16.6l0.1-0.3l0.3,0c7.9-0.2,17.2-0.4,28-0.6l0.4,0
								l0.1,0.4c1.3,5.1,2.6,10.5,4.1,16.4l-0.4-0.4c5.6,1.4,11.4,3.5,17.2,6.7l-0.6,0c4.5-3,9.2-6,14.1-9.3l0.4-0.3l0.4,0.4
								c6.4,6.1,13.1,12.6,20.2,19.4l0.4,0.4l-0.3,0.5c-2.8,4.7-5.8,9.5-8.8,14.5l0-0.8c3.1,5.2,5.7,10.9,7.4,16.9l-0.6-0.5
								c5.4,1.1,11,2.3,16.6,3.4l0.6,0.1l0,0.6c0.2,9.1,0.3,18.4,0.5,28l0,0.7l-0.6,0.2c-5.4,1.3-10.9,2.7-16.4,4l0.6-0.6
								c-1.5,5.9-3.7,11.7-6.8,17.2l0-0.9c3.1,4.7,6.2,9.4,9.3,14.2l0.4,0.6l-0.5,0.5c-6.4,6.6-12.9,13.4-19.5,20.2l-0.5,0.5
								l-0.6-0.4c-4.8-2.9-9.6-5.8-14.5-8.8h0.9l0,0c-5.4,3.3-11.3,5.8-16.9,7.4l0.6-0.7c-1.2,5.7-2.4,11.3-3.5,16.6l-0.1,0.7
								l-0.7,0c-9.6,0.2-19.1,0.3-28,0.5l-0.7,0l-0.2-0.7c-1.4-5.7-2.8-11.3-4-16.5l0.6,0.6c-6.2-1.5-12.1-4-17.2-6.8l0.8,0
								c-4.9,3.2-9.8,6.4-14.2,9.3l-0.5,0.4l-0.5-0.4c-7-6.8-13.8-13.4-20.1-19.5l-0.4-0.4l0.3-0.5c3.1-5,6.1-10,8.8-14.5l0,0.8
								c-3.3-5.5-5.8-11.4-7.3-16.9l0.5,0.5c-5.8-1.2-11.4-2.4-16.6-3.5l-0.5-0.1l0-0.5c-0.2-9.8-0.3-19.2-0.4-28l0-0.5l0.5-0.1
								c5.8-1.4,11.3-2.7,16.5-4l-0.4,0.4c1.6-6.3,4-12.1,6.8-17.1l0,0.5c-3.3-5.1-6.4-9.9-9.2-14.2l-0.2-0.3l0.2-0.2
								c8-8.2,14.6-14.9,19.6-20l0.2-0.2l0.2,0.1c4.6,2.9,8.2,5.1,10.7,6.6c1.2,0.7,2.1,1.3,2.7,1.7
								C1703.7,1281.8,1704,1282,1704,1282.1z"/>
						</g>
					</g>
				</g>
			</g>
		</g>
	</g>
	<g>
		<g>
			<g>
				<g>
					<g>
						<g>
							<path class="st4" d="M144.6,725.3c5.3-3.2,10.9-5.6,16.8-7.3l3.5-16.6l28-0.5l4,16.4c5.9,1.4,11.6,3.7,17,6.7l14.2-9.3
								l20.2,19.5l-8.8,14.5c3.2,5.3,5.6,10.9,7.3,16.8l16.6,3.5l0.5,28l-16.4,4c-1.4,5.9-3.7,11.6-6.7,17l9.3,14.2l-19.5,20.2
								l-14.5-8.8c-5.3,3.2-10.9,5.6-16.8,7.3l-3.5,16.6l-28,0.5l-4-16.4c-5.9-1.4-11.6-3.7-17-6.7l-14.2,9.3l-20.2-19.5l8.8-14.5
								c-3.2-5.3-5.6-10.9-7.3-16.8l-16.6-3.5l-0.5-28l16.4-4c1.4-5.9,3.7-11.6,6.7-17l-9.3-14.2l19.5-20.2L144.6,725.3L144.6,725.3
								z M159.5,762.6c-11.5,11.9-11.2,31,0.7,42.5c11.9,11.5,31,11.2,42.5-0.7c11.5-11.9,11.2-31-0.7-42.5
								C190.1,750.3,171,750.7,159.5,762.6z"/>
						</g>
					</g>
				</g>
			</g>
		</g>
		<g>
			<g>
				<g>
					<g>
						<g>
							<g>
								<path class="st4" d="M159.5,762.6c0,0,1.6-2.2,5.6-4.9c4-2.6,10.9-5.6,19.6-4.6c4.3,0.5,9,1.9,13.3,4.7
									c4.3,2.8,8.3,6.9,10.8,12.1c1.3,2.6,2.2,5.4,2.7,8.4c0.5,3,0.6,6.1,0.2,9.3c-0.8,6.3-3.7,12.5-8.3,17.3
									c-4.7,4.8-10.8,8-17,9c-3.1,0.6-6.3,0.6-9.3,0.2c-3-0.4-5.9-1.2-8.5-2.4c-5.3-2.3-9.5-6.2-12.5-10.3
									c-3-4.2-4.6-8.9-5.2-13.2c-1.2-8.7,1.5-15.7,3.9-19.8C157.3,764.3,159.5,762.6,159.5,762.6c0.2,0.1-1.8,2-4.1,6.1
									c-2.3,4.1-4.7,10.9-3.3,19.2c0.7,4.1,2.3,8.5,5.2,12.5c2.9,3.9,6.9,7.6,12,9.7c2.5,1.1,5.2,1.9,8.1,2.3
									c2.8,0.4,5.8,0.4,8.8-0.2c5.9-0.9,11.6-4,16.1-8.5c4.4-4.6,7.2-10.4,7.9-16.4c0.4-3,0.4-5.9-0.1-8.8c-0.5-2.8-1.3-5.6-2.5-8
									c-2.3-5-6.1-8.9-10.1-11.6c-4.1-2.8-8.6-4.2-12.7-4.7c-8.4-1-15.1,1.6-19.1,4C161.4,760.7,159.6,762.8,159.5,762.6z"/>
							</g>
						</g>
					</g>
				</g>
			</g>
		</g>
		<g>
			<g>
				<g>
					<g>
						<g>
							<g>
								<path class="st4" d="M144.6,725.3c0,0-0.3-0.1-0.9-0.5c-0.7-0.4-1.6-0.9-2.8-1.6c-2.5-1.5-6.2-3.6-10.9-6.4l0.3,0
									c-5,5.2-11.5,12-19.3,20.3l0.1-0.5c2.8,4.3,6,9,9.3,14.1l0.2,0.3l-0.1,0.3c-2.8,5-5.1,10.7-6.6,16.9l-0.1,0.3l-0.3,0.1
									c-5.1,1.3-10.7,2.6-16.4,4.1l0.5-0.6c0.2,8.8,0.4,18.2,0.6,28l-0.5-0.7c5.1,1.1,10.8,2.2,16.6,3.4l0.4,0.1l0.1,0.4
									c1.5,5.4,3.9,11.2,7.2,16.6l0.2,0.4l-0.2,0.4c-2.7,4.5-5.7,9.4-8.8,14.5l-0.1-1c6.3,6.1,13.2,12.7,20.2,19.4l-1-0.1
									c4.4-2.9,9.2-6.1,14.2-9.3l0.4-0.3l0.4,0.2c4.9,2.8,10.7,5.1,16.8,6.6l0.5,0.1l0.1,0.5c1.3,5.2,2.6,10.8,4,16.4l-0.8-0.6
									c8.9-0.2,18.4-0.3,28-0.5l-0.8,0.7c1.1-5.2,2.3-10.9,3.4-16.6l0.1-0.5l0.5-0.1c5.5-1.6,11.2-4,16.5-7.2l0,0l0.5-0.3l0.4,0.3
									c4.9,2.9,9.7,5.9,14.5,8.8l-1.1,0.1c6.6-6.8,13.1-13.5,19.5-20.2l-0.1,1.1c-3.1-4.8-6.2-9.5-9.3-14.2l-0.3-0.4l0.3-0.4
									c3-5.3,5.2-11,6.6-16.8l0.1-0.5l0.5-0.1c5.6-1.4,11-2.7,16.5-4l-0.6,0.8c-0.2-9.6-0.3-18.9-0.5-28l0.6,0.8
									c-5.6-1.2-11.1-2.3-16.6-3.5l-0.5-0.1l-0.1-0.4c-1.7-5.9-4.1-11.5-7.2-16.6l-0.2-0.4l0.2-0.4c3-5,5.9-9.8,8.8-14.5l0.1,0.9
									c-7.1-6.9-13.8-13.3-20.1-19.5l0.8,0.1c-5,3.3-9.7,6.3-14.2,9.2l-0.3,0.2l-0.3-0.2c-5.6-3.2-11.3-5.3-16.8-6.7l-0.3-0.1
									l-0.1-0.3c-1.4-6-2.7-11.4-4-16.5l0.5,0.4c-10.9,0.1-20.1,0.3-28,0.4l0.4-0.3c-1.4,6.6-2.6,12-3.6,16.6l0,0.2l-0.2,0
									c-5.9,1.7-10.1,3.6-12.8,4.9c-1.3,0.7-2.3,1.2-3,1.6C144.9,725.2,144.6,725.3,144.6,725.3c0,0,0.3-0.2,0.9-0.6
									c0.6-0.4,1.6-1,3-1.7c2.7-1.4,6.8-3.5,12.8-5.2l-0.2,0.2c0.9-4.5,2-10,3.3-16.6l0.1-0.3l0.3,0c7.9-0.2,17.2-0.4,28-0.6
									l0.4,0l0.1,0.4c1.3,5.1,2.6,10.5,4.1,16.4l-0.4-0.4c5.6,1.4,11.4,3.5,17.2,6.7l-0.6,0c4.5-3,9.2-6,14.1-9.3l0.4-0.3l0.4,0.4
									c6.4,6.1,13.1,12.6,20.2,19.4l0.4,0.4l-0.3,0.5c-2.8,4.7-5.8,9.5-8.8,14.5l0-0.8c3.1,5.2,5.7,10.9,7.4,16.9l-0.6-0.5
									c5.4,1.1,11,2.3,16.6,3.4l0.6,0.1l0,0.6c0.2,9.1,0.3,18.4,0.5,28l0,0.7l-0.6,0.2c-5.4,1.3-10.9,2.7-16.4,4l0.6-0.6
									c-1.5,5.9-3.7,11.7-6.8,17.2l0-0.9c3.1,4.7,6.2,9.4,9.3,14.2l0.4,0.6l-0.5,0.5c-6.4,6.6-12.9,13.4-19.5,20.2l-0.5,0.5
									l-0.6-0.4c-4.8-2.9-9.6-5.8-14.5-8.8h0.9l0,0c-5.4,3.3-11.3,5.8-16.9,7.4l0.6-0.7c-1.2,5.7-2.4,11.3-3.5,16.6l-0.1,0.7
									l-0.7,0c-9.6,0.2-19.1,0.3-28,0.5l-0.7,0l-0.2-0.7c-1.4-5.7-2.8-11.3-4-16.5l0.6,0.6c-6.2-1.5-12.1-4-17.2-6.8l0.8,0
									c-4.9,3.2-9.8,6.4-14.2,9.3l-0.5,0.4l-0.5-0.4c-7-6.8-13.8-13.4-20.1-19.5l-0.4-0.4l0.3-0.5c3.1-5,6.1-10,8.8-14.5l0,0.8
									c-3.3-5.5-5.8-11.4-7.3-16.9l0.5,0.5c-5.8-1.2-11.4-2.4-16.6-3.5l-0.5-0.1l0-0.5c-0.2-9.8-0.3-19.2-0.4-28l0-0.5l0.5-0.1
									c5.8-1.4,11.3-2.7,16.5-4l-0.4,0.4c1.6-6.3,4-12.1,6.8-17.1l0,0.5c-3.3-5.1-6.4-9.9-9.2-14.2l-0.2-0.3l0.2-0.2
									c8-8.2,14.6-14.9,19.6-20l0.2-0.2l0.2,0.1c4.6,2.9,8.2,5.1,10.7,6.6c1.2,0.7,2.1,1.3,2.7,1.7
									C144.3,725.1,144.6,725.3,144.6,725.3z"/>
							</g>
						</g>
					</g>
				</g>
			</g>
		</g>
	</g>
	<g>
		<g>
			<g>
				<g>
					<g>
						<path class="st4" d="M1794.4,1192.4c2.8-1.7,5.8-3,8.9-3.9l1.8-8.8l14.8-0.3l2.1,8.7c3.1,0.8,6.1,1.9,9,3.5l7.5-4.9l10.7,10.3
							l-4.6,7.7c1.7,2.8,3,5.8,3.9,8.9l8.8,1.8l0.3,14.8l-8.7,2.1c-0.8,3.1-1.9,6.1-3.5,9l4.9,7.5l-10.3,10.7l-7.7-4.7
							c-2.8,1.7-5.8,3-8.9,3.9l-1.8,8.8l-14.8,0.3l-2.1-8.7c-3.1-0.8-6.1-1.9-9-3.5l-7.5,4.9l-10.7-10.3l4.6-7.7
							c-1.7-2.8-3-5.8-3.9-8.9l-8.8-1.8l-0.3-14.8l8.7-2.1c0.8-3.1,1.9-6.1,3.5-9l-4.9-7.5l10.3-10.7L1794.4,1192.4L1794.4,1192.4z
							 M1802.3,1212.2c-6.1,6.3-5.9,16.4,0.4,22.5c6.3,6.1,16.4,5.9,22.5-0.4c6.1-6.3,5.9-16.4-0.4-22.5
							C1818.5,1205.7,1808.5,1205.8,1802.3,1212.2z"/>
					</g>
				</g>
			</g>
		</g>
	</g>
	<g>
		<g>
			<g>
				<g>
					<g>
						<path class="st4" d="M353,455.7c2.8-1.7,5.8-3,8.9-3.9l1.8-8.8l14.8-0.3l2.1,8.7c3.1,0.8,6.1,1.9,9,3.5l7.5-4.9l10.7,10.3
							l-4.6,7.7c1.7,2.8,3,5.8,3.9,8.9l8.8,1.8l0.3,14.8l-8.7,2.1c-0.8,3.1-1.9,6.1-3.5,9l4.9,7.5L398.5,523l-7.7-4.6
							c-2.8,1.7-5.8,3-8.9,3.9l-1.8,8.8l-14.8,0.3l-2.1-8.7c-3.1-0.8-6.1-1.9-9-3.5l-7.5,4.9l-10.7-10.3l4.6-7.7
							c-1.7-2.8-3-5.8-3.9-8.9l-8.8-1.8l-0.3-14.8l8.7-2.1c0.8-3.1,1.9-6.1,3.5-9l-4.9-7.5l10.3-10.7L353,455.7L353,455.7z
							 M360.9,475.5c-6.1,6.3-5.9,16.4,0.4,22.5c6.3,6.1,16.4,5.9,22.5-0.4c6.1-6.3,5.9-16.4-0.4-22.5
							C377.1,469,367,469.2,360.9,475.5z"/>
					</g>
				</g>
			</g>
		</g>
	</g>
	<g>
		<g>
			<g>
				<g>
					<g>
						<g>
							<path class="st4" d="M1802.3,1212.2c0,0,0.8-1.2,3-2.6c2.1-1.4,5.8-2.9,10.4-2.5c2.3,0.3,4.8,1,7.1,2.5
								c2.3,1.5,4.4,3.7,5.7,6.4c0.7,1.4,1.2,2.9,1.4,4.5c0.3,1.6,0.3,3.2,0.1,4.9c-0.4,3.3-2,6.6-4.4,9.2c-2.5,2.5-5.7,4.2-9,4.7
								c-1.6,0.3-3.3,0.3-4.9,0.1c-1.6-0.2-3.1-0.6-4.5-1.3c-2.8-1.2-5-3.3-6.6-5.5c-1.6-2.2-2.4-4.7-2.8-7
								c-0.7-4.6,0.8-8.3,2.1-10.5C1801.2,1213,1802.3,1212.2,1802.3,1212.2c0.1,0.1-1,1-2.2,3.2c-1.2,2.1-2.5,5.8-1.8,10.2
								c0.4,2.2,1.2,4.5,2.7,6.6c1.5,2.1,3.7,4,6.4,5.2c1.3,0.6,2.8,1,4.3,1.2c1.5,0.2,3.1,0.2,4.6-0.1c3.1-0.5,6.2-2.1,8.5-4.5
								c2.3-2.4,3.8-5.5,4.2-8.7c0.2-1.6,0.2-3.1-0.1-4.6c-0.2-1.5-0.7-2.9-1.3-4.2c-1.2-2.6-3.2-4.7-5.4-6.2
								c-2.2-1.5-4.5-2.2-6.7-2.5c-4.4-0.6-8,0.8-10.1,2.1C1803.4,1211.2,1802.4,1212.2,1802.3,1212.2z"/>
						</g>
					</g>
				</g>
			</g>
		</g>
	</g>
	<g>
		<g>
			<g>
				<g>
					<g>
						<g>
							<path class="st4" d="M1794.4,1167.5c0,0-0.2-0.1-0.5-0.3c-0.4-0.2-0.8-0.5-1.5-0.8c-1.3-0.8-3.3-1.9-5.8-3.4l0.2,0
								c-2.6,2.8-6.1,6.4-10.2,10.7l0-0.3c1.5,2.3,3.2,4.8,4.9,7.5l0.1,0.1l-0.1,0.1c-1.5,2.6-2.7,5.6-3.5,8.9l0,0.2l-0.2,0
								c-2.7,0.7-5.7,1.4-8.7,2.2l0.2-0.3c0.1,4.7,0.2,9.6,0.3,14.8l-0.3-0.3c2.7,0.6,5.7,1.2,8.8,1.8l0.2,0l0.1,0.2
								c0.8,2.9,2.1,5.9,3.8,8.8l0.1,0.2l-0.1,0.2c-1.4,2.4-3,5-4.6,7.7l-0.1-0.5c3.4,3.2,7,6.7,10.7,10.3l-0.5,0
								c2.3-1.5,4.9-3.2,7.5-4.9l0.2-0.1l0.2,0.1c2.6,1.5,5.7,2.7,8.9,3.5l0.3,0.1l0.1,0.3c0.7,2.7,1.4,5.7,2.1,8.7l-0.4-0.3
								c4.7-0.1,9.7-0.2,14.8-0.3l-0.4,0.4c0.6-2.8,1.2-5.8,1.8-8.8l0.1-0.3l0.3-0.1c2.9-0.8,6-2.1,8.8-3.8l0,0l0.2-0.1l0.2,0.1
								c2.6,1.6,5.1,3.1,7.7,4.7l-0.6,0.1c3.5-3.6,6.9-7.2,10.3-10.7l-0.1,0.6c-1.7-2.5-3.3-5-4.9-7.5l-0.1-0.2l0.1-0.2
								c1.6-2.8,2.7-5.8,3.5-8.9l0.1-0.3l0.3-0.1c2.9-0.7,5.9-1.4,8.7-2.1l-0.3,0.4c-0.1-5.1-0.2-10-0.2-14.8l0.3,0.4
								c-3-0.6-5.9-1.2-8.8-1.8l-0.2-0.1l-0.1-0.2c-0.9-3.1-2.2-6.1-3.8-8.8l-0.1-0.2l0.1-0.2c1.6-2.6,3.1-5.2,4.7-7.7l0.1,0.5
								c-3.7-3.6-7.3-7.1-10.7-10.3l0.4,0c-2.6,1.7-5.1,3.3-7.5,4.9l-0.2,0.1l-0.2-0.1c-3-1.7-6-2.8-8.9-3.5l-0.2,0l0-0.2
								c-0.8-3.2-1.5-6-2.1-8.7l0.3,0.2c-5.8,0.1-10.6,0.1-14.8,0.2l0.2-0.2c-0.8,3.5-1.4,6.4-1.9,8.8l0,0.1l-0.1,0
								c-3.1,0.9-5.4,1.9-6.8,2.6c-0.7,0.4-1.2,0.6-1.6,0.8C1794.6,1167.4,1794.4,1167.5,1794.4,1167.5c0,0,0.2-0.1,0.5-0.3
								c0.3-0.2,0.9-0.5,1.6-0.9c1.4-0.8,3.6-1.8,6.8-2.8l-0.1,0.1c0.5-2.4,1.1-5.3,1.8-8.8l0-0.2l0.2,0c4.2-0.1,9.1-0.2,14.8-0.3
								l0.2,0l0.1,0.2c0.7,2.7,1.4,5.5,2.2,8.7l-0.2-0.2c3,0.7,6,1.9,9.1,3.5l-0.3,0c2.4-1.6,4.9-3.2,7.5-4.9l0.2-0.2l0.2,0.2
								c3.4,3.3,6.9,6.7,10.7,10.3l0.2,0.2l-0.2,0.3c-1.5,2.5-3,5-4.6,7.7l0-0.4c1.7,2.7,3,5.8,3.9,9l-0.3-0.3
								c2.9,0.6,5.8,1.2,8.8,1.8l0.3,0.1l0,0.3c0.1,4.8,0.2,9.8,0.3,14.8l0,0.3l-0.3,0.1c-2.9,0.7-5.8,1.4-8.7,2.1l0.3-0.3
								c-0.8,3.1-2,6.2-3.6,9.1l0-0.5c1.6,2.5,3.3,5,4.9,7.5l0.2,0.3l-0.3,0.3c-3.4,3.5-6.8,7.1-10.3,10.7l-0.3,0.3l-0.3-0.2
								c-2.5-1.5-5.1-3.1-7.7-4.6h0.5l0,0c-2.9,1.7-6,3.1-9,3.9l0.3-0.3c-0.6,3-1.3,6-1.8,8.8l-0.1,0.4l-0.4,0
								c-5.1,0.1-10.1,0.2-14.8,0.3l-0.4,0l-0.1-0.3c-0.7-3-1.5-6-2.1-8.7l0.3,0.3c-3.3-0.8-6.4-2.1-9.1-3.6l0.4,0
								c-2.6,1.7-5.2,3.4-7.5,4.9l-0.3,0.2l-0.2-0.2c-3.7-3.6-7.3-7.1-10.7-10.3l-0.2-0.2l0.2-0.3c1.6-2.7,3.2-5.3,4.7-7.7l0,0.4
								c-1.8-2.9-3.1-6-3.9-9l0.3,0.3c-3.1-0.6-6.1-1.3-8.8-1.8l-0.3-0.1l0-0.3c-0.1-5.2-0.2-10.2-0.2-14.8l0-0.3l0.3-0.1
								c3.1-0.7,6-1.5,8.7-2.1l-0.2,0.2c0.8-3.3,2.1-6.4,3.6-9.1l0,0.3c-1.8-2.7-3.4-5.2-4.9-7.5l-0.1-0.2l0.1-0.1
								c4.2-4.3,7.7-7.9,10.4-10.6l0.1-0.1l0.1,0.1c2.5,1.5,4.3,2.7,5.6,3.5c0.6,0.4,1.1,0.7,1.5,0.9
								C1794.3,1167.4,1794.4,1167.5,1794.4,1167.5z"/>
						</g>
					</g>
				</g>
			</g>
		</g>
	</g>
	<g>
		<g>
			<g>
				<g>
					<g>
						<path class="st4" d="M194.4,1319.8c12-5.6,26.2-6.3,39.5-4.3c7.2,1.1,14.6,3,19.5,7.9c4.9,4.9,5.8,13.5,0.2,17.6
							c-3.3,2.5-8,2.9-12.3,2.8c-10.4-0.1-22-1.8-30.4,3.9c-4.8,3.2-7.9,8.6-13.6,10.2c-5.6,1.6-11.9-1.4-14.8-6
							c-3-4.6-3.1-10.2-1.7-15.4C180.8,1336.6,182.2,1325.5,194.4,1319.8z"/>
					</g>
				</g>
			</g>
			<g>
				<g>
					<g>
						<path class="st4" d="M166.8,1271.7c7.3,9.5,21.6,6.4,28.3,0.6c6.6-5.8,9.4-14.2,12-22.2c5.8-18.3,11.7-37.5,7.4-56.2
							c-1.3-5.6-3.6-11.1-7.9-15.3c-4.3-4.1-11-6.6-17.1-5.1c-7.2,1.7-11.7,8.1-14.9,14.2c-9.5,17.9-14.5,37.7-14.6,57.5
							C159.8,1254.3,161.1,1264,166.8,1271.7"/>
					</g>
				</g>
			</g>
			<g>
				<g>
					<g>
						<path class="st4" d="M146.6,1285.3c8-8.6,9.5-21.1,5.9-31.8c-3.6-10.7-11.6-19.9-20.8-27.3c-10.8-8.7-23.6-15.6-37.3-19.9
							c-5.4-1.7-11.1-3.1-16.8-2.6c-5.7,0.5-11.4,3.1-14.1,7.7c-3.9,6.8-0.2,15,3.9,21.7c7.2,11.8,15.4,23.1,24.5,33.8
							c7.3,8.6,15.7,17,26.9,20.9c11.2,3.9,22.8,3.4,28.7-3.6"/>
					</g>
				</g>
			</g>
			<g>
				<g>
					<g>
						<g>
							<path class="st1" d="M166.3,1415.1c0.1,0,0.4-1.5,0.7-4.3c0.3-3.1,0.8-7.1,1.3-11.8c0.6-5,1.4-10.9,2.9-17.3
								c1.5-6.4,3.9-13.4,6.9-20.4c3.2-7,7-13.4,11.5-18.5c4.5-5.1,9.7-8.8,14.5-11c4.9-2.2,9.2-3.1,12.3-3.5c3-0.3,4.7-0.5,4.7-0.6
								c0-0.1-1.7-0.1-4.8-0.1c-3.1,0.2-7.6,0.9-12.8,3c-5.1,2.1-10.7,5.8-15.3,11c-4.7,5.2-8.7,11.7-11.9,18.8
								c-3.1,7.2-5.4,14.2-6.9,20.7c-1.4,6.5-2.1,12.5-2.5,17.5c-0.4,5-0.6,9.1-0.6,11.9C166.2,1413.5,166.2,1415.1,166.3,1415.1z"
								/>
						</g>
					</g>
				</g>
			</g>
			<g>
				<g>
					<g>
						<g>
							<path class="st1" d="M167.2,1406c0.1,0,0.1-0.7,0.1-2c0-1.5,0-3.4,0-5.7c0-5,0-12.2,0.3-21.1c0.5-17.8,2.2-36.9,5.4-63.9
								c3.1-25.4,7.2-54.9,11.6-74.1c0.9-4.4,1.9-8.3,2.8-11.7c0.8-3.4,1.6-6.4,2.3-8.8c0.6-2.3,1.1-4.1,1.5-5.6
								c0.3-1.3,0.5-2,0.4-2c-0.1,0-0.3,0.6-0.8,1.9c-0.5,1.4-1.1,3.3-1.8,5.5c-0.8,2.4-1.7,5.3-2.6,8.8c-1,3.4-2,7.3-3.1,11.7
								c-4.3,17.4-8.9,41.7-12.2,68.7c-3.3,27-4.7,51.6-4.9,69.5c-0.1,8.9,0.1,16.1,0.3,21.1c0.2,2.3,0.3,4.2,0.4,5.7
								C167.1,1405.3,167.2,1406,167.2,1406z"/>
						</g>
					</g>
				</g>
			</g>
			<g>
				<g>
					<g>
						<g>
							<path class="st1" d="M167.4,1358.5c0.1,0,0.1-2.1,0-6c-0.2-3.8-0.8-9.4-2-16.2c-1.3-6.8-3-14.9-5.8-23.6
								c-1.2-4-4-13.6-10.9-28c-9.1-19.4-21.3-35.3-32-45.2c-2.5-2.6-5.3-4.5-7.5-6.3c-1.2-0.9-2.2-1.8-3.2-2.5
								c-1-0.7-2-1.3-2.9-1.8c-3.5-2.2-5.5-3.3-5.6-3.2c-0.3,0.4,7.9,4.8,18.2,14.7c10.3,10,22.3,25.7,31.2,45
								c5,10.5,8.5,19.8,11,27.7c2.9,8.7,4.8,16.7,6.2,23.4c1.4,6.7,2.2,12.2,2.6,16.1C166.9,1356.4,167.2,1358.5,167.4,1358.5z"/>
						</g>
					</g>
				</g>
			</g>
		</g>
		<g>
			<g>
				<g>
					<polygon class="st1" points="111.8,1393.8 117.1,1458.9 209.5,1458.9 214.8,1393.8 					"/>
				</g>
			</g>
		</g>
		<g>
			<g>
				<g>
					<rect x="102.9" y="1368.1" class="st1" width="122.9" height="25.7"/>
				</g>
			</g>
		</g>
		<g>
			<g>
				<g>
					<polygon class="st4" points="102.9,1456.4 102.9,1463.5 108.7,1463.5 223.8,1463.5 223.8,1456.4 					"/>
				</g>
			</g>
		</g>
		<g>
			<g>
				<g>
					<polygon class="st1" points="114.3,1476.1 108.7,1463.5 219.4,1463.5 212.8,1476.1 					"/>
				</g>
			</g>
		</g>
		<g>
			<g>
				<g>
					<g>
						<path class="st5" d="M213,1415.1c0,0-0.1,0.2-0.4,0.6c-0.4,0.4-0.8,1-1.4,1.7c-1.3,1.5-3.1,3.6-5.4,6.2l-0.2,0.3l-0.2-0.3
							c-3.4-4.2-7.9-9.9-13.2-16.6h0.8c-3.9,5-8.3,10.7-13,16.7l-0.4,0.5l-0.5-0.5c-4.8-5.2-10-10.8-15.4-16.6l0.9,0
							c-0.3,0.3-0.6,0.6-0.8,1c-4.8,5.4-9.4,10.7-13.8,15.7l-0.5,0.5l-0.4-0.5c-4.7-6-9.1-11.6-13-16.7l0.8,0
							c-6.4,6.6-11.9,12.2-16,16.6l-0.3,0.3l-0.2-0.3c-2.1-3.2-3.8-5.8-5-7.6c-0.5-0.8-1-1.5-1.3-2c-0.3-0.5-0.4-0.7-0.4-0.7
							c0,0,0.2,0.2,0.5,0.6c0.4,0.5,0.8,1.2,1.4,2c1.3,1.8,3.1,4.3,5.3,7.5l-0.5,0c4.1-4.4,9.5-10.1,15.8-16.8l0.4-0.4l0.4,0.5
							c4,5.1,8.4,10.6,13.1,16.6l-0.9,0c4.4-5,9-10.3,13.8-15.7c0.3-0.3,0.6-0.7,0.9-1l0.4-0.5l0.5,0.5c5.4,5.9,10.6,11.5,15.4,16.7
							l-0.9,0c4.8-6,9.2-11.6,13.2-16.6l0.4-0.5l0.4,0.5c5.2,6.7,9.6,12.5,12.9,16.8l-0.5,0c2.4-2.6,4.2-4.6,5.6-6.1
							c0.6-0.6,1.1-1.2,1.5-1.6C212.8,1415.2,213,1415,213,1415.1z"/>
					</g>
				</g>
			</g>
		</g>
		<g>
			<g>
				<g>
					<g>
						<path class="st5" d="M216,1393.3c0,0.3-23.2,0.5-51.7,0.5c-28.6,0-51.7-0.2-51.7-0.5c0-0.3,23.2-0.5,51.7-0.5
							C192.9,1392.8,216,1393,216,1393.3z"/>
					</g>
				</g>
			</g>
		</g>
		<g>
			<g>
				<g>
					<g>
						<path class="st5" d="M220.7,1464.2c0,0.3-25.2,0.5-56.2,0.5c-31.1,0-56.2-0.2-56.2-0.5c0-0.3,25.2-0.5,56.2-0.5
							C195.5,1463.7,220.7,1464,220.7,1464.2z"/>
					</g>
				</g>
			</g>
		</g>
	</g>
	<g>
		<g>
			<g>
				<g>
					<g>
						<path class="st1" d="M383.6,1221.6H281.3c-2.3,0-4.2-1.9-4.2-4.2v-102.3c0-2.3,1.9-4.2,4.2-4.2h102.3c2.3,0,4.2,1.9,4.2,4.2
							v102.3C387.8,1219.7,385.9,1221.6,383.6,1221.6z"/>
					</g>
				</g>
			</g>
		</g>
		<g>
			<g>
				<g>
					<g>
						<path class="st2" d="M308,1193.2c-0.7,0-1.3-0.3-1.7-0.7c-1-1-1-2.5,0-3.5l13.1-13.1c-7.1-8.8-6.4-21.9,1.6-30
							c4.2-4.2,9.9-6.6,15.9-6.6c6,0,11.7,2.3,15.9,6.6c8.8,8.8,8.8,23,0,31.8c-4.2,4.2-9.9,6.6-15.9,6.6c-5.2,0-10-1.7-14.1-4.9
							l-13.1,13.1C309.2,1192.9,308.6,1193.2,308,1193.2z M336.9,1144.2c-4.7,0-9.1,1.8-12.4,5.1c-3.3,3.3-5.1,7.7-5.1,12.4
							c0,4.7,1.8,9.1,5.1,12.4c3.3,3.3,7.7,5.1,12.4,5.1c4.7,0,9.1-1.8,12.4-5.1c3.3-3.3,5.1-7.7,5.1-12.4c0-4.7-1.8-9.1-5.1-12.4
							C346,1146.1,341.6,1144.2,336.9,1144.2z"/>
					</g>
				</g>
			</g>
		</g>
	</g>
	<g>
		<g>
			<g>
				<g>
					<g>
						<g>
							<path class="st1" d="M1650.8,613.4h-97.1c-2.2,0-3.9-1.8-3.9-3.9v-97.1c0-2.2,1.8-3.9,3.9-3.9h97.1c2.2,0,3.9,1.8,3.9,3.9
								v97.1C1654.7,611.6,1653,613.4,1650.8,613.4z"/>
						</g>
					</g>
				</g>
			</g>
		</g>
		<g>
			<g>
				<g>
					<g>
						<path class="st2" d="M1606.5,579.1c0,2.4-2,4.4-4.4,4.4c-2.4,0-4.4-2-4.4-4.4c0-2.4,2-4.4,4.4-4.4
							C1604.6,574.6,1606.6,576.6,1606.5,579.1z"/>
					</g>
					<g>
						<g>
							<path class="st2" d="M1593.3,573.4c4.9-5.1,12.8-5.3,17.7-0.2c2.3,2.3,5.8-1.2,3.5-3.5c-6.8-6.9-18.1-6.9-24.8,0.2
								C1587.6,572.1,1591.1,575.7,1593.3,573.4L1593.3,573.4z"/>
						</g>
					</g>
					<g>
						<g>
							<path class="st2" d="M1578.2,552.8c6.7-5.8,14.8-9.5,23.8-9.5c8.9,0,17.7,3.1,24.2,9.3c2.3,2.2,5.9-1.3,3.5-3.5
								c-7.5-7-17.5-10.8-27.7-10.7c-10.4,0-19.5,4.3-27.3,10.9C1572.3,551.3,1575.8,554.9,1578.2,552.8L1578.2,552.8z"/>
						</g>
					</g>
					<g>
						<g>
							<path class="st2" d="M1584.2,564.2c4.5-4.9,10.8-7.9,17.5-8.1c6.9-0.2,13.5,2.7,18.3,7.6c2.2,2.3,5.8-1.2,3.5-3.5
								c-5.6-5.8-13.6-9.2-21.8-9c-7.9,0.2-15.6,3.7-21,9.5C1578.5,563,1582,566.5,1584.2,564.2L1584.2,564.2z"/>
						</g>
					</g>
				</g>
			</g>
		</g>
	</g>
	<g>
		<g>
			<path class="st0" d="M1242.7,999.4c0.3,0,0.6,11.8,0.6,26.3c0,14.5-0.3,26.3-0.6,26.3c-0.3,0-0.6-11.8-0.6-26.3
				C1242.1,1011.2,1242.4,999.4,1242.7,999.4z"/>
		</g>
	</g>
	<g>
		<g>
			<path class="st0" d="M1045,719c-0.3,0-0.6-19.6-0.6-43.8c0-24.2,0.3-43.8,0.6-43.8c0.3,0,0.6,19.6,0.6,43.8
				C1045.6,699.4,1045.3,719,1045,719z"/>
		</g>
	</g>
	<g>
		<g>
			<path class="st0" d="M977.3,822.8c0,0-0.6,0.1-1.6,0.1c-1.2,0-2.7,0.1-4.6,0.1c-4.2,0-10,0.1-17,0.2c-14.5,0-34.3,0.1-56.2,0.2
				c-2.7,0-5.5,0-8.1,0c-1.3,0-2.7,0-4.1-0.2c-1.4-0.2-2.7-0.5-3.9-1.1c-5-2.2-8.2-6.8-9.6-11.4c-0.7-2.3-1-4.7-1-7
				c0-2.3,0.1-4.4,0.1-6.6c0.1-4.2,0.1-8.2,0.2-11.8c0.1-7.1,0.2-12.9,0.3-17c0.1-1.9,0.1-3.4,0.1-4.6c0-1.1,0.1-1.6,0.1-1.6
				c0,0,0.1,0.6,0.1,1.6c0,1.2,0,2.7,0.1,4.6c0,4.2,0,10,0.1,17c0,3.6,0,7.5,0,11.8c0.1,4.2-0.5,8.8,1,13.2
				c1.4,4.4,4.5,8.7,9.1,10.7c1.1,0.5,2.4,0.8,3.6,1c1.2,0.2,2.5,0.1,3.9,0.1c2.7,0,5.4,0,8.1,0c21.9,0.1,41.7,0.1,56.2,0.2
				c7.1,0.1,12.9,0.1,17,0.2c1.9,0,3.5,0.1,4.6,0.1C976.7,822.7,977.3,822.7,977.3,822.8z"/>
		</g>
	</g>
	<g>
		<g>
			<g>
				<g>
					<g>
						<g>
							<path class="st2" d="M1087.8,630.9h-93.8c-13.4,0-24.2-10.9-24.2-24.2v-93.8c0-13.4,10.9-24.2,24.2-24.2h93.8
								c13.4,0,24.2,10.9,24.2,24.2v93.8C1112.1,620.1,1101.2,630.9,1087.8,630.9z"/>
						</g>
						<g>
							<g>
								<path class="st0" d="M1087.8,630.9c0-0.1,1.9,0,5.3-0.7c3.3-0.8,8.4-2.7,12.8-7.8c2.2-2.5,4.1-5.7,5-9.6
									c1.1-3.9,0.7-8.3,0.8-13.1c0-9.5-0.1-20.3-0.1-32.2c0-11.9,0-25-0.1-39c0-3.5,0-7.1,0-10.7c0-3.6,0.2-7.3-0.8-10.8
									c-1.8-7.1-7.2-13.4-14.5-16.1c-1.8-0.7-3.7-1.1-5.6-1.4c-1.9-0.2-3.9-0.2-5.9-0.2c-4,0-8.1,0-12.2,0c-8.3,0-16.7,0-25.3,0
									c-17.2,0-34.9,0-53.1,0c-4.4,0-8.8,1.3-12.5,3.6c-1.9,1.2-3.6,2.6-5,4.2c-1.5,1.6-2.7,3.4-3.6,5.4c-1,1.9-1.6,4-2,6.1
									c-0.4,2.1-0.4,4.2-0.4,6.4c0,4.4,0,8.7,0,13c0,17.2,0,33.7,0,49.5c0,7.9,0,15.6,0,23c0.1,3.7-0.2,7.4,0.5,10.9
									c0.7,3.5,2.2,6.7,4.3,9.5c4.1,5.5,10.5,8.9,16.8,9.4c6.4,0.2,12.7,0.1,18.7,0.1c23.8,0.1,43.1,0.1,56.5,0.2
									c6.6,0,11.8,0.1,15.4,0.1c1.7,0,3,0,4,0.1C1087.4,630.9,1087.8,630.9,1087.8,630.9s-0.5,0-1.4,0.1c-0.9,0-2.3,0-4,0.1
									c-3.6,0-8.7,0.1-15.4,0.1c-13.4,0-32.7,0.1-56.5,0.2c-6,0-12.2,0.1-18.8-0.1c-6.6-0.5-13.3-4-17.6-9.8
									c-2.2-2.9-3.7-6.2-4.5-9.9c-0.8-3.7-0.4-7.4-0.5-11.1c0-7.5,0-15.2,0-23c0-15.8,0-32.3,0-49.5c0-4.3,0-8.6,0-13
									c0-2.2,0-4.4,0.4-6.7c0.5-2.2,1.1-4.4,2.1-6.4c1-2,2.3-4,3.8-5.6c1.5-1.7,3.3-3.2,5.3-4.4c3.9-2.5,8.5-3.8,13.2-3.8
									c18.2,0,36,0,53.1,0c8.6,0,17,0,25.3,0c4.1,0,8.2,0,12.2,0c2,0,4,0,6.1,0.2c2,0.3,4,0.7,5.9,1.5c7.6,2.9,13.3,9.5,15.1,16.9
									c1,3.7,0.8,7.5,0.8,11.1c0,3.6,0,7.2,0,10.7c0,14-0.1,27.1-0.1,39c0,11.9-0.1,22.7-0.1,32.2c-0.1,4.7,0.3,9.2-0.9,13.2
									c-1,4-3,7.3-5.2,9.8c-4.5,5.1-9.7,7-13.1,7.7c-1.7,0.3-3.1,0.5-4,0.5C1088.3,630.9,1087.8,630.9,1087.8,630.9z"/>
							</g>
						</g>
					</g>
				</g>
			</g>
		</g>
	</g>
	<g>
		<g>
			<g>
				<g>
					<g>
						<g>
							<path class="st2" d="M1263.4,679.7h-93.8c-13.4,0-24.2-10.9-24.2-24.2v-93.8c0-13.4,10.9-24.2,24.2-24.2h93.8
								c13.4,0,24.2,10.9,24.2,24.2v93.8C1287.7,668.9,1276.8,679.7,1263.4,679.7z"/>
						</g>
						<g>
							<g>
								<path class="st0" d="M1263.4,679.7c0-0.1,1.9,0,5.3-0.7c3.3-0.8,8.4-2.7,12.8-7.8c2.2-2.5,4.1-5.7,5-9.6
									c1.1-3.9,0.7-8.3,0.8-13.1c0-9.5-0.1-20.3-0.1-32.2c0-11.9,0-25-0.1-39c0-3.5,0-7.1,0-10.7c0-3.6,0.2-7.3-0.8-10.8
									c-1.8-7.1-7.2-13.4-14.5-16.1c-1.8-0.7-3.7-1.1-5.6-1.4c-1.9-0.2-3.9-0.2-5.9-0.2c-4,0-8.1,0-12.2,0c-8.3,0-16.7,0-25.3,0
									c-17.2,0-34.9,0-53.1,0c-4.4,0-8.8,1.3-12.5,3.6c-1.9,1.2-3.6,2.6-5,4.2c-1.5,1.6-2.7,3.4-3.6,5.4c-1,1.9-1.6,4-2,6.1
									c-0.4,2.1-0.4,4.2-0.4,6.4c0,4.4,0,8.7,0,13c0,17.2,0,33.7,0,49.5c0,7.9,0,15.6,0,23c0.1,3.7-0.2,7.4,0.5,10.9
									c0.7,3.5,2.2,6.7,4.3,9.5c4.1,5.5,10.5,8.9,16.8,9.4c6.4,0.2,12.7,0.1,18.7,0.1c23.8,0.1,43.1,0.1,56.5,0.2
									c6.6,0,11.8,0.1,15.4,0.1c1.7,0,3,0,4,0.1C1263,679.7,1263.4,679.7,1263.4,679.7s-0.5,0-1.4,0.1c-0.9,0-2.3,0-4,0.1
									c-3.6,0-8.7,0.1-15.4,0.1c-13.4,0-32.7,0.1-56.5,0.2c-6,0-12.2,0.1-18.8-0.1c-6.6-0.5-13.3-4-17.6-9.8
									c-2.2-2.9-3.7-6.2-4.5-9.9c-0.8-3.7-0.4-7.4-0.5-11.1c0-7.5,0-15.2,0-23c0-15.8,0-32.3,0-49.5c0-4.3,0-8.6,0-13
									c0-2.2,0-4.4,0.4-6.7c0.5-2.2,1.1-4.4,2.1-6.4c1-2,2.3-4,3.8-5.6c1.5-1.7,3.3-3.2,5.3-4.4c3.9-2.5,8.5-3.8,13.2-3.8
									c18.2,0,36,0,53.1,0c8.6,0,17,0,25.3,0c4.1,0,8.2,0,12.2,0c2,0,4,0,6.1,0.2c2,0.3,4,0.7,5.9,1.5c7.6,2.9,13.3,9.5,15.1,16.9
									c1,3.7,0.8,7.5,0.8,11.1c0,3.6,0,7.2,0,10.7c0,14-0.1,27.1-0.1,39c0,11.9-0.1,22.7-0.1,32.2c-0.1,4.7,0.3,9.2-0.9,13.2
									c-1,4-3,7.3-5.2,9.8c-4.5,5.1-9.7,7-13.1,7.7c-1.7,0.3-3.1,0.5-4,0.5C1263.9,679.8,1263.4,679.7,1263.4,679.7z"/>
							</g>
						</g>
					</g>
				</g>
			</g>
		</g>
	</g>
	<g>
		<g>
			<g>
				<g>
					<g>
						<g>
							<path class="st2" d="M1418.1,851.5h-93.8c-13.4,0-24.2-10.9-24.2-24.2v-93.8c0-13.4,10.9-24.2,24.2-24.2h93.8
								c13.4,0,24.2,10.9,24.2,24.2v93.8C1442.4,840.7,1431.5,851.5,1418.1,851.5z"/>
						</g>
						<g>
							<g>
								<path class="st0" d="M1418.1,851.5c0-0.1,1.9,0,5.3-0.7c3.3-0.8,8.4-2.7,12.8-7.8c2.2-2.5,4.1-5.7,5-9.6
									c1.1-3.9,0.7-8.3,0.8-13.1c0-9.5-0.1-20.3-0.1-32.2c0-11.9,0-25-0.1-39c0-3.5,0-7.1,0-10.7c0-3.6,0.2-7.3-0.8-10.8
									c-1.8-7.1-7.2-13.4-14.5-16.1c-1.8-0.7-3.7-1.1-5.6-1.4c-1.9-0.2-3.9-0.2-5.9-0.2c-4,0-8.1,0-12.2,0c-8.3,0-16.7,0-25.3,0
									c-17.2,0-34.9,0-53.1,0c-4.4,0-8.8,1.3-12.5,3.6c-1.9,1.2-3.6,2.6-5,4.2c-1.5,1.6-2.7,3.4-3.6,5.4c-1,1.9-1.6,4-2,6.1
									c-0.4,2.1-0.4,4.2-0.4,6.4c0,4.4,0,8.7,0,13c0,17.2,0,33.7,0,49.5c0,7.9,0,15.6,0,23c0.1,3.7-0.2,7.4,0.5,10.9
									c0.7,3.5,2.2,6.7,4.3,9.5c4.1,5.5,10.5,8.9,16.8,9.4c6.4,0.2,12.7,0.1,18.7,0.1c23.8,0.1,43.1,0.1,56.5,0.2
									c6.6,0,11.8,0.1,15.4,0.1c1.7,0,3,0,4,0.1C1417.7,851.5,1418.1,851.5,1418.1,851.5s-0.5,0-1.4,0.1c-0.9,0-2.3,0-4,0.1
									c-3.6,0-8.7,0.1-15.4,0.1c-13.4,0-32.7,0.1-56.5,0.2c-6,0-12.2,0.1-18.8-0.1c-6.6-0.5-13.3-4-17.6-9.8
									c-2.2-2.9-3.7-6.2-4.5-9.9c-0.8-3.7-0.4-7.4-0.5-11.1c0-7.5,0-15.2,0-23c0-15.8,0-32.3,0-49.5c0-4.3,0-8.6,0-13
									c0-2.2,0-4.4,0.4-6.7c0.5-2.2,1.1-4.4,2.1-6.4c1-2,2.3-4,3.8-5.6c1.5-1.7,3.3-3.2,5.3-4.4c3.9-2.5,8.5-3.8,13.2-3.8
									c18.2,0,36,0,53.1,0c8.6,0,17,0,25.3,0c4.1,0,8.2,0,12.2,0c2,0,4,0,6.1,0.2c2,0.3,4,0.7,5.9,1.5c7.6,2.9,13.3,9.5,15.1,16.9
									c1,3.7,0.8,7.5,0.8,11.1c0,3.6,0,7.2,0,10.7c0,14-0.1,27.1-0.1,39c0,11.9-0.1,22.7-0.1,32.2c-0.1,4.7,0.3,9.2-0.9,13.2
									c-1,4-3,7.3-5.2,9.8c-4.5,5.1-9.7,7-13.1,7.7c-1.7,0.3-3.1,0.5-4,0.5C1418.6,851.5,1418.1,851.5,1418.1,851.5z"/>
							</g>
						</g>
					</g>
				</g>
			</g>
		</g>
	</g>
	<g>
		<g>
			<g>
				<g>
					<g>
						<g>
							<path class="st2" d="M893.7,750.9h-93.8c-13.4,0-24.2-10.9-24.2-24.2v-93.8c0-13.4,10.9-24.2,24.2-24.2h93.8
								c13.4,0,24.2,10.9,24.2,24.2v93.8C917.9,740,907,750.9,893.7,750.9z"/>
						</g>
						<g>
							<g>
								<path class="st0" d="M893.7,750.9c0-0.1,1.9,0,5.3-0.7c3.3-0.8,8.4-2.7,12.8-7.8c2.2-2.5,4.1-5.7,5-9.6
									c1.1-3.9,0.7-8.3,0.8-13.1c0-9.5-0.1-20.3-0.1-32.2c0-11.9,0-25-0.1-39c0-3.5,0-7.1,0-10.7c0-3.6,0.2-7.3-0.8-10.8
									c-1.8-7.1-7.2-13.4-14.5-16.1c-1.8-0.7-3.7-1.1-5.6-1.4c-1.9-0.2-3.9-0.2-5.9-0.2c-4,0-8.1,0-12.2,0c-8.3,0-16.7,0-25.3,0
									c-17.2,0-34.9,0-53.1,0c-4.4,0-8.8,1.3-12.5,3.6c-1.9,1.2-3.6,2.6-5,4.2c-1.5,1.6-2.7,3.4-3.6,5.4c-1,1.9-1.6,4-2,6.1
									c-0.4,2.1-0.4,4.2-0.4,6.4c0,4.4,0,8.7,0,13c0,17.2,0,33.7,0,49.5c0,7.9,0,15.6,0,23c0.1,3.7-0.2,7.4,0.5,10.9
									c0.7,3.5,2.2,6.7,4.3,9.5c4.1,5.5,10.5,8.9,16.8,9.4c6.4,0.2,12.7,0.1,18.7,0.1c23.8,0.1,43.1,0.1,56.5,0.2
									c6.6,0,11.8,0.1,15.4,0.1c1.7,0,3,0,4,0.1C893.2,750.8,893.7,750.9,893.7,750.9s-0.5,0-1.4,0.1c-0.9,0-2.3,0-4,0.1
									c-3.6,0-8.7,0.1-15.4,0.1c-13.4,0-32.7,0.1-56.5,0.2c-6,0-12.2,0.1-18.8-0.1c-6.6-0.5-13.3-4-17.6-9.8
									c-2.2-2.9-3.7-6.2-4.5-9.9c-0.8-3.7-0.4-7.4-0.5-11.1c0-7.5,0-15.2,0-23c0-15.8,0-32.3,0-49.5c0-4.3,0-8.6,0-13
									c0-2.2,0-4.4,0.4-6.7c0.5-2.2,1.1-4.4,2.1-6.4c1-2,2.3-4,3.8-5.6c1.5-1.7,3.3-3.2,5.3-4.4c3.9-2.5,8.5-3.8,13.2-3.8
									c18.2,0,36,0,53.1,0c8.6,0,17,0,25.3,0c4.1,0,8.2,0,12.2,0c2,0,4,0,6.1,0.2c2,0.3,4,0.7,5.9,1.5c7.6,2.9,13.3,9.5,15.1,16.9
									c1,3.7,0.8,7.5,0.8,11.1c0,3.6,0,7.2,0,10.7c0,14-0.1,27.1-0.1,39c0,11.9-0.1,22.7-0.1,32.2c-0.1,4.7,0.3,9.2-0.9,13.2
									c-1,4-3,7.3-5.2,9.8c-4.5,5.1-9.7,7-13.1,7.7c-1.7,0.3-3.1,0.5-4,0.5C894.1,750.9,893.7,750.9,893.7,750.9z"/>
							</g>
						</g>
					</g>
				</g>
			</g>
		</g>
	</g>
	<g>
		<g>
			<path class="st0" d="M1303.4,783.3c0,0.3-16.1,0.6-36.1,0.6c-19.9,0-36.1-0.3-36.1-0.6c0-0.3,16.1-0.6,36.1-0.6
				C1287.3,782.7,1303.4,782.9,1303.4,783.3z"/>
		</g>
	</g>
	<g>
		<g>
			<rect x="798.3" y="708.1" class="st6" width="17.9" height="13.7"/>
		</g>
		<g>
			<rect x="821" y="676.4" class="st6" width="17.9" height="45.4"/>
		</g>
		<g>
			<rect x="846" y="695.9" class="st6" width="17.9" height="25.9"/>
		</g>
		<g>
			<rect x="869.8" y="663.2" class="st6" width="17.9" height="58.6"/>
		</g>
		<g>
			<path class="st6" d="M806.1,693.9c-4.9,0-8.9-4-8.9-8.9c0-4.9,4-8.9,8.9-8.9c4.9,0,8.9,4,8.9,8.9
				C815,689.9,811,693.9,806.1,693.9z M806.1,678.4c-3.6,0-6.6,3-6.6,6.6c0,3.6,3,6.6,6.6,6.6c3.6,0,6.6-3,6.6-6.6
				C812.7,681.4,809.7,678.4,806.1,678.4z"/>
		</g>
		<g>
			<path class="st6" d="M831.8,659.9c-4.9,0-8.9-4-8.9-8.9c0-4.9,4-8.9,8.9-8.9c4.9,0,8.9,4,8.9,8.9
				C840.7,655.9,836.7,659.9,831.8,659.9z M831.8,644.4c-3.6,0-6.6,3-6.6,6.6c0,3.6,3,6.6,6.6,6.6c3.6,0,6.6-3,6.6-6.6
				C838.4,647.4,835.4,644.4,831.8,644.4z"/>
		</g>
		<g>
			<path class="st6" d="M855,681.5c-4.9,0-8.9-4-8.9-8.9c0-4.9,4-8.9,8.9-8.9c4.9,0,8.9,4,8.9,8.9
				C863.9,677.5,859.9,681.5,855,681.5z M855,665.9c-3.6,0-6.6,3-6.6,6.6s3,6.6,6.6,6.6c3.6,0,6.6-3,6.6-6.6S858.6,665.9,855,665.9z
				"/>
		</g>
		<g>
			<path class="st6" d="M879.8,650.2c-4.9,0-8.9-4-8.9-8.9c0-4.9,4-8.9,8.9-8.9c4.9,0,8.9,4,8.9,8.9
				C888.7,646.2,884.7,650.2,879.8,650.2z M879.8,634.7c-3.6,0-6.6,3-6.6,6.6c0,3.6,3,6.6,6.6,6.6c3.6,0,6.6-3,6.6-6.6
				C886.4,637.7,883.4,634.7,879.8,634.7z"/>
		</g>
		<g>
			
				<rect x="854.8" y="656.1" transform="matrix(0.575 -0.8181 0.8181 0.575 -169.1205 988.9089)" class="st6" width="25.1" height="2.3"/>
		</g>
		<g>
			
				<rect x="842.1" y="655" transform="matrix(0.7227 -0.6912 0.6912 0.7227 -224.3962 766.6825)" class="st6" width="2.3" height="15.9"/>
		</g>
		<g>
			
				<rect x="805.3" y="666.9" transform="matrix(0.6132 -0.7899 0.7899 0.6132 -211.17 904.9314)" class="st6" width="26.4" height="2.3"/>
		</g>
	</g>
	<g>
		<path class="st0" d="M881.3,752.5c0,3.8-3,6.8-6.8,6.8c-3.8,0-6.8-3-6.8-6.8c0-3.8,3-6.8,6.8-6.8
			C878.3,745.7,881.3,748.8,881.3,752.5z"/>
	</g>
	<g>
		<path class="st0" d="M1051.7,630.9c0,3.8-3,6.8-6.8,6.8c-3.8,0-6.8-3-6.8-6.8c0-3.8,3-6.8,6.8-6.8
			C1048.6,624.1,1051.7,627.2,1051.7,630.9z"/>
	</g>
	<g>
		<path class="st0" d="M1306.4,783.3c0,3.8-3,6.8-6.8,6.8c-3.8,0-6.8-3-6.8-6.8c0-3.8,3-6.8,6.8-6.8
			C1303.4,776.5,1306.4,779.5,1306.4,783.3z"/>
	</g>
	<g>
		<path class="st0" d="M1225.1,680.8c0,3.8-3,6.8-6.8,6.8c-3.8,0-6.8-3-6.8-6.8c0-3.8,3-6.8,6.8-6.8
			C1222.1,674,1225.1,677,1225.1,680.8z"/>
	</g>
	<g>
		<g>
			<g>
				<g>
					<g>
						<g>
							<path class="st2" d="M835.3,553.6h-43.8c-13.4,0-24.2-10.9-24.2-24.2v-43.8c0-13.4,10.9-24.2,24.2-24.2h43.8
								c13.4,0,24.2,10.9,24.2,24.2v43.8C859.5,542.8,848.7,553.6,835.3,553.6z"/>
						</g>
						<g>
							<g>
								<path class="st0" d="M835.3,553.6c0-0.1,1.2-0.1,3.3-0.4c2.1-0.3,5.3-1,8.8-3.2c3.5-2.1,7.4-5.6,9.7-11c1.2-2.7,1.9-5.7,2-9
									c0.1-3.3,0-6.9,0-10.5c0-7.4,0-15.5-0.1-24.2c0-2.2,0-4.4,0-6.6c0-2.3,0.1-4.5-0.3-6.7c-0.3-2.2-1-4.5-2.1-6.5
									c-1-2.1-2.3-4.1-4-5.8c-3.2-3.5-7.7-6-12.6-7.1c-2.5-0.5-5-0.5-7.6-0.5c-2.6,0-5.3,0-7.9,0c-10.7,0-21.7,0-33,0
									c-5.5,0-10.9,2-15.1,5.4c-4.1,3.4-7,8.2-8.1,13.3c-0.5,2.6-0.5,5.1-0.5,7.8c0,2.6,0,5.2,0,7.8c0,5.1,0,10.1,0,15
									c0,4.9,0,9.7,0,14.3c0,2.3-0.1,4.6,0.2,6.8c0.2,2.2,0.9,4.3,1.6,6.3c3.3,7.9,10.6,13.1,17.8,14.2c3.6,0.6,7.1,0.3,10.5,0.4
									c3.3,0,6.5,0,9.4,0c5.9,0,10.9,0.1,15.1,0.1c4.1,0,7.3,0.1,9.5,0.1c1,0,1.9,0,2.5,0.1C835,553.6,835.3,553.6,835.3,553.6
									c0,0-0.3,0-0.8,0.1c-0.6,0-1.4,0-2.5,0.1c-2.3,0-5.5,0.1-9.5,0.1c-4.2,0-9.2,0.1-15.1,0.1c-2.9,0-6.1,0-9.4,0
									c-3.3-0.1-6.9,0.3-10.6-0.3c-7.4-1.1-15-6.4-18.6-14.7c-0.8-2.1-1.5-4.2-1.7-6.5c-0.3-2.3-0.2-4.6-0.2-6.9
									c0-4.6,0-9.4,0-14.3c0-4.9,0-9.9,0-15c0-2.6,0-5.2,0-7.8c0-2.6,0-5.3,0.5-8c1.1-5.3,4.1-10.4,8.5-14
									c4.4-3.6,10-5.7,15.8-5.7c11.3,0,22.3,0,33,0c2.7,0,5.3,0,7.9,0c2.6,0,5.3,0,7.8,0.5c5.1,1.1,9.8,3.8,13.2,7.5
									c1.7,1.8,3.1,3.9,4.1,6.1c1.1,2.2,1.8,4.5,2.1,6.9c0.4,2.3,0.3,4.7,0.3,6.9c0,2.2,0,4.5,0,6.6c0,8.7-0.1,16.8-0.1,24.2
									c0,3.7,0,7.2-0.1,10.6c-0.1,3.4-0.9,6.5-2.1,9.3c-2.4,5.5-6.5,9.1-10.1,11.1c-3.6,2.1-6.9,2.8-9,3
									C836.4,553.7,835.3,553.6,835.3,553.6z"/>
							</g>
						</g>
					</g>
				</g>
			</g>
		</g>
		<g>
			<g>
				<g>
					<g>
						<g>
							<path class="st7" d="M817.4,507c3.9-1.6,6.7-5.7,6.7-10.5c0-6.3-4.7-11.4-10.6-11.4c-5.9,0-10.6,5-10.7,11.3
								c0,4.8,2.8,8.9,6.8,10.6c-16.3,2.5-15.6,20.2-15.6,20.2l38.7,0.2C832.7,527.4,833.6,509.5,817.4,507z"/>
							<path class="st0" d="M832.8,527.5L832.8,527.5l-38.8-0.2l0-0.1c0,0-0.2-4.5,1.7-9.2c1.1-2.8,2.6-5.1,4.6-6.9
								c2.4-2.2,5.5-3.6,9.2-4.2c-4-1.8-6.6-5.9-6.6-10.6c0-3,1.1-5.9,3.2-8c2-2.1,4.7-3.3,7.5-3.3c0,0,0,0,0,0
								c5.9,0,10.7,5.2,10.6,11.4c0,4.6-2.6,8.7-6.6,10.5c3.6,0.6,6.7,2,9.1,4.2c1.9,1.8,3.5,4.1,4.5,6.9
								C833,522.9,832.8,527.4,832.8,527.5L832.8,527.5z M794.1,527.2l38.5,0.2c0-0.5,0.1-4.8-1.6-9.2c-1-2.8-2.6-5.1-4.5-6.9
								c-2.4-2.2-5.5-3.6-9.2-4.2l-0.2,0l0.2-0.1c4.1-1.7,6.7-5.8,6.7-10.4c0-6.2-4.7-11.3-10.5-11.3c0,0,0,0,0,0
								c-2.8,0-5.4,1.2-7.4,3.3c-2,2.1-3.1,4.9-3.1,8c0,4.7,2.6,8.8,6.7,10.5l0.2,0.1l-0.2,0c-3.7,0.6-6.8,2-9.3,4.2
								c-2,1.8-3.5,4.1-4.6,6.8C794.1,522.5,794.1,526.7,794.1,527.2z"/>
						</g>
					</g>
				</g>
			</g>
		</g>
	</g>
	<g>
		<g>
			<g>
				<g>
					<g>
						<g>
							<path class="st2" d="M1390.3,999.4h-56.5c-13.4,0-24.2-10.9-24.2-24.2v-56.5c0-13.4,10.9-24.2,24.2-24.2h56.5
								c13.4,0,24.2,10.9,24.2,24.2v56.5C1414.6,988.5,1403.7,999.4,1390.3,999.4z"/>
						</g>
						<g>
							<g>
								<path class="st0" d="M1390.3,999.4c0-0.1,1.3,0,3.8-0.5c2.4-0.4,6.1-1.4,10-4.2c3.8-2.7,7.8-7.4,9.4-14
									c0.9-3.3,0.6-6.9,0.6-10.8c0-3.9,0-7.9,0-12.2c0-8.6,0-17.9-0.1-28c0-2.5,0-5.1,0-7.7c0-2.6,0.1-5.2-0.4-7.8
									c-1-5.1-3.7-10.2-7.9-13.7c-4.2-3.6-9.8-5.7-15.6-5.7c-5.9,0-12,0-18.1,0c-12.3,0-25.1,0-38.1,0c-6.4,0-12.6,2.7-16.9,7.1
									c-4.4,4.4-6.7,10.5-6.7,16.5c0,12.3,0,24.2,0,35.5c0,5.7,0,11.2,0,16.5c0,2.7-0.1,5.3,0.3,7.8c0.3,2.5,1.1,4.9,2.2,7.1
									c2.2,4.4,5.7,7.9,9.7,10.2c4,2.2,8.4,3.2,12.7,3c17.1,0.1,30.9,0.1,40.5,0.2c4.7,0,8.4,0.1,11,0.1c1.2,0,2.2,0,2.9,0.1
									C1390,999.3,1390.3,999.4,1390.3,999.4s-0.3,0-1,0.1c-0.7,0-1.7,0-2.9,0.1c-2.6,0-6.3,0.1-11,0.1c-9.6,0-23.5,0.1-40.5,0.2
									c-4.3,0.2-9-0.8-13.1-3.1c-4.1-2.3-7.8-5.9-10.1-10.6c-1.2-2.3-2-4.8-2.3-7.4c-0.4-2.6-0.3-5.3-0.3-8c0-5.4,0-10.9,0-16.5
									c0-11.3,0-23.2,0-35.5c0-6.3,2.5-12.7,7.1-17.4c4.5-4.7,11.1-7.6,17.8-7.5c13.1,0,25.8,0,38.1,0c6.2,0,12.2,0,18.1,0
									c6.1,0,12,2.2,16.3,6c4.5,3.7,7.3,9,8.3,14.4c0.6,2.7,0.4,5.4,0.4,8c0,2.6,0,5.2,0,7.7c0,10.1-0.1,19.4-0.1,28
									c0,4.3,0,8.4,0,12.2c0,3.8,0.2,7.5-0.8,10.9c-1.7,6.7-5.8,11.5-9.8,14.2c-4,2.8-7.8,3.7-10.2,4c-1.3,0.2-2.2,0.2-2.9,0.2
									C1390.6,999.4,1390.3,999.4,1390.3,999.4z"/>
							</g>
						</g>
					</g>
				</g>
			</g>
		</g>
	</g>
	<g>
		<g>
			<g>
				<g>
					<g>
						<path class="st2" d="M911.1,975.8h-56.5c-13.4,0-24.2-10.9-24.2-24.2v-56.5c0-13.4,10.9-24.2,24.2-24.2h56.5
							c13.4,0,24.2,10.9,24.2,24.2v56.5C935.3,965,924.5,975.8,911.1,975.8z"/>
					</g>
					<g>
						<g>
							<path class="st0" d="M911.1,975.8c0-0.1,1.3,0,3.8-0.5c2.4-0.4,6.1-1.4,10-4.2c3.8-2.7,7.8-7.4,9.4-14
								c0.9-3.3,0.6-6.9,0.6-10.8c0-3.9,0-7.9,0-12.2c0-8.6,0-17.9-0.1-28c0-2.5,0-5.1,0-7.7c0-2.6,0.1-5.2-0.4-7.8
								c-1-5.1-3.7-10.2-7.9-13.7c-4.2-3.6-9.8-5.7-15.6-5.7c-5.9,0-12,0-18.1,0c-12.3,0-25.1,0-38.1,0c-6.4,0-12.6,2.7-16.9,7.1
								c-4.4,4.4-6.7,10.5-6.7,16.5c0,12.3,0,24.2,0,35.5c0,5.7,0,11.2,0,16.5c0,2.7-0.1,5.3,0.3,7.8c0.3,2.5,1.1,4.9,2.2,7.1
								c2.2,4.4,5.7,7.9,9.7,10.2c4,2.2,8.4,3.2,12.7,3c17.1,0.1,30.9,0.1,40.5,0.2c4.7,0,8.4,0.1,11,0.1c1.2,0,2.2,0,2.9,0.1
								C910.7,975.8,911.1,975.8,911.1,975.8s-0.3,0-1,0.1c-0.7,0-1.7,0-2.9,0.1c-2.6,0-6.3,0.1-11,0.1c-9.6,0-23.5,0.1-40.5,0.2
								c-4.3,0.2-9-0.8-13.1-3.1c-4.1-2.3-7.8-5.9-10.1-10.6c-1.2-2.3-2-4.8-2.3-7.4c-0.4-2.6-0.3-5.3-0.3-8c0-5.4,0-10.9,0-16.5
								c0-11.3,0-23.2,0-35.5c0-6.3,2.5-12.7,7.1-17.4c4.5-4.7,11.1-7.6,17.8-7.5c13.1,0,25.8,0,38.1,0c6.2,0,12.2,0,18.1,0
								c6.1,0,12,2.2,16.3,6c4.5,3.7,7.3,9,8.3,14.4c0.6,2.7,0.4,5.4,0.4,8c0,2.6,0,5.2,0,7.7c0,10.1-0.1,19.4-0.1,28
								c0,4.3,0,8.4,0,12.2c0,3.8,0.2,7.5-0.8,10.9c-1.7,6.7-5.8,11.5-9.8,14.2c-4,2.8-7.8,3.7-10.2,4c-1.3,0.2-2.2,0.2-2.9,0.2
								C911.4,975.9,911.1,975.9,911.1,975.8z"/>
						</g>
					</g>
				</g>
			</g>
		</g>
	</g>
	<g>
		<g>
			<g>
				<g>
					<g>
						<path class="st6" d="M887.4,922.8c4.5-1.9,7.7-6.5,7.7-11.9c0-7.1-5.4-12.9-12-13c-6.7,0-12.1,5.7-12.1,12.8
							c0,5.5,3.2,10.2,7.7,12c-18.6,2.8-17.8,23-17.8,23l44,0.2C904.8,946,905.8,925.6,887.4,922.8z"/>
					</g>
				</g>
			</g>
		</g>
	</g>
	<g>
		<g>
			<path class="st0" d="M1035.6,578c-2.6,0-5.3-0.4-7.9-1.3c-13.6-4.4-21.1-19-16.7-32.6c4.4-13.6,19-21.1,32.6-16.7
				c6.6,2.1,12,6.7,15.1,12.9c3.2,6.2,3.7,13.2,1.6,19.8l0,0C1056.7,571,1046.5,578,1035.6,578z M1035.6,530.8
				c-9,0-17.4,5.7-20.3,14.7c-3.6,11.2,2.5,23.2,13.7,26.8c11.2,3.6,23.2-2.5,26.8-13.7l0,0c3.6-11.2-2.5-23.2-13.7-26.8
				C1040,531.1,1037.8,530.8,1035.6,530.8z"/>
		</g>
		<g>
			<path class="st0" d="M1069.9,593.5c-0.6,0-1.3-0.3-1.7-0.8l-19.3-21c-0.9-0.9-0.8-2.4,0.1-3.3c0.9-0.9,2.4-0.8,3.3,0.1l19.3,21
				c0.9,0.9,0.8,2.4-0.1,3.3C1071,593.3,1070.5,593.5,1069.9,593.5z"/>
		</g>
	</g>
	<g>
		<g>
			<path class="st6" d="M1373.1,823.6c-23.9,0-43.3-19.4-43.3-43.3c0-23.9,19.4-43.3,43.3-43.3c23.9,0,43.3,19.4,43.3,43.3
				C1416.3,804.2,1396.9,823.6,1373.1,823.6z M1373.1,739.4c-22.6,0-40.9,18.4-40.9,40.9c0,22.6,18.4,40.9,40.9,40.9
				c22.6,0,40.9-18.4,40.9-40.9C1414,757.8,1395.6,739.4,1373.1,739.4z"/>
		</g>
		<g>
			<path class="st6" d="M1371.8,823.4c-0.2-0.1-5.7-3.2-11.1-10.2c-4.9-6.4-10.7-17.5-10.1-33.8c0.6-16.3,6.8-26.9,11.9-32.9
				c5.5-6.6,10.9-9.2,11.1-9.4l1,2.1c-0.2,0.1-20.6,10.5-21.7,40.2c-1.1,29.7,19.8,41.7,20,41.9L1371.8,823.4z"/>
		</g>
		<g>
			<path class="st6" d="M1373.7,823.4l-1.2-2c0.2-0.1,20.4-13,19.3-42.8c-1.1-29.7-20.6-39.3-20.8-39.3l1-2.1
				c0.9,0.4,21,10.2,22.1,41.4C1395.3,809.7,1373.9,823.3,1373.7,823.4z"/>
		</g>
		<g>
			<path class="st6" d="M1373.7,766.6c-17.5,0-28.8-5.9-35.2-10.9l1.4-1.8c6.1,4.8,16.9,10.4,33.8,10.4c16.3,0,26.6-5.7,32.4-10.4
				l1.5,1.8C1401.5,760.7,1390.7,766.6,1373.7,766.6z"/>
		</g>
		<g>
			<path class="st6" d="M1406.2,805.5c-6.1-4.6-16.9-10.1-33.8-10.1c-16.3,0-26.7,5.5-32.5,10.1l-1.4-1.8
				c6.1-4.8,16.9-10.6,33.9-10.6c17.5,0,28.8,5.8,35.2,10.6L1406.2,805.5z"/>
		</g>
		<g>
			<rect x="1332" y="779.3" class="st6" width="83.2" height="2.3"/>
		</g>
	</g>
	<g>
		<g>
			<g>
				<rect x="1175.4" y="1108.6" class="st1" width="59.2" height="59.2"/>
			</g>
			<g>
				<rect x="1249.5" y="1112.2" class="st1" width="61" height="5.1"/>
			</g>
			<g>
				<rect x="1249.5" y="1123.9" class="st1" width="61" height="5.1"/>
			</g>
			<g>
				<rect x="1249.5" y="1135.6" class="st1" width="61" height="5.1"/>
			</g>
			<g>
				<rect x="1249.5" y="1147.3" class="st1" width="61" height="5.1"/>
			</g>
			<g>
				<rect x="1249.5" y="1159" class="st1" width="61" height="5.1"/>
			</g>
		</g>
		<g>
			<path class="st1" d="M1321.5,1092.6h-161.6V1056c0-1.6,1.3-3,3-3h155.7c1.6,0,3,1.3,3,3V1092.6z"/>
		</g>
		<g>
			<g>
				<g>
					<g>
						<g>
							<g>
								<path class="st0" d="M1306.4,1195.2c0-0.1,2.1,0.2,5.7-1.3c1.8-0.7,3.8-2.1,5.6-4.2c1.8-2.1,3.3-5.2,3.4-8.8
									c0-14.8-0.1-36-0.2-62.3c0-13.2,0-27.6-0.1-43c0-1.9,0-3.9,0-5.9c0-2-0.1-3.9-0.6-5.7c-1.1-3.7-3.8-7-7.3-8.8
									c-1.8-0.9-3.7-1.5-5.7-1.6c-2-0.1-4.2,0-6.3,0c-4.2,0-8.5,0-12.9,0c-34.8,0-73.1,0-113.2,0c-2.4,0-4.8,0.6-6.9,1.7
									c-2.1,1.2-3.9,2.8-5.2,4.8c-1.3,2-2.1,4.3-2.3,6.7c-0.1,2.4,0,4.9-0.1,7.3c0,9.8,0,19.4,0,28.9c0,18.9,0,37.2,0,54.6
									c0,4.4,0,8.6,0,12.9c0,2.1,0,4.2,0,6.3c0,2.1-0.1,4.2,0.3,6.1c0.8,3.9,3.2,7.4,6.5,9.5c1.6,1.1,3.4,1.8,5.3,2.1
									c1.8,0.4,3.8,0.2,5.7,0.3c15.5,0,29.9,0.1,43,0.1c26.3,0.1,47.6,0.1,62.3,0.2c7.3,0,13,0.1,16.9,0.1c1.9,0,3.4,0,4.4,0.1
									C1305.9,1195.2,1306.4,1195.2,1306.4,1195.2s-0.5,0-1.5,0.1c-1,0-2.5,0-4.4,0.1c-3.9,0-9.6,0.1-16.9,0.1
									c-14.8,0-36,0.1-62.3,0.2c-13.2,0-27.6,0-43,0.1c-1.9,0-3.9,0.1-5.9-0.3c-2-0.4-3.9-1.1-5.7-2.3c-3.5-2.2-6.1-5.9-6.9-10.1
									c-0.5-2.1-0.3-4.3-0.3-6.3c0-2.1,0-4.2,0-6.3c0-4.2,0-8.5,0-12.9c0-17.4,0-35.7,0-54.6c0-9.5,0-19.1,0-28.9
									c0-2.5-0.1-4.9,0.1-7.4c0.2-2.6,1.1-5.1,2.5-7.2c1.4-2.2,3.4-4,5.7-5.2c2.3-1.2,4.9-1.9,7.5-1.8c40.2,0,78.4,0,113.2,0
									c4.3,0,8.6,0,12.9,0c2.1,0,4.2-0.1,6.4,0.1c2.2,0.2,4.3,0.8,6.2,1.8c3.8,2,6.7,5.5,7.8,9.4c0.6,2,0.7,4.1,0.7,6
									c0,2,0,3.9,0,5.9c0,15.5-0.1,29.9-0.1,43c-0.1,26.3-0.1,47.6-0.2,62.3c-0.2,3.8-1.8,6.9-3.6,9c-1.9,2.2-4,3.5-5.8,4.2
									c-1.8,0.8-3.3,0.9-4.3,1C1306.9,1195.3,1306.4,1195.2,1306.4,1195.2z"/>
							</g>
						</g>
					</g>
				</g>
			</g>
		</g>
	</g>
	<g>
		<path class="st0" d="M1249.5,1053c0,3.8-3,6.8-6.8,6.8c-3.8,0-6.8-3-6.8-6.8c0-3.8,3-6.8,6.8-6.8
			C1246.5,1046.2,1249.5,1049.2,1249.5,1053z"/>
	</g>
	<g id="XMLID_00000126299447121899767360000014931297739666043554_">
		<path class="st7" d="M1336.3,965.1c5.3,3.4,11.5,5.3,18.2,5.3c22.1,0,34.5-18.6,33.8-35.4c2.3-1.7,4.3-3.8,5.9-6.2
			c-2.1,0.9-4.4,1.6-6.8,1.9c2.5-1.5,4.3-3.8,5.2-6.6c-2.3,1.4-4.8,2.4-7.5,2.9c-2.2-2.3-5.3-3.8-8.7-3.8c-7.7,0-13.3,7.2-11.6,14.6
			c-9.9-0.5-18.6-5.2-24.5-12.4c-3.1,5.3-1.6,12.3,3.7,15.9c-1.9-0.1-3.8-0.6-5.4-1.5c-0.1,5.5,3.8,10.7,9.5,11.8
			c-1.7,0.5-3.5,0.6-5.4,0.2c1.5,4.7,5.9,8.2,11.1,8.3C1348.9,964.1,1342.6,965.8,1336.3,965.1z"/>
	</g>
	<path class="st6" d="M1270.3,614.2c-4.6-16-22-15.1-22-15.1c-4.7-12.9-18.6-21.7-32.1-20.2c-13.5,1.5-25.3,13.1-27.1,26.8
		c-7.8-1.5-16.3,3.1-19.3,10.5c-0.2,0.5-0.4,1.1-0.6,1.6c-3.1,10.6,5.4,21.2,16.3,21.2h27.8v-13.9h-10.1c-1.2,0-1.9-1.3-1.2-2.3
		l16.7-23.5c0.6-0.8,1.8-0.8,2.4,0l16.7,23.4c0.7,1,0,2.3-1.2,2.3h-9.9V639h26.3C1265.8,639,1273.9,626.7,1270.3,614.2z"/>
	<g>
		<g>
			<g>
				<path class="st1" d="M1273.5,993.7L1243,886.4h0H976.7L942,993.3c-2.1,6.5,2.7,13.1,9.4,13.1h121.6l4.9-4.9h57.4l4.9,4.9H1264
					C1270.5,1006.4,1275.3,1000.1,1273.5,993.7z"/>
			</g>
			<g class="st8">
				<path d="M1273.5,993.7L1243,886.4h0H976.7L942,993.3c-2.1,6.5,2.7,13.1,9.4,13.1h121.6l4.9-4.9h57.4l4.9,4.9H1264
					C1270.5,1006.4,1275.3,1000.1,1273.5,993.7z"/>
			</g>
			<g>
				<g>
					<path class="st1" d="M976.6,883.7V726.3c0-6.2,5-11.3,11.2-11.3h244.7c6.2,0,11.2,5.1,11.2,11.3v157.3H976.6z"/>
				</g>
				<g>
					<g>
						<rect x="992.8" y="730.6" class="st2" width="234.9" height="139.9"/>
					</g>
					<g>
						<g>
							<path class="st0" d="M1227.6,870.5c0,0,0-0.9-0.1-2.5c0-1.7,0-4.1-0.1-7.3c0-6.5-0.1-15.9-0.1-28c-0.1-24.3-0.1-59.2-0.3-102
								l0.5,0.5c-63.3,0-145.4,0.1-234.8,0.1h0l0.6-0.6c0,49.6,0,96.9,0,139.9l-0.6-0.6c68.8,0.1,127.4,0.2,168.9,0.3
								c20.7,0.1,37.2,0.1,48.5,0.2c5.6,0,10,0.1,12.9,0.1c1.5,0,2.6,0,3.3,0C1227.2,870.5,1227.6,870.5,1227.6,870.5s-0.4,0-1.1,0
								c-0.8,0-1.9,0-3.3,0c-2.9,0-7.2,0-12.8,0.1c-11.3,0-27.7,0.1-48.4,0.2c-41.6,0.1-100.3,0.2-169.3,0.3l-0.6,0v-0.6
								c0-43.1,0-90.4,0-139.9l0-0.6h0.6h0c89.4,0.1,171.5,0.1,234.8,0.1l0.5,0l0,0.5c-0.1,42.9-0.2,77.9-0.2,102.3
								c-0.1,12.1-0.1,21.5-0.1,27.9c0,3.2,0,5.6-0.1,7.3C1227.6,869.7,1227.6,870.5,1227.6,870.5z"/>
						</g>
					</g>
				</g>
				<g>
					<path class="st0" d="M1114.5,723.2c0,2.3-1.9,4.2-4.3,4.2s-4.3-1.9-4.3-4.2c0-2.3,1.9-4.2,4.3-4.2S1114.5,720.9,1114.5,723.2z"
						/>
				</g>
			</g>
			<g>
				<path class="st1" d="M1273.5,989.7L1243,882.5h0H976.7L942,989.3c-2.1,6.5,2.7,13.1,9.4,13.1h121.6l4.9-4.9h57.4l4.9,4.9H1264
					C1270.5,1002.5,1275.3,996.1,1273.5,989.7z"/>
			</g>
			<g>
				<path class="st4" d="M1224.1,889.3L992,888.6c-2.4,0-4.6,1.3-5.2,3.2l-18.6,52.8c-1,2.9,1.6,5.7,5.2,5.7H1242
					c3.6,0,6.2-2.8,5.2-5.7l-17.9-52C1228.7,890.7,1226.5,889.4,1224.1,889.3z"/>
			</g>
			<g class="st9">
				<path d="M1152,990.6h-91.6c-3.8,0-6.5-3.9-5.6-7.9l5.2-21.7c0.7-2.8,2.9-4.7,5.6-4.7h81.8c2.7,0,5,2,5.6,4.9l4.6,21.7
					C1158.5,986.9,1155.7,990.6,1152,990.6z"/>
			</g>
			<g>
				<g>
					<path class="st0" d="M1151.7,906l-2.4-11c-0.2-0.8-0.8-1.3-1.6-1.3h-14.3c-1,0-1.8,0.9-1.6,1.9l1.6,11.1
						c0.1,0.8,0.8,1.4,1.6,1.4l15.1,0C1151.2,908,1151.9,907.1,1151.7,906z"/>
				</g>
				<g>
					<path class="st0" d="M1108.7,906.3l-1-11.1c-0.1-0.8-0.8-1.5-1.6-1.5h-14.6c-0.9,0-1.7,0.8-1.6,1.7l0.4,11.1
						c0,0.9,0.8,1.6,1.6,1.6l15.2,0C1108,908.1,1108.8,907.3,1108.7,906.3z"/>
				</g>
				<g>
					<path class="st0" d="M1131.3,906.2l-1.6-11.1c-0.1-0.8-0.8-1.4-1.6-1.4h-16.8c-1,0-1.7,0.8-1.6,1.8l1,11.1
						c0.1,0.8,0.8,1.5,1.6,1.5l17.4,0C1130.7,908.1,1131.5,907.2,1131.3,906.2z"/>
				</g>
				<g>
					<path class="st0" d="M1024.8,906.5l2.3-10.1c0.3-1.4-0.7-2.7-2.2-2.7H1011c-1,0-1.9,0.7-2.1,1.6l-2.9,10.1
						c-0.4,1.4,0.7,2.8,2.1,2.8l14.5,0C1023.6,908.2,1024.5,907.5,1024.8,906.5z"/>
				</g>
				<g>
					<path class="st0" d="M1226.4,905.7l-4.2-10.9c-0.2-0.6-0.9-1.1-1.5-1.1h-27.2c-1.1,0-1.9,1.1-1.5,2.2l4.1,11
						c0.2,0.6,0.9,1.1,1.5,1.1l27.3,0C1226,907.9,1226.8,906.8,1226.4,905.7z"/>
				</g>
				<g>
					<path class="st0" d="M1086.1,893.7h-15.8c-0.9,0-1.6,0.7-1.6,1.6l-0.5,11.2c0,0.9,0.7,1.7,1.6,1.7l16.7,0
						c0.9,0,1.7-0.8,1.6-1.7l-0.4-11.1C1087.7,894.4,1087,893.7,1086.1,893.7z"/>
				</g>
				<g>
					<path class="st0" d="M1004.4,893.7h-11c-0.9,0-1.8,0.6-2.1,1.5l-3.6,10.1c-0.5,1.4,0.6,3,2.1,3l11.8,0c1,0,1.9-0.7,2.1-1.6
						l2.9-10.1C1006.9,895.1,1005.8,893.7,1004.4,893.7z"/>
				</g>
				<g>
					<path class="st0" d="M1045.2,906.7l1.5-11.2c0.1-1-0.6-1.9-1.6-1.9h-14c-0.8,0-1.4,0.5-1.6,1.3l-2.5,11.2c-0.2,1,0.6,2,1.6,2
						l15.1,0C1044.4,908.2,1045.1,907.6,1045.2,906.7z"/>
				</g>
				<g>
					<path class="st0" d="M1048.7,895.1l-1.5,11.2c-0.1,1,0.6,1.9,1.6,1.9l15.6,0c0.9,0,1.6-0.7,1.6-1.6l0.5-11.2
						c0-0.9-0.7-1.7-1.6-1.7h-14.7C1049.5,893.7,1048.8,894.3,1048.7,895.1z"/>
				</g>
				<g>
					<path class="st0" d="M1173.2,905.9l-3.3-11c-0.2-0.7-0.8-1.2-1.6-1.2h-15.2c-1.1,0-1.8,1-1.6,2l2.4,11c0.2,0.8,0.8,1.3,1.6,1.3
						l16.1,0C1172.7,908,1173.5,906.9,1173.2,905.9z"/>
				</g>
				<g>
					<path class="st0" d="M1193.5,905.8l-4.1-11c-0.2-0.6-0.9-1.1-1.5-1.1h-14c-1.1,0-1.9,1.1-1.6,2.1l3.3,11
						c0.2,0.7,0.9,1.2,1.6,1.2l14.8,0C1193.1,908,1193.9,906.8,1193.5,905.8z"/>
				</g>
				<g>
					<path class="st0" d="M1086.8,910.6l-17.2,0c-0.9,0-1.6,0.7-1.6,1.6l-0.6,11.5c0,0.9,0.7,1.7,1.6,1.7l18.2,0
						c0.9,0,1.7-0.8,1.6-1.7l-0.4-11.5C1088.4,911.3,1087.6,910.6,1086.8,910.6z"/>
				</g>
				<g>
					<path class="st0" d="M1199.9,923l-4.2-11.3c-0.2-0.6-0.9-1.1-1.5-1.1l-15.3,0c-1.1,0-1.9,1.1-1.6,2.1l3.4,11.3
						c0.2,0.7,0.9,1.2,1.6,1.2l16.1,0C1199.5,925.3,1200.3,924.1,1199.9,923z"/>
				</g>
				<g>
					<path class="st0" d="M1178.3,923.2l-3.4-11.4c-0.2-0.7-0.8-1.2-1.6-1.2l-16.6,0c-1,0-1.8,1-1.6,2l2.5,11.4
						c0.2,0.8,0.8,1.3,1.6,1.3l17.5,0C1177.9,925.3,1178.6,924.2,1178.3,923.2z"/>
				</g>
				<g>
					<path class="st0" d="M1046.6,925.5l17.1,0c0.9,0,1.6-0.7,1.6-1.6l0.6-11.5c0-0.9-0.7-1.7-1.6-1.7l-16.1,0
						c-0.8,0-1.5,0.6-1.6,1.4l-1.5,11.5C1044.9,924.6,1045.6,925.5,1046.6,925.5z"/>
				</g>
				<g>
					<path class="st0" d="M1092.5,925.4l16.2,0c1,0,1.7-0.8,1.6-1.8l-1.1-11.5c-0.1-0.8-0.8-1.5-1.6-1.5l-15.5,0
						c-0.9,0-1.7,0.8-1.6,1.7l0.4,11.5C1090.8,924.7,1091.6,925.4,1092.5,925.4z"/>
				</g>
				<g>
					<path class="st0" d="M1111.2,912.4l1,11.4c0.1,0.8,0.8,1.5,1.6,1.5l18.2,0c1,0,1.8-0.9,1.6-1.9l-1.6-11.4
						c-0.1-0.8-0.8-1.4-1.6-1.4l-17.7,0C1111.9,910.6,1111.1,911.5,1111.2,912.4z"/>
				</g>
				<g>
					<path class="st0" d="M1155.5,923.3l-2.5-11.4c-0.2-0.8-0.8-1.3-1.6-1.3l-15.5,0c-1,0-1.8,0.9-1.6,1.9l1.6,11.4
						c0.1,0.8,0.8,1.4,1.6,1.4l16.4,0C1154.9,925.3,1155.7,924.4,1155.5,923.3z"/>
				</g>
				<g>
					<path class="st0" d="M1021.8,910.6l-34.4,0c-0.7,0-1.3,0.4-1.5,1.1l-4.5,11.6c-0.4,1.1,0.4,2.2,1.5,2.2l36.3,0
						c0.8,0,1.4-0.5,1.6-1.3l2.6-11.6C1023.6,911.6,1022.8,910.6,1021.8,910.6z"/>
				</g>
				<g>
					<path class="st0" d="M1024.6,925.5l16.7,0c0.8,0,1.5-0.6,1.6-1.4l1.5-11.6c0.1-1-0.6-1.9-1.6-1.9l-15.6,0
						c-0.8,0-1.4,0.5-1.6,1.3l-2.6,11.6C1022.8,924.5,1023.5,925.5,1024.6,925.5z"/>
				</g>
				<g>
					<path class="st0" d="M1220.5,925.2l10.8,0c1.2,0,2-1.2,1.5-2.3l-4.5-11.3c-0.3-0.6-0.9-1-1.5-1l-9.9,0c-1.1,0-1.9,1.1-1.6,2.2
						l3.7,11.3C1219.1,924.8,1219.7,925.2,1220.5,925.2z"/>
				</g>
				<g>
					<path class="st0" d="M1216.5,923.1l-3.7-11.3c-0.2-0.7-0.9-1.1-1.6-1.1l-11.5,0c-1.1,0-1.9,1.1-1.5,2.2l4.2,11.3
						c0.2,0.6,0.9,1.1,1.5,1.1l10.9,0C1216,925.2,1216.8,924.2,1216.5,923.1z"/>
				</g>
				<g>
					<path class="st0" d="M1045,944.9l16.9,0c1.3,0,2.4-1,2.5-2.4l0.6-12c0.1-1.4-1.1-2.6-2.5-2.6h-15.9c-1.2,0-2.3,0.9-2.5,2.2
						l-1.6,12C1042.4,943.5,1043.5,944.9,1045,944.9z"/>
				</g>
				<g>
					<path class="st0" d="M1233.4,927.9h-26c-1.7,0-2.9,1.7-2.3,3.3l4.6,12.3c0.4,1,1.3,1.6,2.3,1.6l26.2,0c1.7,0,3-1.8,2.3-3.4
						l-4.8-12.3C1235.3,928.5,1234.4,927.9,1233.4,927.9z"/>
				</g>
				<g>
					<path class="st0" d="M1021.6,929.8l-2.7,12c-0.3,1.5,0.8,3,2.4,3l16.7,0c1.2,0,2.3-0.9,2.5-2.2l1.6-12c0.2-1.5-1-2.8-2.5-2.8
						H1024C1022.8,927.9,1021.8,928.7,1021.6,929.8z"/>
				</g>
				<g>
					<path class="st0" d="M998.9,929.7l-3.5,12.3c-0.4,1.4,0.6,2.7,2.1,2.7l17.1,0c1,0,1.9-0.7,2.1-1.7l2.8-12.6
						c0.3-1.3-0.7-2.6-2.1-2.6l-16.4,0.2C999.9,928.2,999.1,928.8,998.9,929.7z"/>
				</g>
				<g>
					<path class="st0" d="M1159.1,930.9l2.6,12.2c0.2,1.1,1.3,2,2.4,2l17.3,0c1.7,0,2.9-1.6,2.4-3.2l-3.6-12.2
						c-0.3-1.1-1.3-1.8-2.4-1.8h-16.3C1160,927.9,1158.8,929.4,1159.1,930.9z"/>
				</g>
				<g>
					<path class="st0" d="M1067,930.3l-0.6,12c-0.1,1.4,1.1,2.6,2.5,2.6l88.2,0.1c1.6,0,2.8-1.5,2.4-3l-2.6-12.2
						c-0.2-1.1-1.3-2-2.4-2h-85C1068.2,927.9,1067.1,928.9,1067,930.3z"/>
				</g>
				<g>
					<path class="st0" d="M979.6,929.2l-4.8,12.9c-0.5,1.3,0.5,2.6,1.8,2.6l14.3,0c0.9,0,1.7-0.6,1.9-1.4l3.7-12.9
						c0.4-1.3-0.6-2.5-1.9-2.5h-13.3C980.6,927.9,979.9,928.4,979.6,929.2z"/>
				</g>
				<g>
					<path class="st0" d="M1182.7,931.1l3.6,12.2c0.3,1.1,1.3,1.8,2.4,1.8l15.8,0c1.7,0,2.9-1.7,2.3-3.3l-4.6-12.3
						c-0.4-1-1.3-1.6-2.3-1.6h-14.9C1183.5,927.9,1182.3,929.5,1182.7,931.1z"/>
				</g>
			</g>
			<g>
				<g>
					<path class="st0" d="M1244,882.9c0,0.3-59.7,0.6-133.3,0.6c-73.7,0-133.3-0.3-133.3-0.6s59.7-0.6,133.3-0.6
						C1184.3,882.3,1244,882.5,1244,882.9z"/>
				</g>
			</g>
		</g>
		<g>
			<g>
				<g>
					<g>
						<g>
							<g>
								<g>
									<path class="st5" d="M1058.5,770.8c2.5-2.1,5.2-3.7,8-5l0.5-8.8l14.4-2.4l3.3,8.1c3.1,0.3,6.2,1,9.2,2.1l6.6-5.9l11.8,8.5
										l-3.4,8.1c2.1,2.5,3.7,5.2,5,8l8.8,0.5l2.4,14.4l-8.1,3.3c-0.3,3.1-1,6.2-2.1,9.2l5.9,6.6l-8.4,11.8l-8.1-3.4
										c-2.5,2.1-5.2,3.7-8,5l-0.5,8.8l-14.4,2.4l-3.3-8.1c-3.1-0.3-6.2-1-9.2-2.1l-6.6,5.9l-11.8-8.5l3.4-8.1
										c-2.1-2.5-3.7-5.2-5-8l-8.8-0.5l-2.4-14.4l8.1-3.3c0.3-3.1,1-6.2,2.1-9.2l-5.9-6.6l8.4-11.8L1058.5,770.8L1058.5,770.8z
										 M1069.1,788.8c-5,7-3.4,16.8,3.6,21.8c7,5,16.8,3.4,21.8-3.6c5-7,3.4-16.8-3.6-21.8
										C1083.8,780.2,1074.1,781.8,1069.1,788.8z"/>
								</g>
							</g>
						</g>
					</g>
				</g>
			</g>
			<g>
				<g>
					<g>
						<g>
							<g>
								<g>
									<path class="st5" d="M1137.6,807.4c1.7-1.4,3.5-2.5,5.4-3.4l0.3-5.9l9.7-1.6l2.3,5.5c2.1,0.2,4.2,0.7,6.3,1.4l4.4-4l8,5.7
										l-2.3,5.5c1.4,1.7,2.5,3.5,3.4,5.4l5.9,0.3l1.6,9.7l-5.5,2.3c-0.2,2.1-0.7,4.2-1.4,6.3l4,4.4l-5.7,8l-5.5-2.3
										c-1.7,1.4-3.5,2.5-5.4,3.4l-0.3,5.9l-9.7,1.6l-2.3-5.5c-2.1-0.2-4.2-0.7-6.3-1.4l-4.4,4l-8-5.7l2.3-5.5
										c-1.4-1.7-2.5-3.5-3.4-5.4l-5.9-0.3l-1.6-9.7l5.5-2.3c0.2-2.1,0.7-4.2,1.4-6.3l-4-4.4l5.7-8L1137.6,807.4L1137.6,807.4z
										 M1144.8,819.6c-3.4,4.8-2.3,11.4,2.5,14.7c4.8,3.4,11.4,2.3,14.7-2.5c3.4-4.8,2.3-11.4-2.5-14.7
										C1154.8,813.7,1148.2,814.8,1144.8,819.6z"/>
								</g>
							</g>
						</g>
					</g>
				</g>
			</g>
			<g>
				<g>
					<g>
						<g>
							<g>
								<g>
									<path class="st5" d="M1133.1,750.5c1.5-1.2,3.1-2.2,4.8-3l0.3-5.3l8.6-1.4l2,4.9c1.9,0.2,3.7,0.6,5.5,1.3l3.9-3.5l7.1,5.1
										l-2,4.9c1.2,1.5,2.2,3.1,3,4.8l5.3,0.3l1.4,8.6l-4.9,2c-0.2,1.9-0.6,3.7-1.3,5.5l3.5,3.9l-5.1,7.1l-4.9-2
										c-1.5,1.2-3.1,2.2-4.8,3l-0.3,5.3l-8.6,1.4l-2-4.9c-1.9-0.2-3.7-0.6-5.5-1.3l-3.9,3.5l-7.1-5.1l2-4.9
										c-1.2-1.5-2.2-3.1-3-4.8l-5.3-0.3l-1.4-8.6l4.9-2c0.2-1.9,0.6-3.7,1.3-5.5l-3.5-3.9l5.1-7.1L1133.1,750.5L1133.1,750.5z
										 M1139.4,761.3c-3,4.2-2,10.1,2.2,13.1c4.2,3,10.1,2,13.1-2.2s2-10.1-2.2-13.1C1148.2,756.1,1142.4,757.1,1139.4,761.3z"/>
								</g>
							</g>
						</g>
					</g>
				</g>
			</g>
		</g>
	</g>
	<g>
		<g>
			<g>
				<g>
					<g>
						<g>
							<g>
								<g>
									<g>
										<g>
											<path class="st0" d="M606.8,763.1c-10.7-6.6-13.4-22.1-7.9-33.3c5.6-11.2,17.6-18.2,30-20.3c17.8-3.1,37.1,2.9,49.9,15.7
												c6.9,6.9,12.6,16,21.9,19.1c8.2,2.7,17.1,0,25.7,1c11.5,1.3,21.4,9.3,27.4,19.2c6,9.9,8.6,21.4,10.1,32.8
												c1.4,10.5,2.4,22,9.8,29.6c7.2,7.4,18.5,8.8,27.4,14c16.8,9.8,22.6,34.5,11.8,50.7c-3.4,5.2-8.4,9.9-8.7,16.1
												c-0.3,5.6,3.4,10.6,5.2,16c4.6,13.8-6.5,30.5-21,31.5c-7.3,0.5-15.2-2.2-21.8,1.2c-6.5,3.4-8.8,11.3-12.9,17.3
												c-8.1,11.9-25.2,16.6-38.2,10.5c-5.4-2.6-10.6-6.9-16.6-6.4c-6,0.5-10.6,5.7-16.5,6.9c-7.7,1.6-15.1-4-19.8-10.3
												c-4.7-6.3-8-13.8-13.9-18.9c-7.8-6.7-18.6-8.3-28.4-11.5c-21.6-7.1-39.8-23.9-48.6-44.8c-8.8-20.9-8.1-45.7,2-66"/>
										</g>
									</g>
								</g>
							</g>
						</g>
					</g>
				</g>
			</g>
		</g>
		<g>
			<g>
				<g>
					<g>
						<g>
							<g>
								<g>
									<g>
										<g>
											<path class="st7" d="M720.6,899.7c2.2-2.4,5.3-4.7,8.5-5.8l-0.7,0c0.6-0.2,1.2-0.3,1.8-0.3c2.4-0.6,4.7-0.5,6.7,0.7
												l-0.1,0c3.7,1.3,7,3.9,8.8,7.4c3.2,6.1,2.1,13.9-1.9,19.4c-3.5,4.8-9.7,8-15.5,6.7c-5.3-1.2-9.3-6-10.9-11.2
												C715.7,910.8,716.6,904.1,720.6,899.7z"/>
										</g>
									</g>
								</g>
							</g>
						</g>
					</g>
				</g>
			</g>
		</g>
		<g>
			<g>
				<g>
					<g>
						<g>
							<path class="st10" d="M583.1,1017.5l-14.2-206c-0.6-9.1,5.9-17.1,14.9-18.4l91.8-27.5c29.6-4.4,50.9,31.3,54.1,61.1
								c3.5,33.1,6.5,73.5,3.6,98.4c-5.8,50.1-46.6,58.2-46.6,58.2c0-0.2,0.4,50.9,1,69l12.2,55.9L583.1,1017.5z"/>
						</g>
					</g>
				</g>
			</g>
			<g>
				<g>
					<g>
						<g>
							<path class="st0" d="M711.5,869.5c0.3,3.4-2.4,6.4-5.9,6.7c-3.5,0.3-6.6-2.1-6.8-5.5c-0.3-3.4,2.4-6.4,5.9-6.7
								C708.2,863.7,711.3,866.1,711.5,869.5z"/>
						</g>
					</g>
				</g>
			</g>
			<g>
				<g>
					<g>
						<g>
							<path class="st0" d="M721.4,844.8c-0.8,0.9-5.7-2.5-12.6-2.2c-6.9,0.2-11.7,4-12.5,3.2c-0.4-0.4,0.4-1.9,2.5-3.6
								c2.1-1.7,5.7-3.4,10-3.6c4.3-0.2,7.9,1.3,10.1,2.8C721,842.9,721.8,844.4,721.4,844.8z"/>
						</g>
					</g>
				</g>
			</g>
			<g>
				<g>
					<g>
						<g>
							<path class="st0" d="M649.8,871.6c0.3,3.4-2.4,6.4-5.9,6.7c-3.5,0.3-6.6-2.1-6.8-5.5c-0.3-3.4,2.4-6.4,5.9-6.7
								C646.4,865.8,649.5,868.2,649.8,871.6z"/>
						</g>
					</g>
				</g>
			</g>
			<g>
				<g>
					<g>
						<g>
							<path class="st0" d="M654,849c-0.8,0.9-5.7-2.5-12.6-2.2c-6.9,0.2-11.7,4-12.5,3.2c-0.4-0.4,0.4-1.9,2.5-3.6
								c2.1-1.7,5.7-3.4,10-3.6c4.3-0.2,7.9,1.3,10.1,2.8C653.6,847.1,654.4,848.6,654,849z"/>
						</g>
					</g>
				</g>
			</g>
			<g>
				<g>
					<g>
						<g>
							<path class="st0" d="M681.1,898.8c0-0.4,4.2-1.3,11.1-2.5c1.7-0.3,3.4-0.7,3.6-1.9c0.4-1.3-0.5-3.1-1.4-5.1
								c-1.8-4.2-3.7-8.5-5.8-13.1c-8-18.7-13.9-34.1-13.1-34.4c0.8-0.3,7.9,14.6,15.9,33.3c1.9,4.6,3.8,9,5.5,13.2
								c0.7,2,2,4.2,1.2,6.8c-0.4,1.3-1.7,2.3-2.8,2.7c-1.1,0.4-2.1,0.5-3,0.5C685.5,899,681.2,899.2,681.1,898.8z"/>
						</g>
					</g>
				</g>
			</g>
			<g>
				<g>
					<g>
						<g>
							<path class="st11" d="M686.4,980c0,0-30.4,3.4-64.4-15.1c0,0,14.9,36.8,64.5,30L686.4,980z"/>
						</g>
					</g>
				</g>
			</g>
			<g>
				<g>
					<g>
						<g>
							<path class="st11" d="M680.8,915.2c-3.5-4.6-9.1-7.2-14.2-6.8c-3.6,0.3-7,2.1-8.8,5.3c-1.8,3.2-1.7,7.9,0.6,11.1
								c2.7,3.6,7.5,4.6,11.3,3.5c3.8-1.1,6.9-3.9,9.8-6.7c0.8-0.8,1.6-1.6,2.1-2.7c0.4-1.1,0.4-2.5-0.4-3.5"/>
						</g>
					</g>
				</g>
			</g>
			<g>
				<g>
					<g>
						<g>
							<path class="st0" d="M661.1,904.4c1.1-0.1,1.4,7.3,8.1,12.3c6.6,5,14.5,3.9,14.6,4.9c0.1,0.5-1.7,1.5-5.1,1.8
								c-3.3,0.3-8.1-0.6-12.2-3.7c-4-3.1-5.9-7.3-6.3-10.4C659.9,906.3,660.6,904.4,661.1,904.4z"/>
						</g>
					</g>
				</g>
			</g>
			<g>
				<g>
					<g>
						<g>
							<path class="st0" d="M655.8,820.6c-0.6,1.9-7.5,1.3-15.5,2.6c-8,1.2-14.4,3.8-15.6,2.2c-0.5-0.8,0.5-2.6,3.1-4.5
								c2.5-1.9,6.6-3.8,11.4-4.6c4.8-0.7,9.3-0.2,12.3,0.9C654.5,818.3,656.1,819.7,655.8,820.6z"/>
						</g>
					</g>
				</g>
			</g>
			<g>
				<g>
					<g>
						<g>
							<path class="st0" d="M718,821.3c-1.1,1.6-5.9,0.2-11.6,0.4c-5.7,0-10.5,1.5-11.6-0.1c-0.5-0.8,0.2-2.4,2.2-3.9
								c2-1.6,5.4-2.9,9.3-3c3.9,0,7.4,1.2,9.4,2.7C717.8,818.9,718.5,820.5,718,821.3z"/>
						</g>
					</g>
				</g>
			</g>
		</g>
		<g>
			<g>
				<g>
					<g>
						<g>
							<g>
								<path class="st0" d="M762.7,812.4c-2.4-7.4-6.8-14.5-13.4-18.6c-3.6-2.3-7.8-3.6-11.2-6.3c-7.3-5.7-9.1-15.8-13.6-23.8
									c-5.9-10.4-17-17.5-28.9-18.6c-9.9-0.9-20,2.2-29.6,0c-7.1-1.7-13.4-6.2-20.6-7.5c-14.1-2.5-26.9,7.8-36.9,17.9
									c0.1,10,8.2,16.6,16,22.9c7.8,6.3,18.4,9,28.3,7c7.6-1.5,16-5.5,22.7-1.5c7,4.2,7.5,14.7,13.7,20c8.9,7.5,22.9,0.1,34.1,3.3
									c8.7,2.4,14.2,10.6,20.1,17.5c5.9,6.9,14.6,13.4,23.2,10.7C765.8,827.7,765.1,819.8,762.7,812.4z"/>
							</g>
						</g>
					</g>
				</g>
			</g>
		</g>
		<g>
			<g>
				<g>
					<g>
						<g>
							<g>
								<path class="st0" d="M656.9,771.5c-6.3-1.7-19.2-5.6-22.7-11c-7.5-11.7-20.5-19.6-33.7-18.7c-13.2,0.9-25.7,11.5-28.2,25.5
									c-15.9,0.4-31.4,10.6-38.8,25.8c-0.9,1.9-1.7,3.9-2.4,5.9c-4.8,8.8-5.6,19.8-1.9,29.1c2.3,5.6,6.1,11.9,3.2,17.3
									c-2.9,5.5-10.4,5.7-16.2,7.8c-10.1,3.7-16.5,15.4-14.1,25.9c0.9,3.8,2.7,7.5,2,11.3c-0.8,3.9-4.1,6.8-6.6,9.9
									c-6.3,7.7-8.1,18.9-4.6,28.2c3.5,9.3,12.3,16.5,22.1,18.2c4.5,0.7,9.3,0.5,13.2,2.8c4.5,2.7,6.5,8,9.7,12.1
									c6.1,7.9,17.5,11.3,26.9,8c1.9-0.7,3.7-1.6,5.3-2.8c3.1,4.1,7.8,6.8,15.8,6.7l-3.4-104.9c1,2.2,3,4.2,6.4,4.9
									c16.9,3.6,18.8-31.2,14.9-40.5c6-5.5,12.1-11.1,16.6-18c4.5-6.9,8.4-25.7,7.2-34.1C633.9,781.2,659.6,772.3,656.9,771.5z"/>
							</g>
						</g>
					</g>
				</g>
			</g>
		</g>
		<g>
			<g>
				<g>
					<g>
						<g>
							<g>
								<g>
									<g>
										<g>
											<g>
												<g>
													<g>
														<g>
															<g>
																<g>
																	<g>
																		<g>
																			<g>
																				<path class="st10" d="M587.3,877.2c-0.7-10.7-13.8-12.7-22.9-7.3c-5,3-8.8,9-8.2,20.3
																					c1.7,30.2,31.6,22.3,31.6,21.4C587.8,911,588.1,889.6,587.3,877.2z"/>
																			</g>
																		</g>
																	</g>
																</g>
															</g>
														</g>
													</g>
												</g>
											</g>
										</g>
									</g>
								</g>
							</g>
						</g>
					</g>
				</g>
			</g>
		</g>
		<g>
			<g>
				<g>
					<g>
						<g>
							<g>
								<g>
									<g>
										<g>
											<g>
												<g>
													<g>
														<g>
															<g>
																<g>
																	<g>
																		<g>
																			<g>
																				<g>
																					<path class="st11" d="M578,900.6c-0.1-0.1-0.5,0.4-1.4,0.9c-0.8,0.4-2.3,0.8-3.9,0.3c-3.3-1-6.2-5.9-6.7-11.3
																						c-0.2-2.7,0.2-5.4,1.1-7.6c0.8-2.3,2.1-3.9,3.7-4.3c1.6-0.5,2.8,0.4,3.2,1.3c0.5,0.8,0.3,1.4,0.5,1.5
																						c0.1,0.1,0.6-0.5,0.3-1.8c-0.2-0.6-0.6-1.3-1.3-1.8c-0.8-0.5-1.8-0.8-2.9-0.6c-2.3,0.3-4.3,2.5-5.2,5
																						c-1.1,2.5-1.6,5.4-1.4,8.5c0.5,6.1,4,11.6,8.4,12.6c2.2,0.4,3.9-0.3,4.8-1.1C578,901.4,578.1,900.7,578,900.6z
																						"/>
																				</g>
																			</g>
																		</g>
																	</g>
																</g>
															</g>
														</g>
													</g>
												</g>
											</g>
										</g>
									</g>
								</g>
							</g>
						</g>
					</g>
				</g>
			</g>
		</g>
		<g>
			<g>
				<g>
					<g>
						<g>
							<g>
								<g>
									<g>
										<g>
											<path class="st7" d="M615.2,764c0.2,0.3-3,0.9-5.9,5.1c-2.9,4.2-3.9,12.1-1.9,20.9l0.2,0.8l-0.7,0.2
												c-7.4,2-15.6,8-19.2,17.4c-0.9,2.3-1.4,4.9-1.5,7.4c0,2.6,0.5,5.2,1.1,8c0.5,2.7,1.1,5.6,1.3,8.6
												c0.2,2.9-0.5,6.4-2.3,8.9c-3.7,5.8-9.7,8.7-14.8,11.5c-5.3,2.7-10.2,5.5-13.9,9.4c-7.5,7.6-10.8,17.4-10.9,25.5
												c-0.2,8.1,2.2,14.6,4.3,18.6c2.1,4.1,3.8,6,3.6,6.2c-0.1,0-0.5-0.4-1.3-1.3c-0.8-1-1.9-2.4-3-4.4c-2.3-4-5-10.5-5-19
												c-0.1-8.4,3.2-18.7,11-26.8c3.8-4.1,9.1-7.1,14.3-9.9c5.1-2.8,10.8-5.7,14-10.8c3.3-4.6,1.7-10.6,0.7-16
												c-0.5-2.7-1-5.5-1.1-8.4c0.1-2.9,0.7-5.6,1.6-8.1c4-10.1,12.7-16.3,20.7-18.2l-0.6,1c-1.9-9.3-0.6-17.5,2.7-21.8
												c1.6-2.2,3.4-3.3,4.7-3.9C614.5,764.1,615.1,763.9,615.2,764z"/>
										</g>
									</g>
								</g>
							</g>
						</g>
					</g>
				</g>
			</g>
		</g>
		<g>
			<g>
				<g>
					<g>
						<g>
							<g>
								<g>
									<path class="st7" d="M566.9,912.1c2.2-2.4,5.3-4.7,8.5-5.8l-0.7,0c0.6-0.2,1.2-0.3,1.8-0.3c2.4-0.6,4.7-0.5,6.7,0.7l-0.1,0
										c3.7,1.3,7,3.9,8.8,7.4c3.2,6.1,2.1,13.9-1.9,19.4c-3.5,4.8-9.7,8-15.5,6.7c-5.3-1.2-9.3-6-10.9-11.2
										C561.9,923.2,562.9,916.5,566.9,912.1z"/>
								</g>
							</g>
						</g>
					</g>
				</g>
			</g>
		</g>
	</g>
	<g>
		<g>
			<g>
				<g>
					<g>
						<g>
							<path class="st10" d="M1004.3,1139.7l20.6-7.9c0,0,5.6-17.9,9.3-23.2c3.7-5.3,23.6-21.4,24.8-21.8
								c1.2-0.4,14.2-29.7,20.2-28.7c5.9,1,10,5.1,8.4,13.1c-1.7,7.9-14.8,23.8-11.2,26.4c3.6,2.6,9.6,3.6,9.6,3.6s1.6-9.1,6.6-12.1
								c5-3,10.7,1.9,10.7,1.9l0.2,3.9l4.9-4.5c0,0,5.2-18.3,13.1-18.2c0,0,3.1-6.8,7.8-10.4c3.6-2.8,8.8-1.2,10.4,3.1l0,0
								l-14.1,41.5l-38.9,42.9c0,0-18.2,7-22.9,9.2c-4.6,2.1-25.7,16.7-35.1,19.9c-9.3,3.1-20.2,7.9-20.2,7.9L1004.3,1139.7z"/>
						</g>
					</g>
				</g>
			</g>
			<g>
				<g>
					<g>
						<g>
							<g>
								<path class="st11" d="M1058.9,1126.9c0-0.3-2.8-0.6-7.4-0.8c-4.5,0-11.2,0.2-17.6,3.9c-3.2,1.8-5.6,4.4-7.3,7
									c-1.7,2.6-2.7,5.2-3.5,7.4c-1.5,4.4-1.9,7.2-1.7,7.2c0.3,0.1,1.3-2.6,3-6.7c1.8-4.1,4.6-9.9,10.5-13.2
									c5.8-3.3,12.2-3.9,16.6-4.2C1056,1127.3,1058.9,1127.2,1058.9,1126.9z"/>
							</g>
						</g>
					</g>
				</g>
			</g>
			<g>
				<g>
					<g>
						<g>
							<g>
								<path class="st11" d="M1076.8,1098.5c0.3-0.4-1.8-2.4-5.1-3.3c-3.3-1-6.1-0.6-6.1,0c0,0.6,2.6,1,5.5,1.9
									C1074.1,1098,1076.5,1099,1076.8,1098.5z"/>
							</g>
						</g>
					</g>
				</g>
			</g>
		</g>
		<g>
			<g>
				<g>
					<path class="st11" d="M1120.9,1106.3c-0.3,0,0.1-3.4,0.9-9c0.8-5.6,2.1-13.4,3.6-22.4l0.6,1.2c-1.4-0.6-3-1.6-4.3-2
						c-1.3-0.4-2.8-0.2-4.1,0.5c-2.2,1.2-3.7,3.5-4.8,5.8c-1.1,2.4-2,4.9-2.5,7.2c-1.1,4.8-1.9,9.3-2.6,13c-1.3,7.4-2.2,12-2.5,12
						c-0.3,0,0-4.7,0.9-12.2c0.5-3.8,1.1-8.2,2.1-13.2c0.6-2.6,1.4-5,2.6-7.6c1.2-2.5,2.8-5.3,5.8-6.9c1.7-0.9,3.9-1.3,5.8-0.7
						c2,0.7,3.1,1.5,4.6,2.2l0.7,0.3l-0.2,0.8c-1.7,9-3.2,16.7-4.4,22.3C1122,1103.1,1121.2,1106.3,1120.9,1106.3z"/>
				</g>
			</g>
		</g>
		<g>
			<g>
				<g>
					<path class="st11" d="M1069.8,1141.7c-0.1,0,0-0.6,0.2-1.8c0.3-1.1,0.8-2.8,1.7-4.8c1.8-4,5.1-9.3,10.2-14.9l-0.2,0.4
						c2.7-8,0.2-19.5,7.5-29.8c1.8-2.1,4.7-3.5,7.5-3.3c2.8,0.1,5.2,1.1,7.3,2.5l0.5,0.4l-0.1,0.6c-1.4,11.7-2.8,21.7-3.8,28.9
						c-0.2,3.6-1.6,6.5-2.6,8.1c-1,1.7-1.7,2.5-1.8,2.5c-0.1-0.1,0.4-1,1.2-2.8c0.8-1.8,1.8-4.3,1.9-8c0.7-7.2,1.7-17.3,3-28.9
						l0.4,1c-1.7-1.1-3.9-2-6-2.1c-2.2-0.1-4.2,0.9-5.7,2.6c-1.8,1.9-2.6,4.4-3.4,7c-0.7,2.5-1.2,5.1-1.6,7.6
						c-0.4,2.5-0.5,4.9-0.8,7.4c-0.3,2.4-0.9,4.7-1.5,6.9l-0.1,0.2l-0.2,0.2c-5,5.3-8.6,10.3-10.6,14.1
						C1070.5,1139.4,1070.1,1141.8,1069.8,1141.7z"/>
				</g>
			</g>
		</g>
	</g>
	<g>
		<path class="st2" d="M569.8,1012.5c1.2-1.8,9.5-17.7,9.5-17.7l46.8,40.4c0,0,45.9,38.4,45.9,35.9l7.3-37l9-33.6l16.8,25.4
			c0,0,52.9,103.7,52.9,104.9c0,1.2,32.7,108.6,32.7,108.6l-7,43.5l-0.8,154.2l-98.6-4.1l-19.5-31.1l-33.6-197.7L569.8,1012.5z"/>
	</g>
	<g>
		<path class="st6" d="M689.5,1376.8c-3.3-50.6-1.9-146.1-21.3-196c-19.4-49.8-97.2-172.3-97.2-172.3l-19.1,29.7l-50.1,18.8
			l67.9,275.4c0,0-26.2,61.6-38.6,97.6c-3.7,10.8-8.7,29-14.3,47.2h171.9C690.4,1437.1,691.1,1400.7,689.5,1376.8z"/>
	</g>
	<g>
		<path class="st6" d="M1018.7,1124.5l-132.5,73.7l-91.8-131c-0.2-0.3-0.5-0.7-0.8-1.1c-10.4-13.8-20.7-29.1-37.6-32.9l-2.6-0.6
			l4.9,156.9c0,0,65.3,72,101.9,101.7c10.9,8.9,38.5,3.3,51.7-3.9c52.7-29.1,142.8-103.7,142.8-103.7L1018.7,1124.5z"/>
	</g>
	<g>
		<path class="st6" d="M797,1333.5c0,0,9.7-74.9,12.8-93.7c16.6-98.4-56.4-207.2-56.4-207.2l-33.4-5.5l-28.8-23.8l12.7,35.5
			c0,0,41.8,117,50.1,154.4c8.3,37.4,12.5,152.3,13.8,149.5c0.8-1.6,5.8,69.4,12.1,134.4h70.8L797,1333.5z"/>
	</g>
	<g>
		<path class="st0" d="M790.8,1250.2c-0.1,0,0-0.8,0-2.4c0.1-1.7,0.2-4.1,0.4-7c0.1-1.5,0.2-3.2,0.3-5c0-1.8,0-3.8,0-6
			c0-4.3,0.1-9.2-0.3-14.6c-1-21.5-5.6-51.3-16.4-82.4c-4-11.7-8.5-22.9-13.3-32.7l0,0l0,0c-4.7-11.2-10.3-21.1-15.3-29.9
			c-5.1-8.8-9.7-16.5-13.7-22.8c-3.9-6.2-7-11.2-9.2-14.8c-1-1.6-1.8-2.9-2.5-4c-0.6-0.9-0.8-1.4-0.8-1.4c0,0,0.4,0.4,1,1.3
			c0.7,1,1.6,2.2,2.7,3.8c2.3,3.4,5.6,8.3,9.6,14.6c4,6.3,8.8,13.9,14,22.7c5.1,8.8,10.8,18.7,15.6,30l0-0.1
			c4.9,9.9,9.4,21.1,13.5,32.9c10.8,31.3,15.3,61.3,16,82.9c0.3,5.4,0.2,10.3,0.1,14.6c-0.1,2.1-0.1,4.1-0.1,6
			c-0.2,1.8-0.3,3.5-0.5,5c-0.3,2.9-0.5,5.2-0.7,6.9C791,1249.3,790.9,1250.2,790.8,1250.2z"/>
	</g>
	<g>
		<path class="st0" d="M671.1,1071.6c0,0.1-0.7-0.2-1.9-0.8c-1.4-0.7-3.1-1.6-5.1-2.7c-4.6-2.5-10.7-5.9-17.8-9.9l1-0.5
			c-0.9,8-2.3,17.4-3.8,27.3c-0.6,4.1-1.2,8-1.6,11.8l-0.2,1.5l-1.1-1c-9.5-8.1-17.8-15.2-23.7-20.4c-2.7-2.4-5-4.5-6.9-6.1
			c-1.6-1.5-2.4-2.3-2.4-2.4c0.1-0.1,1,0.6,2.7,1.9c1.9,1.5,4.3,3.4,7.2,5.7c6.1,4.9,14.5,11.9,24.1,20l-1.3,0.5
			c0.4-3.8,1-7.8,1.6-11.9c1.5-10,3-19.3,4-27.3l0.1-1.1l0.9,0.5c7,4.2,13,7.7,17.5,10.4c1.9,1.2,3.5,2.2,4.9,3
			C670.6,1071.1,671.2,1071.5,671.1,1071.6z"/>
	</g>
	<g>
		<path class="st0" d="M698.4,1025.9c0.1,0,0.2,1.5,0.1,4.2c-0.1,3-0.1,6.9-0.2,11.5c-0.2,9.7-0.7,23.1-1.3,37.9c0,0.4,0,0.7,0,1.1
			l-0.1,2.6l-1.4-2.2c-6.7-10.6-12.8-20.3-17.7-27.9l1.1-0.1c-2,5.4-3.6,9.9-4.9,13.3c-1.2,3.1-1.9,4.9-2,4.8
			c-0.1,0,0.4-1.9,1.4-5.1c1.1-3.5,2.6-8.1,4.3-13.5l0.4-1.2l0.7,1.1c5,7.6,11.2,17.2,18,27.7l-1.5,0.4c0-0.4,0-0.7,0-1.1
			c0.6-14.8,1.2-28.2,1.8-37.8c0.3-4.6,0.5-8.4,0.7-11.5C698.1,1027.4,698.3,1025.9,698.4,1025.9z"/>
	</g>
	<g>
		<path class="st6" d="M501.9,1057c-4.1,2.5-8,5.5-11.6,8.9c-9.3,8.7-16,19.8-20.3,31.9c-4.7,13.5-9.4,30.1-12.1,40.6l-12.7,192.2
			c-1.1,17.1,1.6,34.2,8.1,50l39.2,96.5h84.6L531.5,1348l15.6-142.5L501.9,1057z"/>
	</g>
	<g>
		<g>
			<polyline class="st6" points="554,1035 572.6,1090.8 592.5,1090.8 579.6,1099 681.3,1293.5 			"/>
		</g>
		<g>
			<g>
				<path class="st0" d="M681.3,1293.5c0,0-0.2-0.2-0.4-0.7c-0.3-0.5-0.7-1.2-1.2-2.1c-1.1-1.9-2.5-4.6-4.4-8
					c-3.8-7.1-9.2-17.2-15.8-29.6c-13.3-25.2-31.5-59.8-51.6-98.1c-10.4-19.8-20.2-38.7-29.1-55.7l-0.3-0.6l0.6-0.4
					c4.5-2.8,8.7-5.5,12.9-8.2l0.4,1.3c-7,0-13.6,0-19.8-0.1l-0.5,0l-0.1-0.4c-5.6-17.1-10.1-31-13.3-40.8
					c-1.5-4.8-2.7-8.5-3.6-11.2c-0.4-1.2-0.7-2.2-0.9-2.9c-0.2-0.7-0.3-1-0.2-1c0,0,0.2,0.3,0.4,1c0.3,0.7,0.6,1.7,1.1,2.9
					c0.9,2.7,2.2,6.4,3.9,11.1c3.3,9.8,8.1,23.7,13.8,40.7l-0.6-0.4c6.2,0,12.8,0,19.8-0.1l2.4,0l-2,1.3c-4.1,2.6-8.4,5.4-12.8,8.2
					l0.3-1c8.9,16.9,18.8,35.8,29.2,55.6c20,38.3,38,73,51.2,98.3c6.4,12.5,11.7,22.7,15.3,29.9c1.7,3.5,3.1,6.2,4.1,8.2
					c0.4,0.9,0.8,1.6,1,2.1C681.3,1293.2,681.4,1293.5,681.3,1293.5z"/>
			</g>
		</g>
	</g>
	<g>
		<g>
			<path class="st6" d="M516.5,1084.2c24.8,28.4,35.3,68.7,27.5,105.6"/>
		</g>
		<g>
			<g>
				<path class="st0" d="M543.9,1189.8c-0.3-0.1,1.1-6.3,1.6-16.4c0.3-5.1,0.3-11.1-0.3-17.8c-0.6-6.7-1.8-14-3.7-21.5
					c-2-7.5-4.6-14.4-7.3-20.6c-2.8-6.1-5.7-11.4-8.5-15.7c-5.5-8.6-9.7-13.3-9.4-13.5c0.1-0.1,1.2,1.1,3.1,3.2
					c1,1.1,2.1,2.4,3.3,4.1c1.2,1.6,2.7,3.4,4,5.6c2.9,4.2,5.9,9.6,8.9,15.7c2.8,6.2,5.5,13.2,7.5,20.8c1.9,7.6,3,15,3.6,21.8
					c0.4,6.8,0.4,12.9-0.1,18c-0.1,2.6-0.5,4.9-0.8,6.9c-0.2,2-0.6,3.7-0.9,5.1C544.4,1188.3,544,1189.8,543.9,1189.8z"/>
			</g>
		</g>
	</g>
	<g>
		<g>
			<path class="st0" d="M577.1,1477.2c0,0-0.1-0.2-0.3-0.6c-0.2-0.5-0.4-1.1-0.7-1.9c-0.7-1.8-1.6-4.3-2.8-7.5
				c-2.4-6.6-5.8-16-9.9-27.5c-8.3-23.4-19.8-55.6-32.5-91.4l0-0.1l0-0.1c0.1-1,0.2-2.1,0.3-3.1c4.3-38.4,8.2-73.2,11-98.5
				c1.5-12.5,2.6-22.7,3.5-29.8c0.4-3.5,0.8-6.2,1-8.1c0.1-0.9,0.2-1.6,0.3-2.1c0.1-0.5,0.1-0.7,0.1-0.7c0,0,0,0.2,0,0.7
				c0,0.5-0.1,1.2-0.2,2.1c-0.2,1.9-0.4,4.7-0.8,8.1c-0.7,7.1-1.8,17.3-3.1,29.9c-2.7,25.3-6.5,60.1-10.6,98.6
				c-0.1,1.1-0.2,2.2-0.3,3.1l0-0.3c12.6,35.8,23.9,68.1,32.2,91.5c4,11.6,7.3,21.1,9.6,27.7c1.1,3.2,1.9,5.7,2.5,7.5
				c0.3,0.8,0.5,1.5,0.6,2C577.1,1476.9,577.2,1477.2,577.1,1477.2z"/>
		</g>
	</g>
	<g>
		<g>
			<path class="st0" d="M775.6,1082.5c0,0,6.3,9.4,13.7,26.1c2,4.1,3.6,8.9,5.6,13.8c1.7,5.1,3.7,10.5,5.2,16.3
				c1.8,5.8,3.1,12,4.6,18.4c0.6,3.2,1.2,6.5,1.8,9.9c0.6,3.3,1,6.8,1.5,10.2c3.5,27.7,2.6,53.1,0.9,71.2c-0.5,4.5-1,8.6-1.4,12.2
				c-0.4,3.6-1,6.7-1.3,9.2c-0.4,2.4-0.7,4.4-0.9,5.8c-0.2,1.3-0.4,2-0.4,2c0,0,0-0.7,0.2-2c0.2-1.4,0.4-3.4,0.7-5.8
				c0.3-2.5,0.8-5.6,1.1-9.2c0.4-3.6,0.8-7.7,1.2-12.2c1.4-18.1,2.2-43.4-1.3-71c-0.5-3.4-0.9-6.8-1.5-10.2
				c-0.6-3.3-1.2-6.6-1.8-9.8c-1.4-6.4-2.8-12.6-4.5-18.3c-1.5-5.8-3.5-11.2-5.1-16.3c-2-5-3.5-9.7-5.4-13.8c-0.9-2.1-1.8-4.1-2.6-6
				c-0.8-1.9-1.7-3.6-2.5-5.2c-1.6-3.3-2.9-6.1-4.2-8.3c-1.2-2.2-2.1-3.9-2.8-5.2C775.9,1083.2,775.6,1082.6,775.6,1082.5z"/>
		</g>
	</g>
	<g>
		<g>
			<path class="st0" d="M887.5,1239.1c-0.1,0.1-1.2-2.1-2.4-5.8c-1.2-3.7-2.4-8.9-2.6-14.9c-0.3-5.9,0.4-11.3,1.3-15
				c0.9-3.8,1.8-6,1.9-5.9c0.2,0.1-0.4,2.4-1.1,6.1c-0.6,3.8-1.2,9-0.9,14.8c0.3,5.8,1.3,11,2.2,14.7
				C886.8,1236.8,887.7,1239,887.5,1239.1z"/>
		</g>
	</g>
</g>
</svg>
