<?xml version="1.0" encoding="utf-8"?>
<!-- Generator: Adobe Illustrator 26.0.3, SVG Export Plug-In . SVG Version: 6.00 Build 0)  -->
<svg version="1.1" id="Camada_1" xmlns="http://www.w3.org/2000/svg" xmlns:xlink="http://www.w3.org/1999/xlink" x="0px" y="0px"
	 viewBox="0 0 1920 1920" style="enable-background:new 0 0 1920 1920;" xml:space="preserve">
<style type="text/css">
	.st0{fill:#ECECEC;}
	.st1{fill:#FFFFFF;}
	.st2{fill:#E1E0E0;}
	.st3{fill:#FBFBFB;}
	.st4{fill:#F5F5F5;}
	.st5{fill:#385A65;}
	.st6{fill:none;stroke:#FFFFFF;stroke-miterlimit:10;}
	.st7{fill:#EA505E;}
	.st8{fill:#192E35;}
	.st9{fill:#B66956;}
	.st10{fill:#7D3B29;}
	.st11{opacity:0.3;}
	.st12{opacity:0.2;}
	.st13{fill:#FBD0BE;}
	.st14{fill:#CC9076;}
	.st15{opacity:0.78;}
</style>
<g>
	<g>
		<g>
			<g>
				<g>
					<path class="st0" d="M363.4,1285.4l-246.7,52.8c-3.4,0.7-6.8-1.5-7.6-4.9l-52.8-246.7c-0.7-3.4,1.5-6.8,4.9-7.6l246.7-52.8
						c3.4-0.7,6.8,1.5,7.6,4.9l52.8,246.7C369,1281.2,366.8,1284.6,363.4,1285.4z"/>
				</g>
			</g>
		</g>
		<g>
			<path class="st1" d="M306,1207.2c-0.1-2.1-0.9-3.9-1.6-5.6c-0.2-0.5-0.4-1.1-0.7-1.8c-4.6-9.3-13.2-15.1-20.2-19
				c-7.2-4-15.2-7-24.2-9.3l-1-0.3c-0.7-0.2-1.4,0.1-1.8,0.7l-16.4,28.1l-60.4-38.7l16.4-30.4c0.2-0.4,0.3-0.8,0.1-1.2
				c-0.1-0.4-0.4-0.7-0.8-0.9l-13.9-6.6c-2.3-1.1-3.7-1.7-4.6-2c-0.3-0.2-0.7-0.4-1.3-0.7c-0.2-0.1-0.5-0.2-0.8-0.4
				c-0.8-0.4-1.8-0.9-3.1-1.4c-3.5-1.3-9.2-2.8-16.5-2.5c-5.1,0.2-15.1,1.7-24.6,9.4c-9.6,7.6-15.1,19.3-14.8,31.3
				c0.2,6.9,3.5,14.1,8.9,19.1c2.7,2.6,5.9,4.7,8.8,6.5l91.8,58.8c1.1,0.7,2.3,1.4,3.4,2.2c2.6,1.7,5.4,3.5,8.4,5
				c4.2,2.2,8.9,3.8,13.7,4.8c3.3,0.7,6.6,1,10,1c6.7,0,13.4-1.4,19.4-4.1c9.1-3.9,16.7-11.2,21.5-20.4c1-1.8,2.1-4.2,2.9-6.9
				l0.4-1.2c0.6-2,1.3-4,1.3-6.1l0.3-3.9L306,1207.2z M191,1131.3l-17.3,30.4c-0.4,0.7-0.2,1.6,0.5,2.1l66.4,43.6
				c0.4,0.2,0.8,0.3,1.2,0.2c0.4-0.1,0.8-0.4,1-0.7l17.1-29c7.6,2.1,14.5,4.9,20.5,8.3c5.7,3.2,13.7,8.5,17.5,16.2
				c0.2,0.6,0.4,1.2,0.7,1.7c0.5,1.3,1,2.5,1.1,4l0.4,2.8l-0.3,3.3c0,1.5-0.5,3-1,4.5l-0.4,1.3c-0.4,1.7-1.2,3.5-2.4,5.8
				c-4.1,7.9-10.7,14.2-18.5,17.6c-7.8,3.5-16.9,4.4-25.6,2.6c-4.3-0.9-8.4-2.3-12.1-4.2c-2.6-1.3-5.3-3-7.8-4.7
				c-1.2-0.7-2.3-1.5-3.5-2.2l-92.1-58.3c-2.8-1.7-5.7-3.5-8-5.7c-4.5-4.1-7.2-9.6-7.4-15.2c-0.4-12.2,6.2-22.1,12.6-27.3
				c8.3-6.9,17.2-8.5,21.7-8.8c1-0.1,1.9-0.1,2.8-0.1c8.5,0,13.7,2.2,16.1,3.2c0.6,0.2,1,0.4,1.4,0.5c0.8,0.6,2.2,1.3,4.2,2.4
				L191,1131.3z"/>
			<path class="st1" d="M219.3,1140.6c2.5,0,7.7-0.7,18.5-3c3.5,17.7,4.8,19.6,6.1,19.6c0.2,0,0.3,0,0.5-0.1l0,0
				c1.5-0.3,2.6-0.6-1.1-20.7c20.5-4.4,20.4-5.6,20.1-7.1l0,0c-0.1-0.4-0.4-0.8-0.7-1.1c-1.2-0.8-8.1,0.1-20.4,2.7
				c-2.4-12-4.2-18.5-5.4-19.3c-0.3-0.2-0.8-0.3-1.3-0.3c-0.4,0.1-0.8,0.4-1.1,0.7c-0.8,1.2,0,8,2.2,20c-18.9,4.1-19.7,5.5-19.9,6
				c-0.2,0.4-0.3,1-0.1,1.4C216.9,1140,217.1,1140.6,219.3,1140.6z"/>
		</g>
	</g>
	<g>
		<g>
			<g>
				<g>
					<rect x="1395.5" y="150.4" class="st2" width="459.2" height="760.2"/>
				</g>
			</g>
		</g>
		<g>
			<g>
				<g>
					<rect x="1380.2" y="150.4" class="st0" width="459.2" height="760.2"/>
				</g>
			</g>
		</g>
		<g>
			<g>
				<g>
					<rect x="1399.8" y="165.8" class="st3" width="420.1" height="729.3"/>
				</g>
			</g>
		</g>
		<g>
			<g>
				<g>
					<g>
						<rect x="1479.7" y="260.6" class="st0" width="258.3" height="539.8"/>
					</g>
				</g>
			</g>
			<g>
				<g>
					<g>
						<path class="st2" d="M1479.7,609.4c-0.6-50.4,44.7-99.6,94.7-106.7c23.8-3.4,49.1,1.4,71.4-7.8c39.7-16.3,52.3-69,92.3-84.7
							l1.8,390.1h-260.2V609.4z"/>
					</g>
				</g>
			</g>
		</g>
	</g>
	<g>
		<g>
			<g>
				<g>
					<g>
						<g>
							<g>
								<g>
									<g>
										<g>
											<g>
												<rect x="911" y="149" class="st2" width="353.2" height="368.2"/>
											</g>
										</g>
									</g>
								</g>
							</g>
						</g>
					</g>
				</g>
			</g>
		</g>
		<g>
			<g>
				<g>
					<g>
						<g>
							<g>
								<g>
									<g>
										<g>
											<g>
												<rect x="887.1" y="149" class="st3" width="353.2" height="368.2"/>
											</g>
										</g>
									</g>
								</g>
							</g>
						</g>
					</g>
				</g>
			</g>
			<g>
				<g>
					<g>
						<g>
							<g>
								<g>
									<g>
										<g>
											<g>
												<path class="st2" d="M1240.5,517.3H887V148.9h353.5V517.3z M887.2,517.1h353v-368h-353L887.2,517.1L887.2,517.1z"/>
											</g>
										</g>
									</g>
								</g>
							</g>
						</g>
					</g>
				</g>
			</g>
		</g>
		<g>
			<g>
				<g>
					<g>
						<g>
							<g>
								<g>
									<g>
										<g>
											<g>
												<rect x="934.6" y="198.5" class="st3" width="258.3" height="269.2"/>
											</g>
										</g>
									</g>
								</g>
							</g>
						</g>
					</g>
				</g>
			</g>
		</g>
		<g>
			<g>
				<g>
					<g>
						<g>
							<g>
								<g>
									<g>
										<g>
											<g>
												<g>
													<path class="st2" d="M934.6,469.5c0.2,0.2-2.2,3.1-6.4,7.4c-4.1,4.4-9.9,10.2-16.4,16.6s-12.5,12.1-16.9,16.2
														c-4.4,4-7.2,6.4-7.5,6.2c-0.2-0.2,2.2-3,6.3-7.4s9.9-10.3,16.5-16.7c6.5-6.4,12.5-12.1,16.9-16.2
														C931.6,471.6,934.4,469.2,934.6,469.5z"/>
												</g>
											</g>
										</g>
									</g>
								</g>
							</g>
						</g>
					</g>
				</g>
			</g>
		</g>
		<g>
			<g>
				<g>
					<g>
						<g>
							<g>
								<g>
									<g>
										<g>
											<g>
												<g>
													<path class="st2" d="M1192.9,468.8c0.2-0.2,3.1,2.2,7.4,6.4c4.4,4.1,10.2,9.9,16.6,16.4s12.1,12.5,16.2,16.9
														c4,4.4,6.4,7.2,6.2,7.5c-0.2,0.2-3-2.2-7.4-6.3c-4.4-4.1-10.3-9.9-16.7-16.5c-6.4-6.5-12.1-12.5-16.2-16.9
														C1195,471.9,1192.6,469,1192.9,468.8z"/>
												</g>
											</g>
										</g>
									</g>
								</g>
							</g>
						</g>
					</g>
				</g>
			</g>
		</g>
		<g>
			<g>
				<g>
					<g>
						<g>
							<g>
								<g>
									<g>
										<g>
											<g>
												<g>
													<path class="st2" d="M1192.2,199.2c-0.2-0.2,2.2-3.1,6.4-7.4c4.1-4.4,9.9-10.2,16.4-16.6c6.5-6.4,12.5-12.1,16.9-16.2
														c4.4-4,7.2-6.4,7.5-6.2c0.2,0.2-2.2,3-6.3,7.4c-4.1,4.4-9.9,10.3-16.5,16.7c-6.5,6.4-12.5,12.1-16.9,16.2
														C1195.2,197.1,1192.4,199.4,1192.2,199.2z"/>
												</g>
											</g>
										</g>
									</g>
								</g>
							</g>
						</g>
					</g>
				</g>
			</g>
		</g>
		<g>
			<g>
				<g>
					<g>
						<g>
							<g>
								<g>
									<g>
										<g>
											<g>
												<g>
													<path class="st2" d="M933.9,199.9c-0.2,0.2-3.1-2.2-7.4-6.4c-4.4-4.1-10.2-9.9-16.6-16.4c-6.4-6.5-12.1-12.5-16.1-16.9
														s-6.4-7.2-6.2-7.5c0.2-0.2,3,2.2,7.4,6.3s10.3,9.9,16.7,16.5c6.4,6.5,12.1,12.5,16.2,16.9
														C931.8,196.8,934.1,199.7,933.9,199.9z"/>
												</g>
											</g>
										</g>
									</g>
								</g>
							</g>
						</g>
					</g>
				</g>
			</g>
		</g>
		<g>
			<g>
				<g>
					<g>
						<g>
							<g>
								<g>
									<g>
										<g>
											<g>
												<g>
													<path class="st2" d="M1192.2,467.7c0,0,0-0.5-0.1-1.3c0-0.9,0-2.2-0.1-3.8c0-3.4-0.1-8.2-0.1-14.5
														c-0.1-12.8-0.1-31.3-0.3-54.9c-0.1-47.2-0.3-114.3-0.5-194.8l1,1c-75.2,0-163.5,0.1-257.5,0.1l0,0l1.1-1.1
														c-0.1,98.8-0.1,191.3-0.2,269.2l-1-1c77.2,0.2,141.4,0.4,186.5,0.5c22.5,0.1,40.2,0.2,52.4,0.3
														c6,0.1,10.6,0.1,13.9,0.1c1.5,0,2.7,0,3.6,0.1C1191.7,467.7,1192.2,467.7,1192.2,467.7s-0.4,0-1.1,0.1
														c-0.9,0-2,0-3.5,0.1c-3.2,0-7.7,0.1-13.7,0.1c-12.1,0.1-29.7,0.1-52.2,0.3c-45.2,0.1-109.7,0.3-187.1,0.5h-1v-1
														c0-78-0.1-170.4-0.2-269.2v-1.1h1.1l0,0c94.1,0.1,182.4,0.1,257.5,0.1h1v1c-0.2,80.7-0.4,148.1-0.5,195.4
														c-0.1,23.5-0.2,41.9-0.3,54.6c-0.1,6.2-0.1,11-0.1,14.3c0,1.6,0,2.8-0.1,3.6C1192.2,467.3,1192.2,467.7,1192.2,467.7z"
														/>
												</g>
											</g>
										</g>
									</g>
								</g>
							</g>
						</g>
					</g>
				</g>
			</g>
		</g>
		<g>
			<g>
				<g>
					<g>
						<g>
							<g>
								<g>
									<g>
										<g>
											<g>
												<rect x="1020.7" y="290" class="st0" width="86.2" height="86.2"/>
											</g>
										</g>
									</g>
								</g>
							</g>
						</g>
					</g>
				</g>
			</g>
		</g>
	</g>
	<g>
		<g>
			<g>
				<g>
					<g>
						<g>
							<polygon class="st2" points="1846.8,1762.4 1833.2,1902.4 1760.9,1902.4 1746.7,1762.4 							"/>
						</g>
					</g>
				</g>
			</g>
			<g>
				<g>
					<g>
						<g>
							<rect x="1738.2" y="1752.3" class="st0" width="119.5" height="10.2"/>
						</g>
					</g>
				</g>
			</g>
			<g>
				<g>
					<g>
						<g>
							<polygon class="st0" points="1834.9,1734.5 1846.8,1754.4 1751.8,1754.4 1756.3,1734.5 							"/>
						</g>
					</g>
				</g>
			</g>
			<g>
				<g>
					<g>
						<g>
							<polygon class="st4" points="1842.2,1809.5 1837.4,1859.5 1756.5,1859.5 1751.5,1809.5 							"/>
						</g>
					</g>
				</g>
			</g>
		</g>
		<g>
			<g>
				<g>
					<g>
						<path class="st3" d="M1786.5,1848.6c0.1-3.9,1.1-8.3,3.7-12.4c2-3.1,4.5-5.8,6.4-8.5c2-2.7,3.5-5.4,4.2-7.9
							c0.4-1.3,0.6-2.4,0.6-3.5c0.2,0.1,0.4,0.2,0.6,0.3c2.8,1.8,4.6,5,5.3,8.3c0.7,3.3,0.3,6.7-0.5,10c-0.9,3.9-2.4,7.8-5.3,10.6
							c-3.2,3.2-8.1,4.7-12.6,3.9C1788.1,1849.2,1787.3,1848.9,1786.5,1848.6z"/>
					</g>
				</g>
			</g>
			<g>
				<g>
					<g>
						<path class="st3" d="M1780.3,1837.6c0.4-4.5,0.8-9,2.6-13.1c1.8-4.1,5.2-8,9.6-8.9c1.4-0.5,4.3-0.7,6.9,0.3
							c-0.1,1-0.4,2.2-0.8,3.5c-0.8,2.3-2.3,4.8-4.3,7.4s-4.5,5.3-6.6,8.6c-2.2,3.3-3.3,7-3.7,10.3c-0.1,0.8-0.1,1.5-0.1,2.2
							c-1.1-0.7-2.1-1.6-2.7-2.8C1779.9,1842.9,1780.1,1840.1,1780.3,1837.6z"/>
					</g>
				</g>
			</g>
		</g>
	</g>
	<g>
		<g>
			<g>
				<g>
					<g>
						<g>
							<g>
								<g>
									<path class="st4" d="M1195.2,1623.7c65.2-65.3,64.9-164.9,46.5-251.2c-3.1-14.4-4.2-30-13.4-41.5
										c-9.2-11.5-26.8-17.3-38.7-8.9c-9.9,7-12.3,20.3-16.5,31.8c-5.6,15.2-15.5,28.7-28.2,38.5c-8.4,6.4-19.3,11.4-29.3,8
										c-13.7-4.7-18.3-21.7-20.8-36.1c-4.6-26.9-9.2-53.8-13.9-80.7c-2.5-14.4-5.1-29.2-12-42c-6.9-12.9-19.1-23.8-33.5-25.2
										c-14.4-1.4-30,9.5-30.3,24.2c-0.2,6.1,2.1,12,2.8,18c0.7,6.1-0.9,13.2-6.3,15.9c-5.5,2.7-11.9-0.3-17-3.8
										c-17.5-11.9-30.9-28.9-43.7-45.8c-12.8-17-25.3-34.4-41.6-47.9s-37.2-22.7-58.1-20.2c-20.9,2.5-40.6,19.2-42.2,40.4
										c-1.6,21.3,13.9,39.8,29.8,53.9c23.5,21,50,38.6,78.4,51.9c5.1,2.4,10.7,5,13.4,10.1c4.8,9.1-2.6,20.2-11.5,25.1
										c-10.1,5.5-22,6.5-33,9.8s-22.3,10.5-24.7,21.8c-3.3,15.8,11.8,29,25.7,37c27.9,15.9,58.5,27,90,32.6
										c11.3,2,23.1,3.4,32.9,9.3c9.9,5.9,17.3,18,14,29c-3.4,11.1-16,16.7-27.5,16.6s-22.5-4.3-33.8-6.4
										c-21.1-3.9-46.5,2-56.1,21.4c-6.3,12.7-4.3,28.5,2.3,41.2s17.2,22.7,28.2,31.7c38.4,31.6,84.4,54.4,133.2,62.1
										C1109.2,1651.8,1152.5,1648.5,1195.2,1623.7"/>
								</g>
							</g>
						</g>
					</g>
				</g>
			</g>
		</g>
		<g>
			<g>
				<g>
					<g>
						<g>
							<g>
								<g>
									<g>
										<path class="st2" d="M1163.1,1573.3c-20.6-41.5-46.9-85.2-76.1-129.9c-7.3-11.2-14.6-22.2-21.7-33s-14.2-21.6-21.8-31.6
											c-15.1-20.2-31.1-38.5-46.9-55.4c-15.8-16.9-31.3-32.4-46-46.7c-14.7-14.3-28.6-27.4-41.9-38.8
											c-26.4-22.9-49.8-38.8-66.3-49.1c-8.3-5.2-14.8-9-19.3-11.5c-2.1-1.2-3.8-2.1-5.1-2.8c-1.2-0.6-1.8-0.9-1.8-0.9
											s0.5,0.4,1.6,1.1c1.2,0.8,2.9,1.8,5,3.1c4.4,2.7,10.8,6.6,19,11.9c16.3,10.5,39.5,26.6,65.7,49.6
											c13.1,11.5,26.9,24.6,41.6,39c14.6,14.4,30.1,29.9,45.7,46.8c15.7,16.9,31.6,35.2,46.5,55.3c7.5,10,14.5,20.7,21.7,31.5
											c7.1,10.9,14.3,21.9,21.7,33c29.1,44.7,55.4,88.2,76.1,129.6"/>
									</g>
								</g>
							</g>
						</g>
					</g>
				</g>
			</g>
		</g>
		<g>
			<g>
				<g>
					<g>
						<g>
							<g>
								<g>
									<g>
										<path class="st2" d="M1042.8,1378.7c0.2,0,0.3-2.3,0.3-6.4s-0.1-10.1-0.3-17.4c-0.5-14.7-1.9-35-3.6-57.4
											c-1.6-22.4-2.8-42.6-3.1-57.3c-0.2-7.3-0.2-13.3-0.2-17.4s-0.1-6.4-0.3-6.4c-0.2,0-0.4,2.3-0.7,6.4
											c-0.3,4.1-0.5,10.1-0.6,17.4c-0.2,14.7,0.6,35.1,2.3,57.5c1.7,22.1,3.2,42,4.3,57.3c0.5,6.9,0.9,12.7,1.2,17.4
											C1042.3,1376.4,1042.6,1378.7,1042.8,1378.7z"/>
									</g>
								</g>
							</g>
						</g>
					</g>
				</g>
			</g>
		</g>
		<g>
			<g>
				<g>
					<g>
						<g>
							<g>
								<g>
									<g>
										<path class="st2" d="M851.3,1377c0,0.2,2.7,0,7.6-0.4c4.8-0.4,11.8-1.1,20.5-1.6c17.3-1.2,41.3-2,67.7-1.7
											c26.5,0.3,50.4,1.6,67.7,3.1c8.7,0.7,15.6,1.4,20.5,1.9c4.8,0.5,7.5,0.7,7.5,0.5s-2.6-0.7-7.4-1.5s-11.8-1.8-20.4-2.7
											c-17.3-1.9-41.3-3.5-67.9-3.9c-26.5-0.3-50.6,0.9-67.9,2.5c-8.7,0.8-15.6,1.7-20.5,2.5
											C853.9,1376.3,851.2,1376.9,851.3,1377z"/>
									</g>
								</g>
							</g>
						</g>
					</g>
				</g>
			</g>
		</g>
		<g>
			<g>
				<g>
					<g>
						<g>
							<g>
								<g>
									<g>
										<path class="st2" d="M1160.2,1570.3c0.1,0,0.4-0.8,0.9-2.5c0.5-2,1.2-4.4,2-7.3c1.7-6.3,3.9-15.5,6.5-26.9
											c5.2-22.8,11.3-54.6,17.6-89.7c6.3-35.1,12.1-66.9,16.8-89.8c2.3-11.1,4.2-20.3,5.6-27.1c0.6-3,1.1-5.4,1.5-7.4
											c0.3-1.7,0.4-2.6,0.3-2.6s-0.4,0.8-0.9,2.5c-0.5,2-1.2,4.4-2,7.3c-1.7,6.3-3.9,15.5-6.5,26.9
											c-5.2,22.8-11.3,54.6-17.6,89.7c-6.3,35.1-12.1,66.9-16.8,89.8c-2.3,11.1-4.2,20.3-5.6,27.1c-0.6,3-1.1,5.4-1.5,7.4
											C1160.2,1569.3,1160.1,1570.2,1160.2,1570.3z"/>
									</g>
								</g>
							</g>
						</g>
					</g>
				</g>
			</g>
		</g>
		<g>
			<g>
				<g>
					<g>
						<g>
							<g>
								<g>
									<g>
										<path class="st2" d="M899.8,1534.7c0,0.1,0.9,0.3,2.6,0.6c2,0.3,4.5,0.7,7.6,1.1c7,1,16.4,2.3,27.9,3.8
											c23.6,3.3,56,8.1,91.9,13.6c35.9,5.4,68.5,10,92.1,12.8c11.8,1.4,21.4,2.4,28,3c3.1,0.2,5.6,0.4,7.6,0.6
											c1.7,0.1,2.7,0.1,2.7,0s-0.9-0.3-2.6-0.6c-2-0.3-4.5-0.7-7.6-1.1c-7-1-16.4-2.3-27.9-3.9c-23.6-3.3-56-8.1-91.9-13.6
											c-35.9-5.4-68.4-10-92.1-12.8c-11.8-1.4-21.4-2.4-28-3c-3.1-0.2-5.6-0.5-7.6-0.6C900.7,1534.7,899.8,1534.7,899.8,1534.7z
											"/>
									</g>
								</g>
							</g>
						</g>
					</g>
				</g>
			</g>
		</g>
	</g>
	<g>
		<g>
			<g>
				<g>
					<g>
						<g>
							<g>
								<g>
									<g>
										
											<rect x="94.9" y="40.5" transform="matrix(2.293230e-03 -1 1 2.293230e-03 60.1509 439.2875)" class="st2" width="310.6" height="298"/>
									</g>
								</g>
							</g>
						</g>
					</g>
				</g>
			</g>
			<g>
				<g>
					<g>
						<g>
							<g>
								<g>
									<g>
										
											<rect x="74.7" y="40.4" transform="matrix(2.293224e-03 -1 1 2.293224e-03 40.097 418.9879)" class="st5" width="310.6" height="298"/>
									</g>
								</g>
							</g>
						</g>
					</g>
				</g>
				<g>
					<g>
						<g>
							<g>
								<g>
									<g>
										<path class="st4" d="M378.7,345.2l-298.2-0.7l0.8-310.8l298.2,0.7L378.7,345.2z"/>
									</g>
								</g>
							</g>
						</g>
					</g>
				</g>
			</g>
			<g>
				<g>
					<g>
						<g>
							<g>
								<g>
									<g>
										
											<rect x="116.4" y="80.5" transform="matrix(2.293019e-03 -1 1 2.293019e-03 39.9973 418.9878)" class="st1" width="227.1" height="217.9"/>
									</g>
								</g>
							</g>
						</g>
					</g>
				</g>
			</g>
			<g>
				<g>
					<g>
						<g>
							<g>
								<g>
									<g>
										<g>
											<path class="st2" d="M120.8,304.3c0.2,0.2-1.9,2.6-5.4,6.2c-3.5,3.7-8.4,8.6-13.9,14S91,334.7,87.2,338.1
												c-3.7,3.4-6.1,5.4-6.3,5.2c-0.2-0.2,1.9-2.5,5.4-6.2s8.4-8.6,13.9-14s10.6-10.2,14.3-13.6
												C118.2,306,120.6,304,120.8,304.3z"/>
										</g>
									</g>
								</g>
							</g>
						</g>
					</g>
				</g>
			</g>
			<g>
				<g>
					<g>
						<g>
							<g>
								<g>
									<g>
										<g>
											<path class="st2" d="M338.6,304.2c0.2-0.2,2.6,1.9,6.2,5.4c3.7,3.5,8.6,8.4,14,13.9s10.2,10.5,13.6,14.3
												c3.4,3.7,5.4,6.1,5.2,6.3c-0.2,0.2-2.5-1.9-6.2-5.4s-8.6-8.4-14-13.9s-10.2-10.6-13.6-14.3
												C340.4,306.8,338.4,304.4,338.6,304.2z"/>
										</g>
									</g>
								</g>
							</g>
						</g>
					</g>
				</g>
			</g>
			<g>
				<g>
					<g>
						<g>
							<g>
								<g>
									<g>
										<g>
											<path class="st2" d="M338.6,76.7c-0.2-0.2,1.9-2.6,5.4-6.2c3.5-3.7,8.4-8.6,13.9-14s10.5-10.2,14.3-13.6
												c3.7-3.4,6.1-5.4,6.3-5.2c0.2,0.2-1.9,2.5-5.4,6.2s-8.4,8.6-13.9,14s-10.6,10.2-14.3,13.6
												C341.1,74.9,338.7,76.9,338.6,76.7z"/>
										</g>
									</g>
								</g>
							</g>
						</g>
					</g>
				</g>
			</g>
			<g>
				<g>
					<g>
						<g>
							<g>
								<g>
									<g>
										<g>
											<path class="st2" d="M120.7,76.8c-0.2,0.2-2.6-1.9-6.2-5.4c-3.7-3.5-8.6-8.4-14-13.9S90.3,47,86.9,43.3s-5.4-6.1-5.2-6.3
												c0.2-0.2,2.5,1.9,6.2,5.4s8.6,8.4,14,13.9s10.2,10.6,13.6,14.3C118.9,74.2,120.9,76.6,120.7,76.8z"/>
										</g>
									</g>
								</g>
							</g>
						</g>
					</g>
				</g>
			</g>
			<g>
				<g>
					<g>
						<g>
							<g>
								<g>
									<g>
										<g>
											<path class="st2" d="M338.1,303.2c0,0,0-0.4,0-1.1c0-0.8,0-1.8,0-3.2c0-2.8,0-6.9-0.1-12.3c0-10.8-0.1-26.4-0.1-46.3
												c0-39.8,0-96.4-0.1-164.3l0.8,0.8c-63.4-0.1-137.9-0.2-217.2-0.4l0,0l1-1c-0.2,83.4-0.5,161.3-0.7,227.1l-0.8-0.8
												c65.1,0.3,119.3,0.6,157.3,0.8c19,0.1,33.9,0.2,44.2,0.3c5.1,0.1,9,0.1,11.7,0.1c1.3,0,2.3,0,3,0.1
												C337.7,303.2,338,303.2,338.1,303.2c0,0-0.3,0-1,0s-1.7,0-2.9,0c-2.7,0-6.5,0-11.5,0.1c-10.2,0-25.1,0.1-44,0.1
												c-38.1,0-92.5,0-157.8,0.1h-0.8v-0.8c0.1-65.8,0.2-143.7,0.4-227.1v-1h1l0,0c79.3,0.2,153.8,0.4,217.2,0.6h0.8V76
												c-0.3,68.1-0.6,124.9-0.8,164.8c-0.1,19.8-0.3,35.4-0.3,46.1c-0.1,5.2-0.1,9.3-0.1,12.1c0,1.3,0,2.3-0.1,3.1
												C338.1,302.9,338.1,303.3,338.1,303.2z"/>
										</g>
									</g>
								</g>
							</g>
						</g>
					</g>
				</g>
			</g>
		</g>
		<g>
			<g>
				<g>
					<g>
						<g>
							<g>
								<g>
									<path class="st4" d="M189.7,250.9c-16.4-16.5-17.3-45.9-2-63.4c6.1-6.9,14.1-12,19.8-19.3c12.2-15.8,12.1-40.8,29-51.3
										c12.3-7.7,30-3.3,39,8.2s9.7,28.1,3.8,41.4c-4.3,9.8-11.9,18.2-15,28.5c-3.2,10.5-1.4,22.1-4.7,32.6
										c-4,12.7-17.4,20.6-29.9,25.2C217.3,257.3,201.3,256.2,189.7,250.9"/>
								</g>
							</g>
						</g>
					</g>
				</g>
			</g>
			<g>
				<g>
					<g>
						<g>
							<g>
								<g>
									<g>
										<path class="st2" d="M251.2,146.4c0.1,0.1-0.6,2.2-2.1,6s-3.8,9.3-6.8,15.9c-6,13.3-15.2,31.4-27,50.4s-24,35.2-33.3,46.5
											c-4.7,5.7-8.5,10.1-11.3,13.1s-4.3,4.6-4.4,4.5c-0.1-0.1,1.3-1.9,3.9-5c2.6-3.1,6.3-7.8,10.8-13.5
											c9-11.5,20.9-27.8,32.7-46.7s21.1-36.8,27.5-49.9c3.2-6.6,5.7-11.9,7.3-15.7C250.1,148.4,251.1,146.4,251.2,146.4z"/>
									</g>
								</g>
							</g>
						</g>
					</g>
				</g>
			</g>
			<g>
				<g>
					<g>
						<g>
							<g>
								<g>
									<g>
										<path class="st2" d="M206,185.7c0.2,0,0.9,4.3,1.7,11.5s1.9,17.2,3,28.5l-1.5-0.8c1.5-0.9,3.1-1.8,4.7-2.7
											c10.9-6.3,20.8-12,28.1-16c7.2-4,11.8-6.3,11.9-6.1s-4.2,3-11.2,7.3c-7.1,4.3-16.9,10.1-27.8,16.5
											c-1.6,0.9-3.2,1.9-4.7,2.7l-1.3,0.8l-0.1-1.5c-1-11.3-1.8-21.3-2.3-28.5C206,190.1,205.8,185.7,206,185.7z"/>
									</g>
								</g>
							</g>
						</g>
					</g>
				</g>
			</g>
			<g>
				<g>
					<g>
						<g>
							<g>
								<g>
									<g>
										<path class="st2" d="M263.3,169c0.1,0.2-2.7,1.8-7.4,4.1c-4.6,2.3-11.1,5.4-18.3,8.6c-0.8,0.3-1.5,0.7-2.2,1l-1.2,0.5
											l-0.2-1.3c-1.1-7.3-2-13.7-2.6-18.4s-0.8-7.6-0.5-7.6s0.9,2.8,1.8,7.4c0.9,4.6,2,11.1,3.2,18.3l-1.4-0.7
											c0.7-0.3,1.5-0.7,2.2-1c7.2-3.3,13.8-6.1,18.6-8.1C260.2,169.8,263.2,168.7,263.3,169z"/>
									</g>
								</g>
							</g>
						</g>
					</g>
				</g>
			</g>
		</g>
		<g>
			<g>
				<g>
					<g>
						<g>
							<g>
								<g>
									<path class="st6" d="M113.3,38.2"/>
								</g>
							</g>
						</g>
					</g>
				</g>
			</g>
		</g>
	</g>
	<g>
		<g>
			<g>
				<g>
					<g>
						<g>
							<g>
								<path class="st7" d="M524,1467.4c19.8-10.2,43.1-11.5,65.1-7.9c11.8,2,24.1,5.5,32.2,14.4c8,8.9,9.6,24.5,0.3,32.1
									c-5.5,4.5-13.2,5.2-20.3,5.1c-17.2-0.2-36.3-3.2-50.1,7.1c-7.8,5.9-13.1,15.7-22.5,18.6c-9.2,2.8-19.5-2.6-24.4-10.9
									s-5-18.6-2.8-28C501.7,1498,504.1,1477.7,524,1467.4z"/>
							</g>
						</g>
					</g>
				</g>
			</g>
			<g>
				<g>
					<g>
						<g>
							<g>
								<path class="st7" d="M478.7,1379.8c12.1,17.3,35.7,11.6,46.6,1c10.9-10.6,15.5-25.9,19.7-40.5
									c9.6-33.3,19.3-68.3,12.1-102.3c-2.1-10.2-5.9-20.3-13.1-27.8c-7.1-7.5-18.1-12-28.1-9.4c-11.9,3.1-19.2,14.8-24.6,25.8
									c-15.7,32.5-24,68.5-24.1,104.6C467.2,1348.2,469.2,1365.9,478.7,1379.8"/>
							</g>
						</g>
					</g>
				</g>
			</g>
			<g>
				<g>
					<g>
						<g>
							<g>
								<path class="st7" d="M445.4,1404.6c13.2-15.6,15.6-38.4,9.8-57.9c-5.9-19.6-19.1-36.2-34.3-49.8
									c-17.9-15.9-38.9-28.3-61.4-36.2c-8.9-3.1-18.3-5.6-27.6-4.7c-9.4,0.9-18.8,5.7-23.2,14c-6.5,12.3-0.3,27.3,6.4,39.5
									c11.8,21.5,25.3,42.1,40.3,61.4c12.1,15.6,25.9,31,44.4,38c18.4,7,37.6,6.2,47.3-6.6"/>
							</g>
						</g>
					</g>
				</g>
			</g>
			<g>
				<g>
					<g>
						<g>
							<g>
								<g>
									<path class="st8" d="M477.8,1640.7c0.2,0,0.6-2.8,1.1-7.9c0.6-5.7,1.3-12.9,2.1-21.5c1-9,2.3-19.8,4.8-31.5
										s6.4-24.3,11.4-37.1c5.2-12.7,11.5-24.3,19-33.6c7.4-9.3,15.9-16,24-19.9c8-4,15.2-5.6,20.2-6.3c5-0.5,7.8-0.9,7.8-1.1
										s-2.8-0.3-8-0.1c-5.1,0.3-12.6,1.6-21.1,5.5c-8.5,3.8-17.6,10.6-25.3,20.1c-7.8,9.5-14.4,21.3-19.7,34.3
										c-5.1,13-9,25.8-11.4,37.7c-2.4,11.9-3.5,22.8-4.2,31.9s-0.9,16.5-1.1,21.6C477.6,1637.9,477.6,1640.7,477.8,1640.7z"/>
								</g>
							</g>
						</g>
					</g>
				</g>
			</g>
			<g>
				<g>
					<g>
						<g>
							<g>
								<g>
									<path class="st8" d="M479.3,1624.2c0.1,0,0.2-1.3,0.2-3.6c0-2.7,0-6.2,0-10.4c0-9.1,0-22.1,0.5-38.3
										c0.8-32.3,3.6-67.2,9-116.2c5.1-46.2,11.9-99.9,19.1-134.8c1.5-7.9,3.1-15.1,4.6-21.3c1.4-6.3,2.6-11.7,3.7-16.1
										c1-4.1,1.8-7.5,2.4-10.1c0.5-2.3,0.7-3.6,0.6-3.6c-0.1,0-0.5,1.1-1.3,3.4c-0.8,2.6-1.8,5.9-3,10c-1.3,4.3-2.7,9.7-4.3,16
										c-1.6,6.2-3.4,13.4-5.1,21.3c-7.1,31.6-14.7,75.9-20.1,125.1s-7.8,94-8,126.4c-0.2,16.2,0.2,29.3,0.6,38.4
										c0.3,4.2,0.5,7.7,0.6,10.4C479.1,1623,479.2,1624.2,479.3,1624.2z"/>
								</g>
							</g>
						</g>
					</g>
				</g>
			</g>
			<g>
				<g>
					<g>
						<g>
							<g>
								<g>
									<path class="st8" d="M479.5,1537.8c0.2,0,0.2-3.9-0.1-10.9c-0.4-7-1.4-17.1-3.3-29.5c-2.1-12.4-5-27.1-9.6-43
										c-2-7.3-6.7-24.8-18-50.9c-14.9-35.4-35.2-64.3-52.8-82.2c-4.1-4.8-8.7-8.2-12.4-11.5c-1.9-1.6-3.6-3.2-5.3-4.5
										c-1.7-1.2-3.3-2.3-4.8-3.3c-5.8-4-9.1-6.1-9.2-5.9c-0.5,0.7,13,8.7,30.1,26.8c17,18.1,36.7,46.9,51.5,81.9
										c8.3,19,14,36,18.1,50.4c4.7,15.8,7.8,30.3,10.2,42.6c2.2,12.3,3.6,22.3,4.3,29.2C478.8,1534,479.3,1537.8,479.5,1537.8z"
										/>
								</g>
							</g>
						</g>
					</g>
				</g>
			</g>
		</g>
		<g>
			<g>
				<g>
					<g>
						<g>
							<polygon class="st8" points="396,1690.2 404.7,1808.8 557,1808.8 565.7,1690.2 							"/>
						</g>
					</g>
				</g>
			</g>
		</g>
		<g>
			<g>
				<g>
					<g>
						<g>
							<rect x="381.3" y="1643.5" class="st8" width="202.5" height="46.7"/>
						</g>
					</g>
				</g>
			</g>
		</g>
		<g>
			<g>
				<g>
					<g>
						<g>
							<polygon class="st5" points="381.3,1804.2 381.3,1817.2 390.8,1817.2 580.5,1817.2 580.5,1804.2 							"/>
						</g>
					</g>
				</g>
			</g>
		</g>
		<g>
			<g>
				<g>
					<g>
						<g>
							<polygon class="st5" points="400.2,1840 390.8,1817.2 573.3,1817.2 562.4,1840 							"/>
						</g>
					</g>
				</g>
			</g>
		</g>
		<g>
			<g>
				<g>
					<g>
						<g>
							<g>
								<path class="st2" d="M562.9,1729c0,0-0.2,0.4-0.7,1.1c-0.6,0.8-1.4,1.8-2.3,3c-2.2,2.8-5.1,6.6-8.9,11.4l-0.4,0.5l-0.4-0.5
									c-5.6-7.7-13-18-21.8-30.2h1.3c-6.5,9.2-13.7,19.4-21.5,30.4l-0.7,1l-0.8-0.9c-7.9-9.4-16.5-19.7-25.5-30.3h1.5
									c-0.4,0.6-0.9,1.2-1.4,1.8c-7.9,9.9-15.5,19.5-22.8,28.5l-0.8,1l-0.7-1c-7.7-10.9-14.9-21.2-21.5-30.4l1.2,0.1
									c-10.6,12.1-19.6,22.3-26.4,30.1l-0.5,0.5l-0.4-0.6c-3.5-5.9-6.3-10.5-8.3-13.9c-0.9-1.5-1.6-2.7-2.1-3.7
									c-0.5-0.8-0.7-1.3-0.6-1.3c0,0,0.3,0.4,0.9,1.2c0.6,0.9,1.4,2.1,2.4,3.6c2.1,3.3,5,7.9,8.7,13.7l-0.8-0.1
									c6.8-7.9,15.6-18.3,26-30.5l0.7-0.8l0.6,0.8c6.6,9.2,13.9,19.4,21.7,30.2h-1.5c7.2-9.1,14.8-18.7,22.7-28.6
									c0.5-0.6,1-1.2,1.4-1.8l0.7-0.9l0.7,0.9c8.9,10.6,17.5,20.9,25.4,30.3l-1.4,0.1c7.8-10.9,15.1-21.1,21.7-30.2l0.6-0.9
									l0.6,0.9c8.6,12.3,15.9,22.7,21.3,30.5H550c3.9-4.7,7-8.4,9.2-11.1c1-1.2,1.8-2.1,2.5-2.9
									C562.5,1729.2,562.8,1728.9,562.9,1729z"/>
							</g>
						</g>
					</g>
				</g>
			</g>
		</g>
		<g>
			<g>
				<g>
					<g>
						<g>
							<g>
								<path class="st5" d="M567.8,1689.4c0,0.5-38.2,0.9-85.2,0.9c-47.1,0-85.3-0.4-85.3-0.9s38.2-0.9,85.3-0.9
									C529.6,1688.5,567.8,1688.9,567.8,1689.4z"/>
							</g>
						</g>
					</g>
				</g>
			</g>
		</g>
		<g>
			<g>
				<g>
					<g>
						<g>
							<g>
								<path class="st8" d="M575.5,1818.5c0,0.5-41.5,0.9-92.6,0.9c-51.2,0-92.7-0.4-92.7-0.9s41.5-0.9,92.7-0.9
									C534,1817.5,575.5,1817.9,575.5,1818.5z"/>
							</g>
						</g>
					</g>
				</g>
			</g>
		</g>
	</g>
	<g>
		<g>
			<g>
				<g>
					<g>
						<g>
							<g>
								<path class="st9" d="M1564.2,932.1c-2.7-11.9,11.2-52.6,2.2-53.5c-11.4-1.2-13.4,45.3-13.8,49.4c-0.4,4.1-6.5,3.6-5.9-0.2
									c0.8-5.4,8.5-57.9-3.2-58c-6.4-0.1-6.7,11.6-6.7,11.6s-4.3,51.8-9.8,51.6c-5.6-0.2-1.6-29.7-1-40.7
									c0.5-10.5-4.7-16.6-8.6-12c-5.7,6.6-5.6,33.3-6.4,43.9c-0.7,10.5-3.6,40.7-14.3,25.6c-10.9-15.1-24.8-22.7-29.8-22.2
									c-5.1,0.5-6.1,7.9-1.1,10.8c4.1,2.3,9.5,8.3,13.6,12.9c3.3,3.8,5.5,8.4,7.8,12.8c1.7,3.2,4.4,9.5,5.7,18.3
									c1.5,10.2,7.4,19.2,16,24.9l-0.6,83l-2.6,41l64.6,22.4l-8.5-146.3c3.2-28.1,15.6-63.7,20.1-80.2c7.2-26.3,3.8-27.4,0.6-27.6
									C1575.3,899.2,1566.8,943.6,1564.2,932.1z"/>
							</g>
						</g>
					</g>
				</g>
			</g>
			<g>
				<g>
					<g>
						<g>
							<path class="st10" d="M1555.9,967.8c0,0.2-3.2,0-8,1.3c-4.7,1.3-11.1,4.6-15.8,10.8c-1.2,1.7-2.2,3.4-3.2,5.1l-0.4,0.8
								l-0.7-0.7c-4.2-4.4-8.9-7.3-12.3-9s-5.6-2.4-5.6-2.6c0-0.2,2.3,0.2,5.9,1.8c3.6,1.5,8.4,4.3,12.8,8.8l-1.1,0.2
								c0.9-1.8,1.9-3.6,3.2-5.4c2.4-3.1,5.4-5.6,8.3-7.5c2.9-1.7,5.8-2.8,8.3-3.4c2.5-0.7,4.6-0.7,6-0.7
								C1555.1,967.6,1555.9,967.7,1555.9,967.8z"/>
						</g>
					</g>
				</g>
			</g>
			<g>
				<g>
					<g>
						<g>
							<path class="st10" d="M1552.7,1006.6c0.1,0.3-6.1,2.3-13.9,2.6c-7.9,0.2-14.2-1.3-14.1-1.7s6.3,0.6,14.1,0.3
								C1546.4,1007.6,1552.7,1006.2,1552.7,1006.6z"/>
						</g>
					</g>
				</g>
			</g>
		</g>
		<g>
			<g>
				<g>
					<path class="st8" d="M1162.4,790.3c1.3-21.2,18.7-40.4,39.7-43.6c5.5-0.8,11.3-0.7,16.4-3.1c4.1-1.9,7.5-5.1,11.4-7.6
						c12.4-7.9,30.3-5.5,40.1,5.4c9.3,10.2,11.6-5.1,32.5,5.4c17.2,8.6,9.6,23,9.6,23c17.1-2,34.6,10.1,38.9,26.7
						c2.7,10.5,1.5,23.7,10.3,30.1c4.3,3.1,9.9,3.6,14.3,6.5c8.2,5.4,9.3,17,8.2,26.7c-1.1,9.8-3.3,20.1,0.9,29
						c7,14.5,28.6,18.9,32.4,34.6c1.7,7.4-0.7,16.6,4.9,21.7c2.2,2.1,5.3,2.9,8.1,4.1c11.4,4.6,19.9,16,21.1,28.4s-5.1,25-15.5,31.7
						c-2.9,1.8-6.4,3.6-7.3,7c-1,3.7,1.7,7.3,3.6,10.6c7.2,12.1,5.3,28.9-4.4,39.1c-9.7,10.2-26.4,12.9-38.8,6.4
						c-5.6,11.9-15.9,21.4-28.2,25.9c-5.6,2.1-11.9,3.2-17.7,1.7c-4.7-1.2-8.9-3.7-12.8-6.6c-18.4-13.8-44.3-35.1-47.6-57.9"/>
				</g>
			</g>
			<g>
				<g>
					<path class="st9" d="M1162,825.8l-0.8-16.3l97.5-21.7c30.1-4.1,63.7,25.1,66.6,55.5c3.2,33.7,5.7,74.9,2.5,100.1
						c-6.5,50.8-45,58.4-45,58.4l1.3,50.2l-111.7,4.9L1162,825.8z"/>
				</g>
			</g>
			<g>
				<g>
					<g>
						<g>
							<g>
								<g>
									<g>
										<g>
											<g>
												<g>
													<path class="st8" d="M1306.9,879.9c0.2,3.4-2.5,6.5-6.1,6.7c-3.6,0.3-6.6-2.2-6.9-5.6s2.5-6.5,6.1-6.7
														C1303.6,873.9,1306.6,876.5,1306.9,879.9z"/>
												</g>
											</g>
										</g>
									</g>
								</g>
							</g>
						</g>
					</g>
				</g>
			</g>
			<g>
				<g>
					<g>
						<g>
							<g>
								<g>
									<g>
										<g>
											<g>
												<g>
													<g>
														<path class="st8" d="M1315.2,865c-0.7,0.8-5.8-2.7-12.8-2.4c-7,0.2-12,3.9-12.8,3.1c-0.4-0.3,0.4-1.9,2.6-3.6
															c2.2-1.7,5.8-3.4,10.2-3.5c4.3-0.1,8,1.4,10.2,3C1314.7,863.1,1315.6,864.6,1315.2,865z"/>
													</g>
												</g>
											</g>
										</g>
									</g>
								</g>
							</g>
						</g>
					</g>
				</g>
			</g>
			<g>
				<g>
					<g>
						<g>
							<g>
								<g>
									<g>
										<g>
											<g>
												<g>
													<path class="st8" d="M1241.7,883.2c0.2,3.4-2.5,6.5-6.1,6.7c-3.6,0.3-6.6-2.2-6.9-5.6c-0.2-3.4,2.5-6.5,6.1-6.7
														C1238.4,877.2,1241.5,879.7,1241.7,883.2z"/>
												</g>
											</g>
										</g>
									</g>
								</g>
							</g>
						</g>
					</g>
				</g>
			</g>
			<g>
				<g>
					<g>
						<g>
							<g>
								<g>
									<g>
										<g>
											<g>
												<g>
													<g>
														<path class="st8" d="M1246.6,868.4c-0.7,0.8-5.8-2.7-12.8-2.4c-7,0.2-12,3.9-12.8,3.1c-0.4-0.3,0.4-1.9,2.6-3.6
															c2.2-1.7,5.8-3.4,10.2-3.5c4.3-0.1,8,1.4,10.2,3C1246.2,866.5,1247,868,1246.6,868.4z"/>
													</g>
												</g>
											</g>
										</g>
									</g>
								</g>
							</g>
						</g>
					</g>
				</g>
			</g>
			<g>
				<g>
					<g>
						<g>
							<g>
								<g>
									<g>
										<g>
											<g>
												<g>
													<path class="st8" d="M1273.5,919.4c-0.1-0.4,4.3-1.2,11.3-2.4c1.7-0.2,3.5-0.7,3.7-1.9c0.4-1.3-0.4-3.2-1.3-5.2
														c-1.8-4.2-3.7-8.7-5.7-13.4c-8-19.1-13.7-34.8-12.9-35.1c0.7-0.3,7.8,14.9,15.8,34c1.9,4.7,3.7,9.2,5.5,13.5
														c0.7,2,2,4.2,1.2,7c-0.4,1.3-1.7,2.3-2.8,2.7c-1.2,0.4-2.2,0.4-3,0.5C1277.9,919.6,1273.5,919.8,1273.5,919.4z"/>
												</g>
											</g>
										</g>
									</g>
								</g>
							</g>
						</g>
					</g>
				</g>
			</g>
			<g>
				<g>
					<g>
						<g>
							<g>
								<g>
									<g>
										<g>
											<g>
												<path class="st10" d="M1282.7,1001.8c0,0-35.6,3.2-70-16c0,0,18.2,34.9,70.4,28.6L1282.7,1001.8z"/>
											</g>
										</g>
									</g>
								</g>
							</g>
						</g>
					</g>
				</g>
			</g>
			<g>
				<g>
					<g>
						<g>
							<g>
								<g>
									<g>
										<g>
											<g>
												<path class="st10" d="M1271.1,936.3c-2.7-3.2-7-4.9-11.4-4.3c-3,0.4-6.1,2-7.8,4.5c-1.7,2.5-2.1,6.1-0.3,8.4
													c2,2.6,5.9,3.1,9.2,2c3.3-1.1,6.1-3.3,8.8-5.6c0.7-0.7,1.5-1.2,1.9-2.2c0.4-0.8,0.5-1.9-0.1-2.6"/>
											</g>
										</g>
									</g>
								</g>
							</g>
						</g>
					</g>
				</g>
			</g>
			<g>
				<g>
					<g>
						<g>
							<g>
								<g>
									<g>
										<g>
											<g>
												<g>
													<path class="st8" d="M1253.2,924.8c1.2-0.1,1.4,7.5,8,12.7s14.7,4.1,14.8,5.1c0.1,0.5-1.7,1.5-5.1,1.7
														c-3.3,0.2-8.3-0.7-12.4-3.9c-4.1-3.1-5.9-7.5-6.2-10.6C1251.8,926.7,1252.7,924.8,1253.2,924.8z"/>
												</g>
											</g>
										</g>
									</g>
								</g>
							</g>
						</g>
					</g>
				</g>
			</g>
			<g>
				<g>
					<g>
						<g>
							<g>
								<g>
									<path class="st8" d="M1247.6,841c-0.7,1.9-7.6,1.2-15.8,2.5c-8.2,1.1-14.7,3.6-15.8,2c-0.5-0.8,0.6-2.7,3.2-4.6
										c2.6-1.9,6.8-3.8,11.7-4.5c4.9-0.7,9.4-0.1,12.4,1.1C1246.3,838.6,1247.9,840.1,1247.6,841z"/>
								</g>
							</g>
						</g>
					</g>
				</g>
			</g>
			<g>
				<g>
					<g>
						<g>
							<g>
								<g>
									<path class="st8" d="M1311.9,844.8c-1.2,1.7-6.1,0.2-11.9,0.2c-5.8-0.1-10.6,1.4-11.9-0.2c-0.5-0.8,0.2-2.4,2.3-4
										c2.1-1.6,5.6-2.9,9.5-2.9c4,0,7.5,1.3,9.5,2.9C1311.8,842.4,1312.5,844.1,1311.9,844.8z"/>
								</g>
							</g>
						</g>
					</g>
				</g>
			</g>
			<g>
				<g>
					<path class="st8" d="M1333.7,781.2c-6.9,18.2-23.1,45.8-42.4,49.1c-19.1,3.3-39.9-4.3-52.4-19.2c-2.2,14.5-17.8,23-32.2,26
						c-10.2,2.2-21,2.8-30.8-0.6c-9.9-3.4-18.5-11.4-20.6-21.6c-2.1-10.2,11.4-36.1,21.5-38.5"/>
				</g>
			</g>
			<g>
				<g>
					<path class="st8" d="M1194.9,1050.1c0.2,16.3-11,32.2-26.6,37.4c1.5,13.2-7.7,26.8-20.6,30.3c-12.8,3.6-27.7-3.4-33.2-15.4
						c-1.4-3.2-2.4-6.7-4.7-9.3c-5.4-5.9-14.9-4-22.7-5.9c-14-3.5-21.1-19.7-20.6-34.2c0.1-2.8,0.4-5.7-0.2-8.5
						c-1.2-5.6-6.1-9.7-9.7-14.2c-15.2-18.5-11.4-47.2,2.5-66.6c4.6-6.5,10.6-13.3,9.5-21.2c-0.6-4.4-3.3-8.2-5.2-12.2
						c-6.2-13-3.3-29.8,6.9-40c1.6-1.6,3.4-3.1,3.8-5.3c0.2-1.4-0.1-2.8-0.3-4.1c-4-20.9,11.4-43.6,32.3-47.5
						c1.2-0.2,2.6-0.4,3.6-1.1c3.2-1.9,2.9-6.4,3.1-10c0.4-9.7,6.5-28.1,13.4-34.9c19.1-18.8,39.9-6.1,47.3,0
						c0,0,18.9,68.1,17.1,81.2c-1.7,13-9,45.8-4.1,60.1c4.8,14.3,13.1,43.7,8.1,57.3C1190,999.4,1194.9,1050.1,1194.9,1050.1z"/>
				</g>
			</g>
		</g>
		<g>
			<g>
				<g>
					<g>
						<g>
							<g>
								<g>
									<g>
										<g>
											<g>
												<path class="st7" d="M1317.5,1617.1c0,0,147.6,40.9,153.5,42.9c8.9,3.2,7.4,35.7-6.5,35.2c-6.5-0.2-113.4,4-126.8,3.2
													c-13.5-0.8-54.2-16.9-54.2-16.9L1317.5,1617.1z"/>
											</g>
										</g>
									</g>
								</g>
							</g>
						</g>
					</g>
				</g>
				<g>
					<g>
						<g>
							<g>
								<g>
									<g>
										<g>
											<g>
												<g>
													<path class="st8" d="M1379,1673.5c0.7,0.1,1.7-7.7,6.5-15.8c4.6-8.2,10.9-13,10.4-13.6c-0.2-0.6-7.6,3.6-12.6,12.4
														C1378.3,1665.1,1378.4,1673.5,1379,1673.5z"/>
												</g>
											</g>
										</g>
									</g>
								</g>
							</g>
						</g>
					</g>
				</g>
				<g>
					<g>
						<g>
							<g>
								<g>
									<g>
										<g>
											<g>
												<g>
													<path class="st8" d="M1363.6,1666.4c0.7,0.2,2.2-6.9,6.1-14.6c3.8-7.8,8.5-13.1,8-13.6c-0.4-0.5-6.1,4.3-10.3,12.5
														C1363.4,1658.9,1363,1666.4,1363.6,1666.4z"/>
												</g>
											</g>
										</g>
									</g>
								</g>
							</g>
						</g>
					</g>
				</g>
				<g>
					<g>
						<g>
							<g>
								<g>
									<g>
										<g>
											<g>
												<g>
													<path class="st8" d="M1349.1,1662.6c0.7-0.1,0.2-7.4,3.5-15.6c3.2-8.2,8.5-13.3,8-13.8c-0.3-0.6-6.9,4-10.4,12.9
														C1346.8,1655,1348.6,1662.8,1349.1,1662.6z"/>
												</g>
											</g>
										</g>
									</g>
								</g>
							</g>
						</g>
					</g>
				</g>
				<g>
					<g>
						<g>
							<g>
								<g>
									<g>
										<g>
											<g>
												<g>
													<path class="st8" d="M1351.8,1643.5c0.2,0.1,1.6-4.1,1.6-10.9c0-3.5-0.4-7.5-1.5-12c-0.6-2.2-1.2-4.6-2.2-6.9
														c-0.5-1.2-1-2.5-2.4-3.6c-1.4-1.2-3.9-1-5.1,0.2c-1.3,1.2-1.7,2.8-2,4.1c-0.2,1.3-0.2,2.7-0.2,3.9c0,2.6,0.3,5,0.9,7.2
														c1.1,4.5,2.8,8.3,4.6,11.3c3.4,6,6.4,9,6.6,8.9c0.3-0.2-2.2-3.6-5.1-9.7c-1.4-3-3-6.7-3.9-10.9
														c-0.4-2.2-0.7-4.4-0.7-6.7c0.1-2.2,0-5.1,1.3-6.2c0.7-0.6,1.3-0.7,2-0.2s1.2,1.5,1.7,2.6c0.9,2.2,1.7,4.4,2.2,6.5
														c1.2,4.2,1.7,8.2,2,11.5C1352,1639.3,1351.4,1643.4,1351.8,1643.5z"/>
												</g>
											</g>
										</g>
									</g>
								</g>
							</g>
						</g>
					</g>
				</g>
				<g>
					<g>
						<g>
							<g>
								<g>
									<g>
										<g>
											<g>
												<g>
													<path class="st8" d="M1351.6,1642c0.1-0.2-3.5-1.5-9.5-1.6c-3,0-6.6,0.3-10.4,1.2c-1.9,0.5-4,1-6.1,2.2
														c-2,1-4.1,3.8-3.3,6.7c0.7,2.7,3,4.6,5.3,5.3c2.3,0.7,4.6,0.4,6.6,0c4.1-0.9,7.2-2.9,9.6-4.7c4.7-3.7,7-6.5,6.9-6.8
														c-0.2-0.3-3.1,2.2-7.9,5.3c-2.4,1.6-5.5,3.2-9,3.9c-1.8,0.3-3.7,0.4-5.5-0.1c-1.7-0.5-3.2-1.8-3.6-3.5s0.6-3.2,2.2-4.1
														c1.6-1,3.6-1.6,5.4-2.1c3.6-1.1,7-1.5,9.9-1.7C1347.9,1641.8,1351.6,1642.4,1351.6,1642z"/>
												</g>
											</g>
										</g>
									</g>
								</g>
							</g>
						</g>
					</g>
				</g>
				<g>
					<g>
						<g>
							<g>
								<g>
									<g>
										<g>
											<g>
												<g>
													<path class="st8" d="M1401.7,1675c0.7-0.1,0-6.4,2.9-13.3c2.7-7,7.7-11,7.2-11.5c-0.2-0.6-6.4,2.9-9.5,10.6
														C1399.1,1668.5,1401,1675.3,1401.7,1675z"/>
												</g>
											</g>
										</g>
									</g>
								</g>
							</g>
						</g>
					</g>
				</g>
				<g>
					<g>
						<g>
							<g>
								<g>
									<g>
										<g>
											<g>
												<g>
													<path class="st8" d="M1298.7,1681.8c-0.1,0.2,2,1.1,5.7,2.7c3.8,1.4,9.4,3.4,16.4,5.1c14.1,3.6,34.2,5.6,56.4,5.3
														s42-1.2,56.5-1.8c6.9-0.3,12.6-0.7,17.1-0.9c4.1-0.2,6.3-0.5,6.3-0.7s-2.2-0.2-6.3-0.3c-4.6,0-10.3,0.1-17.2,0.1
														c-14.9,0.3-34.7,0.7-56.5,1.1c-22,0.2-41.9-1.5-56-4.6C1307.1,1685,1298.8,1681.3,1298.7,1681.8z"/>
												</g>
											</g>
										</g>
									</g>
								</g>
							</g>
						</g>
					</g>
				</g>
				<g>
					<g>
						<g>
							<g>
								<g>
									<g>
										<g>
											<g>
												<g>
													<path class="st8" d="M1294.4,1685.1c0.2,0.3,4.2-2,11-5c6.7-2.9,16.8-6.4,27.9-4.6c11.1,1.7,19,9.2,24.1,14.3
														c5.1,5.4,8.2,9,8.5,8.7c0.2-0.2-2.3-4.1-7.2-9.9c-2.5-2.8-5.6-6.1-9.8-9.1c-4.1-3-9.4-5.6-15.3-6.5
														c-11.9-1.8-22.4,2.2-29,5.5C1297.9,1682.1,1294.2,1684.9,1294.4,1685.1z"/>
												</g>
											</g>
										</g>
									</g>
								</g>
							</g>
						</g>
					</g>
				</g>
				<g class="st11">
					<g>
						<g>
							<g>
								<g>
									<g>
										<g>
											<g>
												<path d="M1317.5,1617.1c0,0,147.6,40.9,153.5,42.9c8.9,3.2,7.4,35.7-6.5,35.2c-6.5-0.2-113.4,4-126.8,3.2
													c-13.5-0.8-54.2-16.9-54.2-16.9L1317.5,1617.1z"/>
											</g>
										</g>
									</g>
								</g>
							</g>
						</g>
					</g>
				</g>
			</g>
			<g>
				<g>
					<g>
						<g>
							<g>
								<g>
									<g>
										<path class="st8" d="M1153.5,1447.6l-31.8,65.5c0,0-170.3-51.8-213.3-49.4c-42.9,2.4-78.1,19.6-86.5,54.5
											s-9.5,83,40.6,116.4s298.9,51.8,298.9,51.8h98.5l161-212.2L1395,1453L1153.5,1447.6z"/>
									</g>
								</g>
							</g>
						</g>
					</g>
					<g>
						<g>
							<g>
								<g>
									<g>
										<g>
											<path class="st5" d="M1207.1,1591.2c0,0.1-1.1,0.1-3.2-0.1s-5.2-0.2-9.2-0.7c-8-0.8-19.6-2.9-33.4-6.9
												s-29.8-10.3-47.1-18.4c-17.2-8.1-35.6-18.2-54.9-28.5c-19.3-10.4-38-19.6-55.6-26.7c-17.6-7-34-11.9-48.1-14.4
												c-14.1-2.6-25.7-3.2-33.7-2.9c-4-0.1-7.1,0.3-9.2,0.3c-2.1,0.1-3.2,0.1-3.2,0.1c0-0.1,1.1-0.2,3.2-0.5
												c2.1-0.2,5.2-0.7,9.2-0.7c8-0.5,19.8-0.1,34,2.3c14.3,2.3,30.8,7,48.6,14c17.7,7,36.6,16.2,55.9,26.6
												c19.3,10.4,37.6,20.4,54.7,28.6s33,14.6,46.7,18.7s25.1,6.5,33.1,7.5c4,0.7,7,0.8,9.2,1.1
												C1206,1591,1207.1,1591.1,1207.1,1591.2z"/>
										</g>
									</g>
								</g>
							</g>
						</g>
					</g>
					<g>
						<g>
							<g>
								<g>
									<g>
										<path class="st8" d="M1323.5,1668.9c31.7-12.4,205.7-67.8,267.3-139c17.1-19.7,20.2-40.4,16.8-59.1
											c-8.6-47.5-52.2-79.2-97.6-61.2c-6.5,2.6-21.2,8.3-27.4,11.6c-16.9,9.1-290.6,182.7-290.6,182.7s47.7,93,46.5,96.6
											L1323.5,1668.9z"/>
									</g>
								</g>
							</g>
						</g>
					</g>
					<g>
						<g>
							<g>
								<g>
									<g>
										<g>
											<path class="st5" d="M1409.2,1462.6c0,0-0.2,0.2-0.7,0.6c-0.7,0.4-1.4,0.9-2.3,1.6c-2.2,1.4-5.1,3.4-9,5.8
												c-8,5.1-19.2,12.3-33.1,21.1c-28.2,17.7-66.8,41.9-109.5,68.8c-21.1,13.2-41.2,25.7-59.4,37.1l0.4-1.2
												c12.7,30.5,23.5,56.5,31.2,75c3.7,9.1,6.6,16.3,8.8,21.6c0.9,2.4,1.7,4.3,2.2,5.7c0.5,1.3,0.7,2,0.7,2
												c-0.1,0-0.4-0.7-1-1.9c-0.7-1.4-1.5-3.3-2.6-5.6c-2.2-5.1-5.4-12.4-9.3-21.3c-7.9-18.5-18.9-44.3-31.9-74.7l-0.3-0.7
												l0.7-0.4c18.2-11.4,38.3-24,59.4-37.2c42.8-26.6,81.6-50.7,109.8-68.3c14-8.5,25.4-15.6,33.4-20.5
												c3.8-2.3,6.9-4.1,9.1-5.5c1-0.6,1.7-1,2.4-1.4C1408.9,1462.6,1409.2,1462.5,1409.2,1462.6z"/>
										</g>
									</g>
								</g>
							</g>
						</g>
					</g>
					<g>
						<g>
							<g>
								<g>
									<g>
										<g>
											<path class="st5" d="M1168.8,1544.6c-0.1,0.2-3.2-0.7-8.1-3.1c-4.8-2.2-11.3-5.9-17.9-10.7c-6.5-4.8-12-9.9-15.6-13.8
												s-5.6-6.6-5.3-6.8c0.5-0.4,9.2,9.4,22.2,18.9C1157.1,1538.7,1169.1,1544.1,1168.8,1544.6z"/>
										</g>
									</g>
								</g>
							</g>
						</g>
					</g>
					<g>
						<g>
							<g>
								<g>
									<g>
										<g>
											<path class="st5" d="M1263.6,1467.5c0.3,0,0.3,4.1,0.4,10.9s0.3,16,1.2,26.2c0.9,10.2,2.3,19.3,3.4,25.9
												s1.8,10.7,1.6,10.8c-0.2,0.1-1.5-3.9-3.1-10.5c-1.5-6.5-3.2-15.8-4.1-26c-0.9-10.3-1-19.6-0.7-26.4
												S1263.3,1467.5,1263.6,1467.5z"/>
										</g>
									</g>
								</g>
							</g>
						</g>
					</g>
					<g>
						<g>
							<g>
								<g>
									<g>
										<g>
											<path class="st5" d="M1283.9,1465.2c0-0.1,0.8-0.2,2.2,0.3c1.3,0.5,3.2,1.7,4.6,3.8c1.3,2.1,2.4,5.3,1.3,8.8
												c-1,3.5-4.8,6.1-8.9,6.2c-4,0.2-8-1.9-9.4-5.5c-1.2-3.4-0.2-6.7,1.2-8.8c1.5-2.2,3.4-3.2,4.7-3.6c1.4-0.3,2.2-0.1,2.2,0
												c0.2,0.3-3.3,0.3-5.6,4.3c-1.1,1.9-1.7,4.7-0.7,7.2c1,2.6,4.1,4.2,7.4,4.1c3.3-0.2,6.2-2.1,7-4.7c1-2.7,0.3-5.4-0.7-7.4
												C1287.1,1466,1283.7,1465.6,1283.9,1465.2z"/>
										</g>
									</g>
								</g>
							</g>
						</g>
					</g>
					<g>
						<g>
							<g>
								<g>
									<g>
										<g>
											<path class="st5" d="M1199.8,1458.3c0.1-0.1,0.7,1.1,1.5,3.2s1.4,5.5,1.4,9.6s-0.9,9.1-3.2,14.1c-2.2,5-6.1,10-11.4,13.7
												c-5.4,3.6-11.4,5.1-16.9,5.4c-5.5,0.2-10.4-0.8-14.3-2.4c-3.8-1.6-6.6-3.4-8.4-5c-1.7-1.5-2.5-2.5-2.4-2.6
												c0.2-0.3,3.8,3.5,11.4,6.1c3.7,1.3,8.5,2.2,13.7,1.8c5.2-0.3,10.9-1.9,15.8-5.2c4.9-3.4,8.5-8,10.8-12.7
												c2.2-4.7,3.2-9.4,3.5-13.3C1201.6,1463.1,1199.3,1458.4,1199.8,1458.3z"/>
										</g>
									</g>
								</g>
							</g>
						</g>
					</g>
					<g>
						<g>
							<g>
								<g>
									<g>
										<g>
											<path class="st5" d="M1362.1,1490.8c0,0.2-2.6,0.4-6.5-0.9c-3.8-1.2-9-4.4-12.4-9.7c-3.5-5.3-4.3-11.3-3.9-15.3
												c0.3-4.1,1.6-6.4,1.7-6.3c0.3,0.1-0.3,2.5-0.2,6.3c0,3.8,1,9.2,4.1,14.1c3.2,4.9,7.7,8,11.2,9.4
												C1359.7,1490,1362.2,1490.4,1362.1,1490.8z"/>
										</g>
									</g>
								</g>
							</g>
						</g>
					</g>
				</g>
				<g>
					<g>
						<g>
							<g>
								<path class="st5" d="M1447.2,1620.9c0,0,0.3-0.2,1.1-0.6c0.7-0.3,1.8-0.9,3.2-1.5c2.8-1.3,6.9-3.3,12.1-5.8
									c10.4-5.1,25.6-12.4,43.9-22.3s39.8-22.4,60.6-40.3c10.3-9,20.4-19.4,29-31.6c8.2-12.4,11.7-28.2,10.5-43.8
									c-0.7-7.8-2.7-15.4-5.8-22.4c-1.6-3.5-3.5-6.8-5.6-9.9s-4.6-5.9-7.1-8.6c-5.1-5.4-10.8-10.1-16.3-14.7s-11.2-8.8-17.7-10.6
									c-6.5-1.9-13.3-2.2-19.7-2.2s-12.8,0.8-18.7,2.1c-11.9,2.4-22.4,7-31.6,11.9c-18.2,10-32.8,18.2-43,23.9
									c-5.1,2.7-9,5-11.8,6.5c-1.3,0.7-2.3,1.2-3.1,1.7c-0.7,0.3-1.1,0.6-1.1,0.5c0,0,0.3-0.2,1-0.7c0.7-0.4,1.7-1,3-1.7
									c2.7-1.6,6.6-3.8,11.6-6.7c10.1-5.7,24.6-14.2,42.9-24.3c9.1-5,19.7-9.7,31.7-12.2c6.1-1.2,12.4-2,18.9-2.2
									c6.5-0.1,13.3,0.2,20.1,2.2c6.8,1.9,12.8,6.2,18.2,10.9c5.6,4.6,11.2,9.4,16.4,14.8c2.6,2.7,5.1,5.6,7.3,8.8
									c2.2,3.2,4.1,6.5,5.7,10.1c3.2,7.1,5.2,14.9,5.9,22.9c1.2,15.9-2.3,32-10.8,44.7c-8.7,12.4-18.9,22.7-29.3,31.7
									c-21,18-42.6,30.4-60.9,40.2c-18.4,9.8-33.6,17-44.1,21.9c-5.2,2.4-9.4,4.2-12.2,5.6c-1.3,0.6-2.4,1.1-3.2,1.4
									C1447.6,1620.7,1447.2,1620.9,1447.2,1620.9z"/>
							</g>
						</g>
					</g>
				</g>
			</g>
			<g>
				<g>
					<g>
						<g>
							<g>
								<g>
									<g>
										<g>
											<g>
												<g>
													<path class="st7" d="M1203.5,1618c0,0-148,39-154,41c-9,3-7.9,35.6,6,35.3c6.5-0.2,113.3,5.4,126.8,4.7
														s50-14.6,50-14.6L1203.5,1618z"/>
												</g>
											</g>
										</g>
									</g>
								</g>
							</g>
						</g>
					</g>
					<g>
						<g>
							<g>
								<g>
									<g>
										<g>
											<g>
												<g>
													<g>
														<path class="st8" d="M1141.3,1673.5c-0.7,0.1-1.7-7.7-6.3-15.9c-4.6-8.3-10.7-13.1-10.3-13.7
															c0.2-0.6,7.5,3.6,12.4,12.5C1142.2,1665.2,1142,1673.6,1141.3,1673.5z"/>
													</g>
												</g>
											</g>
										</g>
									</g>
								</g>
							</g>
						</g>
					</g>
					<g>
						<g>
							<g>
								<g>
									<g>
										<g>
											<g>
												<g>
													<g>
														<path class="st8" d="M1156.8,1666.8c-0.7,0.1-2.2-6.9-6-14.7c-3.7-7.8-8.4-13.2-7.9-13.7c0.4-0.5,6.1,4.4,10.1,12.6
															C1157.1,1659.3,1157.4,1666.7,1156.8,1666.8z"/>
													</g>
												</g>
											</g>
										</g>
									</g>
								</g>
							</g>
						</g>
					</g>
					<g>
						<g>
							<g>
								<g>
									<g>
										<g>
											<g>
												<g>
													<g>
														<path class="st8" d="M1171.3,1663.1c-0.7-0.1-0.1-7.5-3.2-15.7c-3.1-8.3-8.4-13.3-7.9-13.9c0.3-0.6,6.9,4.1,10.2,13
															S1171.9,1663.3,1171.3,1663.1z"/>
													</g>
												</g>
											</g>
										</g>
									</g>
								</g>
							</g>
						</g>
					</g>
					<g>
						<g>
							<g>
								<g>
									<g>
										<g>
											<g>
												<g>
													<g>
														<path class="st8" d="M1168.9,1644c-0.2,0.1-1.5-4.1-1.4-11c0.1-3.5,0.5-7.5,1.7-12c0.6-2.2,1.3-4.5,2.3-6.8
															c0.5-1.2,1.1-2.5,2.4-3.6c1.4-1.2,3.9-0.9,5.1,0.3c1.3,1.2,1.7,2.9,1.9,4.2c0.2,1.3,0.2,2.7,0.2,3.9
															c-0.1,2.6-0.4,5-1,7.2c-1.2,4.5-3,8.3-4.6,11.2c-3.5,6-6.5,9-6.7,8.8c-0.3-0.2,2.2-3.6,5.2-9.6c1.5-3,3.1-6.6,4-10.9
															c0.5-2.2,0.7-4.4,0.8-6.7c0-2.2,0-5.1-1.2-6.2c-0.7-0.6-1.3-0.7-2-0.2s-1.2,1.5-1.7,2.6c-0.9,2.2-1.7,4.4-2.3,6.5
															c-1.2,4.2-1.8,8.2-2.1,11.5C1168.7,1639.8,1169.3,1643.9,1168.9,1644z"/>
													</g>
												</g>
											</g>
										</g>
									</g>
								</g>
							</g>
						</g>
					</g>
					<g>
						<g>
							<g>
								<g>
									<g>
										<g>
											<g>
												<g>
													<g>
														<path class="st8" d="M1169.1,1642.5c-0.1-0.2,3.5-1.5,9.5-1.4c3,0,6.6,0.4,10.4,1.4c1.9,0.6,4,1.1,6,2.3
															c2,1.1,4.1,3.9,3.2,6.8c-0.7,2.7-3.1,4.6-5.4,5.2c-2.3,0.7-4.6,0.3-6.6-0.1c-4.1-1-7.1-3-9.5-4.8
															c-4.7-3.7-7-6.6-6.8-6.9s3.1,2.2,7.8,5.4c2.4,1.6,5.4,3.3,9,4.1c1.8,0.3,3.7,0.5,5.5,0c1.7-0.5,3.2-1.7,3.6-3.5
															c0.4-1.7-0.5-3.2-2.2-4.1c-1.6-1-3.5-1.6-5.3-2.2c-3.6-1.1-7-1.6-9.9-1.8C1172.8,1642.4,1169.2,1642.9,1169.1,1642.5z
															"/>
													</g>
												</g>
											</g>
										</g>
									</g>
								</g>
							</g>
						</g>
					</g>
					<g>
						<g>
							<g>
								<g>
									<g>
										<g>
											<g>
												<g>
													<g>
														<path class="st8" d="M1118.6,1674.9c-0.7-0.1,0.1-6.4-2.7-13.3c-2.7-7-7.5-11.1-7-11.6c0.2-0.6,6.4,3,9.4,10.8
															C1121.3,1668.3,1119.3,1675.1,1118.6,1674.9z"/>
													</g>
												</g>
											</g>
										</g>
									</g>
								</g>
							</g>
						</g>
					</g>
					<g>
						<g>
							<g>
								<g>
									<g>
										<g>
											<g>
												<g>
													<g>
														<path class="st8" d="M1221.6,1683c0.1,0.2-2,1.1-5.7,2.7c-3.8,1.4-9.4,3.3-16.5,4.9c-14.2,3.4-34.3,5.1-56.4,4.6
															s-42-1.7-56.5-2.5c-6.8-0.4-12.6-0.8-17.1-1.1c-4.1-0.3-6.3-0.6-6.2-0.7c0-0.2,2.2-0.2,6.3-0.2
															c4.6,0.1,10.3,0.2,17.2,0.3c14.9,0.5,34.7,1.1,56.5,1.8c22,0.5,41.9-1,56-3.9
															C1213.1,1686.1,1221.4,1682.5,1221.6,1683z"/>
													</g>
												</g>
											</g>
										</g>
									</g>
								</g>
							</g>
						</g>
					</g>
					<g>
						<g>
							<g>
								<g>
									<g>
										<g>
											<g>
												<g>
													<g>
														<path class="st8" d="M1225.9,1686.4c-0.2,0.3-4.2-2.1-11-5.1c-6.7-3-16.7-6.5-27.9-5c-11.1,1.6-19.1,9-24.3,14.1
															c-5.2,5.3-8.3,8.9-8.6,8.6c-0.2-0.2,2.3-4.1,7.4-9.8c2.5-2.8,5.7-6.1,9.9-9c4.1-3,9.5-5.5,15.3-6.3
															c11.9-1.7,22.4,2.4,29,5.9S1226,1686.1,1225.9,1686.4z"/>
													</g>
												</g>
											</g>
										</g>
									</g>
								</g>
							</g>
						</g>
					</g>
				</g>
				<g>
					<g>
						<g>
							<g>
								<g>
									<g>
										<path class="st8" d="M1077.8,1690.9c-0.2-0.2,1-2.2,2.2-5.6s2.2-8.5,1.2-13.8c-0.9-5.4-3.6-9.9-5.8-12.7
											c-2.3-2.8-4.1-4.2-4-4.5c0.1-0.2,2.3,0.8,5,3.6c2.7,2.7,5.7,7.4,6.7,13.3s-0.2,11.3-1.9,14.8
											C1079.7,1689.4,1077.9,1691.1,1077.8,1690.9z"/>
									</g>
								</g>
							</g>
						</g>
					</g>
				</g>
			</g>
		</g>
		<g>
			<g>
				<g>
					<g>
						<g>
							<path class="st7" d="M1196.7,1042.9l-76.1,21.3l24.8,236.8c0,0-14.3,84.6-14.3,106.8c0,28.8,22.5,39.7,22.5,39.7l243.2,7.4
								l12.4-10.8c6.4-7.5,9.4-17.3,8.1-27.1l-45.2-361.4l-84.6-18.4L1196.7,1042.9z"/>
						</g>
					</g>
				</g>
				<g>
					<g>
						<g>
							<g>
								<path class="st8" d="M1145.6,1300.8c-0.1,0-0.2-0.6-0.4-1.8c-0.2-1.3-0.6-3.1-1-5.2c-0.8-4.6-2.1-11.2-3.5-19.1
									c-2.8-16.3-6.7-38.5-11-63.2c-4.1-24.6-7.9-46.9-10.6-63.2c-1.2-8-2.3-14.5-3.1-19.1c-0.3-2.2-0.6-3.9-0.7-5.2
									c-0.2-1.2-0.2-1.8-0.2-1.8c0.1,0,0.2,0.6,0.4,1.8c0.2,1.3,0.6,3.1,1,5.2c0.8,4.6,2.1,11.2,3.5,19.1
									c2.8,16.3,6.7,38.5,11,63.2c4.1,24.6,7.9,46.9,10.6,63.2c1.2,8,2.3,14.5,3.1,19.1c0.3,2.2,0.6,3.9,0.7,5.2
									C1145.6,1300.2,1145.6,1300.8,1145.6,1300.8z"/>
							</g>
						</g>
					</g>
				</g>
				<g>
					<g>
						<g>
							<g>
								<path class="st8" d="M1298.2,1041.5c0.1,0.1-1.2,1.1-3.5,2.8c-1.2,0.8-2.7,1.7-4.5,2.8c-1.8,0.9-3.8,2.2-6.2,3.1
									c-4.7,2.1-10.6,4.1-17.2,5.4c-6.7,1.3-14.2,2.1-22,2.3c-7.9,0.2-15.3-0.2-22.1-0.7c-6.8-0.5-12.8-1.2-17.9-2.3
									c-5.1-1.1-9-2.7-11.6-3.9c-1.3-0.7-2.2-1.2-2.9-1.6c-0.7-0.4-1-0.7-0.9-0.7c0.1-0.1,1.5,0.7,4.1,1.7
									c2.7,1.1,6.5,2.4,11.5,3.4s11,1.6,17.8,2c6.7,0.4,14.2,0.7,22,0.6c7.8-0.2,15.2-0.9,21.8-2.2c6.6-1.2,12.4-3.1,17.2-5.1
									C1293,1045.5,1297.9,1041.2,1298.2,1041.5z"/>
							</g>
						</g>
					</g>
				</g>
				<g>
					<g>
						<g>
							<g>
								<path class="st8" d="M1376.8,1406.9c0,0.1-0.6,0.2-1.7,0.3c-1.2,0.2-2.8,0.4-4.8,0.7c-2.1,0.3-4.6,0.7-7.6,0.9
									c-3,0.2-6.4,0.7-10.1,0.8c-7.5,0.5-16.4,0.7-26.4,0.7c-9.9-0.2-20.9-0.9-32.2-2.2c-11.4-1.4-22.1-3.3-31.8-5.5
									c-9.7-2.2-18.3-4.6-25.5-6.8c-3.6-1.1-6.8-2.2-9.6-3.2c-2.8-0.9-5.2-1.9-7.2-2.7c-1.8-0.7-3.3-1.3-4.5-1.8
									c-1-0.4-1.6-0.7-1.5-0.7c0-0.1,0.6,0.1,1.7,0.4c1.2,0.4,2.7,0.9,4.6,1.6c2,0.7,4.4,1.6,7.2,2.4c2.8,0.9,6.1,2,9.6,3
									c7.2,2.2,15.8,4.4,25.4,6.5c9.7,2.1,20.4,3.9,31.7,5.3c11.4,1.3,22.2,2,32.1,2.3c9.9,0.2,18.8,0.1,26.3-0.3
									c3.7-0.1,7.1-0.4,10.1-0.7c3-0.2,5.6-0.4,7.6-0.7c2-0.2,3.6-0.3,4.8-0.4C1376.2,1406.9,1376.8,1406.8,1376.8,1406.9z"/>
							</g>
						</g>
					</g>
				</g>
				<g>
					<g>
						<g>
							<g>
								<path class="st8" d="M1405,1203.8c-0.1,0-0.5-1.2-1.2-3.3c-0.7-2.2-1.6-5.2-2.6-9.1c-2.1-7.7-4.8-18.5-7.5-30.4
									s-4.7-22.8-6.1-30.8c-0.7-4-1.2-7.1-1.5-9.4c-0.3-2.2-0.4-3.5-0.3-3.5s0.4,1.2,0.9,3.4c0.5,2.5,1.2,5.6,2,9.3
									c1.7,7.9,3.9,18.7,6.5,30.6c2.7,11.9,5.2,22.7,7,30.5c0.8,3.6,1.6,6.8,2.2,9.2C1404.9,1202.5,1405.1,1203.8,1405,1203.8z"/>
							</g>
						</g>
					</g>
				</g>
			</g>
			<g>
				<g>
					<g class="st11">
						<g>
							<g>
								<g>
									<path d="M1223.2,1053.6c3.1,10.6,0.2,26,1.7,35.5c6,38,8.9,76.5,6.1,114.8c-0.2,2.1-0.3,4.2,0.4,6.2
										c0.7,1.8,1.9,3.3,3.1,4.8c7.7,10.2,9.7,23.8,8.1,36.5s-6.3,24.7-11,36.6c-0.2-10.2,0.2-25.5,1.1-35.7
										c0.2-2.1,1.2-0.7,1.2-2.7c0.3-12.3-1.7-23.6-10.4-32.4c-1.7-1.7-3.7-3.3-4.9-5.5c-1.1-2-1.4-4.3-1.7-6.5
										c-5.3-42.9-8.9-85.9-10.9-129c-0.1-2.5-0.2-5.1,1.4-7c1.2-1.5,3.2-2.2,4.7-3.2c3.3-2.2,5.4-6.1,9-7.7"/>
								</g>
							</g>
						</g>
					</g>
					<g>
						<g>
							<g>
								<path class="st7" d="M1120.5,1064.2c0,0-69.5,16.4-52.6,120.5c5.9,36.6,17.3,91,41.4,148c11.4,26.8,37.2,45.3,66.1,41.4
									c12.6-1.7,25.1,0.3,33.6-4.7c12.8-7.7,18.4-33.8,20.8-61.9c1.7-19.1,1-39.1,3.5-55.5c4.1-26.7-8.1-39.3-23.8-42.4
									l-61.4-12.3l-3.6,32.5L1120.5,1064.2z"/>
							</g>
						</g>
					</g>
					<g>
						<g>
							<g>
								<g>
									<path class="st8" d="M1169.5,1271.6c0.2-0.2,1.2,1.2,3.6,3.1c2.3,1.7,6.2,3.8,11.4,4.6s11.6-0.2,18.2-2.6
										c6.5-2.5,13.8-5.8,19.6-11.4s9.2-12.8,10.2-19.6c1.1-6.9-0.2-13.3-2.2-18.2c-4.1-9.9-10.2-13.8-9.8-14.1
										c0.1-0.1,1.6,0.7,3.8,2.8c2.2,2.1,5.2,5.6,7.5,10.6s3.9,11.8,2.8,19.1c-1,7.3-4.5,15.2-10.8,21.1s-13.8,9.2-20.6,11.7
										c-6.9,2.4-13.7,3.2-19.2,2.2c-5.6-1-9.5-3.4-11.9-5.6C1170.2,1273.2,1169.4,1271.6,1169.5,1271.6z"/>
								</g>
							</g>
						</g>
					</g>
					<g>
						<g>
							<g>
								<g>
									<path class="st8" d="M1105.7,1323.6c0.2-0.1,1.3,3.3,4.1,8.9c2.8,5.6,7.7,13.4,15.8,21.3c8,7.8,19.6,15.3,34,18.8
										c14.3,3.6,31.4,3.2,47.1-3.3c7.9-3.2,10.7-11.9,13.8-19.2c2.7-7.5,4.6-15.2,5.9-22.5c2.5-14.7,3.1-28.3,3.9-39.5
										c0.8-11,1.5-20.1,2-26.8c0.2-2.9,0.5-5.3,0.7-7.3c0.2-1.7,0.3-2.6,0.4-2.6s0.1,0.9,0.1,2.6c-0.1,1.9-0.1,4.4-0.2,7.3
										c-0.3,6.7-0.7,15.8-1.2,26.9c-0.6,11.4-1,24.9-3.4,39.8c-1.2,7.5-3,15.3-5.8,23c-1.5,3.9-3.1,7.7-5.2,11.5s-5.6,7.3-9.8,9
										c-16.4,6.9-34,7-48.7,3.2c-14.8-3.7-26.6-11.7-34.7-19.7c-8.1-8.1-12.8-16.2-15.5-22.1c-1.3-2.9-2.2-5.2-2.7-6.9
										C1105.8,1324.5,1105.6,1323.6,1105.7,1323.6z"/>
								</g>
							</g>
						</g>
					</g>
					<g>
						<g>
							<g>
								<g>
									<path class="st8" d="M1128.8,1278.4c-0.3,0-0.2-4.8,0.2-12.5s1.2-18.3,2.1-30.1c0.5-5.9,0.9-11.4,1.5-16.6
										c0.7-5.1,2.2-9.9,4.7-13.1c2.6-3.2,5.6-4.7,7.9-5.1c2.2-0.4,3.5,0,3.5,0.1c0,0.2-1.2,0.1-3.2,0.8c-1.9,0.7-4.6,2.2-6.7,5.3
										c-4.6,6.1-4,17.2-5.2,28.8c-1,11.8-2,22.4-2.8,30C1129.8,1273.6,1129.1,1278.5,1128.8,1278.4z"/>
								</g>
							</g>
						</g>
					</g>
					<g>
						<g>
							<path class="st8" d="M1150.5,1167.7c-0.6-3.3-1.6-8-2.8-13.9c-2.5-11.8-6.1-27.9-10.3-45.8c-2.1-8.9-3.9-17.5-6.6-25
								c-2.7-7.6-6.2-14.1-10.2-18.7l-1.3,1.1c3.6,4.6,7,10.9,9.4,18.4c2.5,7.5,4.2,16,6.4,24.9c4.1,17.8,8,34,11,45.6
								c1.5,5.8,2.7,10.5,3.6,13.8c0.9,3.2,1.5,5,1.7,5C1151.4,1172.8,1151.1,1171,1150.5,1167.7z"/>
						</g>
					</g>
					<g class="st11">
						<g>
							<g>
								<g>
									<path d="M1151.1,1190.2c-5.6-0.2-11,2.2-15.7,5.3c-10.1,6.8-17.5,17.5-20.7,29.3s-2.5,24.5,1.6,36.1
										c1.2,3.6,3.7,7.6,7.5,7.5c4.5-0.2,6.3-5.7,6.9-10.2c1.7-12.3,3.4-24.5,5.1-36.8c0.6-4.1,1.2-8.5,3.2-12.1
										c2.1-3.6,5.9-6.6,10.1-6.5c0.4-4.4,0.7-8.7,1.2-13.1"/>
								</g>
							</g>
						</g>
					</g>
				</g>
			</g>
			<g>
				<g>
					<g>
						<path class="st7" d="M1564.8,1246.2c0,0,13-19.5,14.3-48.2c1.3-28.8-6.8-53-6.8-53l-73.9-22.9l-0.5,24.6L1564.8,1246.2z"/>
					</g>
				</g>
				<g>
					<g>
						<path class="st7" d="M1498.1,1146.7l-126-91.1v6.3l13.6,141.8c0,0,104.1,46.7,131.7,53.5c27.6,6.9,47.4-11.1,47.4-11.1
							L1498.1,1146.7z"/>
					</g>
				</g>
				<g>
					<g>
						<g>
							<path class="st8" d="M1535.4,1215.6c-0.1,0.1-1.1-0.4-2.8-1.5c-1.7-1.1-4.2-2.9-7-5.4c-5.6-5-11.9-13.3-16.8-23.5
								c-4.9-10.3-7.7-20.1-9.6-27.3c-0.9-3.6-1.6-6.5-2.1-8.5c-0.4-2-0.6-3.2-0.5-3.2c0.2-0.1,1.6,4.3,3.8,11.4
								c2.2,7,5.2,16.7,10,26.8c4.8,10,10.9,18.2,16.1,23.4C1531.7,1213,1535.7,1215.3,1535.4,1215.6z"/>
						</g>
					</g>
				</g>
				<g>
					<g>
						<g>
							<path class="st8" d="M1572.1,1162.8c0,0.2-1.2,0.2-3.2,0.1c-2.1-0.1-5.1-0.4-8.9-1c-7.4-1.2-17.6-3.8-28-8.6
								c-10.4-4.9-19-10.9-24.6-15.8c-2.8-2.5-5.1-4.6-6.5-6.1c-1.4-1.6-2.2-2.4-2.1-2.5c0.2-0.2,3.5,3.1,9.3,7.6
								c5.8,4.6,14.3,10.4,24.6,15.2c10.3,4.7,20.1,7.5,27.4,9C1567.4,1162.1,1572.1,1162.5,1572.1,1162.8z"/>
						</g>
					</g>
				</g>
				<g>
					<g>
						<g>
							<path class="st8" d="M1503.7,1203.8c-0.2,0.1-2-2.7-3.9-7.8c-1.9-5.1-3.6-12.4-4.2-20.6s-0.2-15.7,0.2-21.1
								c0.4-5.4,0.8-8.6,1.1-8.6s0.2,3.3,0.2,8.7c-0.1,5.4-0.2,12.8,0.3,20.9c0.6,8.1,2,15.3,3.6,20.4
								C1502.5,1200.6,1503.9,1203.6,1503.7,1203.8z"/>
						</g>
					</g>
				</g>
			</g>
			<g>
				<g>
					<g>
						<path class="st8" d="M1370.2,1110.1c0.1,0,0.6,1.3,1.3,3.9c0.7,2.5,1.7,6.1,2.9,10.7c2.3,9,5.3,21.6,8.2,35.6
							c2.9,14,5.2,26.7,6.8,35.9c0.7,4.6,1.3,8.4,1.7,10.9s0.5,4.1,0.3,4.1c-0.1,0-0.5-1.4-1.1-4c-0.6-2.9-1.3-6.5-2.2-10.9
							c-1.9-9.5-4.5-22-7.3-35.7c-3-13.8-5.6-26.1-7.7-35.6c-0.9-4.3-1.7-7.9-2.3-10.9C1370.4,1111.5,1370.1,1110.1,1370.2,1110.1z"
							/>
					</g>
				</g>
			</g>
		</g>
		<g>
			<g>
				<g>
					<g>
						<path class="st9" d="M1147.4,1210.2l15.4-170.8l51.1,20.2l6.5,173.7c0,0-16.4,24.8-44,14.6
							C1148.9,1237.8,1147.4,1210.2,1147.4,1210.2z"/>
					</g>
				</g>
			</g>
			<g>
				<g>
					<g>
						<polygon class="st8" points="1157.3,889.8 1252.9,974 1235.7,1036.8 1228.7,1038.9 1145.1,953.3 1150.4,891.9 						"/>
					</g>
				</g>
			</g>
			<g>
				<g>
					<g>
						<polygon class="st5" points="1150.4,891.9 1246,976.1 1228.7,1038.9 1138.1,955.3 						"/>
					</g>
				</g>
			</g>
			<g>
				<g>
					<g>
						<path class="st9" d="M1216.1,1065.2c0,0,9.9-10.3,9.6-23.5c-0.2-12.8-3.7-43.9-3.7-43.9s16.6-35,16.2-39.6s-1.2-4.6-7.1-2.7
							c-6,1.9-24.5,33.7-24.5,33.7l-6.1-23.6c0,0,15.4-24.8,16.7-28.3c1.2-3.5,3.2-6.3-0.6-6.6c-3.8-0.3-32.8,27.7-32.8,27.7
							l2.3,25.9c0,0-0.6,2.1-4.7-1.6s-3.2-34.6-3.2-34.6s9.9-18.3,9.6-21c-0.2-2.7,1.8-5.6-0.2-10c-1.9-4.5-7.6,0.7-7.6,0.7
							l-19.2,25.2l-6.9-24.9c0,0,0.2-5.3-6.6-5.4l2.7,80.7l17.5,62.2L1216.1,1065.2z"/>
					</g>
				</g>
			</g>
			<g>
				<g>
					<g>
						<g>
							<path class="st10" d="M1220.5,1233.4c0,0-0.2-1-0.2-3.1c-0.1-2.2-0.2-5.1-0.5-8.9c-0.3-8-0.8-19.4-1.5-33.9
								c-1.2-29.4-2.8-71.4-4.9-122.2v-0.5l0.4-0.3c3.9-3.3,7.3-8,9.3-13.1c2.1-5.1,2.3-10.9,1.9-16.8c-0.6-11.9-2.1-24.1-3.7-36.7
								l-0.1-0.3l0.2-0.3c3.2-6.6,6.2-13.5,9.3-20.6c1.5-3.5,3-7,4.4-10.7c0.7-1.8,1.3-3.6,1.9-5.5l0.3-1.3c0.1-0.4,0.1-0.7,0.1-1.2
								c-0.1-0.9-0.2-1.9-0.5-2.4c0.2-0.6-2.5,0-4.1,0.6c-1.1,0.3-1.5,0.6-2.2,1.2c-0.7,0.6-1.4,1.2-2.1,2c-2.7,2.9-5,6.2-7.3,9.5
								c-4.6,6.7-9,13.8-13.2,20.9l-1.5,2.6l-0.7-2.9c-1.9-7.5-4-15.5-6.1-23.6l-0.2-0.5l0.2-0.4c2.5-4.1,5.1-8.4,7.8-12.8
								c3-5.1,6.2-10.2,8.6-15.2c0.5-1.4,1.2-2.8,1.5-4c0.2-0.7,0.1-0.9,0.1-0.8c0-0.1-0.7-0.3-1.2-0.2c-0.2,0-0.8,0.3-1.4,0.7
								c-0.6,0.3-1.2,0.7-1.7,1.2c-1.2,0.8-2.3,1.7-3.4,2.6c-8.9,7.3-17.2,15.2-25.3,22.9l0.3-1c0.7,8.8,1.6,17.4,2.3,25.9v0.2
								l-0.1,0.2c-0.4,1.2-1.6,1.5-2.3,1.4c-0.7-0.1-1.2-0.3-1.7-0.5c-0.9-0.5-1.7-1.1-2.3-1.7c-1.7-1.6-2.1-3.6-2.5-5.3
								c-0.7-3.5-1-7-1.2-10.4c-0.3-6.8-0.3-13.5-0.2-20.1v-0.2l0.2-0.2c3.4-6.5,6.9-12.8,9.3-19.2c0.1-0.4,0.2-0.8,0.2-1
								s0-1,0.1-1.4c0.1-1,0.3-1.8,0.5-2.7c0.3-1.7,0.3-3.1-0.2-4.6c-0.5-1.7-1.1-2.4-2.3-2.2c-1.3,0.2-2.7,1.2-3.9,2.2l0.2-0.2
								c-6.7,8.7-13.1,17.1-19.2,25.1l-1.2,1.7l-0.5-2c-2.3-8.6-4.6-16.9-6.8-25V918v-0.2c0-1.3-0.7-2.7-1.7-3.4
								c-1.1-0.7-2.5-1-3.9-1l0.9-0.9c0.9,32.8,1.7,60.1,2.3,80.8v-0.2c3.8,14.8,6.8,26.4,8.9,34.2c0.9,3.8,1.7,6.7,2.2,8.9
								c0.5,2,0.7,3.1,0.7,3.1s-0.3-1-0.9-3c-0.6-2.1-1.4-5-2.5-8.8c-2.2-7.9-5.3-19.3-9.4-34.1v-0.1v-0.1
								c-0.7-20.6-1.7-47.9-3-80.7v-1h1c1.7,0,3.4,0.2,5,1.3s2.6,2.9,2.6,5v-0.3c2.2,8,4.5,16.2,6.9,24.9l-1.8-0.3
								c6.1-8,12.5-16.4,19.1-25.2l0.1-0.1l0.1-0.1c1.4-1.2,2.9-2.2,5-2.7c1-0.2,2.5,0,3.3,0.9c0.9,0.9,1.2,1.9,1.5,2.7
								c0.6,1.8,0.6,3.9,0.2,5.7c-0.2,0.9-0.3,1.7-0.4,2.5c-0.1,0.4,0,0.6,0,1.2c0,0.7-0.2,1.2-0.3,1.7c-2.6,6.9-6,13.1-9.4,19.7
								l0.2-0.5c-0.2,6.5-0.2,13.2,0.2,19.9c0.2,3.3,0.4,6.7,1.2,9.9c0.4,1.6,0.7,3.2,1.7,4c0.6,0.5,1.2,1,1.9,1.3
								c0.3,0.2,0.7,0.2,0.7,0.2h0.1l0.1,0.2v0.1l0,0h0.1l0.2,0.1l0,0c0.6,0.2-0.7-0.2-0.6-0.2v0.1v0.4c-0.7-8.5-1.6-17.2-2.3-25.9
								l-0.1-0.6l0.4-0.4c8.1-7.8,16.4-15.7,25.4-23c1.2-0.9,2.3-1.8,3.5-2.7c0.7-0.4,1.2-0.8,1.9-1.2c0.7-0.3,1.2-0.8,2.6-1.1
								c1,0,1.8,0,2.9,0.9c1.1,1.1,0.8,2.6,0.6,3.2c-0.5,1.7-1.1,2.8-1.6,4.2c-2.7,5.6-5.8,10.4-8.9,15.6c-2.7,4.4-5.4,8.8-7.8,12.8
								l0.2-0.9c2.1,8.1,4.1,16.2,6.1,23.6l-2.2-0.3c4.2-7.2,8.6-14.3,13.3-21.1c2.3-3.4,4.7-6.7,7.5-9.8c0.7-0.7,1.4-1.5,2.3-2.2
								c0.7-0.7,2.2-1.3,3.1-1.6c1-0.3,1.9-0.6,3.1-0.8c0.5-0.1,1.2-0.2,1.9-0.1s1.7,0.7,2,1.4c0.6,1.3,0.7,2.3,0.7,3.3
								c0,0.6-0.1,1.2-0.2,1.8l-0.4,1.5c-0.6,2-1.2,3.8-2,5.6c-1.4,3.6-2.9,7.2-4.5,10.8c-3.1,7-6.2,13.9-9.4,20.6l0.1-0.7
								c1.7,12.7,3.1,25,3.6,36.9c0.3,5.9,0.2,12.2-2.2,17.7c-2.2,5.5-5.6,10.2-9.9,13.9l0.4-0.8c1.7,50.8,3.1,92.8,4,122.3
								c0.4,14.6,0.7,26,0.9,33.9c0.1,3.8,0.2,6.8,0.2,8.9C1220.6,1232.4,1220.5,1233.4,1220.5,1233.4z"/>
						</g>
					</g>
				</g>
			</g>
			<g>
				<g>
					<g>
						<g>
							<path class="st10" d="M1164.9,986.8c-0.7,0.1-2-9.8-3-22c-1-12.3-1.2-22.2-0.5-22.3c0.7,0,2,9.9,3,22
								C1165.3,976.8,1165.5,986.8,1164.9,986.8z"/>
						</g>
					</g>
				</g>
			</g>
		</g>
	</g>
	<g>
		<g>
			<g>
				<g>
					<path class="st3" d="M1035.5,1015.4L980.8,905c30.3-65.8,43.4-140.6,34.2-217.8c-26.8-222.1-228.5-380.4-450.6-353.6
						c-222.2,26.9-380.5,228.6-353.6,450.7c26.8,222.1,228.5,380.4,450.6,353.6c92.8-11.2,174.2-53,235.9-113.9l-0.1,0.2
						L1035.5,1015.4z"/>
				</g>
			</g>
			<g>
				<g>
					<g>
						<path class="st8" d="M1035.5,1015.4c-2.8,0.2-48.4,3.2-138.3,9.1l-0.7,0.1l0.4-0.7c0-0.1,0.1-0.2,0.1-0.2l0.7,0.5
							c-9.5,9.2-19.9,19-31.8,28.3c-5.8,4.9-12.2,9.4-18.6,14.1c-6.6,4.5-13.3,9.3-20.6,13.6c-28.6,18-62.6,33.9-101.4,45.2
							c-38.7,11.4-82.4,17.2-128.7,15.7c-46.3-1.7-95.1-11.8-142.5-32c-47.4-20.1-93.3-50.5-132.5-90.8
							c-39.3-40-71.3-90.4-91.4-146.9c-20.2-56.5-27.9-119.5-20.7-182.3c0.7-7.9,2.2-15.7,3.3-23.5c1.3-7.9,3.2-15.6,4.7-23.5
							c3.9-15.5,8.2-31,14-46.1c5.4-15.3,12.2-30,19.4-44.6c7.6-14.4,15.7-28.7,25-42.3c9.2-14.1,19.7-27.2,30.5-39.9l8.4-9.3
							l4.2-4.6l4.4-4.4l8.8-8.8l9.1-8.4c24.5-22.2,51.6-41,80-56.2c7-4,14.4-7.3,21.6-10.8c7.3-3.4,14.8-6.3,22-9.5
							c7.5-2.7,14.9-5.6,22.5-8c7.6-2.2,15.1-4.8,22.8-6.5c30.5-7.9,61.5-12.1,92.1-13c61.3-1.7,120.7,11,172.9,33.9
							c52.4,22.8,97.5,56,133.2,94.2c35.8,38.1,62.4,81.2,79.8,124.5c8.8,21.6,15.4,43.4,20.2,64.7c1.1,5.4,2.1,10.7,3.2,15.9
							c1.1,5.2,1.7,10.5,2.5,15.8c0.4,2.6,0.7,5.2,1.2,7.8c0.2,2.6,0.6,5.1,0.8,7.7c0.6,5.1,1,10.2,1.2,15.3
							c2.7,40.5-1.1,77.8-8.1,110.7c-3.6,16.4-7.9,31.7-12.7,45.8c-4.9,14.1-10.2,27-15.6,38.9v-0.3
							C1016.3,976.6,1034.3,1013,1035.5,1015.4c-1.2-2.4-19.3-38.8-55-110.3l-0.1-0.2l0.1-0.2c5.3-11.8,10.6-24.7,15.4-38.8
							c4.8-14.1,9-29.4,12.5-45.8c7-32.7,10.6-70,8-110.4c-0.3-5.1-0.7-10.1-1.3-15.3c-0.2-2.6-0.6-5.1-0.8-7.7
							c-0.4-2.6-0.7-5.1-1.2-7.8c-0.8-5.2-1.4-10.4-2.5-15.8c-1.1-5.2-2.1-10.5-3.2-15.9c-4.9-21.2-11.4-42.9-20.2-64.5
							c-17.4-43.2-43.9-86-79.7-124c-35.6-38-80.6-71-132.8-93.7c-52.1-22.7-111.2-35.5-172.2-33.7c-30.4,0.9-61.3,5.1-91.7,13
							c-7.6,1.7-15.1,4.3-22.6,6.5c-7.5,2.3-14.9,5.3-22.4,7.9c-7.3,3.1-14.8,6-22,9.4c-7.2,3.5-14.5,6.7-21.6,10.8
							c-28.4,15.2-55.3,33.8-79.7,56l-9.1,8.3l-8.7,8.8l-4.4,4.4l-4.1,4.6l-8.4,9.2c-10.7,12.7-21.1,25.7-30.3,39.7
							c-9.3,13.5-17.3,27.8-24.9,42.1c-7.1,14.6-14,29.3-19.3,44.4c-5.7,15-10,30.5-13.9,45.9c-1.6,7.8-3.4,15.5-4.7,23.3
							c-1.2,7.8-2.7,15.6-3.3,23.5c-7.1,62.6,0.5,125.3,20.6,181.5c20,56.4,51.8,106.4,90.9,146.3c39,40,84.6,70.4,131.9,90.4
							c47.2,20.1,95.9,30.3,142,32c46.1,1.6,89.6-4.1,128.2-15.4c38.6-11.2,72.6-27,101.1-44.9c7.2-4.3,13.9-9,20.6-13.5
							c6.4-4.8,12.8-9.2,18.6-14.1c11.9-9.3,22.2-19,31.8-28.1l2.1-2l-1.5,2.5c0,0.1-0.1,0.2-0.1,0.2l-0.3-0.6
							C987.1,1018.4,1032.7,1015.7,1035.5,1015.4z"/>
					</g>
				</g>
			</g>
		</g>
	</g>
	<g>
		<g>
			<path class="st5" d="M300.7,1098.6l503.6-0.8c0,0-120.4,79.8-265,70.4C413.6,1159.9,300.7,1098.6,300.7,1098.6z"/>
		</g>
	</g>
	<g>
		<g>
			<g>
				<g>
					<path class="st3" d="M587.3,804.2l23.8,87.1l87-117.5l-20.5,308H553.4l-36.2,1.7c0,0,5.4-48.6,7.5-75.9
						c0.4-5.2,2.2-35.7,11-64.5C554.4,882.6,587.3,804.2,587.3,804.2z"/>
				</g>
			</g>
			<g>
				<g>
					<g>
						<path class="st8" d="M615.4,940.5c0.3,0.4-13.8,11.7-31.3,25.3c-17.6,13.5-32.2,24.2-32.4,23.8c-0.3-0.4,13.7-11.7,31.3-25.3
							C600.5,950.8,615,940.1,615.4,940.5z"/>
					</g>
				</g>
			</g>
		</g>
		<g>
			<g>
				<g>
					<polygon class="st7" points="831.6,761.8 763.9,729.2 737.4,697.7 699.8,736.7 600.4,1081 771,1081 792.8,1021.9 831.6,793.8 
											"/>
				</g>
			</g>
			<g>
				<g>
					<path class="st7" d="M527.2,1086l-4.6-73l206.1-35c0,0,35.2-170,56.9-198c20-25.7,46.1-16.8,46.1-16.8s23.5,16.1,17.9,77.8
						c-3,32.3-14.8,144.2-19.1,184.7c-1,9.7-4.2,19-9.4,27.3l0,0c-11.8,19-32.5,30.5-54.9,30.5L527.2,1086z"/>
				</g>
			</g>
			<g>
				<g>
					<g>
						<path class="st8" d="M762.3,1020.4c-0.3,0-0.6-3.2-2.1-8.2s-4.4-11.7-9.5-17.7c-5.1-6.1-11.2-10.1-15.9-12.4
							c-4.6-2.3-7.9-3.1-7.8-3.5c0-0.2,3.4,0.2,8.3,2.3c4.9,2.1,11.4,6.1,16.7,12.4c5.3,6.3,8.2,13.3,9.4,18.6
							C762.8,1017.1,762.6,1020.4,762.3,1020.4z"/>
					</g>
				</g>
			</g>
			<g class="st12">
				<g>
					<g>
						<path d="M758.6,734.2c-2,21.5-6.1,42.8-12.3,63.5c-5.1-1.5-10.4-3.1-15.5-4.6c6.4,9.1,7.1,21.2,4.6,32
							c-2.5,10.9-8,20.7-13.4,30.4c-25.6,46.1-51.3,92.1-76.9,138.2l77.5-176l-2-32.6l14.9-3.2L758.6,734.2z"/>
					</g>
				</g>
			</g>
			<g class="st12">
				<g>
					<g>
						<path d="M728,976c9.4-0.6,18.9,2.2,26.5,7.7s13.3,13.7,15.7,22.8c0.6,2.2,1,4.6,0.1,6.6c-0.8,2.1-3.3,3.6-5.4,2.7
							c-1.6-0.7-2.3-2.4-3-4c-6.7-15.3-20-27.8-35.8-33.4"/>
					</g>
				</g>
			</g>
			<g>
				<g>
					<g>
						<path class="st8" d="M645.7,992.1c-0.1,0,0.3-1,1.1-2.8c0.8-2,1.9-4.6,3.3-8c3.1-7,7.3-16.9,12.5-29.1
							c10.8-24.7,25.6-58.4,42-95.8c6-13.6,11.8-26.7,17.2-39l-0.1,0.4c-0.7-11.5-1.3-22.5-1.9-32.6v-0.7l0.7-0.2
							c5.2-1.1,10.2-2.2,14.9-3.1l-0.5,0.4c7.7-15.7,14.1-28.5,18.6-37.6c2.2-4.3,3.9-7.8,5.2-10.3c0.6-1.1,1-2,1.4-2.7
							c0.3-0.6,0.5-0.9,0.6-0.9c0,0-0.1,0.3-0.3,1c-0.3,0.7-0.7,1.7-1.2,2.7c-1.2,2.6-2.8,6.1-4.9,10.4c-4.4,9.2-10.5,22.1-18,37.9
							l-0.2,0.3l-0.3,0.1c-4.7,1-9.7,2.1-14.9,3.2l0.6-0.8c0.7,10,1.3,21,2.1,32.5v0.2l-0.1,0.2c-5.4,12.3-11.2,25.4-17.2,39
							c-16.6,37.3-31.6,71-42.5,95.6c-5.5,12.1-9.9,21.9-13.1,28.9c-1.5,3.3-2.7,5.9-3.6,7.8C646.2,991.1,645.8,992.1,645.7,992.1z"
							/>
					</g>
				</g>
			</g>
			<g>
				<g>
					<g>
						<path class="st8" d="M527.1,1083.6c0,0-0.1-0.4-0.2-1.2c-0.1-0.9-0.2-2.1-0.3-3.6c-0.2-3.2-0.6-7.9-1-13.8
							c-0.8-12-1.9-29.3-3.3-50.6v-0.6l0.6-0.1c38.7-7.1,91.3-16.7,149-27.4c19.1-3.5,37.6-6.8,55-9.9l-0.7,0.7
							c12.1-45.9,22.5-85.7,30.1-114.2c3.8-14.1,6.8-25.4,9-33.2c1.1-3.8,1.9-6.7,2.5-8.9c0.2-0.9,0.5-1.7,0.7-2.3
							c0.2-0.5,0.2-0.7,0.2-0.7s0,0.2-0.2,0.8s-0.3,1.4-0.5,2.3c-0.5,2.2-1.2,5.1-2.2,9c-2,7.9-4.9,19.2-8.5,33.4
							c-7.4,28.5-17.7,68.4-29.4,114.4l-0.2,0.6l-0.6,0.1c-17.3,3.2-35.8,6.5-55,10c-57.9,10.4-110.4,19.9-149.1,26.9l0.5-0.7
							c1.2,21.2,2.1,38.5,2.7,50.6c0.2,5.9,0.5,10.5,0.7,13.8c0.1,1.5,0.1,2.7,0.1,3.6C527.1,1083.2,527.1,1083.6,527.1,1083.6z"/>
					</g>
				</g>
			</g>
		</g>
		<g>
			<g>
				<g>
					<path class="st8" d="M821.1,756.1c0.1,0.3-3.5,0.8-8.7,2.8c-5.2,1.9-12.2,5.6-18.5,11.5c-6.2,5.9-10.4,12.5-12.7,17.7
						s-3.1,8.6-3.4,8.5c-0.1,0,0-0.9,0.2-2.5s0.9-3.8,1.9-6.5c2-5.4,6.1-12.4,12.6-18.5s13.8-9.7,19.3-11.4c2.7-0.8,5.1-1.3,6.6-1.5
						C820.2,756,821.1,756,821.1,756.1z"/>
				</g>
			</g>
		</g>
		<g>
			<g>
				<g>
					<g>
						<g>
							<g>
								<path class="st13" d="M431.6,678.6c6.1-11.3,3.4-56.7,12.8-55.1c12,2.1,0.9,49.8,0.2,54.2c-0.7,4.2,5.6,5.5,6,1.5
									c0.7-5.7,7.7-61.3,19.5-58.2c6.5,1.7,3.6,13.7,3.6,13.7s-10.2,53.9-4.6,55.2c5.7,1.3,9.9-29.8,12.4-41.1
									c2.4-10.9,9.4-15.5,12.1-9.8c3.9,8.4-3.6,35.5-5.9,46.4c-2.2,10.9-7.9,42.4,7.5,30.1c15.3-12.4,31.6-16.2,36.6-14.2
									s4,9.8-1.9,11.3c-4.7,1.2-12.1,5.7-17.4,9.4c-4.4,3-8,7-11.5,10.9c-2.6,2.7-7.1,8.5-10.9,17c-4.4,9.9-12.9,17.5-23.2,20.8
									l0,0l-9,42.4l-57.8-12.4l12.8-44.9c4.7-29.5,2.1-69.1,2.2-87.2c0.1-28.8,3.8-29,7.1-28.3C429.5,642,425.6,689.6,431.6,678.6
									z"/>
							</g>
						</g>
					</g>
				</g>
			</g>
			<g>
				<g>
					<g>
						<g>
							<path class="st14" d="M429.9,717.2c-0.1,0.2,3.2,0.8,7.7,3.6c4.5,2.7,10,7.9,13,15.4c0.8,2,1.3,4.1,1.7,6.1l0.2,1l0.8-0.5
								c5.6-3.3,11-4.9,15-5.6s6.4-0.8,6.4-1.1c0-0.2-2.5-0.4-6.5,0.2c-4.1,0.5-9.7,2-15.5,5.3l1,0.5c-0.4-2.1-0.9-4.3-1.8-6.4
								c-1.6-3.9-3.9-7.3-6.4-9.9s-5.1-4.6-7.5-5.8c-2.3-1.3-4.5-1.9-5.9-2.4C430.8,717.3,429.9,717.1,429.9,717.2z"/>
						</g>
					</g>
				</g>
			</g>
			<g>
				<g>
					<g>
						<g>
							<path class="st14" d="M422.2,757.6c-0.2,0.3,5.5,4.1,13.5,6.5c8,2.5,14.8,2.7,14.8,2.3c0.1-0.4-6.6-1.2-14.4-3.6
								C428.4,760.4,422.5,757.3,422.2,757.6z"/>
						</g>
					</g>
				</g>
			</g>
		</g>
		<g>
			<g>
				<polygon class="st13" points="631.4,715.9 587.3,804.2 611.1,891.3 674.6,824.3 737.1,708.2 				"/>
			</g>
		</g>
		<g>
			<g>
				<g>
					<path class="st7" d="M589.9,724.1c0,0-62.8,22.3-62.8,26.4l0,0c-11.1,8.7-48,98-59.8,114.8l-33.6,49.5l0,0l0,0L462,805
						l-61.9-18.2c0,0-52.9,127.8-59.4,156.3c-6.5,28.4,1,51,1,51l0.3-0.3c4.5,13.8,13.2,24.8,23.2,31.3c26.3,16.8,50.8,20,75.8,1.5
						c14.3-10.5,30.5-23.2,45.3-35.1l3.9,92.3h34.2c0-5.2-1.1-68.4-1.1-68.4s7.3-23.9,10.4-45.6C537,947.9,588,805,588,805
						l39.5-76.2l0.9-28.2L589.9,724.1z"/>
				</g>
			</g>
			<g>
				<g>
					<g>
						<path class="st8" d="M489.7,1082.9c-0.1,0-0.2-1-0.3-2.9c-0.2-2.1-0.3-4.8-0.5-8.3c-0.4-7.4-0.9-17.7-1.6-30.6
							c-1.2-26.1-2.8-62-4.6-102.3v-0.1v-0.1c0.7-3.8,1.5-7.9,2.3-12c8.3-42.4,15.8-80.7,21.3-108.6c2.8-13.8,5.1-25,6.6-32.8
							c0.8-3.7,1.4-6.7,1.9-9c0.2-0.9,0.4-1.7,0.5-2.3c0.2-0.5,0.2-0.7,0.2-0.7s0,0.2-0.1,0.8c-0.1,0.7-0.2,1.4-0.3,2.3
							c-0.4,2.2-0.9,5.2-1.6,9c-1.5,8-3.6,19.1-6.1,33c-5.3,27.9-12.7,66.3-20.7,108.7c-0.8,4.1-1.6,8.2-2.3,12v-0.2
							c1.6,40.3,3,76.3,4.1,102.4c0.4,12.8,0.7,23.3,1,30.6c0.1,3.5,0.2,6.2,0.2,8.3C489.8,1081.9,489.8,1082.9,489.7,1082.9z"/>
					</g>
				</g>
			</g>
			<g>
				<g>
					<g>
						<path class="st8" d="M524.8,1000.9c-0.1,0,0.1-1,0.3-2.9c0.3-2.1,0.7-4.8,1.2-8.2c1.2-7.3,2.9-17.6,4.9-30.3
							c4.4-25.7,10.4-60.8,16.9-99.6c4.4-25.4,8.6-49.2,12.1-69.5v-0.1v-0.1c8.7-19.7,16-36.2,21.1-48c2.6-5.6,4.6-10.1,6.1-13.4
							c0.7-1.4,1.2-2.6,1.7-3.5c0.4-0.8,0.6-1.2,0.7-1.2c0.1,0-0.1,0.4-0.4,1.2c-0.4,0.9-0.8,2.2-1.4,3.6c-1.4,3.3-3.2,7.9-5.6,13.6
							c-5.1,11.9-12.1,28.4-20.6,48.2l0.1-0.2c-3.5,20.3-7.5,44.2-11.9,69.6c-6.8,38.8-12.9,73.9-17.5,99.6
							c-2.3,12.6-4.1,22.9-5.5,30.2c-0.7,3.4-1.2,6.1-1.6,8.2C525.1,1000,524.8,1001,524.8,1000.9z"/>
					</g>
				</g>
			</g>
			<g>
				<g>
					<g>
						<path class="st8" d="M404.6,990.7c-0.2-0.2,2.5-4.1,6.2-10.5c3.8-6.5,8.5-15.8,12.6-26.6s6.9-20.8,8.6-28.2s2.6-11.9,2.8-11.9
							c0.1,0,0.1,1.2-0.2,3.3c-0.2,2.2-0.7,5.1-1.4,8.9c-1.4,7.5-4.1,17.7-8.2,28.6c-4.1,10.9-9.1,20.2-13.2,26.6
							c-2.1,3.2-3.8,5.7-5.1,7.4C405.4,989.9,404.6,990.8,404.6,990.7z"/>
					</g>
				</g>
			</g>
			<g class="st12">
				<g>
					<g>
						<path d="M409.3,985.6c-2.3,0.2-3.6,3.2-2.7,5.4c1,2.2,3.6,3.1,6,2.7s4.4-1.7,6.1-3.3c5.3-4.9,8.5-11.7,10.7-18.7
							c5.3-16.8,5.6-34.7,5.8-52.3c-4.9,23-13.7,45-25.7,65.2"/>
					</g>
				</g>
			</g>
			<g class="st12">
				<g>
					<g>
						<path d="M485.5,993.8c-10.6-16.9-14-36.6-12.7-56.5c1.9-26.9,14.9-51.4,24.6-76.4c-5.6,26.4-8.8,52.6-13.8,77.8
							c0,0,2.7,37.6,2.7,54.4"/>
					</g>
				</g>
			</g>
			<g class="st12">
				<g>
					<g>
						<path d="M528.8,977c2.7-40.1,5.5-80.4,12.6-120s20.9-80.7,40.5-115.8c-5.1,15.9-20.6,49.3-20.6,49.3S538.8,909.1,529,968.8"/>
					</g>
				</g>
			</g>
		</g>
		<g>
			<g>
				<g>
					<g>
						<path class="st13" d="M523.7,1023.1l5.6,62.3l-29.4-0.1c-0.7,0-12.8-0.2-26-0.4c-9.7,1.2-25.2,1.3-29.8,0.8
							c-0.8-0.1-1.3-0.2-1.4-0.3c0,0-2.2-0.2-4.6-1.1c-0.1,0-0.2,0-0.2,0v-0.1c-2.7-1-5.4-2.7-5-5.6c1.3-9,6.6-9.6,6.6-9.6
							s1-0.1,2.7-0.2l0.2-0.7c-4.1,0-7.5-0.1-9.2-0.3c-0.8-0.1-1.3-0.2-1.4-0.3c0,0-10.4-1.2-9.6-6.7c1.3-9,6.6-9.6,6.6-9.6
							s3.6-0.2,8.5-0.6c-4.1,0-7.7-0.1-9.5-0.2c-0.8-0.1-1.3-0.2-1.4-0.3c0,0-10.4-1.2-9.6-6.7c1.3-9,6.6-9.6,6.6-9.6
							s2.9-0.2,7.1-0.5c-3.4,0-6.1-0.1-7.7-0.2c-0.8-0.1-1.3-0.2-1.4-0.3c0,0-10.4-1.2-9.6-6.7c1.3-9,6.6-9.6,6.6-9.6
							s16.4-1.2,27.7-1.7c0,0,12.8-11.5,17.8-11c7.5,0.8,51.2,16.9,51.2,16.9L523.7,1023.1z"/>
					</g>
				</g>
			</g>
			<g>
				<g>
					<g>
						<g>
							<g>
								<g>
									<g>
										<g>
											<g>
												<g>
													<g>
														<path class="st14" d="M468.6,1067.2c-0.1,0.5-6.5,1.2-14.6,1.4s-14.4,0.1-14.4-0.5c0.1-0.5,6.5-1.2,14.6-1.4
															S468.6,1066.7,468.6,1067.2z"/>
													</g>
												</g>
											</g>
										</g>
									</g>
								</g>
							</g>
							<g>
								<g>
									<g>
										<g>
											<g>
												<g>
													<g>
														<path class="st14" d="M468.6,1049.5c0,0.5-9.3,1.2-20.7,1.7c-11.4,0.4-20.8,0.3-20.8-0.2s9.3-1.2,20.7-1.7
															C459.4,1048.8,468.6,1049,468.6,1049.5z"/>
													</g>
												</g>
											</g>
										</g>
									</g>
								</g>
							</g>
							<g class="st15">
								<g>
									<g>
										<g>
											<g>
												<g>
													<g>
														<path class="st14" d="M467.1,1031.5c0,0.5-9.3,1.2-20.7,1.7c-11.4,0.4-20.7,0.3-20.8-0.2c0-0.5,9.3-1.2,20.7-1.7
															C457.9,1030.9,467.1,1031,467.1,1031.5z"/>
													</g>
												</g>
											</g>
										</g>
									</g>
								</g>
							</g>
						</g>
					</g>
				</g>
			</g>
			<g>
				<g>
					<g>
						<g>
							<path class="st14" d="M441.5,1014.7c0,0.2,2.5,0.3,6.6,0.5c4.6,0.2,10,0.3,15.9,0.5s11.3,0.4,15.9,0.6
								c4.1,0.2,6.6,0.2,6.6-0.1c0-0.2-2.5-0.6-6.5-1c-4.1-0.4-9.7-0.8-15.9-1c-6.2-0.2-11.9-0.2-16-0.1
								C443.9,1014.3,441.5,1014.5,441.5,1014.7z"/>
						</g>
					</g>
				</g>
			</g>
		</g>
		<g>
			<g>
				<g>
					<path class="st8" d="M765.9,507.6c7.4-18,30.8-26.1,49-19.5c18.2,6.7,30.4,25.4,32.6,44.7c1.1,9.5-0.1,19.6-5.6,27.4
						c-5.7,8.3-15.6,12.9-25.5,14.3c-17.7,2.5-36.6-5.2-47.5-19.6c-10.9-14.3-13.3-34.5-6.2-51"/>
				</g>
			</g>
			<g>
				<g>
					<g>
						<path class="st5" d="M840.1,510c0.1,0.1-0.3,0.9-1.3,2.4c-1,1.5-2.5,3.5-4.7,5.7c-4.3,4.6-11.4,9.9-20.6,13.1
							c-9.1,3.1-18.1,3.2-24.2,2.3c-3.1-0.4-5.6-1.1-7.2-1.7s-2.6-1-2.5-1.1c0.1-0.3,3.7,0.8,9.9,1.4c6.1,0.6,14.7,0.2,23.5-2.7
							s15.8-8,20.2-12.3C837.7,513,839.8,509.8,840.1,510z"/>
					</g>
				</g>
			</g>
			<g>
				<g>
					<g>
						<path class="st5" d="M847.9,530.5c0.1,0.1-0.7,0.7-2,1.9s-3.4,2.7-6.1,4.4c-5.3,3.4-13.2,7.5-22.7,9.5
							c-4.7,1-9.5,1.2-13.6,1.1c-4.2-0.2-8-0.9-11-1.8c-3.1-0.9-5.5-1.8-7-2.7c-1.6-0.7-2.4-1.2-2.4-1.4c0.2-0.3,3.6,1.3,9.7,2.7
							c3,0.7,6.6,1.2,10.8,1.4c4.1,0.1,8.5-0.2,13.2-1.2c9.3-1.9,17.1-5.8,22.5-8.9C844.6,532.5,847.7,530.2,847.9,530.5z"/>
					</g>
				</g>
			</g>
			<g>
				<g>
					<path class="st8" d="M577.4,561.3c-43.2-94.9,59.5-142.6,115.5-126.7c52.6,14.8,75.1,41,83.7,76.3c8.7,35.2,8.3,73.4-5.6,106.9
						c-6.8,16.6-19.1,33.3-36.8,35.4"/>
				</g>
			</g>
			<g>
				<g>
					<path class="st13" d="M629,795.8c-0.7-45.3-1.2-107.6-1.3-107.3c0,0-39-6.5-47.1-57.4c-4-25.3-2.7-66.7-0.6-100.6
						c1.9-30.5,22.1-68,52.6-64.7l94.9,24c9.2,1,16.2,8.9,16,18.2l0,0l-6.2,196.4"/>
				</g>
			</g>
			<g>
				<g>
					<g>
						<g>
							<g>
								<g>
									<g>
										<path class="st8" d="M603.3,566.6c-0.2,3.4,2.6,6.4,6.1,6.6s6.5-2.3,6.7-5.8c0.2-3.4-2.6-6.4-6.1-6.6
											C606.5,560.6,603.4,563.2,603.3,566.6z"/>
									</g>
								</g>
							</g>
						</g>
					</g>
				</g>
			</g>
			<g>
				<g>
					<g>
						<g>
							<g>
								<g>
									<g>
										<path class="st8" d="M673.6,566.6c-0.2,3.4,2.6,6.4,6.1,6.6c3.6,0.2,6.5-2.3,6.7-5.8c0.2-3.4-2.6-6.4-6.1-6.6
											C676.8,560.6,673.8,563.2,673.6,566.6z"/>
									</g>
								</g>
							</g>
						</g>
					</g>
				</g>
			</g>
			<g>
				<g>
					<g>
						<path class="st8" d="M631.5,602.6c0-0.4-4.3-1.2-11.4-2.1c-1.8-0.2-3.5-0.6-3.8-1.7c-0.4-1.3,0.3-3.2,1.2-5.3
							c1.7-4.3,3.5-8.9,5.3-13.7c7.4-19.4,12.7-35.4,11.9-35.7c-0.7-0.2-7.4,15.3-14.8,34.6c-1.7,4.8-3.5,9.4-5.1,13.8
							c-0.7,2.1-1.8,4.3-0.9,7c0.5,1.3,1.8,2.3,3,2.7c1.2,0.3,2.2,0.3,3.1,0.4C627.1,602.9,631.5,603,631.5,602.6z"/>
					</g>
				</g>
			</g>
			<g>
				<g>
					<path class="st14" d="M627.5,688.7c0,0,34.2,2.2,68.1-18.2c0,0-17.2,35.4-68.1,30.6V688.7z"/>
				</g>
			</g>
			<g>
				<g>
					<g>
						<g>
							<g>
								<g>
									<g>
										<path class="st13" d="M733.7,572c0.7-0.3,27.2-12.1,27.5,18.4c0.3,30.4-30.3,24.5-30.4,23.6
											C730.8,613.1,733.7,572,733.7,572z"/>
									</g>
								</g>
							</g>
						</g>
					</g>
				</g>
			</g>
			<g>
				<g>
					<g>
						<g>
							<g>
								<g>
									<g>
										<g>
											<path class="st14" d="M740.1,602.4c0.2-0.1,0.5,0.3,1.4,0.7s2.4,0.7,4,0.1c3.2-1.2,5.9-6.4,6-11.9
												c0.1-2.7-0.6-5.4-1.6-7.5c-0.9-2.2-2.4-3.7-4.1-4.1c-1.6-0.3-2.7,0.7-3.1,1.5c-0.4,0.8-0.2,1.5-0.3,1.5
												c-0.1,0.1-0.7-0.5-0.4-1.7c0.1-0.6,0.5-1.3,1.2-1.9c0.7-0.6,1.8-0.9,2.9-0.8c2.3,0.2,4.5,2.2,5.6,4.6
												c1.2,2.4,2,5.4,1.9,8.5c-0.2,6.1-3.2,11.9-7.6,13.3c-2.2,0.6-3.9-0.1-4.9-0.7C740.1,603.1,740,602.5,740.1,602.4z"/>
										</g>
									</g>
								</g>
							</g>
						</g>
					</g>
				</g>
			</g>
			<g>
				<g>
					<g>
						<g>
							<g>
								<path class="st14" d="M633.6,622.2c1,2.6,2.1,5.2,3.8,7.4s4.2,3.9,7,4.1c3,0.2,5.8-1.6,7.5-4.1s2.2-5.6,2.1-8.5
									c-0.1-2.7-1.3-5.9-4-6.2c-1.1-0.2-2.2,0.3-3.2,0.7c-4.6,1.9-9.4,3.8-14,5.7"/>
							</g>
						</g>
					</g>
				</g>
				<g>
					<g>
						<g>
							<g>
								<g>
									<path class="st8" d="M639.2,633.7c0.1-0.4,3.1,0.8,7.5-0.9c2.1-0.8,4.4-2.5,5.6-5.1c1.2-2.6,1.5-6.1,0.2-9.1
										c-0.3-0.7-0.7-1.5-1.2-2.1c-0.6-0.6-0.4-0.6-1.1-0.5c-0.6,0.2-1.5,0.6-2.2,0.9c-0.7,0.3-1.6,0.7-2.3,0.9
										c-3,1.2-5.7,2.2-8,3.2c-4.6,1.7-7.5,2.7-7.6,2.3c-0.2-0.3,2.5-1.8,7-3.9c2.2-1.1,4.8-2.3,7.8-3.6c0.7-0.3,1.5-0.7,2.2-1
										c0.8-0.3,1.4-0.7,2.6-1.1c0.6-0.2,1.3-0.2,2.1,0.1c0.7,0.3,1.2,0.8,1.6,1.2c0.7,0.8,1.2,1.7,1.6,2.7
										c1.7,3.8,1.2,8-0.4,11.2c-1.7,3.2-4.6,5-7.1,5.7s-4.7,0.6-6.1,0.2C639.8,634.4,639.2,633.9,639.2,633.7z"/>
								</g>
							</g>
						</g>
					</g>
				</g>
			</g>
			<g>
				<g>
					<path class="st5" d="M767.9,551.2c-3.1-0.2-28.3,3.1-26.3,49.8c1.8,43.7,32.5,34.1,42.3,17.6
						C793.1,603,798.5,553.4,767.9,551.2z"/>
				</g>
			</g>
			<g>
				<g>
					<g>
						<path class="st5" d="M783.5,556.7c0,0-0.1-0.4-0.1-1.2c0-0.9-0.1-2.1-0.2-3.6c-0.1-3.2-0.2-7.7-0.3-13.3
							c-0.2-11.4-0.6-27.4-0.9-45.8l0.6,0.6c-4.1,0-8.5,0-12.9,0l0.6-0.6c0.1,3.5,0.2,7.1,0.3,10.9c0.4,17.6,0.8,33.9,1.2,47.6v0.4
							l-0.4,0.1c-5.8,1.3-10.4,4.7-13.3,8.6c-3,3.8-4.4,8-5.3,11.3c-0.9,3.4-1.2,6.1-1.4,8c-0.1,0.9-0.2,1.7-0.2,2.2
							s-0.1,0.7-0.1,0.7s-0.1-0.2-0.1-0.7s0-1.2,0-2.2c0.1-1.9,0.3-4.6,1.2-8.1c0.8-3.4,2.2-7.6,5.2-11.6c2.9-4,7.7-7.6,13.8-9
							l-0.4,0.5c-0.4-13.7-0.8-30-1.3-47.6c-0.1-3.7-0.2-7.4-0.2-10.9v-0.6h0.6c4.5,0,8.8,0,12.9,0h0.6v0.6
							c0.2,18.4,0.4,34.4,0.5,45.8c0,5.6,0,10.1,0.1,13.3c0,1.5,0,2.7,0,3.6C783.5,556.3,783.5,556.7,783.5,556.7z"/>
					</g>
				</g>
			</g>
			<g>
				<g>
					<path class="st5" d="M767.9,492.8c0,0-13.2-30.8-44.5-45.9c-15.2-7.4-26.5-11.2-37.6-13.9c0,0,18.3-4.3,47.8,8.8
						c13.4,6,27,13.8,36,25.4c5.7,7.4,12.8,21.9,12.8,25.6H767.9L767.9,492.8z"/>
				</g>
			</g>
			<g>
				<g>
					<g>
						<path class="st8" d="M764.6,631.6c0,0-0.3-0.1-0.9-0.2c-0.6-0.2-1.4-0.6-2.3-1.2c-1.9-1.2-4.5-3.5-6.6-7
							c-2.1-3.6-3.5-8.4-4.1-13.7c-0.5-5.4-0.5-11.3,0-17.5s1.6-12,2.9-17.2s2.9-9.9,5.1-13.3c2.2-3.6,4.6-5.8,6.6-7
							c1-0.6,1.8-1,2.3-1.2c0.6-0.2,0.9-0.2,0.9-0.2c0.1,0.1-1.2,0.5-3,1.8c-1.8,1.2-4.2,3.6-6.1,7c-2,3.5-3.5,8-4.7,13.2
							c-1.2,5.1-2.2,10.9-2.7,17.1c-0.5,6.1-0.5,12-0.1,17.2c0.5,5.3,1.7,9.9,3.7,13.4c1.9,3.5,4.3,5.8,6.1,7
							C763.4,631.1,764.6,631.5,764.6,631.6z"/>
					</g>
				</g>
			</g>
			<g>
				<g>
					<g>
						<path class="st5" d="M671.7,636.9l-34.7,6.8c-0.2,0.1-0.5-0.1-0.6-0.4l-2.5-12.5c-0.1-0.2,0.1-0.5,0.4-0.6l34.7-6.8
							c0.2-0.1,0.5,0.1,0.6,0.4l2.5,12.5C672.1,636.7,672,636.9,671.7,636.9z"/>
					</g>
				</g>
				<g>
					<g>
						<path class="st5" d="M667.7,628.1l106.9-33.6c2.7-0.8,5.5,0.7,6.3,3.2l0,0c0.9,2.7-0.7,5.6-3.5,6.4l-109.3,29.5L667.7,628.1z"
							/>
					</g>
				</g>
				<g>
					<g>
						<g>
							<path class="st8" d="M746.7,613.4c0-0.1,1.2-0.5,3.6-1.2c2.5-0.7,5.8-1.7,9.8-3c4.1-1.2,9.1-2.6,14.4-4.3
								c1.3-0.5,2.6-1.2,3.5-2.2s1.5-2.3,1.5-3.7s-0.9-2.6-2.2-3.1c-1.3-0.4-2.9-0.2-4.5,0.2c-12.4,4-23.6,7.6-32,10.3
								c-4,1.2-7.3,2.2-9.8,3c-2.3,0.7-3.6,1-3.6,1c-0.1,0,1.2-0.6,3.5-1.4c2.5-0.8,5.7-2,9.6-3.4c8.2-2.8,19.4-6.6,32-10.7
								c1.7-0.4,3.4-0.7,5.1-0.1c1.7,0.6,3,2.4,3,4.1c0,1.7-0.7,3.3-1.8,4.6c-1.2,1.2-2.6,1.8-3.9,2.4c-5.6,1.7-10.4,3-14.6,4.1
								c-4,1.1-7.4,1.9-9.9,2.7C748,613.1,746.7,613.5,746.7,613.4z"/>
						</g>
					</g>
				</g>
			</g>
			<g>
				<g>
					<g>
						<path class="st14" d="M690.5,551.6c-0.8,1.3-8.1-2.7-17.2-1.1c-9.1,1.5-14.7,7.7-15.8,6.8c-0.6-0.4,0-2.7,2.5-5.4
							c2.4-2.7,6.8-5.8,12.5-6.7c5.6-1,10.9,0.4,14,2.2C689.6,549.1,691,551.1,690.5,551.6z"/>
					</g>
				</g>
			</g>
			<g>
				<g>
					<g>
						<path class="st8" d="M689.6,552.8c-0.2,0.2-1.9-0.6-5-1.2c-3.1-0.7-7.4-1.1-12-0.1c-4.6,1.1-8.4,3.3-10.9,5.2s-3.7,3.5-4,3.3
							c-0.2-0.1,0.7-2,3.2-4.2c2.3-2.3,6.3-4.9,11.3-6c5-1.2,9.7-0.5,12.8,0.6C688,551.4,689.6,552.6,689.6,552.8z"/>
					</g>
				</g>
			</g>
			<g>
				<g>
					<g>
						<path class="st8" d="M694.3,532.3c-0.7,2.4-8.5,2.2-17.7,2.7c-9.3,0.2-17.1,1-17.9-1.4c-0.4-1.2,1.2-3,4.4-4.6
							s7.9-2.9,13.2-3.1c5.3-0.2,10.2,0.7,13.4,2.2C692.9,529.5,694.5,531.2,694.3,532.3z"/>
					</g>
				</g>
			</g>
			<g>
				<g>
					<g>
						<path class="st14" d="M617.6,557c-0.7,0.4-2.1-0.9-4.3-2.4c-2.2-1.6-5.4-3.1-9.3-3.7c-7.9-1.3-14.2,2.3-15.1,1.1
							c-0.4-0.6,0.7-2.3,3.5-4.1c2.7-1.7,7.4-3.1,12.5-2.3c5.1,0.7,9.2,3.6,11.1,6.4C618,554.6,618.2,556.7,617.6,557z"/>
					</g>
				</g>
			</g>
			<g>
				<g>
					<g>
						<path class="st8" d="M618.4,560.8c-0.2,0.2-1.4-1.6-3.9-3.7c-2.4-2.2-6.4-4.7-11.2-5.7c-4.9-1.1-9.5-0.4-12.6,0.6
							s-5,2.1-5.1,1.8c-0.2-0.2,1.4-1.7,4.6-3c3.1-1.3,8.1-2.3,13.4-1.2s9.4,4.1,11.7,6.6C617.9,558.7,618.7,560.8,618.4,560.8z"/>
					</g>
				</g>
			</g>
			<g>
				<g>
					<g>
						<path class="st8" d="M621.6,535.4c-0.4,2.5-7.9,3.2-16.7,3.3c-8.8,0-16.2-0.6-16.7-3.1c-0.5-2.4,6.9-6,16.7-6.1
							C614.6,529.6,622.1,533,621.6,535.4z"/>
					</g>
				</g>
			</g>
			<g>
				<g>
					<path class="st8" d="M703.7,463.3c-5.5,8.3-11.1,16.7-13.9,26.2c-2.8,9.5-2.6,20.5,3,28.7c5.4,7.9,14.5,12,22.9,16.6
						s16.9,10.9,19,20.1c0.7,2.9-0.6,13,1.6,15.1c3,2.8,8.3,1.1,10.5-2.3c2.2-3.4,3.7-14.6,3.8-18.7c0.2-12.7,0.3-25.4,0.5-38
						c0.2-10.7,0-21.9-4.6-31.5c-6.5-13.5-20-17.8-39.6-16.9"/>
				</g>
			</g>
			<g>
				<g>
					<path class="st8" d="M578.9,539.5c1.7-12.8,6.4-25.4,14.4-35.5c8.1-10.1,19.7-17.6,32.5-19.5s25.8,1.7,38.7,2.3
						c12.9,0.7,27.7-2.4,34.5-13.5c2.1-3.5,3.1-8.3,0.4-11.3c-1-1.2-2.4-1.8-3.8-2.5c-17.2-8.1-36.6-11.8-55.5-9
						c-18.8,2.8-36.7,12.3-48.6,27.2c-11.8,14.8-16.9,35.1-12.4,53.6"/>
				</g>
			</g>
			<g>
				<g>
					<g>
						<path class="st5" d="M571.1,520.5c-0.1,0-0.2-0.6-0.6-1.7c-0.3-1.1-0.7-2.7-1-5c-0.6-4.3-0.7-10.9,1.7-18.5
							c2.3-7.5,7.2-16.1,15.3-22.8c8-6.8,18.7-11.9,30.7-13.8c11.9-2,23.5-0.8,33.7,1.5c5.1,1.2,9.8,2.7,14.1,4.2
							c4.3,1.6,8.2,3.3,11.9,4.3c7.5,1.6,13.9,2.5,18.1,1.6c4.2-0.8,5.8-3.1,5.9-2.9c0,0-0.3,0.6-1.2,1.3c-0.8,0.8-2.4,1.7-4.6,2.2
							c-4.4,1.2-10.8,0.4-18.6-1.1c-3.9-0.9-7.8-2.7-12.1-4.1c-4.3-1.5-9-2.9-14-4.1c-9.9-2.2-21.4-3.3-33-1.3
							c-11.6,1.9-22.1,6.7-29.9,13.3c-7.9,6.5-12.7,14.7-15.2,22s-2.7,13.7-2.2,18C570.5,518.1,571.3,520.4,571.1,520.5z"/>
					</g>
				</g>
			</g>
			<g>
				<g>
					<g>
						<path class="st5" d="M627.4,440.5c0-0.1,1.1-0.4,3.2-0.6c2.1-0.2,5.1-0.3,8.9,0c7.5,0.7,17.9,3.6,27,10.9
							c4.5,3.6,8.3,7.5,12.3,10.2c3.9,2.7,8.2,4,11.8,4.7s6.5,0.8,8.6,0.6c2-0.2,3.1-0.8,3.2-0.7c0.1,0.1-0.9,0.8-3,1.3
							s-5.2,0.6-9,0c-3.7-0.7-8.2-1.7-12.4-4.6c-4.2-2.7-8-6.6-12.4-10.1c-8.8-7-18.8-10-26.1-10.9
							C632,440.1,627.4,440.8,627.4,440.5z"/>
					</g>
				</g>
			</g>
			<g>
				<g>
					<g>
						<path class="st5" d="M781.3,533.9c-0.2,0.1-0.7-1.2-2.2-3.1c-1.5-1.9-4.1-4.4-8.1-6.2c-3.9-1.8-9.1-3.1-14.8-3
							c-5.8,0.1-12.1,1.3-18.8,2.6c-6.6,1.2-13.3,2.1-19.2,1.5c-6-0.5-11.2-2-15.3-3.7s-7.3-3.6-9.4-5.1c-2.1-1.4-3.1-2.4-3-2.5
							c0.2-0.3,4.6,3.2,12.8,6.3c4.1,1.5,9.2,2.8,15,3.2c5.8,0.5,12.1-0.3,18.8-1.6c6.6-1.2,13.1-2.5,19.1-2.5
							c6.1,0,11.4,1.4,15.4,3.5c4.1,2.1,6.7,4.9,8.1,7c0.7,1.1,1.2,2,1.3,2.6C781.2,533.5,781.4,533.8,781.3,533.9z"/>
					</g>
				</g>
			</g>
			<g>
				<g>
					<g>
						<path class="st5" d="M775.8,509.4c-0.2,0.1-0.7-1.2-2.2-3.1c-1.5-1.8-4.1-4.1-8.1-5.7c-3.9-1.7-9-2.2-14.7-1.6
							c-5.6,0.6-11.7,2.2-18.3,3.5c-6.5,1.2-13.3,1.6-19-0.3c-5.7-1.7-10.1-5-13.2-8.1c-3.1-3.2-4.8-6.4-5.8-8.7
							c-0.5-1.2-0.7-2.1-0.9-2.7c-0.2-0.7-0.2-1-0.2-1c0.4-0.2,1.6,5.4,7.8,11.4c3.1,3,7.4,5.9,12.8,7.5c5.4,1.7,11.7,1.3,18.2,0.1
							c6.5-1.2,12.6-2.9,18.5-3.4c5.8-0.6,11.3,0.2,15.3,2.1c4.1,1.8,6.8,4.5,8.2,6.5C775.6,508,775.8,509.4,775.8,509.4z"/>
					</g>
				</g>
			</g>
			<g>
				<g>
					<g>
						<path class="st8" d="M645.1,858.1c0,0,0.2-0.2,0.7-0.6c0.4-0.3,1.1-0.8,1.9-1.5c1.7-1.4,4.1-3.5,7.1-6.5s6.3-6.9,10-11.6
							c3.6-4.8,7.5-10.4,11.9-16.8c8.5-12.7,18.7-28.2,29.3-46c5.3-9,10.9-18.4,16.4-28.4c1.4-2.5,2.7-5.1,4.1-7.6
							c1.4-2.6,2.8-5.2,4.8-7.5c1.9-2.4,4.5-4.3,7.4-5.4c1.5-0.5,3.1-0.8,4.7-0.5c0.8,0.2,1.7,0.6,2.2,1.2c0.7,0.7,1,1.5,1.2,2.2
							l0.1,0.2l-0.1,0.2c-0.4,1-0.8,2.1-1.7,2.9c-0.7,0.8-1.9,1.4-3.1,1.5c-2.3,0.2-4.3-0.9-6.1-2.1c-3.8-2.3-5.5-7.5-3.9-11.9
							c0.7-2.2,2.4-4.1,4.5-5.1c2-1,4.4-1.4,6.6-0.9c2.2,0.5,4.5,1.7,5.4,4.1c0.5,1.2,0.2,2.8-0.7,3.7s-2,1.4-3.2,1.7
							c-4,1-8.3-1-10.2-4.6c-0.9-1.8-1.2-4.1-0.6-6c0.5-2,1.6-3.7,3.1-5.1c1.5-1.3,3.4-2.2,5.5-2.1c2,0.1,4,0.9,5.1,2.7
							c0.6,0.8,0.8,2,0.7,3.1c-0.2,1.1-0.8,2.1-1.7,2.7c-1.7,1.2-3.8,1.4-5.6,0.7c-1.9-0.7-3.2-2.5-3.8-4.2
							c-0.7-1.8-0.8-3.6-0.8-5.6c0.1-3.6,0.7-7.4,2.7-10.5c1.1-1.5,2.5-2.8,4.4-3.3c1.8-0.4,3.7,0,5.3,0.9c1.5,0.9,2.9,2.7,2.7,4.7
							s-1.7,3.6-3.5,4.1c-1.7,0.6-3.6,0.3-5.1-0.8c-1.4-1.1-2.2-2.8-2.6-4.5c-0.3-1.7-0.1-3.6,0.4-5.1c0.4-1.6,1-3.2,1.7-4.6
							c0.7-1.4,1.9-2.8,3.3-3.6c1.4-0.8,2.9-1.4,4.5-1.5c0.7-0.1,1.7-0.1,2.5,0.3c0.7,0.4,1.3,1,1.8,1.7s0.8,1.4,1,2.2
							s0.2,1.7-0.3,2.6c-0.9,1.7-2.9,1.9-4.3,1.7c-1.5-0.2-2.9-1.1-4-2.1c-2.2-2.1-3.3-5-3.4-7.9c-0.2-2.8,0.6-5.7,2.2-8
							c0.8-1.1,1.7-2.2,3-2.8c1.2-0.7,2.5-1,3.8-1.1c1.3,0,2.7,0.2,3.7,1.1c1.1,0.8,1.7,2.2,1.6,3.6c-0.3,2.7-2.7,4.6-5,4.9
							c-2.5,0.3-4.6-1.4-5.7-3.2c-1.2-1.9-1.6-4.1-1.4-6.2c0.4-4.2,2.6-7.5,3.8-10.6c1.4-3.1,2.7-6.1,3.8-8.6
							c2.3-5.1,4.1-9.2,5.3-11.9c0.6-1.3,1.1-2.3,1.4-3.1c0.3-0.7,0.5-1,0.5-1s-0.1,0.4-0.4,1.1c-0.3,0.7-0.7,1.8-1.3,3.2
							c-1.2,2.8-2.9,6.9-5.1,12c-1.1,2.7-2.3,5.5-3.7,8.7c-1.2,3.2-3.3,6.5-3.6,10.4c-0.2,1.9,0.2,4,1.3,5.7c1,1.7,3,3.2,5.1,2.8
							c2-0.2,4.1-2,4.3-4.1c0.1-1.1-0.4-2.2-1.2-2.8c-0.8-0.7-2.1-0.9-3.2-0.9c-1.2,0.1-2.3,0.3-3.4,1c-1.1,0.6-1.9,1.5-2.7,2.6
							c-1.4,2.1-2.2,4.8-1.9,7.5c0.2,2.7,1.2,5.3,3.2,7.2c1,0.9,2.2,1.6,3.5,1.8c1.2,0.2,2.7-0.1,3.3-1.2c0.6-1.1,0.1-2.6-0.7-3.6
							c-0.4-0.6-0.9-1-1.5-1.3c-0.5-0.2-1.2-0.2-1.9-0.2c-2.8,0.3-5.7,1.8-7,4.6c-0.7,1.3-1.2,2.8-1.7,4.4c-0.5,1.6-0.7,3-0.4,4.6
							c0.2,1.5,1,2.9,2.2,3.8c1.2,0.9,2.7,1.1,4.1,0.7c1.4-0.4,2.6-1.6,2.7-3.1c0.2-1.5-0.8-2.8-2.2-3.6c-1.3-0.8-3-1.2-4.4-0.8
							c-1.5,0.3-2.7,1.6-3.7,2.8c-1.8,2.7-2.5,6.4-2.5,9.9c0,1.7,0.2,3.5,0.7,5.1c0.6,1.6,1.7,3,3.1,3.6c1.5,0.6,3.3,0.3,4.6-0.6
							c1.3-0.8,1.7-2.7,0.7-4.1c-0.8-1.3-2.6-2.2-4.2-2.2s-3.3,0.7-4.6,1.8c-2.7,2.2-3.9,6.4-2.2,9.5c1.6,3.2,5.5,5,8.9,4.1
							c1-0.2,1.9-0.7,2.6-1.4c0.7-0.7,0.8-1.6,0.5-2.5c-0.7-1.8-2.6-3-4.5-3.4c-3.9-0.8-8.5,1.3-9.7,5.2c-1.3,3.8,0.1,8.5,3.4,10.5
							c1.6,1.2,3.5,2,5.3,1.9s3.1-1.7,3.7-3.6v0.3c-0.3-1.4-1.2-2.4-2.6-2.7c-1.3-0.2-2.7,0-4.1,0.5c-2.7,0.9-5.1,2.7-6.9,5
							c-1.8,2.2-3.2,4.8-4.6,7.4c-1.4,2.6-2.8,5.1-4.2,7.6c-5.6,10-11.1,19.6-16.5,28.4c-10.7,17.8-20.8,33.2-29.5,45.9
							c-4.3,6.3-8.3,12-12,16.7s-7.2,8.6-10.2,11.5C649.1,855.7,645.1,858.1,645.1,858.1z"/>
					</g>
				</g>
			</g>
		</g>
	</g>
</g>
</svg>
