<?xml version="1.0" encoding="utf-8"?>
<!-- Generator: Adobe Illustrator 26.0.3, SVG Export Plug-In . SVG Version: 6.00 Build 0)  -->
<svg version="1.1" id="Camada_1" xmlns="http://www.w3.org/2000/svg" xmlns:xlink="http://www.w3.org/1999/xlink" x="0px" y="0px"
	 viewBox="0 0 1920 1920" style="enable-background:new 0 0 1920 1920;" xml:space="preserve">
<style type="text/css">
	.st0{fill:#ECECEC;}
	.st1{fill:#FFFFFF;}
	.st2{fill:#E1E0E0;}
	.st3{fill:#FBFBFB;}
	.st4{fill:#F5F5F5;}
	.st5{fill:#385A65;}
	.st6{fill:none;stroke:#FFFFFF;stroke-miterlimit:10;}
	.st7{fill:#EA505E;}
	.st8{fill:#192E35;}
	.st9{fill:#B66956;}
	.st10{fill:#7D3B29;}
	.st11{opacity:0.3;}
	.st12{opacity:0.2;}
	.st13{fill:#FBD0BE;}
	.st14{fill:#CC9076;}
	.st15{opacity:0.78;}
</style>
<g>
	<g>
		<g>
			<g>
				<g>
					<path class="st0" d="M363.4,1285.4l-246.7,52.8c-3.4,0.7-6.8-1.5-7.6-4.9l-52.8-246.7c-0.7-3.4,1.5-6.8,4.9-7.6l246.7-52.8
						c3.4-0.7,6.8,1.5,7.6,4.9l52.8,246.7C369,1281.2,366.8,1284.6,363.4,1285.4z"/>
				</g>
			</g>
		</g>
		<g>
			<path class="st1" d="M306,1207.2c-0.1-2.1-0.9-3.9-1.6-5.6c-0.2-0.5-0.4-1.1-0.7-1.8c-4.6-9.3-13.2-15.1-20.2-19
				c-7.2-4-15.2-7-24.2-9.3l-1-0.3c-0.7-0.2-1.4,0.1-1.8,0.7l-16.4,28.1l-60.4-38.7l16.4-30.4c0.2-0.4,0.3-0.8,0.1-1.2
				c-0.1-0.4-0.4-0.7-0.8-0.9l-13.9-6.6c-2.3-1.1-3.7-1.7-4.6-2c-0.3-0.2-0.7-0.4-1.3-0.7c-0.2-0.1-0.5-0.2-0.8-0.4
				c-0.8-0.4-1.8-0.9-3.1-1.4c-3.5-1.3-9.2-2.8-16.5-2.5c-5.1,0.2-15.1,1.7-24.6,9.4c-9.6,7.6-15.1,19.3-14.8,31.3
				c0.2,6.9,3.5,14.1,8.9,19.1c2.7,2.6,5.9,4.7,8.8,6.5l91.8,58.8c1.1,0.7,2.3,1.4,3.4,2.2c2.6,1.7,5.4,3.5,8.4,5
				c4.2,2.2,8.9,3.8,13.7,4.8c3.3,0.7,6.6,1,10,1c6.7,0,13.4-1.4,19.4-4.1c9.1-3.9,16.7-11.2,21.5-20.4c1-1.8,2.1-4.2,2.9-6.9
				l0.4-1.2c0.6-2,1.3-4,1.3-6.1l0.3-3.9L306,1207.2z M191,1131.3l-17.3,30.4c-0.4,0.7-0.2,1.6,0.5,2.1l66.4,43.6
				c0.4,0.2,0.8,0.3,1.2,0.2c0.4-0.1,0.8-0.4,1-0.7l17.1-29c7.6,2.1,14.5,4.9,20.5,8.3c5.7,3.2,13.7,8.5,17.5,16.2
				c0.2,0.6,0.4,1.2,0.7,1.7c0.5,1.3,1,2.5,1.1,4l0.4,2.8l-0.3,3.3c0,1.5-0.5,3-1,4.5l-0.4,1.3c-0.4,1.7-1.2,3.5-2.4,5.8
				c-4.1,7.9-10.7,14.2-18.5,17.6c-7.8,3.5-16.9,4.4-25.6,2.6c-4.3-0.9-8.4-2.3-12.1-4.2c-2.6-1.3-5.3-3-7.8-4.7
				c-1.2-0.7-2.3-1.5-3.5-2.2l-92.1-58.3c-2.8-1.7-5.7-3.5-8-5.7c-4.5-4.1-7.2-9.6-7.4-15.2c-0.4-12.2,6.2-22.1,12.6-27.3
				c8.3-6.9,17.2-8.5,21.7-8.8c1-0.1,1.9-0.1,2.8-0.1c8.5,0,13.7,2.2,16.1,3.2c0.6,0.2,1,0.4,1.4,0.5c0.8,0.6,2.2,1.3,4.2,2.4
				L191,1131.3z"/>
			<path class="st1" d="M219.3,1140.6c2.5,0,7.7-0.7,18.5-3c3.5,17.7,4.8,19.6,6.1,19.6c0.2,0,0.3,0,0.5-0.1c0,0,0,0,0,0
				c1.5-0.3,2.6-0.6-1.1-20.7c20.5-4.4,20.4-5.6,20.1-7.1c0,0,0,0,0,0c-0.1-0.4-0.4-0.8-0.7-1.1c-1.2-0.8-8.1,0.1-20.4,2.7
				c-2.4-12-4.2-18.5-5.4-19.3c-0.3-0.2-0.8-0.3-1.3-0.3c-0.4,0.1-0.8,0.4-1.1,0.7c-0.8,1.2,0,8,2.2,20c-18.9,4.1-19.7,5.5-19.9,6
				c-0.2,0.4-0.3,1-0.1,1.4C216.9,1140,217.1,1140.6,219.3,1140.6z"/>
		</g>
	</g>
	<g>
		<g>
			<g>
				<g>
					<rect x="1395.5" y="150.4" class="st2" width="459.2" height="760.2"/>
				</g>
			</g>
		</g>
		<g>
			<g>
				<g>
					<rect x="1380.2" y="150.4" class="st0" width="459.2" height="760.2"/>
				</g>
			</g>
		</g>
		<g>
			<g>
				<g>
					<rect x="1399.8" y="165.8" class="st3" width="420.1" height="729.3"/>
				</g>
			</g>
		</g>
		<g>
			<g>
				<g>
					<g>
						<rect x="1479.7" y="260.6" class="st0" width="258.3" height="539.8"/>
					</g>
				</g>
			</g>
			<g>
				<g>
					<g>
						<path class="st2" d="M1479.7,609.4c-0.6-50.4,44.7-99.6,94.7-106.7c23.8-3.4,49.1,1.4,71.4-7.8c39.7-16.3,52.3-69,92.3-84.7
							l1.8,390.1h-260.2V609.4z"/>
					</g>
				</g>
			</g>
		</g>
	</g>
	<g>
		<g>
			<g>
				<g>
					<g>
						<g>
							<g>
								<g>
									<g>
										<g>
											<g>
												<rect x="911" y="149" class="st2" width="353.2" height="368.2"/>
											</g>
										</g>
									</g>
								</g>
							</g>
						</g>
					</g>
				</g>
			</g>
		</g>
		<g>
			<g>
				<g>
					<g>
						<g>
							<g>
								<g>
									<g>
										<g>
											<g>
												<rect x="887.1" y="149" class="st3" width="353.2" height="368.2"/>
											</g>
										</g>
									</g>
								</g>
							</g>
						</g>
					</g>
				</g>
			</g>
			<g>
				<g>
					<g>
						<g>
							<g>
								<g>
									<g>
										<g>
											<g>
												<path class="st2" d="M1240.5,517.3H887V148.9h353.5V517.3z M887.2,517.1h353v-368h-353V517.1z"/>
											</g>
										</g>
									</g>
								</g>
							</g>
						</g>
					</g>
				</g>
			</g>
		</g>
		<g>
			<g>
				<g>
					<g>
						<g>
							<g>
								<g>
									<g>
										<g>
											<g>
												<rect x="934.6" y="198.5" class="st3" width="258.3" height="269.2"/>
											</g>
										</g>
									</g>
								</g>
							</g>
						</g>
					</g>
				</g>
			</g>
		</g>
		<g>
			<g>
				<g>
					<g>
						<g>
							<g>
								<g>
									<g>
										<g>
											<g>
												<g>
													<path class="st2" d="M934.6,469.5c0.2,0.2-2.2,3.1-6.4,7.4c-4.1,4.4-9.9,10.2-16.4,16.6c-6.5,6.4-12.5,12.1-16.9,16.2
														c-4.4,4-7.2,6.4-7.5,6.2c-0.2-0.2,2.2-3,6.3-7.4c4.1-4.4,9.9-10.3,16.5-16.7c6.5-6.4,12.5-12.1,16.9-16.2
														C931.6,471.6,934.4,469.2,934.6,469.5z"/>
												</g>
											</g>
										</g>
									</g>
								</g>
							</g>
						</g>
					</g>
				</g>
			</g>
		</g>
		<g>
			<g>
				<g>
					<g>
						<g>
							<g>
								<g>
									<g>
										<g>
											<g>
												<g>
													<path class="st2" d="M1192.9,468.8c0.2-0.2,3.1,2.2,7.4,6.4c4.4,4.1,10.2,9.9,16.6,16.4c6.4,6.5,12.1,12.5,16.2,16.9
														c4,4.4,6.4,7.2,6.2,7.5c-0.2,0.2-3-2.2-7.4-6.3c-4.4-4.1-10.3-9.9-16.7-16.5c-6.4-6.5-12.1-12.5-16.2-16.9
														C1195,471.9,1192.6,469,1192.9,468.8z"/>
												</g>
											</g>
										</g>
									</g>
								</g>
							</g>
						</g>
					</g>
				</g>
			</g>
		</g>
		<g>
			<g>
				<g>
					<g>
						<g>
							<g>
								<g>
									<g>
										<g>
											<g>
												<g>
													<path class="st2" d="M1192.2,199.2c-0.2-0.2,2.2-3.1,6.4-7.4c4.1-4.4,9.9-10.2,16.4-16.6c6.5-6.4,12.5-12.1,16.9-16.2
														c4.4-4,7.2-6.4,7.5-6.2c0.2,0.2-2.2,3-6.3,7.4c-4.1,4.4-9.9,10.3-16.5,16.7c-6.5,6.4-12.5,12.1-16.9,16.2
														C1195.2,197.1,1192.4,199.4,1192.2,199.2z"/>
												</g>
											</g>
										</g>
									</g>
								</g>
							</g>
						</g>
					</g>
				</g>
			</g>
		</g>
		<g>
			<g>
				<g>
					<g>
						<g>
							<g>
								<g>
									<g>
										<g>
											<g>
												<g>
													<path class="st2" d="M933.9,199.9c-0.2,0.2-3.1-2.2-7.4-6.4c-4.4-4.1-10.2-9.9-16.6-16.4c-6.4-6.5-12.1-12.5-16.1-16.9
														c-4-4.4-6.4-7.2-6.2-7.5c0.2-0.2,3,2.2,7.4,6.3c4.4,4.1,10.3,9.9,16.7,16.5c6.4,6.5,12.1,12.5,16.2,16.9
														C931.8,196.8,934.1,199.7,933.9,199.9z"/>
												</g>
											</g>
										</g>
									</g>
								</g>
							</g>
						</g>
					</g>
				</g>
			</g>
		</g>
		<g>
			<g>
				<g>
					<g>
						<g>
							<g>
								<g>
									<g>
										<g>
											<g>
												<g>
													<path class="st2" d="M1192.2,467.7c0,0,0-0.5-0.1-1.3c0-0.9,0-2.2-0.1-3.8c0-3.4-0.1-8.2-0.1-14.5
														c-0.1-12.8-0.1-31.3-0.3-54.9c-0.1-47.2-0.3-114.3-0.5-194.8l1,1c-75.2,0-163.5,0.1-257.5,0.1h0l1.1-1.1
														c-0.1,98.8-0.1,191.3-0.2,269.2l-1-1c77.2,0.2,141.4,0.4,186.5,0.5c22.5,0.1,40.2,0.2,52.4,0.3
														c6,0.1,10.6,0.1,13.9,0.1c1.5,0,2.7,0,3.6,0.1C1191.7,467.7,1192.2,467.7,1192.2,467.7c0,0-0.4,0-1.1,0.1
														c-0.9,0-2,0-3.5,0.1c-3.2,0-7.7,0.1-13.7,0.1c-12.1,0.1-29.7,0.1-52.2,0.3c-45.2,0.1-109.7,0.3-187.1,0.5l-1,0l0-1
														c0-78-0.1-170.4-0.2-269.2l0-1.1h1.1h0c94.1,0.1,182.4,0.1,257.5,0.1h1l0,1c-0.2,80.7-0.4,148.1-0.5,195.4
														c-0.1,23.5-0.2,41.9-0.3,54.6c-0.1,6.2-0.1,11-0.1,14.3c0,1.6,0,2.8-0.1,3.6C1192.2,467.3,1192.2,467.7,1192.2,467.7z"
														/>
												</g>
											</g>
										</g>
									</g>
								</g>
							</g>
						</g>
					</g>
				</g>
			</g>
		</g>
		<g>
			<g>
				<g>
					<g>
						<g>
							<g>
								<g>
									<g>
										<g>
											<g>
												<rect x="1020.7" y="290" class="st0" width="86.2" height="86.2"/>
											</g>
										</g>
									</g>
								</g>
							</g>
						</g>
					</g>
				</g>
			</g>
		</g>
	</g>
	<g>
		<g>
			<g>
				<g>
					<g>
						<g>
							<polygon class="st2" points="1846.8,1699.5 1833.2,1839.5 1760.9,1839.5 1746.7,1699.5 							"/>
						</g>
					</g>
				</g>
			</g>
			<g>
				<g>
					<g>
						<g>
							
								<rect x="1738.1" y="1689.2" transform="matrix(-1 -1.224647e-16 1.224647e-16 -1 3595.7747 3388.7249)" class="st0" width="119.5" height="10.2"/>
						</g>
					</g>
				</g>
			</g>
			<g>
				<g>
					<g>
						<g>
							<polygon class="st0" points="1834.9,1671.6 1846.8,1691.5 1751.8,1691.5 1756.3,1671.6 							"/>
						</g>
					</g>
				</g>
			</g>
			<g>
				<g>
					<g>
						<g>
							<polygon class="st4" points="1842.2,1746.6 1837.4,1796.6 1756.5,1796.6 1751.5,1746.6 							"/>
						</g>
					</g>
				</g>
			</g>
		</g>
		<g>
			<g>
				<g>
					<g>
						<path class="st3" d="M1786.5,1785.7c0.1-3.9,1.1-8.3,3.7-12.4c2-3.1,4.5-5.8,6.4-8.5c2-2.7,3.5-5.4,4.2-7.9
							c0.4-1.3,0.6-2.4,0.6-3.5c0.2,0.1,0.4,0.2,0.6,0.3c2.8,1.8,4.6,5,5.3,8.3c0.7,3.3,0.3,6.7-0.5,10c-0.9,3.9-2.4,7.8-5.3,10.6
							c-3.2,3.2-8.1,4.7-12.6,3.9C1788.1,1786.3,1787.3,1786,1786.5,1785.7z"/>
					</g>
				</g>
			</g>
			<g>
				<g>
					<g>
						<path class="st3" d="M1780.3,1774.7c0.4-4.5,0.8-9,2.6-13.1c1.8-4.1,5.2-8,9.6-8.9c1.4-0.5,4.3-0.7,6.9,0.3
							c-0.1,1-0.4,2.2-0.8,3.5c-0.8,2.3-2.3,4.8-4.3,7.4c-2,2.6-4.5,5.3-6.6,8.6c-2.2,3.3-3.3,7-3.7,10.3c-0.1,0.8-0.1,1.5-0.1,2.2
							c-1.1-0.7-2.1-1.6-2.7-2.8C1779.9,1780,1780.1,1777.2,1780.3,1774.7z"/>
					</g>
				</g>
			</g>
		</g>
	</g>
	<g>
		<g>
			<g>
				<g>
					<g>
						<g>
							<g>
								<g>
									<path class="st4" d="M1195.2,1623.7c65.2-65.3,64.9-164.9,46.5-251.2c-3.1-14.4-4.2-30-13.4-41.5
										c-9.2-11.5-26.8-17.3-38.7-8.9c-9.9,7-12.3,20.3-16.5,31.8c-5.6,15.2-15.5,28.7-28.2,38.5c-8.4,6.4-19.3,11.4-29.3,8
										c-13.7-4.7-18.3-21.7-20.8-36.1c-4.6-26.9-9.2-53.8-13.9-80.7c-2.5-14.4-5.1-29.2-12-42c-6.9-12.9-19.1-23.8-33.5-25.2
										c-14.4-1.4-30,9.5-30.3,24.2c-0.2,6.1,2.1,12,2.8,18c0.7,6.1-0.9,13.2-6.3,15.9c-5.5,2.7-11.9-0.3-17-3.8
										c-17.5-11.9-30.9-28.9-43.7-45.8c-12.8-17-25.3-34.4-41.6-47.9c-16.3-13.5-37.2-22.7-58.1-20.2
										c-20.9,2.5-40.6,19.2-42.2,40.4c-1.6,21.3,13.9,39.8,29.8,53.9c23.5,21,50,38.6,78.4,51.9c5.1,2.4,10.7,5,13.4,10.1
										c4.8,9.1-2.6,20.2-11.5,25.1c-10.1,5.5-22,6.5-33,9.8c-11,3.3-22.3,10.5-24.7,21.8c-3.3,15.8,11.8,29,25.7,37
										c27.9,15.9,58.5,27,90,32.6c11.3,2,23.1,3.4,32.9,9.3c9.9,5.9,17.3,18,14,29c-3.4,11.1-16,16.7-27.5,16.6
										c-11.5-0.1-22.5-4.3-33.8-6.4c-21.1-3.9-46.5,2-56.1,21.4c-6.3,12.7-4.3,28.5,2.3,41.2c6.6,12.7,17.2,22.7,28.2,31.7
										c38.4,31.6,84.4,54.4,133.2,62.1C1109.2,1651.8,1152.5,1648.5,1195.2,1623.7"/>
								</g>
							</g>
						</g>
					</g>
				</g>
			</g>
		</g>
		<g>
			<g>
				<g>
					<g>
						<g>
							<g>
								<g>
									<g>
										<path class="st2" d="M1163.1,1573.3c-20.6-41.5-46.9-85.2-76.1-129.9c-7.3-11.2-14.6-22.2-21.7-33
											c-7.1-10.8-14.2-21.6-21.8-31.6c-15.1-20.2-31.1-38.5-46.9-55.4c-15.8-16.9-31.3-32.4-46-46.7
											c-14.7-14.3-28.6-27.4-41.9-38.8c-26.4-22.9-49.8-38.8-66.3-49.1c-8.3-5.2-14.8-9-19.3-11.5c-2.1-1.2-3.8-2.1-5.1-2.8
											c-1.2-0.6-1.8-0.9-1.8-0.9c0,0,0.5,0.4,1.6,1.1c1.2,0.8,2.9,1.8,5,3.1c4.4,2.7,10.8,6.6,19,11.9
											c16.3,10.5,39.5,26.6,65.7,49.6c13.1,11.5,26.9,24.6,41.6,39c14.6,14.4,30.1,29.9,45.7,46.8
											c15.7,16.9,31.6,35.2,46.5,55.3c7.5,10,14.5,20.7,21.7,31.5c7.1,10.9,14.3,21.9,21.7,33c29.1,44.7,55.4,88.2,76.1,129.6"
											/>
									</g>
								</g>
							</g>
						</g>
					</g>
				</g>
			</g>
		</g>
		<g>
			<g>
				<g>
					<g>
						<g>
							<g>
								<g>
									<g>
										<path class="st2" d="M1042.8,1378.7c0.2,0,0.3-2.3,0.3-6.4c0-4.1-0.1-10.1-0.3-17.4c-0.5-14.7-1.9-35-3.6-57.4
											c-1.6-22.4-2.8-42.6-3.1-57.3c-0.2-7.3-0.2-13.3-0.2-17.4c0-4.1-0.1-6.4-0.3-6.4c-0.2,0-0.4,2.3-0.7,6.4
											c-0.3,4.1-0.5,10.1-0.6,17.4c-0.2,14.7,0.6,35.1,2.3,57.5c1.7,22.1,3.2,42,4.3,57.3c0.5,6.9,0.9,12.7,1.2,17.4
											C1042.3,1376.4,1042.6,1378.7,1042.8,1378.7z"/>
									</g>
								</g>
							</g>
						</g>
					</g>
				</g>
			</g>
		</g>
		<g>
			<g>
				<g>
					<g>
						<g>
							<g>
								<g>
									<g>
										<path class="st2" d="M851.3,1377c0,0.2,2.7,0,7.6-0.4c4.8-0.4,11.8-1.1,20.5-1.6c17.3-1.2,41.3-2,67.7-1.7
											c26.5,0.3,50.4,1.6,67.7,3.1c8.7,0.7,15.6,1.4,20.5,1.9c4.8,0.5,7.5,0.7,7.5,0.5c0-0.2-2.6-0.7-7.4-1.5
											c-4.8-0.8-11.8-1.8-20.4-2.7c-17.3-1.9-41.3-3.5-67.9-3.9c-26.5-0.3-50.6,0.9-67.9,2.5c-8.7,0.8-15.6,1.7-20.5,2.5
											C853.9,1376.3,851.2,1376.9,851.3,1377z"/>
									</g>
								</g>
							</g>
						</g>
					</g>
				</g>
			</g>
		</g>
		<g>
			<g>
				<g>
					<g>
						<g>
							<g>
								<g>
									<g>
										<path class="st2" d="M1160.2,1570.3c0.1,0,0.4-0.8,0.9-2.5c0.5-2,1.2-4.4,2-7.3c1.7-6.3,3.9-15.5,6.5-26.9
											c5.2-22.8,11.3-54.6,17.6-89.7c6.3-35.1,12.1-66.9,16.8-89.8c2.3-11.1,4.2-20.3,5.6-27.1c0.6-3,1.1-5.4,1.5-7.4
											c0.3-1.7,0.4-2.6,0.3-2.6c-0.1,0-0.4,0.8-0.9,2.5c-0.5,2-1.2,4.4-2,7.3c-1.7,6.3-3.9,15.5-6.5,26.9
											c-5.2,22.8-11.3,54.6-17.6,89.7c-6.3,35.1-12.1,66.9-16.8,89.8c-2.3,11.1-4.2,20.3-5.6,27.1c-0.6,3-1.1,5.4-1.5,7.4
											C1160.2,1569.3,1160.1,1570.2,1160.2,1570.3z"/>
									</g>
								</g>
							</g>
						</g>
					</g>
				</g>
			</g>
		</g>
		<g>
			<g>
				<g>
					<g>
						<g>
							<g>
								<g>
									<g>
										<path class="st2" d="M899.8,1534.7c0,0.1,0.9,0.3,2.6,0.6c2,0.3,4.5,0.7,7.6,1.1c7,1,16.4,2.3,27.9,3.8
											c23.6,3.3,56,8.1,91.9,13.6c35.9,5.4,68.5,10,92.1,12.8c11.8,1.4,21.4,2.4,28,3c3.1,0.2,5.6,0.4,7.6,0.6
											c1.7,0.1,2.7,0.1,2.7,0c0-0.1-0.9-0.3-2.6-0.6c-2-0.3-4.5-0.7-7.6-1.1c-7-1-16.4-2.3-27.9-3.9c-23.6-3.3-56-8.1-91.9-13.6
											c-35.9-5.4-68.4-10-92.1-12.8c-11.8-1.4-21.4-2.4-28-3c-3.1-0.2-5.6-0.5-7.6-0.6C900.7,1534.7,899.8,1534.7,899.8,1534.7z
											"/>
									</g>
								</g>
							</g>
						</g>
					</g>
				</g>
			</g>
		</g>
	</g>
	<g>
		<g>
			<g>
				<g>
					<g>
						<g>
							<g>
								<g>
									<g>
										
											<rect x="104.3" y="78.5" transform="matrix(1 2.293248e-03 -2.293248e-03 1 0.5368 -0.5802)" class="st2" width="298" height="310.6"/>
									</g>
								</g>
							</g>
						</g>
					</g>
				</g>
			</g>
			<g>
				<g>
					<g>
						<g>
							<g>
								<g>
									<g>
										
											<rect x="84.1" y="78.4" transform="matrix(1 2.293242e-03 -2.293242e-03 1 0.5366 -0.5339)" class="st5" width="298" height="310.6"/>
									</g>
								</g>
							</g>
						</g>
					</g>
				</g>
				<g>
					<g>
						<g>
							<g>
								<g>
									<g>
										<path class="st4" d="M381.8,389.5l-298.2-0.7L84.4,78l298.2,0.7L381.8,389.5z"/>
									</g>
								</g>
							</g>
						</g>
					</g>
				</g>
			</g>
			<g>
				<g>
					<g>
						<g>
							<g>
								<g>
									<g>
										
											<rect x="124.1" y="120.2" transform="matrix(1 2.293037e-03 -2.293037e-03 1 0.5366 -0.5338)" class="st1" width="217.9" height="227.1"/>
									</g>
								</g>
							</g>
						</g>
					</g>
				</g>
			</g>
			<g>
				<g>
					<g>
						<g>
							<g>
								<g>
									<g>
										<g>
											<path class="st2" d="M123.9,348.6c0.2,0.2-1.9,2.6-5.4,6.2c-3.5,3.7-8.4,8.6-13.9,14c-5.5,5.4-10.5,10.2-14.3,13.6
												c-3.7,3.4-6.1,5.4-6.3,5.2c-0.2-0.2,1.9-2.5,5.4-6.2c3.5-3.7,8.4-8.6,13.9-14c5.5-5.4,10.6-10.2,14.3-13.6
												C121.3,350.3,123.7,348.3,123.9,348.6z"/>
										</g>
									</g>
								</g>
							</g>
						</g>
					</g>
				</g>
			</g>
			<g>
				<g>
					<g>
						<g>
							<g>
								<g>
									<g>
										<g>
											<path class="st2" d="M341.7,348.5c0.2-0.2,2.6,1.9,6.2,5.4c3.7,3.5,8.6,8.4,14,13.9c5.4,5.5,10.2,10.5,13.6,14.3
												c3.4,3.7,5.4,6.1,5.2,6.3c-0.2,0.2-2.5-1.9-6.2-5.4c-3.7-3.5-8.6-8.4-14-13.9c-5.4-5.5-10.2-10.6-13.6-14.3
												C343.5,351.1,341.5,348.7,341.7,348.5z"/>
										</g>
									</g>
								</g>
							</g>
						</g>
					</g>
				</g>
			</g>
			<g>
				<g>
					<g>
						<g>
							<g>
								<g>
									<g>
										<g>
											<path class="st2" d="M341.7,121c-0.2-0.2,1.9-2.6,5.4-6.2c3.5-3.7,8.4-8.6,13.9-14c5.5-5.4,10.5-10.2,14.3-13.6
												c3.7-3.4,6.1-5.4,6.3-5.2c0.2,0.2-1.9,2.5-5.4,6.2c-3.5,3.7-8.4,8.6-13.9,14c-5.5,5.4-10.6,10.2-14.3,13.6
												C344.2,119.2,341.8,121.2,341.7,121z"/>
										</g>
									</g>
								</g>
							</g>
						</g>
					</g>
				</g>
			</g>
			<g>
				<g>
					<g>
						<g>
							<g>
								<g>
									<g>
										<g>
											<path class="st2" d="M123.8,121.1c-0.2,0.2-2.6-1.9-6.2-5.4c-3.7-3.5-8.6-8.4-14-13.9C98.2,96.3,93.4,91.3,90,87.6
												c-3.4-3.7-5.4-6.1-5.2-6.3c0.2-0.2,2.5,1.9,6.2,5.4c3.7,3.5,8.6,8.4,14,13.9c5.4,5.5,10.2,10.6,13.6,14.3
												C122,118.5,124,120.9,123.8,121.1z"/>
										</g>
									</g>
								</g>
							</g>
						</g>
					</g>
				</g>
			</g>
			<g>
				<g>
					<g>
						<g>
							<g>
								<g>
									<g>
										<g>
											<path class="st2" d="M341.2,347.5c0,0,0-0.4,0-1.1c0-0.8,0-1.8,0-3.2c0-2.8,0-6.9-0.1-12.3c0-10.8-0.1-26.4-0.1-46.3
												c0-39.8,0-96.4-0.1-164.3l0.8,0.8c-63.4-0.1-137.9-0.2-217.2-0.4h0l1-1c-0.2,83.4-0.5,161.3-0.7,227.1l-0.8-0.8
												c65.1,0.3,119.3,0.6,157.3,0.8c19,0.1,33.9,0.2,44.2,0.3c5.1,0.1,9,0.1,11.7,0.1c1.3,0,2.3,0,3,0.1
												C340.8,347.5,341.1,347.5,341.2,347.5c0,0-0.3,0-1,0c-0.7,0-1.7,0-2.9,0c-2.7,0-6.5,0-11.5,0.1c-10.2,0-25.1,0.1-44,0.1
												c-38.1,0-92.5,0-157.8,0.1h-0.8l0-0.8c0.1-65.8,0.2-143.7,0.4-227.1l0-1l1,0h0c79.3,0.2,153.8,0.4,217.2,0.6l0.8,0l0,0.8
												c-0.3,68.1-0.6,124.9-0.8,164.8c-0.1,19.8-0.3,35.4-0.3,46.1c-0.1,5.2-0.1,9.3-0.1,12.1c0,1.3,0,2.3-0.1,3.1
												C341.2,347.2,341.2,347.6,341.2,347.5z"/>
										</g>
									</g>
								</g>
							</g>
						</g>
					</g>
				</g>
			</g>
		</g>
		<g>
			<g>
				<g>
					<g>
						<g>
							<g>
								<g>
									<path class="st4" d="M192.8,295.2c-16.4-16.5-17.3-45.9-2-63.4c6.1-6.9,14.1-12,19.8-19.3c12.2-15.8,12.1-40.8,29-51.3
										c12.3-7.7,30-3.3,39,8.2c9,11.5,9.7,28.1,3.8,41.4c-4.3,9.8-11.9,18.2-15,28.5c-3.2,10.5-1.4,22.1-4.7,32.6
										c-4,12.7-17.4,20.6-29.9,25.2C220.4,301.6,204.4,300.5,192.8,295.2"/>
								</g>
							</g>
						</g>
					</g>
				</g>
			</g>
			<g>
				<g>
					<g>
						<g>
							<g>
								<g>
									<g>
										<path class="st2" d="M254.3,190.7c0.1,0.1-0.6,2.2-2.1,6c-1.5,3.8-3.8,9.3-6.8,15.9c-6,13.3-15.2,31.4-27,50.4
											c-11.8,19-24,35.2-33.3,46.5c-4.7,5.7-8.5,10.1-11.3,13.1c-2.8,3-4.3,4.6-4.4,4.5c-0.1-0.1,1.3-1.9,3.9-5
											c2.6-3.1,6.3-7.8,10.8-13.5c9-11.5,20.9-27.8,32.7-46.7c11.8-18.9,21.1-36.8,27.5-49.9c3.2-6.6,5.7-11.9,7.3-15.7
											C253.2,192.7,254.2,190.7,254.3,190.7z"/>
									</g>
								</g>
							</g>
						</g>
					</g>
				</g>
			</g>
			<g>
				<g>
					<g>
						<g>
							<g>
								<g>
									<g>
										<path class="st2" d="M209.1,230c0.2,0,0.9,4.3,1.7,11.5c0.8,7.2,1.9,17.2,3,28.5l-1.5-0.8c1.5-0.9,3.1-1.8,4.7-2.7
											c10.9-6.3,20.8-12,28.1-16c7.2-4,11.8-6.3,11.9-6.1c0.1,0.2-4.2,3-11.2,7.3c-7.1,4.3-16.9,10.1-27.8,16.5
											c-1.6,0.9-3.2,1.9-4.7,2.7l-1.3,0.8l-0.1-1.5c-1-11.3-1.8-21.3-2.3-28.5C209.1,234.4,208.9,230,209.1,230z"/>
									</g>
								</g>
							</g>
						</g>
					</g>
				</g>
			</g>
			<g>
				<g>
					<g>
						<g>
							<g>
								<g>
									<g>
										<path class="st2" d="M266.4,213.3c0.1,0.2-2.7,1.8-7.4,4.1c-4.6,2.3-11.1,5.4-18.3,8.6c-0.8,0.3-1.5,0.7-2.2,1l-1.2,0.5
											l-0.2-1.3c-1.1-7.3-2-13.7-2.6-18.4c-0.6-4.7-0.8-7.6-0.5-7.6c0.3,0,0.9,2.8,1.8,7.4c0.9,4.6,2,11.1,3.2,18.3l-1.4-0.7
											c0.7-0.3,1.5-0.7,2.2-1c7.2-3.3,13.8-6.1,18.6-8.1C263.3,214.1,266.3,213,266.4,213.3z"/>
									</g>
								</g>
							</g>
						</g>
					</g>
				</g>
			</g>
		</g>
		<g>
			<g>
				<g>
					<g>
						<g>
							<g>
								<g>
									<path class="st6" d="M116.4,82.5"/>
								</g>
							</g>
						</g>
					</g>
				</g>
			</g>
		</g>
	</g>
	<g>
		<g>
			<g>
				<g>
					<g>
						<g>
							<g>
								<path class="st7" d="M524,1467.4c19.8-10.2,43.1-11.5,65.1-7.9c11.8,2,24.1,5.5,32.2,14.4c8,8.9,9.6,24.5,0.3,32.1
									c-5.5,4.5-13.2,5.2-20.3,5.1c-17.2-0.2-36.3-3.2-50.1,7.1c-7.8,5.9-13.1,15.7-22.5,18.6c-9.2,2.8-19.5-2.6-24.4-10.9
									c-4.9-8.3-5-18.6-2.8-28C501.7,1498,504.1,1477.7,524,1467.4z"/>
							</g>
						</g>
					</g>
				</g>
			</g>
			<g>
				<g>
					<g>
						<g>
							<g>
								<path class="st7" d="M478.7,1379.8c12.1,17.3,35.7,11.6,46.6,1c10.9-10.6,15.5-25.9,19.7-40.5
									c9.6-33.3,19.3-68.3,12.1-102.3c-2.1-10.2-5.9-20.3-13.1-27.8c-7.1-7.5-18.1-12-28.1-9.4c-11.9,3.1-19.2,14.8-24.6,25.8
									c-15.7,32.5-24,68.5-24.1,104.6C467.2,1348.2,469.2,1365.9,478.7,1379.8"/>
							</g>
						</g>
					</g>
				</g>
			</g>
			<g>
				<g>
					<g>
						<g>
							<g>
								<path class="st7" d="M445.4,1404.6c13.2-15.6,15.6-38.4,9.8-57.9c-5.9-19.6-19.1-36.2-34.3-49.8
									c-17.9-15.9-38.9-28.3-61.4-36.2c-8.9-3.1-18.3-5.6-27.6-4.7c-9.4,0.9-18.8,5.7-23.2,14c-6.5,12.3-0.3,27.3,6.4,39.5
									c11.8,21.5,25.3,42.1,40.3,61.4c12.1,15.6,25.9,31,44.4,38c18.4,7,37.6,6.2,47.3-6.6"/>
							</g>
						</g>
					</g>
				</g>
			</g>
			<g>
				<g>
					<g>
						<g>
							<g>
								<g>
									<path class="st8" d="M477.8,1640.7c0.2,0,0.6-2.8,1.1-7.9c0.6-5.7,1.3-12.9,2.1-21.5c1-9,2.3-19.8,4.8-31.5
										c2.5-11.7,6.4-24.3,11.4-37.1c5.2-12.7,11.5-24.3,19-33.6c7.4-9.3,15.9-16,24-19.9c8-4,15.2-5.6,20.2-6.3
										c5-0.5,7.8-0.9,7.8-1.1c0-0.2-2.8-0.3-8-0.1c-5.1,0.3-12.6,1.6-21.1,5.5c-8.5,3.8-17.6,10.6-25.3,20.1
										c-7.8,9.5-14.4,21.3-19.7,34.3c-5.1,13-9,25.8-11.4,37.7c-2.4,11.9-3.5,22.8-4.2,31.9c-0.7,9.1-0.9,16.5-1.1,21.6
										C477.6,1637.9,477.6,1640.7,477.8,1640.7z"/>
								</g>
							</g>
						</g>
					</g>
				</g>
			</g>
			<g>
				<g>
					<g>
						<g>
							<g>
								<g>
									<path class="st8" d="M479.3,1624.2c0.1,0,0.2-1.3,0.2-3.6c0-2.7,0-6.2,0-10.4c0-9.1,0-22.1,0.5-38.3
										c0.8-32.3,3.6-67.2,9-116.2c5.1-46.2,11.9-99.9,19.1-134.8c1.5-7.9,3.1-15.1,4.6-21.3c1.4-6.3,2.6-11.7,3.7-16.1
										c1-4.1,1.8-7.5,2.4-10.1c0.5-2.3,0.7-3.6,0.6-3.6c-0.1,0-0.5,1.1-1.3,3.4c-0.8,2.6-1.8,5.9-3,10c-1.3,4.3-2.7,9.7-4.3,16
										c-1.6,6.2-3.4,13.4-5.1,21.3c-7.1,31.6-14.7,75.9-20.1,125.1c-5.4,49.2-7.8,94-8,126.4c-0.2,16.2,0.2,29.3,0.6,38.4
										c0.3,4.2,0.5,7.7,0.6,10.4C479.1,1623,479.2,1624.2,479.3,1624.2z"/>
								</g>
							</g>
						</g>
					</g>
				</g>
			</g>
			<g>
				<g>
					<g>
						<g>
							<g>
								<g>
									<path class="st8" d="M479.5,1537.8c0.2,0,0.2-3.9-0.1-10.9c-0.4-7-1.4-17.1-3.3-29.5c-2.1-12.4-5-27.1-9.6-43
										c-2-7.3-6.7-24.8-18-50.9c-14.9-35.4-35.2-64.3-52.8-82.2c-4.1-4.8-8.7-8.2-12.4-11.5c-1.9-1.6-3.6-3.2-5.3-4.5
										c-1.7-1.2-3.3-2.3-4.8-3.3c-5.8-4-9.1-6.1-9.2-5.9c-0.5,0.7,13,8.7,30.1,26.8c17,18.1,36.7,46.9,51.5,81.9
										c8.3,19,14,36,18.1,50.4c4.7,15.8,7.8,30.3,10.2,42.6c2.2,12.3,3.6,22.3,4.3,29.2C478.8,1534,479.3,1537.8,479.5,1537.8z"
										/>
								</g>
							</g>
						</g>
					</g>
				</g>
			</g>
		</g>
		<g>
			<g>
				<g>
					<g>
						<g>
							<polygon class="st8" points="396,1690.2 404.7,1808.8 557,1808.8 565.7,1690.2 							"/>
						</g>
					</g>
				</g>
			</g>
		</g>
		<g>
			<g>
				<g>
					<g>
						<g>
							<rect x="381.3" y="1643.5" class="st8" width="202.5" height="46.7"/>
						</g>
					</g>
				</g>
			</g>
		</g>
		<g>
			<g>
				<g>
					<g>
						<g>
							<polygon class="st5" points="381.3,1804.2 381.3,1817.2 390.8,1817.2 580.5,1817.2 580.5,1804.2 							"/>
						</g>
					</g>
				</g>
			</g>
		</g>
		<g>
			<g>
				<g>
					<g>
						<g>
							<polygon class="st5" points="400.2,1840 390.8,1817.2 573.3,1817.2 562.4,1840 							"/>
						</g>
					</g>
				</g>
			</g>
		</g>
		<g>
			<g>
				<g>
					<g>
						<g>
							<g>
								<path class="st2" d="M562.9,1729c0,0-0.2,0.4-0.7,1.1c-0.6,0.8-1.4,1.8-2.3,3c-2.2,2.8-5.1,6.6-8.9,11.4l-0.4,0.5l-0.4-0.5
									c-5.6-7.7-13-18-21.8-30.2h1.3c-6.5,9.2-13.7,19.4-21.5,30.4l-0.7,1l-0.8-0.9c-7.9-9.4-16.5-19.7-25.5-30.3l1.5,0
									c-0.4,0.6-0.9,1.2-1.4,1.8c-7.9,9.9-15.5,19.5-22.8,28.5l-0.8,1l-0.7-1c-7.7-10.9-14.9-21.2-21.5-30.4l1.2,0.1
									c-10.6,12.1-19.6,22.3-26.4,30.1l-0.5,0.5l-0.4-0.6c-3.5-5.9-6.3-10.5-8.3-13.9c-0.9-1.5-1.6-2.7-2.1-3.7
									c-0.5-0.8-0.7-1.3-0.6-1.3c0,0,0.3,0.4,0.9,1.2c0.6,0.9,1.4,2.1,2.4,3.6c2.1,3.3,5,7.9,8.7,13.7l-0.8-0.1
									c6.8-7.9,15.6-18.3,26-30.5l0.7-0.8l0.6,0.8c6.6,9.2,13.9,19.4,21.7,30.2l-1.5,0c7.2-9.1,14.8-18.7,22.7-28.6
									c0.5-0.6,1-1.2,1.4-1.8l0.7-0.9l0.7,0.9c8.9,10.6,17.5,20.9,25.4,30.3l-1.4,0.1c7.8-10.9,15.1-21.1,21.7-30.2l0.6-0.9
									l0.6,0.9c8.6,12.3,15.9,22.7,21.3,30.5l-0.8,0c3.9-4.7,7-8.4,9.2-11.1c1-1.2,1.8-2.1,2.5-2.9
									C562.5,1729.2,562.8,1728.9,562.9,1729z"/>
							</g>
						</g>
					</g>
				</g>
			</g>
		</g>
		<g>
			<g>
				<g>
					<g>
						<g>
							<g>
								<path class="st5" d="M567.8,1689.4c0,0.5-38.2,0.9-85.2,0.9c-47.1,0-85.3-0.4-85.3-0.9c0-0.5,38.2-0.9,85.3-0.9
									C529.6,1688.5,567.8,1688.9,567.8,1689.4z"/>
							</g>
						</g>
					</g>
				</g>
			</g>
		</g>
		<g>
			<g>
				<g>
					<g>
						<g>
							<g>
								<path class="st8" d="M575.5,1818.5c0,0.5-41.5,0.9-92.6,0.9c-51.2,0-92.7-0.4-92.7-0.9c0-0.5,41.5-0.9,92.7-0.9
									C534,1817.5,575.5,1817.9,575.5,1818.5z"/>
							</g>
						</g>
					</g>
				</g>
			</g>
		</g>
	</g>
	<g>
		<g>
			<g>
				<g>
					<g>
						<g>
							<g>
								<path class="st9" d="M1699.6,915c-3.3-14.3,13.5-63.5,2.7-64.6c-13.8-1.4-16.2,54.6-16.7,59.6c-0.5,4.9-7.8,4.3-7.1-0.2
									c1-6.5,10.2-69.8-3.8-70c-7.7-0.1-8.1,14-8.1,14s-5.2,62.5-11.8,62.2c-6.7-0.3-1.9-35.8-1.2-49.1c0.6-12.7-5.7-20-10.4-14.5
									c-6.9,8-6.8,40.2-7.7,52.9c-0.8,12.7-4.3,49.1-17.3,30.9c-13.1-18.2-29.9-27.4-36-26.8c-6.2,0.6-7.3,9.5-1.3,13
									c4.9,2.8,11.5,10,16.4,15.6c4,4.6,6.6,10.1,9.4,15.5c2,3.8,5.3,11.5,6.9,22.1c1.8,12.3,8.9,23.2,19.3,30l-0.7,100.1
									l-3.1,49.5l77.9,27l-10.2-176.5c3.8-33.9,18.8-76.8,24.2-96.7c8.7-31.7,4.6-33.1,0.7-33.3
									C1713,875.3,1702.8,928.9,1699.6,915z"/>
							</g>
						</g>
					</g>
				</g>
			</g>
			<g>
				<g>
					<g>
						<g>
							<path class="st10" d="M1689.6,958c0,0.3-3.8,0-9.6,1.6c-5.7,1.6-13.4,5.6-19.1,13c-1.5,2-2.7,4.1-3.8,6.2l-0.5,1l-0.8-0.8
								c-5.1-5.3-10.7-8.8-14.8-10.8c-4.1-2.1-6.8-2.9-6.7-3.1c0-0.2,2.8,0.3,7.1,2.2c4.3,1.8,10.1,5.2,15.5,10.6l-1.3,0.2
								c1.1-2.2,2.3-4.4,3.9-6.5c2.9-3.8,6.5-6.8,10-9c3.5-2.1,7-3.4,10-4.1c3-0.8,5.5-0.8,7.2-0.8
								C1688.7,957.8,1689.6,957.9,1689.6,958z"/>
						</g>
					</g>
				</g>
			</g>
			<g>
				<g>
					<g>
						<g>
							<path class="st10" d="M1685.8,1004.9c0.1,0.4-7.3,2.8-16.8,3.1c-9.5,0.3-17.1-1.6-17-2c0.1-0.5,7.6,0.7,17,0.4
								C1678.2,1006.1,1685.7,1004.4,1685.8,1004.9z"/>
						</g>
					</g>
				</g>
			</g>
		</g>
		<g>
			<g>
				<g>
					<path class="st8" d="M1214.9,743.9c1.6-25.6,22.6-48.7,47.9-52.6c6.6-1,13.6-0.9,19.8-3.7c5-2.3,9.1-6.2,13.7-9.2
						c14.9-9.5,36.5-6.6,48.4,6.5c11.2,12.3,14-6.1,39.2,6.5c20.8,10.4,11.6,27.7,11.6,27.7c20.6-2.4,41.7,12.2,46.9,32.2
						c3.3,12.7,1.8,28.6,12.4,36.3c5.2,3.7,12,4.4,17.3,7.9c9.9,6.5,11.2,20.5,9.9,32.2c-1.3,11.8-4,24.3,1.1,35
						c8.4,17.5,34.5,22.8,39.1,41.7c2.1,8.9-0.9,20,5.9,26.2c2.7,2.5,6.4,3.5,9.8,4.9c13.8,5.6,24,19.3,25.4,34.2
						c1.4,14.9-6.1,30.2-18.7,38.3c-3.5,2.2-7.7,4.4-8.8,8.4c-1.2,4.5,2,8.8,4.3,12.8c8.7,14.6,6.4,34.9-5.3,47.2
						c-11.7,12.3-31.8,15.6-46.8,7.7c-6.7,14.3-19.2,25.8-34,31.2c-6.8,2.5-14.3,3.8-21.4,2.1c-5.7-1.4-10.7-4.5-15.4-8
						c-22.2-16.7-53.5-42.4-57.4-69.9"/>
				</g>
			</g>
			<g>
				<g>
					<path class="st9" d="M1214.4,786.7l-1-19.7l117.6-26.2c36.3-5,76.9,30.3,80.3,66.9c3.8,40.6,6.9,90.3,3,120.8
						c-7.8,61.3-54.3,70.5-54.3,70.5l1.6,60.6l-134.8,5.9L1214.4,786.7z"/>
				</g>
			</g>
			<g>
				<g>
					<g>
						<g>
							<g>
								<g>
									<g>
										<g>
											<g>
												<g>
													<path class="st8" d="M1389.2,852c0.3,4.1-3,7.8-7.3,8.1c-4.3,0.4-8-2.7-8.3-6.8c-0.3-4.1,3-7.8,7.3-8.1
														C1385.2,844.8,1388.9,847.9,1389.2,852z"/>
												</g>
											</g>
										</g>
									</g>
								</g>
							</g>
						</g>
					</g>
				</g>
			</g>
			<g>
				<g>
					<g>
						<g>
							<g>
								<g>
									<g>
										<g>
											<g>
												<g>
													<g>
														<path class="st8" d="M1399.2,834c-0.9,1-7-3.2-15.4-2.9c-8.4,0.2-14.5,4.7-15.4,3.7c-0.5-0.4,0.5-2.3,3.1-4.4
															c2.6-2,7-4.1,12.3-4.2c5.2-0.1,9.7,1.7,12.3,3.6C1398.7,831.7,1399.7,833.5,1399.2,834z"/>
													</g>
												</g>
											</g>
										</g>
									</g>
								</g>
							</g>
						</g>
					</g>
				</g>
			</g>
			<g>
				<g>
					<g>
						<g>
							<g>
								<g>
									<g>
										<g>
											<g>
												<g>
													<path class="st8" d="M1310.6,856c0.3,4.1-3,7.8-7.3,8.1c-4.3,0.4-8-2.7-8.3-6.8c-0.3-4.1,3-7.8,7.3-8.1
														C1306.6,848.8,1310.3,851.8,1310.6,856z"/>
												</g>
											</g>
										</g>
									</g>
								</g>
							</g>
						</g>
					</g>
				</g>
			</g>
			<g>
				<g>
					<g>
						<g>
							<g>
								<g>
									<g>
										<g>
											<g>
												<g>
													<g>
														<path class="st8" d="M1316.5,838.1c-0.9,1-7-3.2-15.4-2.9c-8.4,0.2-14.5,4.7-15.4,3.7c-0.5-0.4,0.5-2.3,3.1-4.4
															c2.6-2,7-4.1,12.3-4.2c5.2-0.1,9.7,1.7,12.3,3.6C1316,835.8,1317,837.7,1316.5,838.1z"/>
													</g>
												</g>
											</g>
										</g>
									</g>
								</g>
							</g>
						</g>
					</g>
				</g>
			</g>
			<g>
				<g>
					<g>
						<g>
							<g>
								<g>
									<g>
										<g>
											<g>
												<g>
													<path class="st8" d="M1349,899.6c-0.1-0.5,5.2-1.5,13.6-2.9c2.1-0.3,4.2-0.8,4.5-2.3c0.5-1.6-0.5-3.9-1.6-6.3
														c-2.2-5.1-4.5-10.5-6.9-16.2c-9.6-23-16.5-42-15.6-42.4c0.9-0.4,9.4,18,19,41c2.3,5.7,4.5,11.1,6.6,16.3
														c0.9,2.4,2.4,5.1,1.4,8.4c-0.5,1.6-2.1,2.8-3.4,3.3c-1.4,0.5-2.6,0.5-3.6,0.6C1354.3,899.9,1349,900.1,1349,899.6z"/>
												</g>
											</g>
										</g>
									</g>
								</g>
							</g>
						</g>
					</g>
				</g>
			</g>
			<g>
				<g>
					<g>
						<g>
							<g>
								<g>
									<g>
										<g>
											<g>
												<path class="st10" d="M1360,999.1c0,0-43,3.9-84.5-19.3c0,0,21.9,42.1,84.9,34.5L1360,999.1z"/>
											</g>
										</g>
									</g>
								</g>
							</g>
						</g>
					</g>
				</g>
			</g>
			<g>
				<g>
					<g>
						<g>
							<g>
								<g>
									<g>
										<g>
											<g>
												<path class="st10" d="M1346.1,920c-3.2-3.9-8.5-5.9-13.8-5.2c-3.6,0.5-7.3,2.4-9.4,5.4c-2.1,3-2.5,7.3-0.4,10.1
													c2.4,3.1,7.1,3.7,11.1,2.4c4-1.3,7.4-4,10.6-6.8c0.9-0.8,1.8-1.5,2.3-2.6c0.5-1,0.6-2.3-0.1-3.1"/>
											</g>
										</g>
									</g>
								</g>
							</g>
						</g>
					</g>
				</g>
			</g>
			<g>
				<g>
					<g>
						<g>
							<g>
								<g>
									<g>
										<g>
											<g>
												<g>
													<path class="st8" d="M1324.4,906.2c1.4-0.1,1.7,9,9.7,15.3c8,6.3,17.7,4.9,17.8,6.2c0.1,0.6-2.1,1.8-6.2,2.1
														c-4,0.3-10-0.8-14.9-4.7c-4.9-3.8-7.1-9.1-7.5-12.8C1322.8,908.5,1323.8,906.2,1324.4,906.2z"/>
												</g>
											</g>
										</g>
									</g>
								</g>
							</g>
						</g>
					</g>
				</g>
			</g>
			<g>
				<g>
					<g>
						<g>
							<g>
								<g>
									<path class="st8" d="M1317.7,805.1c-0.8,2.3-9.2,1.5-19,3c-9.9,1.3-17.7,4.4-19.1,2.4c-0.6-1,0.7-3.2,3.9-5.5
										c3.1-2.3,8.2-4.6,14.1-5.4c5.9-0.8,11.4-0.1,15,1.3C1316.1,802.2,1318,804,1317.7,805.1z"/>
								</g>
							</g>
						</g>
					</g>
				</g>
			</g>
			<g>
				<g>
					<g>
						<g>
							<g>
								<g>
									<path class="st8" d="M1395.3,809.7c-1.4,2-7.3,0.2-14.3,0.3c-7-0.1-12.8,1.7-14.3-0.3c-0.6-1,0.2-2.9,2.8-4.8
										c2.5-1.9,6.7-3.5,11.5-3.5c4.8,0,9,1.6,11.5,3.5C1395.1,806.8,1396,808.8,1395.3,809.7z"/>
								</g>
							</g>
						</g>
					</g>
				</g>
			</g>
			<g>
				<g>
					<path class="st8" d="M1421.6,732.9c-8.3,22-27.9,55.2-51.1,59.2c-23.1,4-48.1-5.2-63.2-23.2c-2.7,17.5-21.5,27.7-38.8,31.4
						c-12.3,2.6-25.3,3.4-37.2-0.7c-11.9-4.1-22.3-13.7-24.8-26c-2.5-12.3,13.7-43.6,25.9-46.5"/>
				</g>
			</g>
			<g>
				<g>
					<path class="st8" d="M1254.1,1057.3c0.3,19.7-13.3,38.9-32.1,45.1c1.8,15.9-9.3,32.3-24.8,36.6c-15.4,4.3-33.4-4.1-40-18.6
						c-1.7-3.8-2.9-8.1-5.7-11.2c-6.5-7.1-18-4.8-27.4-7.1c-16.9-4.2-25.4-23.8-24.8-41.2c0.1-3.4,0.5-6.9-0.2-10.2
						c-1.5-6.8-7.3-11.7-11.7-17.1c-18.3-22.3-13.8-56.9,3-80.3c5.6-7.8,12.8-16.1,11.5-25.6c-0.7-5.3-4-9.9-6.3-14.7
						c-7.5-15.7-4-35.9,8.3-48.2c1.9-1.9,4.1-3.8,4.6-6.4c0.3-1.7-0.1-3.4-0.4-5c-4.8-25.2,13.8-52.6,39-57.3
						c1.5-0.3,3.1-0.5,4.4-1.3c3.8-2.3,3.5-7.7,3.7-12.1c0.5-11.7,7.9-33.9,16.2-42.1c23-22.7,48.1-7.4,57.1,0
						c0,0,22.8,82.1,20.6,97.9c-2.1,15.7-10.8,55.3-5,72.5c5.8,17.2,15.8,52.7,9.8,69.1C1248.2,996.2,1254.1,1057.3,1254.1,1057.3z"
						/>
				</g>
			</g>
		</g>
		<g>
			<g>
				<g>
					<g>
						<g>
							<g>
								<g>
									<g>
										<g>
											<g>
												<path class="st7" d="M1402,1741.3c0,0,178,49.3,185.2,51.8c10.7,3.8,8.9,43.1-7.8,42.5c-7.9-0.3-136.8,4.8-153,3.8
													c-16.3-1-65.4-20.4-65.4-20.4L1402,1741.3z"/>
											</g>
										</g>
									</g>
								</g>
							</g>
						</g>
					</g>
				</g>
				<g>
					<g>
						<g>
							<g>
								<g>
									<g>
										<g>
											<g>
												<g>
													<path class="st8" d="M1476.2,1809.3c0.9,0.1,2.1-9.3,7.8-19.1c5.6-9.9,13.1-15.7,12.6-16.4c-0.3-0.7-9.2,4.3-15.2,14.9
														C1475.4,1799.2,1475.5,1809.3,1476.2,1809.3z"/>
												</g>
											</g>
										</g>
									</g>
								</g>
							</g>
						</g>
					</g>
				</g>
				<g>
					<g>
						<g>
							<g>
								<g>
									<g>
										<g>
											<g>
												<g>
													<path class="st8" d="M1457.6,1800.8c0.9,0.2,2.7-8.3,7.4-17.6c4.6-9.4,10.3-15.8,9.7-16.4c-0.5-0.6-7.4,5.2-12.4,15.1
														C1457.4,1791.7,1456.9,1800.8,1457.6,1800.8z"/>
												</g>
											</g>
										</g>
									</g>
								</g>
							</g>
						</g>
					</g>
				</g>
				<g>
					<g>
						<g>
							<g>
								<g>
									<g>
										<g>
											<g>
												<g>
													<path class="st8" d="M1440.2,1796.2c0.9-0.1,0.2-8.9,4.2-18.8c3.8-9.9,10.3-16,9.7-16.6c-0.4-0.7-8.3,4.8-12.5,15.6
														C1437.4,1787,1439.5,1796.4,1440.2,1796.2z"/>
												</g>
											</g>
										</g>
									</g>
								</g>
							</g>
						</g>
					</g>
				</g>
				<g>
					<g>
						<g>
							<g>
								<g>
									<g>
										<g>
											<g>
												<g>
													<path class="st8" d="M1443.4,1773.2c0.3,0.1,1.9-4.9,1.9-13.2c0-4.2-0.5-9.1-1.8-14.5c-0.7-2.7-1.5-5.5-2.7-8.3
														c-0.6-1.4-1.2-3-2.9-4.4c-1.7-1.5-4.7-1.2-6.1,0.3c-1.6,1.4-2.1,3.4-2.4,5c-0.2,1.6-0.3,3.2-0.2,4.7
														c0,3.1,0.4,6,1.1,8.7c1.3,5.4,3.4,10,5.5,13.6c4.1,7.2,7.7,10.9,8,10.7c0.4-0.3-2.6-4.4-6.1-11.7
														c-1.7-3.6-3.6-8.1-4.7-13.2c-0.5-2.6-0.9-5.3-0.9-8.1c0.1-2.7,0-6.2,1.6-7.5c0.8-0.7,1.6-0.8,2.4-0.2
														c0.8,0.6,1.4,1.8,2,3.1c1.1,2.7,2,5.3,2.7,7.9c1.4,5.1,2.1,9.9,2.4,13.9C1443.7,1768.1,1442.9,1773.1,1443.4,1773.2z"
														/>
												</g>
											</g>
										</g>
									</g>
								</g>
							</g>
						</g>
					</g>
				</g>
				<g>
					<g>
						<g>
							<g>
								<g>
									<g>
										<g>
											<g>
												<g>
													<path class="st8" d="M1443.2,1771.4c0.1-0.3-4.2-1.8-11.5-1.9c-3.6,0-8,0.4-12.6,1.5c-2.3,0.6-4.8,1.2-7.3,2.7
														c-2.4,1.2-5,4.6-4,8.1c0.8,3.3,3.6,5.6,6.4,6.4c2.8,0.8,5.6,0.5,8,0c4.9-1.1,8.7-3.5,11.6-5.7c5.7-4.5,8.5-7.9,8.3-8.2
														c-0.3-0.4-3.7,2.6-9.5,6.4c-2.9,1.9-6.6,3.9-10.9,4.7c-2.2,0.4-4.5,0.5-6.6-0.1c-2.1-0.6-3.8-2.2-4.3-4.2
														c-0.5-2,0.7-3.8,2.6-5c1.9-1.2,4.3-1.9,6.5-2.5c4.4-1.3,8.5-1.8,12-2.1C1438.7,1771.1,1443.1,1771.8,1443.2,1771.4z"/>
												</g>
											</g>
										</g>
									</g>
								</g>
							</g>
						</g>
					</g>
				</g>
				<g>
					<g>
						<g>
							<g>
								<g>
									<g>
										<g>
											<g>
												<g>
													<path class="st8" d="M1503.6,1811.2c0.9-0.1,0-7.7,3.5-16.1c3.3-8.4,9.3-13.3,8.7-13.9c-0.3-0.7-7.7,3.5-11.5,12.8
														C1500.5,1803.3,1502.8,1811.5,1503.6,1811.2z"/>
												</g>
											</g>
										</g>
									</g>
								</g>
							</g>
						</g>
					</g>
				</g>
				<g>
					<g>
						<g>
							<g>
								<g>
									<g>
										<g>
											<g>
												<g>
													<path class="st8" d="M1379.3,1819.4c-0.1,0.2,2.4,1.3,6.9,3.2c4.6,1.7,11.3,4.1,19.8,6.1c17,4.3,41.3,6.7,68,6.4
														c26.7-0.3,50.7-1.5,68.2-2.2c8.3-0.4,15.2-0.8,20.6-1.1c4.9-0.3,7.6-0.6,7.6-0.8c0-0.2-2.7-0.3-7.6-0.4
														c-5.5,0-12.4,0.1-20.7,0.1c-18,0.4-41.8,0.8-68.1,1.3c-26.5,0.3-50.5-1.8-67.5-5.5
														C1389.5,1823.2,1379.5,1818.8,1379.3,1819.4z"/>
												</g>
											</g>
										</g>
									</g>
								</g>
							</g>
						</g>
					</g>
				</g>
				<g>
					<g>
						<g>
							<g>
								<g>
									<g>
										<g>
											<g>
												<g>
													<path class="st8" d="M1374.1,1823.4c0.2,0.4,5.1-2.4,13.3-6c8.1-3.5,20.3-7.7,33.7-5.6c13.4,2.1,22.9,11.1,29.1,17.3
														c6.2,6.5,9.9,10.8,10.3,10.5c0.3-0.2-2.8-5-8.7-11.9c-3-3.4-6.8-7.4-11.8-11c-4.9-3.6-11.3-6.7-18.4-7.8
														c-14.4-2.2-27,2.6-35,6.6C1378.4,1819.7,1373.9,1823.1,1374.1,1823.4z"/>
												</g>
											</g>
										</g>
									</g>
								</g>
							</g>
						</g>
					</g>
				</g>
				<g class="st11">
					<g>
						<g>
							<g>
								<g>
									<g>
										<g>
											<g>
												<path d="M1402,1741.3c0,0,178,49.3,185.2,51.8c10.7,3.8,8.9,43.1-7.8,42.5c-7.9-0.3-136.8,4.8-153,3.8
													c-16.3-1-65.4-20.4-65.4-20.4L1402,1741.3z"/>
											</g>
										</g>
									</g>
								</g>
							</g>
						</g>
					</g>
				</g>
			</g>
			<g>
				<g>
					<g>
						<g>
							<g>
								<g>
									<g>
										<path class="st8" d="M1204.2,1536.8l-38.4,79c0,0-205.5-62.5-257.3-59.6c-51.8,2.9-94.2,23.6-104.3,65.7
											c-10.1,42.1-11.4,100.1,49,140.4c60.4,40.3,360.6,62.5,360.6,62.5h118.8l194.2-256l-31.3-25.4L1204.2,1536.8z"/>
									</g>
								</g>
							</g>
						</g>
					</g>
					<g>
						<g>
							<g>
								<g>
									<g>
										<g>
											<path class="st5" d="M1268.9,1710.1c0,0.1-1.3,0.1-3.9-0.1c-2.5-0.2-6.3-0.2-11.1-0.9c-9.7-1-23.6-3.5-40.3-8.3
												c-16.7-4.8-36-12.4-56.8-22.2c-20.8-9.8-42.9-21.9-66.2-34.4c-23.3-12.5-45.9-23.7-67.1-32.2c-21.2-8.5-41-14.4-58-17.4
												c-17-3.1-31-3.8-40.7-3.5c-4.8-0.1-8.6,0.4-11.1,0.4c-2.5,0.1-3.9,0.1-3.9,0.1c0-0.1,1.3-0.3,3.9-0.6
												c2.5-0.2,6.3-0.9,11.1-0.9c9.7-0.6,23.9-0.1,41,2.8c17.2,2.8,37.2,8.5,58.6,16.9c21.4,8.4,44.1,19.6,67.4,32.1
												c23.3,12.5,45.4,24.6,66,34.5c20.6,9.9,39.8,17.6,56.3,22.6c16.5,5,30.3,7.8,39.9,9.1c4.8,0.8,8.5,1,11.1,1.3
												C1267.5,1709.8,1268.9,1710,1268.9,1710.1z"/>
										</g>
									</g>
								</g>
							</g>
						</g>
					</g>
					<g>
						<g>
							<g>
								<g>
									<g>
										<path class="st8" d="M1409.3,1803.8c38.2-15,248.1-81.8,322.4-167.7c20.6-23.8,24.4-48.7,20.3-71.3
											c-10.4-57.3-63-95.5-117.7-73.8c-7.8,3.1-25.6,10-33.1,14c-20.4,11-350.6,220.4-350.6,220.4s57.5,112.2,56.1,116.5
											L1409.3,1803.8z"/>
									</g>
								</g>
							</g>
						</g>
					</g>
					<g>
						<g>
							<g>
								<g>
									<g>
										<g>
											<path class="st5" d="M1512.7,1554.9c0,0-0.3,0.3-0.9,0.7c-0.8,0.5-1.7,1.1-2.8,1.9c-2.6,1.7-6.2,4.1-10.8,7
												c-9.6,6.1-23.2,14.8-39.9,25.4c-34,21.3-80.6,50.6-132.1,83c-25.4,15.9-49.7,31-71.7,44.7l0.5-1.5
												c15.3,36.8,28.3,68.1,37.6,90.5c4.5,11,8,19.7,10.6,26c1.1,2.9,2,5.2,2.7,6.9c0.6,1.6,0.9,2.4,0.8,2.4
												c-0.1,0-0.5-0.8-1.2-2.3c-0.8-1.7-1.8-4-3.1-6.8c-2.7-6.2-6.5-14.9-11.2-25.7c-9.5-22.3-22.8-53.5-38.5-90.1l-0.4-0.9
												l0.9-0.5c22-13.8,46.2-29,71.6-44.9c51.6-32.1,98.4-61.2,132.5-82.4c16.9-10.3,30.6-18.8,40.3-24.7c4.6-2.8,8.3-5,11-6.6
												c1.2-0.7,2.1-1.2,2.9-1.7C1512.3,1555,1512.6,1554.8,1512.7,1554.9z"/>
										</g>
									</g>
								</g>
							</g>
						</g>
					</g>
					<g>
						<g>
							<g>
								<g>
									<g>
										<g>
											<path class="st5" d="M1222.6,1653.9c-0.1,0.3-3.9-0.9-9.8-3.7c-5.8-2.7-13.6-7.1-21.6-12.9c-7.9-5.8-14.5-11.9-18.8-16.7
												c-4.4-4.7-6.7-8-6.4-8.2c0.6-0.5,11.1,11.3,26.8,22.8C1208.5,1646.7,1223,1653.2,1222.6,1653.9z"/>
										</g>
									</g>
								</g>
							</g>
						</g>
					</g>
					<g>
						<g>
							<g>
								<g>
									<g>
										<g>
											<path class="st5" d="M1337,1560.8c0.4,0,0.4,5,0.5,13.1c0.1,8.1,0.4,19.3,1.5,31.6c1.1,12.3,2.8,23.3,4.1,31.3
												c1.3,8,2.2,12.9,1.9,13c-0.3,0.1-1.8-4.7-3.7-12.7c-1.8-7.9-3.8-19-4.9-31.4c-1.1-12.4-1.2-23.7-0.8-31.8
												C1336,1565.8,1336.6,1560.8,1337,1560.8z"/>
										</g>
									</g>
								</g>
							</g>
						</g>
					</g>
					<g>
						<g>
							<g>
								<g>
									<g>
										<g>
											<path class="st5" d="M1361.5,1558.1c0-0.1,1-0.2,2.6,0.4c1.6,0.6,3.8,2,5.5,4.6c1.6,2.5,2.9,6.4,1.6,10.6
												c-1.2,4.2-5.8,7.3-10.7,7.5c-4.8,0.3-9.7-2.3-11.3-6.6c-1.5-4.1-0.2-8.1,1.5-10.6c1.8-2.6,4.1-3.9,5.7-4.3
												c1.7-0.4,2.6-0.1,2.6,0c0.2,0.4-4,0.4-6.8,5.2c-1.3,2.3-2.1,5.7-0.8,8.7c1.2,3.1,5,5.1,8.9,4.9c4-0.2,7.5-2.5,8.5-5.7
												c1.2-3.2,0.4-6.5-0.9-8.9C1365.3,1559.1,1361.3,1558.5,1361.5,1558.1z"/>
										</g>
									</g>
								</g>
							</g>
						</g>
					</g>
					<g>
						<g>
							<g>
								<g>
									<g>
										<g>
											<path class="st5" d="M1260,1549.8c0.1-0.1,0.9,1.3,1.8,3.9c0.9,2.6,1.7,6.6,1.7,11.6c0,5-1.1,11-3.8,17
												c-2.7,6-7.3,12.1-13.7,16.5c-6.5,4.3-13.8,6.2-20.4,6.5c-6.6,0.3-12.6-1-17.2-2.9c-4.6-1.9-8-4.1-10.1-6
												c-2.1-1.8-3-3-2.9-3.1c0.3-0.4,4.6,4.2,13.7,7.4c4.5,1.6,10.2,2.6,16.5,2.2c6.3-0.4,13.1-2.3,19.1-6.3
												c5.9-4.1,10.3-9.7,13-15.3c2.7-5.7,3.9-11.3,4.2-16.1C1262.2,1555.6,1259.4,1549.9,1260,1549.8z"/>
										</g>
									</g>
								</g>
							</g>
						</g>
					</g>
					<g>
						<g>
							<g>
								<g>
									<g>
										<g>
											<path class="st5" d="M1455.8,1588.9c0,0.3-3.1,0.5-7.8-1.1c-4.6-1.5-10.8-5.3-15-11.7c-4.2-6.4-5.2-13.6-4.7-18.4
												c0.4-4.9,1.9-7.7,2.1-7.6c0.4,0.1-0.4,3-0.3,7.6c0,4.6,1.2,11.1,5,17c3.8,5.9,9.3,9.6,13.5,11.4
												C1452.9,1588,1455.9,1588.5,1455.8,1588.9z"/>
										</g>
									</g>
								</g>
							</g>
						</g>
					</g>
				</g>
				<g>
					<g>
						<g>
							<g>
								<path class="st5" d="M1558.5,1745.9c0,0,0.4-0.3,1.3-0.7c0.9-0.4,2.2-1.1,3.8-1.8c3.4-1.6,8.3-4,14.6-7
									c12.6-6.1,30.9-15,52.9-26.9c22-11.9,48-27,73.1-48.6c12.4-10.8,24.6-23.4,35-38.1c9.9-14.9,14.1-34,12.7-52.8
									c-0.8-9.4-3.2-18.6-7-27c-1.9-4.2-4.2-8.2-6.8-11.9c-2.6-3.7-5.6-7.1-8.6-10.4c-6.2-6.5-13-12.2-19.7-17.7
									c-6.6-5.6-13.5-10.6-21.4-12.8c-7.8-2.3-16-2.7-23.8-2.6c-7.8,0.1-15.4,1-22.6,2.5c-14.4,2.9-27,8.5-38.1,14.4
									c-21.9,12.1-39.6,22-51.9,28.8c-6.1,3.3-10.8,6-14.2,7.8c-1.6,0.8-2.8,1.5-3.7,2c-0.8,0.4-1.3,0.7-1.3,0.6
									c0,0,0.4-0.3,1.2-0.8c0.9-0.5,2.1-1.2,3.6-2.1c3.3-1.9,8-4.6,14-8.1c12.2-6.9,29.7-17.1,51.7-29.3c11-6,23.8-11.7,38.3-14.7
									c7.3-1.5,14.9-2.4,22.8-2.6c7.9-0.1,16.1,0.2,24.2,2.6c8.2,2.3,15.4,7.5,22,13.1c6.7,5.5,13.5,11.3,19.8,17.8
									c3.1,3.3,6.1,6.8,8.8,10.6c2.7,3.8,5,7.9,6.9,12.2c3.9,8.6,6.3,18,7.1,27.6c1.5,19.2-2.8,38.6-13,53.9
									c-10.5,14.9-22.8,27.4-35.3,38.3c-25.3,21.7-51.4,36.7-73.5,48.5c-22.2,11.8-40.5,20.5-53.2,26.4
									c-6.3,2.9-11.3,5.1-14.7,6.7c-1.6,0.7-2.9,1.3-3.8,1.7C1559,1745.7,1558.5,1745.9,1558.5,1745.9z"/>
							</g>
						</g>
					</g>
				</g>
			</g>
			<g>
				<g>
					<g>
						<g>
							<g>
								<g>
									<g>
										<g>
											<g>
												<g>
													<path class="st7" d="M1264.5,1742.4c0,0-178.6,47.1-185.8,49.5c-10.8,3.6-9.5,43,7.2,42.6c7.9-0.2,136.7,6.5,153,5.7
														c16.3-0.8,60.3-17.6,60.3-17.6L1264.5,1742.4z"/>
												</g>
											</g>
										</g>
									</g>
								</g>
							</g>
						</g>
					</g>
					<g>
						<g>
							<g>
								<g>
									<g>
										<g>
											<g>
												<g>
													<g>
														<path class="st8" d="M1189.5,1809.4c-0.9,0.1-2-9.3-7.6-19.2c-5.5-10-12.9-15.8-12.4-16.5c0.3-0.7,9.1,4.4,15,15.1
															C1190.5,1799.4,1190.3,1809.5,1189.5,1809.4z"/>
													</g>
												</g>
											</g>
										</g>
									</g>
								</g>
							</g>
						</g>
					</g>
					<g>
						<g>
							<g>
								<g>
									<g>
										<g>
											<g>
												<g>
													<g>
														<path class="st8" d="M1208.2,1801.3c-0.9,0.1-2.6-8.3-7.2-17.7c-4.5-9.4-10.1-15.9-9.5-16.5
															c0.5-0.6,7.4,5.3,12.2,15.2C1208.5,1792.2,1208.9,1801.2,1208.2,1801.3z"/>
													</g>
												</g>
											</g>
										</g>
									</g>
								</g>
							</g>
						</g>
					</g>
					<g>
						<g>
							<g>
								<g>
									<g>
										<g>
											<g>
												<g>
													<g>
														<path class="st8" d="M1225.7,1796.8c-0.9-0.1-0.1-9-3.9-18.9c-3.7-10-10.1-16.1-9.5-16.8c0.4-0.7,8.3,4.9,12.3,15.7
															C1228.6,1787.6,1226.4,1797.1,1225.7,1796.8z"/>
													</g>
												</g>
											</g>
										</g>
									</g>
								</g>
							</g>
						</g>
					</g>
					<g>
						<g>
							<g>
								<g>
									<g>
										<g>
											<g>
												<g>
													<g>
														<path class="st8" d="M1222.8,1773.8c-0.3,0.1-1.8-4.9-1.7-13.3c0.1-4.2,0.6-9.1,2-14.5c0.7-2.7,1.6-5.4,2.8-8.2
															c0.6-1.4,1.3-3,2.9-4.3c1.7-1.5,4.7-1.1,6.1,0.4c1.6,1.4,2.1,3.5,2.3,5.1c0.2,1.6,0.2,3.2,0.2,4.7
															c-0.1,3.1-0.5,6-1.2,8.7c-1.4,5.4-3.6,10-5.6,13.5c-4.2,7.2-7.9,10.8-8.1,10.6c-0.4-0.3,2.6-4.4,6.3-11.6
															c1.8-3.6,3.7-8,4.8-13.2c0.6-2.6,0.9-5.3,1-8.1c0-2.7,0-6.2-1.5-7.5c-0.8-0.7-1.6-0.8-2.4-0.2c-0.8,0.6-1.5,1.8-2,3.1
															c-1.1,2.6-2.1,5.3-2.8,7.8c-1.5,5.1-2.2,9.9-2.5,13.9C1222.5,1768.7,1223.3,1773.7,1222.8,1773.8z"/>
													</g>
												</g>
											</g>
										</g>
									</g>
								</g>
							</g>
						</g>
					</g>
					<g>
						<g>
							<g>
								<g>
									<g>
										<g>
											<g>
												<g>
													<g>
														<path class="st8" d="M1223,1772c-0.1-0.3,4.2-1.8,11.5-1.7c3.6,0,8,0.5,12.6,1.7c2.3,0.7,4.8,1.3,7.2,2.8
															c2.4,1.3,4.9,4.7,3.9,8.2c-0.8,3.3-3.7,5.6-6.5,6.3c-2.8,0.8-5.6,0.4-8-0.1c-4.9-1.2-8.6-3.6-11.5-5.8
															c-5.7-4.5-8.4-8-8.2-8.3c0.3-0.4,3.7,2.6,9.4,6.5c2.9,1.9,6.5,4,10.9,4.9c2.2,0.4,4.5,0.6,6.6,0
															c2.1-0.6,3.9-2.1,4.4-4.2c0.5-2-0.6-3.8-2.6-5c-1.9-1.2-4.2-1.9-6.4-2.6c-4.4-1.3-8.5-1.9-12-2.2
															C1227.5,1771.8,1223.1,1772.4,1223,1772z"/>
													</g>
												</g>
											</g>
										</g>
									</g>
								</g>
							</g>
						</g>
					</g>
					<g>
						<g>
							<g>
								<g>
									<g>
										<g>
											<g>
												<g>
													<g>
														<path class="st8" d="M1162.1,1811c-0.9-0.1,0.1-7.7-3.3-16.1c-3.2-8.5-9.1-13.4-8.5-14c0.3-0.7,7.7,3.6,11.3,13
															C1165.3,1803.1,1162.9,1811.3,1162.1,1811z"/>
													</g>
												</g>
											</g>
										</g>
									</g>
								</g>
							</g>
						</g>
					</g>
					<g>
						<g>
							<g>
								<g>
									<g>
										<g>
											<g>
												<g>
													<g>
														<path class="st8" d="M1286.3,1820.8c0.1,0.2-2.4,1.3-6.9,3.2c-4.6,1.7-11.3,4-19.9,5.9c-17.1,4.1-41.4,6.2-68,5.6
															c-26.7-0.6-50.7-2.1-68.1-3c-8.2-0.5-15.2-1-20.6-1.3c-4.9-0.4-7.6-0.7-7.5-0.9c0-0.2,2.7-0.3,7.6-0.3
															c5.5,0.1,12.4,0.2,20.7,0.4c18,0.6,41.8,1.3,68.1,2.2c26.5,0.6,50.6-1.2,67.6-4.7
															C1276.1,1824.5,1286.1,1820.2,1286.3,1820.8z"/>
													</g>
												</g>
											</g>
										</g>
									</g>
								</g>
							</g>
						</g>
					</g>
					<g>
						<g>
							<g>
								<g>
									<g>
										<g>
											<g>
												<g>
													<g>
														<path class="st8" d="M1291.5,1824.9c-0.2,0.4-5.1-2.5-13.3-6.2c-8.1-3.6-20.2-7.9-33.6-6c-13.4,1.9-23.1,10.8-29.3,17
															c-6.3,6.4-10,10.7-10.4,10.4c-0.3-0.2,2.8-4.9,8.9-11.8c3-3.4,6.9-7.3,11.9-10.9c5-3.6,11.4-6.6,18.5-7.6
															c14.4-2,27,2.9,35,7.1C1287.2,1821.1,1291.7,1824.6,1291.5,1824.9z"/>
													</g>
												</g>
											</g>
										</g>
									</g>
								</g>
							</g>
						</g>
					</g>
				</g>
				<g>
					<g>
						<g>
							<g>
								<g>
									<g>
										<path class="st8" d="M1112.8,1830.4c-0.3-0.2,1.2-2.6,2.7-6.7c1.5-4.1,2.6-10.2,1.5-16.7c-1.1-6.5-4.3-11.9-7-15.3
											c-2.8-3.4-5-5.1-4.8-5.4c0.1-0.2,2.8,1,6,4.3c3.2,3.3,6.9,8.9,8.1,16c1.2,7.1-0.3,13.6-2.3,17.8
											C1115.1,1828.5,1113,1830.6,1112.8,1830.4z"/>
									</g>
								</g>
							</g>
						</g>
					</g>
				</g>
			</g>
		</g>
		<g>
			<g>
				<g>
					<g>
						<g>
							<path class="st7" d="M1256.3,1048.6l-91.8,25.7l29.9,285.7c0,0-17.2,102-17.2,128.8c0,34.8,27.1,47.9,27.1,47.9l293.4,8.9
								l15-13c7.7-9,11.3-20.9,9.8-32.7l-54.5-436l-102.1-22.2L1256.3,1048.6z"/>
						</g>
					</g>
				</g>
				<g>
					<g>
						<g>
							<g>
								<path class="st8" d="M1194.6,1359.7c-0.1,0-0.2-0.7-0.5-2.2c-0.3-1.6-0.7-3.7-1.2-6.3c-1-5.6-2.5-13.5-4.2-23.1
									c-3.4-19.7-8.1-46.5-13.3-76.2c-5-29.7-9.5-56.6-12.8-76.3c-1.5-9.6-2.8-17.5-3.7-23.1c-0.4-2.6-0.7-4.7-0.9-6.3
									c-0.2-1.4-0.3-2.2-0.2-2.2c0.1,0,0.2,0.7,0.5,2.2c0.3,1.6,0.7,3.7,1.2,6.3c1,5.6,2.5,13.5,4.2,23.1
									c3.4,19.7,8.1,46.5,13.3,76.2c5,29.7,9.5,56.6,12.8,76.3c1.5,9.6,2.8,17.5,3.7,23.1c0.4,2.6,0.7,4.7,0.9,6.3
									C1194.6,1359,1194.7,1359.7,1194.6,1359.7z"/>
							</g>
						</g>
					</g>
				</g>
				<g>
					<g>
						<g>
							<g>
								<path class="st8" d="M1378.7,1047c0.1,0.1-1.4,1.3-4.2,3.4c-1.4,1-3.3,2.1-5.4,3.4c-2.2,1.1-4.6,2.6-7.5,3.7
									c-5.7,2.5-12.8,4.9-20.8,6.5c-8.1,1.6-17.1,2.5-26.6,2.8c-9.5,0.2-18.5-0.2-26.7-0.8c-8.2-0.6-15.5-1.5-21.6-2.8
									c-6.1-1.3-10.8-3.2-14-4.7c-1.6-0.8-2.7-1.4-3.5-1.9c-0.8-0.5-1.2-0.8-1.1-0.8c0.1-0.1,1.8,0.8,4.9,2.1
									c3.2,1.3,7.9,2.9,13.9,4.1c6,1.2,13.3,1.9,21.5,2.4c8.1,0.5,17.1,0.9,26.5,0.7c9.4-0.2,18.3-1.1,26.3-2.6
									c8-1.5,15-3.7,20.7-6.1C1372.5,1051.8,1378.4,1046.6,1378.7,1047z"/>
							</g>
						</g>
					</g>
				</g>
				<g>
					<g>
						<g>
							<g>
								<path class="st8" d="M1473.5,1487.7c0,0.1-0.7,0.2-2,0.4c-1.5,0.2-3.4,0.5-5.8,0.8c-2.5,0.4-5.6,0.8-9.2,1.1
									c-3.6,0.3-7.7,0.8-12.2,1c-9,0.6-19.8,0.9-31.8,0.8c-12-0.3-25.2-1.1-38.9-2.7c-13.7-1.7-26.7-4-38.4-6.6
									c-11.7-2.7-22.1-5.5-30.8-8.2c-4.3-1.3-8.2-2.7-11.6-3.9c-3.4-1.1-6.3-2.3-8.7-3.2c-2.2-0.9-4-1.6-5.4-2.2
									c-1.2-0.5-1.9-0.8-1.8-0.9c0-0.1,0.7,0.1,2,0.5c1.4,0.5,3.3,1.1,5.5,1.9c2.4,0.8,5.3,1.9,8.7,2.9c3.4,1.1,7.3,2.4,11.6,3.6
									c8.7,2.6,19.1,5.3,30.7,7.9c11.7,2.5,24.6,4.7,38.3,6.4c13.7,1.6,26.8,2.4,38.7,2.8c11.9,0.3,22.7,0.1,31.7-0.4
									c4.5-0.1,8.6-0.5,12.2-0.8c3.6-0.2,6.7-0.5,9.2-0.8c2.4-0.2,4.3-0.4,5.8-0.5C1472.8,1487.7,1473.5,1487.6,1473.5,1487.7z"/>
							</g>
						</g>
					</g>
				</g>
				<g>
					<g>
						<g>
							<g>
								<path class="st8" d="M1507.6,1242.7c-0.1,0-0.6-1.4-1.4-4c-0.8-2.6-1.9-6.3-3.1-11c-2.5-9.3-5.8-22.3-9-36.7
									c-3.2-14.4-5.7-27.5-7.4-37.1c-0.8-4.8-1.5-8.6-1.8-11.3c-0.4-2.7-0.5-4.2-0.4-4.2c0.1,0,0.5,1.4,1.1,4.1
									c0.6,3,1.4,6.7,2.4,11.2c2,9.5,4.7,22.5,7.9,36.9c3.2,14.4,6.3,27.4,8.5,36.8c1,4.4,1.9,8.2,2.6,11.1
									C1507.4,1241.2,1507.7,1242.7,1507.6,1242.7z"/>
							</g>
						</g>
					</g>
				</g>
			</g>
			<g>
				<g>
					<g class="st11">
						<g>
							<g>
								<g>
									<path d="M1288.3,1061.6c3.7,12.8,0.3,31.4,2.1,42.8c7.2,45.8,10.7,92.3,7.4,138.5c-0.2,2.5-0.4,5.1,0.5,7.5
										c0.8,2.2,2.3,4,3.7,5.8c9.3,12.3,11.7,28.7,9.8,44c-1.9,15.3-7.6,29.8-13.3,44.1c-0.3-12.3,0.3-30.8,1.3-43.1
										c0.2-2.5,1.4-0.9,1.5-3.3c0.4-14.8-2.1-28.5-12.5-39.1c-2.1-2.1-4.5-4-5.9-6.6c-1.3-2.4-1.7-5.2-2-7.9
										c-6.4-51.7-10.7-103.6-13.1-155.6c-0.1-3-0.2-6.2,1.7-8.5c1.5-1.8,3.8-2.6,5.7-3.9c4-2.6,6.5-7.3,10.8-9.3"/>
								</g>
							</g>
						</g>
					</g>
					<g>
						<g>
							<g>
								<path class="st7" d="M1164.4,1074.3c0,0-83.9,19.8-63.5,145.4c7.1,44.2,20.9,109.8,50,178.5c13.7,32.3,44.9,54.6,79.7,50
									c15.2-2,30.3,0.4,40.5-5.7c15.5-9.3,22.2-40.8,25.1-74.7c2-23.1,1.2-47.2,4.2-66.9c5-32.2-9.8-47.4-28.7-51.1l-74.1-14.8
									l-4.3,39.2L1164.4,1074.3z"/>
							</g>
						</g>
					</g>
					<g>
						<g>
							<g>
								<g>
									<path class="st8" d="M1223.5,1324.5c0.2-0.2,1.4,1.5,4.3,3.7c2.8,2.1,7.5,4.6,13.8,5.5c6.3,0.9,14-0.2,21.9-3.1
										c7.9-3,16.7-7,23.7-13.7c7-6.7,11.1-15.4,12.3-23.7c1.3-8.3-0.2-16-2.6-21.9c-5-11.9-12.3-16.6-11.8-17
										c0.1-0.1,1.9,0.9,4.6,3.4c2.7,2.5,6.3,6.7,9.1,12.8c2.8,6,4.7,14.2,3.4,23.1c-1.2,8.8-5.4,18.3-13,25.5
										c-7.6,7.1-16.6,11.1-24.8,14.1c-8.3,2.9-16.5,3.9-23.2,2.6c-6.7-1.2-11.5-4.1-14.3-6.7
										C1224.3,1326.5,1223.4,1324.5,1223.5,1324.5z"/>
								</g>
							</g>
						</g>
					</g>
					<g>
						<g>
							<g>
								<g>
									<path class="st8" d="M1146.5,1387.2c0.3-0.1,1.6,4,5,10.7c3.4,6.8,9.3,16.2,19.1,25.7c9.7,9.4,23.7,18.4,41,22.7
										c17.2,4.3,37.9,3.9,56.8-4c9.5-3.8,12.9-14.4,16.6-23.2c3.3-9.1,5.6-18.3,7.1-27.2c3-17.7,3.7-34.1,4.7-47.7
										c1-13.3,1.8-24.3,2.4-32.3c0.3-3.5,0.6-6.4,0.8-8.8c0.2-2,0.4-3.1,0.5-3.1c0.1,0,0.1,1.1,0.1,3.1c-0.1,2.3-0.1,5.3-0.2,8.8
										c-0.4,8.1-0.8,19-1.4,32.4c-0.7,13.7-1.2,30-4.1,48c-1.4,9-3.6,18.4-7,27.7c-1.8,4.7-3.7,9.3-6.3,13.9
										c-2.5,4.6-6.7,8.8-11.8,10.9c-19.8,8.3-41,8.5-58.7,3.9c-17.9-4.5-32.1-14.1-41.8-23.8c-9.8-9.8-15.5-19.6-18.7-26.7
										c-1.6-3.5-2.6-6.3-3.2-8.3C1146.6,1388.3,1146.4,1387.3,1146.5,1387.2z"/>
								</g>
							</g>
						</g>
					</g>
					<g>
						<g>
							<g>
								<g>
									<path class="st8" d="M1174.4,1332.7c-0.4,0-0.3-5.8,0.2-15.1c0.5-9.3,1.4-22.1,2.5-36.3c0.6-7.1,1.1-13.8,1.8-20
										c0.8-6.2,2.6-11.9,5.7-15.8c3.1-3.8,6.8-5.7,9.5-6.2c2.7-0.5,4.2,0,4.2,0.1c0,0.3-1.5,0.1-3.9,1c-2.3,0.8-5.6,2.7-8.1,6.4
										c-5.5,7.3-4.8,20.7-6.3,34.7c-1.2,14.2-2.4,27-3.4,36.2C1175.6,1327,1174.8,1332.8,1174.4,1332.7z"/>
								</g>
							</g>
						</g>
					</g>
					<g>
						<g>
							<path class="st8" d="M1200.6,1199.2c-0.7-4-1.9-9.7-3.4-16.8c-3-14.2-7.4-33.7-12.4-55.2c-2.5-10.7-4.7-21.1-8-30.2
								c-3.2-9.2-7.5-17-12.3-22.6l-1.6,1.3c4.4,5.6,8.4,13.2,11.3,22.2c3,9,5.1,19.3,7.7,30c5,21.5,9.7,41,13.3,55
								c1.8,7,3.3,12.7,4.4,16.6c1.1,3.9,1.8,6,2,6C1201.6,1205.4,1201.3,1203.2,1200.6,1199.2z"/>
						</g>
					</g>
					<g class="st11">
						<g>
							<g>
								<g>
									<path d="M1201.3,1226.3c-6.7-0.2-13.3,2.6-18.9,6.4c-12.2,8.2-21.1,21.1-25,35.3c-3.9,14.2-3,29.6,1.9,43.5
										c1.5,4.3,4.5,9.2,9.1,9.1c5.4-0.2,7.6-6.9,8.3-12.3c2.1-14.8,4.1-29.6,6.2-44.4c0.7-5,1.5-10.2,3.9-14.6
										c2.5-4.4,7.1-8,12.2-7.8c0.5-5.3,0.9-10.5,1.4-15.8"/>
								</g>
							</g>
						</g>
					</g>
				</g>
			</g>
			<g>
				<g>
					<g>
						<path class="st7" d="M1700.4,1293.9c0,0,15.7-23.5,17.3-58.2c1.6-34.7-8.2-63.9-8.2-63.9l-89.1-27.6l-0.6,29.7L1700.4,1293.9z
							"/>
					</g>
				</g>
				<g>
					<g>
						<path class="st7" d="M1619.9,1173.9l-152-109.9v7.6l16.4,171.1c0,0,125.6,56.3,158.9,64.6s57.2-13.4,57.2-13.4L1619.9,1173.9z
							"/>
					</g>
				</g>
				<g>
					<g>
						<g>
							<path class="st8" d="M1664.9,1257c-0.1,0.1-1.3-0.5-3.4-1.8c-2.1-1.3-5.1-3.5-8.4-6.5c-6.7-6-14.4-16-20.3-28.3
								c-5.9-12.4-9.3-24.3-11.6-32.9c-1.1-4.3-1.9-7.8-2.5-10.2c-0.5-2.4-0.7-3.8-0.6-3.8c0.3-0.1,1.9,5.2,4.6,13.7
								c2.7,8.5,6.3,20.2,12.1,32.3c5.8,12.1,13.1,22,19.4,28.2C1660.4,1253.8,1665.2,1256.6,1664.9,1257z"/>
						</g>
					</g>
				</g>
				<g>
					<g>
						<g>
							<path class="st8" d="M1709.1,1193.3c0,0.2-1.4,0.2-3.9,0.1c-2.5-0.1-6.2-0.5-10.7-1.2c-8.9-1.4-21.2-4.6-33.8-10.4
								c-12.6-5.9-22.9-13.2-29.7-19.1c-3.4-3-6.1-5.5-7.8-7.4c-1.7-1.9-2.6-2.9-2.5-3c0.3-0.3,4.2,3.7,11.2,9.2
								c7,5.6,17.3,12.5,29.7,18.3c12.4,5.7,24.3,9.1,33.1,10.9C1703.5,1192.4,1709.1,1192.9,1709.1,1193.3z"/>
						</g>
					</g>
				</g>
				<g>
					<g>
						<g>
							<path class="st8" d="M1626.6,1242.7c-0.2,0.1-2.4-3.3-4.7-9.4c-2.3-6.1-4.4-15-5.1-24.9c-0.7-9.9-0.3-18.9,0.2-25.4
								c0.5-6.5,1-10.4,1.3-10.4c0.3,0,0.3,4,0.2,10.5c-0.1,6.5-0.2,15.4,0.4,25.2c0.7,9.8,2.4,18.5,4.3,24.6
								C1625.2,1238.9,1626.9,1242.5,1626.6,1242.7z"/>
						</g>
					</g>
				</g>
			</g>
			<g>
				<g>
					<g>
						<path class="st8" d="M1465.6,1129.7c0.1,0,0.7,1.6,1.6,4.7c0.9,3,2.1,7.4,3.5,12.9c2.8,10.9,6.4,26.1,9.9,42.9
							c3.5,16.9,6.3,32.2,8.2,43.3c0.9,5.6,1.6,10.1,2,13.2c0.4,3.1,0.6,4.9,0.4,4.9c-0.1,0-0.6-1.7-1.3-4.8
							c-0.7-3.5-1.6-7.9-2.7-13.1c-2.3-11.5-5.4-26.5-8.8-43.1c-3.6-16.6-6.8-31.5-9.3-43c-1.1-5.2-2-9.5-2.8-13.1
							C1465.8,1131.4,1465.5,1129.7,1465.6,1129.7z"/>
					</g>
				</g>
			</g>
		</g>
		<g>
			<g>
				<g>
					<g>
						<path class="st9" d="M1196.8,1250.5l18.6-206l61.7,24.4l7.9,209.6c0,0-19.8,29.9-53.1,17.6
							C1198.6,1283.8,1196.8,1250.5,1196.8,1250.5z"/>
					</g>
				</g>
			</g>
			<g>
				<g>
					<g>
						<polygon class="st8" points="1208.8,864 1324.1,965.5 1303.3,1041.3 1294.9,1043.8 1194,940.5 1200.4,866.5 						"/>
					</g>
				</g>
			</g>
			<g>
				<g>
					<g>
						<polygon class="st5" points="1200.4,866.5 1315.8,968 1294.9,1043.8 1185.6,943 						"/>
					</g>
				</g>
			</g>
			<g>
				<g>
					<g>
						<path class="st9" d="M1279.7,1075.5c0,0,11.9-12.4,11.6-28.4c-0.3-15.5-4.5-52.9-4.5-52.9s20-42.2,19.5-47.8s-1.4-5.5-8.6-3.3
							c-7.2,2.3-29.5,40.7-29.5,40.7l-7.3-28.5c0,0,18.6-29.9,20.1-34.1c1.5-4.2,3.9-7.6-0.7-8s-39.6,33.4-39.6,33.4l2.8,31.2
							c0,0-0.7,2.5-5.7-1.9c-5-4.4-3.8-41.7-3.8-41.7s11.9-22.1,11.6-25.3c-0.3-3.2,2.2-6.7-0.2-12.1c-2.3-5.4-9.2,0.8-9.2,0.8
							l-23.2,30.4l-8.3-30c0,0,0.3-6.4-8-6.5l3.2,97.4l21.1,75L1279.7,1075.5z"/>
					</g>
				</g>
			</g>
			<g>
				<g>
					<g>
						<g>
							<path class="st10" d="M1285,1278.4c0,0-0.2-1.2-0.3-3.7c-0.1-2.6-0.3-6.1-0.6-10.7c-0.4-9.6-1-23.4-1.8-40.9
								c-1.4-35.5-3.4-86.1-5.9-147.4l0-0.6l0.5-0.4c4.7-4,8.8-9.6,11.2-15.8c2.5-6.2,2.8-13.1,2.3-20.3
								c-0.7-14.3-2.5-29.1-4.5-44.3l-0.1-0.4l0.2-0.4c3.8-8,7.5-16.3,11.2-24.8c1.8-4.2,3.6-8.5,5.3-12.9c0.8-2.2,1.6-4.4,2.3-6.6
								l0.4-1.6c0.1-0.5,0.1-0.8,0.1-1.4c-0.1-1.1-0.3-2.3-0.6-2.9c0.2-0.7-3,0-5,0.7c-1.3,0.4-1.8,0.7-2.7,1.4
								c-0.8,0.7-1.7,1.5-2.5,2.4c-3.2,3.5-6,7.5-8.8,11.5c-5.5,8.1-10.8,16.6-15.9,25.2l-1.8,3.1l-0.9-3.5
								c-2.3-9-4.8-18.7-7.3-28.5l-0.2-0.6l0.3-0.5c3-4.9,6.2-10.1,9.4-15.4c3.6-6.1,7.5-12.3,10.4-18.3c0.6-1.7,1.4-3.4,1.8-4.8
								c0.2-0.8,0.1-1.1,0.1-1c0-0.1-0.9-0.4-1.4-0.3c-0.2,0-1,0.4-1.7,0.8c-0.7,0.4-1.4,0.9-2.1,1.4c-1.4,1-2.8,2-4.1,3.1
								c-10.7,8.8-20.7,18.3-30.5,27.6l0.4-1.2c0.9,10.6,1.9,21,2.8,31.2l0,0.3l-0.1,0.2c-0.5,1.5-1.9,1.8-2.8,1.7
								c-0.9-0.1-1.4-0.4-2-0.6c-1.1-0.6-2-1.3-2.8-2c-2.1-1.9-2.5-4.3-3-6.4c-0.9-4.2-1.2-8.4-1.4-12.5c-0.4-8.2-0.4-16.3-0.2-24.3
								l0-0.3l0.2-0.3c4.1-7.8,8.3-15.5,11.2-23.2c0.1-0.5,0.3-1,0.3-1.2c0-0.3,0-1.2,0.1-1.7c0.1-1.2,0.4-2.2,0.6-3.2
								c0.4-2,0.4-3.8-0.2-5.6c-0.6-2-1.3-2.9-2.8-2.6c-1.6,0.3-3.3,1.5-4.7,2.6l0.2-0.2c-8.1,10.5-15.8,20.6-23.2,30.3l-1.5,2
								l-0.6-2.4c-2.8-10.4-5.6-20.4-8.2-30.1l0-0.1l0-0.2c0-1.6-0.8-3.2-2.1-4.1c-1.3-0.9-3-1.2-4.7-1.2l1.1-1.1
								c1.1,39.6,2.1,72.5,2.8,97.5l0-0.2c4.6,17.9,8.2,31.8,10.7,41.3c1.1,4.6,2,8.1,2.7,10.7c0.6,2.4,0.8,3.7,0.8,3.7
								s-0.4-1.2-1.1-3.6c-0.7-2.5-1.7-6-3-10.6c-2.6-9.5-6.4-23.3-11.3-41.1l0-0.1l0-0.1c-0.9-24.9-2.1-57.8-3.6-97.4l0-1.2l1.2,0
								c2,0,4.1,0.3,6,1.6c1.9,1.3,3.1,3.5,3.1,6l0-0.4c2.7,9.6,5.4,19.6,8.3,30l-2.2-0.4c7.4-9.7,15.1-19.8,23.1-30.4l0.1-0.1
								l0.1-0.1c1.7-1.4,3.5-2.7,6-3.3c1.2-0.3,3,0,4,1.1c1.1,1.1,1.4,2.3,1.8,3.3c0.7,2.2,0.7,4.7,0.3,6.9c-0.2,1.1-0.4,2.1-0.5,3
								c-0.1,0.5,0,0.7,0,1.4c0,0.9-0.2,1.4-0.4,2c-3.1,8.3-7.2,15.8-11.3,23.8l0.2-0.6c-0.2,7.9-0.2,15.9,0.2,24
								c0.2,4,0.5,8.1,1.4,12c0.5,1.9,0.9,3.8,2.1,4.8c0.7,0.6,1.5,1.2,2.3,1.6c0.4,0.2,0.8,0.3,0.9,0.3l0.1,0c0,0,0.1,0.3,0.1,0.3
								l0,0.1l0,0l0.1,0l0.2,0.1l0,0c0.7,0.3-0.9-0.3-0.7-0.3l0,0.1l0,0.5c-0.9-10.3-1.9-20.7-2.8-31.2l-0.1-0.7l0.5-0.5
								c9.8-9.4,19.8-18.9,30.6-27.8c1.4-1.1,2.8-2.2,4.2-3.2c0.8-0.5,1.4-1,2.3-1.5c0.9-0.4,1.5-1,3.1-1.3c1.2,0,2.2,0,3.5,1.1
								c1.3,1.3,1,3.1,0.7,3.9c-0.6,2-1.3,3.4-1.9,5.1c-3.3,6.8-7,12.5-10.7,18.8c-3.2,5.3-6.5,10.6-9.4,15.4l0.2-1.1
								c2.5,9.8,5,19.5,7.3,28.5l-2.7-0.4c5.1-8.7,10.4-17.2,16-25.4c2.8-4.1,5.7-8.1,9.1-11.8c0.8-0.9,1.7-1.8,2.8-2.7
								c0.9-0.9,2.7-1.6,3.7-1.9c1.2-0.4,2.3-0.7,3.7-1c0.6-0.1,1.4-0.2,2.3-0.1c0.9,0.1,2.1,0.9,2.4,1.7c0.7,1.6,0.8,2.8,0.9,4
								c0,0.7-0.1,1.5-0.2,2.2l-0.5,1.8c-0.7,2.4-1.5,4.6-2.4,6.8c-1.7,4.4-3.5,8.7-5.4,13c-3.7,8.5-7.5,16.8-11.3,24.8l0.1-0.8
								c2,15.3,3.7,30.1,4.4,44.5c0.4,7.1,0.2,14.7-2.6,21.3c-2.6,6.6-6.8,12.3-12,16.8l0.5-1c2,61.3,3.7,112,4.8,147.5
								c0.5,17.6,0.9,31.4,1.1,40.9c0.1,4.6,0.2,8.2,0.2,10.7C1285.1,1277.2,1285,1278.4,1285,1278.4z"/>
						</g>
					</g>
				</g>
			</g>
			<g>
				<g>
					<g>
						<g>
							<path class="st10" d="M1217.9,981c-0.8,0.1-2.4-11.8-3.6-26.6c-1.2-14.8-1.4-26.8-0.6-26.9c0.8,0,2.4,11.9,3.6,26.6
								C1218.4,968.9,1218.7,980.9,1217.9,981z"/>
						</g>
					</g>
				</g>
			</g>
		</g>
	</g>
	<g>
		<g>
			<g>
				<g>
					<path class="st3" d="M1061.8,1015.5l-65.9-133.2c36.6-79.4,52.4-169.6,41.2-262.7c-32.3-267.9-275.7-458.9-543.6-426.6
						C225.5,225.4,34.5,468.8,66.9,736.7c32.3,267.9,275.7,458.9,543.6,426.6c111.9-13.5,210.2-63.9,284.6-137.4l-0.1,0.2
						L1061.8,1015.5z"/>
				</g>
			</g>
			<g>
				<g>
					<g>
						<path class="st8" d="M1061.8,1015.5c-3.4,0.2-58.4,3.9-166.8,11l-0.9,0.1l0.5-0.8c0-0.1,0.1-0.2,0.1-0.2l0.8,0.6
							c-11.5,11.1-24,22.9-38.4,34.1c-7,5.9-14.7,11.3-22.4,17c-8,5.4-16.1,11.2-24.8,16.4c-34.5,21.7-75.5,40.9-122.3,54.5
							c-46.7,13.7-99.4,20.8-155.2,18.9c-55.8-2-114.7-14.2-171.9-38.6c-57.2-24.3-112.5-60.9-159.8-109.5
							c-47.4-48.3-86-109-110.2-177.2c-24.4-68.2-33.7-144.1-25-219.9c0.8-9.5,2.6-18.9,4-28.4c1.6-9.5,3.8-18.8,5.7-28.3
							c4.7-18.7,9.9-37.4,16.9-55.6c6.5-18.4,14.7-36.2,23.4-53.8c9.2-17.4,18.9-34.6,30.2-51c11.1-17,23.8-32.8,36.8-48.1
							l10.1-11.2l5.1-5.6l5.3-5.3l10.6-10.6l11-10.1c29.5-26.8,62.2-49.4,96.5-67.8c8.5-4.8,17.4-8.8,26.1-13
							c8.8-4.1,17.8-7.6,26.6-11.4c9.1-3.2,18-6.8,27.1-9.6c9.2-2.7,18.2-5.8,27.5-7.9c36.8-9.5,74.2-14.6,111.1-15.7
							c73.9-2.1,145.6,13.3,208.6,40.9c63.2,27.5,117.6,67.6,160.7,113.6c43.2,46,75.3,97.9,96.3,150.2
							c10.6,26.1,18.6,52.4,24.4,78.1c1.3,6.5,2.5,12.9,3.8,19.2c1.3,6.3,2,12.7,3,19c0.5,3.1,0.9,6.3,1.4,9.4
							c0.3,3.1,0.7,6.2,1,9.3c0.7,6.2,1.2,12.3,1.5,18.5c3.2,48.8-1.3,93.9-9.8,133.5c-4.3,19.8-9.5,38.3-15.3,55.3
							c-5.9,17-12.3,32.6-18.8,46.9l0-0.4C1038.7,968.6,1060.4,1012.6,1061.8,1015.5c-1.4-2.9-23.3-46.8-66.3-133l-0.1-0.2l0.1-0.2
							c6.4-14.2,12.8-29.8,18.6-46.8c5.8-17,10.9-35.5,15.1-55.2c8.4-39.5,12.8-84.5,9.6-133.2c-0.4-6.1-0.8-12.2-1.6-18.4
							c-0.3-3.1-0.7-6.2-1-9.3c-0.5-3.1-0.9-6.2-1.4-9.4c-1-6.3-1.7-12.6-3-19c-1.3-6.3-2.5-12.7-3.8-19.2
							c-5.9-25.6-13.8-51.7-24.4-77.8c-21-52.1-53-103.8-96.1-149.6c-43-45.8-97.2-85.6-160.2-113c-62.8-27.4-134.2-42.8-207.7-40.6
							c-36.7,1.1-73.9,6.2-110.6,15.7c-9.2,2.1-18.2,5.2-27.3,7.9c-9.1,2.8-18,6.4-27,9.5c-8.8,3.8-17.8,7.2-26.5,11.3
							c-8.7,4.2-17.5,8.1-26,13c-34.2,18.3-66.7,40.8-96.1,67.5l-11,10l-10.5,10.6l-5.3,5.3l-5,5.5l-10.1,11.1
							c-12.9,15.3-25.5,31-36.6,47.9c-11.2,16.3-20.9,33.5-30,50.8c-8.6,17.6-16.9,35.3-23.3,53.6c-6.9,18.1-12.1,36.8-16.8,55.4
							c-1.9,9.4-4.1,18.7-5.7,28.1c-1.4,9.4-3.2,18.8-4,28.3c-8.6,75.5,0.6,151.1,24.9,219c24.1,68,62.5,128.4,109.6,176.5
							c47,48.3,102.1,84.9,159.1,109.1c57,24.3,115.7,36.5,171.3,38.6c55.6,1.9,108.1-5,154.7-18.6c46.6-13.5,87.6-32.6,122-54.2
							c8.7-5.2,16.8-10.9,24.8-16.3c7.7-5.8,15.4-11.1,22.4-17c14.3-11.2,26.8-22.9,38.4-33.9l2.5-2.4l-1.8,3c0,0.1-0.1,0.2-0.1,0.2
							l-0.4-0.7C1003.4,1019.1,1058.4,1015.8,1061.8,1015.5z"/>
					</g>
				</g>
			</g>
		</g>
	</g>
	<g>
		<g>
			<path class="st5" d="M300.7,1098.6l503.6-0.8c0,0-120.4,79.8-265,70.4C413.6,1159.9,300.7,1098.6,300.7,1098.6z"/>
		</g>
	</g>
	<g>
		<g>
			<g>
				<g>
					<path class="st3" d="M521.2,760.7l28.7,105.1l104.9-141.7l-24.7,371.5H480.3l-43.7,2.1c0,0,6.5-58.6,9.1-91.6
						c0.5-6.3,2.7-43.1,13.3-77.8C481.4,855.3,521.2,760.7,521.2,760.7z"/>
				</g>
			</g>
			<g>
				<g>
					<g>
						<path class="st8" d="M555,925.1c0.4,0.5-16.6,14.1-37.8,30.5c-21.2,16.3-38.8,29.2-39.1,28.7c-0.4-0.5,16.5-14.1,37.8-30.5
							C537.1,937.5,554.6,924.6,555,925.1z"/>
					</g>
				</g>
			</g>
		</g>
		<g>
			<g>
				<g>
					<polygon class="st7" points="815.8,709.5 734.2,670.2 702.2,632.2 656.9,679.3 536.9,1094.6 742.7,1094.6 769.1,1023.3 
						815.8,748.1 					"/>
				</g>
			</g>
			<g>
				<g>
					<path class="st7" d="M448.6,1100.6l-5.5-88.1l248.6-42.1c0,0,42.5-205.1,68.6-238.8c24.1-31,55.6-20.3,55.6-20.3
						s28.4,19.4,21.6,93.8c-3.6,39-17.8,174-23,222.8c-1.2,11.7-5.1,22.9-11.3,32.9l0,0c-14.2,22.9-39.2,36.8-66.2,36.8
						L448.6,1100.6z"/>
				</g>
			</g>
			<g>
				<g>
					<g>
						<path class="st8" d="M732.3,1021.5c-0.4,0-0.7-3.9-2.5-9.9c-1.8-6-5.3-14.1-11.5-21.4c-6.2-7.3-13.5-12.2-19.2-14.9
							c-5.6-2.8-9.5-3.8-9.4-4.2c0-0.2,4.1,0.2,10,2.8c5.9,2.5,13.8,7.3,20.2,14.9c6.4,7.6,9.9,16.1,11.3,22.4
							C732.8,1017.5,732.6,1021.5,732.3,1021.5z"/>
					</g>
				</g>
			</g>
			<g class="st12">
				<g>
					<g>
						<path d="M727.8,676.2c-2.4,25.9-7.3,51.6-14.8,76.6c-6.2-1.8-12.5-3.7-18.7-5.5c7.7,11,8.6,25.6,5.6,38.6
							c-3,13.1-9.6,25-16.2,36.7c-30.9,55.6-61.9,111.1-92.8,166.7L684.4,777l-2.4-39.3l18-3.8L727.8,676.2z"/>
					</g>
				</g>
			</g>
			<g class="st12">
				<g>
					<g>
						<path d="M690.9,967.9c11.3-0.7,22.8,2.7,32,9.3s16,16.5,18.9,27.5c0.7,2.6,1.2,5.5,0.1,8c-1,2.5-4,4.4-6.5,3.3
							c-1.9-0.8-2.8-2.9-3.6-4.8c-8.1-18.5-24.1-33.5-43.2-40.3"/>
					</g>
				</g>
			</g>
			<g>
				<g>
					<g>
						<path class="st8" d="M591.6,987.3c-0.1,0,0.4-1.2,1.3-3.4c1-2.4,2.3-5.6,4-9.6c3.7-8.5,8.8-20.4,15.1-35.1
							c13-29.8,30.9-70.5,50.7-115.6c7.2-16.4,14.2-32.2,20.8-47l-0.1,0.5c-0.8-13.9-1.6-27.1-2.3-39.3l0-0.8l0.8-0.2
							c6.3-1.3,12.3-2.6,18-3.8l-0.6,0.5c9.3-18.9,17-34.4,22.4-45.4c2.6-5.2,4.7-9.4,6.3-12.4c0.7-1.3,1.2-2.4,1.7-3.2
							c0.4-0.7,0.6-1.1,0.7-1.1c0,0-0.1,0.4-0.4,1.2c-0.4,0.9-0.9,2-1.5,3.3c-1.4,3.1-3.4,7.3-5.9,12.6
							c-5.3,11.1-12.7,26.7-21.7,45.7l-0.2,0.4l-0.4,0.1c-5.7,1.2-11.7,2.5-18,3.9l0.7-1c0.8,12.1,1.6,25.3,2.5,39.2l0,0.3l-0.1,0.2
							c-6.5,14.8-13.5,30.7-20.7,47.1c-20,45-38.1,85.7-51.3,115.3c-6.6,14.6-12,26.4-15.8,34.9c-1.8,4-3.3,7.1-4.4,9.4
							C592.2,986.2,591.7,987.3,591.6,987.3z"/>
					</g>
				</g>
			</g>
			<g>
				<g>
					<g>
						<path class="st8" d="M448.5,1097.7c0,0-0.1-0.5-0.2-1.5c-0.1-1.1-0.2-2.5-0.4-4.3c-0.3-3.9-0.7-9.5-1.2-16.6
							c-1-14.5-2.3-35.3-4-61l0-0.7l0.7-0.1c46.7-8.6,110.1-20.2,179.8-33c23.1-4.2,45.4-8.2,66.3-12l-0.8,0.8
							c14.6-55.4,27.2-103.4,36.3-137.8c4.6-17,8.2-30.6,10.8-40.1c1.3-4.6,2.3-8.1,3-10.7c0.3-1.1,0.6-2,0.8-2.8
							c0.2-0.6,0.3-0.9,0.3-0.9c0,0,0,0.3-0.2,1c-0.2,0.7-0.4,1.7-0.6,2.8c-0.6,2.6-1.5,6.2-2.6,10.8c-2.4,9.5-5.9,23.2-10.2,40.3
							c-8.9,34.4-21.3,82.5-35.5,138l-0.2,0.7l-0.7,0.1c-20.9,3.8-43.2,7.9-66.3,12.1c-69.8,12.6-133.2,24-179.9,32.4l0.6-0.8
							c1.4,25.6,2.5,46.5,3.3,61c0.3,7.1,0.6,12.7,0.8,16.6c0.1,1.8,0.1,3.2,0.1,4.3C448.5,1097.2,448.5,1097.7,448.5,1097.7z"/>
					</g>
				</g>
			</g>
		</g>
		<g>
			<g>
				<g>
					<path class="st8" d="M803.2,702.6c0.1,0.4-4.2,1-10.5,3.4c-6.3,2.3-14.7,6.8-22.3,13.9c-7.5,7.1-12.5,15.1-15.3,21.3
						c-2.8,6.2-3.7,10.4-4.1,10.3c-0.1,0,0-1.1,0.3-3c0.3-1.9,1.1-4.6,2.3-7.9c2.4-6.5,7.4-15,15.2-22.3
						c7.8-7.3,16.6-11.7,23.3-13.7c3.3-1,6.1-1.6,8-1.8C802.1,702.5,803.2,702.5,803.2,702.6z"/>
				</g>
			</g>
		</g>
		<g>
			<g>
				<g>
					<g>
						<g>
							<g>
								<path class="st13" d="M333.3,609.2c7.4-13.6,4.1-68.4,15.5-66.5c14.5,2.5,1.1,60.1,0.2,65.4c-0.9,5.1,6.7,6.6,7.2,1.8
									c0.8-6.9,9.3-73.9,23.5-70.2c7.9,2.1,4.3,16.5,4.3,16.5s-12.3,65-5.5,66.6c6.9,1.6,12-35.9,15-49.6
									c2.9-13.1,11.4-18.7,14.6-11.8c4.7,10.1-4.4,42.8-7.1,56c-2.7,13.1-9.5,51.2,9,36.3c18.4-14.9,38.1-19.5,44.2-17.1
									c6.1,2.4,4.8,11.8-2.3,13.6c-5.7,1.5-14.6,6.9-21,11.3c-5.3,3.6-9.6,8.4-13.9,13.1c-3.1,3.3-8.6,10.2-13.2,20.5
									c-5.3,12-15.6,21.1-28,25.1l0,0L365,771.4l-69.7-14.9l15.5-54.2c5.7-35.6,2.5-83.4,2.6-105.2c0.1-34.7,4.6-35,8.6-34.1
									C330.8,565,326.1,622.4,333.3,609.2z"/>
							</g>
						</g>
					</g>
				</g>
			</g>
			<g>
				<g>
					<g>
						<g>
							<path class="st14" d="M331.3,655.7c-0.1,0.3,3.9,1,9.3,4.3c5.4,3.2,12.1,9.5,15.7,18.6c1,2.4,1.6,4.9,2.1,7.3l0.2,1.2l1-0.6
								c6.7-4,13.3-5.9,18.1-6.8c4.8-0.9,7.7-1,7.7-1.3c0-0.2-3-0.5-7.9,0.2c-4.9,0.6-11.7,2.4-18.7,6.4l1.2,0.6
								c-0.5-2.5-1.1-5.2-2.2-7.7c-1.9-4.7-4.7-8.8-7.7-12c-3-3.2-6.2-5.5-9.1-7c-2.8-1.6-5.4-2.3-7.1-2.9
								C332.3,655.8,331.3,655.6,331.3,655.7z"/>
						</g>
					</g>
				</g>
			</g>
			<g>
				<g>
					<g>
						<g>
							<path class="st14" d="M322,704.5c-0.2,0.4,6.6,4.9,16.3,7.9c9.6,3,17.9,3.2,17.9,2.8c0.1-0.5-8-1.4-17.4-4.4
								C329.4,707.8,322.3,704.1,322,704.5z"/>
						</g>
					</g>
				</g>
			</g>
		</g>
		<g>
			<g>
				<polygon class="st13" points="574.4,654.1 521.2,760.7 549.9,865.8 626.4,784.9 701.8,644.9 				"/>
			</g>
		</g>
		<g>
			<g>
				<g>
					<path class="st7" d="M524.3,664.1c0,0-75.7,26.9-75.7,31.9c0,0,0,0,0,0c-13.4,10.5-57.9,118.2-72.1,138.5L336,894.2l0,0l0,0
						l34-132.6l-74.7-22c0,0-63.8,154.2-71.6,188.5c-7.8,34.3,1.2,61.5,1.2,61.5l0.4-0.4c5.4,16.6,15.9,29.9,28,37.7
						c31.7,20.3,61.3,24.1,91.5,1.8c17.2-12.7,36.8-28,54.7-42.3l4.7,111.3h41.3c0-6.3-1.3-82.5-1.3-82.5s8.8-28.8,12.5-55
						C460.5,934,522,761.6,522,761.6l47.7-91.9l1.1-34L524.3,664.1z"/>
				</g>
			</g>
			<g>
				<g>
					<g>
						<path class="st8" d="M403.4,1096.9c-0.1,0-0.2-1.2-0.4-3.5c-0.2-2.5-0.4-5.8-0.6-10c-0.5-8.9-1.1-21.4-1.9-36.9
							c-1.4-31.5-3.4-74.8-5.6-123.4l0-0.1l0-0.1c0.9-4.6,1.8-9.5,2.8-14.5c10-51.1,19.1-97.3,25.7-131c3.4-16.6,6.1-30.1,8-39.6
							c1-4.5,1.7-8.1,2.3-10.8c0.3-1.1,0.5-2,0.6-2.8c0.2-0.6,0.3-0.9,0.3-0.9c0,0,0,0.3-0.1,1c-0.1,0.8-0.3,1.7-0.4,2.8
							c-0.5,2.7-1.1,6.3-1.9,10.8c-1.8,9.6-4.3,23.1-7.3,39.8c-6.4,33.7-15.3,80-25,131.1c-1,5-1.9,9.9-2.8,14.5l0-0.3
							c1.9,48.6,3.6,92,4.9,123.5c0.5,15.5,0.9,28.1,1.2,36.9c0.1,4.2,0.2,7.5,0.2,10C403.5,1095.7,403.5,1096.9,403.4,1096.9z"/>
					</g>
				</g>
			</g>
			<g>
				<g>
					<g>
						<path class="st8" d="M445.7,998c-0.1,0,0.1-1.2,0.4-3.5c0.4-2.5,0.9-5.8,1.5-9.9c1.4-8.8,3.5-21.2,5.9-36.5
							c5.3-31,12.5-73.4,20.4-120.2c5.3-30.7,10.4-59.4,14.6-83.9l0-0.1l0-0.1c10.5-23.8,19.3-43.7,25.5-57.9
							c3.1-6.8,5.5-12.2,7.3-16.2c0.8-1.7,1.5-3.1,2-4.2c0.5-1,0.7-1.4,0.8-1.4s-0.1,0.5-0.5,1.5c-0.5,1.1-1,2.6-1.7,4.3
							c-1.7,4-3.9,9.5-6.8,16.4c-6.1,14.3-14.6,34.3-24.8,58.2l0.1-0.2c-4.2,24.5-9.1,53.3-14.4,84c-8.2,46.8-15.6,89.2-21.1,120.1
							c-2.8,15.2-5,27.6-6.6,36.4c-0.8,4.1-1.4,7.4-1.9,9.9C446.1,996.9,445.8,998.1,445.7,998z"/>
					</g>
				</g>
			</g>
			<g>
				<g>
					<g>
						<path class="st8" d="M300.7,985.7c-0.3-0.2,3-4.9,7.5-12.7c4.6-7.9,10.2-19.1,15.2-32.1c5-13,8.3-25.1,10.4-34
							c2.1-8.9,3.1-14.4,3.4-14.4c0.1,0,0.1,1.4-0.2,4c-0.3,2.6-0.8,6.2-1.7,10.7c-1.7,9-4.9,21.3-9.9,34.5
							c-5,13.1-11,24.4-15.9,32.1c-2.5,3.9-4.6,6.9-6.2,8.9C301.7,984.7,300.8,985.8,300.7,985.7z"/>
					</g>
				</g>
			</g>
			<g class="st12">
				<g>
					<g>
						<path d="M306.4,979.5c-2.8,0.2-4.4,3.9-3.2,6.5c1.2,2.6,4.4,3.7,7.2,3.3s5.3-2.1,7.4-4c6.4-5.9,10.2-14.1,12.9-22.5
							c6.4-20.3,6.7-41.9,7-63.1c-5.9,27.7-16.5,54.3-31,78.6"/>
					</g>
				</g>
			</g>
			<g class="st12">
				<g>
					<g>
						<path d="M398.3,989.4c-12.8-20.4-16.9-44.1-15.3-68.1c2.3-32.4,18-62,29.7-92.2c-6.8,31.8-10.6,63.4-16.7,93.9
							c0,0,3.3,45.4,3.3,65.6"/>
					</g>
				</g>
			</g>
			<g class="st12">
				<g>
					<g>
						<path d="M450.6,969.1c3.3-48.4,6.6-97,15.2-144.8c8.6-47.8,25.2-97.3,48.8-139.7c-6.1,19.2-24.9,59.5-24.9,59.5
							s-27.1,143.1-38.9,215.1"/>
					</g>
				</g>
			</g>
		</g>
		<g>
			<g>
				<g>
					<g>
						<path class="st13" d="M444.4,1024.8l6.8,75.1l-35.5-0.1c-0.9,0-15.4-0.2-31.4-0.5c-11.7,1.5-30.4,1.6-36,1
							c-1-0.1-1.6-0.2-1.7-0.4c0,0-2.7-0.3-5.5-1.3c-0.1,0-0.2,0-0.2,0l0-0.1c-3.2-1.2-6.5-3.2-6-6.8c1.6-10.8,8-11.6,8-11.6
							s1.2-0.1,3.2-0.2l0.3-0.9c-4.9,0-9-0.1-11.1-0.4c-1-0.1-1.6-0.2-1.7-0.4c0,0-12.6-1.5-11.6-8.1c1.6-10.8,8-11.6,8-11.6
							s4.3-0.3,10.3-0.7c-5,0-9.3-0.1-11.5-0.3c-1-0.1-1.6-0.2-1.7-0.4c0,0-12.6-1.5-11.6-8.1c1.6-10.8,8-11.6,8-11.6
							s3.5-0.2,8.6-0.6c-4.1,0-7.4-0.1-9.3-0.3c-1-0.1-1.6-0.2-1.7-0.4c0,0-12.6-1.5-11.6-8.1c1.6-10.8,8-11.6,8-11.6
							s19.8-1.4,33.4-2c0,0,15.4-13.9,21.5-13.3c9.1,1,61.8,20.4,61.8,20.4L444.4,1024.8z"/>
					</g>
				</g>
			</g>
			<g>
				<g>
					<g>
						<g>
							<g>
								<g>
									<g>
										<g>
											<g>
												<g>
													<g>
														<path class="st14" d="M377.9,1077.9c-0.1,0.6-7.9,1.4-17.6,1.7c-9.7,0.3-17.4,0.1-17.4-0.6c0.1-0.6,7.9-1.4,17.6-1.7
															C370.2,1077,378,1077.3,377.9,1077.9z"/>
													</g>
												</g>
											</g>
										</g>
									</g>
								</g>
							</g>
							<g>
								<g>
									<g>
										<g>
											<g>
												<g>
													<g>
														<path class="st14" d="M378,1056.6c0,0.6-11.2,1.5-25,2c-13.8,0.5-25.1,0.4-25.1-0.2c0-0.6,11.2-1.5,25-2
															C366.8,1055.8,378,1056,378,1056.6z"/>
													</g>
												</g>
											</g>
										</g>
									</g>
								</g>
							</g>
							<g class="st15">
								<g>
									<g>
										<g>
											<g>
												<g>
													<g>
														<path class="st14" d="M376.2,1034.9c0,0.6-11.2,1.5-25,2c-13.8,0.5-25,0.4-25.1-0.2c0-0.6,11.2-1.5,25-2
															C365,1034.2,376.2,1034.3,376.2,1034.9z"/>
													</g>
												</g>
											</g>
										</g>
									</g>
								</g>
							</g>
						</g>
					</g>
				</g>
			</g>
			<g>
				<g>
					<g>
						<g>
							<path class="st14" d="M345.2,1014.6c0,0.3,3,0.4,8,0.6c5.6,0.2,12.1,0.4,19.2,0.6c7.1,0.3,13.6,0.5,19.2,0.7
								c4.9,0.2,8,0.2,8-0.1c0-0.2-3-0.7-7.9-1.2c-4.9-0.5-11.7-1-19.2-1.2c-7.5-0.3-14.3-0.2-19.3-0.1
								C348.2,1014.1,345.2,1014.4,345.2,1014.6z"/>
						</g>
					</g>
				</g>
			</g>
		</g>
		<g>
			<g>
				<g>
					<path class="st8" d="M736.6,402.9c8.9-21.7,37.1-31.5,59.1-23.5c22,8.1,36.7,30.6,39.3,53.9c1.3,11.4-0.1,23.7-6.7,33.1
						c-6.9,10-18.8,15.6-30.8,17.3c-21.4,3-44.2-6.3-57.3-23.6c-13.1-17.2-16.1-41.6-7.5-61.5"/>
				</g>
			</g>
			<g>
				<g>
					<g>
						<path class="st5" d="M826.1,405.8c0.1,0.1-0.4,1.1-1.6,2.9c-1.2,1.8-3,4.2-5.7,6.9c-5.2,5.5-13.7,12-24.8,15.8
							c-11,3.8-21.8,3.9-29.2,2.8c-3.7-0.5-6.7-1.3-8.7-2c-2-0.7-3.1-1.2-3-1.3c0.1-0.4,4.5,1,11.9,1.7c7.3,0.7,17.7,0.3,28.3-3.3
							c10.6-3.6,19.1-9.7,24.4-14.8C823.2,409.4,825.8,405.5,826.1,405.8z"/>
					</g>
				</g>
			</g>
			<g>
				<g>
					<g>
						<path class="st5" d="M835.5,430.5c0.1,0.1-0.8,0.9-2.4,2.3c-1.6,1.4-4.1,3.2-7.3,5.3c-6.4,4.1-15.9,9.1-27.4,11.5
							c-5.7,1.2-11.4,1.5-16.4,1.3c-5.1-0.3-9.6-1.1-13.3-2.2c-3.7-1.1-6.6-2.2-8.5-3.2c-1.9-0.9-2.9-1.5-2.9-1.7
							c0.2-0.4,4.4,1.6,11.7,3.3c3.6,0.8,8,1.5,13,1.7c4.9,0.1,10.3-0.3,15.9-1.4c11.2-2.3,20.6-7,27.1-10.7
							C831.5,432.9,835.3,430.2,835.5,430.5z"/>
					</g>
				</g>
			</g>
			<g>
				<g>
					<path class="st8" d="M509.2,467.6c-52.1-114.5,71.8-172,139.3-152.9c63.5,17.9,90.6,49.5,101,92c10.5,42.5,10,88.5-6.7,129
						c-8.2,20-23,40.2-44.4,42.7"/>
				</g>
			</g>
			<g>
				<g>
					<path class="st13" d="M571.4,750.6c-0.9-54.7-1.5-129.8-1.6-129.5c0,0-47-7.8-56.8-69.2c-4.8-30.5-3.3-80.5-0.7-121.4
						c2.3-36.8,26.7-82,63.4-78.1l114.5,28.9c11.1,1.2,19.5,10.7,19.3,21.9l0,0l-7.5,236.9"/>
				</g>
			</g>
			<g>
				<g>
					<g>
						<g>
							<g>
								<g>
									<g>
										<path class="st8" d="M540.4,474c-0.2,4.1,3.1,7.7,7.4,8c4.3,0.3,7.9-2.8,8.1-7c0.2-4.1-3.1-7.7-7.4-8
											C544.3,466.8,540.6,469.9,540.4,474z"/>
									</g>
								</g>
							</g>
						</g>
					</g>
				</g>
			</g>
			<g>
				<g>
					<g>
						<g>
							<g>
								<g>
									<g>
										<path class="st8" d="M625.3,474c-0.2,4.1,3.1,7.7,7.4,8c4.3,0.3,7.9-2.8,8.1-7c0.2-4.1-3.1-7.7-7.4-8
											C629.1,466.8,625.5,469.9,625.3,474z"/>
									</g>
								</g>
							</g>
						</g>
					</g>
				</g>
			</g>
			<g>
				<g>
					<g>
						<path class="st8" d="M574.5,517.5c0-0.5-5.2-1.4-13.8-2.5c-2.2-0.2-4.2-0.7-4.6-2.1c-0.5-1.6,0.4-3.9,1.4-6.4
							c2-5.2,4.2-10.7,6.4-16.5c8.9-23.4,15.3-42.7,14.4-43.1c-0.9-0.3-8.9,18.4-17.8,41.8c-2.1,5.8-4.2,11.3-6.1,16.6
							c-0.8,2.5-2.2,5.2-1.1,8.5c0.6,1.6,2.2,2.8,3.6,3.2c1.4,0.4,2.6,0.4,3.7,0.5C569.1,517.9,574.5,518,574.5,517.5z"/>
					</g>
				</g>
			</g>
			<g>
				<g>
					<path class="st14" d="M569.7,621.3c0,0,41.3,2.7,82.2-21.9c0,0-20.8,42.7-82.2,36.9V621.3z"/>
				</g>
			</g>
			<g>
				<g>
					<g>
						<g>
							<g>
								<g>
									<g>
										<path class="st13" d="M697.8,480.6c0.9-0.4,32.8-14.6,33.2,22.2c0.4,36.7-36.6,29.5-36.7,28.5
											C694.3,530.2,697.8,480.6,697.8,480.6z"/>
									</g>
								</g>
							</g>
						</g>
					</g>
				</g>
			</g>
			<g>
				<g>
					<g>
						<g>
							<g>
								<g>
									<g>
										<g>
											<path class="st14" d="M705.5,517.2c0.2-0.1,0.6,0.4,1.7,0.9c1.1,0.5,2.9,0.8,4.8,0.1c3.9-1.5,7.1-7.7,7.2-14.3
												c0.1-3.3-0.7-6.5-1.9-9.1c-1.1-2.7-2.9-4.5-4.9-4.9c-1.9-0.4-3.3,0.8-3.8,1.8c-0.5,1-0.2,1.8-0.4,1.8
												c-0.1,0.1-0.8-0.6-0.5-2.1c0.1-0.7,0.6-1.6,1.4-2.3c0.9-0.7,2.2-1.1,3.5-1c2.8,0.2,5.4,2.7,6.7,5.6
												c1.5,2.9,2.4,6.5,2.3,10.2c-0.2,7.4-3.9,14.4-9.2,16c-2.6,0.7-4.7-0.1-5.9-0.9C705.5,518.1,705.3,517.3,705.5,517.2z"/>
										</g>
									</g>
								</g>
							</g>
						</g>
					</g>
				</g>
			</g>
			<g>
				<g>
					<g>
						<g>
							<g>
								<path class="st14" d="M577,541.1c1.2,3.1,2.5,6.3,4.6,8.9c2.1,2.6,5.1,4.7,8.4,4.9c3.6,0.2,7-1.9,9-4.9
									c2-3,2.7-6.7,2.5-10.3c-0.1-3.2-1.6-7.1-4.8-7.5c-1.3-0.2-2.7,0.4-3.9,0.9c-5.6,2.3-11.3,4.6-16.9,6.9"/>
							</g>
						</g>
					</g>
				</g>
				<g>
					<g>
						<g>
							<g>
								<g>
									<path class="st8" d="M583.7,555c0.1-0.5,3.8,1,9-1.1c2.5-1,5.3-3,6.8-6.2c1.5-3.1,1.8-7.4,0.2-11c-0.4-0.9-0.9-1.8-1.5-2.5
										c-0.7-0.7-0.5-0.7-1.3-0.6c-0.7,0.2-1.8,0.7-2.7,1.1c-0.9,0.4-1.9,0.8-2.8,1.1c-3.6,1.5-6.9,2.7-9.7,3.8
										c-5.5,2.1-9,3.2-9.2,2.8c-0.2-0.4,3-2.2,8.4-4.7c2.7-1.3,5.8-2.8,9.4-4.4c0.9-0.4,1.8-0.8,2.7-1.2c1-0.4,1.7-0.8,3.1-1.3
										c0.7-0.2,1.6-0.3,2.5,0.1c0.9,0.4,1.4,1,1.9,1.5c0.8,1,1.4,2,1.9,3.2c2,4.6,1.5,9.7-0.5,13.5c-2.1,3.9-5.6,6-8.6,6.9
										c-3,0.9-5.7,0.7-7.3,0.3C584.5,555.8,583.7,555.2,583.7,555z"/>
								</g>
							</g>
						</g>
					</g>
				</g>
			</g>
			<g>
				<g>
					<path class="st5" d="M739,455.5c-3.8-0.3-34.1,3.7-31.7,60.1c2.2,52.7,39.2,41.1,51,21.2C769.4,518,775.9,458.1,739,455.5z"/>
				</g>
			</g>
			<g>
				<g>
					<g>
						<path class="st5" d="M757.8,462.1c0,0-0.1-0.5-0.1-1.5c0-1.1-0.1-2.5-0.2-4.3c-0.1-3.9-0.3-9.3-0.4-16.1
							c-0.3-13.8-0.7-33.1-1.1-55.3l0.7,0.7c-5,0-10.3,0-15.6,0l0.7-0.7c0.1,4.2,0.2,8.6,0.4,13.1c0.5,21.2,1,40.9,1.4,57.4l0,0.5
							l-0.5,0.1c-7,1.6-12.6,5.7-16.1,10.4c-3.6,4.6-5.3,9.6-6.4,13.6c-1.1,4.1-1.4,7.4-1.7,9.6c-0.1,1.1-0.2,2-0.2,2.6
							c0,0.6-0.1,0.9-0.1,0.9c0,0-0.1-0.3-0.1-0.9c0-0.6,0-1.5,0-2.6c0.1-2.3,0.4-5.6,1.4-9.8c1-4.1,2.7-9.2,6.3-14
							c3.5-4.8,9.3-9.2,16.6-10.9l-0.5,0.6c-0.5-16.5-1-36.2-1.6-57.4c-0.1-4.5-0.2-8.9-0.3-13.1l0-0.7l0.7,0c5.4,0,10.6,0,15.6,0
							l0.7,0l0,0.7c0.2,22.2,0.5,41.5,0.6,55.3c0,6.7,0,12.2,0.1,16.1c0,1.8,0,3.2,0,4.3C757.8,461.6,757.8,462.1,757.8,462.1z"/>
					</g>
				</g>
			</g>
			<g>
				<g>
					<path class="st5" d="M739,385c0,0-15.9-37.1-53.7-55.4c-18.3-8.9-32-13.5-45.3-16.8c0,0,22.1-5.2,57.7,10.6
						c16.2,7.2,32.6,16.6,43.4,30.7c6.9,8.9,15.4,26.4,15.4,30.9H739z"/>
				</g>
			</g>
			<g>
				<g>
					<g>
						<path class="st8" d="M735,552.5c0,0-0.4-0.1-1.1-0.3c-0.7-0.3-1.7-0.7-2.8-1.5c-2.3-1.5-5.4-4.2-8-8.5
							c-2.5-4.3-4.2-10.1-4.9-16.5c-0.6-6.5-0.6-13.6,0-21.1c0.6-7.5,1.9-14.5,3.5-20.8c1.6-6.3,3.5-11.9,6.1-16.1
							c2.6-4.3,5.6-7,8-8.4c1.2-0.7,2.2-1.2,2.8-1.4c0.7-0.2,1.1-0.3,1.1-0.3c0.1,0.1-1.4,0.6-3.6,2.2c-2.2,1.5-5.1,4.3-7.4,8.5
							c-2.4,4.2-4.2,9.7-5.7,15.9c-1.5,6.2-2.7,13.2-3.3,20.6c-0.6,7.4-0.6,14.5-0.1,20.8c0.6,6.4,2.1,12,4.5,16.2
							c2.3,4.2,5.2,7,7.4,8.5C733.6,551.9,735,552.4,735,552.5z"/>
					</g>
				</g>
			</g>
			<g>
				<g>
					<g>
						<path class="st5" d="M623,558.9l-41.9,8.2c-0.3,0.1-0.6-0.1-0.7-0.5l-3-15.1c-0.1-0.3,0.1-0.6,0.5-0.7l41.9-8.2
							c0.3-0.1,0.6,0.1,0.7,0.5l3,15.1C623.5,558.6,623.3,558.9,623,558.9z"/>
					</g>
				</g>
				<g>
					<g>
						<path class="st5" d="M618.1,548.3L747,507.8c3.2-1,6.6,0.8,7.6,3.9l0,0c1.1,3.3-0.9,6.8-4.2,7.7l-131.8,35.6L618.1,548.3z"/>
					</g>
				</g>
				<g>
					<g>
						<g>
							<path class="st8" d="M713.4,530.5c0-0.1,1.5-0.6,4.3-1.5c3-0.9,7-2.1,11.8-3.6c4.9-1.5,11-3.1,17.4-5.2
								c1.6-0.6,3.1-1.4,4.2-2.6c1.1-1.2,1.8-2.8,1.8-4.5c0-1.7-1.1-3.1-2.7-3.7c-1.6-0.5-3.5-0.3-5.4,0.2
								c-15,4.8-28.5,9.2-38.6,12.4c-4.8,1.5-8.8,2.7-11.8,3.6c-2.8,0.8-4.3,1.2-4.4,1.2s1.5-0.7,4.2-1.7c3-1,6.9-2.4,11.6-4.1
								c9.9-3.4,23.4-8,38.6-12.9c2-0.5,4.1-0.8,6.2-0.1c2.1,0.7,3.6,2.9,3.6,5c0,2.1-0.9,4-2.2,5.5c-1.4,1.4-3.1,2.2-4.7,2.9
								c-6.7,2.1-12.6,3.6-17.6,5c-4.8,1.3-8.9,2.3-11.9,3.2C715,530.2,713.4,530.6,713.4,530.5z"/>
						</g>
					</g>
				</g>
			</g>
			<g>
				<g>
					<g>
						<path class="st14" d="M645.7,456c-1,1.6-9.8-3.3-20.8-1.3c-11,1.8-17.7,9.3-19.1,8.2c-0.7-0.5,0-3.2,3-6.5
							c2.9-3.3,8.2-7,15.1-8.1c6.8-1.2,13.1,0.5,16.9,2.6C644.6,453,646.2,455.3,645.7,456z"/>
					</g>
				</g>
			</g>
			<g>
				<g>
					<g>
						<path class="st8" d="M644.5,457.4c-0.2,0.3-2.3-0.7-6-1.5c-3.7-0.8-8.9-1.3-14.5-0.1c-5.6,1.3-10.1,4-13.1,6.3
							c-3,2.3-4.5,4.2-4.8,4c-0.2-0.1,0.9-2.4,3.8-5.1c2.8-2.8,7.6-5.9,13.6-7.2c6-1.4,11.7-0.6,15.4,0.7
							C642.6,455.7,644.6,457.2,644.5,457.4z"/>
					</g>
				</g>
			</g>
			<g>
				<g>
					<g>
						<path class="st8" d="M650.2,432.7c-0.9,2.9-10.3,2.7-21.4,3.3c-11.2,0.3-20.6,1.2-21.6-1.7c-0.5-1.4,1.4-3.6,5.3-5.5
							c3.8-1.9,9.5-3.5,15.9-3.8c6.4-0.2,12.3,0.9,16.2,2.6C648.5,429.3,650.5,431.3,650.2,432.7z"/>
					</g>
				</g>
			</g>
			<g>
				<g>
					<g>
						<path class="st14" d="M557.7,462.5c-0.9,0.5-2.5-1.1-5.2-2.9c-2.6-1.9-6.5-3.8-11.2-4.5c-9.5-1.6-17.1,2.8-18.2,1.3
							c-0.5-0.7,0.8-2.8,4.2-4.9c3.3-2.1,8.9-3.8,15.1-2.8c6.2,0.9,11.1,4.4,13.4,7.7C558.2,459.6,558.4,462.1,557.7,462.5z"/>
					</g>
				</g>
			</g>
			<g>
				<g>
					<g>
						<path class="st8" d="M558.7,467.1c-0.3,0.2-1.7-1.9-4.7-4.5c-2.9-2.6-7.7-5.7-13.5-6.9c-5.9-1.3-11.4-0.5-15.2,0.7
							c-3.8,1.2-6,2.5-6.2,2.2c-0.2-0.2,1.7-2,5.6-3.6c3.8-1.6,9.8-2.8,16.2-1.4c6.4,1.4,11.3,4.9,14.1,8
							C558,464.5,559,467,558.7,467.1z"/>
					</g>
				</g>
			</g>
			<g>
				<g>
					<g>
						<path class="st8" d="M562.5,436.4c-0.5,3-9.5,3.9-20.1,4c-10.6,0-19.6-0.7-20.2-3.7c-0.6-2.9,8.3-7.2,20.1-7.3
							C554.1,429.4,563.1,433.5,562.5,436.4z"/>
					</g>
				</g>
			</g>
			<g>
				<g>
					<path class="st8" d="M661.6,349.4c-6.6,10-13.4,20.2-16.8,31.6c-3.4,11.5-3.1,24.7,3.6,34.6c6.5,9.5,17.5,14.5,27.6,20
						c10.1,5.5,20.4,13.1,22.9,24.3c0.8,3.5-0.7,15.7,1.9,18.2c3.6,3.4,10,1.3,12.7-2.8c2.7-4.1,4.5-17.6,4.6-22.5
						c0.2-15.3,0.4-30.6,0.6-45.9c0.2-12.9,0-26.4-5.6-38c-7.8-16.3-24.1-21.5-47.8-20.4"/>
				</g>
			</g>
			<g>
				<g>
					<path class="st8" d="M511,441.4c2-15.5,7.7-30.7,17.4-42.8c9.8-12.2,23.8-21.2,39.2-23.5c15.5-2.3,31.1,2,46.7,2.8
						c15.6,0.9,33.4-2.9,41.6-16.3c2.5-4.2,3.7-10,0.5-13.6c-1.2-1.4-2.9-2.2-4.6-3c-20.7-9.8-44.2-14.2-66.9-10.8
						c-22.7,3.4-44.3,14.8-58.6,32.8c-14.2,17.9-20.4,42.4-14.9,64.7"/>
				</g>
			</g>
			<g>
				<g>
					<g>
						<path class="st5" d="M501.6,418.4c-0.1,0-0.3-0.7-0.7-2c-0.4-1.3-0.9-3.3-1.2-6c-0.7-5.2-0.8-13.1,2.1-22.3
							c2.8-9.1,8.7-19.4,18.4-27.5c9.6-8.2,22.6-14.3,37-16.6c14.4-2.4,28.4-1,40.6,1.8c6.1,1.4,11.8,3.2,17,5.1
							c5.2,1.9,9.9,4,14.4,5.2c9,1.9,16.8,3,21.8,1.9c5.1-1,7-3.8,7.1-3.5c0,0-0.4,0.7-1.4,1.6c-1,1-2.9,2-5.5,2.7
							c-5.3,1.4-13,0.5-22.4-1.3c-4.7-1.1-9.4-3.2-14.6-5c-5.2-1.8-10.8-3.5-16.9-4.9c-12-2.7-25.8-4-39.8-1.6
							c-14,2.3-26.7,8.1-36.1,16c-9.5,7.8-15.3,17.7-18.3,26.5c-3,8.8-3.2,16.5-2.7,21.7C500.9,415.5,501.8,418.3,501.6,418.4z"/>
					</g>
				</g>
			</g>
			<g>
				<g>
					<g>
						<path class="st5" d="M569.5,321.9c0-0.1,1.3-0.5,3.9-0.7c2.5-0.3,6.2-0.4,10.7,0c9,0.8,21.6,4.3,32.6,13.1
							c5.4,4.3,10,9,14.8,12.3c4.7,3.3,9.9,4.8,14.2,5.7c4.3,0.9,7.9,1,10.4,0.7c2.4-0.3,3.7-1,3.8-0.8c0.1,0.1-1.1,1-3.6,1.6
							c-2.5,0.6-6.3,0.7-10.8,0c-4.5-0.8-9.9-2.1-15-5.6c-5.1-3.3-9.7-8-15-12.2c-10.6-8.4-22.7-12.1-31.5-13.2
							C575.1,321.5,569.5,322.3,569.5,321.9z"/>
					</g>
				</g>
			</g>
			<g>
				<g>
					<g>
						<path class="st5" d="M755.2,434.6c-0.2,0.1-0.8-1.5-2.6-3.8c-1.8-2.3-5-5.3-9.8-7.5c-4.7-2.2-11-3.7-17.9-3.6
							c-7,0.1-14.6,1.6-22.7,3.1c-8,1.5-16,2.5-23.2,1.8c-7.2-0.6-13.5-2.4-18.5-4.5c-5-2-8.8-4.4-11.3-6.1c-2.5-1.7-3.7-2.9-3.6-3
							c0.2-0.4,5.5,3.9,15.5,7.6c5,1.8,11.1,3.4,18.1,3.9c7,0.6,14.6-0.4,22.7-1.9c8-1.5,15.8-3,23-3c7.3,0,13.7,1.7,18.6,4.2
							c4.9,2.5,8.1,5.9,9.8,8.4c0.8,1.3,1.4,2.4,1.6,3.1C755.1,434.1,755.3,434.5,755.2,434.6z"/>
					</g>
				</g>
			</g>
			<g>
				<g>
					<g>
						<path class="st5" d="M748.5,405.1c-0.2,0.1-0.8-1.4-2.6-3.7c-1.8-2.2-5-5-9.8-6.9c-4.7-2-10.9-2.7-17.7-1.9
							c-6.8,0.7-14.1,2.7-22.1,4.2c-7.9,1.5-16,1.9-22.9-0.4c-6.9-2.1-12.2-6-15.9-9.8c-3.7-3.9-5.8-7.7-7-10.5
							c-0.6-1.4-0.9-2.5-1.1-3.2c-0.2-0.8-0.3-1.2-0.2-1.2c0.5-0.3,1.9,6.5,9.4,13.8c3.7,3.6,8.9,7.1,15.4,9
							c6.5,2,14.1,1.6,21.9,0.1c7.8-1.4,15.2-3.5,22.3-4.1c7-0.7,13.6,0.2,18.5,2.5c5,2.2,8.2,5.4,9.9,7.8
							C748.3,403.4,748.6,405.1,748.5,405.1z"/>
					</g>
				</g>
			</g>
			<g>
				<g>
					<g>
						<path class="st8" d="M590.9,825.7c0,0,0.3-0.2,0.8-0.7c0.5-0.4,1.3-1,2.3-1.8c2-1.7,5-4.2,8.6-7.8c3.6-3.6,7.6-8.3,12.1-14
							c4.4-5.8,9.1-12.6,14.3-20.3c10.3-15.3,22.5-34,35.3-55.5c6.4-10.8,13.1-22.2,19.8-34.3c1.7-3,3.3-6.1,5-9.2
							c1.7-3.1,3.4-6.3,5.8-9.1c2.3-2.9,5.4-5.2,8.9-6.5c1.8-0.6,3.7-1,5.7-0.6c1,0.2,2,0.7,2.7,1.5c0.8,0.8,1.2,1.8,1.4,2.7
							l0.1,0.2l-0.1,0.2c-0.5,1.2-1,2.5-2,3.5c-0.9,1-2.3,1.7-3.7,1.8c-2.8,0.2-5.2-1.1-7.3-2.5c-4.6-2.8-6.6-9.1-4.7-14.3
							c0.9-2.6,2.9-4.9,5.4-6.1c2.4-1.2,5.3-1.7,8-1.1c2.6,0.6,5.4,2.1,6.5,5c0.6,1.4,0.2,3.4-0.9,4.5c-1.1,1.1-2.4,1.7-3.8,2.1
							c-4.8,1.2-10-1.2-12.3-5.6c-1.1-2.2-1.4-4.9-0.7-7.2c0.6-2.4,1.9-4.5,3.7-6.1c1.8-1.6,4.1-2.6,6.6-2.5
							c2.4,0.1,4.8,1.1,6.2,3.3c0.7,1,1,2.4,0.8,3.7c-0.2,1.3-1,2.5-2,3.2c-2,1.4-4.6,1.7-6.8,0.9c-2.3-0.9-3.8-3-4.6-5.1
							c-0.8-2.2-1-4.4-1-6.7c0.1-4.4,0.8-8.9,3.3-12.7c1.3-1.8,3-3.4,5.3-4c2.2-0.5,4.5,0,6.4,1.1c1.8,1.1,3.5,3.2,3.2,5.7
							c-0.2,2.4-2.1,4.3-4.2,4.9c-2.1,0.7-4.4,0.4-6.2-1c-1.7-1.3-2.7-3.4-3.1-5.4c-0.4-2-0.1-4.3,0.5-6.1c0.5-1.9,1.2-3.8,2.1-5.5
							c0.9-1.7,2.3-3.4,4-4.4c1.7-1,3.5-1.7,5.4-1.8c0.9-0.1,2-0.1,3,0.4c0.9,0.5,1.6,1.2,2.2,2c0.6,0.8,1,1.7,1.2,2.7
							c0.2,1,0.2,2.1-0.4,3.1c-1.1,2-3.5,2.3-5.2,2c-1.8-0.2-3.5-1.3-4.8-2.5c-2.6-2.5-4-6-4.1-9.5c-0.2-3.4,0.7-6.9,2.6-9.7
							c1-1.3,2.1-2.6,3.6-3.4c1.4-0.8,3-1.2,4.6-1.3c1.6,0,3.2,0.3,4.5,1.3c1.3,1,2.1,2.6,1.9,4.3c-0.4,3.3-3.2,5.5-6,5.9
							c-3,0.4-5.5-1.7-6.9-3.9c-1.4-2.3-1.9-5-1.7-7.5c0.5-5.1,3.1-9,4.6-12.8c1.7-3.8,3.2-7.3,4.6-10.4c2.8-6.2,4.9-11.1,6.4-14.4
							c0.7-1.6,1.3-2.8,1.7-3.7c0.4-0.8,0.6-1.2,0.6-1.2s-0.1,0.5-0.5,1.3c-0.4,0.9-0.9,2.2-1.6,3.8c-1.4,3.4-3.5,8.3-6.1,14.5
							c-1.3,3.2-2.8,6.6-4.5,10.5c-1.5,3.9-4,7.8-4.4,12.6c-0.2,2.3,0.3,4.8,1.6,6.9c1.2,2.1,3.6,3.8,6.1,3.4c2.4-0.3,5-2.4,5.2-5
							c0.1-1.3-0.5-2.6-1.5-3.4c-1-0.8-2.5-1.1-3.9-1.1c-1.4,0.1-2.8,0.4-4.1,1.2c-1.3,0.7-2.3,1.8-3.2,3.1c-1.7,2.5-2.6,5.8-2.3,9
							c0.2,3.2,1.5,6.4,3.8,8.7c1.2,1.1,2.6,1.9,4.2,2.2c1.5,0.3,3.3-0.1,4-1.4c0.7-1.3,0.1-3.1-0.8-4.4c-0.5-0.7-1.1-1.2-1.8-1.6
							c-0.6-0.3-1.5-0.3-2.3-0.3c-3.4,0.4-6.9,2.2-8.4,5.6c-0.9,1.6-1.5,3.4-2,5.3c-0.6,1.9-0.8,3.6-0.5,5.5
							c0.3,1.8,1.2,3.5,2.6,4.6c1.4,1.1,3.3,1.3,5,0.8c1.7-0.5,3.1-1.9,3.3-3.7c0.2-1.8-1-3.4-2.6-4.4c-1.6-1-3.6-1.4-5.3-1
							c-1.8,0.4-3.3,1.9-4.5,3.4c-2.2,3.3-3,7.7-3,11.9c0,2.1,0.2,4.2,0.9,6.1c0.7,1.9,2,3.6,3.8,4.3c1.8,0.7,4,0.4,5.6-0.7
							c1.6-1,2-3.3,0.9-4.9c-1-1.6-3.1-2.6-5.1-2.6c-2,0-4,0.8-5.6,2.2c-3.2,2.7-4.7,7.7-2.7,11.5c1.9,3.8,6.6,6,10.7,4.9
							c1.2-0.3,2.3-0.8,3.1-1.7c0.8-0.8,1-1.9,0.6-3c-0.8-2.2-3.1-3.6-5.4-4.1c-4.7-1-10.2,1.6-11.7,6.3c-1.6,4.6,0.1,10.2,4.1,12.7
							c1.9,1.4,4.2,2.4,6.4,2.3c2.2-0.1,3.7-2.1,4.5-4.3l0,0.4c-0.4-1.7-1.5-2.9-3.1-3.2c-1.6-0.3-3.3,0-4.9,0.6
							c-3.3,1.1-6.1,3.3-8.3,6c-2.2,2.7-3.9,5.8-5.6,8.9c-1.7,3.1-3.4,6.2-5.1,9.2c-6.7,12.1-13.4,23.6-19.9,34.3
							c-12.9,21.5-25.1,40.1-35.6,55.4c-5.2,7.6-10,14.5-14.5,20.2c-4.5,5.7-8.7,10.4-12.3,13.9
							C595.7,822.8,590.9,825.7,590.9,825.7z"/>
					</g>
				</g>
			</g>
		</g>
	</g>
</g>
</svg>
