<?xml version="1.0" encoding="utf-8"?>
<!-- Generator: Adobe Illustrator 27.8.0, SVG Export Plug-In . SVG Version: 6.00 Build 0)  -->
<svg version="1.1" id="Camada_1" xmlns="http://www.w3.org/2000/svg" xmlns:xlink="http://www.w3.org/1999/xlink" x="0px" y="0px"
	 viewBox="0 0 450 400" style="enable-background:new 0 0 450 400;" xml:space="preserve">
<style type="text/css">
	.st0{fill:#F5F5F5;}
	.st1{fill:#1A2E35;}
	.st2{fill:#375A64;}
	.st3{fill:#FF4F5B;}
	.st4{opacity:0.6;enable-background:new    ;}
	.st5{opacity:0.3;enable-background:new    ;}
	.st6{fill:#FAFAFA;}
	.st7{opacity:0.5;fill:#FFFFFF;enable-background:new    ;}
</style>
<g>
	<g>
		<rect x="25.7" y="88.3" class="st0" width="50.2" height="188.9"/>
		<rect x="297.5" y="151.1" class="st0" width="50.2" height="125"/>
		<rect x="374.1" y="52.8" class="st0" width="50.2" height="223.3"/>
		<rect x="212.5" y="60.9" class="st0" width="50.2" height="215.2"/>
		<rect x="111.9" class="st0" width="50.2" height="276.1"/>
	</g>
	<g>
		<g>
			<path class="st0" d="M314,70.2c1.6-1,3.3-1.7,5.1-2.2l1-5l8.5-0.1l1.2,5c1.8,0.4,3.5,1.1,5.2,2l4.3-2.8l6.1,5.9l-2.7,4.4
				c1,1.6,1.7,3.3,2.2,5.1l5,1l0.1,8.5l-5,1.2c-0.4,1.8-1.1,3.5-2,5.2l2.8,4.3l-5.9,6.1l-4.4-2.7c-1.6,1-3.3,1.7-5.1,2.2l-1,5
				l-8.5,0.1l-1.2-5c-1.8-0.4-3.5-1.1-5.2-2l-4.3,2.8l-6.1-5.9l2.7-4.4c-1-1.6-1.7-3.3-2.2-5.1l-5-1l-0.1-8.5l5-1.2
				c0.4-1.8,1.1-3.5,2-5.2l-2.8-4.3l5.9-6.1L314,70.2L314,70.2z M318.5,81.6c-3.5,3.6-3.4,9.4,0.2,12.9c3.6,3.5,9.4,3.4,12.9-0.2
				c3.5-3.6,3.4-9.4-0.2-12.9C327.8,77.9,322.1,78,318.5,81.6z"/>
		</g>
	</g>
	<g>
		<path class="st1" d="M441.7,399.3c0,0.1-98.9,0.2-220.8,0.2c-122,0-220.9-0.1-220.9-0.2c0-0.1,98.9-0.2,220.9-0.2
			C342.8,399,441.7,399.1,441.7,399.3z"/>
	</g>
	<g>
		<g>
			<g>
				<g>
					<polygon class="st0" points="40.1,154.8 40.1,162.3 42.9,163.5 39.2,163.5 38.6,168.3 104.9,175.4 111.5,165 					"/>
					<polygon class="st1" points="29.8,170.7 30.7,166.4 38.9,167.3 77.3,171.8 75.9,176.6 					"/>
					<path class="st2" d="M103.5,179.6l-37.3-4.1l0,0c1.8-5.8,7.5-9.4,13.5-8.7l29.4,3.6L103.5,179.6z"/>
				</g>
				<path class="st3" d="M153.7,170.5l0.1,25.2L24,196l0,0c0-6.6,5.3-12,11.9-12l58.4-0.1l15-20.5l37.5,0.2
					C150.6,163.6,153.7,166.7,153.7,170.5z"/>
				<g>
					<path class="st1" d="M153.3,190.8c0,0.1-28.7,0.2-64.1,0.2c-35.4,0-64.1-0.1-64.1-0.2c0-0.1,28.7-0.2,64.1-0.2
						C124.6,190.6,153.3,190.7,153.3,190.8z"/>
				</g>
				<polygon class="st0" points="278.2,210.4 227.3,238.9 227.3,232.4 275.9,206.9 				"/>
				<polygon class="st1" points="227.3,238.9 267.3,216.4 270.6,221.2 245.9,235.9 245.8,242.2 227.3,252.3 				"/>
				<polygon class="st1" points="227.3,300.7 267.3,278.3 270.6,283 245.9,297.7 245.8,304.1 227.3,314.1 				"/>
				<path class="st3" d="M121.5,282.6h105.9v-64c0-1.2-1-2.2-2.2-2.2H121.5V282.6z"/>
				<rect x="121.5" y="285.1" class="st3" width="105.9" height="77.4"/>
				<polygon class="st1" points="227.9,347.8 272.8,347.8 272.8,352 227.3,356.8 				"/>
				<path class="st1" d="M234.4,364L234.4,364c2.2,0,3.9-1.7,3.9-3.9v-3.9c0-2.2-1.7-3.9-3.9-3.9l0,0c-2.2,0-3.9,1.7-3.9,3.9v3.9
					C230.5,362.3,232.2,364,234.4,364z"/>
				<polygon class="st1" points="268,350.3 268,336.9 261.9,336.9 261.9,351.2 				"/>
				<rect x="121.4" y="365.2" class="st3" width="105.8" height="24.7"/>
				<path class="st4" d="M121.5,282.6h105.9v-64c0-1.2-1-2.2-2.2-2.2H121.5V282.6z"/>
				<rect x="121.5" y="285.1" class="st4" width="105.9" height="77.4"/>
				<rect x="121.4" y="365.2" class="st4" width="105.8" height="24.7"/>
				<rect x="121.4" y="389.9" class="st3" width="105.8" height="10"/>
				<rect x="31.7" y="206.9" class="st3" width="113.6" height="183.6"/>
				<rect x="31.7" y="206.9" class="st5" width="113.6" height="183.6"/>
				<rect x="25.7" y="204.3" class="st3" width="44" height="51.5"/>
				<path class="st3" d="M153.8,195.6v9.8c0,2.3-1.8,4.1-4.1,4.1H96.1H25.7v-14H153.8z"/>
				<path class="st1" d="M96.1,226v-30.5H25.7v25c0,3,2.4,5.4,5.4,5.4H96.1"/>
				<rect x="53.8" y="199.7" class="st2" width="37.3" height="19.4"/>
				<rect x="45.6" y="199.7" class="st2" width="2.1" height="2.1"/>
				<rect x="41.6" y="199.7" class="st2" width="2.1" height="2.1"/>
				<rect x="37.5" y="199.7" class="st2" width="2.1" height="2.1"/>
				<rect x="29.1" y="199.7" class="st0" width="5.7" height="2.1"/>
				<rect x="29.1" y="203.3" class="st0" width="5.7" height="2.1"/>
				<rect x="29.1" y="206.9" class="st0" width="5.7" height="2.1"/>
				<rect x="29.1" y="210.7" class="st0" width="5.7" height="2.1"/>
				<rect x="37.5" y="203.4" class="st2" width="2.1" height="2.1"/>
				<rect x="45.6" y="203.5" class="st2" width="2.1" height="2.1"/>
				<rect x="45.6" y="207" class="st2" width="2.1" height="2.1"/>
				<rect x="41.4" y="203.5" class="st2" width="2.1" height="2.1"/>
				<rect x="41.4" y="207" class="st2" width="2.1" height="2.1"/>
				<rect x="37.3" y="207" class="st2" width="2.1" height="2.1"/>
				<path class="st3" d="M35.2,217.3c0,2,1.6,3.6,3.6,3.6s3.6-1.6,3.6-3.6s-1.6-3.6-3.6-3.6S35.2,215.3,35.2,217.3z"/>
				<path class="st2" d="M43.8,217.3c0,1.2,1,2.2,2.2,2.2c1.2,0,2.2-1,2.2-2.2s-1-2.2-2.2-2.2C44.8,215.1,43.8,216.1,43.8,217.3z"/>
				<path class="st2" d="M29.5,217.3c0,1.2,1,2.2,2.2,2.2c1.2,0,2.2-1,2.2-2.2c0-1.2-1-2.2-2.2-2.2
					C30.5,215.2,29.5,216.1,29.5,217.3z"/>
				<path class="st3" d="M25.7,313.6h127.9v-55.7c0-1.1-0.9-2-2-2H25.7V313.6z"/>
				<path class="st3" d="M25.7,335.7h127.9v-19.3c0-0.9-0.7-1.6-1.6-1.6H26.8c-0.6,0-1.1,0.5-1.1,1.1
					C25.7,315.9,25.7,335.7,25.7,335.7z"/>
				<path class="st5" d="M70.7,324.5h38.5c0.7,0,1.2-0.5,1.2-1.2v-8.5H69.5v8.5C69.5,323.9,70,324.5,70.7,324.5z"/>
				<path class="st3" d="M25.7,378.9h127.9v-40.6c0-0.9-0.8-1.7-1.7-1.7H27.4c-0.9,0-1.7,0.8-1.7,1.7
					C25.7,338.2,25.7,378.9,25.7,378.9z"/>
				<path class="st5" d="M70.7,346.3h38.5c0.7,0,1.2-0.5,1.2-1.2v-8.5H69.5v8.5C69.5,345.7,70,346.3,70.7,346.3z"/>
				<rect x="25.7" y="381" class="st3" width="127.9" height="18.8"/>
				<rect x="69.7" y="241.8" class="st1" width="50.2" height="3.1"/>
				<rect x="69.7" y="230.1" class="st0" width="67.6" height="11.7"/>
				<g>
					<path class="st6" d="M69.9,202.2c0,0.1,4.2,0.2,9.3,0.2s9.3-0.1,9.3-0.2c0-0.1-4.2-0.2-9.3-0.2C74.1,202,69.9,202.1,69.9,202.2
						z"/>
				</g>
				<g>
					<path class="st6" d="M80.6,205.2c0,0.1,1.8,0.2,4,0.2c2.2,0,4-0.1,4-0.2c0-0.1-1.8-0.2-4-0.2C82.4,205,80.6,205.1,80.6,205.2z"
						/>
				</g>
				<g>
					<path class="st6" d="M80.6,208.4c0,0.1,1.8,0.2,4,0.2c2.2,0,4-0.1,4-0.2c0-0.1-1.8-0.2-4-0.2C82.4,208.2,80.6,208.3,80.6,208.4
						z"/>
				</g>
				<g>
					<path class="st6" d="M80.4,213.6c0,0.1,1.8,0.2,4,0.2c2.2,0,4-0.1,4-0.2c0-0.1-1.8-0.2-4-0.2C82.2,213.4,80.4,213.5,80.4,213.6
						z"/>
				</g>
				<g>
					<path class="st6" d="M58.8,213.6c0,0.1,1.8,0.2,4,0.2c2.2,0,4-0.1,4-0.2c0-0.1-1.8-0.2-4-0.2C60.5,213.4,58.8,213.5,58.8,213.6
						z"/>
				</g>
				<rect x="25.7" y="381" class="st7" width="127.9" height="18.8"/>
				<g>
					<path class="st1" d="M25.8,307.9c0,0.1,28.6,0.2,63.9,0.2s63.9-0.1,63.9-0.2c0-0.1-28.6-0.2-63.9-0.2S25.8,307.8,25.8,307.9z"
						/>
				</g>
				<g>
					<path class="st1" d="M25.8,303.3c0,0.1,28.6,0.2,63.9,0.2s63.9-0.1,63.9-0.2c0-0.1-28.6-0.2-63.9-0.2S25.8,303.1,25.8,303.3z"
						/>
				</g>
				<g>
					<path class="st1" d="M25.8,298.6c0,0.1,28.6,0.2,63.9,0.2s63.9-0.1,63.9-0.2c0-0.1-28.6-0.2-63.9-0.2S25.8,298.4,25.8,298.6z"
						/>
				</g>
				<g>
					<path class="st1" d="M25.8,293.9c0,0.1,28.6,0.2,63.9,0.2s63.9-0.1,63.9-0.2s-28.6-0.2-63.9-0.2S25.8,293.8,25.8,293.9z"/>
				</g>
				<g>
					<path class="st1" d="M25.6,335.7c0,0.1,28.7,0.2,64.1,0.2c35.4,0,64.1-0.1,64.1-0.2c0-0.1-28.7-0.2-64.1-0.2
						S25.6,335.6,25.6,335.7z"/>
				</g>
				<g>
					<path class="st1" d="M25.6,378.9c0,0.1,28.7,0.2,64.1,0.2c35.4,0,64.1-0.1,64.1-0.2c0-0.1-28.7-0.2-64.1-0.2
						S25.6,378.8,25.6,378.9z"/>
				</g>
				<g>
					<path class="st1" d="M69.5,314.8c0,0,0,0.2,0,0.6c0,0.4-0.1,0.9-0.1,1.6c0,0.7-0.1,1.6,0,2.6c0.1,1,0.4,2.2,1.3,3.2
						c0.4,0.5,1,0.9,1.7,1.2c0.7,0.3,1.4,0.4,2.1,0.6c1.5,0.3,3.1,0.4,4.8,0.4c3.4,0,7,0,10.9-0.1c3.9,0,7.6-0.1,10.9-0.2
						c1.7,0,3.3,0,4.8-0.1c0.8-0.1,1.5-0.2,2.2-0.5c0.7-0.3,1.2-0.7,1.6-1.3c0.8-1,1.1-2.2,1.2-3.2c0-1,0-1.9,0-2.6
						c0-0.7-0.1-1.3-0.1-1.6c0-0.4-0.1-0.6-0.1-0.6c0,0,0,0.2,0,0.6c0,0.4,0,1,0,1.6c0,0.7,0,1.6-0.1,2.6c-0.1,1-0.4,2.1-1.2,3.1
						c-0.4,0.5-0.9,0.9-1.5,1.1c-0.6,0.3-1.3,0.4-2,0.4c-1.5,0.1-3.1,0-4.7,0.1c-3.4,0-7,0.1-10.9,0.1c-3.9,0-7.6,0.1-10.9,0.1
						c-1.7,0-3.2-0.1-4.7-0.4c-0.7-0.1-1.4-0.3-2.1-0.5c-0.6-0.2-1.1-0.6-1.5-1.1c-0.8-0.9-1.1-2.1-1.3-3c-0.1-1-0.1-1.8,0-2.6
						c0-0.7,0-1.3,0-1.6C69.5,315,69.5,314.8,69.5,314.8z"/>
				</g>
				<g>
					<path class="st1" d="M69.5,336.2c0,0,0,0.2,0,0.6c0,0.4-0.1,0.9-0.1,1.6c0,0.7-0.1,1.6,0,2.6c0.1,1,0.4,2.2,1.3,3.2
						c0.4,0.5,1,0.9,1.7,1.2c0.7,0.3,1.4,0.4,2.1,0.6c1.5,0.3,3.1,0.4,4.8,0.4c3.4,0,7,0,10.9-0.1c3.9,0,7.6-0.1,10.9-0.2
						c1.7,0,3.3,0,4.8-0.1c0.8-0.1,1.5-0.2,2.2-0.5c0.7-0.3,1.2-0.7,1.6-1.3c0.8-1,1.1-2.2,1.2-3.2c0-1,0-1.9,0-2.6
						c0-0.7-0.1-1.3-0.1-1.6c0-0.4-0.1-0.6-0.1-0.6c0,0,0,0.2,0,0.6c0,0.4,0,0.9,0,1.6c0,0.7,0,1.6-0.1,2.6c-0.1,1-0.4,2.1-1.2,3.1
						c-0.4,0.5-0.9,0.9-1.5,1.1c-0.6,0.3-1.3,0.4-2,0.4c-1.5,0.1-3.1,0-4.7,0.1c-3.4,0-7,0.1-10.9,0.1c-3.9,0-7.6,0.1-10.9,0.1
						c-1.7,0-3.2-0.1-4.7-0.4c-0.7-0.1-1.4-0.3-2.1-0.5c-0.6-0.2-1.1-0.6-1.5-1.1c-0.8-0.9-1.1-2.1-1.3-3c-0.1-1-0.1-1.8,0-2.6
						c0-0.7,0-1.3,0-1.6C69.5,336.4,69.5,336.2,69.5,336.2z"/>
				</g>
			</g>
		</g>
		<g>
			<g>
				<g>
					<polygon class="st0" points="285.4,227.3 285.4,232.6 287.4,233.5 284.8,233.5 284.3,236.8 331,241.8 335.6,234.5 					"/>
					<polygon class="st1" points="278.2,238.5 278.8,235.5 284.6,236.2 311.6,239.3 310.6,242.7 					"/>
					<path class="st2" d="M330,244.8l-26.3-2.9l0,0c1.3-4,5.3-6.6,9.5-6.1l20.7,2.5L330,244.8z"/>
				</g>
				<path class="st3" d="M365.4,238.4l0,17.8l-91.4,0.2l0,0c0-4.6,3.7-8.4,8.4-8.4l41.1-0.1l10.5-14.5l26.4,0.1
					C363.2,233.5,365.4,235.7,365.4,238.4z"/>
				<g>
					<path class="st1" d="M365.1,252.7c0,0.1-20.2,0.1-45.1,0.1s-45.1-0.1-45.1-0.1c0-0.1,20.2-0.1,45.1-0.1
						S365.1,252.6,365.1,252.7z"/>
				</g>
				<polygon class="st0" points="453,266.5 417.2,286.6 417.2,282 451.5,264 				"/>
				<polygon class="st1" points="417.2,286.6 445.4,270.7 447.7,274.1 430.3,284.4 430.2,288.9 417.2,296 				"/>
				<polygon class="st1" points="417.2,330.1 445.4,314.3 447.7,317.6 430.3,328 430.2,332.5 417.2,339.5 				"/>
				<path class="st3" d="M342.7,317.3h74.5v-44.4c0-1.2-1-2.2-2.2-2.2h-72.4L342.7,317.3L342.7,317.3L342.7,317.3z"/>
				<rect x="342.7" y="319" class="st3" width="74.5" height="54.5"/>
				<polygon class="st1" points="417.6,363.3 449.3,363.3 449.3,366.2 417.2,369.6 				"/>
				<path class="st1" d="M422.2,374.6L422.2,374.6c1.5,0,2.7-1.2,2.7-2.7v-2.7c0-1.5-1.2-2.7-2.7-2.7l0,0c-1.5,0-2.7,1.2-2.7,2.7
					v2.7C419.4,373.4,420.7,374.6,422.2,374.6z"/>
				<polygon class="st1" points="445.8,365 445.8,355.5 441.5,355.5 441.5,365.6 				"/>
				<rect x="342.7" y="375.5" class="st3" width="74.5" height="17.4"/>
				<path class="st4" d="M342.7,317.3h74.5v-44.4c0-1.2-1-2.2-2.2-2.2h-72.4L342.7,317.3L342.7,317.3L342.7,317.3z"/>
				<rect x="342.7" y="319" class="st4" width="74.5" height="54.5"/>
				<rect x="342.7" y="375.5" class="st4" width="74.5" height="17.4"/>
				<rect x="342.7" y="392.8" class="st3" width="74.5" height="7"/>
				<rect x="279.5" y="264" class="st3" width="80" height="129.2"/>
				<rect x="279.5" y="264" class="st5" width="80" height="129.2"/>
				<rect x="275.3" y="262.2" class="st3" width="31" height="36.3"/>
				<path class="st3" d="M365.4,256v6.9c0,1.6-1.3,2.9-2.9,2.9h-37.7h-49.5V256L365.4,256L365.4,256z"/>
				<path class="st1" d="M324.8,277.5V256h-49.5v17.6c0,2.1,1.7,3.8,3.8,3.8H324.8"/>
				<rect x="295.1" y="258.9" class="st2" width="26.3" height="13.7"/>
				<rect x="289.3" y="259" class="st2" width="1.5" height="1.5"/>
				<rect x="286.5" y="259" class="st2" width="1.5" height="1.5"/>
				<rect x="283.6" y="259" class="st2" width="1.5" height="1.5"/>
				<rect x="277.7" y="259" class="st0" width="4" height="1.5"/>
				<rect x="277.7" y="261.5" class="st0" width="4" height="1.5"/>
				<rect x="277.7" y="264" class="st0" width="4" height="1.5"/>
				<rect x="277.7" y="266.7" class="st0" width="4" height="1.5"/>
				<rect x="283.6" y="261.5" class="st2" width="1.5" height="1.5"/>
				<rect x="289.3" y="261.6" class="st2" width="1.5" height="1.5"/>
				<rect x="289.3" y="264.1" class="st2" width="1.5" height="1.5"/>
				<rect x="286.4" y="261.6" class="st2" width="1.5" height="1.5"/>
				<rect x="286.4" y="264.1" class="st2" width="1.5" height="1.5"/>
				<rect x="283.4" y="264.1" class="st2" width="1.5" height="1.5"/>
				<path class="st3" d="M282,271.3c0,1.4,1.2,2.6,2.6,2.6c1.4,0,2.6-1.2,2.6-2.6c0-1.4-1.2-2.6-2.6-2.6
					C283.1,268.8,282,269.9,282,271.3z"/>
				<path class="st2" d="M288,271.3c0,0.8,0.7,1.5,1.5,1.5c0.8,0,1.5-0.7,1.5-1.5c0-0.8-0.7-1.5-1.5-1.5
					C288.7,269.8,288,270.5,288,271.3z"/>
				<path class="st2" d="M278,271.3c0,0.8,0.7,1.5,1.5,1.5c0.8,0,1.5-0.7,1.5-1.5c0-0.8-0.7-1.5-1.5-1.5
					C278.7,269.8,278,270.5,278,271.3z"/>
				<path class="st3" d="M275.3,339.1h90.1v-38.6c0-1.1-0.9-2-2-2h-88V339.1L275.3,339.1z"/>
				<path class="st3" d="M275.3,354.7h90.1v-13.1c0-0.9-0.7-1.6-1.6-1.6h-87.3c-0.6,0-1.1,0.5-1.1,1.1V354.7L275.3,354.7z"/>
				<path class="st5" d="M307.3,346.8h26.4c0.7,0,1.2-0.5,1.2-1.2V340h-28.8v5.6C306.1,346.2,306.6,346.8,307.3,346.8z"/>
				<path class="st3" d="M275.3,385.1h90.1V357c0-0.9-0.8-1.7-1.7-1.7H277c-0.9,0-1.7,0.8-1.7,1.7L275.3,385.1L275.3,385.1z"/>
				<path class="st5" d="M307.3,362.1h26.4c0.7,0,1.2-0.5,1.2-1.2v-5.6h-28.8v5.6C306.1,361.6,306.6,362.1,307.3,362.1z"/>
				<rect x="275.3" y="386.6" class="st3" width="90.1" height="13.3"/>
				<rect x="306.3" y="288.6" class="st1" width="35.3" height="2.2"/>
				<rect x="306.2" y="280.3" class="st0" width="47.6" height="8.3"/>
				<g>
					<path class="st6" d="M306.4,260.7c0,0.1,2.9,0.2,6.6,0.2s6.6-0.1,6.6-0.2c0-0.1-2.9-0.2-6.6-0.2
						C309.3,260.6,306.4,260.6,306.4,260.7z"/>
				</g>
				<g>
					<path class="st6" d="M314,262.8c0,0.1,1.3,0.2,2.8,0.2c1.5,0,2.8-0.1,2.8-0.2c0-0.1-1.3-0.2-2.8-0.2
						C315.2,262.7,314,262.8,314,262.8z"/>
				</g>
				<g>
					<path class="st6" d="M314,265.1c0,0.1,1.3,0.2,2.8,0.2c1.5,0,2.8-0.1,2.8-0.2s-1.3-0.2-2.8-0.2C315.2,264.9,314,265,314,265.1z
						"/>
				</g>
				<g>
					<path class="st6" d="M313.8,268.8c0,0.1,1.3,0.2,2.8,0.2c1.5,0,2.8-0.1,2.8-0.2c0-0.1-1.3-0.2-2.8-0.2
						C315,268.6,313.8,268.7,313.8,268.8z"/>
				</g>
				<g>
					<path class="st6" d="M298.6,268.8c0,0.1,1.3,0.2,2.8,0.2c1.5,0,2.8-0.1,2.8-0.2c0-0.1-1.3-0.2-2.8-0.2S298.6,268.7,298.6,268.8
						z"/>
				</g>
				<rect x="275.3" y="386.6" class="st7" width="90.1" height="13.3"/>
				<g>
					<path class="st1" d="M275.3,335.2c0,0.1,20.1,0.2,45,0.2c24.8,0,45-0.1,45-0.2c0-0.1-20.1-0.2-45-0.2
						C295.5,335,275.3,335.1,275.3,335.2z"/>
				</g>
				<g>
					<path class="st1" d="M275.3,331.9c0,0.1,20.1,0.2,45,0.2c24.8,0,45-0.1,45-0.2s-20.1-0.2-45-0.2
						C295.5,331.7,275.3,331.8,275.3,331.9z"/>
				</g>
				<g>
					<path class="st1" d="M275.3,328.5c0,0.1,20.1,0.2,45,0.2c24.8,0,45-0.1,45-0.2c0-0.1-20.1-0.2-45-0.2
						C295.5,328.4,275.3,328.5,275.3,328.5z"/>
				</g>
				<g>
					<path class="st1" d="M275.3,325.3c0,0.1,20.1,0.2,45,0.2c24.8,0,45-0.1,45-0.2c0-0.1-20.1-0.2-45-0.2
						C295.5,325.1,275.3,325.2,275.3,325.3z"/>
				</g>
				<g>
					<path class="st1" d="M275.2,354.7c0,0.1,20.2,0.2,45.1,0.2c24.9,0,45.2-0.1,45.2-0.2s-20.2-0.2-45.2-0.2
						C295.4,354.5,275.2,354.6,275.2,354.7z"/>
				</g>
				<g>
					<path class="st1" d="M275.2,385.1c0,0.1,20.2,0.2,45.1,0.2c24.9,0,45.2-0.1,45.2-0.2s-20.2-0.2-45.2-0.2
						C295.4,384.9,275.2,385,275.2,385.1z"/>
				</g>
				<g>
					<path class="st1" d="M306.1,340c0,0,0,0.1,0,0.4c0,0.3,0,0.7-0.1,1.1c0,0.5-0.1,1.1,0,1.8c0.1,0.7,0.3,1.5,0.9,2.3
						c0.3,0.4,0.7,0.7,1.2,0.9c0.5,0.2,1,0.3,1.5,0.4c1,0.2,2.2,0.3,3.4,0.3c2.4,0,4.9,0,7.7-0.1c2.7,0,5.3-0.1,7.7-0.1
						c1.2,0,2.3,0,3.4-0.1c0.5,0,1-0.1,1.5-0.3c0.5-0.2,0.9-0.5,1.1-0.9c0.6-0.7,0.8-1.6,0.8-2.3c0-0.7,0-1.3,0-1.8
						c0-0.5,0-0.9-0.1-1.1c0-0.3,0-0.4,0-0.4s0,0.1,0,0.4c0,0.3,0,0.7,0,1.1c0,0.5,0,1.1,0,1.8c-0.1,0.7-0.3,1.5-0.8,2.2
						c-0.3,0.3-0.6,0.6-1.1,0.8s-0.9,0.3-1.4,0.3c-1,0-2.2,0-3.3,0c-2.4,0-4.9,0.1-7.7,0.1s-5.3,0.1-7.7,0.1c-1.2,0-2.3-0.1-3.3-0.3
						c-0.5-0.1-1-0.2-1.4-0.4c-0.5-0.2-0.8-0.5-1.1-0.8c-0.6-0.7-0.8-1.5-0.9-2.1c-0.1-0.7,0-1.3,0-1.8c0-0.5,0-0.9,0-1.2
						C306.1,340.1,306.1,340,306.1,340z"/>
				</g>
				<g>
					<path class="st1" d="M306.1,355c0,0,0,0.1,0,0.4c0,0.3,0,0.7-0.1,1.1c0,0.5-0.1,1.1,0,1.8c0.1,0.7,0.3,1.5,0.9,2.3
						c0.3,0.4,0.7,0.7,1.2,0.9c0.5,0.2,1,0.3,1.5,0.4c1,0.2,2.2,0.3,3.4,0.3c2.4,0,4.9,0,7.7-0.1c2.7,0,5.3-0.1,7.7-0.1
						c1.2,0,2.3,0,3.4-0.1c0.5,0,1-0.1,1.5-0.3c0.5-0.2,0.9-0.5,1.1-0.9c0.6-0.7,0.8-1.6,0.8-2.3c0-0.7,0-1.3,0-1.8
						c0-0.5,0-0.9-0.1-1.1c0-0.3,0-0.4,0-0.4s0,0.1,0,0.4c0,0.3,0,0.7,0,1.1c0,0.5,0,1.1,0,1.8c-0.1,0.7-0.3,1.5-0.8,2.2
						c-0.3,0.3-0.6,0.6-1.1,0.8s-0.9,0.3-1.4,0.3c-1,0-2.2,0-3.3,0c-2.4,0-4.9,0.1-7.7,0.1c-2.7,0-5.3,0.1-7.7,0.1
						c-1.2,0-2.3-0.1-3.3-0.3c-0.5-0.1-1-0.2-1.4-0.4c-0.5-0.2-0.8-0.5-1.1-0.8c-0.6-0.7-0.8-1.5-0.9-2.1c-0.1-0.7,0-1.3,0-1.8
						c0-0.5,0-0.9,0-1.2C306.1,355.2,306.1,355,306.1,355z"/>
				</g>
			</g>
		</g>
		<g>
			<path class="st2" d="M280.1,171.6H264l-47,28.3c0.2,0.3,5.7,4.3,13,9.4l-68,125.2l-56.9-25.1l-50.4,90.5h27.5l34.7-63.4
				l52.2,24.2l22.1,2.6l59.9-138.9c7.5,5.4,13.3,9.4,13.3,9.4h16.1c0,0-4.7-39.4-4.7-39.7C275.9,193.8,280.1,171.6,280.1,171.6z"/>
			<path class="st5" d="M280.1,171.6H264l-47,28.3c0.2,0.3,5.7,4.3,13,9.4l-68,125.2l-56.9-25.1l-50.4,90.5h27.5l34.7-63.4
				l52.2,24.2l22.1,2.6l59.9-138.9c7.5,5.4,13.3,9.4,13.3,9.4h16.1c0,0-4.7-39.4-4.7-39.7C275.9,193.8,280.1,171.6,280.1,171.6z"/>
			<polygon class="st2" points="71,399.9 121.6,308.6 178.3,334.5 251.4,199.8 273.2,211.3 191.3,363.3 133.2,336.5 98.5,399.9 			
				"/>
			<path class="st2" d="M233.1,199.8c0.5,0.8,47.5,34,47.5,34l-0.5-62.2L233.1,199.8z"/>
			<g>
				<path class="st1" d="M233.1,199.8c0,0.1-3.6,0.2-8.1,0.2c-4.5,0-8.1-0.1-8.1-0.2s3.6-0.2,8.1-0.2
					C229.5,199.7,233.1,199.8,233.1,199.8z"/>
			</g>
			<g>
				<path class="st1" d="M245.7,209.6c0,0.1-3.6,0.2-8.1,0.2c-4.5,0-8.1-0.1-8.1-0.2c0-0.1,3.6-0.2,8.1-0.2
					C242.1,209.4,245.7,209.5,245.7,209.6z"/>
			</g>
		</g>
		<g>
			<g>
				<polygon class="st2" points="413,215.4 386.7,223.5 393.1,227.5 410.8,238.5 416.4,242 				"/>
			</g>
			<g>
				<g>
					<polygon class="st2" points="294.5,352 278.7,344.1 316.2,286.1 331.5,300.7 361.3,253.4 376.2,264.3 402.9,220.7 411.8,224.9 
						379,283.8 362.3,268.3 333.9,321.3 319,303.8 					"/>
				</g>
			</g>
		</g>
		<g>
			<g>
				<g>
					<polygon class="st0" points="185.9,249.5 185.9,254.1 187.6,254.9 185.4,254.9 185,257.8 225.7,262.1 229.7,255.8 					"/>
					<polygon class="st1" points="179.6,259.3 180.1,256.6 185.2,257.2 208.7,259.9 207.9,262.9 					"/>
					<path class="st2" d="M224.8,264.7l-22.9-2.5l0,0c1.1-3.5,4.6-5.8,8.3-5.4l18,2.2L224.8,264.7z"/>
				</g>
				<path class="st3" d="M255.6,259.1l0,15.5l-79.7,0.2l0,0c0-4,3.3-7.3,7.3-7.4l35.9-0.1l9.2-12.6l23,0.1
					C253.7,254.9,255.6,256.8,255.6,259.1z"/>
				<g>
					<path class="st1" d="M255.4,271.6c0,0.1-17.6,0.1-39.3,0.1c-21.7,0-39.3,0-39.3-0.1s17.6-0.1,39.3-0.1S255.4,271.5,255.4,271.6
						z"/>
				</g>
				<polygon class="st0" points="332,283.6 300.8,301.1 300.8,297.1 330.6,281.5 				"/>
				<polygon class="st1" points="300.8,301.1 325.3,287.3 327.4,290.2 312.2,299.2 312.1,303.2 300.8,309.3 				"/>
				<polygon class="st1" points="300.8,339.1 325.3,325.3 327.4,328.2 312.2,337.2 312.1,341.1 300.8,347.3 				"/>
				<path class="st3" d="M235.8,327.9h65v-38.4c0-1.2-1-2.2-2.2-2.2h-62.8L235.8,327.9L235.8,327.9z"/>
				<rect x="235.8" y="329.4" class="st3" width="65" height="47.5"/>
				<polygon class="st1" points="301.1,368 328.7,368 328.7,370.5 300.8,373.5 				"/>
				<path class="st1" d="M305.1,377.9L305.1,377.9c1.3,0,2.4-1.1,2.4-2.4v-2.4c0-1.3-1.1-2.4-2.4-2.4l0,0c-1.3,0-2.4,1.1-2.4,2.4
					v2.4C302.7,376.8,303.8,377.9,305.1,377.9z"/>
				<polygon class="st1" points="325.7,369.4 325.7,361.2 322,361.2 322,370 				"/>
				<rect x="235.8" y="378.6" class="st3" width="64.9" height="15.1"/>
				<path class="st4" d="M235.8,327.9h65v-38.4c0-1.2-1-2.2-2.2-2.2h-62.8L235.8,327.9L235.8,327.9z"/>
				<rect x="235.8" y="329.4" class="st4" width="65" height="47.5"/>
				<rect x="235.8" y="378.6" class="st4" width="64.9" height="15.1"/>
				<rect x="235.8" y="393.7" class="st3" width="64.9" height="6.1"/>
				<rect x="180.7" y="281.5" class="st3" width="69.7" height="112.6"/>
				<rect x="180.7" y="281.5" class="st5" width="69.7" height="112.6"/>
				<rect x="177.1" y="279.9" class="st3" width="27" height="31.6"/>
				<path class="st3" d="M255.7,274.5v6c0,1.4-1.1,2.5-2.5,2.5h-32.9h-43.2v-8.6H255.7z"/>
				<path class="st1" d="M220.3,293.2v-18.7h-43.2v15.3c0,1.8,1.5,3.3,3.3,3.3H220.3"/>
				<rect x="194.3" y="277" class="st2" width="22.9" height="11.9"/>
				<rect x="189.3" y="277" class="st2" width="1.3" height="1.3"/>
				<rect x="186.8" y="277" class="st2" width="1.3" height="1.3"/>
				<rect x="184.3" y="277" class="st2" width="1.3" height="1.3"/>
				<rect x="179.1" y="277" class="st0" width="3.5" height="1.3"/>
				<rect x="179.1" y="279.2" class="st0" width="3.5" height="1.3"/>
				<rect x="179.1" y="281.5" class="st0" width="3.5" height="1.3"/>
				<rect x="179.1" y="283.8" class="st0" width="3.5" height="1.3"/>
				<rect x="184.3" y="279.3" class="st2" width="1.3" height="1.3"/>
				<rect x="189.3" y="279.4" class="st2" width="1.3" height="1.3"/>
				<rect x="189.3" y="281.5" class="st2" width="1.3" height="1.3"/>
				<rect x="186.7" y="279.4" class="st2" width="1.3" height="1.3"/>
				<rect x="186.7" y="281.5" class="st2" width="1.3" height="1.3"/>
				<rect x="184.2" y="281.5" class="st2" width="1.3" height="1.3"/>
				<path class="st3" d="M182.9,287.8c0,1.2,1,2.2,2.2,2.2c1.2,0,2.2-1,2.2-2.2s-1-2.2-2.2-2.2C183.9,285.6,182.9,286.6,182.9,287.8
					z"/>
				<path class="st2" d="M188.2,287.8c0,0.7,0.6,1.3,1.3,1.3s1.3-0.6,1.3-1.3s-0.6-1.3-1.3-1.3S188.2,287.1,188.2,287.8z"/>
				<path class="st2" d="M179.4,287.9c0,0.7,0.6,1.3,1.3,1.3s1.3-0.6,1.3-1.3s-0.6-1.3-1.3-1.3S179.4,287.1,179.4,287.9z"/>
				<path class="st3" d="M177.1,346.9h78.5v-33.4c0-1.1-0.9-2-2-2h-76.5V346.9z"/>
				<path class="st3" d="M177.1,360.5h78.5v-11.2c0-0.9-0.7-1.6-1.6-1.6h-75.8c-0.6,0-1.1,0.5-1.1,1.1V360.5z"/>
				<path class="st5" d="M205.1,353.6h22.7c0.7,0,1.2-0.5,1.2-1.2v-4.7h-25.1v4.7C203.9,353.1,204.5,353.6,205.1,353.6z"/>
				<path class="st3" d="M177.1,387h78.5v-24.3c0-0.9-0.8-1.7-1.7-1.7h-75.1c-0.9,0-1.7,0.8-1.7,1.7V387L177.1,387z"/>
				<path class="st5" d="M205.1,367h22.7c0.7,0,1.2-0.5,1.2-1.2V361h-25.1v4.7C203.9,366.4,204.5,367,205.1,367z"/>
				<rect x="177.1" y="388.3" class="st3" width="78.5" height="11.6"/>
				<rect x="204.1" y="302.9" class="st1" width="30.8" height="1.9"/>
				<rect x="204.1" y="295.7" class="st0" width="41.5" height="7.2"/>
				<g>
					<path class="st6" d="M204.2,278.6c0,0.1,2.6,0.1,5.7,0.1c3.1,0,5.7-0.1,5.7-0.1s-2.6-0.1-5.7-0.1
						C206.8,278.5,204.2,278.5,204.2,278.6z"/>
				</g>
				<g>
					<path class="st6" d="M210.8,280.4c0,0.1,1.1,0.1,2.4,0.1c1.3,0,2.4-0.1,2.4-0.1s-1.1-0.1-2.4-0.1
						C211.9,280.3,210.8,280.4,210.8,280.4z"/>
				</g>
				<g>
					<path class="st6" d="M210.8,282.4c0,0.1,1.1,0.1,2.4,0.1c1.3,0,2.4-0.1,2.4-0.1c0-0.1-1.1-0.1-2.4-0.1
						C211.9,282.3,210.8,282.3,210.8,282.4z"/>
				</g>
				<g>
					<path class="st6" d="M210.6,285.6c0,0.1,1.1,0.1,2.4,0.1c1.3,0,2.4-0.1,2.4-0.1s-1.1-0.1-2.4-0.1
						C211.7,285.5,210.6,285.5,210.6,285.6z"/>
				</g>
				<g>
					<path class="st6" d="M197.4,285.6c0,0.1,1.1,0.1,2.4,0.1c1.3,0,2.4-0.1,2.4-0.1s-1.1-0.1-2.4-0.1
						C198.4,285.5,197.4,285.5,197.4,285.6z"/>
				</g>
				<rect x="177.1" y="388.3" class="st7" width="78.5" height="11.6"/>
				<g>
					<path class="st1" d="M177.1,343.5c0,0.1,17.5,0.1,39.2,0.1c21.6,0,39.2-0.1,39.2-0.1c0-0.1-17.5-0.1-39.2-0.1
						C194.7,343.3,177.1,343.4,177.1,343.5z"/>
				</g>
				<g>
					<path class="st1" d="M177.1,340.6c0,0.1,17.5,0.1,39.2,0.1c21.6,0,39.2-0.1,39.2-0.1s-17.5-0.1-39.2-0.1
						C194.7,340.5,177.1,340.5,177.1,340.6z"/>
				</g>
				<g>
					<path class="st1" d="M177.1,337.7c0,0.1,17.5,0.1,39.2,0.1c21.6,0,39.2-0.1,39.2-0.1c0-0.1-17.5-0.1-39.2-0.1
						C194.7,337.6,177.1,337.6,177.1,337.7z"/>
				</g>
				<g>
					<path class="st1" d="M177.1,334.8c0,0.1,17.5,0.1,39.2,0.1c21.6,0,39.2-0.1,39.2-0.1s-17.5-0.1-39.2-0.1
						C194.7,334.7,177.1,334.8,177.1,334.8z"/>
				</g>
				<g>
					<path class="st1" d="M177,360.5c0,0.1,17.6,0.1,39.4,0.1s39.4-0.1,39.4-0.1c0-0.1-17.6-0.1-39.4-0.1S177,360.4,177,360.5z"/>
				</g>
				<g>
					<path class="st1" d="M177,387c0,0.1,17.6,0.1,39.4,0.1s39.4-0.1,39.4-0.1s-17.6-0.1-39.4-0.1S177,386.9,177,387z"/>
				</g>
				<g>
					<path class="st1" d="M203.9,347.7c0,0,0,0.1,0,0.4c0,0.3,0,0.6-0.1,1c0,0.4-0.1,1,0,1.6c0.1,0.6,0.3,1.3,0.8,2
						c0.3,0.3,0.6,0.6,1,0.7s0.9,0.3,1.3,0.4c0.9,0.2,1.9,0.3,2.9,0.3c2.1,0,4.3,0,6.7,0c2.4,0,4.6-0.1,6.7-0.1c1,0,2,0,2.9-0.1
						c0.5,0,0.9-0.1,1.3-0.3c0.4-0.2,0.8-0.4,1-0.8c0.5-0.6,0.7-1.4,0.7-2c0-0.6,0-1.2,0-1.6c0-0.4,0-0.8-0.1-1c0-0.2,0-0.4,0-0.4
						s0,0.1,0,0.4c0,0.3,0,0.6,0,1c0,0.4,0,1,0,1.6c0,0.6-0.2,1.3-0.7,1.9c-0.2,0.3-0.5,0.5-0.9,0.7c-0.4,0.2-0.8,0.2-1.3,0.3
						c-0.9,0-1.9,0-2.9,0c-2.1,0-4.3,0-6.7,0.1c-2.4,0-4.6,0.1-6.7,0.1c-1,0-2-0.1-2.9-0.2c-0.4-0.1-0.9-0.2-1.3-0.3
						c-0.4-0.1-0.7-0.4-0.9-0.7c-0.5-0.6-0.7-1.3-0.8-1.9c-0.1-0.6,0-1.1,0-1.6c0-0.4,0-0.8,0-1C204,347.8,203.9,347.7,203.9,347.7z
						"/>
				</g>
				<g>
					<path class="st1" d="M203.9,360.8c0,0,0,0.1,0,0.4c0,0.3,0,0.6-0.1,1c0,0.4-0.1,1,0,1.6c0.1,0.6,0.3,1.3,0.8,2
						c0.3,0.3,0.6,0.6,1,0.7c0.4,0.2,0.9,0.3,1.3,0.4c0.9,0.2,1.9,0.3,2.9,0.3c2.1,0,4.3,0,6.7,0c2.4,0,4.6-0.1,6.7-0.1
						c1,0,2,0,2.9-0.1c0.5,0,0.9-0.1,1.3-0.3c0.4-0.2,0.8-0.5,1-0.8c0.5-0.6,0.7-1.4,0.7-2c0-0.6,0-1.2,0-1.6c0-0.4,0-0.8-0.1-1
						c0-0.2,0-0.4,0-0.4s0,0.1,0,0.4c0,0.3,0,0.6,0,1c0,0.4,0,1,0,1.6c0,0.6-0.2,1.3-0.7,1.9c-0.2,0.3-0.5,0.5-0.9,0.7
						c-0.4,0.2-0.8,0.2-1.3,0.3c-0.9,0-1.9,0-2.9,0c-2.1,0-4.3,0-6.7,0.1c-2.4,0-4.6,0.1-6.7,0.1c-1,0-2-0.1-2.9-0.2
						c-0.4-0.1-0.9-0.2-1.3-0.3c-0.4-0.1-0.7-0.4-0.9-0.7c-0.5-0.6-0.7-1.3-0.8-1.9c-0.1-0.6,0-1.1,0-1.6c0-0.4,0-0.8,0-1
						C204,360.9,203.9,360.8,203.9,360.8z"/>
				</g>
			</g>
		</g>
	</g>
</g>
</svg>
