<?xml version="1.0" encoding="utf-8"?>
<!-- Generator: Adobe Illustrator 27.8.0, SVG Export Plug-In . SVG Version: 6.00 Build 0)  -->
<svg version="1.1" id="Camada_1" xmlns="http://www.w3.org/2000/svg" xmlns:xlink="http://www.w3.org/1999/xlink" x="0px" y="0px"
	 viewBox="0 0 1912.7 1283.8" style="enable-background:new 0 0 1912.7 1283.8;" xml:space="preserve">
<style type="text/css">
	.st0{fill:#F5F5F5;}
	.st1{fill:#1A2E35;}
	.st2{fill:#375A64;}
	.st3{fill:#FF4F5B;}
	.st4{opacity:0.6;enable-background:new    ;}
	.st5{opacity:0.3;enable-background:new    ;}
	.st6{fill:#FAFAFA;}
	.st7{opacity:0.5;fill:#FFFFFF;enable-background:new    ;}
</style>
<g>
	<rect x="112.2" y="482.2" class="st0" width="211.8" height="797.5"/>
	<rect x="1259.8" y="747.4" class="st0" width="211.8" height="527.9"/>
	<rect x="1583.3" y="332.5" class="st0" width="211.8" height="942.8"/>
	<rect x="901" y="366.7" class="st0" width="211.8" height="908.6"/>
	<rect x="476.1" y="109.5" class="st0" width="211.8" height="1165.8"/>
	<g>
		<g>
			<path class="st0" d="M1667.8,64.6c6.8-4.1,14.1-7.2,21.5-9.4l4.4-21.3l36-0.6l5.2,21.1c7.5,1.9,14.9,4.7,21.8,8.6l18.2-11.9
				l25.9,25l-11.3,18.6c4.1,6.8,7.2,14.1,9.4,21.5l21.3,4.4l0.6,36l-21.1,5.2c-1.9,7.5-4.7,14.9-8.6,21.8l11.9,18.2l-25,25.9
				l-18.6-11.3c-6.8,4.1-14.1,7.2-21.5,9.4l-4.4,21.3l-36,0.6l-5.2-21.1c-7.5-1.9-14.9-4.7-21.8-8.6l-18.2,11.9l-25.9-25l11.3-18.6
				c-4.1-6.8-7.2-14.1-9.4-21.5l-21.3-4.4l-0.6-36l21.1-5.2c1.9-7.5,4.7-14.9,8.6-21.8l-11.9-18.2l25-25.9L1667.8,64.6L1667.8,64.6z
				 M1687,112.5c-14.8,15.3-14.4,39.8,1,54.6c15.3,14.8,39.8,14.4,54.6-1c14.8-15.3,14.4-39.8-1-54.6
				C1726.2,96.8,1701.8,97.2,1687,112.5z"/>
		</g>
	</g>
	<g>
		<path class="st1" d="M1864.9,1280.7c0,0.6-417.5,1-932.4,1c-515.1,0-932.5-0.5-932.5-1c0-0.6,417.4-1,932.5-1
			C1447.4,1279.7,1864.9,1280.2,1864.9,1280.7z"/>
	</g>
	<g>
		<g>
			<g>
				<g>
					<polygon class="st0" points="169.3,248.6 169.4,280.2 181.2,285.4 165.7,285.4 162.8,305.3 442.8,335.5 470.7,291.6 					"/>
					<polygon class="st1" points="126,315.7 129.7,297.3 164.3,301.4 326.4,320.3 320.4,340.4 					"/>
					<path class="st2" d="M436.9,353.2l-157.7-17.3l0,0c7.6-24.4,31.5-39.8,56.9-36.8l124.3,15L436.9,353.2z"/>
				</g>
				<path class="st3" d="M649.1,314.6l0.3,106.6l-548.2,1.4l0,0c-0.1-27.9,22.5-50.6,50.4-50.6l246.7-0.6l63.3-86.7l158.5,0.8
					C636,285.5,649,298.6,649.1,314.6z"/>
				<g>
					<path class="st1" d="M647.2,400.6c0,0.5-121.2,0.9-270.7,0.9c-149.6,0-270.8-0.4-270.8-0.9s121.2-0.9,270.8-0.9
						C525.9,399.6,647.2,400.1,647.2,400.6z"/>
				</g>
				<polygon class="st0" points="1174.5,483.2 959.8,603.5 959.8,576.1 1165.1,468.6 				"/>
				<polygon class="st1" points="959.8,603.5 1128.6,508.7 1142.7,528.9 1038.4,590.8 1037.8,617.7 959.8,660.1 				"/>
				<polygon class="st1" points="959.8,864.7 1128.6,769.9 1142.7,790 1038.4,851.9 1037.8,878.8 959.8,921.2 				"/>
				<path class="st3" d="M512.8,788.1h447V518c0-5.1-4.1-9.3-9.3-9.3H512.8V788.1z"/>
				<rect x="512.8" y="798.5" class="st3" width="447" height="327"/>
				<polygon class="st1" points="962.3,1063.6 1152,1063.6 1152,1081 959.7,1101.6 				"/>
				<path class="st1" d="M989.6,1131.8L989.6,1131.8c9.1,0,16.4-7.3,16.4-16.4V1099c0-9.1-7.3-16.4-16.4-16.4l0,0
					c-9.1,0-16.4,7.3-16.4,16.4v16.4C973.2,1124.5,980.6,1131.8,989.6,1131.8z"/>
				<polygon class="st1" points="1131.5,1073.9 1131.5,1017.3 1105.7,1017.3 1105.7,1077.8 				"/>
				<rect x="512.7" y="1137" class="st3" width="446.9" height="104.1"/>
				<path class="st4" d="M512.8,788.1h447V518c0-5.1-4.1-9.3-9.3-9.3H512.8V788.1z"/>
				<rect x="512.8" y="798.5" class="st4" width="447" height="327"/>
				<rect x="512.7" y="1137" class="st4" width="446.9" height="104.1"/>
				<rect x="512.7" y="1241.1" class="st3" width="446.9" height="42.2"/>
				<rect x="133.8" y="468.4" class="st3" width="479.6" height="775.1"/>
				<rect x="133.8" y="468.4" class="st5" width="479.6" height="775.1"/>
				<rect x="108.5" y="457.6" class="st3" width="185.7" height="217.5"/>
				<path class="st3" d="M649.3,420.7v41.5c0,9.7-7.8,17.5-17.5,17.5H405.6h-297v-59H649.3z"/>
				<path class="st1" d="M405.6,549.3V420.7h-297v105.6c0,12.7,10.3,23,23,23H405.6"/>
				<rect x="227.3" y="438" class="st2" width="157.6" height="82"/>
				<rect x="192.6" y="438" class="st2" width="8.8" height="8.8"/>
				<rect x="175.5" y="438" class="st2" width="8.8" height="8.8"/>
				<rect x="158.4" y="438" class="st2" width="8.8" height="8.8"/>
				<rect x="122.8" y="438" class="st0" width="23.9" height="8.8"/>
				<rect x="122.8" y="453.2" class="st0" width="23.9" height="8.8"/>
				<rect x="122.8" y="468.4" class="st0" width="23.9" height="8.8"/>
				<rect x="122.8" y="484.7" class="st0" width="23.9" height="8.8"/>
				<rect x="158.4" y="453.5" class="st2" width="8.8" height="8.8"/>
				<rect x="192.6" y="454" class="st2" width="8.8" height="8.8"/>
				<rect x="192.6" y="468.7" class="st2" width="8.8" height="8.8"/>
				<rect x="175" y="454" class="st2" width="8.8" height="8.8"/>
				<rect x="175" y="468.7" class="st2" width="8.8" height="8.8"/>
				<rect x="157.7" y="468.7" class="st2" width="8.8" height="8.8"/>
				<path class="st3" d="M148.5,512.3c0,8.5,6.9,15.4,15.4,15.4s15.4-6.9,15.4-15.4s-6.9-15.4-15.4-15.4S148.5,503.8,148.5,512.3z"
					/>
				<path class="st2" d="M185.1,512.3c0,5,4.1,9.1,9.1,9.1s9.1-4.1,9.1-9.1s-4.1-9.1-9.1-9.1S185.1,507.3,185.1,512.3z"/>
				<path class="st2" d="M124.7,512.5c0,5,4.1,9.1,9.1,9.1s9.1-4.1,9.1-9.1s-4.1-9.1-9.1-9.1C128.8,503.4,124.7,507.4,124.7,512.5z"
					/>
				<path class="st3" d="M108.6,918.8h540.2V683.7c0-4.7-3.8-8.6-8.6-8.6H108.6V918.8z"/>
				<path class="st3" d="M108.6,1012.4h540.2v-81.7c0-3.7-3-6.8-6.8-6.8H113.3c-2.6,0-4.7,2.1-4.7,4.7
					C108.6,928.6,108.6,1012.4,108.6,1012.4z"/>
				<path class="st5" d="M298.5,964.9H461c2.9,0,5.2-2.3,5.2-5.2v-35.8H293.3v35.8C293.3,962.6,295.7,964.9,298.5,964.9z"/>
				<path class="st3" d="M108.6,1194.6h540.2V1023c0-3.9-3.2-7.1-7.1-7.1h-526c-3.9,0-7.1,3.2-7.1,7.1
					C108.6,1023,108.6,1194.6,108.6,1194.6z"/>
				<path class="st5" d="M298.5,1056.9H461c2.9,0,5.2-2.3,5.2-5.2v-35.8H293.3v35.8C293.3,1054.5,295.7,1056.9,298.5,1056.9z"/>
				<rect x="108.5" y="1203.7" class="st3" width="540.2" height="79.5"/>
				<rect x="294.2" y="615.9" class="st1" width="212" height="13.3"/>
				<rect x="294.2" y="566.3" class="st0" width="285.3" height="49.6"/>
				<g>
					<path class="st6" d="M295.1,448.8c0,0.5,17.6,0.9,39.3,0.9c21.7,0,39.3-0.4,39.3-0.9s-17.6-0.9-39.3-0.9
						C312.7,447.9,295.1,448.3,295.1,448.8z"/>
				</g>
				<g>
					<path class="st6" d="M340.4,461.5c0,0.5,7.5,0.9,16.7,0.9s16.7-0.4,16.7-0.9s-7.5-0.9-16.7-0.9
						C347.9,460.5,340.4,461,340.4,461.5z"/>
				</g>
				<g>
					<path class="st6" d="M340.4,474.9c0,0.5,7.5,0.9,16.7,0.9s16.7-0.4,16.7-0.9s-7.5-0.9-16.7-0.9S340.4,474.4,340.4,474.9z"/>
				</g>
				<g>
					<path class="st6" d="M339.4,496.9c0,0.5,7.5,0.9,16.7,0.9s16.7-0.4,16.7-0.9s-7.5-0.9-16.7-0.9S339.4,496.4,339.4,496.9z"/>
				</g>
				<g>
					<path class="st6" d="M248.2,496.9c0,0.5,7.5,0.9,16.7,0.9s16.7-0.4,16.7-0.9s-7.5-0.9-16.7-0.9
						C255.6,496,248.2,496.4,248.2,496.9z"/>
				</g>
				<rect x="108.5" y="1203.7" class="st7" width="540.2" height="79.5"/>
				<g>
					<path class="st1" d="M108.9,895.1c0,0.5,120.7,0.9,269.6,0.9s269.6-0.4,269.6-0.9s-120.7-0.9-269.6-0.9
						S108.9,894.6,108.9,895.1z"/>
				</g>
				<g>
					<path class="st1" d="M108.9,875.3c0,0.5,120.7,0.9,269.6,0.9s269.6-0.4,269.6-0.9s-120.7-0.9-269.6-0.9
						S108.9,874.8,108.9,875.3z"/>
				</g>
				<g>
					<path class="st1" d="M108.9,855.5c0,0.5,120.7,0.9,269.6,0.9s269.6-0.4,269.6-0.9s-120.7-0.9-269.6-0.9S108.9,855,108.9,855.5z
						"/>
				</g>
				<g>
					<path class="st1" d="M108.9,835.7c0,0.5,120.7,0.9,269.6,0.9s269.6-0.4,269.6-0.9s-120.7-0.9-269.6-0.9
						S108.9,835.2,108.9,835.7z"/>
				</g>
				<g>
					<path class="st1" d="M108.1,1012.3c0,0.5,121.3,0.9,270.8,0.9c149.6,0,270.8-0.4,270.8-0.9s-121.2-0.9-270.8-0.9
						S108.1,1011.8,108.1,1012.3z"/>
				</g>
				<g>
					<path class="st1" d="M108.1,1194.6c0,0.5,121.3,0.9,270.8,0.9c149.6,0,270.8-0.4,270.8-0.9s-121.2-0.9-270.8-0.9
						S108.1,1194.1,108.1,1194.6z"/>
				</g>
				<g>
					<path class="st1" d="M293.3,923.9c-0.1,0-0.1,0.8-0.2,2.4c-0.1,1.8-0.3,4-0.5,6.9c-0.2,3-0.4,6.7-0.1,11
						c0.4,4.3,1.8,9.3,5.3,13.6c1.8,2.1,4.2,4,7,5.1c2.8,1.2,5.8,1.8,8.9,2.4c6.2,1.2,13,1.7,20.1,1.9c14.2,0.2,29.7-0.2,46.1-0.4
						c16.3-0.2,31.9-0.5,46.1-0.7c7.1-0.2,13.8-0.1,20.1-0.5c3.2-0.3,6.3-0.8,9.1-2c2.8-1.2,5.2-3.1,6.8-5.3c3.4-4.4,4.6-9.4,5-13.7
						c0.2-4.3,0.1-8-0.1-11c-0.1-3-0.3-5.3-0.4-6.9s-0.3-2.4-0.3-2.4c-0.1,0-0.1,0.8-0.1,2.4c0,1.8,0.1,4.1,0.1,6.9
						c0,3,0.1,6.7-0.3,10.9c-0.4,4.1-1.7,8.9-4.9,13c-1.6,2-3.8,3.7-6.4,4.8c-2.6,1.1-5.5,1.6-8.6,1.8c-6.2,0.3-13,0.2-20,0.3
						c-14.2,0.2-29.7,0.4-46.1,0.6c-16.3,0.2-31.9,0.6-46,0.5c-7-0.1-13.7-0.6-19.9-1.7c-3.1-0.6-6-1.2-8.7-2.2
						c-2.6-1-4.8-2.7-6.5-4.6c-3.4-4-4.8-8.7-5.3-12.8c-0.5-4.2-0.3-7.8-0.2-10.8c0.1-3,0.1-5.3,0.1-6.9
						C293.5,924.8,293.4,923.9,293.3,923.9z"/>
				</g>
				<g>
					<path class="st1" d="M293.3,1014.3c-0.1,0-0.1,0.8-0.2,2.4c-0.1,1.8-0.3,4-0.5,6.9c-0.2,3-0.4,6.7-0.1,11
						c0.4,4.3,1.8,9.3,5.3,13.6c1.8,2.1,4.2,4,7,5.1c2.8,1.2,5.8,1.8,8.9,2.4c6.2,1.2,13,1.7,20.1,1.9c14.2,0.2,29.7-0.2,46.1-0.4
						c16.3-0.2,31.9-0.5,46.1-0.7c7.1-0.2,13.8-0.1,20.1-0.5c3.2-0.3,6.3-0.8,9.1-2c2.8-1.2,5.2-3.1,6.8-5.3c3.4-4.4,4.6-9.4,5-13.7
						c0.2-4.3,0.1-8-0.1-11c-0.1-3-0.3-5.3-0.4-6.9s-0.3-2.4-0.3-2.4c-0.1,0-0.1,0.8-0.1,2.4c0,1.8,0.1,4,0.1,6.9
						c0,3,0.1,6.7-0.3,10.8c-0.4,4.1-1.7,8.9-4.9,13c-1.6,2-3.8,3.7-6.4,4.8c-2.6,1.1-5.5,1.6-8.6,1.8c-6.2,0.3-13,0.2-20,0.3
						c-14.2,0.2-29.7,0.4-46.1,0.6c-16.3,0.2-31.9,0.6-46,0.5c-7-0.1-13.7-0.6-19.9-1.7c-3.1-0.6-6-1.2-8.7-2.2
						c-2.6-1-4.8-2.7-6.5-4.6c-3.4-4-4.8-8.7-5.3-12.8c-0.5-4.2-0.3-7.8-0.2-10.8c0.1-3,0.1-5.3,0.1-6.9
						C293.5,1015.1,293.4,1014.3,293.3,1014.3z"/>
				</g>
			</g>
		</g>
		<g>
			<g>
				<g>
					<polygon class="st0" points="1205.1,554.8 1205.2,577.1 1213.5,580.8 1202.6,580.8 1200.5,594.8 1397.6,616 1417.2,585.1 					
						"/>
					<polygon class="st1" points="1174.6,602.1 1177.2,589.1 1201.6,592 1315.7,605.4 1311.4,619.5 					"/>
					<path class="st2" d="M1393.5,628.5l-111-12.2l0,0c5.4-17.1,22.2-28,40-25.9l87.5,10.5L1393.5,628.5z"/>
				</g>
				<path class="st3" d="M1542.8,601.4l0.2,75l-386,1l0,0c-0.1-19.6,15.8-35.6,35.5-35.6l173.7-0.5l44.5-61.1l111.6,0.6
					C1533.7,580.9,1542.8,590,1542.8,601.4z"/>
				<g>
					<path class="st1" d="M1541.5,661.8c0,0.4-85.3,0.6-190.6,0.6c-105.3,0-190.6-0.3-190.6-0.6s85.3-0.6,190.6-0.6
						C1456.2,661.2,1541.5,661.5,1541.5,661.8z"/>
				</g>
				<polygon class="st0" points="1912.7,720 1761.6,804.8 1761.6,785.4 1906.2,709.7 				"/>
				<polygon class="st1" points="1761.6,804.8 1880.5,738 1890.4,752.2 1817,795.8 1816.5,814.7 1761.6,844.5 				"/>
				<polygon class="st1" points="1761.6,988.6 1880.5,921.9 1890.4,936 1817,979.6 1816.5,998.6 1761.6,1028.4 				"/>
				<path class="st3" d="M1446.9,934.7h314.7V747.3c0-5.1-4.1-9.3-9.3-9.3h-305.5v196.7L1446.9,934.7L1446.9,934.7z"/>
				<rect x="1446.9" y="941.9" class="st3" width="314.7" height="230.2"/>
				<polygon class="st1" points="1763.3,1128.7 1896.9,1128.7 1896.9,1140.9 1761.5,1155.4 				"/>
				<path class="st1" d="M1782.6,1176.7L1782.6,1176.7c6.4,0,11.5-5.2,11.5-11.5v-11.5c0-6.4-5.2-11.5-11.5-11.5l0,0
					c-6.4,0-11.5,5.2-11.5,11.5v11.5C1771,1171.5,1776.2,1176.7,1782.6,1176.7z"/>
				<polygon class="st1" points="1882.5,1135.9 1882.5,1096.1 1864.3,1096.1 1864.3,1138.6 				"/>
				<rect x="1446.9" y="1180.3" class="st3" width="314.6" height="73.3"/>
				<path class="st4" d="M1446.9,934.7h314.7V747.3c0-5.1-4.1-9.3-9.3-9.3h-305.5v196.7L1446.9,934.7L1446.9,934.7z"/>
				<rect x="1446.9" y="941.9" class="st4" width="314.7" height="230.2"/>
				<rect x="1446.9" y="1180.3" class="st4" width="314.6" height="73.3"/>
				<rect x="1446.9" y="1253.6" class="st3" width="314.6" height="29.7"/>
				<rect x="1180.1" y="709.6" class="st3" width="337.6" height="545.7"/>
				<rect x="1180.1" y="709.6" class="st5" width="337.6" height="545.7"/>
				<rect x="1162.4" y="702" class="st3" width="130.7" height="153.1"/>
				<path class="st3" d="M1543,676v29.2c0,6.8-5.5,12.3-12.3,12.3h-159.2h-209.1v-41.6L1543,676L1543,676z"/>
				<path class="st1" d="M1371.5,766.6V676h-209.1v74.4c0,8.9,7.2,16.2,16.2,16.2H1371.5"/>
				<rect x="1245.9" y="688.2" class="st2" width="111" height="57.8"/>
				<rect x="1221.5" y="688.3" class="st2" width="6.2" height="6.2"/>
				<rect x="1209.5" y="688.3" class="st2" width="6.2" height="6.2"/>
				<rect x="1197.4" y="688.3" class="st2" width="6.2" height="6.2"/>
				<rect x="1172.4" y="688.3" class="st0" width="16.8" height="6.2"/>
				<rect x="1172.4" y="698.9" class="st0" width="16.8" height="6.2"/>
				<rect x="1172.4" y="709.6" class="st0" width="16.8" height="6.2"/>
				<rect x="1172.4" y="721" class="st0" width="16.8" height="6.2"/>
				<rect x="1197.4" y="699.1" class="st2" width="6.2" height="6.2"/>
				<rect x="1221.5" y="699.5" class="st2" width="6.2" height="6.2"/>
				<rect x="1221.5" y="709.8" class="st2" width="6.2" height="6.2"/>
				<rect x="1209.1" y="699.5" class="st2" width="6.2" height="6.2"/>
				<rect x="1209.1" y="709.8" class="st2" width="6.2" height="6.2"/>
				<rect x="1196.8" y="709.8" class="st2" width="6.2" height="6.2"/>
				<path class="st3" d="M1190.5,740.5c0,6,4.9,10.8,10.8,10.8c6,0,10.8-4.9,10.8-10.8c0-6-4.9-10.8-10.8-10.8
					C1195.3,729.7,1190.5,734.5,1190.5,740.5z"/>
				<path class="st2" d="M1216.2,740.5c0,3.5,2.9,6.4,6.4,6.4s6.4-2.9,6.4-6.4s-2.9-6.4-6.4-6.4
					C1219.1,734.1,1216.2,737,1216.2,740.5z"/>
				<path class="st2" d="M1173.7,740.6c0,3.5,2.9,6.4,6.4,6.4s6.4-2.9,6.4-6.4s-2.9-6.4-6.4-6.4
					C1176.6,734.2,1173.7,737.1,1173.7,740.6z"/>
				<path class="st3" d="M1162.3,1026.7h380.3v-163c0-4.7-3.8-8.6-8.6-8.6h-371.7L1162.3,1026.7L1162.3,1026.7z"/>
				<path class="st3" d="M1162.3,1092.6h380.3v-55.5c0-3.7-3-6.8-6.8-6.8H1167c-2.6,0-4.7,2.1-4.7,4.7L1162.3,1092.6L1162.3,1092.6z
					"/>
				<path class="st5" d="M1297.6,1059.2H1409c2.9,0,5.2-2.3,5.2-5.2v-23.7h-121.8v23.7C1292.4,1056.8,1294.7,1059.2,1297.6,1059.2z"
					/>
				<path class="st3" d="M1162.3,1220.9h380.3v-118.7c0-3.9-3.2-7.1-7.1-7.1h-366c-3.9,0-7.1,3.2-7.1,7.1L1162.3,1220.9
					L1162.3,1220.9z"/>
				<path class="st5" d="M1297.6,1123.9H1409c2.9,0,5.2-2.3,5.2-5.2V1095h-121.8v23.7C1292.4,1121.6,1294.7,1123.9,1297.6,1123.9z"
					/>
				<rect x="1162.4" y="1227.3" class="st3" width="380.3" height="56"/>
				<rect x="1293.1" y="813.4" class="st1" width="149.2" height="9.4"/>
				<rect x="1293" y="778.5" class="st0" width="200.9" height="34.9"/>
				<g>
					<path class="st6" d="M1293.7,695.8c0,0.4,12.4,0.7,27.7,0.7c15.3,0,27.7-0.3,27.7-0.7c0-0.4-12.4-0.7-27.7-0.7
						C1306.1,695.1,1293.7,695.4,1293.7,695.8z"/>
				</g>
				<g>
					<path class="st6" d="M1325.6,704.7c0,0.4,5.3,0.7,11.7,0.7c6.5,0,11.7-0.3,11.7-0.7s-5.3-0.7-11.7-0.7
						C1330.8,704.1,1325.6,704.4,1325.6,704.7z"/>
				</g>
				<g>
					<path class="st6" d="M1325.6,714.2c0,0.4,5.3,0.7,11.7,0.7c6.5,0,11.7-0.3,11.7-0.7c0-0.4-5.3-0.7-11.7-0.7
						C1330.8,713.5,1325.6,713.8,1325.6,714.2z"/>
				</g>
				<g>
					<path class="st6" d="M1324.9,729.7c0,0.4,5.3,0.7,11.7,0.7c6.5,0,11.7-0.3,11.7-0.7c0-0.4-5.3-0.7-11.7-0.7
						C1330.1,729,1324.9,729.3,1324.9,729.7z"/>
				</g>
				<g>
					<path class="st6" d="M1260.6,729.7c0,0.4,5.3,0.7,11.7,0.7c6.5,0,11.7-0.3,11.7-0.7c0-0.4-5.3-0.7-11.7-0.7
						C1265.9,729,1260.6,729.3,1260.6,729.7z"/>
				</g>
				<rect x="1162.4" y="1227.3" class="st7" width="380.3" height="56"/>
				<g>
					<path class="st1" d="M1162.6,1010c0,0.4,85,0.7,189.8,0.7s189.8-0.3,189.8-0.7c0-0.4-85-0.7-189.8-0.7
						C1247.5,1009.4,1162.6,1009.7,1162.6,1010z"/>
				</g>
				<g>
					<path class="st1" d="M1162.6,996.1c0,0.4,85,0.7,189.8,0.7s189.8-0.3,189.8-0.7c0-0.4-85-0.7-189.8-0.7
						C1247.5,995.4,1162.6,995.7,1162.6,996.1z"/>
				</g>
				<g>
					<path class="st1" d="M1162.6,982.1c0,0.4,85,0.7,189.8,0.7s189.8-0.3,189.8-0.7c0-0.4-85-0.7-189.8-0.7
						C1247.5,981.5,1162.6,981.8,1162.6,982.1z"/>
				</g>
				<g>
					<path class="st1" d="M1162.6,968.2c0,0.4,85,0.7,189.8,0.7s189.8-0.3,189.8-0.7c0-0.4-85-0.7-189.8-0.7
						C1247.5,967.5,1162.6,967.8,1162.6,968.2z"/>
				</g>
				<g>
					<path class="st1" d="M1162,1092.5c0,0.4,85.4,0.7,190.6,0.7c105.3,0,190.7-0.3,190.7-0.7c0-0.4-85.3-0.7-190.7-0.7
						C1247.3,1091.8,1162,1092.1,1162,1092.5z"/>
				</g>
				<g>
					<path class="st1" d="M1162,1220.9c0,0.4,85.4,0.7,190.6,0.7c105.3,0,190.7-0.3,190.7-0.7c0-0.4-85.3-0.7-190.7-0.7
						C1247.3,1220.2,1162,1220.5,1162,1220.9z"/>
				</g>
				<g>
					<path class="st1" d="M1292.4,1030.3c0,0-0.1,0.6-0.2,1.7c-0.1,1.2-0.2,2.8-0.3,4.8c-0.1,2.1-0.3,4.7-0.1,7.7
						c0.3,3,1.2,6.5,3.7,9.6c1.2,1.5,2.9,2.8,4.9,3.6c2,0.8,4.1,1.3,6.3,1.7c4.4,0.8,9.2,1.2,14.2,1.3c10,0.1,20.9-0.2,32.4-0.3
						c11.5-0.2,22.4-0.3,32.4-0.5c5-0.1,9.7-0.1,14.2-0.4c2.2-0.2,4.4-0.6,6.4-1.4s3.6-2.2,4.8-3.7c2.4-3.1,3.3-6.6,3.5-9.7
						c0.2-3,0-5.6,0-7.7c-0.1-2.1-0.2-3.7-0.3-4.8c-0.1-1.1-0.2-1.7-0.2-1.7s-0.1,0.6,0,1.7c0,1.2,0,2.9,0.1,4.8
						c0,2.1,0.1,4.7-0.2,7.6c-0.3,2.9-1.2,6.3-3.5,9.1c-1.1,1.4-2.7,2.6-4.5,3.4s-3.9,1.1-6.1,1.3c-4.4,0.2-9.1,0.1-14.1,0.2
						c-10,0.1-20.9,0.3-32.4,0.4s-22.5,0.4-32.4,0.4c-5-0.1-9.7-0.4-14-1.2c-2.2-0.4-4.2-0.8-6.1-1.6c-1.9-0.7-3.4-1.9-4.6-3.2
						c-2.4-2.8-3.4-6.2-3.7-9c-0.3-2.9-0.2-5.5-0.2-7.6c0.1-2.1,0.1-3.7,0.1-4.9C1292.5,1030.9,1292.5,1030.3,1292.4,1030.3z"/>
				</g>
				<g>
					<path class="st1" d="M1292.4,1093.9c0,0-0.1,0.6-0.2,1.7c-0.1,1.2-0.2,2.8-0.3,4.8c-0.1,2.1-0.3,4.7-0.1,7.7
						c0.3,3,1.2,6.5,3.7,9.6c1.2,1.5,2.9,2.8,4.9,3.6c2,0.8,4.1,1.3,6.3,1.7c4.4,0.8,9.2,1.2,14.2,1.3c10,0.1,20.9-0.2,32.4-0.3
						c11.5-0.2,22.4-0.3,32.4-0.5c5-0.1,9.7-0.1,14.2-0.4c2.2-0.2,4.4-0.6,6.4-1.4s3.6-2.2,4.8-3.7c2.4-3.1,3.3-6.6,3.5-9.7
						c0.2-3,0-5.6,0-7.7c-0.1-2.1-0.2-3.7-0.3-4.8c-0.1-1.1-0.2-1.7-0.2-1.7s-0.1,0.6,0,1.7c0,1.2,0,2.9,0.1,4.8
						c0,2.1,0.1,4.7-0.2,7.6c-0.3,2.9-1.2,6.3-3.5,9.1c-1.1,1.4-2.7,2.6-4.5,3.4s-3.9,1.1-6.1,1.3c-4.4,0.2-9.1,0.1-14.1,0.2
						c-10,0.1-20.9,0.3-32.4,0.4s-22.5,0.4-32.4,0.4c-5-0.1-9.7-0.4-14-1.2c-2.2-0.4-4.2-0.8-6.1-1.6c-1.9-0.7-3.4-1.9-4.6-3.2
						c-2.4-2.8-3.4-6.2-3.7-9c-0.3-2.9-0.2-5.5-0.2-7.6c0.1-2.1,0.1-3.7,0.1-4.9C1292.5,1094.5,1292.5,1093.9,1292.4,1093.9z"/>
				</g>
			</g>
		</g>
		<g>
			<path class="st2" d="M1182.6,319.4h-67.9L916.4,438.7c0.7,1.1,24.2,18,54.7,39.9l-287.1,528.6L443.8,901.1l-212.8,382.3h116.3
				l146.6-267.8l220.4,102.1l93.4,11.1l253-586.5c31.8,22.6,56.2,39.8,56.2,39.8h67.9c0,0-19.8-166.3-19.8-167.6
				S1182.6,319.4,1182.6,319.4z"/>
			<path class="st5" d="M1182.6,319.4h-67.9L916.4,438.7c0.7,1.1,24.2,18,54.7,39.9l-287.1,528.6L443.8,901.1l-212.8,382.3h116.3
				l146.6-267.8l220.4,102.1l93.4,11.1l253-586.5c31.8,22.6,56.2,39.8,56.2,39.8h67.9c0,0-19.8-166.3-19.8-167.6
				S1182.6,319.4,1182.6,319.4z"/>
			<polygon class="st2" points="299.8,1283.4 513.4,897.8 752.8,1007.2 1061.5,438.7 1153.4,487 807.8,1129 562.6,1015.7 
				416.1,1283.4 			"/>
			<path class="st2" d="M984.3,438.7c2.2,3.3,200.6,143.5,200.6,143.5l-2.3-262.8L984.3,438.7z"/>
			<g>
				<path class="st1" d="M984.3,438.7c0,0.4-15.2,0.7-34,0.7c-18.8,0-34-0.3-34-0.7s15.2-0.7,34-0.7
					C969.1,438,984.3,438.3,984.3,438.7z"/>
			</g>
			<g>
				<path class="st1" d="M1037.4,479.7c0,0.4-15.2,0.7-34,0.7s-34-0.3-34-0.7c0-0.4,15.2-0.7,34-0.7
					C1022.2,479,1037.4,479.3,1037.4,479.7z"/>
			</g>
		</g>
		<g>
			<g>
				<polygon class="st2" points="1718.4,707 1607.6,741.1 1634.5,758.1 1709,804.5 1733,819.4 				"/>
			</g>
			<g>
				<g>
					<polygon class="st2" points="1218.3,1283.8 1151.5,1250.4 1309.9,1005.6 1374.2,1067.2 1500.1,867.3 1562.9,913.4 
						1675.8,729.3 1713.6,747.1 1574.9,995.8 1504.6,930.2 1384.6,1154.1 1321.4,1080.2 					"/>
				</g>
			</g>
		</g>
		<g>
			<g>
				<g>
					<polygon class="st0" points="785,648.4 785,667.8 792.3,671 782.8,671 781,683.2 952.8,701.7 969.9,674.8 					"/>
					<polygon class="st1" points="758.4,689.6 760.6,678.3 781.9,680.8 881.3,692.4 877.7,704.8 					"/>
					<path class="st2" d="M949.2,712.6L852.5,702l0,0c4.7-14.9,19.3-24.4,34.9-22.6l76.2,9.2L949.2,712.6z"/>
				</g>
				<path class="st3" d="M1079.3,688.9l0.2,65.4l-336.4,0.9l0,0c0-17.1,13.8-31,30.9-31.1l151.4-0.4l38.8-53.2l97.3,0.5
					C1071.3,671.1,1079.3,679.1,1079.3,688.9z"/>
				<g>
					<path class="st1" d="M1078.2,741.7c0,0.3-74.4,0.6-166.1,0.6c-91.8,0-166.1-0.2-166.1-0.6s74.4-0.6,166.1-0.6
						S1078.2,741.4,1078.2,741.7z"/>
				</g>
				<polygon class="st0" points="1401.7,792.3 1270,866.2 1270,849.4 1396,783.4 				"/>
				<polygon class="st1" points="1270,866.2 1373.6,808 1382.3,820.4 1318.3,858.4 1317.8,874.9 1270,900.9 				"/>
				<polygon class="st1" points="1270,1026.5 1373.6,968.3 1382.3,980.6 1318.3,1018.6 1317.8,1035.1 1270,1061.1 				"/>
				<path class="st3" d="M995.7,979.4H1270V817.3c0-5.1-4.1-9.3-9.3-9.3h-265L995.7,979.4L995.7,979.4z"/>
				<rect x="995.7" y="985.7" class="st3" width="274.3" height="200.7"/>
				<polygon class="st1" points="1271.5,1148.5 1388,1148.5 1388,1159.2 1269.9,1171.8 				"/>
				<path class="st1" d="M1288.3,1190.4L1288.3,1190.4c5.6,0,10.1-4.5,10.1-10.1v-10.1c0-5.6-4.5-10.1-10.1-10.1l0,0
					c-5.6,0-10.1,4.5-10.1,10.1v10.1C1278.2,1185.9,1282.7,1190.4,1288.3,1190.4z"/>
				<polygon class="st1" points="1375.3,1154.8 1375.3,1120.1 1359.5,1120.1 1359.5,1157.2 				"/>
				<rect x="995.7" y="1193.5" class="st3" width="274.2" height="63.9"/>
				<path class="st4" d="M995.7,979.4H1270V817.3c0-5.1-4.1-9.3-9.3-9.3h-265L995.7,979.4L995.7,979.4z"/>
				<rect x="995.7" y="985.7" class="st4" width="274.3" height="200.7"/>
				<rect x="995.7" y="1193.5" class="st4" width="274.2" height="63.9"/>
				<rect x="995.7" y="1257.4" class="st3" width="274.2" height="25.9"/>
				<rect x="763.1" y="783.3" class="st3" width="294.3" height="475.6"/>
				<rect x="763.1" y="783.3" class="st5" width="294.3" height="475.6"/>
				<rect x="747.8" y="776.7" class="st3" width="113.9" height="133.4"/>
				<path class="st3" d="M1079.5,754v25.5c0,5.9-4.8,10.7-10.7,10.7H930H747.7V754H1079.5z"/>
				<path class="st1" d="M930,832.9V754H747.7v64.8c0,7.8,6.3,14.1,14.1,14.1H930"/>
				<rect x="820.6" y="764.6" class="st2" width="96.7" height="50.3"/>
				<rect x="799.3" y="764.6" class="st2" width="5.4" height="5.4"/>
				<rect x="788.7" y="764.6" class="st2" width="5.4" height="5.4"/>
				<rect x="778.2" y="764.6" class="st2" width="5.4" height="5.4"/>
				<rect x="756.4" y="764.6" class="st0" width="14.7" height="5.4"/>
				<rect x="756.4" y="773.9" class="st0" width="14.7" height="5.4"/>
				<rect x="756.4" y="783.3" class="st0" width="14.7" height="5.4"/>
				<rect x="756.4" y="793.3" class="st0" width="14.7" height="5.4"/>
				<rect x="778.2" y="774.2" class="st2" width="5.4" height="5.4"/>
				<rect x="799.3" y="774.4" class="st2" width="5.4" height="5.4"/>
				<rect x="799.3" y="783.4" class="st2" width="5.4" height="5.4"/>
				<rect x="788.4" y="774.4" class="st2" width="5.4" height="5.4"/>
				<rect x="788.4" y="783.4" class="st2" width="5.4" height="5.4"/>
				<rect x="777.8" y="783.4" class="st2" width="5.4" height="5.4"/>
				<path class="st3" d="M772.2,810.2c0,5.2,4.2,9.4,9.4,9.4s9.4-4.2,9.4-9.4c0-5.2-4.2-9.4-9.4-9.4
					C776.5,800.8,772.2,805,772.2,810.2z"/>
				<path class="st2" d="M794.7,810.2c0,3.1,2.5,5.6,5.6,5.6s5.6-2.5,5.6-5.6s-2.5-5.6-5.6-5.6S794.7,807.1,794.7,810.2z"/>
				<path class="st2" d="M757.6,810.3c0,3.1,2.5,5.6,5.6,5.6s5.6-2.5,5.6-5.6s-2.5-5.6-5.6-5.6S757.6,807.2,757.6,810.3z"/>
				<path class="st3" d="M747.7,1059.7h331.4v-141c0-4.7-3.8-8.6-8.6-8.6H747.7V1059.7z"/>
				<path class="st3" d="M747.7,1117.1h331.4v-47.5c0-3.7-3-6.8-6.8-6.8H752.4c-2.6,0-4.7,2.1-4.7,4.7V1117.1z"/>
				<path class="st5" d="M866.2,1087.9h95.7c2.9,0,5.2-2.3,5.2-5.2v-20h-106v20C861.1,1085.6,863.4,1087.9,866.2,1087.9z"/>
				<path class="st3" d="M747.7,1228.9h331.4v-102.6c0-3.9-3.2-7.1-7.1-7.1H754.8c-3.9,0-7.1,3.2-7.1,7.1L747.7,1228.9L747.7,1228.9
					z"/>
				<path class="st5" d="M866.2,1144.4h95.7c2.9,0,5.2-2.3,5.2-5.2v-20h-106v20C861.1,1142,863.4,1144.4,866.2,1144.4z"/>
				<rect x="747.8" y="1234.5" class="st3" width="331.4" height="48.8"/>
				<rect x="861.7" y="873.7" class="st1" width="130.1" height="8.2"/>
				<rect x="861.7" y="843.4" class="st0" width="175.1" height="30.4"/>
				<g>
					<path class="st6" d="M862.2,771.2c0,0.3,10.8,0.6,24.1,0.6s24.1-0.3,24.1-0.6c0-0.3-10.8-0.6-24.1-0.6
						C873,770.7,862.2,770.9,862.2,771.2z"/>
				</g>
				<g>
					<path class="st6" d="M890,779c0,0.3,4.6,0.6,10.2,0.6c5.7,0,10.2-0.3,10.2-0.6s-4.6-0.6-10.2-0.6
						C894.5,778.5,890,778.7,890,779z"/>
				</g>
				<g>
					<path class="st6" d="M890,787.3c0,0.3,4.6,0.6,10.2,0.6c5.7,0,10.2-0.3,10.2-0.6c0-0.3-4.6-0.6-10.2-0.6
						C894.5,786.7,890,787,890,787.3z"/>
				</g>
				<g>
					<path class="st6" d="M889.4,800.8c0,0.3,4.6,0.6,10.2,0.6c5.7,0,10.2-0.3,10.2-0.6c0-0.3-4.6-0.6-10.2-0.6
						C893.9,800.2,889.4,800.5,889.4,800.8z"/>
				</g>
				<g>
					<path class="st6" d="M833.4,800.8c0,0.3,4.6,0.6,10.2,0.6c5.7,0,10.2-0.3,10.2-0.6c0-0.3-4.6-0.6-10.2-0.6
						C837.9,800.2,833.4,800.5,833.4,800.8z"/>
				</g>
				<rect x="747.8" y="1234.5" class="st7" width="331.4" height="48.8"/>
				<g>
					<path class="st1" d="M747.9,1045.1c0,0.3,74.1,0.6,165.4,0.6c91.4,0,165.4-0.3,165.4-0.6c0-0.3-74-0.6-165.4-0.6
						C822,1044.6,747.9,1044.8,747.9,1045.1z"/>
				</g>
				<g>
					<path class="st1" d="M747.9,1033c0,0.3,74.1,0.6,165.4,0.6c91.4,0,165.4-0.3,165.4-0.6c0-0.3-74-0.6-165.4-0.6
						C822,1032.4,747.9,1032.7,747.9,1033z"/>
				</g>
				<g>
					<path class="st1" d="M747.9,1020.8c0,0.3,74.1,0.6,165.4,0.6c91.4,0,165.4-0.3,165.4-0.6c0-0.3-74-0.6-165.4-0.6
						C822,1020.3,747.9,1020.5,747.9,1020.8z"/>
				</g>
				<g>
					<path class="st1" d="M747.9,1008.7c0,0.3,74.1,0.6,165.4,0.6c91.4,0,165.4-0.3,165.4-0.6c0-0.3-74-0.6-165.4-0.6
						C822,1008.1,747.9,1008.3,747.9,1008.7z"/>
				</g>
				<g>
					<path class="st1" d="M747.4,1117c0,0.3,74.4,0.6,166.2,0.6s166.2-0.3,166.2-0.6c0-0.3-74.4-0.6-166.2-0.6
						S747.4,1116.7,747.4,1117z"/>
				</g>
				<g>
					<path class="st1" d="M747.4,1228.9c0,0.3,74.4,0.6,166.2,0.6s166.2-0.3,166.2-0.6s-74.4-0.6-166.2-0.6
						S747.4,1228.6,747.4,1228.9z"/>
				</g>
				<g>
					<path class="st1" d="M861.1,1062.8c0,0-0.1,0.5-0.1,1.5c-0.1,1.1-0.2,2.5-0.3,4.2c-0.1,1.8-0.3,4.1-0.1,6.7
						c0.3,2.6,1.1,5.7,3.3,8.3c1.1,1.3,2.6,2.4,4.3,3.1s3.6,1.1,5.5,1.5c3.8,0.7,8,1.1,12.3,1.2c8.7,0.1,18.2-0.1,28.3-0.2
						c10-0.2,19.6-0.3,28.3-0.4c4.4-0.1,8.4-0.1,12.4-0.3c1.9-0.2,3.9-0.5,5.6-1.3c1.7-0.7,3.2-1.9,4.2-3.2c2.1-2.7,2.9-5.8,3-8.4
						s0-4.9,0-6.7c-0.1-1.8-0.2-3.3-0.3-4.2c-0.1-1-0.2-1.5-0.2-1.5s0,0.5,0,1.5c0,1.1,0,2.5,0.1,4.2c0,1.8,0,4.1-0.2,6.7
						c-0.2,2.5-1,5.5-3,8c-1,1.2-2.3,2.3-3.9,2.9c-1.6,0.7-3.4,1-5.3,1.1c-3.8,0.2-8,0.1-12.3,0.2c-8.7,0.1-18.2,0.2-28.3,0.3
						c-10,0.1-19.6,0.4-28.2,0.3c-4.3-0.1-8.4-0.4-12.2-1c-1.9-0.3-3.7-0.7-5.3-1.4c-1.6-0.6-3-1.6-4-2.8c-2.1-2.4-2.9-5.4-3.2-7.9
						c-0.3-2.6-0.2-4.8-0.1-6.6c0.1-1.8,0.1-3.3,0.1-4.2C861.2,1063.3,861.1,1062.8,861.1,1062.8z"/>
				</g>
				<g>
					<path class="st1" d="M861.1,1118.2c0,0-0.1,0.5-0.1,1.5c-0.1,1.1-0.2,2.5-0.3,4.2c-0.1,1.8-0.3,4.1-0.1,6.7
						c0.3,2.6,1.1,5.7,3.3,8.3c1.1,1.3,2.6,2.4,4.3,3.1s3.6,1.1,5.5,1.5c3.8,0.7,8,1.1,12.3,1.2c8.7,0.1,18.2-0.2,28.3-0.2
						c10-0.2,19.6-0.3,28.3-0.4c4.4-0.1,8.4-0.1,12.4-0.3c1.9-0.2,3.9-0.5,5.6-1.3c1.7-0.7,3.2-1.9,4.2-3.2c2.1-2.7,2.9-5.8,3-8.4
						s0-4.9,0-6.7c-0.1-1.8-0.2-3.3-0.3-4.2c-0.1-1-0.2-1.5-0.2-1.5s0,0.5,0,1.5c0,1.1,0,2.5,0.1,4.2c0,1.8,0,4.1-0.2,6.7
						c-0.2,2.5-1,5.5-3,8c-1,1.2-2.3,2.3-3.9,2.9c-1.6,0.7-3.4,1-5.3,1.1c-3.8,0.2-8,0.1-12.3,0.2c-8.7,0.1-18.2,0.2-28.3,0.3
						c-10,0.1-19.6,0.4-28.2,0.3c-4.3-0.1-8.4-0.4-12.2-1c-1.9-0.3-3.7-0.7-5.3-1.4c-1.6-0.6-3-1.6-4-2.8c-2.1-2.4-2.9-5.4-3.2-7.9
						c-0.3-2.6-0.2-4.8-0.1-6.6c0.1-1.8,0.1-3.3,0.1-4.2C861.2,1118.7,861.1,1118.2,861.1,1118.2z"/>
				</g>
			</g>
		</g>
	</g>
</g>
</svg>
