<?xml version="1.0" encoding="utf-8"?>
<!-- Generator: Adobe Illustrator 27.8.0, SVG Export Plug-In . SVG Version: 6.00 Build 0)  -->
<svg version="1.1" id="Camada_1" xmlns="http://www.w3.org/2000/svg" xmlns:xlink="http://www.w3.org/1999/xlink" x="0px" y="0px"
	 viewBox="0 0 450 400" style="enable-background:new 0 0 450 400;" xml:space="preserve">
<style type="text/css">
	.st0{fill:#ECECEC;}
	.st1{fill:#E1E1E1;}
	.st2{fill:#FFFFFF;}
	.st3{fill:#F5F5F5;}
	.st4{fill:#FAFAFA;}
	.st5{fill:#FFBF9D;}
	.st6{fill:#FF9A6C;}
	.st7{fill:#1A2E35;}
	.st8{fill:#375A64;}
	.st9{opacity:0.3;}
	.st10{fill:#FF4A5B;}
	.st11{fill:none;stroke:#FAFAFA;stroke-miterlimit:10;}
</style>
<g>
	<g>
		<g>
			<g>
				<g>
					<g>
						<path class="st0" d="M367.8,340.2l-30.6,53.5l-60.6,0.9c-1.9,0-3.5,1.5-3.6,3.5l0,0l61.6,0.2l2.3-0.1l77.1,0.2l15.6-26.9
							l19.9-28.5c1.3-1.9,0-4.4-2.3-4.4l-77,0.3C369.2,338.8,368.3,339.3,367.8,340.2z"/>
					</g>
				</g>
			</g>
		</g>
		<g>
			<g>
				<g>
					<g>
						<g>
							<path class="st1" d="M449.5,340.5c0,0-0.1,0-0.4,0c-0.3,0-0.7,0-1.1,0c-1,0-2.4,0-4.2,0.1c-3.7,0-8.9,0.1-15.3,0.1
								c-13,0-30.8,0.1-50.5,0.1c-1.2,0-2.5,0-3.7,0c-1.1-0.1-2.2,0.4-2.8,1.3c-1.2,2.1-2.3,4.1-3.4,6.2c-2.2,4.1-4.4,8-6.5,11.7
								c-4.1,7.5-7.9,14.2-11,19.9c-3.1,5.6-5.7,10.1-7.5,13.3c-0.9,1.5-1.6,2.7-2.1,3.6c-0.2,0.4-0.4,0.7-0.6,0.9
								c-0.1,0.2-0.2,0.3-0.2,0.3s0-0.1,0.1-0.4c0.1-0.3,0.3-0.6,0.5-1c0.5-0.9,1.1-2.1,1.9-3.7c1.8-3.2,4.2-7.8,7.3-13.5
								c3.1-5.7,6.8-12.4,10.9-19.9c2.1-3.8,4.2-7.7,6.5-11.8c1.1-2,2.3-4.1,3.4-6.2c0.7-1.1,2.2-1.8,3.4-1.7c1.2,0,2.4,0,3.7,0
								c19.7,0,37.5,0.1,50.5,0.1c6.4,0,11.6,0.1,15.3,0.1c1.8,0,3.1,0,4.2,0.1c0.4,0,0.8,0,1.1,0
								C449.4,340.5,449.5,340.5,449.5,340.5z"/>
						</g>
					</g>
				</g>
			</g>
		</g>
		<g>
			<g>
				<g>
					<g>
						<path class="st2" d="M395.2,367.4c-1.4,1.5-1.4,3.7-0.1,4.9s3.5,0.9,4.9-0.6c1.4-1.5,1.4-3.7,0.1-4.9
							C398.8,365.6,396.6,365.9,395.2,367.4z"/>
					</g>
				</g>
			</g>
		</g>
	</g>
	<g>
		<g>
			<g>
				<g>
					<g>
						<g>
							<g>
								<path class="st3" d="M5.5,341.2c0,0.6,0,32,0,32H0.1v3.5h5.3v21.4h99.9v-19.5H98v-4.2h7.4V368h3.3v-2.9h-3.9v-23.9
									L5.5,341.2L5.5,341.2z"/>
							</g>
						</g>
					</g>
				</g>
			</g>
			<g>
				<g>
					<g>
						<g>
							<g>
								<polygon class="st1" points="78.9,341.3 78.9,397.8 105.4,397.8 105.4,378.3 98,378.3 98,374.4 105.4,374.5 105.4,368.1 
									108.8,368.1 108.7,364.8 104.8,364.7 104.8,341.2 								"/>
							</g>
						</g>
					</g>
				</g>
			</g>
			<g>
				<g>
					<g>
						<g>
							<g>
								<g>
									<path class="st1" d="M80.8,376.2c0,0.2-18.1,0.4-40.4,0.4S0,376.4,0,376.2s18.1-0.4,40.4-0.4
										C62.7,375.9,80.8,376,80.8,376.2z"/>
								</g>
							</g>
						</g>
					</g>
				</g>
			</g>
			<g>
				<g>
					<g>
						<g>
							<g>
								<g>
									<path class="st1" d="M80.8,373c0,0.2-18.1,0.4-40.4,0.4S0,373.1,0,373c0-0.2,18.1-0.4,40.4-0.4
										C62.7,372.6,80.8,372.8,80.8,373z"/>
								</g>
							</g>
						</g>
					</g>
				</g>
			</g>
			<g>
				<g>
					<g>
						<g>
							<g>
								<g>
									<path class="st1" d="M85.9,364.2c0,0.2-18.1,0.4-40.4,0.4s-40.4-0.2-40.4-0.4c0-0.2,18.1-0.4,40.4-0.4S85.9,364,85.9,364.2
										z"/>
								</g>
							</g>
						</g>
					</g>
				</g>
			</g>
			<g>
				<g>
					<g>
						<g>
							<g>
								<g>
									<path class="st1" d="M86.4,388c0,0.2-18.1,0.4-40.4,0.4S5.7,388.2,5.7,388s18.1-0.4,40.4-0.4S86.4,387.9,86.4,388z"/>
								</g>
							</g>
						</g>
					</g>
				</g>
			</g>
		</g>
	</g>
	<g>
		<g>
			<g>
				<g>
					<g>
						<g>
							<g>
								<g>
									<rect x="148.3" y="15.1" class="st0" width="21.3" height="36.8"/>
								</g>
							</g>
						</g>
					</g>
				</g>
			</g>
			<g>
				<g>
					<g>
						<g>
							<g>
								<g>
									<g>
										<rect x="88.8" y="6.6" class="st0" width="16.9" height="45.9"/>
									</g>
								</g>
							</g>
						</g>
					</g>
				</g>
				<g>
					<g>
						<g>
							<g>
								<g>
									<g>
										<g>
											<path class="st4" d="M88.6,9.9c0-0.1,3.8-0.3,8.6-0.3c4.8,0,8.6,0.1,8.6,0.3c0,0.1-3.8,0.3-8.6,0.3
												C92.5,10.2,88.6,10.1,88.6,9.9z"/>
										</g>
									</g>
								</g>
							</g>
						</g>
					</g>
				</g>
				<g>
					<g>
						<g>
							<g>
								<g>
									<g>
										<g>
											<path class="st4" d="M89.6,12.1c0-0.1,3.6-0.3,8.1-0.3s8.1,0.1,8.1,0.3c0,0.1-3.6,0.3-8.1,0.3S89.6,12.3,89.6,12.1z"/>
										</g>
									</g>
								</g>
							</g>
						</g>
					</g>
				</g>
				<g>
					<g>
						<g>
							<g>
								<g>
									<g>
										<g>
											<path class="st4" d="M96.8,43.4c-0.1,0-0.3-6.1-0.3-13.6s0.1-13.6,0.3-13.6c0.1,0,0.3,6.1,0.3,13.6S96.9,43.4,96.8,43.4z
												"/>
										</g>
									</g>
								</g>
							</g>
						</g>
					</g>
				</g>
				<g>
					<g>
						<g>
							<g>
								<g>
									<g>
										<g>
											<path class="st4" d="M88.8,47.7c0-0.1,3.7-0.3,8.3-0.3s8.3,0.1,8.3,0.3c0,0.1-3.7,0.3-8.3,0.3
												C92.5,47.9,88.8,47.8,88.8,47.7z"/>
										</g>
									</g>
								</g>
							</g>
						</g>
					</g>
				</g>
				<g>
					<g>
						<g>
							<g>
								<g>
									<g>
										<g>
											<path class="st4" d="M88.8,49.6c0-0.1,3.8-0.3,8.5-0.3s8.5,0.1,8.5,0.3c0,0.1-3.8,0.3-8.5,0.3
												C92.6,49.9,88.8,49.8,88.8,49.6z"/>
										</g>
									</g>
								</g>
							</g>
						</g>
					</g>
				</g>
			</g>
			<g>
				<g>
					<g>
						<g>
							<g>
								<g>
									<g>
										<rect x="105.7" y="1.7" class="st1" width="13.5" height="50.9"/>
									</g>
								</g>
							</g>
						</g>
					</g>
				</g>
				<g>
					<g>
						<g>
							<g>
								<g>
									<g>
										<g>
											<path class="st4" d="M105.6,25c0,0,0.8,0.5,2.1,1.5c1.4,1.1,3,2.3,4.9,3.7c1.8,1.4,3.5,2.6,4.9,3.7c1.2,1,2,1.6,1.9,1.6
												c0,0-0.9-0.4-2.2-1.3c-1.3-0.9-3.1-2.2-5-3.6c-1.9-1.5-3.6-2.8-4.8-3.8C106.2,25.7,105.5,25,105.6,25z"/>
										</g>
									</g>
								</g>
							</g>
						</g>
					</g>
				</g>
				<g>
					<g>
						<g>
							<g>
								<g>
									<g>
										<g>
											<path class="st4" d="M105.5,17c0.1-0.1,3.2,2.4,6.9,5.6c3.7,3.2,6.7,5.9,6.6,6c-0.1,0.1-3.2-2.4-6.9-5.6
												C108.4,19.8,105.4,17.1,105.5,17z"/>
										</g>
									</g>
								</g>
							</g>
						</g>
					</g>
				</g>
			</g>
			<g>
				<g>
					<g>
						<g>
							<g>
								<g>
									<g>
										<g>
											<g>
												<g>
													<g>
														<rect x="46.8" y="4.1" class="st0" width="6.5" height="48.4"/>
													</g>
												</g>
											</g>
										</g>
									</g>
								</g>
							</g>
						</g>
					</g>
					<g>
						<g>
							<g>
								<g>
									<g>
										<g>
											<g>
												<g>
													<g>
														<g>
															<path class="st4" d="M47.1,10.7c0,0.2,1.4,0.3,3,0.3s3-0.1,3-0.3c0-0.2-1.4-0.3-3-0.3C48.5,10.4,47.1,10.5,47.1,10.7
																z"/>
														</g>
													</g>
												</g>
											</g>
										</g>
									</g>
								</g>
							</g>
						</g>
					</g>
					<g>
						<g>
							<g>
								<g>
									<g>
										<g>
											<g>
												<g>
													<g>
														<g>
															<path class="st4" d="M47,9.6c0,0.2,1.4,0.3,3,0.3c1.7,0,3-0.1,3-0.3c0-0.2-1.4-0.3-3-0.3C48.3,9.3,47,9.5,47,9.6z"/>
														</g>
													</g>
												</g>
											</g>
										</g>
									</g>
								</g>
							</g>
						</g>
					</g>
					<g>
						<g>
							<g>
								<g>
									<g>
										<g>
											<g>
												<g>
													<g>
														<g>
															<path class="st4" d="M47.1,48.8c0,0.2,1.4,0.3,3,0.3s3-0.1,3-0.3s-1.4-0.3-3-0.3C48.5,48.5,47.1,48.6,47.1,48.8z"/>
														</g>
													</g>
												</g>
											</g>
										</g>
									</g>
								</g>
							</g>
						</g>
					</g>
					<g>
						<g>
							<g>
								<g>
									<g>
										<g>
											<g>
												<g>
													<g>
														<g>
															<path class="st4" d="M47,47.7c0,0.2,1.4,0.3,3,0.3c1.7,0,3-0.1,3-0.3s-1.4-0.3-3-0.3C48.3,47.4,47,47.6,47,47.7z"/>
														</g>
													</g>
												</g>
											</g>
										</g>
									</g>
								</g>
							</g>
						</g>
					</g>
					<g>
						<g>
							<g>
								<g>
									<g>
										<g>
											<g>
												<g>
													<g>
														<g>
															<path class="st4" d="M50.3,41.4c0.2,0,0.3-5.6,0.3-12.4s-0.1-12.4-0.3-12.4S50,22.2,50,29S50.1,41.4,50.3,41.4z"/>
														</g>
													</g>
												</g>
											</g>
										</g>
									</g>
								</g>
							</g>
						</g>
					</g>
				</g>
				<g>
					<g>
						<g>
							<g>
								<g>
									<g>
										<g>
											<g>
												<g>
													<g>
														<rect x="75.9" y="3.8" class="st1" width="12.9" height="48.4"/>
													</g>
												</g>
											</g>
										</g>
									</g>
								</g>
							</g>
						</g>
					</g>
					<g>
						<g>
							<g>
								<g>
									<g>
										<g>
											<g>
												<g>
													<g>
														<g>
															<path class="st4" d="M85.2,52.8c0,0,0.1-0.1,0.1-0.3c0.1-0.2,0.2-0.4,0.4-0.8c0.3-0.7,0.7-1.8,0.9-3.3
																c0.2-1.5,0.3-3.4-0.8-5.3c-0.5-0.9-1.3-1.9-2.3-2.5c-1-0.7-2.3-1.1-3.7-0.9c-0.7,0.1-1.4,0.4-1.9,0.9
																c-0.6,0.5-1,1.2-0.9,2c0,0.8,0.5,1.5,1.1,2.1c0.6,0.5,1.4,0.9,2.2,0.9c1.6,0.2,3.4-0.5,4.6-1.7
																c1.3-1.1,2.1-2.9,2.3-4.7c0.2-1.8-0.1-3.7-0.7-5.4c-0.6-1.8-1.6-3.5-3.2-4.7c-0.8-0.6-1.8-1-2.8-1.1
																c-1-0.1-2.1,0.2-2.9,1c-0.4,0.4-0.6,0.9-0.7,1.5c0,0.6,0.2,1.1,0.4,1.6c0.6,0.9,1.6,1.5,2.6,1.8
																c2.1,0.4,4.3-0.4,5.7-1.9c1.4-1.5,2-3.5,2.2-5.5c0.2-1.9,0-3.9-0.6-5.6c-0.6-1.8-1.8-3.4-3.4-4.3
																c-1.5-0.9-3.5-1.2-5.1-0.5c-0.8,0.3-1.5,1.1-1.7,2c-0.2,0.9,0.1,1.8,0.6,2.4c1.1,1.4,3,1.6,4.4,1.1
																c1.5-0.4,2.6-1.4,3.4-2.4c1.8-2.1,2.5-4.5,2.6-6.6c0.1-2.1-0.5-3.9-1.2-5.3c-0.7-1.3-1.5-2.2-2-2.7
																c-0.3-0.3-0.5-0.5-0.7-0.6C84.1,4,84,3.9,84,3.9c-0.1,0.1,1.4,1,2.7,3.6c0.6,1.3,1.2,3.1,1.1,5.1S87,17.1,85.3,19
																c-0.8,1-1.9,1.9-3.3,2.3c-1.3,0.4-3,0.1-3.8-1c-0.4-0.6-0.6-1.3-0.5-2c0.1-0.7,0.7-1.3,1.4-1.6
																c1.4-0.6,3.2-0.4,4.6,0.5c1.5,0.9,2.5,2.3,3.1,4c0.6,1.7,0.7,3.6,0.5,5.4c-0.2,1.8-0.8,3.7-2.1,5.1
																c-1.2,1.4-3.3,2.1-5.1,1.7c-0.9-0.2-1.8-0.8-2.2-1.5c-0.5-0.8-0.5-1.7,0.1-2.4c0.6-0.6,1.5-0.9,2.4-0.8
																c0.9,0,1.8,0.4,2.5,1c1.5,1.1,2.4,2.8,3,4.4c0.6,1.7,0.9,3.5,0.7,5.2c-0.2,1.7-0.9,3.3-2.1,4.3
																c-1.1,1.1-2.7,1.7-4.2,1.6c-1.4-0.1-2.8-1.2-2.9-2.5c0-0.7,0.3-1.3,0.8-1.7c0.5-0.4,1.1-0.7,1.7-0.8
																c1.2-0.2,2.5,0.2,3.4,0.8c1,0.6,1.7,1.5,2.2,2.4c1,1.8,1,3.7,0.8,5.1c-0.2,1.5-0.6,2.6-0.8,3.3
																C85.3,52.5,85.1,52.8,85.2,52.8z"/>
														</g>
													</g>
												</g>
											</g>
										</g>
									</g>
								</g>
							</g>
						</g>
					</g>
				</g>
				<g>
					<g>
						<g>
							<g>
								<g>
									<g>
										<g>
											<g>
												<g>
													<g>
														<rect x="53.2" y="8.1" class="st4" width="22.5" height="44.1"/>
													</g>
												</g>
											</g>
										</g>
									</g>
								</g>
							</g>
						</g>
					</g>
					<g>
						<g>
							<g>
								<g>
									<g>
										<g>
											<g>
												<g>
													<g>
														<g>
															<path class="st1" d="M54,15.5c0,0.2,4.9,0.3,10.9,0.3s10.9-0.1,10.9-0.3c0-0.2-4.9-0.3-10.9-0.3
																C58.8,15.2,54,15.3,54,15.5z"/>
														</g>
													</g>
												</g>
											</g>
										</g>
									</g>
								</g>
							</g>
						</g>
					</g>
					<g>
						<g>
							<g>
								<g>
									<g>
										<g>
											<g>
												<g>
													<g>
														<g>
															<path class="st1" d="M53.7,18.8c0,0.2,4.8,0.3,10.7,0.3c5.9,0,10.7-0.1,10.7-0.3c0-0.2-4.8-0.3-10.7-0.3
																C58.5,18.5,53.7,18.6,53.7,18.8z"/>
														</g>
													</g>
												</g>
											</g>
										</g>
									</g>
								</g>
							</g>
						</g>
					</g>
					<g>
						<g>
							<g>
								<g>
									<g>
										<g>
											<g>
												<g>
													<g>
														<g>
															<path class="st1" d="M53,47.3c0,0.2,5.1,0.3,11.3,0.3s11.3-0.1,11.3-0.3S70.5,47,64.3,47S53,47.1,53,47.3z"/>
														</g>
													</g>
												</g>
											</g>
										</g>
									</g>
								</g>
							</g>
						</g>
					</g>
					<g>
						<g>
							<g>
								<g>
									<g>
										<g>
											<g>
												<g>
													<g>
														<g>
															<path class="st1" d="M53.3,43.3c0,0.2,4.9,0.3,11,0.3s11-0.1,11-0.3s-4.9-0.3-11-0.3S53.3,43.2,53.3,43.3z"/>
														</g>
													</g>
												</g>
											</g>
										</g>
									</g>
								</g>
							</g>
						</g>
					</g>
				</g>
			</g>
			<g>
				<g>
					<g>
						<g>
							<g>
								<g>
									<g>
										<g>
											<g>
												<g>
													<rect x="119.2" y="3.5" class="st0" width="12.9" height="48.4"/>
												</g>
											</g>
										</g>
									</g>
								</g>
							</g>
						</g>
					</g>
				</g>
				<g>
					<g>
						<g>
							<g>
								<g>
									<g>
										<g>
											<g>
												<g>
													<g>
														<path class="st4" d="M128.5,52.5c0,0,0.1-0.1,0.1-0.3c0.1-0.2,0.2-0.4,0.4-0.8c0.3-0.7,0.7-1.8,0.9-3.3
															c0.2-1.5,0.3-3.4-0.8-5.3c-0.5-0.9-1.3-1.9-2.3-2.5c-1-0.7-2.3-1.1-3.7-0.9c-0.7,0.1-1.4,0.4-1.9,0.9
															c-0.6,0.5-1,1.2-0.9,2c0,0.8,0.5,1.5,1.1,2.1c0.6,0.5,1.4,0.9,2.2,0.9c1.6,0.2,3.4-0.5,4.6-1.7
															c1.3-1.1,2.1-2.9,2.3-4.7c0.2-1.8-0.1-3.7-0.7-5.4c-0.6-1.8-1.6-3.5-3.2-4.7c-0.8-0.6-1.8-1-2.8-1.1
															c-1-0.1-2.1,0.2-2.9,1c-0.4,0.4-0.6,0.9-0.7,1.5c0,0.6,0.2,1.1,0.4,1.6c0.6,0.9,1.6,1.5,2.6,1.8
															c2.1,0.4,4.3-0.4,5.7-1.9c1.4-1.5,2-3.5,2.2-5.5c0.2-1.9,0-3.9-0.6-5.6c-0.6-1.8-1.8-3.4-3.4-4.3
															c-1.5-0.9-3.5-1.2-5.1-0.5c-0.8,0.3-1.5,1.1-1.7,2c-0.2,0.9,0.1,1.8,0.6,2.4c1.1,1.4,3,1.6,4.4,1.1
															c1.5-0.4,2.6-1.4,3.4-2.4c1.8-2.1,2.5-4.5,2.6-6.6c0.1-2.1-0.5-3.9-1.2-5.3s-1.5-2.2-2-2.7c-0.3-0.3-0.5-0.5-0.7-0.6
															c-0.2-0.1-0.2-0.2-0.3-0.2c-0.1,0.1,1.4,1,2.7,3.6c0.6,1.3,1.2,3.1,1.1,5.1c-0.1,2.1-0.9,4.4-2.6,6.4
															c-0.8,1-1.9,1.9-3.3,2.3c-1.3,0.4-3,0.1-3.8-1c-0.4-0.6-0.6-1.3-0.5-2c0.1-0.7,0.7-1.3,1.4-1.6
															c1.4-0.6,3.2-0.4,4.6,0.5c1.5,0.9,2.5,2.3,3.1,4c0.6,1.7,0.7,3.6,0.5,5.4c-0.2,1.8-0.8,3.7-2.1,5.1
															c-1.2,1.4-3.3,2.1-5.1,1.7c-0.9-0.2-1.8-0.8-2.2-1.5c-0.5-0.8-0.5-1.7,0.1-2.4c0.6-0.6,1.5-0.9,2.4-0.8
															c0.9,0,1.8,0.4,2.5,1c1.5,1.1,2.4,2.8,3,4.4c0.6,1.7,0.9,3.5,0.7,5.2c-0.2,1.7-0.9,3.3-2.1,4.3
															c-1.1,1.1-2.7,1.7-4.2,1.6c-1.4-0.1-2.8-1.2-2.9-2.5c0-0.7,0.3-1.3,0.8-1.7c0.5-0.4,1.1-0.7,1.7-0.8
															c1.2-0.2,2.5,0.2,3.4,0.8c1,0.6,1.7,1.5,2.2,2.4c1,1.8,1,3.7,0.8,5.1c-0.2,1.5-0.6,2.6-0.8,3.3
															C128.6,52.2,128.5,52.5,128.5,52.5z"/>
													</g>
												</g>
											</g>
										</g>
									</g>
								</g>
							</g>
						</g>
					</g>
				</g>
			</g>
			<g>
				<g>
					<g>
						<g>
							<g>
								<g>
									<rect x="28.8" y="1" class="st1" width="18" height="50.9"/>
								</g>
							</g>
						</g>
					</g>
				</g>
			</g>
			<g>
				<g>
					<g>
						<g>
							<g>
								<g>
									<rect x="132.1" y="6.6" class="st1" width="16.8" height="45.3"/>
								</g>
							</g>
						</g>
					</g>
				</g>
			</g>
			<g>
				<g>
					<g>
						<g>
							<g>
								<g>
									<g>
										<path class="st4" d="M149.4,29.2c0.1-0.1,0.8,1,2.7,1.9c0.9,0.4,2.1,0.8,3.4,0.9c1.3,0.1,2.8-0.1,4.2-0.7
											c1.4-0.6,2.7-1.4,4-1.9c1.3-0.5,2.6-0.6,3.7-0.3c1.1,0.3,1.8,0.8,2.1,1.3c0.4,0.5,0.4,0.8,0.4,0.8c0,0-0.2-0.3-0.6-0.7
											c-0.4-0.4-1.1-0.9-2.1-1.1c-1-0.2-2.2,0-3.4,0.4c-1.3,0.5-2.5,1.2-4,1.9c-1.5,0.7-3,0.9-4.4,0.7c-1.4-0.1-2.6-0.6-3.5-1.1
											c-0.9-0.5-1.6-1.1-2-1.5C149.5,29.5,149.4,29.2,149.4,29.2z"/>
									</g>
								</g>
							</g>
						</g>
					</g>
				</g>
			</g>
			<g>
				<g>
					<g>
						<g>
							<g>
								<g>
									<g>
										<path class="st4" d="M149,33.7c0.1-0.1,0.8,1,2.7,1.9c0.9,0.4,2.1,0.8,3.4,0.9c1.3,0.1,2.8-0.1,4.2-0.7
											c1.4-0.6,2.7-1.4,4-1.9c1.3-0.5,2.6-0.6,3.7-0.3c1.1,0.3,1.8,0.8,2.1,1.3c0.4,0.5,0.4,0.8,0.4,0.8c0,0-0.2-0.3-0.6-0.7
											c-0.4-0.4-1.1-0.9-2.1-1.1c-1-0.2-2.2,0-3.4,0.4c-1.3,0.5-2.5,1.2-4,1.9c-1.5,0.7-3,0.9-4.4,0.7c-1.4-0.1-2.6-0.6-3.5-1.1
											c-0.9-0.5-1.6-1.1-2-1.5C149.1,34,149,33.7,149,33.7z"/>
									</g>
								</g>
							</g>
						</g>
					</g>
				</g>
			</g>
			<g>
				<g>
					<g>
						<g>
							<g>
								<g>
									<g>
										<path class="st4" d="M149.3,19.2c0-0.1,4.6-0.3,10.3-0.3c5.7,0,10.3,0.1,10.3,0.3s-4.6,0.3-10.3,0.3
											C153.9,19.4,149.3,19.3,149.3,19.2z"/>
									</g>
								</g>
							</g>
						</g>
					</g>
				</g>
			</g>
			<g>
				<g>
					<g>
						<g>
							<g>
								<g>
									<g>
										<path class="st4" d="M141.6,13.9c0,0.1-0.6-0.4-1.5-0.1c-0.4,0.1-0.9,0.4-1.1,0.9c-0.2,0.5,0,1.2,0.4,1.6
											c0.5,0.5,1.2,0.6,1.7,0.4c0.5-0.2,0.8-0.8,0.9-1.2c0.2-0.9-0.3-1.4-0.2-1.5c0,0,0.2,0.1,0.3,0.3c0.2,0.3,0.3,0.7,0.2,1.2
											c-0.1,0.5-0.4,1.2-1.1,1.5c-0.7,0.4-1.6,0.2-2.2-0.4c-0.6-0.6-0.9-1.5-0.5-2.2c0.3-0.7,1-1,1.5-1.1c0.5-0.1,1,0,1.2,0.2
											C141.6,13.8,141.7,13.9,141.6,13.9z"/>
									</g>
								</g>
							</g>
						</g>
					</g>
				</g>
			</g>
			<g>
				<g>
					<g>
						<g>
							<g>
								<g>
									<g>
										<path class="st4" d="M140.6,47.4c-0.1,0-0.3-6.4-0.3-14.2s0.1-14.2,0.3-14.2s0.3,6.4,0.3,14.2
											C140.8,41,140.7,47.4,140.6,47.4z"/>
									</g>
								</g>
							</g>
						</g>
					</g>
				</g>
			</g>
		</g>
		<g>
			<g>
				<g>
					<g>
						<g>
							<rect x="13.1" y="51.7" class="st0" width="174.1" height="9.9"/>
						</g>
					</g>
				</g>
			</g>
		</g>
		<g>
			<g>
				<g>
					<g>
						<g>
							<rect x="172" y="51.7" class="st1" width="15.2" height="9.9"/>
						</g>
					</g>
				</g>
			</g>
		</g>
	</g>
	<g>
		<g>
			<g>
				<g>
					<g>
						<g>
							<g>
								<g>
									<g>
										<g>
											<g>
												<g>
													<g>
														<g>
															<g>
																<g>
																	<g>
																		<g>
																			<g>
																				<g>
																					<g>
																						<g>
																							<path class="st5" d="M187.1,179.9l-0.8,68.4c-0.1,11.6,2,28.8,20.4,28.1l0,0c15.9-1.7,20.2-16.8,20.3-27.7
																								c0-5.2,0.1-9.4,0.2-10c0,0,17.4-1.4,18.9-18.6c0.7-8.3,0.8-25.6,0.7-41.2c-0.1-16.8-13.1-30.6-29.9-31.9
																								l-1.7-0.1C197.2,146.8,186.9,161.9,187.1,179.9z"/>
																						</g>
																					</g>
																				</g>
																			</g>
																		</g>
																	</g>
																</g>
															</g>
														</g>
													</g>
												</g>
											</g>
										</g>
									</g>
								</g>
							</g>
							<g>
								<g>
									<g>
										<g>
											<g>
												<g>
													<g>
														<g>
															<g>
																<g>
																	<g>
																		<g>
																			<g>
																				<g>
																					<g>
																						<g>
																							<path class="st6" d="M227.1,238.8c0,0-10.9-0.2-22-8.3c0,0,4.5,13,21.9,12.7L227.1,238.8z"/>
																						</g>
																					</g>
																				</g>
																			</g>
																		</g>
																	</g>
																</g>
															</g>
														</g>
													</g>
												</g>
											</g>
										</g>
									</g>
								</g>
							</g>
						</g>
					</g>
				</g>
				<g>
					<g>
						<g>
							<g>
								<g>
									<g>
										<g>
											<g>
												<g>
													<g>
														<g>
															<g>
																<g>
																	<g>
																		<g>
																			<g>
																				<g>
																					<g>
																						<g>
																							<g>
																								<g>
																									<g>
																										<g>
																											<path class="st7" d="M217.3,186.1c-0.4,0.4-2.3-1.2-5.2-1.3c-2.9-0.1-5,1.3-5.3,1
																												c-0.1-0.2,0.2-0.8,1.1-1.5s2.5-1.3,4.3-1.2c1.8,0.1,3.3,0.8,4.1,1.5
																												C217.1,185.2,217.4,185.9,217.3,186.1z"/>
																										</g>
																									</g>
																								</g>
																							</g>
																						</g>
																					</g>
																				</g>
																			</g>
																		</g>
																	</g>
																</g>
															</g>
														</g>
													</g>
												</g>
											</g>
										</g>
									</g>
									<g>
										<g>
											<g>
												<g>
													<g>
														<g>
															<g>
																<g>
																	<g>
																		<g>
																			<g>
																				<g>
																					<g>
																						<g>
																							<g>
																								<g>
																									<g>
																										<path class="st7" d="M216.7,192c0,1.2-1.1,2.2-2.4,2.2c-1.3,0-2.3-1-2.2-2.3c0-1.2,1.1-2.2,2.4-2.2
																											C215.7,189.8,216.7,190.8,216.7,192z"/>
																									</g>
																								</g>
																							</g>
																						</g>
																					</g>
																				</g>
																			</g>
																		</g>
																	</g>
																</g>
															</g>
														</g>
													</g>
												</g>
											</g>
										</g>
									</g>
									<g>
										<g>
											<g>
												<g>
													<g>
														<g>
															<g>
																<g>
																	<g>
																		<g>
																			<g>
																				<g>
																					<g>
																						<g>
																							<g>
																								<g>
																									<g>
																										<path class="st7" d="M224.5,206.1c0-0.1,1.7-0.3,4.4-0.5c0.7,0,1.3-0.1,1.5-0.6c0.2-0.5,0-1.2-0.3-2
																											c-0.5-1.7-1.1-3.4-1.6-5.3c-2.2-7.5-3.8-13.7-3.5-13.8c0.3-0.1,2.4,6,4.6,13.5c0.5,1.9,1.1,3.6,1.5,5.3
																											c0.2,0.8,0.6,1.7,0.2,2.7c-0.2,0.5-0.8,0.8-1.2,0.9s-0.8,0.1-1.2,0.1
																											C226.2,206.4,224.5,206.3,224.5,206.1z"/>
																									</g>
																								</g>
																							</g>
																						</g>
																					</g>
																				</g>
																			</g>
																		</g>
																	</g>
																</g>
															</g>
														</g>
													</g>
												</g>
											</g>
										</g>
									</g>
								</g>
							</g>
						</g>
						<g>
							<g>
								<g>
									<g>
										<g>
											<g>
												<g>
													<g>
														<g>
															<g>
																<g>
																	<g>
																		<g>
																			<g>
																				<g>
																					<g>
																						<path class="st7" d="M216,175.2c-0.3,0.6-2.6,0.2-5.3,0.3c-2.8,0.1-5,0.8-5.4,0.1c-0.1-0.3,0.3-0.9,1.2-1.5
																							c0.9-0.6,2.4-1.1,4.1-1.1s3.1,0.3,4.1,0.8C215.7,174.3,216.2,174.9,216,175.2z"/>
																					</g>
																				</g>
																			</g>
																		</g>
																	</g>
																</g>
															</g>
														</g>
													</g>
												</g>
											</g>
										</g>
									</g>
								</g>
							</g>
						</g>
						<g>
							<g>
								<g>
									<g>
										<g>
											<g>
												<g>
													<g>
														<g>
															<g>
																<g>
																	<g>
																		<g>
																			<g>
																				<g>
																					<g>
																						<path class="st7" d="M243.4,180.6c-0.3,0.5-2.6,0-5.3-0.1c-2.7-0.1-5,0.3-5.3-0.3c-0.1-0.3,0.3-0.7,1.3-1.1
																							c0.9-0.4,2.4-0.7,4-0.7c1.6,0.1,3.1,0.5,4,1S243.6,180.3,243.4,180.6z"/>
																					</g>
																				</g>
																			</g>
																		</g>
																	</g>
																</g>
															</g>
														</g>
													</g>
												</g>
											</g>
										</g>
									</g>
								</g>
							</g>
						</g>
					</g>
				</g>
				<g>
					<g>
						<g>
							<g>
								<g>
									<g>
										<g>
											<g>
												<g>
													<g>
														<g>
															<g>
																<g>
																	<g>
																		<path class="st5" d="M187.6,192.8c-0.3-0.1-11.6-4.4-12.1,7.5s11.5,9.9,11.5,9.5
																			C187.1,209.4,187.6,192.8,187.6,192.8z"/>
																	</g>
																</g>
															</g>
														</g>
													</g>
												</g>
											</g>
										</g>
									</g>
								</g>
							</g>
						</g>
					</g>
				</g>
				<g>
					<g>
						<g>
							<g>
								<g>
									<g>
										<g>
											<g>
												<g>
													<g>
														<g>
															<g>
																<g>
																	<g>
																		<g>
																			<path class="st6" d="M183.6,205.1c0,0-0.2,0.1-0.6,0.3c-0.4,0.1-0.9,0.2-1.5,0c-1.2-0.5-2.2-2.5-2.2-4.7
																				c0-1.1,0.3-2.1,0.7-2.9c0.4-0.8,1-1.4,1.6-1.5c0.6-0.1,1.1,0.3,1.2,0.6c0.1,0.3,0.1,0.6,0.1,0.6
																				c0,0,0.3-0.2,0.2-0.7c0-0.2-0.2-0.5-0.4-0.8c-0.3-0.2-0.7-0.4-1.1-0.4c-0.9,0-1.8,0.8-2.2,1.7
																				c-0.5,0.9-0.8,2.1-0.8,3.3c0,2.4,1.1,4.7,2.8,5.2c0.8,0.3,1.5,0,1.9-0.2C183.6,205.4,183.7,205.2,183.6,205.1z"
																				/>
																		</g>
																	</g>
																</g>
															</g>
														</g>
													</g>
												</g>
											</g>
										</g>
									</g>
								</g>
							</g>
						</g>
					</g>
				</g>
				<g>
					<g>
						<path class="st7" d="M221.7,214.3c0.1-0.3-2.2-1-3.8-3.2c-0.8-1.1-1.3-2.2-1.6-3.1c-0.4-0.9-0.6-1.4-0.7-1.4
							c-0.1,0-0.1,0.6,0.1,1.5c0.2,0.9,0.6,2.3,1.5,3.4c0.9,1.2,2.1,2,3,2.3C221.1,214.4,221.7,214.4,221.7,214.3z"/>
					</g>
				</g>
				<g>
					<g>
						<path class="st7" d="M269.6,163.5c-0.2-0.7-0.7-1.3-1.3-1.6c-1.4-0.8-2.9-0.7-4.4-0.7c-4.6-0.1-9.1-1.5-13-3.9
							c-1.8-2.6-3.8-5-6-7.3c-5.2-5.4-9.5-9-14-10.8c-5.7-2.3-15.4-3.3-21.4-1.7c-6,1.6-11.4,6.4-12.2,12.6
							c-3.4-2.8-8.4-2.8-12.5-1.2l-0.1,0c-4.5,1.6-7.1,6.4-8.5,11.1c-1.3,4.6-1.9,9.6-4.4,13.8c-0.5,0.9-1.1,1.9-0.7,2.8
							c0.4,0.7,1.2,1,2,0.9s1.5-0.5,2.1-1c-0.5,1.2-1,2.4-1.5,3.7c1.6,0.3,3.4,0.2,5-0.3c1,4.3,2.1,9.3,3.2,12.3
							c1.9,0,3.7,0.1,4.8,1.2c1.6,1.4,2.3,4.1,5,3.1c1.4-0.5,2.6-3.4,3-4.7c3-9.1,4-18.9,2.9-28.5c1.9-2,4.2-3.7,6.7-4.8l-0.2,0.2
							c4.8-1.7,10.3-3.3,14.8-1.1c3.5,1.8,5.6,5.4,8.3,8.4c5,5.6,11.8,8.6,19.3,8.9c0.3,4.9-0.2,11.7,0.1,16.5l4.1-7.8v0
							c0.3-0.6,0.6-1.1,0.9-1.7l0.1-0.2v0c0.4-0.9,0.8-1.9,1.4-2.8c0,0,0,0,0,0c2.6,2.3,6.5-1.2,4.4-4.1c-0.4-0.6-0.9-1.1-1.5-1.5
							c1.2,1.1,3,1.7,4.6,1.2c1.6-0.5,2.8-2.1,2.6-3.7c-0.1-1.1-0.9-2.1-1.9-2.6c2.1,0.2,4.3-0.3,6.1-1.4
							C268.8,166.2,270,165.1,269.6,163.5z"/>
					</g>
				</g>
				<g>
					<g>
						<path class="st8" d="M202.8,152c0,0-0.7,0.4-1.7,1.6c-1,1.1-2.1,3.1-2.6,5.7c-0.3,1.3-0.4,2.8-0.4,4.4c0,1.6,0.1,3.3,0.2,5.1
							c0.1,1.8,0.2,3.7,0.1,5.6c0,1-0.2,2-0.4,3c-0.2,1-0.5,2-1.2,2.9c-0.6,0.7-1.6,1-2.4,0.8c-0.9-0.2-1.6-0.6-2.2-1.2
							c-1.1-1.3-1.4-2.9-1.7-4.4l0.4,0c-0.6,1.3-1.2,2.6-2.1,3.6s-2.1,1.7-3.4,1.8c-0.6,0-1.2,0-1.8-0.3c-0.5-0.3-0.9-0.7-1.2-1.2
							c-0.3-0.5-0.4-1-0.4-1.5c0-0.5,0.2-1,0.6-1.3l0.2,0.2c-1.3,1.5-2.7,2.3-3.7,2.8c-0.5,0.2-0.9,0.4-1.1,0.4
							c-0.3,0.1-0.4,0.1-0.4,0.1c0,0,0.1-0.1,0.4-0.2c0.3-0.1,0.6-0.3,1.1-0.5c0.9-0.5,2.3-1.3,3.6-2.8l0.2,0.2
							c-0.6,0.6-0.6,1.7-0.1,2.6c0.3,0.4,0.6,0.8,1.1,1.1c0.5,0.2,1.1,0.3,1.6,0.3c1.1-0.1,2.3-0.8,3.1-1.7c0.8-1,1.4-2.2,2-3.5
							l0.3-0.6l0.1,0.6c0.3,1.5,0.6,3,1.6,4.2c0.5,0.6,1.2,1,2,1.1c0.8,0.1,1.5-0.1,2.1-0.7c0.7-0.7,0.9-1.7,1.1-2.7
							c0.2-1,0.3-1.9,0.4-2.9c0.1-1.9,0-3.8-0.1-5.6c-0.1-1.8-0.2-3.5-0.2-5.1c0-1.6,0.2-3.1,0.5-4.4c0.6-2.7,1.8-4.7,2.8-5.8
							C202,152.4,202.8,152,202.8,152z"/>
					</g>
				</g>
				<g>
					<g>
						<path class="st8" d="M256.1,168.7c0,0,0,0-0.1,0.1c-0.1,0.1-0.3,0.2-0.4,0.3c-0.2,0.1-0.4,0.3-0.7,0.5
							c-0.3,0.2-0.6,0.4-1.1,0.6c-1.6,0.8-4.2,1.5-7.4,1.3c-3.2-0.2-7-1.3-10.4-3.8c-3.4-2.5-6.5-6.1-8.9-10.3
							c-1.2-2.1-2.3-4.2-3.4-6.2c-1.1-2-2.3-3.8-3.8-5.3c-1.5-1.5-3.2-2.5-5-3c-0.9-0.3-1.8-0.3-2.6-0.3c-0.8,0-1.7,0.2-2.4,0.5
							c-1.5,0.5-2.7,1.3-3.6,2.2c-0.9,0.8-1.5,1.8-1.9,2.5c-0.8,1.6-0.8,2.6-0.9,2.6c0,0,0-0.1,0-0.2c0-0.1,0-0.3,0.1-0.5
							c0.1-0.5,0.3-1.1,0.7-1.9c0.4-0.8,1-1.7,1.9-2.6c0.9-0.9,2.1-1.7,3.7-2.3c0.8-0.3,1.6-0.4,2.5-0.5c0.9,0,1.8,0,2.7,0.3
							c1.8,0.5,3.6,1.6,5.1,3.1c1.5,1.5,2.8,3.3,3.9,5.3c1.1,2,2.2,4.1,3.4,6.2c2.5,4.1,5.4,7.8,8.8,10.2c3.4,2.5,7.1,3.6,10.2,3.9
							c3.2,0.2,5.7-0.5,7.3-1.2C255.3,169.4,256.1,168.7,256.1,168.7z"/>
					</g>
				</g>
				<g>
					<g>
						<path class="st8" d="M257.6,161.2c0,0-0.2,0.2-0.6,0.4c-0.4,0.3-1,0.6-1.8,0.9c-0.8,0.4-1.8,0.7-2.9,1
							c-1.1,0.3-2.4,0.4-3.7,0.5c-1.3,0-2.6-0.1-3.7-0.3c-1.1-0.2-2.1-0.5-3-0.8c-0.8-0.3-1.5-0.6-1.9-0.8c-0.4-0.2-0.7-0.4-0.6-0.4
							c0-0.1,1,0.4,2.6,0.9c0.8,0.3,1.8,0.5,2.9,0.7s2.4,0.3,3.7,0.2c1.3,0,2.5-0.2,3.6-0.4c1.1-0.3,2.1-0.5,2.9-0.8
							C256.7,161.7,257.6,161.1,257.6,161.2z"/>
					</g>
				</g>
				<g>
					<g>
						<g>
							<g>
								<g>
									<g>
										<g>
											<g>
												<g>
													<g>
														<path class="st7" d="M243.6,187.1c-0.4,0.4-2.3-1.2-5.2-1.3c-2.9-0.1-5,1.3-5.3,1c-0.1-0.2,0.2-0.8,1.1-1.5
															s2.5-1.3,4.3-1.2c1.8,0.1,3.3,0.8,4.1,1.5C243.4,186.3,243.8,187,243.6,187.1z"/>
													</g>
												</g>
											</g>
										</g>
									</g>
								</g>
							</g>
						</g>
					</g>
				</g>
				<g>
					<g>
						<g>
							<g>
								<g>
									<g>
										<g>
											<g>
												<g>
													<path class="st7" d="M240.6,192.9c0,1.2-1.1,2.2-2.4,2.2c-1.3,0-2.3-1-2.3-2.3c0-1.2,1.1-2.2,2.4-2.2
														C239.7,190.6,240.7,191.6,240.6,192.9z"/>
												</g>
											</g>
										</g>
									</g>
								</g>
							</g>
						</g>
					</g>
				</g>
			</g>
			<g>
				<path class="st5" d="M348.3,255.8c0-5-4.8-5-4.8-5c-1.8-2.4-3.9-1.5-3.9-1.5l-7.7,5.2c-1.1,2-8.6,9.4-8.6,9.4
					c-2-1.5-2-4.6-4.5-8.3c-2.5-3.7-8-3.3-8-3.3s4.3,9.8,4.8,15.9s-3.3,23.1-3.3,23.1l21.9,6.1c0,0,1.4-9.3,3.8-10.1
					c3-0.9,4.6-5.3,4.6-5.3c3.2-6.5,9.7-15.9,10.6-20.6C354,256.7,348.3,255.8,348.3,255.8z"/>
			</g>
			<g>
				<g>
					<g>
						<path class="st8" d="M185.5,245c13.9,8.8,28,12,42.2,6.4l21.4,5.5l21,140.6l-123.4,1.1l6.1-32.6l15.3-117.3L185.5,245z"/>
					</g>
					<g>
						<path class="st8" d="M249.1,256.9c0,0,16.6,6.9,23,19s16.5,46.1,16.5,46.1l18.8-34.5l34.9,8.9c0,0-26,71.6-32.5,78.2
							c-7.1,7.1-26.6,14.3-36.1,8.8c-9.5-5.6-11.5-26.7-11.5-26.7L249.1,256.9z"/>
					</g>
					<g>
						<g>
							<path class="st7" d="M250.2,315.7c-0.1,0-0.2-6.2-0.2-13.9c0-7.7,0.1-13.9,0.2-13.9c0.1,0,0.2,6.2,0.2,13.9
								C250.4,309.4,250.3,315.7,250.2,315.7z"/>
						</g>
					</g>
					<g>
						<g>
							<path class="st7" d="M256.8,264.9c0,0-0.3,0.9-0.8,2.3c-0.5,1.4-1.2,3.4-1.9,5.6c-0.7,2.2-1.2,4.2-1.6,5.7
								c-0.4,1.5-0.6,2.4-0.6,2.4c0,0,0-0.2,0.1-0.7c0.1-0.4,0.2-1,0.3-1.8c0.3-1.5,0.8-3.5,1.5-5.7c0.7-2.2,1.4-4.1,2-5.6
								c0.3-0.7,0.5-1.3,0.7-1.6S256.7,264.9,256.8,264.9z"/>
						</g>
					</g>
				</g>
				<g>
					<g>
						<path class="st8" d="M165.9,301.2l3.9-53c0,0-29,2.7-38.6,23.2c-8.1,17.3-30.5,69.2-32.9,76.3c-7,20.9,3.9,49.5,49.2,47.9
							l5.2-28.4L165.9,301.2z"/>
					</g>
					<g>
						<g>
							<path class="st7" d="M133.3,373.2c0,0,0.1-0.2,0.2-0.5c0.2-0.4,0.4-0.8,0.7-1.4c0.7-1.3,1.6-3,2.8-5.2
								c0.3-0.5,0.6-1.1,0.9-1.7c0.3-0.6,0.7-1.2,1.3-1.7c0.6-0.5,1.4-0.7,2.2-0.6c0.8,0,1.6,0.2,2.4,0.4c1.6,0.4,3.3,1,4.9,1.8
								c0.8,0.4,1.6,0.9,2.3,1.5l0.3,0.2c0.1,0.1,0.2,0.2,0.2,0.4c0.1,0.3,0.1,0.5,0.1,0.7c0,0.5,0,1,0,1.4
								c-0.1,1.9-0.3,3.8-0.5,5.5c-0.2,1.8-0.5,3.5-0.8,5.1c-0.5,3.3-1.1,6.2-1.6,8.6c-0.5,2.4-0.9,4.4-1.1,5.8
								c-0.1,0.7-0.2,1.2-0.3,1.6c-0.1,0.4-0.1,0.5-0.1,0.5c0,0,0-0.2,0-0.6s0.1-0.9,0.3-1.6c0.3-1.4,0.6-3.4,1-5.8
								c0.4-2.5,1-5.4,1.5-8.6c0.3-1.6,0.5-3.3,0.8-5.1c0.2-1.8,0.5-3.6,0.5-5.5c0-0.5,0-0.9,0-1.4c0-0.2,0-0.4-0.1-0.6
								c0-0.1-0.1-0.2-0.1-0.2l-0.3-0.2c-0.7-0.6-1.5-1.1-2.3-1.5c-1.6-0.8-3.2-1.4-4.8-1.8c-0.8-0.2-1.6-0.4-2.3-0.4
								c-0.8,0-1.5,0.2-2.1,0.6c-0.6,0.4-0.9,1-1.3,1.6c-0.3,0.6-0.6,1.2-0.9,1.7c-1.2,2.2-2.2,3.9-2.9,5.2
								c-0.3,0.6-0.6,1.1-0.8,1.4C133.5,373,133.4,373.2,133.3,373.2z"/>
						</g>
					</g>
					<g>
						<g>
							<path class="st7" d="M112.3,348c0,0,0.1,0,0.4,0c0.3,0,0.6,0,1,0c0.8,0,2.1,0.1,3.6,0.3c1.5,0.1,3.3,0.4,5.3,0.8
								c2,0.4,4.1,1.1,6.2,2.1c2.1,1,3.9,2.2,5.5,3.6c1.5,1.4,2.6,2.8,3.3,4.2c0.7,1.4,1,2.6,1,3.4c0.1,0.4,0,0.7,0,1
								c0,0.2,0,0.4,0,0.3c0,0,0-0.5-0.1-1.3s-0.4-2-1.1-3.4c-0.7-1.3-1.8-2.7-3.3-4.1c-1.5-1.3-3.3-2.5-5.4-3.5
								c-2.1-1-4.2-1.6-6.1-2.1c-1.9-0.4-3.7-0.7-5.2-0.8c-1.5-0.2-2.7-0.3-3.6-0.4c-0.4,0-0.7-0.1-1-0.1
								C112.5,348,112.3,348,112.3,348z"/>
						</g>
					</g>
					<g>
						<g>
							<path class="st7" d="M143.4,345.3c0,0-0.2,0.8-0.7,2.1s-1.2,3-2.1,4.9c-0.8,1.9-1.6,3.5-2.2,4.9c-0.6,1.2-0.9,2-0.9,2
								s0.2-0.8,0.7-2.1c0.5-1.3,1.2-3,2.1-4.9c0.8-1.9,1.6-3.5,2.2-4.9C143,346.1,143.4,345.3,143.4,345.3z"/>
						</g>
					</g>
					<g>
						<g>
							<path class="st7" d="M159.5,303.6c-0.1,0-0.2-3.4-0.2-7.5c0-4.1,0.1-7.5,0.2-7.5c0.1,0,0.2,3.4,0.2,7.5
								C159.7,300.3,159.6,303.6,159.5,303.6z"/>
						</g>
					</g>
					<g class="st9">
						<g>
							<path d="M138.5,363.7c-7.6,2.7-12.8,9.6-14.9,17.4c-0.2,0.8-0.4,1.8,0.2,2.4c0.6,0.7,1.6,0.7,2.4,0.2c0.8-0.4,1.2-1.2,1.7-2
								C131.6,375.9,135.1,370.4,138.5,363.7L138.5,363.7z"/>
						</g>
					</g>
					<g>
						<g class="st9">
							<g>
								<path d="M129,348.6c-4-2.2-8.6-3.2-13.1-3.4c-1.8-0.1-3.6,0.1-5.3,0.5c-2.4,0.5-5.1,1.7-5.6,3.4c5.5-1.7,13.5-0.6,19.2,0.6
									c5.7,1.2,10.3,4.5,13.4,9.5C136.1,354.9,132.9,350.7,129,348.6z"/>
							</g>
						</g>
					</g>
					<g>
						<g>
							<path class="st7" d="M155.2,281.1c0,0-0.1-0.3-0.3-0.8s-0.4-1.3-0.7-2.3c-0.6-1.9-1.7-4.5-3.2-7.1c-1.5-2.6-3.3-4.8-4.7-6.3
								c-0.7-0.8-1.2-1.3-1.7-1.7c-0.4-0.4-0.6-0.6-0.6-0.6c0,0,0.3,0.2,0.7,0.5c0.4,0.4,1,0.9,1.7,1.6c1.4,1.4,3.2,3.6,4.8,6.3
								c1.6,2.7,2.6,5.3,3.2,7.2c0.3,1,0.5,1.8,0.6,2.3C155.2,280.8,155.2,281.1,155.2,281.1z"/>
						</g>
					</g>
				</g>
			</g>
			<g>
				<g>
					<g>
						<path class="st10" d="M165.9,398.5l-32.4-78.1c-1.5-3.6,0.4-6.4,4.1-6.4h6.5c2.6,0,4.5-1.5,4.6-3.8l0.2-2.9
							c0.2-2.3,2-3.8,4.6-3.8h30.9c2.4,0,5.1,1.2,7.2,3.2l2.5,2.4c2,2,4.8,3.2,7.1,3.2h39.4c3.8,0,8,2.9,9.4,6.4l32.1,79.7
							L165.9,398.5L165.9,398.5z"/>
					</g>
				</g>
				<g class="st9">
					<g>
						<path d="M165.9,398.5l-32.4-78.1c-1.5-3.6,0.4-6.4,4.1-6.4h6.5c2.6,0,4.5-1.5,4.6-3.8l0.2-2.9c0.2-2.3,2-3.8,4.6-3.8h30.9
							c2.4,0,5.1,1.2,7.2,3.2l2.5,2.4c2,2,4.8,3.2,7.1,3.2h39.4c3.8,0,8,2.9,9.4,6.4l32.1,79.7L165.9,398.5L165.9,398.5z"/>
					</g>
				</g>
				<g>
					<path class="st1" d="M160.5,372l-12.2-47.2c-0.8-3.1,1.2-6.2,4.1-6.2H248c1.9,0,3.6,1.4,4.1,3.5l17.8,71c0.8,3.1-0.5,5-3.3,4.9
						l-96.3,0c-1.9,0-3.5-1.4-4-3.5L160.5,372z"/>
				</g>
				<g>
					<g>
						<path class="st0" d="M167.1,396.4l-5.2-74.3c-0.2-2.6,1.9-4.9,4.5-4.9h99.1v79.2H167.1z"/>
					</g>
					<g>
						<g>
							<g>
								<g>
									<path class="st4" d="M166,398.1l11.8-76.6c0.5-2.5,2.8-4.3,5.4-4.3h100.3c4,0,6.6,4,5.1,7.5l-21.7,70.1L166,398.1z"/>
								</g>
							</g>
						</g>
					</g>
				</g>
				<g>
					<g>
						<g>
							<g>
								<g>
									<path class="st10" d="M165.9,398.5l24.3-71.8c1-3,3.7-5,6.8-5h103.4c3.3,0,5.7,3.4,4.6,6.7l-22.6,70.1L165.9,398.5z"/>
								</g>
							</g>
						</g>
					</g>
				</g>
			</g>
			<g class="st9">
				<g>
					<path d="M215.9,386.5c0,0-3.9,0.2-5.7,0.3c-8.6,0.6-17.3-1-25.1-4.5c-2.4-1.1-5-2.6-5.7-5.2c-0.8-2.9,1-5.9,3.3-7.8
						c2.3-1.9,5-3.3,7-5.6c2-2.2,2.9-5.9,1-8.1l-0.5,0.4c-1.4,3.5-5.3,5.3-8.5,7.3c-6,3.8-10.5,9.7-12.6,16.5
						c-1.1,3.7-1.4,8,0.8,11.2c1.6,2.2,4.2,3.5,6.8,4.5c7.8,2.9,16.2,3,24.5,3c2.6,0,10.7-0.1,10.7-0.1c2.5-0.7,3.4-2,4.9-4.2
						C218,392.3,217.7,388,215.9,386.5z"/>
				</g>
			</g>
			<g>
				<g>
					<g>
						<path class="st5" d="M215.9,386.5l-27-4.1l-10.5-6c-1.4-0.8-2.3-2.2-2.4-3.8c0,0,0-0.1,0-0.1c-0.1-2,1.1-3.8,3-4.6
							c3.3-1.4,8.6-3.3,10.8-7.2c3.2-5.6,0-6.8,0-6.8l-22.5,9l-15.9,10.9l-3.2,18.1l22.2,7.3c0,0,24.8,1.4,31.6,0.6
							c6.8-0.8,6.8-4,6.8-4c1.3-0.4,3.8-2.6,3.8-4.8C216,388,215.9,386.5,215.9,386.5"/>
					</g>
				</g>
				<g>
					<g>
						<g>
							<path class="st6" d="M181.4,394.3c0,0,0.4,0,1.1,0.2s1.7,0.4,3,0.7c2.5,0.5,6.1,1,10,1.2c3.9,0.1,7.5-0.1,10.1-0.4
								c1.3-0.2,2.3-0.3,3-0.4c0.7-0.1,1.1-0.2,1.1-0.1c0,0-0.4,0.1-1.1,0.3c-0.7,0.2-1.7,0.4-3,0.6c-2.6,0.4-6.2,0.7-10.1,0.5
								c-4-0.2-7.5-0.8-10.1-1.3c-1.3-0.3-2.3-0.6-3-0.8C181.8,394.4,181.4,394.3,181.4,394.3z"/>
						</g>
					</g>
				</g>
				<g>
					<g>
						<g>
							<path class="st6" d="M183.8,390.1c0,0,0.4,0,1.1,0.2c0.7,0.2,1.8,0.4,3,0.7c2.6,0.5,6.2,1,10.2,1.1c4,0.1,7.6-0.1,10.2-0.5
								c1.3-0.2,2.4-0.3,3.1-0.4c0.7-0.1,1.1-0.2,1.1-0.1c0,0-0.4,0.1-1.1,0.3c-0.7,0.2-1.8,0.4-3.1,0.6c-2.6,0.4-6.3,0.7-10.3,0.6
								c-4-0.1-7.7-0.7-10.2-1.3c-1.3-0.3-2.3-0.6-3-0.8C184.2,390.3,183.8,390.1,183.8,390.1z"/>
						</g>
					</g>
				</g>
			</g>
		</g>
		<g>
			<g>
				<g>
					<g>
						<g>
							<g>
								<g>
									<g>
										<g>
											<g>
												<path class="st0" d="M342.9,290.4l-47.9,9.5c-3.3,0.7-6.5-1.5-7.2-4.8l-13.1-66.3c-0.7-3.3,1.5-6.5,4.8-7.2l30.4-6
													l28.3,19.6l9.5,48.1C348.3,286.5,346.2,289.7,342.9,290.4z"/>
											</g>
										</g>
									</g>
								</g>
							</g>
							<g>
								<g>
									<g>
										<g>
											<g>
												<path class="st3" d="M309.9,215.5l3.7,18.7c0.6,3.1,3.6,5.1,6.7,4.5l18-3.5L309.9,215.5z"/>
											</g>
										</g>
									</g>
								</g>
							</g>
							<g>
								<g>
									<g>
										<g>
											<g>
												<path class="st1" d="M314.1,235.8c0,0,0.7,4.6,6.1,5c0.2,0,0.4,0,0.6,0c2.4,0,18.4-0.4,18.3-0.7c-0.1-0.4-1-5-1-5
													l-18,3.5C320.3,238.7,315.7,239.4,314.1,235.8z"/>
											</g>
										</g>
									</g>
								</g>
							</g>
						</g>
					</g>
					<g>
						<g>
							<g>
								<g>
									<g>
										<g>
											<path class="st7" d="M342.9,290.4c0,0,0.1,0,0.3-0.1c0.2,0,0.4-0.1,0.7-0.2c0.6-0.3,1.6-0.8,2.5-1.8
												c0.8-1,1.6-2.7,1.3-4.7c-0.4-1.9-0.8-4.2-1.3-6.7c-2-10-4.9-24.4-8.3-41.7l0.1,0.1c-8.6-5.9-18.1-12.5-28.3-19.6l0.1,0
												c-5.6,1.1-11.5,2.3-17.5,3.5c-3,0.6-6.1,1.2-9.2,1.8c-0.8,0.2-1.5,0.3-2.3,0.5c-0.8,0.2-1.6,0.3-2.3,0.5
												c-1.5,0.5-2.7,1.7-3.3,3.1c-0.4,1-0.6,2.1-0.5,3.2c0.2,1.1,0.4,2.2,0.6,3.3c0.4,2.2,0.8,4.3,1.3,6.5
												c0.8,4.3,1.7,8.5,2.5,12.7c1.6,8.3,3.2,16.3,4.7,23.9c0.7,3.8,1.5,7.5,2.2,11.1c0.4,1.8,0.7,3.6,1.1,5.3
												c0.2,0.9,0.4,1.7,0.5,2.6c0.2,0.9,0.3,1.7,0.6,2.5c0.6,1.6,2,2.8,3.5,3.3c0.8,0.3,1.6,0.4,2.4,0.4c0.8,0,1.6-0.3,2.4-0.4
												c3.1-0.6,6.2-1.2,9-1.8c11.5-2.2,20.8-4.1,27.3-5.3c3.2-0.6,5.7-1.1,7.4-1.4c0.8-0.2,1.5-0.3,1.9-0.4
												C342.6,290.4,342.9,290.4,342.9,290.4s-0.2,0-0.7,0.1c-0.4,0.1-1.1,0.2-1.9,0.4c-1.7,0.4-4.2,0.8-7.4,1.5
												c-6.4,1.3-15.8,3.1-27.3,5.4c-2.9,0.6-5.9,1.2-9,1.8c-0.8,0.1-1.6,0.4-2.4,0.4c-0.8,0-1.7-0.1-2.5-0.4
												c-1.6-0.6-3-1.9-3.7-3.5c-0.4-0.8-0.4-1.7-0.6-2.6c-0.2-0.9-0.4-1.7-0.5-2.6c-0.4-1.8-0.7-3.5-1.1-5.3
												c-0.7-3.6-1.5-7.3-2.2-11.1c-1.5-7.6-3.1-15.6-4.7-23.9c-0.8-4.1-1.7-8.4-2.5-12.7c-0.4-2.1-0.8-4.3-1.3-6.5
												c-0.2-1.1-0.4-2.2-0.6-3.3c-0.2-1.1,0-2.3,0.5-3.4c0.7-1.5,2-2.7,3.5-3.3c0.8-0.3,1.6-0.4,2.3-0.6
												c0.8-0.2,1.5-0.3,2.3-0.5c3.1-0.6,6.2-1.2,9.2-1.8c6-1.2,11.9-2.3,17.5-3.5l0.1,0l0,0c10.2,7.1,19.7,13.7,28.3,19.6l0,0
												v0c3.4,17.4,6.2,31.7,8.2,41.8c0.5,2.5,0.9,4.7,1.3,6.7c0.3,2-0.5,3.7-1.4,4.7c-0.9,1.1-1.9,1.5-2.5,1.8
												c-0.3,0.1-0.6,0.2-0.8,0.2C343,290.4,342.9,290.4,342.9,290.4z"/>
										</g>
									</g>
								</g>
							</g>
						</g>
					</g>
					<g>
						<g>
							<g>
								<g>
									<g>
										<g>
											<path class="st7" d="M338.2,235.1c0,0-0.2,0-0.4,0.1c-0.3,0.1-0.8,0.2-1.3,0.3c-1.2,0.3-2.8,0.6-4.9,1
												c-2.1,0.4-4.5,0.9-7.2,1.5c-1.4,0.3-2.8,0.5-4.3,0.8c-1.5,0.3-3.2-0.1-4.5-1.1c-0.7-0.5-1.2-1.1-1.6-1.8
												c-0.4-0.7-0.6-1.5-0.7-2.2c-0.3-1.5-0.6-2.9-0.8-4.3c-0.5-2.7-1-5.2-1.4-7.2c-0.4-2-0.7-3.7-0.9-4.9
												c-0.1-0.5-0.2-1-0.2-1.3c0-0.3-0.1-0.5,0-0.5c0,0,0,0.2,0.1,0.4c0.1,0.3,0.2,0.8,0.3,1.3c0.3,1.2,0.6,2.8,1,4.9
												c0.4,2.1,0.9,4.5,1.5,7.2c0.3,1.4,0.6,2.8,0.8,4.3c0.1,0.8,0.3,1.5,0.7,2.1c0.4,0.7,0.9,1.2,1.5,1.7
												c1.2,0.9,2.8,1.3,4.3,1.1c1.5-0.3,2.9-0.6,4.3-0.8c2.7-0.5,5.2-1,7.2-1.4c2-0.4,3.7-0.7,4.9-0.9c0.5-0.1,1-0.2,1.3-0.2
												C338,235.1,338.2,235.1,338.2,235.1z"/>
										</g>
									</g>
								</g>
							</g>
						</g>
					</g>
				</g>
				<g>
					<g>
						<path class="st7" d="M312.3,232.4c0,0.1-5.6,1.3-12.6,2.7c-7,1.4-12.7,2.4-12.7,2.3c0-0.1,5.6-1.3,12.6-2.7
							C306.6,233.3,312.2,232.3,312.3,232.4z"/>
					</g>
				</g>
				<g>
					<g>
						<path class="st7" d="M326.1,239.3c0,0.1-8.3,1.8-18.6,3.8c-10.3,2-18.7,3.6-18.7,3.5c0-0.1,8.3-1.8,18.6-3.8
							C317.7,240.8,326.1,239.2,326.1,239.3z"/>
					</g>
				</g>
				<g>
					<g>
						<path class="st7" d="M327.9,248.6c0,0.1-8.3,1.8-18.6,3.8c-10.3,2-18.7,3.6-18.7,3.5s8.3-1.8,18.6-3.8
							C319.5,250.1,327.9,248.5,327.9,248.6z"/>
					</g>
				</g>
				<g>
					<g>
						<path class="st7" d="M292.5,265.3c0-0.1,8.3-1.8,18.6-3.8c10.3-2,18.7-3.6,18.7-3.5s-8.3,1.8-18.6,3.8
							C300.9,263.8,292.5,265.4,292.5,265.3z"/>
					</g>
				</g>
				<g>
					<g>
						<path class="st7" d="M331.6,267.2c0,0.1-8.3,1.8-18.6,3.8c-10.3,2-18.7,3.6-18.7,3.5c0-0.1,8.3-1.8,18.6-3.8
							C323.2,268.7,331.6,267.1,331.6,267.2z"/>
					</g>
				</g>
				<g>
					<g>
						<path class="st7" d="M333.4,276.5c0,0.1-8.3,1.8-18.6,3.8c-10.3,2-18.7,3.6-18.7,3.5s8.3-1.8,18.6-3.8
							C325.1,278,333.4,276.4,333.4,276.5z"/>
					</g>
				</g>
				<g>
					<path class="st10" d="M315.4,282.4l-38.7,7.7c-0.5,0.1-1.1-0.2-1.2-0.8l-3.2-16.3c-0.1-0.5,0.2-1.1,0.8-1.2l38.7-7.7
						c0.5-0.1,1.1,0.2,1.2,0.8l3.2,16.3C316.3,281.7,315.9,282.3,315.4,282.4z"/>
				</g>
			</g>
			<g>
				<g>
					<g>
						<path class="st5" d="M335.3,241c0,0,3.5-4.5,6.3-2c2.7,2.5,1.9,3.8-0.7,7.8c0,0,5.8-0.3,3.9,5.6c0,0,5.8-0.6,5.2,4.2
							c0,0,4.4,4.3,2.1,7c-2.3,2.7-10.5,7.7-12.5,6.8c-2.1-0.8-2.1-3.8-2.1-3.8s-2.5-1.1-3.1-2.4c-0.7-1.3,0.5-3.1,0.5-3.1
							s-2.1-2.1-2.6-2.7c-0.5-0.6,0.3-3.4,0.3-3.4l3.3-3.2c0,0-4.6,2-5.5,1.2c-1-0.8-2-1.4-1-2.8c1-1.4,4.6-4.5,4.6-4.5L335.3,241z"
							/>
					</g>
				</g>
				<g>
					<g>
						<g>
							<path class="st6" d="M338,267.1c0,0,0.6-0.7,1.5-1.8c0.9-1.1,2.3-2.7,4.2-3.9c1.9-1.2,3.7-2.1,4.7-3c1.1-0.9,1.5-1.7,1.6-1.7
								c0,0-0.3,0.9-1.4,1.9c-1.1,1.1-2.8,2.1-4.7,3.2c-1.9,1.1-3.2,2.6-4.2,3.7C338.8,266.5,338,267.1,338,267.1z"/>
						</g>
					</g>
				</g>
				<g>
					<g>
						<g>
							<path class="st6" d="M334.8,262c-0.1-0.1,2-2.4,4.7-5.1c1.4-1.3,2.6-2.6,3.6-3.4c1-0.8,1.8-1.1,1.8-1.1
								c0,0.1-0.6,0.5-1.5,1.3c-0.9,0.8-2,2.2-3.4,3.5C337.2,260,334.9,262.2,334.8,262z"/>
						</g>
					</g>
				</g>
				<g>
					<g>
						<g>
							<path class="st6" d="M335.9,251.9c-0.1-0.1,1.2-1.2,2.6-2.6c1.5-1.4,2.2-2.9,2.3-2.8c0.2,0-0.4,1.7-2,3.2
								C337.4,251.2,336,252,335.9,251.9z"/>
						</g>
					</g>
				</g>
				<g>
					<g>
						<g>
							<path class="st6" d="M335.3,241c0,0,0,0.1-0.1,0.3c-0.1,0.3-0.1,0.6-0.2,0.9c-0.2,0.9-0.5,2.1-0.9,3.6v0l0,0
								c-0.7,0.6-1.4,1.3-2.2,2c-0.8,0.8-1.7,1.6-2.5,2.6c-0.2,0.3-0.3,0.6-0.3,0.8c0,0.3,0.2,0.5,0.4,0.8c0.2,0.2,0.5,0.4,0.8,0.7
								c0.2,0.2,0.6,0.2,0.9,0.2c1.5-0.2,3-0.8,4.5-1.4l1.1-0.4L336,252c-1.1,1-2.2,2.1-3.3,3.2l0-0.1c-0.4,1-0.7,2.3-0.2,3.4
								c0.6,1,1.6,1.9,2.6,2.7l0.2,0.2l-0.2,0.2c-0.7,0.8-1.2,2.2-0.3,3c0.8,0.9,2,1.5,3.1,2.1l-0.4,0.2v-0.1v0l0,0
								c0.1,0.1-0.2-0.2,0.2,0.2c0.8-0.4,0.2-0.1,0.4-0.2l0,0l0,0v0.1v0.3c0,0.2,0,0.4,0,0.5c0,0.4,0.1,0.7,0.3,1.1
								c0.1,0.3,0.3,0.6,0.6,0.9c0.3,0.2,0.6,0.5,0.9,0.5c0.7,0.1,1.5-0.2,2.2-0.4c0.7-0.3,1.5-0.6,2.2-1c1.4-0.7,2.6-1.5,3.9-2.3
								s2.4-1.8,3.4-2.8c0.5-0.5,0.8-1.1,0.9-1.7c0.1-0.7-0.1-1.3-0.4-1.9c-0.5-1.2-1.4-2.4-2.3-3.3l-0.1-0.1v-0.1
								c0-0.7,0.1-1.3-0.2-1.9c-0.2-0.6-0.6-1.1-1.2-1.4c-1.1-0.6-2.4-0.8-3.6-0.7l-0.3,0l0.1-0.3c0.1-0.4,0.2-0.7,0.3-1.1
								c0-0.4,0.1-0.7,0.1-1.1c0-0.7-0.2-1.4-0.6-1.9c-0.8-1-2.2-1.4-3.4-1.3h-0.4l0.2-0.3c0.7-1.1,1.4-2,1.9-3
								c0.2-0.5,0.4-1,0.5-1.5c0-0.5-0.1-1-0.3-1.4c-0.5-0.8-1.1-1.5-1.8-2c-0.7-0.4-1.5-0.4-2.2-0.2c-1.3,0.4-2.2,1.2-2.7,1.7
								c-0.3,0.3-0.5,0.4-0.6,0.6C335.4,240.9,335.3,241,335.3,241s0-0.1,0.2-0.2c0.1-0.1,0.3-0.4,0.6-0.6c0.3-0.3,0.6-0.6,1-0.9
								c0.4-0.3,1-0.7,1.7-0.9c0.7-0.2,1.6-0.3,2.4,0.2c0.2,0.1,0.4,0.3,0.6,0.4c0.2,0.2,0.3,0.3,0.5,0.5c0.3,0.4,0.7,0.7,0.9,1.2
								c0.3,0.4,0.4,1,0.4,1.6c0,0.6-0.2,1.1-0.5,1.6c-0.5,1-1.2,2-1.9,3.1l-0.2-0.3c0.7,0,1.3,0.1,2,0.3c0.7,0.2,1.3,0.6,1.8,1.2
								c0.5,0.6,0.7,1.4,0.7,2.1c0,0.4,0,0.8-0.1,1.1c-0.1,0.4-0.2,0.8-0.3,1.1l-0.3-0.3c1.3-0.1,2.6,0,3.9,0.7
								c0.6,0.4,1.1,0.9,1.4,1.6c0.3,0.7,0.3,1.4,0.2,2.1l-0.1-0.2c1,1,1.8,2.1,2.4,3.5c0.3,0.7,0.5,1.4,0.4,2.2
								c0,0.4-0.2,0.8-0.3,1.1c-0.2,0.3-0.4,0.7-0.7,0.9c-1,1.1-2.2,2-3.5,2.9c-1.2,0.9-2.6,1.7-3.9,2.4c-0.7,0.4-1.5,0.7-2.2,1
								c-0.8,0.3-1.5,0.5-2.5,0.4c-1-0.2-1.5-0.9-1.9-1.7c-0.2-0.4-0.3-0.8-0.3-1.2c0-0.2,0-0.4,0-0.6V267v-0.2v0l0,0
								c0.2-0.1-0.4,0.1,0.4-0.2c0.3,0.4,0.1,0.2,0.2,0.2v0v0v0.1l0,0.4l-0.4-0.2c-1.2-0.6-2.3-1.3-3.3-2.3
								c-0.2-0.3-0.4-0.5-0.6-0.9s-0.1-0.7,0-1.1c0.1-0.7,0.5-1.3,0.9-1.8l0,0.4c-1.1-0.8-2.1-1.7-2.8-2.9c-0.3-0.6-0.4-1.3-0.3-2
								c0.1-0.7,0.2-1.2,0.5-1.8l0,0l0,0c1.1-1.1,2.3-2.2,3.3-3.2l0.2,0.4c-1.6,0.6-3.1,1.2-4.6,1.4c-0.4,0-0.9,0-1.2-0.3
								c-0.3-0.2-0.6-0.4-0.8-0.7c-0.3-0.3-0.5-0.6-0.5-1c0-0.4,0.1-0.8,0.3-1.1c0.8-1.1,1.8-1.9,2.6-2.7c0.8-0.8,1.6-1.4,2.3-2
								l0,0.1c0.4-1.5,0.8-2.7,1.1-3.6c0.1-0.4,0.2-0.7,0.3-0.9C335.3,241.1,335.3,241,335.3,241z"/>
						</g>
					</g>
				</g>
			</g>
		</g>
	</g>
	<g>
		<g>
			<g>
				<g>
					<g>
						<g>
							<g>
								<g>
									<g>
										<g>
											<path class="st0" d="M415.7,218.9h-40.4c-2.8,0-5.1-2.3-5.1-5.1v-55.9c0-2.8,2.3-5.1,5.1-5.1h25.6l19.9,20.5v40.5
												C420.8,216.7,418.5,218.9,415.7,218.9z"/>
										</g>
									</g>
								</g>
							</g>
						</g>
						<g>
							<g>
								<g>
									<g>
										<g>
											<path class="st3" d="M400.9,152.9v15.8c0,2.6,2.1,4.7,4.7,4.7h15.1L400.9,152.9z"/>
										</g>
									</g>
								</g>
							</g>
						</g>
						<g>
							<g>
								<g>
									<g>
										<g>
											<path class="st1" d="M401.2,170c0,0-0.2,3.8,4.1,5.1c0.2,0,0.3,0.1,0.5,0.1c2,0.4,15,2.7,15,2.4c0-0.3,0-4.2,0-4.2h-15.1
												C405.7,173.3,401.9,173.2,401.2,170z"/>
										</g>
									</g>
								</g>
							</g>
						</g>
					</g>
				</g>
				<g>
					<g>
						<g>
							<g>
								<g>
									<g>
										<path class="st1" d="M415.7,218.9c0,0,0.3,0,0.9-0.1c0.6-0.1,1.4-0.4,2.3-1.1c0.8-0.7,1.7-1.9,1.8-3.6c0-1.6,0-3.5,0-5.6
											c0-8.5,0-20.6-0.1-35.2l0,0.1c-6-6.2-12.7-13.1-19.9-20.4l0.1,0c-4.8,0-9.7,0-14.8,0c-2.6,0-5.1,0-7.7,0c-0.7,0-1.3,0-2,0
											c-0.7,0-1.3,0-1.9,0.1c-1.3,0.2-2.4,0.9-3.2,2c-0.5,0.7-0.8,1.6-0.9,2.5c0,0.9,0,1.8,0,2.7c0,1.8,0,3.7,0,5.5
											c0,3.6,0,7.2,0,10.7c0,7,0,13.7,0,20.2c0,3.2,0,6.4,0,9.4c0,1.5,0,3,0,4.5c0,0.8,0,1.5,0,2.2s0,1.5,0.1,2.1
											c0.3,1.4,1.1,2.6,2.3,3.3c0.6,0.4,1.2,0.6,1.9,0.7c0.7,0.1,1.3,0,2,0c2.6,0,5.2,0,7.6,0c9.7,0,17.6,0,23,0
											c2.7,0,4.8,0,6.3,0c0.7,0,1.2,0,1.6,0C415.5,218.9,415.7,218.9,415.7,218.9s-0.2,0-0.6,0c-0.4,0-0.9,0-1.6,0
											c-1.4,0-3.5,0-6.3,0c-5.4,0-13.3,0-23,0c-2.4,0-5,0-7.6,0c-0.7,0-1.3,0-2,0c-0.7-0.1-1.4-0.3-2-0.7
											c-1.2-0.7-2.2-2-2.4-3.4c-0.1-0.7-0.1-1.5-0.1-2.2s0-1.5,0-2.2c0-1.5,0-3,0-4.5c0-3,0-6.2,0-9.4c0-6.4,0-13.2,0-20.2
											c0-3.5,0-7.1,0-10.7c0-1.8,0-3.6,0-5.5c0-0.9,0-1.8,0-2.8c0-1,0.4-1.9,1-2.7c0.8-1.1,2-1.9,3.4-2.1c0.7-0.1,1.3-0.1,2-0.1
											c0.7,0,1.3,0,2,0c2.6,0,5.2,0,7.7,0c5.1,0,10,0,14.8,0h0.1l0,0c7.1,7.4,13.8,14.3,19.8,20.5l0,0v0.1
											c0,14.6,0,26.8-0.1,35.2c0,2.1,0,4,0,5.6c-0.1,1.7-1,2.9-1.9,3.6c-0.9,0.7-1.8,1-2.3,1.1c-0.3,0-0.5,0.1-0.7,0.1
											C415.8,218.9,415.7,218.9,415.7,218.9z"/>
									</g>
								</g>
							</g>
						</g>
					</g>
				</g>
				<g>
					<g>
						<g>
							<g>
								<g>
									<g>
										<path class="st1" d="M420.8,173.3c0,0-0.1,0-0.4,0c-0.3,0-0.7,0-1.1,0c-1,0-2.4,0-4.1,0c-1.8,0-3.8,0-6.1,0
											c-1.1,0-2.3,0-3.6,0c-1.3,0-2.6-0.6-3.5-1.6c-0.4-0.5-0.8-1.1-1-1.8c-0.2-0.6-0.2-1.3-0.2-1.9c0-1.2,0-2.4,0-3.6
											c0-2.3,0-4.3,0-6.1c0-1.7,0-3.1,0-4.1c0-0.4,0-0.8,0-1.1c0-0.3,0-0.4,0-0.4s0,0.1,0,0.4c0,0.3,0,0.7,0,1.1
											c0,1,0,2.4,0,4.1c0,1.8,0,3.8,0,6.1c0,1.1,0,2.3,0,3.6c-0.1,1.2,0.3,2.5,1.1,3.4c0.8,1,2.1,1.5,3.3,1.5c1.2,0,2.4,0,3.6,0
											c2.3,0,4.3,0,6.1,0c1.7,0,3.1,0,4.1,0c0.4,0,0.8,0,1.1,0C420.7,173.3,420.8,173.3,420.8,173.3z"/>
									</g>
								</g>
							</g>
						</g>
					</g>
				</g>
			</g>
			<g>
				<g>
					<path class="st1" d="M400.2,166.9c0,0.1-4.8,0.2-10.7,0.2s-10.7-0.1-10.7-0.2s4.8-0.2,10.7-0.2S400.2,166.8,400.2,166.9z"/>
				</g>
			</g>
			<g>
				<g>
					<path class="st1" d="M410.3,174.8c0,0.1-7,0.2-15.7,0.2s-15.7-0.1-15.7-0.2s7-0.2,15.7-0.2
						C403.3,174.6,410.3,174.7,410.3,174.8z"/>
				</g>
			</g>
			<g>
				<g>
					<path class="st1" d="M410.3,182.6c0,0.1-7,0.2-15.7,0.2s-15.7-0.1-15.7-0.2c0-0.1,7-0.2,15.7-0.2
						C403.3,182.4,410.3,182.5,410.3,182.6z"/>
				</g>
			</g>
			<g>
				<g>
					<path class="st1" d="M410.3,190.5c0,0.1-7,0.2-15.7,0.2s-15.7-0.1-15.7-0.2c0-0.1,7-0.2,15.7-0.2
						C403.3,190.3,410.3,190.4,410.3,190.5z"/>
				</g>
			</g>
			<g>
				<g>
					<path class="st1" d="M410.3,198.3c0,0.1-7,0.2-15.7,0.2s-15.7-0.1-15.7-0.2c0-0.1,7-0.2,15.7-0.2S410.3,198.2,410.3,198.3z"/>
				</g>
			</g>
			<g>
				<g>
					<path class="st1" d="M410.3,208c0,0.1-7,0.2-15.7,0.2s-15.7-0.1-15.7-0.2c0-0.1,7-0.2,15.7-0.2S410.3,207.9,410.3,208z"/>
				</g>
			</g>
		</g>
		<g>
			<g>
				<g>
					<g>
						<g>
							<g>
								<g>
									<g>
										<g>
											<path class="st0" d="M338.9,155.9h-39.5c-2.7,0-4.9-2.2-4.9-4.9V96.3c0-2.7,2.2-4.9,4.9-4.9h25.1l19.4,20V151
												C343.9,153.7,341.7,155.9,338.9,155.9z"/>
										</g>
									</g>
								</g>
							</g>
						</g>
						<g>
							<g>
								<g>
									<g>
										<g>
											<path class="st3" d="M324.5,91.4v15.4c0,2.5,2.1,4.6,4.6,4.6h14.8L324.5,91.4z"/>
										</g>
									</g>
								</g>
							</g>
						</g>
						<g>
							<g>
								<g>
									<g>
										<g>
											<path class="st1" d="M324.7,108.1c0,0-0.2,3.7,4.1,5c0.2,0,0.3,0.1,0.5,0.1c1.9,0.4,14.6,2.6,14.6,2.3c0-0.3,0-4.1,0-4.1
												h-14.8C329.1,111.3,325.4,111.2,324.7,108.1z"/>
										</g>
									</g>
								</g>
							</g>
						</g>
					</g>
				</g>
				<g>
					<g>
						<g>
							<g>
								<g>
									<g>
										<path class="st1" d="M338.9,155.9c0,0,0.3,0,0.8-0.1c0.5-0.1,1.4-0.4,2.2-1.1c0.8-0.7,1.7-1.9,1.8-3.5c0-1.6,0-3.4,0-5.5
											c0-8.3,0-20.1-0.1-34.4l0,0.1c-5.9-6-12.4-12.8-19.4-20l0.1,0c-4.6,0-9.5,0-14.5,0c-2.5,0-5,0-7.6,0c-0.6,0-1.3,0-1.9,0
											c-0.6,0-1.3,0-1.9,0.1c-1.2,0.2-2.4,0.9-3.1,1.9c-0.5,0.7-0.8,1.6-0.9,2.4c0,0.9,0,1.8,0,2.7c0,1.8,0,3.6,0,5.3
											c0,3.5,0,7,0,10.4c0,6.8,0,13.4,0,19.7c0,3.1,0,6.2,0,9.2c0,1.5,0,3,0,4.4c0,0.7,0,1.4,0,2.2c0,0.7,0,1.4,0.1,2.1
											c0.3,1.3,1.1,2.5,2.2,3.2c0.6,0.3,1.2,0.6,1.8,0.6c0.6,0.1,1.3,0,1.9,0c2.6,0,5.1,0,7.5,0c9.5,0,17.2,0,22.5,0
											c2.6,0,4.7,0,6.1,0c0.7,0,1.2,0,1.6,0C338.7,155.9,338.9,155.9,338.9,155.9s-0.2,0-0.5,0c-0.4,0-0.9,0-1.6,0
											c-1.4,0-3.5,0-6.1,0c-5.3,0-13,0-22.5,0c-2.4,0-4.9,0-7.5,0c-0.7,0-1.3,0-2,0c-0.7-0.1-1.3-0.3-1.9-0.7
											c-1.2-0.7-2.1-1.9-2.4-3.4c-0.1-0.7-0.1-1.4-0.1-2.1s0-1.4,0-2.2c0-1.5,0-2.9,0-4.4c0-3,0-6,0-9.2c0-6.3,0-12.9,0-19.7
											c0-3.4,0-6.9,0-10.4c0-1.8,0-3.5,0-5.3c0-0.9,0-1.8,0-2.7c0-0.9,0.4-1.9,0.9-2.6c0.8-1.1,2-1.9,3.3-2.1
											c0.7-0.1,1.3-0.1,1.9-0.1c0.6,0,1.3,0,1.9,0c2.6,0,5.1,0,7.6,0c5,0,9.8,0,14.5,0h0.1l0,0c7,7.2,13.5,13.9,19.4,20l0,0v0.1
											c0,14.3,0,26.2-0.1,34.4c0,2.1,0,3.9,0,5.5c-0.1,1.6-1,2.9-1.9,3.5c-0.9,0.7-1.7,0.9-2.3,1c-0.3,0-0.5,0.1-0.6,0
											C339,155.9,338.9,155.9,338.9,155.9z"/>
									</g>
								</g>
							</g>
						</g>
					</g>
				</g>
				<g>
					<g>
						<g>
							<g>
								<g>
									<g>
										<path class="st1" d="M343.9,111.3c0,0-0.1,0-0.4,0c-0.3,0-0.7,0-1.1,0c-1,0-2.3,0-4,0c-1.7,0-3.7,0-6,0
											c-1.1,0-2.3,0-3.5,0c-1.3,0-2.6-0.6-3.4-1.6c-0.4-0.5-0.8-1.1-1-1.7c-0.2-0.6-0.2-1.3-0.2-1.9c0-1.2,0-2.4,0-3.5
											c0-2.2,0-4.2,0-6c0-1.7,0-3,0-4c0-0.4,0-0.8,0-1.1c0-0.3,0-0.4,0-0.4c0,0,0,0.1,0,0.4c0,0.3,0,0.7,0,1.1c0,1,0,2.3,0,4
											c0,1.7,0,3.7,0,6c0,1.1,0,2.3,0,3.5c-0.1,1.2,0.3,2.4,1.1,3.4c0.8,0.9,2,1.5,3.2,1.5c1.2,0,2.4,0,3.5,0c2.2,0,4.2,0,6,0
											c1.7,0,3,0,4,0c0.4,0,0.8,0,1.1,0C343.7,111.3,343.9,111.3,343.9,111.3z"/>
									</g>
								</g>
							</g>
						</g>
					</g>
				</g>
			</g>
			<g>
				<g>
					<path class="st1" d="M323.7,105.1c0,0.1-4.7,0.2-10.4,0.2c-5.8,0-10.4-0.1-10.4-0.2c0-0.1,4.7-0.2,10.4-0.2
						C319.1,104.9,323.7,105,323.7,105.1z"/>
				</g>
			</g>
			<g>
				<g>
					<path class="st1" d="M333.6,112.8c0,0.1-6.9,0.2-15.4,0.2s-15.4-0.1-15.4-0.2s6.9-0.2,15.4-0.2S333.6,112.7,333.6,112.8z"/>
				</g>
			</g>
			<g>
				<g>
					<path class="st1" d="M333.6,120.4c0,0.1-6.9,0.2-15.4,0.2s-15.4-0.1-15.4-0.2s6.9-0.2,15.4-0.2S333.6,120.3,333.6,120.4z"/>
				</g>
			</g>
			<g>
				<g>
					<path class="st1" d="M333.6,128.1c0,0.1-6.9,0.2-15.4,0.2s-15.4-0.1-15.4-0.2c0-0.1,6.9-0.2,15.4-0.2
						C326.7,127.9,333.6,128,333.6,128.1z"/>
				</g>
			</g>
			<g>
				<g>
					<path class="st1" d="M333.6,135.8c0,0.1-6.9,0.2-15.4,0.2s-15.4-0.1-15.4-0.2s6.9-0.2,15.4-0.2S333.6,135.7,333.6,135.8z"/>
				</g>
			</g>
			<g>
				<g>
					<path class="st1" d="M333.6,145.2c0,0.1-6.9,0.2-15.4,0.2s-15.4-0.1-15.4-0.2c0-0.1,6.9-0.2,15.4-0.2S333.6,145.1,333.6,145.2z
						"/>
				</g>
			</g>
		</g>
		<g>
			<g>
				<g>
					<g>
						<g>
							<g>
								<g>
									<g>
										<g>
											<path class="st0" d="M92,228H50.8c-2.9,0-5.2-2.3-5.2-5.2v-57c0-2.9,2.3-5.2,5.2-5.2H77l20.2,20.9v41.3
												C97.2,225.7,94.9,228,92,228z"/>
										</g>
									</g>
								</g>
							</g>
						</g>
						<g>
							<g>
								<g>
									<g>
										<g>
											<path class="st3" d="M77,160.7v16.1c0,2.6,2.2,4.8,4.8,4.8h15.4L77,160.7z"/>
										</g>
									</g>
								</g>
							</g>
						</g>
						<g>
							<g>
								<g>
									<g>
										<g>
											<path class="st1" d="M77.2,178.1c0,0-0.2,3.9,4.2,5.2c0.2,0,0.3,0.1,0.5,0.1c2,0.4,15.3,2.7,15.3,2.4c0-0.3,0-4.3,0-4.3
												H81.8C81.8,181.5,77.9,181.4,77.2,178.1z"/>
										</g>
									</g>
								</g>
							</g>
						</g>
					</g>
				</g>
				<g>
					<g>
						<g>
							<g>
								<g>
									<g>
										<path class="st7" d="M92,228c0,0,0.3,0,0.9-0.1c0.6-0.1,1.5-0.4,2.3-1.1c0.9-0.7,1.8-2,1.9-3.6c0-1.7,0-3.6,0-5.7
											c0-8.6,0-21-0.1-35.9l0,0.1c-6.1-6.3-13-13.3-20.3-20.8l0.1,0c-4.9,0-9.9,0-15.1,0c-2.6,0-5.2,0-7.9,0c-0.7,0-1.3,0-2,0
											c-0.7,0-1.3,0-2,0.1c-1.3,0.2-2.5,0.9-3.2,2c-0.5,0.8-0.9,1.6-0.9,2.5c0,0.9,0,1.9,0,2.8c0,1.9,0,3.7,0,5.6
											c0,3.7,0,7.3,0,10.9c0,7.1,0,14,0,20.6c0,3.3,0,6.5,0,9.6c0,1.5,0,3.1,0,4.6c0,0.8,0,1.5,0,2.2c0,0.8,0,1.5,0.1,2.2
											c0.3,1.4,1.2,2.6,2.3,3.3c0.6,0.4,1.2,0.6,1.9,0.7c0.7,0.1,1.4,0,2,0c2.7,0,5.3,0,7.8,0c9.9,0,17.9,0,23.5,0
											c2.8,0,4.9,0,6.4,0c0.7,0,1.3,0,1.7,0C91.9,228,92,228,92,228s-0.2,0-0.6,0c-0.4,0-0.9,0-1.7,0c-1.5,0-3.6,0-6.4,0
											c-5.6,0-13.6,0-23.5,0c-2.5,0-5.1,0-7.8,0c-0.7,0-1.4,0-2.1,0c-0.7-0.1-1.4-0.3-2-0.7c-1.2-0.7-2.2-2-2.5-3.5
											c-0.2-0.8-0.1-1.5-0.1-2.2c0-0.8,0-1.5,0-2.3c0-1.5,0-3,0-4.6c0-3.1,0-6.3,0-9.6c0-6.6,0-13.4,0-20.6c0-3.6,0-7.2,0-10.9
											c0-1.9,0-3.7,0-5.6c0-0.9,0-1.9,0-2.8c0.1-1,0.4-1.9,1-2.7c0.8-1.1,2.1-1.9,3.5-2.2c0.7-0.1,1.4-0.1,2-0.1
											c0.7,0,1.3,0,2,0c2.7,0,5.3,0,7.9,0c5.2,0,10.2,0,15.1,0h0.1l0,0c7.3,7.5,14.1,14.6,20.2,20.9l0,0v0.1
											c0,14.9,0,27.3-0.1,35.9c0,2.2,0,4.1,0,5.8c-0.1,1.7-1,3-1.9,3.7c-0.9,0.7-1.8,1-2.4,1.1c-0.3,0-0.5,0.1-0.7,0.1
											C92.1,228,92,228,92,228z"/>
									</g>
								</g>
							</g>
						</g>
					</g>
				</g>
				<g>
					<g>
						<g>
							<g>
								<g>
									<g>
										<path class="st7" d="M97.2,181.5c0,0-0.1,0-0.4,0c-0.3,0-0.7,0-1.1,0c-1,0-2.5,0-4.2,0c-1.8,0-3.9,0-6.2,0
											c-1.2,0-2.4,0-3.7,0c-1.3,0-2.7-0.6-3.6-1.7c-0.5-0.5-0.8-1.1-1-1.8c-0.2-0.6-0.2-1.3-0.2-2c0-1.3,0-2.5,0-3.7
											c0-2.3,0-4.4,0-6.2c0-1.7,0-3.1,0-4.2c0-0.5,0-0.8,0-1.1c0-0.3,0-0.4,0-0.4s0,0.1,0,0.4c0,0.3,0,0.7,0,1.1
											c0,1,0,2.5,0,4.2c0,1.8,0,3.9,0,6.2c0,1.2,0,2.4,0,3.7c0,0.6,0,1.2,0.2,1.9c0.2,0.6,0.5,1.2,0.9,1.7
											c0.9,1,2.1,1.5,3.3,1.6c1.3,0,2.5,0,3.7,0c2.3,0,4.4,0,6.2,0c1.7,0,3.1,0,4.2,0c0.5,0,0.8,0,1.1,0
											C97.1,181.5,97.2,181.5,97.2,181.5z"/>
									</g>
								</g>
							</g>
						</g>
					</g>
				</g>
			</g>
			<g>
				<g>
					<path class="st7" d="M76.2,175c0,0.1-4.9,0.2-10.9,0.2s-10.9-0.1-10.9-0.2c0-0.1,4.9-0.2,10.9-0.2
						C71.3,174.8,76.2,174.9,76.2,175z"/>
				</g>
			</g>
			<g>
				<g>
					<path class="st7" d="M86.5,183c0,0.1-7.2,0.2-16,0.2s-16-0.1-16-0.2c0-0.1,7.2-0.2,16-0.2S86.5,182.9,86.5,183z"/>
				</g>
			</g>
			<g>
				<g>
					<path class="st7" d="M86.5,191c0,0.1-7.2,0.2-16,0.2s-16-0.1-16-0.2c0-0.1,7.2-0.2,16-0.2S86.5,190.9,86.5,191z"/>
				</g>
			</g>
			<g>
				<g>
					<path class="st7" d="M86.5,199c0,0.1-7.2,0.2-16,0.2s-16-0.1-16-0.2s7.2-0.2,16-0.2S86.5,198.9,86.5,199z"/>
				</g>
			</g>
			<g>
				<g>
					<path class="st7" d="M86.5,207c0,0.1-7.2,0.2-16,0.2s-16-0.1-16-0.2c0-0.1,7.2-0.2,16-0.2C79.3,206.9,86.5,207,86.5,207z"/>
				</g>
			</g>
			<g>
				<g>
					<path class="st7" d="M86.5,215c0,0.1-7.2,0.2-16,0.2s-16-0.1-16-0.2s7.2-0.2,16-0.2S86.5,214.9,86.5,215z"/>
				</g>
			</g>
		</g>
		<g>
			<g>
				<g>
					<g>
						<g>
							<g>
								<g>
									<g>
										<g>
											<path class="st0" d="M65.8,322.1H25c-2.8,0-5.1-2.3-5.1-5.1v-56.4c0-2.8,2.3-5.1,5.1-5.1h25.9l20,20.6v40.9
												C70.9,319.8,68.6,322.1,65.8,322.1z"/>
										</g>
									</g>
								</g>
							</g>
						</g>
						<g>
							<g>
								<g>
									<g>
										<g>
											<path class="st3" d="M50.9,255.4v15.9c0,2.6,2.1,4.7,4.7,4.7h15.3L50.9,255.4z"/>
										</g>
									</g>
								</g>
							</g>
						</g>
						<g>
							<g>
								<g>
									<g>
										<g>
											<path class="st1" d="M51.1,272.7c0,0-0.2,3.8,4.2,5.1c0.2,0,0.3,0.1,0.5,0.1c2,0.4,15.1,2.7,15.1,2.4c0-0.3,0-4.3,0-4.3
												H55.6C55.6,276,51.8,275.9,51.1,272.7z"/>
										</g>
									</g>
								</g>
							</g>
						</g>
					</g>
				</g>
				<g>
					<g>
						<g>
							<g>
								<g>
									<g>
										<path class="st7" d="M65.8,322.1c0,0,0.3,0,0.9-0.1c0.6-0.1,1.4-0.4,2.3-1.1c0.8-0.7,1.7-1.9,1.8-3.6c0-1.6,0-3.6,0-5.7
											c0-8.6,0-20.8-0.1-35.6l0,0.1c-6.1-6.2-12.8-13.2-20-20.6l0.1,0c-4.8,0-9.8,0-14.9,0c-2.6,0-5.2,0-7.8,0c-0.7,0-1.3,0-2,0
											c-0.7,0-1.3,0-2,0.1c-1.3,0.2-2.4,0.9-3.2,2c-0.5,0.7-0.8,1.6-0.9,2.5c0,0.9,0,1.9,0,2.8c0,1.9,0,3.7,0,5.5
											c0,3.6,0,7.2,0,10.8c0,7.1,0,13.9,0,20.3c0,3.2,0,6.4,0,9.5c0,1.5,0,3,0,4.5c0,0.7,0,1.5,0,2.2c0,0.7,0,1.5,0.1,2.2
											c0.3,1.4,1.1,2.6,2.3,3.3c0.6,0.4,1.2,0.6,1.9,0.7c0.7,0.1,1.3,0,2,0c2.7,0,5.3,0,7.7,0c9.8,0,17.7,0,23.2,0
											c2.7,0,4.9,0,6.3,0c0.7,0,1.3,0,1.6,0C65.6,322,65.8,322.1,65.8,322.1s-0.2,0-0.6,0c-0.4,0-0.9,0-1.6,0
											c-1.5,0-3.6,0-6.3,0c-5.5,0-13.4,0-23.2,0c-2.5,0-5,0-7.7,0c-0.7,0-1.3,0-2,0c-0.7-0.1-1.4-0.3-2-0.7
											c-1.2-0.7-2.2-2-2.4-3.5c-0.1-0.7-0.1-1.5-0.1-2.2s0-1.5,0-2.2c0-1.5,0-3,0-4.5c0-3.1,0-6.2,0-9.5c0-6.5,0-13.3,0-20.3
											c0-3.5,0-7.1,0-10.8c0-1.8,0-3.7,0-5.5c0-0.9,0-1.8,0-2.8c0.1-1,0.4-1.9,1-2.7c0.8-1.1,2.1-1.9,3.4-2.1
											c0.7-0.1,1.4-0.1,2-0.1c0.7,0,1.3,0,2,0c2.6,0,5.2,0,7.8,0c5.1,0,10.1,0,14.9,0H51l0,0c7.2,7.4,13.9,14.4,20,20.6l0,0v0.1
											c0,14.8,0,27-0.1,35.6c0,2.1,0,4,0,5.7c-0.1,1.7-1,3-1.9,3.7c-0.9,0.7-1.8,1-2.4,1.1c-0.3,0-0.5,0.1-0.7,0.1
											C65.9,322.1,65.8,322.1,65.8,322.1z"/>
									</g>
								</g>
							</g>
						</g>
					</g>
				</g>
				<g>
					<g>
						<g>
							<g>
								<g>
									<g>
										<path class="st7" d="M70.9,276c0,0-0.1,0-0.4,0c-0.3,0-0.7,0-1.1,0c-1,0-2.4,0-4.1,0c-1.8,0-3.8,0-6.1,0
											c-1.1,0-2.4,0-3.6,0c-1.3,0-2.6-0.6-3.5-1.7c-0.5-0.5-0.8-1.1-1-1.8c-0.2-0.6-0.2-1.3-0.2-1.9c0-1.3,0-2.5,0-3.6
											c0-2.3,0-4.4,0-6.1c0-1.7,0-3.1,0-4.1c0-0.5,0-0.8,0-1.1c0-0.3,0-0.4,0-0.4c0,0,0,0.1,0,0.4c0,0.3,0,0.7,0,1.1
											c0,1,0,2.4,0,4.1c0,1.8,0,3.8,0,6.1c0,1.1,0,2.4,0,3.6c0,0.6,0,1.2,0.2,1.9c0.2,0.6,0.5,1.2,0.9,1.6
											c0.8,1,2.1,1.5,3.3,1.5c1.2,0,2.5,0,3.6,0c2.3,0,4.4,0,6.1,0c1.7,0,3.1,0,4.1,0c0.5,0,0.8,0,1.1,0
											C70.8,276,70.9,276,70.9,276z"/>
									</g>
								</g>
							</g>
						</g>
					</g>
				</g>
			</g>
			<g>
				<g>
					<path class="st7" d="M50.1,269.6c0,0.1-4.8,0.2-10.8,0.2c-6,0-10.8-0.1-10.8-0.2s4.8-0.2,10.8-0.2
						C45.3,269.4,50.1,269.5,50.1,269.6z"/>
				</g>
			</g>
			<g>
				<g>
					<path class="st7" d="M60.3,277.5c0,0.1-7.1,0.2-15.9,0.2s-15.9-0.1-15.9-0.2c0-0.1,7.1-0.2,15.9-0.2S60.3,277.4,60.3,277.5z"/>
				</g>
			</g>
			<g>
				<g>
					<path class="st7" d="M60.3,285.4c0,0.1-7.1,0.2-15.9,0.2s-15.9-0.1-15.9-0.2c0-0.1,7.1-0.2,15.9-0.2S60.3,285.3,60.3,285.4z"/>
				</g>
			</g>
			<g>
				<g>
					<path class="st7" d="M60.3,293.3c0,0.1-7.1,0.2-15.9,0.2s-15.9-0.1-15.9-0.2s7.1-0.2,15.9-0.2S60.3,293.3,60.3,293.3z"/>
				</g>
			</g>
			<g>
				<g>
					<path class="st7" d="M60.3,301.3c0,0.1-7.1,0.2-15.9,0.2s-15.9-0.1-15.9-0.2c0-0.1,7.1-0.2,15.9-0.2
						C53.2,301.1,60.3,301.2,60.3,301.3z"/>
				</g>
			</g>
			<g>
				<g>
					<path class="st7" d="M60.3,309.2c0,0.1-7.1,0.2-15.9,0.2s-15.9-0.1-15.9-0.2c0-0.1,7.1-0.2,15.9-0.2S60.3,309.1,60.3,309.2z"/>
				</g>
			</g>
		</g>
		<g>
			<g>
				<g>
					<g>
						<g>
							<g>
								<g>
									<g>
										<g>
											<path class="st0" d="M146,160.8h-40.5c-2.8,0-5.1-2.3-5.1-5.1V99.7c0-2.8,2.3-5.1,5.1-5.1h25.7l19.9,20.5v40.6
												C151.1,158.5,148.8,160.8,146,160.8z"/>
										</g>
									</g>
								</g>
							</g>
						</g>
						<g>
							<g>
								<g>
									<g>
										<g>
											<path class="st3" d="M131.2,94.6v15.8c0,2.6,2.1,4.7,4.7,4.7h15.2L131.2,94.6z"/>
										</g>
									</g>
								</g>
							</g>
						</g>
						<g>
							<g>
								<g>
									<g>
										<g>
											<path class="st1" d="M131.4,111.8c0,0-0.2,3.8,4.1,5.1c0.2,0,0.3,0.1,0.5,0.1c2,0.4,15,2.7,15,2.4c0-0.3,0-4.2,0-4.2
												h-15.2C135.9,115.1,132.1,115,131.4,111.8z"/>
										</g>
									</g>
								</g>
							</g>
						</g>
					</g>
				</g>
				<g>
					<g>
						<g>
							<g>
								<g>
									<g>
										<path class="st7" d="M146,160.8c0,0,0.3,0,0.9-0.1c0.6-0.1,1.4-0.4,2.3-1.1c0.8-0.7,1.7-1.9,1.8-3.6c0-1.6,0-3.5,0-5.6
											c0-8.5,0-20.6-0.1-35.3l0,0.1c-6-6.2-12.8-13.1-19.9-20.5l0.1,0c-4.8,0-9.7,0-14.8,0c-2.6,0-5.1,0-7.8,0c-0.7,0-1.3,0-2,0
											c-0.7,0-1.3,0-1.9,0.1c-1.3,0.2-2.4,0.9-3.2,2c-0.5,0.7-0.8,1.6-0.9,2.5c0,0.9,0,1.8,0,2.7c0,1.8,0,3.7,0,5.5
											c0,3.6,0,7.2,0,10.7c0,7,0,13.8,0,20.2c0,3.2,0,6.4,0,9.4c0,1.5,0,3,0,4.5c0,0.8,0,1.5,0,2.2s0,1.5,0.1,2.1
											c0.3,1.4,1.1,2.6,2.3,3.3c0.6,0.4,1.2,0.6,1.9,0.7c0.7,0.1,1.3,0,2,0c2.6,0,5.2,0,7.6,0c9.8,0,17.6,0,23.1,0
											c2.7,0,4.8,0,6.3,0c0.7,0,1.3,0,1.6,0C145.8,160.8,146,160.8,146,160.8s-0.2,0-0.6,0s-0.9,0-1.6,0c-1.5,0-3.6,0-6.3,0
											c-5.5,0-13.3,0-23.1,0c-2.4,0-5,0-7.6,0c-0.7,0-1.3,0-2,0c-0.7-0.1-1.4-0.3-2-0.7c-1.2-0.7-2.2-2-2.4-3.4
											c-0.1-0.7-0.1-1.5-0.1-2.2c0-0.7,0-1.5,0-2.2c0-1.5,0-3,0-4.5c0-3,0-6.2,0-9.4c0-6.4,0-13.2,0-20.2c0-3.5,0-7.1,0-10.7
											c0-1.8,0-3.6,0-5.5c0-0.9,0-1.8,0-2.8c0-1,0.4-1.9,1-2.7c0.8-1.1,2.1-1.9,3.4-2.1c0.7-0.1,1.4-0.1,2-0.1c0.7,0,1.3,0,2,0
											c2.6,0,5.2,0,7.8,0c5.1,0,10.1,0,14.8,0h0.1l0,0c7.1,7.4,13.9,14.3,19.9,20.5l0,0v0.1c0,14.7,0,26.8-0.1,35.3
											c0,2.1,0,4,0,5.6c-0.1,1.7-1,2.9-1.9,3.6c-0.9,0.7-1.8,1-2.3,1.1c-0.3,0-0.5,0.1-0.7,0.1C146.1,160.8,146,160.8,146,160.8
											z"/>
									</g>
								</g>
							</g>
						</g>
					</g>
				</g>
				<g>
					<g>
						<g>
							<g>
								<g>
									<g>
										<path class="st7" d="M151.1,115.1c0,0-0.1,0-0.4,0c-0.3,0-0.7,0-1.1,0c-1,0-2.4,0-4.1,0c-1.8,0-3.8,0-6.1,0
											c-1.1,0-2.4,0-3.6,0c-1.3,0-2.6-0.6-3.5-1.7c-0.4-0.5-0.8-1.1-1-1.8c-0.2-0.6-0.2-1.3-0.2-1.9c0-1.2,0-2.5,0-3.6
											c0-2.3,0-4.3,0-6.1c0-1.7,0-3.1,0-4.1c0-0.4,0-0.8,0-1.1c0-0.3,0-0.4,0-0.4c0,0,0,0.1,0,0.4c0,0.3,0,0.7,0,1.1
											c0,1,0,2.4,0,4.1c0,1.8,0,3.8,0,6.1c0,1.1,0,2.3,0,3.6c0,0.6,0,1.2,0.2,1.8s0.5,1.1,0.9,1.6c0.8,1,2.1,1.5,3.3,1.5
											c1.2,0,2.4,0,3.6,0c2.3,0,4.3,0,6.1,0c1.7,0,3.1,0,4.1,0c0.4,0,0.8,0,1.1,0C150.9,115.1,151.1,115.1,151.1,115.1z"/>
									</g>
								</g>
							</g>
						</g>
					</g>
				</g>
			</g>
			<g>
				<g>
					<path class="st7" d="M130.4,108.7c0,0.1-4.8,0.2-10.7,0.2c-5.9,0-10.7-0.1-10.7-0.2s4.8-0.2,10.7-0.2
						C125.6,108.5,130.4,108.6,130.4,108.7z"/>
				</g>
			</g>
			<g>
				<g>
					<path class="st7" d="M140.5,116.6c0,0.1-7.1,0.2-15.8,0.2s-15.8-0.1-15.8-0.2c0-0.1,7.1-0.2,15.8-0.2
						C133.5,116.4,140.5,116.5,140.5,116.6z"/>
				</g>
			</g>
			<g>
				<g>
					<path class="st7" d="M140.5,124.4c0,0.1-7.1,0.2-15.8,0.2s-15.8-0.1-15.8-0.2s7.1-0.2,15.8-0.2
						C133.5,124.2,140.5,124.3,140.5,124.4z"/>
				</g>
			</g>
			<g>
				<g>
					<path class="st7" d="M140.5,132.3c0,0.1-7.1,0.2-15.8,0.2s-15.8-0.1-15.8-0.2c0-0.1,7.1-0.2,15.8-0.2
						C133.5,132.1,140.5,132.2,140.5,132.3z"/>
				</g>
			</g>
			<g>
				<g>
					<path class="st7" d="M140.5,140.2c0,0.1-7.1,0.2-15.8,0.2s-15.8-0.1-15.8-0.2c0-0.1,7.1-0.2,15.8-0.2
						C133.5,140,140.5,140.1,140.5,140.2z"/>
				</g>
			</g>
			<g>
				<g>
					<path class="st7" d="M140.5,148.1c0,0.1-7.1,0.2-15.8,0.2s-15.8-0.1-15.8-0.2c0-0.1,7.1-0.2,15.8-0.2
						C133.5,147.9,140.5,147.9,140.5,148.1z"/>
				</g>
			</g>
		</g>
	</g>
	<g>
		<g>
			<g>
				<g>
					<g>
						<g>
							<g>
								<g>
									<g>
										<path class="st0" d="M418.6,318h-41.2c-2.8,0-5.2-2.3-5.2-5.2v-57c0-2.8,2.3-5.2,5.2-5.2h26.1l20.2,20.8v41.3
											C423.7,315.7,421.4,318,418.6,318z"/>
									</g>
								</g>
							</g>
						</g>
					</g>
					<g>
						<g>
							<g>
								<g>
									<g>
										<path class="st3" d="M403.5,250.7v16c0,2.6,2.1,4.8,4.8,4.8h15.4L403.5,250.7z"/>
									</g>
								</g>
							</g>
						</g>
					</g>
					<g>
						<g>
							<g>
								<g>
									<g>
										<path class="st1" d="M403.8,268.1c0,0-0.2,3.9,4.2,5.2c0.2,0,0.3,0.1,0.5,0.1c2,0.4,15.3,2.7,15.3,2.4c0-0.3,0-4.3,0-4.3
											h-15.4C408.3,271.5,404.5,271.4,403.8,268.1z"/>
									</g>
								</g>
							</g>
						</g>
					</g>
				</g>
			</g>
			<g>
				<g>
					<g>
						<g>
							<g>
								<g>
									<path class="st7" d="M418.6,318c0,0,0.3,0,0.9-0.1c0.6-0.1,1.5-0.4,2.3-1.1c0.9-0.7,1.8-2,1.9-3.6c0-1.7,0-3.6,0-5.7
										c0-8.6,0-21-0.1-35.9l0,0.1c-6.1-6.3-12.9-13.3-20.2-20.8l0.1,0c-4.9,0-9.9,0-15.1,0c-2.6,0-5.2,0-7.9,0c-0.7,0-1.3,0-2,0
										c-0.7,0-1.3,0-2,0.1c-1.3,0.2-2.5,0.9-3.2,2c-0.5,0.7-0.9,1.6-0.9,2.5c0,0.9,0,1.9,0,2.8c0,1.9,0,3.7,0,5.6
										c0,3.7,0,7.3,0,10.9c0,7.1,0,14,0,20.5c0,3.3,0,6.5,0,9.6c0,1.5,0,3.1,0,4.6c0,0.8,0,1.5,0,2.2c0,0.8,0,1.5,0.1,2.2
										c0.3,1.4,1.2,2.6,2.3,3.3c0.6,0.4,1.2,0.6,1.9,0.7c0.7,0.1,1.4,0,2,0c2.7,0,5.3,0,7.8,0c9.9,0,17.9,0,23.4,0
										c2.8,0,4.9,0,6.4,0c0.7,0,1.3,0,1.7,0C418.4,318,418.6,318,418.6,318s-0.2,0-0.6,0s-0.9,0-1.7,0c-1.5,0-3.6,0-6.4,0
										c-5.6,0-13.5,0-23.4,0c-2.5,0-5.1,0-7.8,0c-0.7,0-1.4,0-2.1,0c-0.7-0.1-1.4-0.3-2-0.7c-1.2-0.7-2.2-2-2.5-3.5
										c-0.2-0.8-0.1-1.5-0.1-2.2c0-0.8,0-1.5,0-2.2c0-1.5,0-3,0-4.6c0-3.1,0-6.3,0-9.6c0-6.5,0-13.4,0-20.5c0-3.6,0-7.2,0-10.9
										c0-1.8,0-3.7,0-5.6c0-0.9,0-1.9,0-2.8c0.1-1,0.4-1.9,1-2.7c0.8-1.1,2.1-1.9,3.5-2.2c0.7-0.1,1.4-0.1,2-0.1c0.7,0,1.3,0,2,0
										c2.6,0,5.3,0,7.9,0c5.2,0,10.2,0,15.1,0h0.1l0,0c7.3,7.5,14.1,14.5,20.2,20.8l0,0v0.1c0,14.9,0,27.3-0.1,35.9
										c0,2.2,0,4.1,0,5.7c-0.1,1.7-1,3-1.9,3.7c-0.9,0.7-1.8,1-2.4,1.1c-0.3,0-0.5,0.1-0.7,0.1C418.7,318,418.6,318,418.6,318z"
										/>
								</g>
							</g>
						</g>
					</g>
				</g>
			</g>
			<g>
				<g>
					<g>
						<g>
							<g>
								<g>
									<path class="st7" d="M423.7,271.5c0,0-0.1,0-0.4,0c-0.3,0-0.7,0-1.1,0c-1,0-2.4,0-4.2,0c-1.8,0-3.9,0-6.2,0
										c-1.2,0-2.4,0-3.7,0c-1.3,0-2.6-0.6-3.6-1.7c-0.5-0.5-0.8-1.1-1-1.8c-0.2-0.6-0.2-1.3-0.2-2c0-1.3,0-2.5,0-3.7
										c0-2.3,0-4.4,0-6.2c0-1.7,0-3.1,0-4.2c0-0.5,0-0.8,0-1.1c0-0.3,0-0.4,0-0.4c0,0,0,0.1,0,0.4c0,0.3,0,0.7,0,1.1
										c0,1,0,2.4,0,4.2c0,1.8,0,3.9,0,6.2c0,1.2,0,2.4,0,3.7c0,0.6,0,1.2,0.2,1.9c0.2,0.6,0.5,1.2,0.9,1.7c0.9,1,2.1,1.5,3.3,1.6
										c1.3,0,2.5,0,3.7,0c2.3,0,4.4,0,6.2,0c1.7,0,3.1,0,4.2,0c0.5,0,0.8,0,1.1,0C423.6,271.5,423.7,271.5,423.7,271.5z"/>
								</g>
							</g>
						</g>
					</g>
				</g>
			</g>
		</g>
		<g>
			<g>
				<path class="st7" d="M402.8,265c0,0.1-4.9,0.2-10.9,0.2c-6,0-10.9-0.1-10.9-0.2s4.9-0.2,10.9-0.2
					C397.9,264.8,402.8,264.9,402.8,265z"/>
			</g>
		</g>
		<g>
			<g>
				<path class="st7" d="M413.1,273c0,0.1-7.2,0.2-16,0.2c-8.8,0-16-0.1-16-0.2s7.2-0.2,16-0.2C405.9,272.8,413.1,272.9,413.1,273z"
					/>
			</g>
		</g>
		<g>
			<g>
				<path class="st7" d="M413.1,281c0,0.1-7.2,0.2-16,0.2c-8.8,0-16-0.1-16-0.2s7.2-0.2,16-0.2S413.1,280.9,413.1,281z"/>
			</g>
		</g>
		<g>
			<g>
				<path class="st7" d="M413.1,289c0,0.1-7.2,0.2-16,0.2c-8.8,0-16-0.1-16-0.2c0-0.1,7.2-0.2,16-0.2S413.1,288.9,413.1,289z"/>
			</g>
		</g>
		<g>
			<g>
				<path class="st7" d="M413.1,297c0,0.1-7.2,0.2-16,0.2c-8.8,0-16-0.1-16-0.2s7.2-0.2,16-0.2C405.9,296.8,413.1,296.9,413.1,297z"
					/>
			</g>
		</g>
		<g>
			<g>
				<path class="st7" d="M413.1,306.9c0,0.1-7.2,0.2-16,0.2c-8.8,0-16-0.1-16-0.2c0-0.1,7.2-0.2,16-0.2
					C405.9,306.7,413.1,306.8,413.1,306.9z"/>
			</g>
		</g>
	</g>
</g>
<g>
	<g>
		<path class="st4" d="M206.1,351c0.1,0,0.1-0.1,0.2-0.2c0.4-1.2,1.3-1.6,2.3-1.9c0.5-0.1,1.1-0.2,1.6-0.2c0.3,0,0.5,0.1,0.6,0.4
			c0.2,0.4,0.4,0.9,0.7,1.3c0.2,0.3,0.1,0.5-0.3,0.5c-0.4,0-0.8,0-1.2,0c-0.4,0-0.8,0.1-1,0.6c-0.2,0.6-0.1,1.4,0.8,1.5
			c0.5,0,1,0.1,1.5,0c0.7-0.1,1-0.4,1-1.1c0-1.3,0-2.6,0-3.9c0-0.5-0.3-0.9-0.8-1c-0.8-0.2-1.7-0.1-2.6,0c-0.5,0-0.9,0.1-1.4,0.2
			c-0.2,0.1-0.3-0.1-0.3-0.3c0-0.6,0-1.2,0-1.8c0-0.2,0.2-0.3,0.4-0.4c1.2-0.3,2.3-0.3,3.5-0.2c0.8,0.1,1.6,0.2,2.3,0.6
			c1,0.5,1.5,1.3,1.6,2.3c0.2,1.4,0,2.8,0.1,4.1c0,0.5,0,1.1-0.2,1.6c-0.3,1-0.9,1.5-1.8,1.8c-1.1,0.4-2.2,0.5-3.4,0.3
			c-0.7-0.1-1.4-0.2-2.1-0.5c-0.7-0.3-1.2-0.8-1.4-1.5c0-0.1,0-0.2-0.2-0.2C206.1,352.4,206.1,351.7,206.1,351z"/>
		<path class="st4" d="M230.4,353.2c0-1.5,0-3,0-4.6c0-0.8-0.4-1.4-1.2-1.5c-0.8-0.1-1.6-0.2-2.3,0.1c-0.5,0.2-0.7,0.5-0.8,1
			c-0.1,0.9-0.1,1.8-0.1,2.7c0,1.2,0.6,1.7,1.7,1.7c0.4,0,0.8,0,1.2,0c0.2,0,0.3,0.1,0.2,0.3c-0.4,0.7-0.7,1.4-1.1,2.1
			c-0.1,0.2-0.3,0.2-0.4,0.2c-1.3,0-2.4-0.3-3.3-1.3c-0.6-0.6-0.9-1.4-1-2.3c-0.2-1.1-0.2-2.2-0.1-3.3c0.1-1,0.3-1.9,0.9-2.6
			c0.5-0.6,1.2-1,2-1.2c0.8-0.2,1.6-0.3,2.5-0.3c1.3,0.1,2.6,0.4,3.5,1.4c0.6,0.7,0.9,1.5,1,2.4c0.2,1.9,0,3.8,0.1,5.8
			c0,0.9,0,1.8,0,2.7c0,0.4-0.1,0.6-0.5,0.8c-0.6,0.3-1.2,0.6-1.9,0.9c-0.3,0.2-0.5,0.1-0.5-0.3c0-0.3,0-0.7,0-1
			C230.4,355.8,230.4,354.5,230.4,353.2z"/>
		<path class="st4" d="M271.7,350c0,0.7,0,1.4,0,2.1c0,0.9-0.3,1.7-1,2.3c-0.6,0.5-1.2,0.7-2,0.8c-0.7,0.1-1.3,0.2-2,0.1
			c-1-0.1-2-0.2-2.9-0.7c-0.6-0.4-1-0.9-1.2-1.6c-0.2-1-0.2-2,0.5-2.9c0.4-0.6,1.1-0.9,1.8-1.1c0.6-0.2,1.2-0.2,1.8-0.2
			c0.3,0,0.5,0.1,0.6,0.4c0.2,0.5,0.5,0.9,0.7,1.4c0.2,0.3,0.1,0.4-0.3,0.4c-0.5,0-1.1-0.1-1.6,0.1c-0.6,0.1-0.8,0.5-0.8,1.1
			c0,0.5,0.3,0.8,0.9,0.8c0.5,0.1,1.1,0.1,1.6,0c0.6-0.1,0.9-0.3,0.9-1.1c0-1.3,0-2.7,0-4c0-0.4-0.2-0.7-0.6-0.9
			c-0.3-0.1-0.5-0.2-0.8-0.2c-1.1,0-2.2,0-3.2,0.3c-0.2,0.1-0.4-0.1-0.4-0.3c0-0.6,0-1.2,0-1.8c0-0.2,0.2-0.3,0.4-0.4
			c1.2-0.3,2.3-0.4,3.5-0.2c0.5,0.1,0.9,0.1,1.4,0.2c1.8,0.5,2.6,1.5,2.7,3.4C271.7,348.7,271.7,349.4,271.7,350z"/>
		<path class="st4" d="M235.2,348.4c0-1.1,0-2.2,0-3.3c0-0.3,0.1-0.3,0.3-0.3c0.7,0,1.4,0,2,0c0.3,0,0.3,0.1,0.3,0.3
			c0,1.9,0,3.7,0,5.6c0,0.3,0,0.7,0.1,1c0.1,0.5,0.4,0.8,0.8,0.9c0.7,0.2,1.5,0.2,2.2,0c0.5-0.1,0.8-0.6,0.8-1.2
			c0.2-2.1,0-4.1,0.1-6.2c0-0.3,0.1-0.4,0.4-0.4c0.7,0,1.3,0,2,0c0.2,0,0.3,0.1,0.3,0.3c0,2.1,0,4.2,0,6.3c0,0.7-0.1,1.3-0.4,2
			c-0.4,0.8-1,1.3-1.8,1.6c-1.6,0.5-3.1,0.5-4.7,0c-1.3-0.4-2.1-1.4-2.4-2.7c-0.1-0.3-0.1-0.6-0.1-0.8
			C235.2,350.4,235.2,349.4,235.2,348.4z"/>
		<path class="st4" d="M256.5,355.4c-0.5,0-1-0.1-1.5-0.2c-1.1-0.2-1.6-1-1.9-2c-0.3-1.3-0.7-2.7-1-4c-0.3-1.3-0.6-2.7-0.9-4
			c-0.1-0.3,0-0.4,0.4-0.5c0.7,0,1.3,0,1.9,0c0.3,0,0.5,0.1,0.6,0.4c0.2,1.1,0.5,2.2,0.7,3.2c0.3,1.3,0.6,2.7,0.9,4
			c0.1,0.3,0.2,0.5,0.6,0.5c0.7,0,0.8,0,0.9-0.5c0.2-1,0.5-1.9,0.7-2.9c0.3-1.5,0.6-3,1-4.4c0.1-0.2,0.2-0.3,0.4-0.3
			c0.7,0,1.4,0,2.1,0c0.3,0,0.4,0.1,0.3,0.4c-0.3,1.2-0.5,2.3-0.8,3.5c-0.3,1.4-0.7,2.9-1,4.3c-0.1,0.5-0.3,0.9-0.5,1.3
			c-0.3,0.5-0.8,0.8-1.3,1C257.5,355.3,257,355.4,256.5,355.4z"/>
		<path class="st4" d="M276.2,351.4c0,1.1,0,2.1,0,3.1c0,0.5-0.1,0.6-0.6,0.6c-0.6,0-1.1,0-1.7,0c-0.4,0-0.5-0.1-0.5-0.5
			c0-2.1,0-4.3,0-6.4c0-1.2,0.4-2.3,1.4-3c0.6-0.4,1.3-0.6,2.1-0.7c0.5-0.1,1.1-0.1,1.6,0c0.4,0.1,0.6,0.2,0.6,0.6c0,0.5,0,1,0,1.6
			c0,0.4-0.1,0.5-0.5,0.5c-0.5,0-1-0.1-1.4,0c-0.5,0.1-0.9,0.5-0.9,1C276.2,349.2,276.2,350.3,276.2,351.4z"/>
		<path class="st4" d="M216.9,351.2c0-1,0-2.1,0-3.1c0-1,0.3-2,1.1-2.6c0.5-0.4,1.1-0.7,1.7-0.8c0.8-0.2,1.6-0.2,2.4-0.1
			c0.3,0.1,0.4,0.2,0.4,0.5c0,0.6,0,1.2,0,1.8c0,0.2-0.1,0.4-0.4,0.4c-0.5,0-1-0.1-1.5,0c-0.6,0.1-1,0.4-1,1c0,2.1,0,4.1,0,6.2
			c0,0.1,0,0.2,0,0.2c-0.1,0.5,0,0.5-0.6,0.6c-0.6,0-1.1,0-1.6,0c-0.5,0-0.6-0.1-0.6-0.6C216.9,353.4,216.9,352.3,216.9,351.2z"/>
		<path class="st4" d="M249.7,349.9c0,1.6,0,3.1,0,4.7c0,0.3-0.1,0.5-0.4,0.4c-0.6,0-1.2,0-1.9,0c-0.3,0-0.4-0.1-0.4-0.3
			c0-2.8,0-5.6,0-8.4c0-0.2,0.1-0.4,0.3-0.5c0.7-0.3,1.3-0.7,2-1c0.3-0.2,0.4-0.1,0.4,0.2C249.7,346.7,249.7,348.3,249.7,349.9z"/>
		<path class="st4" d="M247.1,339.8c0,0,0.1,0,0.1-0.1c0.5,0.3,1.1,0.6,1.7,0.9c0.7,0.3,1.3,0.7,2,1c0.2,0.1,0.3,0.2,0,0.3
			c-1.2,0.6-2.4,1.2-3.6,1.8c0,0,0,0-0.1,0c-0.1-0.1-0.1-0.2-0.1-0.4C247.1,342.2,247.1,341,247.1,339.8L247.1,339.8z"/>
	</g>
	<circle class="st11" cx="279.6" cy="353.7" r="1.4"/>
	<g>
		<path class="st4" d="M279.9,354.6C279.9,354.5,279.9,354.5,279.9,354.6c-0.1-0.1-0.1-0.1-0.1-0.2c0,0,0,0-0.1-0.1
			c0,0,0-0.1-0.1-0.1c0,0-0.1-0.1-0.1-0.1c0,0-0.1-0.1-0.1-0.1c0,0-0.1-0.1-0.1-0.1c0,0-0.1-0.1-0.1-0.1c0,0-0.1,0-0.1,0
			c0,0,0,0-0.1,0c0,0,0,0,0,0c0,0,0,0.1,0,0.1s0,0.1,0,0.1c0,0.1,0,0.1,0,0.1s0,0.1,0,0.1c0,0,0,0.1,0,0.1v0c0,0,0,0,0,0
			c0,0,0,0,0,0s0,0,0,0c0,0,0,0,0,0c0,0-0.1,0-0.1,0c0,0-0.1,0-0.1,0c0,0-0.1,0-0.1,0c0-0.1,0-0.1,0-0.2c0-0.1,0-0.1,0-0.2
			s0-0.2,0-0.2s0-0.2,0-0.2v-0.4c0,0,0,0,0,0c0,0,0,0,0-0.1c0,0,0-0.1,0-0.1c0,0,0-0.1,0-0.1c0,0,0-0.1,0-0.1c0,0,0,0,0,0
			c0,0,0,0,0,0c0,0,0,0,0,0c0,0,0.1,0,0.1,0c0,0,0.1,0,0.1,0c0,0,0.1,0,0.1,0c0,0,0.1,0,0.1,0c0,0,0.1,0,0.1,0c0,0,0.1,0,0.1,0
			c0.1,0,0.1,0,0.2,0.1c0.1,0,0.1,0.1,0.1,0.1c0,0,0.1,0.1,0.1,0.1c0,0.1,0,0.1,0.1,0.2v0v0v0c0,0,0,0,0,0s0,0,0,0c0,0,0,0,0,0
			c0,0.1,0,0.1,0,0.1c0,0-0.1,0.1-0.1,0.1c0,0-0.1,0.1-0.1,0.1c0,0-0.1,0-0.1,0.1c0,0,0,0,0.1,0.1s0.1,0.1,0.1,0.1
			c0,0,0.1,0.1,0.1,0.1c0,0,0,0.1,0.1,0.1l0,0c0,0,0.1,0.1,0.1,0.1c0,0,0.1,0.1,0.1,0.1c0,0,0,0.1,0.1,0.1c0,0,0,0.1,0,0.1s0,0,0,0
			s0,0-0.1,0C280.1,354.6,280,354.6,279.9,354.6C280,354.6,280,354.6,279.9,354.6z M279.4,353.1
			C279.4,353.1,279.3,353.1,279.4,353.1c-0.1,0-0.1,0-0.2,0c0,0,0,0.1,0,0.1c0,0,0,0.1,0,0.1s0,0.1,0,0.1c0,0,0,0.1,0,0.1
			c0,0,0,0,0,0l0,0l0,0c0,0,0,0,0,0c0,0,0,0,0,0.1c0,0,0,0.1,0,0.1c0.1,0,0.2,0,0.3,0c0.1,0,0.2-0.1,0.2-0.1c0,0,0.1-0.1,0.1-0.2
			c0-0.1,0-0.1,0-0.2c0-0.1-0.1-0.1-0.1-0.1C279.6,353.1,279.5,353,279.4,353.1C279.4,353,279.4,353,279.4,353.1
			C279.4,353.1,279.4,353.1,279.4,353.1L279.4,353.1z"/>
	</g>
</g>
</svg>
