<?xml version="1.0" encoding="utf-8"?>
<!-- Generator: Adobe Illustrator 27.8.0, SVG Export Plug-In . SVG Version: 6.00 Build 0)  -->
<svg version="1.1" id="Camada_1" xmlns="http://www.w3.org/2000/svg" xmlns:xlink="http://www.w3.org/1999/xlink" x="0px" y="0px"
	 viewBox="0 0 450 400" style="enable-background:new 0 0 450 400;" xml:space="preserve">
<style type="text/css">
	.st0{fill:#BC2424;}
	.st1{fill:#FFFFFF;}
	.st2{fill:#ECECEC;}
	.st3{fill:#E1E0E0;}
	.st4{fill:#FBFBFB;}
	.st5{fill:#F5F5F5;}
	.st6{fill:#385A65;}
	.st7{fill:none;stroke:#FFFFFF;stroke-miterlimit:10;}
	.st8{fill:#EA505E;}
	.st9{fill:#192E35;}
	.st10{fill:#B66956;}
	.st11{fill:#7D3B29;}
	.st12{opacity:0.3;}
	.st13{fill:#192E35;stroke:#192E35;stroke-linecap:round;stroke-linejoin:round;stroke-miterlimit:10;}
	.st14{opacity:0.2;}
	.st15{fill:#FBD0BE;}
	.st16{fill:#CC9076;}
	.st17{opacity:0.78;}
</style>
<g>
	<g>
		<g>
			<g>
				<g>
					<path class="st0" d="M44.9,162.2h352.5l52.6,52.6v-178C450,16.6,433.5,0,413.2,0H36.8C16.5,0,0,16.6,0,36.8v170.4L44.9,162.2z"
						/>
				</g>
			</g>
		</g>
		<g>
			<g>
				<path class="st1" d="M44.4,28.4h360.7c9,0,16.3,6.9,16.3,15.4v340.8c0,8.5-7.3,15.4-16.3,15.4H44.4c-9,0-16.3-6.9-16.3-15.4
					V43.5C28.1,35,35.4,28.4,44.4,28.4z"/>
			</g>
		</g>
	</g>
</g>
<g>
	<g>
		<g>
			<path class="st0" d="M450,400v-23.5c0-20.2-16.6-36.8-36.8-36.8H36.8C16.5,339.7,0,356.3,0,376.5V400H450z"/>
		</g>
	</g>
</g>
<g>
	<path class="st1" d="M198.2,374.4c0.8,0,1.5,0,2.2,0c2.6,0,5.3,0,7.9,0c0.3,0,0.4,0.1,0.4,0.4c-0.2,1.3-0.5,2.6-0.8,3.8
		c-0.1,0.4-0.1,0.8-0.2,1.1c0,0.2-0.1,0.2-0.2,0.2c-0.1,0-0.2,0-0.2,0c-5.8,0-11.5,0-17.2,0c-0.4,0-0.5-0.1-0.4-0.4
		c0.1-3.8,1.7-6.9,4.4-9.5c1.2-1.2,2.6-2.1,4-3c1.2-0.8,2.4-1.6,3.7-2.3c0.6-0.4,1.2-0.9,1.6-1.5c0.2-0.2,0.3-0.4,0.4-0.6
		c0.9-1.6,0.1-3-1.8-3c-1.3,0-2.4,0.5-3.3,1.3c-0.4,0.4-0.8,0.8-1.1,1.2c-0.1,0.2-0.2,0.2-0.4,0.1c-1.2-1-2.4-1.9-3.6-2.9
		c-0.7-0.5-0.7-0.6-0.1-1.3c1.8-2.1,4-3.7,6.8-4.3c2.1-0.5,4.1-0.4,6.1,0.4c4.4,1.7,6.1,6.9,3.5,10.9c-1.2,1.8-2.8,3.2-4.6,4.4
		c-1.4,0.9-2.8,1.7-4.2,2.5c-0.7,0.4-1.3,0.8-1.9,1.3C198.7,373.6,198.4,373.9,198.2,374.4z"/>
	<g>
		<path class="st1" d="M218.2,362.8c0.2,0,0.3-0.2,0.4-0.3c1.2-1.1,2.6-1.6,4.1-1.8c1.5-0.2,2.9,0,4.3,0.6c1.6,0.8,2.5,2.1,3.2,3.7
			c1.3,3.4,0.9,6.7-0.9,9.8c-1.4,2.4-3.3,4.2-6,5.1c-2,0.7-4,0.6-5.9-0.3c-0.4-0.2-0.8-0.4-1.2-0.8c-0.1-0.1-0.2-0.2-0.3-0.2
			c-0.2-0.1-0.3-0.1-0.3,0.2c-0.1,1.9-0.7,3.8-1,5.7c-0.1,0.6-0.2,1.1-0.3,1.7c-0.1,0.9-0.3,1.1-1.2,1.1c-1,0-2,0-3,0
			c-0.6,0-1.3,0-1.9,0c-0.3,0-0.4-0.1-0.4-0.4c0.1-0.8,0.2-1.6,0.3-2.4c1.3-6.2,2.4-12.4,3.6-18.6c0.3-1.3,0.5-2.7,0.7-4
			c0.1-0.7,0.4-0.9,1.1-0.9c1,0,2.1,0,3.1,0c0.4,0,0.8,0,1.2,0c0.6,0,0.6-0.1,0.5,0.6C218.3,362.1,218.2,362.4,218.2,362.8z
			 M224.3,369.5c0-0.3,0-0.6,0-1c-0.1-1.2-0.8-2.1-1.9-2.4c-1.4-0.3-2.5,0.1-3.5,1.1c-1.5,1.4-2.2,3.3-1.9,5.4
			c0.1,0.9,0.5,1.8,1.4,2.1c1.3,0.5,2.6,0.4,3.7-0.5C223.7,373.1,224.5,371.5,224.3,369.5z"/>
		<path class="st1" d="M240.1,363.1c0.4-0.2,0.7-0.5,1-0.7c1.6-1.2,3.4-1.8,5.4-1.7c1.3,0.1,2.6,0.4,3.6,1.3
			c1.3,1.1,1.7,2.6,1.6,4.3c-0.3,3.2-1.1,6.3-1.7,9.5c-0.3,1.3-0.6,2.6-0.7,4c0,0.2-0.1,0.2-0.2,0.2c-2,0-3.9,0-5.9,0
			c-0.3,0-0.2-0.2-0.2-0.3c0.1-1,0.3-1.9,0.5-2.9c0.5-2.5,1.1-5,1.4-7.5c0.1-0.4,0.1-0.9,0.1-1.3c0-0.9-0.6-1.4-1.4-1.5
			c-1.1-0.1-1.9,0.4-2.7,1.1c-1.4,1.2-2.1,2.8-2.5,4.5c-0.5,2.5-0.9,5-1.5,7.5c-0.1,0.3-0.2,0.4-0.5,0.4c-1.9,0-3.7,0-5.6,0
			c-0.3,0-0.4,0-0.3-0.4c0.8-3.9,1.5-7.9,2.2-11.8c0.8-4,1.5-8,2.4-12c0.1-0.6,0.3-1.2,0.4-1.8c0-0.2,0.2-0.3,0.4-0.3
			c1.8,0,3.7,0,5.5,0c0.3,0,0.4,0.1,0.3,0.4c-0.2,1.7-0.6,3.4-1,5.1C240.5,360.5,240.2,361.7,240.1,363.1z"/>
		<path class="st1" d="M252,371.6c0-3.5,1.6-6.3,4.4-8.4c2.3-1.7,4.9-2.6,7.7-2.5c2.6,0,4.9,0.9,6.8,2.5c1.1,1,1.8,2.2,2.1,3.6
			c0.3,1.8,0.5,3.6-0.1,5.4c-0.8,2.9-2.7,5-5.3,6.5c-1.8,1.1-3.8,1.6-5.8,1.7c-2.9,0.1-5.4-0.8-7.6-2.7c-1.4-1.2-2-2.9-2.2-4.6
			C252.1,372.6,252,372.1,252,371.6z M263.7,366.1c-0.6,0-1.2,0.1-1.8,0.3c-2.2,1-3.4,2.7-3.5,5.1c-0.1,1.2,0.3,2.2,1.4,2.8
			c1.4,0.8,3,0.9,4.4,0.1c2-1.2,2.8-3.1,2.7-5.4C266.8,367.2,265.6,366.1,263.7,366.1z"/>
		<path class="st1" d="M281.9,363.4c0.5-0.5,0.9-0.9,1.3-1.2c2.2-1.6,4.7-1.9,7.3-1.2c1.9,0.5,2.9,2,3.2,3.9
			c0.2,1.6-0.1,3.2-0.4,4.8c-0.6,3-1.1,5.9-1.7,8.9c-0.1,0.4-0.2,0.8-0.2,1.1c0,0.2-0.2,0.3-0.4,0.3c-1.9,0-3.8,0-5.7,0
			c-0.3,0-0.4-0.1-0.3-0.4c0.4-1.9,0.8-3.8,1.2-5.7c0.4-1.8,0.7-3.6,1-5.4c0-0.3,0.1-0.6,0-0.9c-0.3-1-1-1.4-2.2-1.2
			c-1.5,0.4-2.5,1.3-3.4,2.6c-0.7,1-1,2.2-1.2,3.4c-0.5,2.2-0.9,4.5-1.3,6.7c-0.1,0.8-0.1,0.8-0.9,0.8c-1.7,0-3.5,0-5.2,0
			c-0.3,0-0.4,0-0.3-0.4c0.3-2,0.7-4,1.1-6c0.8-4,1.6-8,2.4-12c0.1-0.4,0.2-0.5,0.6-0.5c1.7,0,3.5,0,5.2,0c0.5,0,0.5,0,0.4,0.5
			C282.1,362.2,281.9,362.7,281.9,363.4z"/>
		<path class="st1" d="M146.2,363.5c0.4-0.2,0.7-0.5,1-0.8c1.3-1.3,2.8-1.8,4.5-2c1.1-0.1,2.2,0,3.3,0.3c1.8,0.6,2.7,1.8,3,3.6
			c0.3,1.6,0.1,3.2-0.3,4.8c-0.7,3.3-1.3,6.7-2,10c-0.2,0.7,0,0.6-0.7,0.6c-1.8,0-3.6,0-5.3,0c-0.5,0-0.5,0-0.4-0.5
			c0.2-1,0.4-2.1,0.6-3.1c0.5-2.5,1-5.1,1.5-7.6c0.1-0.6,0-1.1-0.2-1.6c-0.1-0.4-0.5-0.6-0.8-0.6c-1.2-0.2-2.2,0.2-3.1,0.8
			c-1,0.8-1.6,1.9-2.1,3c-0.6,1.6-0.9,3.2-1.1,4.9c-0.2,1.4-0.5,2.7-0.8,4.1c-0.1,0.6-0.1,0.6-0.8,0.6c-1.8,0-3.5,0-5.3,0
			c-0.5,0-0.5,0-0.4-0.5c0.5-3.1,1.2-6.3,1.8-9.4c0.5-2.7,1-5.4,1.5-8.1c0.2-1,0.2-1,1.2-1c1.6,0,3.2,0,4.8,0c0.3,0,0.4,0.1,0.3,0.4
			C146.5,362.1,146.3,362.8,146.2,363.5z"/>
		<path class="st1" d="M170.7,371.9c-1.8,0-3.6,0-5.4,0c-0.3,0-0.4,0.1-0.4,0.4c0.2,1.6,1.4,2.7,3,2.8c1.6,0,3.2-0.2,4.6-1.1
			c0.5-0.3,0.9-0.5,1.5-0.6c0.2,0,0.3-0.1,0.3,0.2c0.1,0.9,0.5,1.7,0.8,2.5c0.2,0.6,0.4,1.1,0.5,1.7c0,0.2,0,0.3-0.2,0.4
			c-2.6,1.7-5.4,2.5-8.5,2.2c-1.2-0.1-2.5-0.2-3.6-0.8c-2.9-1.4-4.7-3.7-4.8-7s0.9-6.2,3.2-8.7c1.5-1.7,3.5-2.7,5.7-3
			c1.4-0.2,2.9-0.3,4.3,0c3,0.6,4.7,2.4,5.4,5.3c0.4,1.5,0.4,2.9,0,4.4c-0.1,0.2-0.1,0.4-0.2,0.7c-0.2,0.4-0.5,0.6-1,0.6
			C174.2,371.8,172.5,371.9,170.7,371.9z M168.7,368.1c0.8,0,1.6,0,2.3,0c0.1,0,0.3,0.1,0.3-0.2c0.2-1-0.6-2.1-1.5-2.3
			c-1.4-0.3-3.4,0.8-3.7,2.2c-0.1,0.2,0,0.3,0.2,0.3C167.1,368.1,167.9,368.1,168.7,368.1z"/>
		<path class="st1" d="M306.4,371.9c-1.8,0-3.6,0-5.5,0c-0.3,0-0.4,0.1-0.3,0.4c0.3,1.8,1.5,2.8,3.3,2.8c1.6,0,3.1-0.3,4.4-1.1
			c0.4-0.3,0.9-0.5,1.4-0.6c0.2,0,0.2,0,0.3,0.2c0.2,1.1,0.6,2,1,3.1c0.1,0.4,0.2,0.7,0.3,1.1c0.1,0.3,0,0.4-0.3,0.6
			c-2.6,1.7-5.4,2.4-8.5,2.1c-1.3-0.1-2.6-0.3-3.8-0.9c-2.6-1.4-4.3-3.5-4.5-6.5c-0.2-3.3,0.6-6.3,2.9-8.8c1.8-2,4.1-3.1,6.7-3.4
			c1.8-0.3,3.6-0.1,5.2,0.7c2.2,1,3.5,2.7,3.8,5.1c0.3,1.5,0.1,3-0.3,4.5c-0.2,0.7-0.3,0.8-1,0.8
			C309.9,371.9,308.2,371.9,306.4,371.9z M304.4,368.2c0.8,0,1.5,0,2.1-0.2c0.4-0.2,0.6-0.5,0.5-0.8c-0.3-0.8-0.7-1.3-1.6-1.6
			c-1.4-0.4-3.4,0.8-3.8,2.3c-0.1,0.2,0,0.2,0.2,0.2C302.8,368.1,303.7,368.2,304.4,368.2z"/>
		<path class="st1" d="M188.8,366.5c-0.5,0-1.1,0-1.6,0s-0.7,0.2-0.7,0.6c-0.1,1.6-0.6,3-0.8,4.6c-0.1,0.4-0.1,0.9,0,1.3
			c0.1,0.7,0.5,1.1,1.1,1.3c0.7,0.2,1.4,0.2,2,0.1c0.4,0,0.5,0.1,0.5,0.5c-0.3,1.5-0.5,3-0.8,4.4c-0.2,0.7-0.4,0.8-1.1,0.8
			c-1.4,0-2.7,0-4-0.4c-2.1-0.6-3.5-1.8-4.1-3.9c-0.2-0.9-0.1-1.8,0-2.6c0.3-2,0.6-4.1,1.1-6.1c0.2-0.7,0.2-0.7-0.5-0.7
			c-0.5,0-0.9,0-1.4,0c-0.2,0-0.3,0-0.3-0.3c0.2-1.4,0.5-2.7,0.7-4.1c0.1-0.4,0.3-0.6,0.7-0.6c0.5,0,1.1,0,1.6,0
			c0.4,0,0.5,0,0.5-0.5c0.1-1.2,0.4-2.3,0.6-3.4c0-0.2,0.1-0.5,0.1-0.7c0.1-0.8,0.4-1,1.2-1c0.9,0,1.8,0,2.7,0c0.6,0,1.1,0,1.7,0
			c0.5,0,0.7,0.2,0.7,0.8c-0.1,0.9-0.4,1.8-0.6,2.7c-0.1,0.6-0.2,1.2-0.3,1.8c0,0.2,0.1,0.3,0.3,0.3c1,0,2.1,0,3.1,0
			c0.4,0,0.4,0.1,0.4,0.5c-0.1,1.1-0.4,2.1-0.6,3.2c-0.1,0.3-0.1,0.7-0.1,1s-0.1,0.3-0.3,0.3C189.8,366.5,189.3,366.5,188.8,366.5
			L188.8,366.5z"/>
	</g>
</g>
<g>
	<g>
		<g>
			<g>
				<g>
					<path class="st2" d="M103.4,263.1l-47.5,10.2c-0.7,0.1-1.3-0.3-1.5-0.9l-10.2-47.5c-0.1-0.7,0.3-1.3,0.9-1.5l47.5-10.2
						c0.7-0.1,1.3,0.3,1.5,0.9l10.2,47.5C104.5,262.3,104.1,262.9,103.4,263.1z"/>
				</g>
			</g>
		</g>
		<g>
			<path class="st1" d="M92.3,248c0-0.4-0.2-0.8-0.3-1.1c0-0.1-0.1-0.2-0.1-0.3c-0.9-1.8-2.5-2.9-3.9-3.7s-2.9-1.3-4.7-1.8l-0.2-0.1
				c-0.1,0-0.3,0-0.3,0.1l-3.2,5.4L68,239.2l3.2-5.9c0-0.1,0.1-0.2,0-0.2c0-0.1-0.1-0.1-0.2-0.2l-2.7-1.3c-0.4-0.2-0.7-0.3-0.9-0.4
				c-0.1,0-0.1-0.1-0.3-0.1c0,0-0.1,0-0.2-0.1c-0.2-0.1-0.3-0.2-0.6-0.3c-0.7-0.3-1.8-0.5-3.2-0.5c-1,0-2.9,0.3-4.7,1.8
				c-1.9,1.5-2.9,3.7-2.9,6c0,1.3,0.7,2.7,1.7,3.7c0.5,0.5,1.1,0.9,1.7,1.3l17.7,11.3c0.2,0.1,0.4,0.3,0.7,0.4c0.5,0.3,1,0.7,1.6,1
				c0.8,0.4,1.7,0.7,2.6,0.9c0.6,0.1,1.3,0.2,1.9,0.2c1.3,0,2.6-0.3,3.7-0.8c1.8-0.8,3.2-2.2,4.1-3.9c0.2-0.3,0.4-0.8,0.6-1.3
				l0.1-0.2c0.1-0.4,0.3-0.8,0.3-1.2l0.1-0.8L92.3,248z M70.2,233.4l-3.3,5.9c-0.1,0.1,0,0.3,0.1,0.4l12.8,8.4c0.1,0,0.2,0.1,0.2,0
				c0.1,0,0.2-0.1,0.2-0.1l3.3-5.6c1.5,0.4,2.8,0.9,4,1.6c1.1,0.6,2.6,1.6,3.4,3.1c0,0.1,0.1,0.2,0.1,0.3c0.1,0.3,0.2,0.5,0.2,0.8
				l0.1,0.5l-0.1,0.6c0,0.3-0.1,0.6-0.2,0.9l-0.1,0.3c-0.1,0.3-0.2,0.7-0.5,1.1c-0.8,1.5-2.1,2.7-3.6,3.4s-3.3,0.8-4.9,0.5
				c-0.8-0.2-1.6-0.4-2.3-0.8c-0.5-0.3-1-0.6-1.5-0.9c-0.2-0.1-0.4-0.3-0.7-0.4l-17.8-11.2c-0.5-0.3-1.1-0.7-1.5-1.1
				c-0.9-0.8-1.4-1.9-1.4-2.9c-0.1-2.4,1.2-4.3,2.4-5.3c1.6-1.3,3.3-1.6,4.2-1.7c0.2,0,0.4,0,0.5,0c1.6,0,2.6,0.4,3.1,0.6
				c0.1,0,0.2,0.1,0.3,0.1c0.2,0.1,0.4,0.3,0.8,0.5L70.2,233.4z"/>
			<path class="st1" d="M75.6,235.2c0.5,0,1.5-0.1,3.6-0.6c0.7,3.4,0.9,3.8,1.2,3.8h0.1l0,0c0.3-0.1,0.5-0.1-0.2-4
				c4-0.8,3.9-1.1,3.9-1.4l0,0c0-0.1-0.1-0.2-0.1-0.2c-0.2-0.2-1.6,0-3.9,0.5c-0.5-2.3-0.8-3.6-1-3.7c-0.1,0-0.2-0.1-0.3-0.1
				c-0.1,0-0.2,0.1-0.2,0.1c-0.2,0.2,0,1.5,0.4,3.9c-3.6,0.8-3.8,1.1-3.8,1.2c0,0.1-0.1,0.2,0,0.3C75.2,235.1,75.2,235.2,75.6,235.2
				z"/>
		</g>
	</g>
	<g>
		<g>
			<g>
				<g>
					<rect x="302.3" y="44.3" class="st3" width="88.5" height="146.5"/>
				</g>
			</g>
		</g>
		<g>
			<g>
				<g>
					<rect x="299.4" y="44.3" class="st2" width="88.5" height="146.5"/>
				</g>
			</g>
		</g>
		<g>
			<g>
				<g>
					<rect x="303.2" y="47.3" class="st4" width="81" height="140.6"/>
				</g>
			</g>
		</g>
		<g>
			<g>
				<g>
					<g>
						<rect x="318.6" y="65.6" class="st2" width="49.8" height="104"/>
					</g>
				</g>
			</g>
			<g>
				<g>
					<g>
						<path class="st3" d="M318.6,132.8c-0.1-9.7,8.6-19.2,18.3-20.6c4.6-0.7,9.5,0.3,13.8-1.5c7.7-3.1,10.1-13.3,17.8-16.3
							l0.3,75.2h-50.1L318.6,132.8L318.6,132.8z"/>
					</g>
				</g>
			</g>
		</g>
	</g>
	<g>
		<g>
			<g>
				<g>
					<g>
						<g>
							<polygon class="st3" points="419.3,313.8 416.7,340.8 402.8,340.8 400,313.8 							"/>
						</g>
					</g>
				</g>
			</g>
			<g>
				<g>
					<g>
						<g>
							<rect x="398.4" y="311.9" class="st2" width="23" height="2"/>
						</g>
					</g>
				</g>
			</g>
			<g>
				<g>
					<g>
						<g>
							<polygon class="st2" points="417,308.4 419.3,312.3 401,312.3 401.9,308.4 							"/>
						</g>
					</g>
				</g>
			</g>
			<g>
				<g>
					<g>
						<g>
							<polygon class="st5" points="418.4,322.9 417.5,332.5 401.9,332.5 401,322.9 							"/>
						</g>
					</g>
				</g>
			</g>
		</g>
		<g>
			<g>
				<g>
					<g>
						<path class="st4" d="M407.7,330.4c0-0.8,0.2-1.6,0.7-2.4c0.4-0.6,0.9-1.1,1.2-1.6c0.4-0.5,0.7-1,0.8-1.5
							c0.1-0.3,0.1-0.5,0.1-0.7c0,0,0.1,0,0.1,0.1c0.5,0.3,0.9,1,1,1.6s0.1,1.3-0.1,1.9c-0.2,0.8-0.5,1.5-1,2
							c-0.6,0.6-1.6,0.9-2.4,0.8C408,330.5,407.9,330.5,407.7,330.4z"/>
					</g>
				</g>
			</g>
			<g>
				<g>
					<g>
						<path class="st4" d="M406.5,328.3c0.1-0.9,0.2-1.7,0.5-2.5s1-1.5,1.9-1.7c0.3-0.1,0.8-0.1,1.3,0.1c0,0.2-0.1,0.4-0.2,0.7
							c-0.2,0.4-0.4,0.9-0.8,1.4s-0.9,1-1.3,1.7c-0.4,0.6-0.6,1.3-0.7,2c0,0.2,0,0.3,0,0.4c-0.2-0.1-0.4-0.3-0.5-0.5
							C406.4,329.3,406.5,328.8,406.5,328.3z"/>
					</g>
				</g>
			</g>
		</g>
	</g>
	<g>
		<g>
			<g>
				<g>
					<g>
						<g>
							<g>
								<g>
									<path class="st5" d="M263.7,328.3c12.6-12.6,12.5-31.8,9-48.4c-0.6-2.8-0.8-5.8-2.6-8c-1.8-2.2-5.2-3.3-7.5-1.7
										c-1.9,1.3-2.4,3.9-3.2,6.1c-1.1,2.9-3,5.5-5.4,7.4c-1.6,1.2-3.7,2.2-5.6,1.5c-2.6-0.9-3.5-4.2-4-7
										c-0.9-5.2-1.8-10.4-2.7-15.6c-0.5-2.8-1-5.6-2.3-8.1s-3.7-4.6-6.5-4.9s-5.8,1.8-5.8,4.7c0,1.2,0.4,2.3,0.5,3.5
										s-0.2,2.5-1.2,3.1c-1.1,0.5-2.3-0.1-3.3-0.7c-3.4-2.3-6-5.6-8.4-8.8c-2.5-3.3-4.9-6.6-8-9.2c-3.1-2.6-7.2-4.4-11.2-3.9
										s-7.8,3.7-8.1,7.8s2.7,7.7,5.7,10.4c4.5,4,9.6,7.4,15.1,10c1,0.5,2.1,1,2.6,1.9c0.9,1.8-0.5,3.9-2.2,4.8
										c-1.9,1.1-4.2,1.3-6.4,1.9c-2.1,0.6-4.3,2-4.8,4.2c-0.6,3,2.3,5.6,5,7.1c5.4,3.1,11.3,5.2,17.3,6.3
										c2.2,0.4,4.5,0.7,6.3,1.8c1.9,1.1,3.3,3.5,2.7,5.6c-0.7,2.1-3.1,3.2-5.3,3.2s-4.3-0.8-6.5-1.2c-4.1-0.8-9,0.4-10.8,4.1
										c-1.2,2.4-0.8,5.5,0.4,7.9c1.3,2.4,3.3,4.4,5.4,6.1c7.4,6.1,16.3,10.5,25.7,12C247.2,333.7,255.5,333.1,263.7,328.3"/>
								</g>
							</g>
						</g>
					</g>
				</g>
			</g>
		</g>
		<g>
			<g>
				<g>
					<g>
						<g>
							<g>
								<g>
									<g>
										<path class="st3" d="M257.5,318.6c-4-8-9-16.4-14.7-25c-1.4-2.2-2.8-4.3-4.2-6.4s-2.7-4.2-4.2-6.1c-2.9-3.9-6-7.4-9-10.7
											c-3-3.3-6-6.2-8.9-9s-5.5-5.3-8.1-7.5c-5.1-4.4-9.6-7.5-12.8-9.5c-1.6-1-2.9-1.7-3.7-2.2c-0.4-0.2-0.7-0.4-1-0.5
											c-0.2-0.1-0.3-0.2-0.3-0.2s0.1,0.1,0.3,0.2c0.2,0.2,0.6,0.3,1,0.6c0.8,0.5,2.1,1.3,3.7,2.3c3.1,2,7.6,5.1,12.7,9.6
											c2.5,2.2,5.2,4.7,8,7.5s5.8,5.8,8.8,9c3,3.3,6.1,6.8,9,10.7c1.4,1.9,2.8,4,4.2,6.1s2.8,4.2,4.2,6.4
											c5.6,8.6,10.7,17,14.7,25"/>
									</g>
								</g>
							</g>
						</g>
					</g>
				</g>
			</g>
		</g>
		<g>
			<g>
				<g>
					<g>
						<g>
							<g>
								<g>
									<g>
										<path class="st3" d="M234.4,281.1c0,0,0.1-0.4,0.1-1.2c0-0.8,0-1.9-0.1-3.4c-0.1-2.8-0.4-6.7-0.7-11.1
											c-0.3-4.3-0.5-8.2-0.6-11c0-1.4,0-2.6,0-3.4s0-1.2-0.1-1.2c0,0-0.1,0.4-0.1,1.2c-0.1,0.8-0.1,1.9-0.1,3.4
											c0,2.8,0.1,6.8,0.4,11.1c0.3,4.3,0.6,8.1,0.8,11c0.1,1.3,0.2,2.4,0.2,3.4C234.3,280.6,234.3,281.1,234.4,281.1z"/>
									</g>
								</g>
							</g>
						</g>
					</g>
				</g>
			</g>
		</g>
		<g>
			<g>
				<g>
					<g>
						<g>
							<g>
								<g>
									<g>
										<path class="st3" d="M197.4,280.7c0,0,0.5,0,1.5-0.1c0.9-0.1,2.3-0.2,4-0.3c3.3-0.2,8-0.4,13-0.3c5.1,0.1,9.7,0.3,13,0.6
											c1.7,0.1,3,0.3,4,0.4c0.9,0.1,1.4,0.1,1.4,0.1s-0.5-0.1-1.4-0.3s-2.3-0.3-3.9-0.5c-3.3-0.4-8-0.7-13.1-0.8
											c-5.1-0.1-9.8,0.2-13.1,0.5c-1.7,0.2-3,0.3-4,0.5C197.9,280.6,197.4,280.7,197.4,280.7z"/>
									</g>
								</g>
							</g>
						</g>
					</g>
				</g>
			</g>
		</g>
		<g>
			<g>
				<g>
					<g>
						<g>
							<g>
								<g>
									<g>
										<path class="st3" d="M257,318c0,0,0.1-0.2,0.2-0.5c0.1-0.4,0.2-0.8,0.4-1.4c0.3-1.2,0.8-3,1.3-5.2
											c1-4.4,2.2-10.5,3.4-17.3c1.2-6.8,2.3-12.9,3.2-17.3c0.4-2.1,0.8-3.9,1.1-5.2c0.1-0.6,0.2-1,0.3-1.4
											c0.1-0.3,0.1-0.5,0.1-0.5s-0.1,0.2-0.2,0.5c-0.1,0.4-0.2,0.8-0.4,1.4c-0.3,1.2-0.8,3-1.3,5.2c-1,4.4-2.2,10.5-3.4,17.3
											s-2.3,12.9-3.2,17.3c-0.4,2.1-0.8,3.9-1.1,5.2c-0.1,0.6-0.2,1-0.3,1.4C257,317.8,257,318,257,318z"/>
									</g>
								</g>
							</g>
						</g>
					</g>
				</g>
			</g>
		</g>
		<g>
			<g>
				<g>
					<g>
						<g>
							<g>
								<g>
									<g>
										<path class="st3" d="M206.8,311.1c0,0,0.2,0.1,0.5,0.1c0.4,0.1,0.9,0.1,1.5,0.2c1.3,0.2,3.2,0.4,5.4,0.7
											c4.5,0.6,10.8,1.6,17.7,2.6s13.2,1.9,17.8,2.5c2.3,0.3,4.1,0.5,5.4,0.6c0.6,0,1.1,0.1,1.5,0.1c0.3,0,0.5,0,0.5,0
											s-0.2-0.1-0.5-0.1c-0.4-0.1-0.9-0.1-1.5-0.2c-1.3-0.2-3.2-0.4-5.4-0.8c-4.5-0.6-10.8-1.6-17.7-2.6s-13.2-1.9-17.8-2.5
											c-2.3-0.3-4.1-0.5-5.4-0.6c-0.6,0-1.1-0.1-1.5-0.1C207,311.1,206.8,311.1,206.8,311.1z"/>
									</g>
								</g>
							</g>
						</g>
					</g>
				</g>
			</g>
		</g>
	</g>
	<g>
		<g>
			<g>
				<g>
					<g>
						<g>
							<g>
								<g>
									<g>
										
											<rect x="51.7" y="33.1" transform="matrix(2.293218e-03 -1 1 2.293218e-03 19.6261 143.3084)" class="st3" width="59.9" height="57.4"/>
									</g>
								</g>
							</g>
						</g>
					</g>
				</g>
			</g>
			<g>
				<g>
					<g>
						<g>
							<g>
								<g>
									<g>
										
											<rect x="47.7" y="33.1" transform="matrix(2.293212e-03 -1 1 2.293212e-03 15.6738 139.3216)" class="st6" width="59.9" height="57.4"/>
									</g>
								</g>
							</g>
						</g>
					</g>
				</g>
				<g>
					<g>
						<g>
							<g>
								<g>
									<g>
										<path class="st5" d="M106.4,91.9l-57.5-0.1l0.1-60l57.5,0.1L106.4,91.9z"/>
									</g>
								</g>
							</g>
						</g>
					</g>
				</g>
			</g>
			<g>
				<g>
					<g>
						<g>
							<g>
								<g>
									<g>
										
											<rect x="55.8" y="40.9" transform="matrix(2.293007e-03 -1 1 2.293007e-03 15.704 139.4524)" class="st1" width="43.8" height="42"/>
									</g>
								</g>
							</g>
						</g>
					</g>
				</g>
			</g>
			<g>
				<g>
					<g>
						<g>
							<g>
								<g>
									<g>
										<g>
											<path class="st3" d="M56.7,84c0,0-0.4,0.5-1,1.2c-0.7,0.7-1.6,1.7-2.7,2.7c-1.1,1-2,2-2.8,2.6c-0.7,0.7-1.2,1-1.2,1
												s0.4-0.5,1-1.2c0.7-0.7,1.6-1.7,2.7-2.7c1.1-1,2-2,2.8-2.6C56.2,84.3,56.6,83.9,56.7,84z"/>
										</g>
									</g>
								</g>
							</g>
						</g>
					</g>
				</g>
			</g>
			<g>
				<g>
					<g>
						<g>
							<g>
								<g>
									<g>
										<g>
											<path class="st3" d="M98.6,84c0,0,0.5,0.4,1.2,1c0.7,0.7,1.7,1.6,2.7,2.7s2,2,2.6,2.8c0.7,0.7,1,1.2,1,1.2
												s-0.5-0.4-1.2-1c-0.7-0.7-1.7-1.6-2.7-2.7s-2-2-2.6-2.8C99,84.5,98.6,84,98.6,84z"/>
										</g>
									</g>
								</g>
							</g>
						</g>
					</g>
				</g>
			</g>
			<g>
				<g>
					<g>
						<g>
							<g>
								<g>
									<g>
										<g>
											<path class="st3" d="M98.6,40.1c0,0,0.4-0.5,1-1.2c0.7-0.7,1.6-1.7,2.7-2.7s2-2,2.8-2.6c0.7-0.7,1.2-1,1.2-1
												s-0.4,0.5-1,1.2c-0.7,0.7-1.6,1.7-2.7,2.7s-2,2-2.8,2.6C99.1,39.8,98.7,40.2,98.6,40.1z"/>
										</g>
									</g>
								</g>
							</g>
						</g>
					</g>
				</g>
			</g>
			<g>
				<g>
					<g>
						<g>
							<g>
								<g>
									<g>
										<g>
											<path class="st3" d="M56.6,40.1c0,0-0.5-0.4-1.2-1c-0.7-0.7-1.7-1.6-2.7-2.7c-1-1.1-2-2-2.6-2.7c-0.7-0.7-1-1.2-1-1.2
												s0.5,0.4,1.2,1s1.7,1.6,2.7,2.7c1,1.1,2,2,2.6,2.8C56.3,39.6,56.7,40.1,56.6,40.1z"/>
										</g>
									</g>
								</g>
							</g>
						</g>
					</g>
				</g>
			</g>
			<g>
				<g>
					<g>
						<g>
							<g>
								<g>
									<g>
										<g>
											<path class="st3" d="M98.5,83.8c0,0,0-0.1,0-0.2c0-0.2,0-0.3,0-0.6c0-0.5,0-1.3,0-2.4c0-2.1,0-5.1,0-8.9
												c0-7.7,0-18.6,0-31.7l0.2,0.2c-12.2,0-26.6,0-41.9-0.1l0,0l0.2-0.2C57,56,56.9,71,56.9,83.7l-0.2-0.2
												c12.5,0.1,23,0.1,30.3,0.2c3.7,0,6.5,0,8.5,0.1c1,0,1.7,0,2.3,0C98.1,83.8,98.2,83.8,98.5,83.8
												C98.5,83.8,98.5,83.8,98.5,83.8s-0.1,0-0.2,0s-0.3,0-0.6,0c-0.5,0-1.3,0-2.2,0c-2,0-4.8,0-8.5,0c-7.3,0-17.8,0-30.4,0
												h-0.2v-0.2c0-12.7,0-27.7,0.1-43.8v-0.2h0.2l0,0c15.3,0,29.6,0.1,41.9,0.1h0.2V40c-0.1,13.1-0.1,24.1-0.2,31.8
												c0,3.8-0.1,6.8-0.1,8.9c0,1,0,1.8,0,2.3c0,0.3,0,0.4,0,0.6S98.5,83.8,98.5,83.8z"/>
										</g>
									</g>
								</g>
							</g>
						</g>
					</g>
				</g>
			</g>
		</g>
		<g>
			<g>
				<g>
					<g>
						<g>
							<g>
								<g>
									<path class="st5" d="M69.9,73.7c-3.2-3.2-3.3-8.8-0.4-12.2c1.2-1.3,2.7-2.3,3.8-3.7c2.4-3,2.3-7.9,5.6-9.9
										c2.4-1.5,5.8-0.6,7.5,1.6c1.7,2.2,1.9,5.4,0.7,8c-0.8,1.9-2.3,3.5-2.9,5.5s-0.3,4.3-0.9,6.3c-0.8,2.4-3.4,4-5.8,4.9
										C75.3,74.9,72.2,74.7,69.9,73.7"/>
								</g>
							</g>
						</g>
					</g>
				</g>
			</g>
			<g>
				<g>
					<g>
						<g>
							<g>
								<g>
									<g>
										<path class="st3" d="M81.8,53.6c0,0-0.1,0.4-0.4,1.2c-0.3,0.7-0.7,1.8-1.3,3.1c-1.2,2.6-2.9,6.1-5.2,9.7
											c-2.3,3.7-4.6,6.8-6.4,9c-0.9,1.1-1.6,1.9-2.2,2.5c-0.5,0.6-0.8,0.9-0.8,0.9s0.3-0.4,0.8-1s1.2-1.5,2.1-2.6
											c1.7-2.2,4-5.4,6.3-9s4.1-7.1,5.3-9.6c0.6-1.3,1.1-2.3,1.4-3C81.6,53.9,81.8,53.6,81.8,53.6z"/>
									</g>
								</g>
							</g>
						</g>
					</g>
				</g>
			</g>
			<g>
				<g>
					<g>
						<g>
							<g>
								<g>
									<g>
										<path class="st3" d="M73.1,61.1c0,0,0.2,0.8,0.3,2.2c0.2,1.4,0.4,3.3,0.6,5.5l-0.3-0.2c0.3-0.2,0.6-0.3,0.9-0.5
											c2.1-1.2,4-2.3,5.4-3.1c1.4-0.8,2.3-1.2,2.3-1.2s-0.8,0.6-2.2,1.4c-1.4,0.8-3.3,1.9-5.4,3.2c-0.3,0.2-0.6,0.4-0.9,0.5
											l-0.3,0.2v-0.3c-0.2-2.2-0.3-4.1-0.4-5.5C73.1,62,73,61.1,73.1,61.1z"/>
									</g>
								</g>
							</g>
						</g>
					</g>
				</g>
			</g>
			<g>
				<g>
					<g>
						<g>
							<g>
								<g>
									<g>
										<path class="st3" d="M84.1,57.9c0,0-0.5,0.3-1.4,0.8c-0.9,0.4-2.1,1-3.5,1.7c-0.2,0.1-0.3,0.1-0.4,0.2l-0.2,0.1v-0.3
											c-0.2-1.4-0.4-2.6-0.5-3.5s-0.2-1.5-0.1-1.5s0.2,0.5,0.3,1.4c0.2,0.9,0.4,2.1,0.6,3.5l-0.3-0.1c0.1-0.1,0.3-0.1,0.4-0.2
											c1.4-0.6,2.7-1.2,3.6-1.6C83.5,58.1,84.1,57.9,84.1,57.9z"/>
									</g>
								</g>
							</g>
						</g>
					</g>
				</g>
			</g>
		</g>
		<g>
			<g>
				<g>
					<g>
						<g>
							<g>
								<g>
									<path class="st7" d="M55.2,32.7"/>
								</g>
							</g>
						</g>
					</g>
				</g>
			</g>
		</g>
	</g>
	<g>
		<g>
			<g>
				<g>
					<g>
						<g>
							<g>
								<path class="st8" d="M57.3,286c2.9-1.5,6.4-1.7,9.6-1.2c1.7,0.3,3.6,0.8,4.7,2.1c1.2,1.3,1.4,3.6,0,4.7
									c-0.8,0.7-1.9,0.8-3,0.8c-2.5,0-5.3-0.5-7.4,1c-1.1,0.9-1.9,2.3-3.3,2.7c-1.4,0.4-2.9-0.4-3.6-1.6c-0.7-1.2-0.7-2.7-0.4-4.1
									C54,290.5,54.4,287.6,57.3,286z"/>
							</g>
						</g>
					</g>
				</g>
			</g>
			<g>
				<g>
					<g>
						<g>
							<g>
								<path class="st8" d="M50.6,273.1c1.8,2.5,5.3,1.7,6.9,0.1c1.6-1.6,2.3-3.8,2.9-6c1.4-4.9,2.8-10.1,1.8-15.1
									c-0.3-1.5-0.9-3-1.9-4.1s-2.7-1.8-4.1-1.4c-1.8,0.5-2.8,2.2-3.6,3.8c-2.3,4.8-3.5,10.1-3.6,15.4
									C48.9,268.5,49.2,271.1,50.6,273.1"/>
							</g>
						</g>
					</g>
				</g>
			</g>
			<g>
				<g>
					<g>
						<g>
							<g>
								<path class="st8" d="M45.7,276.8c1.9-2.3,2.3-5.7,1.4-8.5c-0.9-2.9-2.8-5.3-5.1-7.3c-2.6-2.3-5.7-4.2-9-5.3
									c-1.3-0.5-2.7-0.8-4.1-0.7s-2.8,0.8-3.4,2.1c-1,1.8,0,4,0.9,5.8c1.7,3.2,3.7,6.2,5.9,9c1.8,2.3,3.8,4.6,6.5,5.6s5.5,0.9,7-1
									"/>
							</g>
						</g>
					</g>
				</g>
			</g>
			<g>
				<g>
					<g>
						<g>
							<g>
								<g>
									<path class="st9" d="M50.5,311.6c0,0,0.1-0.4,0.2-1.2c0.1-0.8,0.2-1.9,0.3-3.2c0.1-1.3,0.3-2.9,0.7-4.6s0.9-3.6,1.7-5.5
										s1.7-3.6,2.8-5s2.3-2.4,3.5-2.9c1.2-0.6,2.2-0.8,3-0.9c0.7-0.1,1.1-0.1,1.1-0.2c0,0-0.4,0-1.2,0s-1.9,0.2-3.1,0.8
										c-1.3,0.6-2.6,1.6-3.7,3c-1.1,1.4-2.1,3.1-2.9,5.1c-0.8,1.9-1.3,3.8-1.7,5.6c-0.4,1.8-0.5,3.4-0.6,4.7
										c-0.1,1.3-0.1,2.4-0.2,3.2C50.5,311.2,50.5,311.6,50.5,311.6z"/>
								</g>
							</g>
						</g>
					</g>
				</g>
			</g>
			<g>
				<g>
					<g>
						<g>
							<g>
								<g>
									<path class="st9" d="M50.7,309.1c0,0,0-0.2,0-0.5c0-0.4,0-0.9,0-1.5c0-1.3,0-3.3,0.1-5.6c0.1-4.8,0.5-9.9,1.3-17.1
										c0.8-6.8,1.8-14.7,2.8-19.9c0.2-1.2,0.5-2.2,0.7-3.1s0.4-1.7,0.5-2.4c0.1-0.6,0.3-1.1,0.4-1.5c0.1-0.3,0.1-0.5,0.1-0.5
										s-0.1,0.2-0.2,0.5c-0.1,0.4-0.3,0.9-0.4,1.5c-0.2,0.6-0.4,1.4-0.6,2.4c-0.2,0.9-0.5,2-0.8,3.1c-1,4.7-2.2,11.2-3,18.4
										c-0.8,7.3-1.1,13.9-1.2,18.6c0,2.4,0,4.3,0.1,5.7c0,0.6,0.1,1.1,0.1,1.5C50.7,309,50.7,309.1,50.7,309.1z"/>
								</g>
							</g>
						</g>
					</g>
				</g>
			</g>
			<g>
				<g>
					<g>
						<g>
							<g>
								<g>
									<path class="st9" d="M50.7,296.4c0,0,0-0.6,0-1.6c-0.1-1-0.2-2.5-0.5-4.3s-0.7-4-1.4-6.3c-0.3-1.1-1-3.7-2.7-7.5
										c-2.2-5.2-5.2-9.5-7.8-12.1c-0.6-0.7-1.3-1.2-1.8-1.7c-0.3-0.2-0.5-0.5-0.8-0.7s-0.5-0.3-0.7-0.5c-0.9-0.6-1.3-0.9-1.4-0.9
										c-0.1,0.1,1.9,1.3,4.4,3.9c2.5,2.7,5.4,6.9,7.6,12.1c1.2,2.8,2.1,5.3,2.7,7.4c0.7,2.3,1.1,4.5,1.5,6.3
										c0.3,1.8,0.5,3.3,0.6,4.3C50.6,295.8,50.7,296.4,50.7,296.4z"/>
								</g>
							</g>
						</g>
					</g>
				</g>
			</g>
		</g>
		<g>
			<g>
				<g>
					<g>
						<g>
							<polygon class="st9" points="38.4,318.9 39.7,336.3 62.2,336.3 63.4,318.9 							"/>
						</g>
					</g>
				</g>
			</g>
		</g>
		<g>
			<g>
				<g>
					<g>
						<g>
							<rect x="36.3" y="312" class="st9" width="29.8" height="6.9"/>
						</g>
					</g>
				</g>
			</g>
		</g>
		<g>
			<g>
				<g>
					<g>
						<g>
							<polygon class="st6" points="36.3,335.7 36.3,337.6 37.7,337.6 65.6,337.6 65.6,335.7 							"/>
						</g>
					</g>
				</g>
			</g>
		</g>
		<g>
			<g>
				<g>
					<g>
						<g>
							<polygon class="st6" points="39.1,340.9 37.7,337.6 64.6,337.6 63,340.9 							"/>
						</g>
					</g>
				</g>
			</g>
		</g>
		<g>
			<g>
				<g>
					<g>
						<g>
							<g>
								<path class="st3" d="M63,324.6c0,0,0,0.1-0.1,0.2s-0.2,0.3-0.3,0.4c-0.3,0.4-0.8,1-1.3,1.7l-0.1,0.1l-0.1-0.1
									c-0.8-1.1-1.9-2.7-3.2-4.5h0.2c-1,1.4-2,2.9-3.2,4.5l-0.1,0.1l-0.1-0.1c-1.2-1.4-2.4-2.9-3.8-4.5h0.2
									c-0.1,0.1-0.1,0.2-0.2,0.3c-1.2,1.5-2.3,2.9-3.4,4.2l-0.1,0.1l-0.1-0.1c-1.1-1.6-2.2-3.1-3.2-4.5h0.2
									c-1.6,1.8-2.9,3.3-3.9,4.4l-0.1,0.1l-0.1-0.1c-0.5-0.9-0.9-1.5-1.2-2c-0.1-0.2-0.2-0.4-0.3-0.5s-0.1-0.2-0.1-0.2
									s0,0.1,0.1,0.2s0.2,0.3,0.4,0.5c0.3,0.5,0.7,1.2,1.3,2h-0.1c1-1.2,2.3-2.7,3.8-4.5l0.1-0.1l0.1,0.1c1,1.4,2,2.9,3.2,4.5
									h-0.2c1.1-1.3,2.2-2.8,3.3-4.2c0.1-0.1,0.1-0.2,0.2-0.3l0.1-0.1l0.1,0.1c1.3,1.6,2.6,3.1,3.7,4.5h-0.2
									c1.1-1.6,2.2-3.1,3.2-4.5l0.1-0.1l0.1,0.1c1.3,1.8,2.3,3.3,3.1,4.5h-0.1c0.6-0.7,1-1.2,1.4-1.6c0.1-0.2,0.3-0.3,0.4-0.4
									C63,324.6,63,324.6,63,324.6z"/>
							</g>
						</g>
					</g>
				</g>
			</g>
		</g>
		<g>
			<g>
				<g>
					<g>
						<g>
							<g>
								<path class="st6" d="M63.8,318.8c0,0.1-5.6,0.1-12.6,0.1c-6.9,0-12.6-0.1-12.6-0.1c0-0.1,5.6-0.1,12.6-0.1
									C58.1,318.6,63.8,318.7,63.8,318.8z"/>
							</g>
						</g>
					</g>
				</g>
			</g>
		</g>
		<g>
			<g>
				<g>
					<g>
						<g>
							<g>
								<path class="st9" d="M64.9,337.8c0,0.1-6.1,0.1-13.6,0.1s-13.7-0.1-13.7-0.1c0-0.1,6.1-0.1,13.7-0.1
									C58.8,337.6,64.9,337.7,64.9,337.8z"/>
							</g>
						</g>
					</g>
				</g>
			</g>
		</g>
	</g>
	<g>
		<g>
			<g>
				<g>
					<g>
						<g>
							<g>
								<path class="st10" d="M334.8,195c-0.5-2.3,2.2-10.1,0.4-10.3c-2.2-0.2-2.6,8.7-2.7,9.5s-1.3,0.7-1.1,0
									c0.2-1,1.6-11.2-0.6-11.2c-1.2,0-1.3,2.2-1.3,2.2s-0.8,10-1.9,9.9c-1.1,0-0.3-5.7-0.2-7.8c0.1-2-0.9-3.2-1.7-2.3
									c-1.1,1.3-1.1,6.4-1.2,8.5c-0.1,2-0.7,7.8-2.8,4.9c-2.1-2.9-4.8-4.4-5.7-4.3c-1,0.1-1.2,1.5-0.2,2.1
									c0.8,0.4,1.8,1.6,2.6,2.5c0.6,0.7,1.1,1.6,1.5,2.5c0.3,0.6,0.8,1.8,1.1,3.5c0.3,2,1.4,3.7,3.1,4.8l-0.1,16l-0.5,7.9
									l12.5,4.3l-1.6-28.2c0.6-5.4,3-12.3,3.9-15.5c1.4-5.1,0.7-5.3,0.1-5.3C337,188.6,335.4,197.2,334.8,195z"/>
							</g>
						</g>
					</g>
				</g>
			</g>
			<g>
				<g>
					<g>
						<g>
							<path class="st11" d="M333.2,201.9c0,0-0.6,0-1.5,0.3s-2.1,0.9-3,2.1c-0.2,0.3-0.4,0.7-0.6,1l-0.1,0.2l-0.1-0.1
								c-0.8-0.8-1.7-1.4-2.4-1.7s-1.1-0.5-1.1-0.5s0.4,0,1.1,0.3s1.6,0.8,2.5,1.7h-0.2c0.2-0.3,0.4-0.7,0.6-1
								c0.5-0.6,1-1.1,1.6-1.4c0.6-0.3,1.1-0.5,1.6-0.7c0.5-0.1,0.9-0.1,1.2-0.1C333.1,201.8,333.2,201.9,333.2,201.9z"/>
						</g>
					</g>
				</g>
			</g>
			<g>
				<g>
					<g>
						<g>
							<path class="st11" d="M332.6,209.3c0,0.1-1.2,0.4-2.7,0.5c-1.5,0-2.7-0.3-2.7-0.3c0-0.1,1.2,0.1,2.7,0.1
								C331.4,209.5,332.6,209.3,332.6,209.3z"/>
						</g>
					</g>
				</g>
			</g>
		</g>
		<g>
			<g>
				<g>
					<path class="st9" d="M257.4,167.7c0.3-4.1,3.6-7.8,7.7-8.4c1.1-0.2,2.2-0.1,3.2-0.6c0.8-0.4,1.4-1,2.2-1.5
						c2.4-1.5,5.8-1.1,7.7,1c1.8,2,2.2-1,6.3,1c3.3,1.7,1.9,4.4,1.9,4.4c3.3-0.4,6.7,1.9,7.5,5.1c0.5,2,0.3,4.6,2,5.8
						c0.8,0.6,1.9,0.7,2.8,1.3c1.6,1,1.8,3.3,1.6,5.1c-0.2,1.9-0.6,3.9,0.2,5.6c1.3,2.8,5.5,3.6,6.2,6.7c0.3,1.4-0.1,3.2,0.9,4.2
						c0.4,0.4,1,0.6,1.6,0.8c2.2,0.9,3.8,3.1,4.1,5.5c0.2,2.4-1,4.8-3,6.1c-0.6,0.3-1.2,0.7-1.4,1.3c-0.2,0.7,0.3,1.4,0.7,2
						c1.4,2.3,1,5.6-0.8,7.5c-1.9,2-5.1,2.5-7.5,1.2c-1.1,2.3-3.1,4.1-5.4,5c-1.1,0.4-2.3,0.6-3.4,0.3c-0.9-0.2-1.7-0.7-2.5-1.3
						c-3.5-2.7-8.5-6.8-9.2-11.2"/>
				</g>
			</g>
			<g>
				<g>
					<path class="st10" d="M257.3,174.5l-0.2-3.1l18.8-4.2c5.8-0.8,12.3,4.8,12.8,10.7c0.6,6.5,1.1,14.4,0.5,19.3
						c-1.3,9.8-8.7,11.3-8.7,11.3l0.3,9.7l-21.5,0.9L257.3,174.5z"/>
				</g>
			</g>
			<g>
				<g>
					<g>
						<g>
							<g>
								<g>
									<g>
										<g>
											<g>
												<g>
													<path class="st9" d="M285.3,184.9c0,0.7-0.5,1.3-1.2,1.3c-0.7,0.1-1.3-0.4-1.3-1.1c-0.1-0.7,0.5-1.3,1.2-1.3
														C284.6,183.8,285.2,184.3,285.3,184.9z"/>
												</g>
											</g>
										</g>
									</g>
								</g>
							</g>
						</g>
					</g>
				</g>
			</g>
			<g>
				<g>
					<g>
						<g>
							<g>
								<g>
									<g>
										<g>
											<g>
												<g>
													<g>
														<path class="st9" d="M286.9,182.1c-0.1,0.2-1.1-0.5-2.5-0.5c-1.3,0-2.3,0.8-2.5,0.6c-0.1-0.1,0.1-0.4,0.5-0.7
															s1.1-0.7,2-0.7c0.8,0,1.5,0.3,2,0.6C286.8,181.7,286.9,182,286.9,182.1z"/>
													</g>
												</g>
											</g>
										</g>
									</g>
								</g>
							</g>
						</g>
					</g>
				</g>
			</g>
			<g>
				<g>
					<g>
						<g>
							<g>
								<g>
									<g>
										<g>
											<g>
												<g>
													<path class="st9" d="M272.7,185.6c0,0.7-0.5,1.3-1.2,1.3c-0.7,0.1-1.3-0.4-1.3-1.1c0-0.7,0.5-1.3,1.2-1.3
														C272.1,184.4,272.7,184.9,272.7,185.6z"/>
												</g>
											</g>
										</g>
									</g>
								</g>
							</g>
						</g>
					</g>
				</g>
			</g>
			<g>
				<g>
					<g>
						<g>
							<g>
								<g>
									<g>
										<g>
											<g>
												<g>
													<g>
														<path class="st9" d="M273.6,182.7c-0.1,0.2-1.1-0.5-2.5-0.5c-1.3,0-2.3,0.8-2.5,0.6c-0.1-0.1,0.1-0.4,0.5-0.7
															s1.1-0.7,2-0.7c0.8,0,1.5,0.3,2,0.6C273.6,182.3,273.7,182.6,273.6,182.7z"/>
													</g>
												</g>
											</g>
										</g>
									</g>
								</g>
							</g>
						</g>
					</g>
				</g>
			</g>
			<g>
				<g>
					<g>
						<g>
							<g>
								<g>
									<g>
										<g>
											<g>
												<g>
													<path class="st9" d="M278.8,192.5c0-0.1,0.8-0.2,2.2-0.5c0.3,0,0.7-0.1,0.7-0.4c0.1-0.3-0.1-0.6-0.3-1
														c-0.3-0.8-0.7-1.7-1.1-2.6c-1.5-3.7-2.6-6.7-2.5-6.8s1.5,2.9,3,6.6c0.4,0.9,0.7,1.8,1.1,2.6c0.1,0.4,0.4,0.8,0.2,1.3
														c-0.1,0.3-0.3,0.4-0.5,0.5s-0.4,0.1-0.6,0.1C279.7,192.6,278.8,192.6,278.8,192.5z"/>
												</g>
											</g>
										</g>
									</g>
								</g>
							</g>
						</g>
					</g>
				</g>
			</g>
			<g>
				<g>
					<g>
						<g>
							<g>
								<g>
									<g>
										<g>
											<g>
												<path class="st11" d="M280.6,208.4c0,0-6.9,0.6-13.5-3.1c0,0,3.5,6.7,13.6,5.5L280.6,208.4z"/>
											</g>
										</g>
									</g>
								</g>
							</g>
						</g>
					</g>
				</g>
			</g>
			<g>
				<g>
					<g>
						<g>
							<g>
								<g>
									<g>
										<g>
											<g>
												<path class="st11" d="M278.4,195.8c-0.5-0.6-1.3-0.9-2.2-0.8c-0.6,0.1-1.2,0.4-1.5,0.9s-0.4,1.2-0.1,1.6
													c0.4,0.5,1.1,0.6,1.8,0.4c0.6-0.2,1.2-0.6,1.7-1.1c0.1-0.1,0.3-0.2,0.4-0.4C278.5,196.2,278.5,196,278.4,195.8"/>
											</g>
										</g>
									</g>
								</g>
							</g>
						</g>
					</g>
				</g>
			</g>
			<g>
				<g>
					<g>
						<g>
							<g>
								<g>
									<g>
										<g>
											<g>
												<g>
													<path class="st9" d="M274.9,193.6c0.2,0,0.3,1.4,1.5,2.4c1.3,1,2.8,0.8,2.9,1c0,0.1-0.3,0.3-1,0.3
														c-0.6,0-1.6-0.1-2.4-0.8c-0.8-0.6-1.1-1.4-1.2-2C274.6,193.9,274.8,193.6,274.9,193.6z"/>
												</g>
											</g>
										</g>
									</g>
								</g>
							</g>
						</g>
					</g>
				</g>
			</g>
			<g>
				<g>
					<g>
						<g>
							<g>
								<g>
									<path class="st9" d="M273.8,177.4c-0.1,0.4-1.5,0.2-3,0.5c-1.6,0.2-2.8,0.7-3,0.4c-0.1-0.2,0.1-0.5,0.6-0.9
										s1.3-0.7,2.3-0.9c0.9-0.1,1.8,0,2.4,0.2C273.6,177,273.9,177.3,273.8,177.4z"/>
								</g>
							</g>
						</g>
					</g>
				</g>
			</g>
			<g>
				<g>
					<g>
						<g>
							<g>
								<g>
									<path class="st9" d="M286.2,178.2c-0.2,0.3-1.2,0-2.3,0c-1.1,0-2,0.3-2.3,0c-0.1-0.2,0-0.5,0.4-0.8s1.1-0.6,1.8-0.6
										c0.8,0,1.4,0.3,1.8,0.6C286.2,177.7,286.3,178,286.2,178.2z"/>
								</g>
							</g>
						</g>
					</g>
				</g>
			</g>
			<g>
				<g>
					<path class="st9" d="M290.4,165.9c-1.3,3.5-4.5,8.8-8.2,9.5c-3.7,0.6-7.7-0.8-10.1-3.7c-0.4,2.8-3.4,4.4-6.2,5
						c-2,0.4-4,0.5-5.9-0.1c-1.9-0.7-3.6-2.2-4-4.2s2.2-7,4.1-7.4"/>
				</g>
			</g>
			<g>
				<g>
					<path class="st9" d="M263.7,217.7c0,3.1-2.1,6.2-5.1,7.2c0.3,2.5-1.5,5.2-4,5.8c-2.5,0.7-5.3-0.7-6.4-3
						c-0.3-0.6-0.5-1.3-0.9-1.8c-1-1.1-2.9-0.8-4.4-1.1c-2.7-0.7-4.1-3.8-4-6.6c0-0.5,0.1-1.1,0-1.6c-0.2-1.1-1.2-1.9-1.9-2.7
						c-2.9-3.6-2.2-9.1,0.5-12.8c0.9-1.3,2-2.6,1.8-4.1c-0.1-0.8-0.6-1.6-1-2.4c-1.2-2.5-0.6-5.7,1.3-7.7c0.3-0.3,0.7-0.6,0.7-1
						c0-0.3,0-0.5-0.1-0.8c-0.8-4,2.2-8.4,6.2-9.2c0.2,0,0.5-0.1,0.7-0.2c0.6-0.4,0.6-1.2,0.6-1.9c0.1-1.9,1.3-5.4,2.6-6.7
						c3.7-3.6,7.7-1.2,9.1,0c0,0,3.6,13.1,3.3,15.7c-0.3,2.5-1.7,8.8-0.8,11.6c0.9,2.8,2.5,8.4,1.6,11
						C262.7,208,263.7,217.7,263.7,217.7z"/>
				</g>
			</g>
		</g>
		<g>
			<g>
				<g>
					<g>
						<g>
							<g>
								<g>
									<g>
										<g>
											<g>
												<path class="st8" d="M287.3,327c0,0,28.4,7.9,29.6,8.3c1.7,0.6,1.4,6.9-1.3,6.8c-1.3,0-21.9,0.8-24.4,0.6
													c-2.6-0.2-10.4-3.3-10.4-3.3L287.3,327z"/>
											</g>
										</g>
									</g>
								</g>
							</g>
						</g>
					</g>
				</g>
				<g>
					<g>
						<g>
							<g>
								<g>
									<g>
										<g>
											<g>
												<g>
													<path class="st9" d="M299.2,337.9c0.1,0,0.3-1.5,1.3-3c0.9-1.6,2.1-2.5,2-2.6c0-0.1-1.5,0.7-2.4,2.4
														C299,336.3,299,337.9,299.2,337.9z"/>
												</g>
											</g>
										</g>
									</g>
								</g>
							</g>
						</g>
					</g>
				</g>
				<g>
					<g>
						<g>
							<g>
								<g>
									<g>
										<g>
											<g>
												<g>
													<path class="st9" d="M296.2,336.5c0.1,0,0.4-1.3,1.2-2.8c0.7-1.5,1.6-2.5,1.5-2.6s-1.2,0.8-2,2.4
														C296.1,335.1,296.1,336.5,296.2,336.5z"/>
												</g>
											</g>
										</g>
									</g>
								</g>
							</g>
						</g>
					</g>
				</g>
				<g>
					<g>
						<g>
							<g>
								<g>
									<g>
										<g>
											<g>
												<g>
													<path class="st9" d="M293.4,335.8c0.1,0,0-1.4,0.7-3c0.6-1.6,1.6-2.6,1.5-2.7s-1.3,0.8-2,2.5S293.3,335.8,293.4,335.8z
														"/>
												</g>
											</g>
										</g>
									</g>
								</g>
							</g>
						</g>
					</g>
				</g>
				<g>
					<g>
						<g>
							<g>
								<g>
									<g>
										<g>
											<g>
												<g>
													<path class="st9" d="M293.9,332.1c0,0,0.3-0.8,0.3-2.1c0-0.7-0.1-1.4-0.3-2.3c-0.1-0.4-0.2-0.9-0.4-1.3
														c-0.1-0.2-0.2-0.5-0.5-0.7s-0.8-0.2-1,0c-0.3,0.2-0.3,0.5-0.4,0.8c0,0.3,0,0.5,0,0.8c0,0.5,0.1,1,0.2,1.4
														c0.2,0.9,0.5,1.6,0.9,2.2c0.7,1.2,1.2,1.7,1.3,1.7c0.1,0-0.4-0.7-1-1.9c-0.3-0.6-0.6-1.3-0.8-2.1
														c-0.1-0.4-0.1-0.8-0.1-1.3c0-0.4,0-1,0.3-1.2c0.1-0.1,0.3-0.1,0.4,0s0.2,0.3,0.3,0.5c0.2,0.4,0.3,0.8,0.4,1.3
														c0.2,0.8,0.3,1.6,0.4,2.2C294,331.3,293.8,332.1,293.9,332.1z"/>
												</g>
											</g>
										</g>
									</g>
								</g>
							</g>
						</g>
					</g>
				</g>
				<g>
					<g>
						<g>
							<g>
								<g>
									<g>
										<g>
											<g>
												<g>
													<path class="st9" d="M293.9,331.8c0,0-0.7-0.3-1.8-0.3c-0.6,0-1.3,0.1-2,0.2c-0.4,0.1-0.8,0.2-1.2,0.4
														c-0.4,0.2-0.8,0.7-0.6,1.3c0.1,0.5,0.6,0.9,1,1s0.9,0.1,1.3,0c0.8-0.2,1.4-0.6,1.9-0.9c0.9-0.7,1.3-1.3,1.3-1.3
														c0-0.1-0.6,0.4-1.5,1c-0.5,0.3-1.1,0.6-1.7,0.8c-0.3,0.1-0.7,0.1-1.1,0c-0.3-0.1-0.6-0.3-0.7-0.7
														c-0.1-0.3,0.1-0.6,0.4-0.8c0.3-0.2,0.7-0.3,1-0.4c0.7-0.2,1.3-0.3,1.9-0.3C293.2,331.8,293.9,331.9,293.9,331.8z"/>
												</g>
											</g>
										</g>
									</g>
								</g>
							</g>
						</g>
					</g>
				</g>
				<g>
					<g>
						<g>
							<g>
								<g>
									<g>
										<g>
											<g>
												<g>
													<path class="st9" d="M303.5,338.2c0.1,0,0-1.2,0.6-2.6c0.5-1.3,1.5-2.1,1.4-2.2c0-0.1-1.2,0.6-1.8,2
														C303,336.9,303.4,338.2,303.5,338.2z"/>
												</g>
											</g>
										</g>
									</g>
								</g>
							</g>
						</g>
					</g>
				</g>
				<g>
					<g>
						<g>
							<g>
								<g>
									<g>
										<g>
											<g>
												<g>
													<path class="st9" d="M283.7,339.5c0,0,0.4,0.2,1.1,0.5s1.8,0.7,3.2,1c2.7,0.7,6.6,1.1,10.9,1s8.1-0.2,10.9-0.3
														c1.3-0.1,2.4-0.1,3.3-0.2c0.8,0,1.2-0.1,1.2-0.1s-0.4,0-1.2-0.1c-0.9,0-2,0-3.3,0c-2.9,0.1-6.7,0.1-10.9,0.2
														c-4.2,0-8.1-0.3-10.8-0.9C285.3,340.1,283.7,339.4,283.7,339.5z"/>
												</g>
											</g>
										</g>
									</g>
								</g>
							</g>
						</g>
					</g>
				</g>
				<g>
					<g>
						<g>
							<g>
								<g>
									<g>
										<g>
											<g>
												<g>
													<path class="st9" d="M282.8,340.1c0,0.1,0.8-0.4,2.1-1c1.3-0.6,3.2-1.2,5.4-0.9c2.1,0.3,3.7,1.8,4.6,2.8
														c1,1,1.6,1.7,1.6,1.7s-0.4-0.8-1.4-1.9c-0.5-0.5-1.1-1.2-1.9-1.8c-0.8-0.6-1.8-1.1-2.9-1.3c-2.3-0.3-4.3,0.4-5.6,1.1
														C283.5,339.5,282.8,340.1,282.8,340.1z"/>
												</g>
											</g>
										</g>
									</g>
								</g>
							</g>
						</g>
					</g>
				</g>
				<g class="st12">
					<g>
						<g>
							<g>
								<g>
									<g>
										<g>
											<g>
												<path d="M287.3,327c0,0,28.4,7.9,29.6,8.3c1.7,0.6,1.4,6.9-1.3,6.8c-1.3,0-21.9,0.8-24.4,0.6
													c-2.6-0.2-10.4-3.3-10.4-3.3L287.3,327z"/>
											</g>
										</g>
									</g>
								</g>
							</g>
						</g>
					</g>
				</g>
			</g>
			<g>
				<g>
					<g>
						<g>
							<g>
								<g>
									<g>
										<path class="st9" d="M255.7,294.3l-6.1,12.6c0,0-32.8-10-41.1-9.5c-8.3,0.5-15.1,3.8-16.7,10.5c-1.6,6.7-1.8,16,7.8,22.4
											c9.7,6.4,57.6,10,57.6,10h19l31-40.9l-5-4.1L255.7,294.3z"/>
									</g>
								</g>
							</g>
						</g>
					</g>
					<g>
						<g>
							<g>
								<g>
									<g>
										<g>
											<path class="st6" d="M266,322c0,0-0.2,0-0.6,0s-1,0-1.8-0.1c-1.5-0.2-3.8-0.6-6.4-1.3c-2.7-0.8-5.7-2-9.1-3.5
												c-3.3-1.6-6.9-3.5-10.6-5.5c-3.7-2-7.3-3.8-10.7-5.1c-3.4-1.3-6.6-2.3-9.3-2.8s-5-0.6-6.5-0.6c-0.8,0-1.4,0.1-1.8,0.1
												c-0.4,0-0.6,0-0.6,0s0.2,0,0.6-0.1c0.4,0,1-0.1,1.8-0.1c1.5-0.1,3.8,0,6.6,0.4s5.9,1.3,9.4,2.7c3.4,1.3,7.1,3.1,10.8,5.1
												s7.2,3.9,10.5,5.5s6.4,2.8,9,3.6c2.6,0.8,4.8,1.3,6.4,1.4c0.8,0.1,1.3,0.2,1.8,0.2C265.8,322,266,322,266,322z"/>
										</g>
									</g>
								</g>
							</g>
						</g>
					</g>
					<g>
						<g>
							<g>
								<g>
									<g>
										<path class="st9" d="M288.5,337c6.1-2.4,39.6-13.1,51.5-26.8c3.3-3.8,3.9-7.8,3.2-11.4c-1.7-9.2-10.1-15.3-18.8-11.8
											c-1.3,0.5-4.1,1.6-5.3,2.2c-3.3,1.8-56,35.2-56,35.2s9.2,17.9,9,18.6L288.5,337z"/>
									</g>
								</g>
							</g>
						</g>
					</g>
					<g>
						<g>
							<g>
								<g>
									<g>
										<g>
											<path class="st6" d="M305,297.2c0,0,0,0-0.1,0.1s-0.3,0.2-0.4,0.3c-0.4,0.3-1,0.7-1.7,1.1c-1.5,1-3.7,2.4-6.4,4.1
												c-5.4,3.4-12.9,8.1-21.1,13.3c-4.1,2.5-7.9,5-11.4,7.2l0.1-0.2c2.4,5.9,4.5,10.9,6,14.5c0.7,1.8,1.3,3.1,1.7,4.2
												c0.2,0.5,0.3,0.8,0.4,1.1c0.1,0.3,0.1,0.4,0.1,0.4s-0.1-0.1-0.2-0.4s-0.3-0.6-0.5-1.1c-0.4-1-1-2.4-1.8-4.1
												c-1.5-3.6-3.6-8.5-6.1-14.4l-0.1-0.1l0.1-0.1c3.5-2.2,7.4-4.6,11.4-7.2c8.2-5.1,15.7-9.8,21.2-13.2c2.7-1.6,4.9-3,6.4-4
												c0.7-0.4,1.3-0.8,1.8-1.1c0.2-0.1,0.3-0.2,0.5-0.3C304.9,297.2,305,297.2,305,297.2z"/>
										</g>
									</g>
								</g>
							</g>
						</g>
					</g>
					<g>
						<g>
							<g>
								<g>
									<g>
										<g>
											<path class="st6" d="M258.6,313c0,0-0.6-0.1-1.6-0.6c-0.9-0.4-2.2-1.1-3.4-2.1c-1.3-0.9-2.3-1.9-3-2.7
												c-0.7-0.8-1.1-1.3-1-1.3c0.1-0.1,1.8,1.8,4.3,3.6C256.4,311.9,258.7,312.9,258.6,313z"/>
										</g>
									</g>
								</g>
							</g>
						</g>
					</g>
					<g>
						<g>
							<g>
								<g>
									<g>
										<g>
											<path class="st6" d="M276.9,298.2c0.1,0,0.1,0.8,0.1,2.1c0,1.3,0.1,3.1,0.2,5c0.2,2,0.4,3.7,0.7,5
												c0.2,1.3,0.3,2.1,0.3,2.1s-0.3-0.8-0.6-2c-0.3-1.3-0.6-3-0.8-5c-0.2-2-0.2-3.8-0.1-5.1
												C276.7,299,276.9,298.2,276.9,298.2z"/>
										</g>
									</g>
								</g>
							</g>
						</g>
					</g>
					<g>
						<g>
							<g>
								<g>
									<g>
										<g>
											<path class="st6" d="M280.8,297.7c0,0,0.2,0,0.4,0.1c0.3,0.1,0.6,0.3,0.9,0.7c0.3,0.4,0.5,1,0.3,1.7s-0.9,1.2-1.7,1.2
												c-0.8,0-1.5-0.4-1.8-1.1c-0.2-0.7,0-1.3,0.2-1.7c0.3-0.4,0.7-0.6,0.9-0.7c0.3-0.1,0.4,0,0.4,0c0,0.1-0.6,0.1-1.1,0.8
												c-0.2,0.4-0.3,0.9-0.1,1.4c0.2,0.5,0.8,0.8,1.4,0.8s1.2-0.4,1.3-0.9c0.2-0.5,0.1-1-0.1-1.4
												C281.4,297.9,280.8,297.8,280.8,297.7z"/>
										</g>
									</g>
								</g>
							</g>
						</g>
					</g>
					<g>
						<g>
							<g>
								<g>
									<g>
										<g>
											<path class="st6" d="M264.6,296.4c0,0,0.1,0.2,0.3,0.6c0.2,0.4,0.3,1.1,0.3,1.9s-0.2,1.8-0.6,2.7c-0.4,1-1.2,1.9-2.2,2.6
												s-2.2,1-3.3,1c-1.1,0-2-0.2-2.8-0.5c-0.7-0.3-1.3-0.7-1.6-1s-0.5-0.5-0.5-0.5c0-0.1,0.7,0.7,2.2,1.2
												c0.7,0.3,1.6,0.4,2.6,0.3s2.1-0.4,3-1c0.9-0.7,1.6-1.5,2.1-2.4c0.4-0.9,0.6-1.8,0.7-2.6
												C265,297.3,264.5,296.4,264.6,296.4z"/>
										</g>
									</g>
								</g>
							</g>
						</g>
					</g>
					<g>
						<g>
							<g>
								<g>
									<g>
										<g>
											<path class="st6" d="M295.9,302.7c0,0-0.5,0.1-1.3-0.2c-0.7-0.2-1.7-0.8-2.4-1.9c-0.7-1-0.8-2.2-0.8-2.9
												c0.1-0.8,0.3-1.2,0.3-1.2c0.1,0-0.1,0.5,0,1.2c0,0.7,0.2,1.8,0.8,2.7c0.6,0.9,1.5,1.5,2.2,1.8
												C295.4,302.5,295.9,302.6,295.9,302.7z"/>
										</g>
									</g>
								</g>
							</g>
						</g>
					</g>
				</g>
				<g>
					<g>
						<g>
							<g>
								<path class="st6" d="M312.3,327.7c0,0,0.1,0,0.2-0.1s0.3-0.2,0.6-0.3c0.5-0.3,1.3-0.6,2.3-1.1c2-1,4.9-2.4,8.5-4.3
									c3.5-1.9,7.7-4.3,11.7-7.8c2-1.7,3.9-3.7,5.6-6.1c1.6-2.4,2.3-5.4,2-8.4c-0.1-1.5-0.5-3-1.1-4.3c-0.3-0.7-0.7-1.3-1.1-1.9
									s-0.9-1.1-1.4-1.7c-1-1-2.1-1.9-3.1-2.8c-1.1-0.9-2.2-1.7-3.4-2c-1.3-0.4-2.6-0.4-3.8-0.4s-2.5,0.2-3.6,0.4
									c-2.3,0.5-4.3,1.3-6.1,2.3c-3.5,1.9-6.3,3.5-8.3,4.6c-1,0.5-1.7,1-2.3,1.3c-0.3,0.1-0.4,0.2-0.6,0.3
									c-0.1,0.1-0.2,0.1-0.2,0.1s0.1,0,0.2-0.1s0.3-0.2,0.6-0.3c0.5-0.3,1.3-0.7,2.2-1.3c1.9-1.1,4.7-2.7,8.3-4.7
									c1.8-1,3.8-1.9,6.1-2.4c1.2-0.2,2.4-0.4,3.6-0.4c1.3,0,2.6,0,3.9,0.4s2.5,1.2,3.5,2.1c1.1,0.9,2.2,1.8,3.2,2.9
									c0.5,0.5,1,1.1,1.4,1.7s0.8,1.3,1.1,1.9c0.6,1.4,1,2.9,1.1,4.4c0.2,3.1-0.4,6.2-2.1,8.6s-3.6,4.4-5.6,6.1
									c-4,3.5-8.2,5.9-11.7,7.7c-3.5,1.9-6.5,3.3-8.5,4.2c-1,0.5-1.8,0.8-2.4,1.1c-0.3,0.1-0.5,0.2-0.6,0.3
									C312.4,327.7,312.3,327.7,312.3,327.7z"/>
							</g>
						</g>
					</g>
				</g>
			</g>
			<g>
				<g>
					<g>
						<g>
							<g>
								<g>
									<g>
										<g>
											<g>
												<g>
													<path class="st8" d="M265.3,327.2c0,0-28.5,7.5-29.7,7.9c-1.7,0.6-1.5,6.9,1.2,6.8c1.3,0,21.8,1,24.4,0.9
														s9.6-2.8,9.6-2.8L265.3,327.2z"/>
												</g>
											</g>
										</g>
									</g>
								</g>
							</g>
						</g>
					</g>
					<g>
						<g>
							<g>
								<g>
									<g>
										<g>
											<g>
												<g>
													<g>
														<path class="st9" d="M253.3,337.9c-0.1,0-0.3-1.5-1.2-3.1s-2.1-2.5-2-2.6c0-0.1,1.4,0.7,2.4,2.4
															C253.5,336.3,253.5,337.9,253.3,337.9z"/>
													</g>
												</g>
											</g>
										</g>
									</g>
								</g>
							</g>
						</g>
					</g>
					<g>
						<g>
							<g>
								<g>
									<g>
										<g>
											<g>
												<g>
													<g>
														<path class="st9" d="M256.3,336.6c-0.1,0-0.4-1.3-1.2-2.8c-0.7-1.5-1.6-2.5-1.5-2.6s1.2,0.8,1.9,2.4
															C256.4,335.1,256.4,336.6,256.3,336.6z"/>
													</g>
												</g>
											</g>
										</g>
									</g>
								</g>
							</g>
						</g>
					</g>
					<g>
						<g>
							<g>
								<g>
									<g>
										<g>
											<g>
												<g>
													<g>
														<path class="st9" d="M259.1,335.9c-0.1,0,0-1.4-0.6-3s-1.6-2.6-1.5-2.7s1.3,0.8,2,2.5S259.2,335.9,259.1,335.9z"/>
													</g>
												</g>
											</g>
										</g>
									</g>
								</g>
							</g>
						</g>
					</g>
					<g>
						<g>
							<g>
								<g>
									<g>
										<g>
											<g>
												<g>
													<g>
														<path class="st9" d="M258.7,332.2c0,0-0.3-0.8-0.3-2.1c0-0.7,0.1-1.4,0.3-2.3c0.1-0.4,0.3-0.9,0.4-1.3
															c0.1-0.2,0.2-0.5,0.5-0.7s0.8-0.2,1,0.1c0.3,0.2,0.3,0.6,0.4,0.8c0,0.3,0,0.5,0,0.8c0,0.5-0.1,1-0.2,1.4
															c-0.2,0.9-0.6,1.6-0.9,2.2c-0.7,1.2-1.3,1.7-1.3,1.7c-0.1,0,0.4-0.7,1-1.9c0.3-0.6,0.6-1.3,0.8-2.1
															c0.1-0.4,0.1-0.8,0.2-1.3c0-0.4,0-1-0.2-1.2c-0.1-0.1-0.3-0.1-0.4,0s-0.2,0.3-0.3,0.5c-0.2,0.4-0.3,0.8-0.4,1.3
															c-0.2,0.8-0.3,1.6-0.4,2.2C258.6,331.4,258.7,332.2,258.7,332.2z"/>
													</g>
												</g>
											</g>
										</g>
									</g>
								</g>
							</g>
						</g>
					</g>
					<g>
						<g>
							<g>
								<g>
									<g>
										<g>
											<g>
												<g>
													<g>
														<path class="st9" d="M258.7,331.9c0,0,0.7-0.3,1.8-0.3c0.6,0,1.3,0.1,2,0.3c0.4,0.1,0.8,0.2,1.2,0.4
															c0.4,0.2,0.8,0.8,0.6,1.3c-0.1,0.5-0.6,0.9-1,1s-0.9,0.1-1.3,0c-0.8-0.2-1.4-0.6-1.8-0.9c-0.9-0.7-1.3-1.3-1.3-1.3
															s0.6,0.4,1.5,1c0.5,0.3,1,0.6,1.7,0.8c0.3,0.1,0.7,0.1,1.1,0c0.3-0.1,0.6-0.3,0.7-0.7c0.1-0.3-0.1-0.6-0.4-0.8
															c-0.3-0.2-0.7-0.3-1-0.4c-0.7-0.2-1.3-0.3-1.9-0.3C259.4,331.9,258.7,332,258.7,331.9z"/>
													</g>
												</g>
											</g>
										</g>
									</g>
								</g>
							</g>
						</g>
					</g>
					<g>
						<g>
							<g>
								<g>
									<g>
										<g>
											<g>
												<g>
													<g>
														<path class="st9" d="M249,338.2c-0.1,0,0-1.2-0.5-2.6c-0.5-1.3-1.4-2.1-1.3-2.2c0-0.1,1.2,0.6,1.8,2.1
															C249.5,336.9,249.1,338.2,249,338.2z"/>
													</g>
												</g>
											</g>
										</g>
									</g>
								</g>
							</g>
						</g>
					</g>
					<g>
						<g>
							<g>
								<g>
									<g>
										<g>
											<g>
												<g>
													<g>
														<path class="st9" d="M268.8,339.7c0,0-0.4,0.2-1.1,0.5s-1.8,0.6-3.2,0.9c-2.7,0.7-6.6,1-10.9,0.9
															c-4.3-0.1-8.1-0.3-10.9-0.5c-1.3-0.1-2.4-0.2-3.3-0.2c-0.8-0.1-1.2-0.1-1.2-0.1s0.4,0,1.2,0c0.9,0,2,0,3.3,0.1
															c2.9,0.1,6.7,0.2,10.9,0.3c4.2,0.1,8.1-0.2,10.8-0.8C267.2,340.3,268.8,339.6,268.8,339.7z"/>
													</g>
												</g>
											</g>
										</g>
									</g>
								</g>
							</g>
						</g>
					</g>
					<g>
						<g>
							<g>
								<g>
									<g>
										<g>
											<g>
												<g>
													<g>
														<path class="st9" d="M269.6,340.4c0,0.1-0.8-0.4-2.1-1c-1.3-0.6-3.2-1.3-5.4-1c-2.1,0.3-3.7,1.7-4.7,2.7
															s-1.6,1.7-1.7,1.7c0,0,0.4-0.8,1.4-1.9c0.5-0.5,1.1-1.2,1.9-1.7c0.8-0.6,1.8-1.1,2.9-1.2c2.3-0.3,4.3,0.5,5.6,1.1
															S269.7,340.3,269.6,340.4z"/>
													</g>
												</g>
											</g>
										</g>
									</g>
								</g>
							</g>
						</g>
					</g>
				</g>
				<g>
					<g>
						<g>
							<g>
								<g>
									<g>
										<path class="st9" d="M241.1,341.2c0,0,0.2-0.4,0.4-1.1s0.4-1.6,0.2-2.7c-0.2-1-0.7-1.9-1.1-2.4c-0.4-0.5-0.8-0.8-0.8-0.9
											c0,0,0.4,0.2,1,0.7c0.5,0.5,1.1,1.4,1.3,2.6s0,2.2-0.4,2.9C241.5,340.9,241.1,341.3,241.1,341.2z"/>
									</g>
								</g>
							</g>
						</g>
					</g>
				</g>
			</g>
		</g>
		<g>
			<g>
				<g>
					<g>
						<g>
							<path class="st8" d="M264,216.3l-14.7,4.1l4.8,45.6c0,0-2.8,16.3-2.8,20.6c0,5.6,4.3,7.7,4.3,7.7l46.9,1.4l2.4-2.1
								c1.2-1.4,1.8-3.3,1.6-5.2l-8.7-69.7l-16.3-3.5L264,216.3z"/>
						</g>
					</g>
				</g>
				<g>
					<g>
						<g>
							<g>
								<path class="st9" d="M254.2,266.1c0,0,0-0.1-0.1-0.3c0-0.3-0.1-0.6-0.2-1c-0.2-0.9-0.4-2.2-0.7-3.7
									c-0.5-3.1-1.3-7.4-2.1-12.2c-0.8-4.7-1.5-9-2-12.2c-0.2-1.5-0.4-2.8-0.6-3.7c-0.1-0.4-0.1-0.8-0.1-1s0-0.3,0-0.3
									s0,0.1,0.1,0.3c0,0.3,0.1,0.6,0.2,1c0.2,0.9,0.4,2.2,0.7,3.7c0.5,3.1,1.3,7.4,2.1,12.2c0.8,4.7,1.5,9,2,12.2
									c0.2,1.5,0.4,2.8,0.6,3.7c0.1,0.4,0.1,0.8,0.1,1C254.2,265.9,254.2,266.1,254.2,266.1z"/>
							</g>
						</g>
					</g>
				</g>
				<g>
					<g>
						<g>
							<g>
								<path class="st9" d="M283.6,216.1c0,0-0.2,0.2-0.7,0.5c-0.2,0.2-0.5,0.3-0.9,0.5c-0.3,0.2-0.7,0.4-1.2,0.6
									c-0.9,0.4-2,0.8-3.3,1c-1.3,0.3-2.7,0.4-4.2,0.4s-2.9,0-4.3-0.1c-1.3-0.1-2.5-0.2-3.4-0.4c-1-0.2-1.7-0.5-2.2-0.8
									c-0.3-0.1-0.4-0.2-0.6-0.3c-0.1-0.1-0.2-0.1-0.2-0.1s0.3,0.1,0.8,0.3s1.3,0.5,2.2,0.7c1,0.2,2.1,0.3,3.4,0.4
									c1.3,0.1,2.7,0.1,4.2,0.1s2.9-0.2,4.2-0.4c1.3-0.2,2.4-0.6,3.3-1C282.6,216.8,283.5,216,283.6,216.1z"/>
							</g>
						</g>
					</g>
				</g>
				<g>
					<g>
						<g>
							<g>
								<path class="st9" d="M298.7,286.5c0,0-0.1,0-0.3,0.1c-0.2,0-0.5,0.1-0.9,0.1c-0.4,0.1-0.9,0.1-1.5,0.2
									c-0.6,0-1.2,0.1-1.9,0.2c-1.4,0.1-3.2,0.1-5.1,0.1s-4-0.2-6.2-0.4c-2.2-0.3-4.3-0.6-6.1-1.1c-1.9-0.4-3.5-0.9-4.9-1.3
									c-0.7-0.2-1.3-0.4-1.9-0.6c-0.5-0.2-1-0.4-1.4-0.5c-0.3-0.1-0.6-0.3-0.9-0.3c-0.2-0.1-0.3-0.1-0.3-0.1s0.1,0,0.3,0.1
									c0.2,0.1,0.5,0.2,0.9,0.3c0.4,0.1,0.8,0.3,1.4,0.5c0.5,0.2,1.2,0.4,1.9,0.6c1.4,0.4,3,0.8,4.9,1.3c1.9,0.4,3.9,0.8,6.1,1
									c2.2,0.3,4.3,0.4,6.2,0.4c1.9,0,3.6,0,5.1-0.1c0.7,0,1.4-0.1,1.9-0.1c0.6,0,1.1-0.1,1.5-0.1s0.7-0.1,0.9-0.1
									C298.6,286.5,298.7,286.5,298.7,286.5z"/>
							</g>
						</g>
					</g>
				</g>
				<g>
					<g>
						<g>
							<g>
								<path class="st9" d="M304.2,247.4c0,0-0.1-0.2-0.2-0.6c-0.1-0.4-0.3-1-0.5-1.8c-0.4-1.5-0.9-3.6-1.4-5.9
									c-0.5-2.3-0.9-4.4-1.2-5.9c-0.1-0.8-0.2-1.4-0.3-1.8c-0.1-0.4-0.1-0.7-0.1-0.7s0.1,0.2,0.2,0.7s0.2,1.1,0.4,1.8
									c0.3,1.5,0.8,3.6,1.3,5.9c0.5,2.3,1,4.4,1.3,5.9c0.2,0.7,0.3,1.3,0.4,1.8C304.1,247.1,304.2,247.4,304.2,247.4z"/>
							</g>
						</g>
					</g>
				</g>
			</g>
			<g>
				<g>
					<g class="st12">
						<g>
							<g>
								<g>
									<path d="M269.1,218.4c0.6,2,0,5,0.3,6.8c1.2,7.3,1.7,14.7,1.2,22.1c0,0.4-0.1,0.8,0.1,1.2c0.1,0.3,0.4,0.6,0.6,0.9
										c1.5,2,1.9,4.6,1.6,7s-1.2,4.8-2.1,7.1c0-2,0-4.9,0.2-6.9c0-0.4,0.2-0.1,0.2-0.5c0.1-2.4-0.3-4.5-2-6.2
										c-0.3-0.3-0.7-0.6-0.9-1.1c-0.2-0.4-0.3-0.8-0.3-1.3c-1-8.3-1.7-16.6-2.1-24.9c0-0.5,0-1,0.3-1.3c0.2-0.3,0.6-0.4,0.9-0.6
										c0.6-0.4,1-1.2,1.7-1.5"/>
								</g>
							</g>
						</g>
					</g>
					<g>
						<g>
							<g>
								<path class="st8" d="M249.3,220.4c0,0-13.4,3.2-10.1,23.2c1.1,7.1,3.3,17.5,8,28.5c2.2,5.2,7.2,8.7,12.7,8
									c2.4-0.3,4.8,0.1,6.5-0.9c2.5-1.5,3.5-6.5,4-11.9c0.3-3.7,0.2-7.5,0.7-10.7c0.8-5.1-1.6-7.6-4.6-8.2l-11.8-2.4l-0.7,6.3
									L249.3,220.4z"/>
							</g>
						</g>
					</g>
					<g>
						<g>
							<g>
								<g>
									<path class="st9" d="M258.8,260.4c0,0,0.2,0.2,0.7,0.6c0.4,0.3,1.2,0.7,2.2,0.9c1,0.2,2.2,0,3.5-0.5s2.7-1.1,3.8-2.2
										c1.1-1.1,1.8-2.5,2-3.8s0-2.6-0.4-3.5c-0.8-1.9-2-2.7-1.9-2.7c0,0,0.3,0.1,0.7,0.5c0.4,0.4,1,1.1,1.4,2
										c0.4,1,0.8,2.3,0.5,3.7c-0.2,1.4-0.9,2.9-2.1,4.1s-2.7,1.8-4,2.3s-2.6,0.6-3.7,0.4s-1.8-0.7-2.3-1.1
										C258.9,260.7,258.8,260.4,258.8,260.4z"/>
								</g>
							</g>
						</g>
					</g>
					<g>
						<g>
							<g>
								<g>
									<path class="st9" d="M246.5,270.4c0,0,0.3,0.6,0.8,1.7s1.5,2.6,3,4.1s3.8,2.9,6.6,3.6s6.1,0.6,9.1-0.6
										c1.5-0.6,2.1-2.3,2.7-3.7c0.5-1.4,0.9-2.9,1.1-4.3c0.5-2.8,0.6-5.5,0.8-7.6c0.2-2.1,0.3-3.9,0.4-5.2c0-0.6,0.1-1,0.1-1.4
										c0-0.3,0.1-0.5,0.1-0.5s0,0.2,0,0.5c0,0.4,0,0.8,0,1.4c-0.1,1.3-0.1,3-0.2,5.2s-0.2,4.8-0.7,7.7c-0.2,1.4-0.6,2.9-1.1,4.4
										c-0.3,0.8-0.6,1.5-1,2.2s-1.1,1.4-1.9,1.7c-3.2,1.3-6.6,1.3-9.4,0.6c-2.9-0.7-5.1-2.3-6.7-3.8c-1.6-1.6-2.5-3.1-3-4.3
										c-0.3-0.6-0.4-1-0.5-1.3C246.5,270.6,246.5,270.4,246.5,270.4z"/>
								</g>
							</g>
						</g>
					</g>
					<g>
						<g>
							<g>
								<g>
									<path class="st9" d="M250.9,261.7c-0.1,0,0-0.9,0-2.4s0.2-3.5,0.4-5.8c0.1-1.1,0.2-2.2,0.3-3.2s0.4-1.9,0.9-2.5
										s1.1-0.9,1.5-1s0.7,0,0.7,0s-0.2,0-0.6,0.2c-0.4,0.1-0.9,0.4-1.3,1c-0.9,1.2-0.8,3.3-1,5.6s-0.4,4.3-0.5,5.8
										C251.1,260.8,251,261.8,250.9,261.7z"/>
								</g>
							</g>
						</g>
					</g>
					<g>
						<g>
							<path class="st9" d="M255.1,240.4c-0.1-0.6-0.3-1.5-0.5-2.7c-0.5-2.3-1.2-5.4-2-8.8c-0.4-1.7-0.8-3.4-1.3-4.8
								c-0.5-1.5-1.2-2.7-2-3.6l-0.3,0.2c0.7,0.9,1.3,2.1,1.8,3.5s0.8,3.1,1.2,4.8c0.8,3.4,1.5,6.6,2.1,8.8c0.3,1.1,0.5,2,0.7,2.7
								c0.2,0.6,0.3,1,0.3,1C255.3,241.4,255.2,241,255.1,240.4z"/>
						</g>
					</g>
					<g class="st12">
						<g>
							<g>
								<g>
									<path d="M255.2,244.7c-1.1,0-2.1,0.4-3,1c-1.9,1.3-3.4,3.4-4,5.6c-0.6,2.3-0.5,4.7,0.3,7c0.2,0.7,0.7,1.5,1.4,1.4
										c0.9,0,1.2-1.1,1.3-2c0.3-2.4,0.7-4.7,1-7.1c0.1-0.8,0.2-1.6,0.6-2.3c0.4-0.7,1.1-1.3,1.9-1.3c0.1-0.8,0.1-1.7,0.2-2.5"/>
								</g>
							</g>
						</g>
					</g>
				</g>
			</g>
			<g>
				<g>
					<g>
						<path class="st8" d="M335,255.5c0,0,2.5-3.8,2.8-9.3c0.3-5.6-1.3-10.2-1.3-10.2l-14.2-4.4l-0.1,4.7L335,255.5z"/>
					</g>
				</g>
				<g>
					<g>
						<path class="st8" d="M322.1,236.4l-24.3-17.6v1.2l2.6,27.3c0,0,20.1,9,25.4,10.3s9.1-2.1,9.1-2.1L322.1,236.4z"/>
					</g>
				</g>
				<g>
					<g>
						<g>
							<path class="st9" d="M329.3,249.6c0,0-0.2-0.1-0.5-0.3s-0.8-0.6-1.3-1c-1.1-1-2.3-2.6-3.2-4.5c-0.9-2-1.5-3.9-1.9-5.3
								c-0.2-0.7-0.3-1.3-0.4-1.6c-0.1-0.4-0.1-0.6-0.1-0.6s0.3,0.8,0.7,2.2c0.4,1.3,1,3.2,1.9,5.2c0.9,1.9,2.1,3.5,3.1,4.5
								C328.6,249.1,329.4,249.6,329.3,249.6z"/>
						</g>
					</g>
				</g>
				<g>
					<g>
						<g>
							<path class="st9" d="M336.4,239.5c0,0-0.2,0-0.6,0s-1-0.1-1.7-0.2c-1.4-0.2-3.4-0.7-5.4-1.7c-2-0.9-3.7-2.1-4.7-3
								c-0.5-0.5-1-0.9-1.3-1.2s-0.4-0.5-0.4-0.5s0.7,0.6,1.8,1.5c1.1,0.9,2.8,2,4.7,2.9c2,0.9,3.9,1.4,5.3,1.7
								C335.5,239.3,336.4,239.4,336.4,239.5z"/>
						</g>
					</g>
				</g>
				<g>
					<g>
						<g>
							<path class="st9" d="M323.2,247.4c0,0-0.4-0.5-0.8-1.5s-0.7-2.4-0.8-4s0-3,0-4.1c0.1-1,0.2-1.7,0.2-1.7s0,0.6,0,1.7
								c0,1,0,2.5,0.1,4c0.1,1.6,0.4,2.9,0.7,3.9C323,246.7,323.2,247.3,323.2,247.4z"/>
						</g>
					</g>
				</g>
			</g>
			<g>
				<g>
					<g>
						<path class="st9" d="M297.5,229.3c0,0,0.1,0.3,0.3,0.8c0.1,0.5,0.3,1.2,0.6,2.1c0.4,1.7,1,4.2,1.6,6.9s1,5.1,1.3,6.9
							c0.1,0.9,0.3,1.6,0.3,2.1c0.1,0.5,0.1,0.8,0.1,0.8s-0.1-0.3-0.2-0.8c-0.1-0.6-0.3-1.3-0.4-2.1c-0.4-1.8-0.9-4.2-1.4-6.9
							c-0.6-2.7-1.1-5-1.5-6.9c-0.2-0.8-0.3-1.5-0.4-2.1C297.5,229.6,297.4,229.3,297.5,229.3z"/>
					</g>
				</g>
			</g>
		</g>
		<g>
			<g>
				<g>
					<g>
						<path class="st10" d="M254.5,248.6l3-32.9l9.8,3.9l1.3,33.5c0,0-3.2,4.8-8.5,2.8C254.8,253.9,254.5,248.6,254.5,248.6z"/>
					</g>
				</g>
			</g>
			<g>
				<g>
					<g>
						<polygon class="st9" points="256.4,186.8 274.9,203.1 271.5,215.2 270.2,215.6 254.1,199.1 255.1,187.2 						"/>
					</g>
				</g>
			</g>
			<g>
				<g>
					<g>
						<polygon class="st6" points="255.1,187.2 273.5,203.5 270.2,215.6 252.7,199.5 						"/>
					</g>
				</g>
			</g>
			<g>
				<g>
					<g>
						<path class="st10" d="M267.8,220.6c0,0,1.9-2,1.9-4.5s-0.7-8.5-0.7-8.5s3.2-6.7,3.1-7.6c-0.1-0.9-0.2-0.9-1.4-0.5
							c-1.2,0.4-4.7,6.5-4.7,6.5l-1.2-4.5c0,0,3-4.8,3.2-5.5s0.6-1.2-0.1-1.3s-6.3,5.3-6.3,5.3l0.4,5c0,0-0.1,0.4-0.9-0.3
							s-0.6-6.7-0.6-6.7s1.9-3.5,1.9-4s0.3-1.1,0-1.9c-0.4-0.9-1.5,0.1-1.5,0.1l-3.7,4.9l-1.3-4.8c0,0,0-1-1.3-1l0.5,15.6l3.4,12
							L267.8,220.6z"/>
					</g>
				</g>
			</g>
			<g>
				<g>
					<g>
						<g>
							<path class="st11" d="M268.6,253.1c0,0,0-0.2,0-0.6c0-0.4,0-1-0.1-1.7c-0.1-1.5-0.2-3.7-0.3-6.5c-0.2-5.7-0.5-13.8-0.9-23.6
								v-0.1l0.1-0.1c0.8-0.6,1.4-1.5,1.8-2.5s0.4-2.1,0.4-3.2c-0.1-2.3-0.4-4.6-0.7-7.1v-0.1v-0.1c0.6-1.3,1.2-2.6,1.8-4
								c0.3-0.7,0.6-1.3,0.8-2.1c0.1-0.3,0.3-0.7,0.4-1.1l0.1-0.3c0-0.1,0-0.1,0-0.2c0-0.2,0-0.4-0.1-0.5c0-0.1-0.5,0-0.8,0.1
								c-0.2,0.1-0.3,0.1-0.4,0.2c-0.1,0.1-0.3,0.2-0.4,0.4c-0.5,0.6-1,1.2-1.4,1.8c-0.9,1.3-1.7,2.7-2.5,4l-0.3,0.5l-0.1-0.6
								c-0.4-1.4-0.8-3-1.2-4.5v-0.1V201c0.5-0.8,1-1.6,1.5-2.5c0.6-1,1.2-2,1.7-2.9c0.1-0.3,0.2-0.5,0.3-0.8c0-0.1,0-0.2,0-0.2
								s-0.1-0.1-0.2,0c0,0-0.2,0.1-0.3,0.1c-0.1,0.1-0.2,0.1-0.3,0.2c-0.2,0.2-0.4,0.3-0.7,0.5c-1.7,1.4-3.3,2.9-4.9,4.4l0.1-0.2
								c0.1,1.7,0.3,3.4,0.4,5l0,0l0,0c-0.1,0.2-0.3,0.3-0.4,0.3s-0.2-0.1-0.3-0.1c-0.2-0.1-0.3-0.2-0.4-0.3c-0.3-0.3-0.4-0.7-0.5-1
								c-0.1-0.7-0.2-1.3-0.2-2c-0.1-1.3-0.1-2.6,0-3.9l0,0l0,0c0.7-1.3,1.3-2.5,1.8-3.7c0-0.1,0-0.2,0-0.2s0-0.2,0-0.3
								c0-0.2,0.1-0.3,0.1-0.5c0.1-0.3,0.1-0.6,0-0.9c-0.1-0.3-0.2-0.5-0.4-0.4c-0.3,0-0.5,0.2-0.8,0.4l0,0
								c-1.3,1.7-2.5,3.3-3.7,4.8l-0.2,0.3l-0.1-0.4c-0.4-1.7-0.9-3.3-1.3-4.8v-0.1l0,0c0-0.3-0.1-0.5-0.3-0.7
								c-0.2-0.1-0.5-0.2-0.8-0.2l0.2-0.2c0.2,6.3,0.3,11.6,0.4,15.6l0,0c0.7,2.9,1.3,5.1,1.7,6.6c0.2,0.7,0.3,1.3,0.4,1.7
								s0.1,0.6,0.1,0.6s-0.1-0.2-0.2-0.6c-0.1-0.4-0.3-1-0.5-1.7c-0.4-1.5-1-3.7-1.8-6.6l0,0l0,0c-0.1-4-0.3-9.2-0.6-15.6v0.3h0.2
								c0.3,0,0.7,0,1,0.3c0.3,0.2,0.5,0.6,0.5,1v-0.1c0.4,1.5,0.9,3.1,1.3,4.8l-0.3-0.1c1.2-1.5,2.4-3.2,3.7-4.9l0,0l0,0
								c0.3-0.2,0.6-0.4,1-0.5c0.2,0,0.5,0,0.6,0.2c0.2,0.2,0.2,0.4,0.3,0.5c0.1,0.3,0.1,0.8,0,1.1c0,0.2-0.1,0.3-0.1,0.5
								c0,0.1,0,0.1,0,0.2c0,0.1,0,0.2-0.1,0.3c-0.5,1.3-1.2,2.5-1.8,3.8V198c0,1.3,0,2.5,0,3.8c0,0.6,0.1,1.3,0.2,1.9
								c0.1,0.3,0.1,0.6,0.3,0.8c0.1,0.1,0.2,0.2,0.4,0.3c0.1,0,0.1,0,0.1,0l0,0l0,0l0,0l0,0l0,0l0,0l0,0c0.1,0-0.1,0-0.1,0l0,0v0.1
								c-0.1-1.6-0.3-3.3-0.4-5v-0.1l0.1-0.1c1.6-1.5,3.2-3,4.9-4.4c0.2-0.2,0.4-0.3,0.7-0.5c0.1-0.1,0.2-0.2,0.4-0.2
								c0.1-0.1,0.2-0.2,0.5-0.2c0.2,0,0.3,0,0.6,0.2c0.2,0.2,0.2,0.5,0.1,0.6c-0.1,0.3-0.2,0.5-0.3,0.8c-0.5,1.1-1.1,2-1.7,3
								c-0.5,0.8-1,1.7-1.5,2.5v-0.2c0.4,1.6,0.8,3.1,1.2,4.5l-0.4-0.1c0.8-1.4,1.7-2.8,2.6-4.1c0.4-0.7,0.9-1.3,1.4-1.9
								c0.1-0.1,0.3-0.3,0.4-0.4c0.1-0.1,0.4-0.3,0.6-0.3c0.2-0.1,0.4-0.1,0.6-0.2c0.1,0,0.2,0,0.4,0c0.1,0,0.3,0.1,0.4,0.3
								c0.1,0.3,0.1,0.4,0.1,0.6c0,0.1,0,0.2,0,0.3l-0.1,0.3c-0.1,0.4-0.2,0.7-0.4,1.1c-0.3,0.7-0.6,1.4-0.9,2.1
								c-0.6,1.3-1.2,2.7-1.8,4v-0.1c0.3,2.4,0.6,4.8,0.7,7.1c0.1,1.1,0,2.4-0.4,3.4c-0.4,1.1-1.1,2-1.9,2.7l0.1-0.2
								c0.3,9.8,0.6,17.9,0.8,23.6c0.1,2.8,0.1,5,0.2,6.5c0,0.7,0,1.3,0,1.7C268.6,252.9,268.6,253.1,268.6,253.1z"/>
						</g>
					</g>
				</g>
			</g>
			<g>
				<g>
					<g>
						<g>
							<path class="st11" d="M257.9,205.5c-0.1,0-0.4-1.9-0.6-4.2c-0.2-2.4-0.2-4.3-0.1-4.3s0.4,1.9,0.6,4.2
								C258,203.6,258,205.5,257.9,205.5z"/>
						</g>
					</g>
				</g>
			</g>
		</g>
	</g>
	<g>
		<g>
			<g>
				<g>
					<path class="st4" d="M233,211l-10.5-21.3c5.8-12.7,8.4-27.1,6.6-42c-5.2-42.8-44-73.3-86.8-68.2c-42.8,5.2-73.3,44.1-68.2,86.9
						c5.2,42.8,44,73.3,86.8,68.2c17.9-2.2,33.6-10.2,45.5-22l0,0L233,211z"/>
				</g>
			</g>
			<g>
				<g>
					<g>
						<path class="st13" d="M233,211c-0.5,0-9.3,0.6-26.7,1.8h-0.1l0.1-0.1l0,0l0.1,0.1c-1.8,1.8-3.8,3.7-6.1,5.5
							c-1.1,0.9-2.4,1.8-3.6,2.7c-1.3,0.9-2.6,1.8-4,2.6c-5.5,3.5-12.1,6.5-19.5,8.7c-7.5,2.2-15.9,3.3-24.8,3
							c-8.9-0.3-18.3-2.3-27.5-6.2c-9.1-3.9-18-9.7-25.5-17.5c-7.6-7.7-13.7-17.4-17.6-28.3c-3.9-10.9-5.4-23-4-35.1
							c0.1-1.5,0.4-3,0.6-4.5c0.3-1.5,0.6-3,0.9-4.5c0.8-3,1.6-6,2.7-8.9c1-2.9,2.4-5.8,3.7-8.6c1.5-2.8,3-5.5,4.8-8.2
							s3.8-5.2,5.9-7.7L94,104l0.8-0.9l0.8-0.8l1.7-1.7l1.8-1.6c4.7-4.3,9.9-7.9,15.4-10.8c1.3-0.8,2.8-1.4,4.2-2.1
							c1.4-0.7,2.9-1.2,4.2-1.8c1.4-0.5,2.9-1.1,4.3-1.5c1.5-0.4,2.9-0.9,4.4-1.3c5.9-1.5,11.9-2.3,17.8-2.5
							c11.8-0.3,23.3,2.1,33.3,6.5c10.1,4.4,18.8,10.8,25.7,18.2c6.9,7.3,12,15.7,15.4,24c1.7,4.2,3,8.4,3.9,12.5
							c0.2,1,0.4,2.1,0.6,3.1c0.2,1,0.3,2,0.5,3c0.1,0.5,0.1,1,0.2,1.5c0,0.5,0.1,1,0.2,1.5c0.1,1,0.2,2,0.2,2.9
							c0.5,7.8-0.2,15-1.6,21.3c-0.7,3.2-1.5,6.1-2.4,8.8s-2,5.2-3,7.5v-0.1C229.2,203.6,232.7,210.6,233,211
							c-0.2-0.5-3.7-7.5-10.6-21.3l0,0l0,0c1-2.3,2-4.8,3-7.5s1.7-5.7,2.4-8.8c1.3-6.3,2-13.5,1.5-21.3c-0.1-1-0.1-1.9-0.3-2.9
							c0-0.5-0.1-1-0.2-1.5c-0.1-0.5-0.1-1-0.2-1.5c-0.2-1-0.3-2-0.5-3s-0.4-2-0.6-3.1c-0.9-4.1-2.2-8.3-3.9-12.4
							c-3.4-8.3-8.5-16.6-15.4-23.9s-15.5-13.7-25.6-18.1c-10-4.4-21.4-6.8-33.2-6.5c-5.9,0.2-11.8,1-17.7,2.5
							c-1.5,0.3-2.9,0.8-4.4,1.3c-1.4,0.4-2.9,1-4.3,1.5c-1.4,0.6-2.9,1.2-4.2,1.8c-1.4,0.7-2.8,1.3-4.2,2.1
							c-5.5,2.9-10.7,6.5-15.4,10.8l-1.8,1.6l-1.7,1.7l-0.8,0.8l-0.8,0.9l-1.6,1.8c-2.1,2.4-4.1,5-5.8,7.7c-1.8,2.6-3.3,5.4-4.8,8.1
							c-1.4,2.8-2.7,5.6-3.7,8.6c-1.1,2.9-1.9,5.9-2.7,8.8c-0.3,1.5-0.7,3-0.9,4.5c-0.2,1.5-0.5,3-0.6,4.5c-1.4,12.1,0.1,24.1,4,35
							s10,20.5,17.5,28.2s16.3,13.6,25.4,17.4c9.1,3.9,18.5,5.8,27.4,6.2c8.9,0.3,17.3-0.8,24.7-3s14-5.2,19.5-8.7
							c1.4-0.8,2.7-1.7,4-2.6c1.2-0.9,2.5-1.8,3.6-2.7c2.3-1.8,4.3-3.7,6.1-5.4l0.4-0.4l-0.3,0.5l0,0l-0.1-0.1
							C223.6,211.6,232.4,211.1,233,211z"/>
					</g>
				</g>
			</g>
		</g>
	</g>
	<g>
		<g>
			<path class="st6" d="M106.3,220.8l91.6-0.2c0,0-21.9,16.1-48.2,14.2C126.9,233.1,106.3,220.8,106.3,220.8z"/>
		</g>
	</g>
	<g>
		<g>
			<g>
				<g>
					<path class="st4" d="M146.6,170.3l4.6,16.8l16.8-22.6l-4,59.4h-24l-7,0.3c0,0,1-9.4,1.4-14.6c0.1-1,0.4-6.9,2.1-12.4
						C140.2,185.4,146.6,170.3,146.6,170.3z"/>
				</g>
			</g>
			<g>
				<g>
					<g>
						<path class="st9" d="M152,196.6c0.1,0.1-2.7,2.3-6,4.9c-3.4,2.6-6.2,4.7-6.2,4.6c-0.1-0.1,2.6-2.3,6-4.9
							C149.1,198.6,151.9,196.5,152,196.6z"/>
					</g>
				</g>
			</g>
		</g>
		<g>
			<g>
				<g>
					<polygon class="st8" points="193.7,162.2 180.6,155.9 175.5,149.8 168.2,157.3 149.1,223.7 182,223.7 186.2,212.3 193.7,168.3 
											"/>
				</g>
			</g>
			<g>
				<g>
					<path class="st8" d="M135,224.7l-0.9-14.1l39.7-6.7c0,0,6.8-32.8,11-38.2c3.9-5,8.9-3.2,8.9-3.2s4.5,3.1,3.4,15
						c-0.6,6.2-2.9,27.8-3.7,35.6c-0.2,1.9-0.8,3.7-1.8,5.3l0,0c-2.3,3.7-6.3,5.9-10.6,5.9L135,224.7z"/>
				</g>
			</g>
			<g>
				<g>
					<g>
						<path class="st9" d="M180.3,212c-0.1,0-0.1-0.6-0.4-1.6c-0.3-1-0.8-2.3-1.8-3.4c-1-1.2-2.2-1.9-3.1-2.4
							c-0.9-0.4-1.5-0.6-1.5-0.7c0,0,0.7,0,1.6,0.4c0.9,0.4,2.2,1.2,3.2,2.4s1.6,2.6,1.8,3.6C180.4,211.4,180.4,212,180.3,212z"/>
					</g>
				</g>
			</g>
			<g class="st14">
				<g>
					<g>
						<path d="M179.6,156.8c-0.4,4.1-1.2,8.2-2.4,12.2c-1-0.3-2-0.6-3-0.9c1.2,1.8,1.4,4.1,0.9,6.2c-0.5,2.1-1.5,4-2.6,5.9
							c-4.9,8.9-9.9,17.8-14.8,26.6l14.9-33.9l-0.4-6.3l2.9-0.6L179.6,156.8z"/>
					</g>
				</g>
			</g>
			<g class="st14">
				<g>
					<g>
						<path d="M173.7,203.5c1.8-0.1,3.6,0.4,5.1,1.5s2.6,2.6,3,4.4c0.1,0.4,0.2,0.9,0,1.3c-0.2,0.4-0.6,0.7-1,0.5
							c-0.3-0.1-0.4-0.5-0.6-0.8c-1.3-2.9-3.9-5.4-6.9-6.4"/>
					</g>
				</g>
			</g>
			<g>
				<g>
					<g>
						<path class="st9" d="M157.8,206.6c0,0,0.1-0.2,0.2-0.5c0.2-0.4,0.4-0.9,0.6-1.5c0.6-1.3,1.4-3.3,2.4-5.6
							c2.1-4.8,4.9-11.3,8.1-18.5c1.2-2.6,2.3-5.1,3.3-7.5v0.1c-0.1-2.2-0.3-4.3-0.4-6.3v-0.1h0.1c1-0.2,2-0.4,2.9-0.6l0-0.1
							c1.5-3,2.7-5.5,3.6-7.2c0.4-0.8,0.8-1.5,1-2c0.1-0.2,0.2-0.4,0.3-0.5s0.1-0.2,0.1-0.2s0,0.1-0.1,0.2c-0.1,0.1-0.1,0.3-0.2,0.5
							c-0.2,0.5-0.5,1.2-0.9,2c-0.8,1.8-2,4.3-3.5,7.3v0.1h-0.1c-0.9,0.2-1.9,0.4-2.9,0.6l0.1-0.2c0.1,1.9,0.3,4,0.4,6.3l0,0l0,0
							c-1,2.4-2.2,4.9-3.3,7.5c-3.2,7.2-6.1,13.7-8.2,18.4c-1.1,2.3-1.9,4.2-2.5,5.6c-0.3,0.6-0.5,1.1-0.7,1.5
							C157.9,206.4,157.8,206.6,157.8,206.6z"/>
					</g>
				</g>
			</g>
			<g>
				<g>
					<g>
						<path class="st9" d="M135,224.2c0,0,0-0.1,0-0.2c0-0.2,0-0.4-0.1-0.7c0-0.6-0.1-1.5-0.2-2.7c-0.2-2.3-0.4-5.6-0.6-9.8v-0.1
							h0.1c7.5-1.4,17.6-3.2,28.7-5.3c3.7-0.7,7.2-1.3,10.6-1.9l-0.1,0.1c2.3-8.8,4.3-16.5,5.8-22c0.7-2.7,1.3-4.9,1.7-6.4
							c0.2-0.7,0.4-1.3,0.5-1.7c0-0.2,0.1-0.3,0.1-0.4c0-0.1,0-0.1,0-0.1s0,0,0,0.2c0,0.1-0.1,0.3-0.1,0.4c-0.1,0.4-0.2,1-0.4,1.7
							c-0.4,1.5-0.9,3.7-1.6,6.4c-1.4,5.5-3.4,13.2-5.7,22v0.1h-0.1c-3.3,0.6-6.9,1.3-10.6,1.9c-11.2,2-21.3,3.8-28.7,5.2l0.1-0.1
							c0.2,4.1,0.4,7.4,0.5,9.8c0,1.1,0.1,2,0.1,2.7c0,0.3,0,0.5,0,0.7C135,224.1,135,224.2,135,224.2z"/>
					</g>
				</g>
			</g>
		</g>
		<g>
			<g>
				<g>
					<path class="st9" d="M191.6,161.1c0,0.1-0.7,0.2-1.7,0.5c-1,0.4-2.4,1.1-3.6,2.2c-1.2,1.1-2,2.4-2.4,3.4s-0.6,1.7-0.7,1.6
						c0,0,0-0.2,0-0.5s0.2-0.7,0.4-1.3c0.4-1,1.2-2.4,2.4-3.6c1.3-1.2,2.7-1.9,3.7-2.2c0.5-0.2,1-0.3,1.3-0.3
						C191.5,161,191.6,161,191.6,161.1z"/>
				</g>
			</g>
		</g>
		<g>
			<g>
				<g>
					<g>
						<g>
							<g>
								<path class="st15" d="M116.6,146.1c1.2-2.2,0.7-10.9,2.5-10.6c2.3,0.4,0.2,9.6,0,10.4c-0.1,0.8,1.1,1.1,1.2,0.3
									c0.1-1.1,1.5-11.8,3.8-11.2c1.3,0.3,0.7,2.6,0.7,2.6s-2,10.4-0.9,10.6c1.1,0.3,1.9-5.7,2.4-7.9c0.5-2.1,1.8-3,2.3-1.9
									c0.8,1.6-0.7,6.8-1.1,8.9c-0.4,2.1-1.5,8.2,1.4,5.8c2.9-2.4,6.1-3.1,7.1-2.7c1,0.4,0.8,1.9-0.4,2.2
									c-0.9,0.2-2.3,1.1-3.4,1.8c-0.8,0.6-1.5,1.3-2.2,2.1c-0.5,0.5-1.4,1.6-2.1,3.3c-0.8,1.9-2.5,3.4-4.5,4l0,0l-1.7,8.2
									l-11.1-2.4l2.5-8.7c0.9-5.7,0.4-13.3,0.4-16.8c0-5.6,0.7-5.6,1.4-5.5C116.2,139.1,115.4,148.3,116.6,146.1z"/>
							</g>
						</g>
					</g>
				</g>
			</g>
			<g>
				<g>
					<g>
						<g>
							<path class="st16" d="M116.2,153.6c0,0,0.6,0.2,1.5,0.7s1.9,1.5,2.5,3c0.2,0.4,0.3,0.8,0.3,1.2v0.2l0.2-0.1
								c1.1-0.6,2.1-0.9,2.9-1.1c0.8-0.1,1.2-0.2,1.2-0.2s-0.5-0.1-1.3,0s-1.9,0.4-3,1l0.2,0.1c-0.1-0.4-0.2-0.8-0.3-1.2
								c-0.3-0.8-0.8-1.4-1.2-1.9c-0.5-0.5-1-0.9-1.4-1.1c-0.4-0.3-0.9-0.4-1.1-0.5C116.4,153.6,116.2,153.6,116.2,153.6z"/>
						</g>
					</g>
				</g>
			</g>
			<g>
				<g>
					<g>
						<g>
							<path class="st16" d="M114.7,161.4c0,0.1,1.1,0.8,2.6,1.3s2.9,0.5,2.9,0.4s-1.3-0.2-2.8-0.7
								C115.9,161.9,114.8,161.3,114.7,161.4z"/>
						</g>
					</g>
				</g>
			</g>
		</g>
		<g>
			<g>
				<polygon class="st15" points="155.1,153.3 146.6,170.3 151.2,187.1 163.4,174.2 175.4,151.8 				"/>
			</g>
		</g>
		<g>
			<g>
				<g>
					<path class="st8" d="M147.1,154.9c0,0-12.1,4.3-12.1,5.1l0,0c-2.1,1.7-9.3,18.9-11.5,22.1l-6.5,9.5l0,0l0,0l5.5-21.2l-11.9-3.5
						c0,0-10.2,24.6-11.4,30.1c-1.3,5.5,0.2,9.8,0.2,9.8l0.1-0.1c0.9,2.7,2.5,4.8,4.5,6c5.1,3.2,9.8,3.9,14.6,0.3
						c2.8-2,5.9-4.5,8.7-6.8l0.8,17.8h6.6c0-1-0.2-13.2-0.2-13.2s1.4-4.6,2-8.8s10.5-31.8,10.5-31.8l7.6-14.7l0.2-5.4L147.1,154.9z"
						/>
				</g>
			</g>
			<g>
				<g>
					<g>
						<path class="st9" d="M127.8,224.1c0,0,0-0.2-0.1-0.6c0-0.4-0.1-0.9-0.1-1.6c-0.1-1.4-0.2-3.4-0.3-5.9
							c-0.2-5-0.5-11.9-0.9-19.7l0,0l0,0c0.1-0.7,0.3-1.5,0.4-2.3c1.6-8.2,3-15.6,4.1-20.9c0.5-2.7,1-4.8,1.3-6.3
							c0.2-0.7,0.3-1.3,0.4-1.7c0-0.2,0.1-0.3,0.1-0.4c0-0.1,0-0.1,0-0.1s0,0,0,0.2c0,0.1,0,0.3-0.1,0.4c-0.1,0.4-0.2,1-0.3,1.7
							c-0.3,1.5-0.7,3.7-1.2,6.4c-1,5.4-2.4,12.8-4,21c-0.2,0.8-0.3,1.6-0.4,2.3l0,0c0.3,7.8,0.6,14.7,0.8,19.7
							c0.1,2.5,0.1,4.5,0.2,5.9c0,0.7,0,1.2,0,1.6C127.8,223.9,127.8,224.1,127.8,224.1z"/>
					</g>
				</g>
			</g>
			<g>
				<g>
					<g>
						<path class="st9" d="M134.5,208.2c0,0,0-0.2,0.1-0.6c0.1-0.4,0.1-0.9,0.2-1.6c0.2-1.4,0.6-3.4,0.9-5.8c0.8-5,2-11.7,3.3-19.2
							c0.8-4.9,1.7-9.5,2.3-13.4l0,0l0,0c1.7-3.8,3.1-7,4.1-9.3c0.5-1.1,0.9-1.9,1.2-2.6c0.1-0.3,0.2-0.5,0.3-0.7s0.1-0.2,0.1-0.2
							s0,0.1-0.1,0.2c-0.1,0.2-0.2,0.4-0.3,0.7c-0.3,0.6-0.6,1.5-1.1,2.6c-1,2.3-2.3,5.5-4,9.3l0,0c-0.7,3.9-1.4,8.5-2.3,13.4
							c-1.3,7.5-2.5,14.2-3.4,19.2c-0.4,2.4-0.8,4.4-1.1,5.8c-0.1,0.7-0.2,1.2-0.3,1.6C134.6,208.1,134.5,208.3,134.5,208.2z"/>
					</g>
				</g>
			</g>
			<g>
				<g>
					<g>
						<path class="st9" d="M111.4,206.3c0,0,0.5-0.8,1.2-2c0.7-1.3,1.6-3,2.4-5.1s1.3-4,1.7-5.4c0.3-1.4,0.5-2.3,0.5-2.3
							s0,0.2,0,0.6c0,0.4-0.1,1-0.3,1.7c-0.3,1.4-0.8,3.4-1.6,5.5c-0.8,2.1-1.8,3.9-2.5,5.1c-0.4,0.6-0.7,1.1-1,1.4
							C111.5,206.1,111.4,206.3,111.4,206.3z"/>
					</g>
				</g>
			</g>
			<g class="st14">
				<g>
					<g>
						<path d="M112.3,205.3c-0.4,0-0.7,0.6-0.5,1s0.7,0.6,1.2,0.5s0.8-0.3,1.2-0.6c1-0.9,1.6-2.3,2.1-3.6c1-3.2,1.1-6.7,1.1-10.1
							c-0.9,4.4-2.6,8.7-5,12.6"/>
					</g>
				</g>
			</g>
			<g class="st14">
				<g>
					<g>
						<path d="M126.9,206.9c-2-3.3-2.7-7.1-2.4-10.9c0.4-5.2,2.9-9.9,4.7-14.7c-1.1,5.1-1.7,10.1-2.7,15
							C126.5,196.3,127,203.5,126.9,206.9"/>
					</g>
				</g>
			</g>
			<g class="st14">
				<g>
					<g>
						<path d="M135.3,203.6c0.5-7.7,1.1-15.5,2.4-23.1s4-15.6,7.8-22.3c-1,3.1-4,9.5-4,9.5s-4.3,22.9-6.2,34.4"/>
					</g>
				</g>
			</g>
		</g>
		<g>
			<g>
				<g>
					<g>
						<path class="st15" d="M134.3,212.5l1.1,12h-5.7c-0.1,0-2.5,0-5-0.1c-1.9,0.2-4.9,0.3-5.7,0.2c-0.2,0-0.3,0-0.3-0.1
							c0,0-0.4,0-0.9-0.2l0,0l0,0c-0.5-0.2-1-0.5-1-1.1c0.3-1.7,1.3-1.9,1.3-1.9s0.2,0,0.5,0v-0.1c-0.8,0-1.4,0-1.8-0.1
							c-0.2,0-0.3,0-0.3-0.1c0,0-2-0.2-1.9-1.3c0.3-1.7,1.3-1.9,1.3-1.9s0.7,0,1.6-0.1c-0.8,0-1.5,0-1.8,0c-0.2,0-0.3,0-0.3-0.1
							c0,0-2-0.2-1.9-1.3c0.3-1.7,1.3-1.9,1.3-1.9s0.6,0,1.4-0.1c-0.7,0-1.2,0-1.5,0c-0.2,0-0.3,0-0.3-0.1c0,0-2-0.2-1.9-1.3
							c0.3-1.7,1.3-1.9,1.3-1.9s3.2-0.2,5.3-0.3c0,0,2.5-2.2,3.4-2.1c1.4,0.2,9.9,3.3,9.9,3.3L134.3,212.5z"/>
					</g>
				</g>
			</g>
			<g>
				<g>
					<g>
						<g>
							<g>
								<g>
									<g>
										<g>
											<g>
												<g>
													<g>
														<path class="st16" d="M123.7,221c0,0.1-1.3,0.2-2.8,0.3c-1.6,0-2.8,0-2.8-0.1s1.3-0.2,2.8-0.3
															C122.5,220.9,123.7,220.9,123.7,221z"/>
													</g>
												</g>
											</g>
										</g>
									</g>
								</g>
							</g>
							<g>
								<g>
									<g>
										<g>
											<g>
												<g>
													<g>
														<path class="st16" d="M123.7,217.6c0,0.1-1.8,0.2-4,0.3s-4,0.1-4,0s1.8-0.2,4-0.3
															C121.9,217.5,123.7,217.5,123.7,217.6z"/>
													</g>
												</g>
											</g>
										</g>
									</g>
								</g>
							</g>
							<g class="st17">
								<g>
									<g>
										<g>
											<g>
												<g>
													<g>
														<path class="st16" d="M123.4,214.1c0,0.1-1.8,0.2-4,0.3s-4,0.1-4,0s1.8-0.2,4-0.3S123.4,214.1,123.4,214.1z"/>
													</g>
												</g>
											</g>
										</g>
									</g>
								</g>
							</g>
						</g>
					</g>
				</g>
			</g>
			<g>
				<g>
					<g>
						<g>
							<path class="st16" d="M118.5,210.9c0,0,0.5,0.1,1.3,0.1c0.9,0,1.9,0.1,3.1,0.1c1.1,0,2.2,0.1,3.1,0.1c0.8,0,1.3,0,1.3,0
								s-0.5-0.1-1.3-0.2c-0.8-0.1-1.9-0.2-3.1-0.2s-2.3,0-3.1,0C118.9,210.8,118.5,210.9,118.5,210.9z"/>
						</g>
					</g>
				</g>
			</g>
		</g>
		<g>
			<g>
				<g>
					<path class="st9" d="M181,113.2c1.4-3.5,5.9-5,9.4-3.8c3.5,1.3,5.9,4.9,6.3,8.6c0.2,1.8,0,3.8-1.1,5.3c-1.1,1.6-3,2.5-4.9,2.8
						c-3.4,0.5-7.1-1-9.2-3.8c-2.1-2.8-2.6-6.6-1.2-9.8"/>
				</g>
			</g>
			<g>
				<g>
					<g>
						<path class="st6" d="M195.3,113.6c0,0-0.1,0.2-0.3,0.5s-0.5,0.7-0.9,1.1c-0.8,0.9-2.2,1.9-4,2.5s-3.5,0.6-4.7,0.4
							c-0.6-0.1-1.1-0.2-1.4-0.3c-0.3-0.1-0.5-0.2-0.5-0.2c0-0.1,0.7,0.2,1.9,0.3c1.2,0.1,2.8,0,4.5-0.5c1.7-0.6,3-1.5,3.9-2.4
							C194.8,114.2,195.2,113.6,195.3,113.6z"/>
					</g>
				</g>
			</g>
			<g>
				<g>
					<g>
						<path class="st6" d="M196.8,117.6c0,0-0.1,0.1-0.4,0.4c-0.3,0.2-0.7,0.5-1.2,0.8c-1,0.7-2.5,1.4-4.4,1.8
							c-0.9,0.2-1.8,0.2-2.6,0.2s-1.5-0.2-2.1-0.3c-0.6-0.2-1.1-0.3-1.3-0.5c-0.3-0.1-0.5-0.2-0.5-0.3c0-0.1,0.7,0.3,1.9,0.5
							c0.6,0.1,1.3,0.2,2.1,0.3c0.8,0,1.6,0,2.5-0.2c1.8-0.4,3.3-1.1,4.3-1.7C196.2,118,196.8,117.5,196.8,117.6z"/>
					</g>
				</g>
			</g>
			<g>
				<g>
					<path class="st9" d="M144.7,123.5c-8.3-18.3,11.5-27.5,22.3-24.4c10.1,2.9,14.5,7.9,16.1,14.7c1.7,6.8,1.6,14.1-1.1,20.6
						c-1.3,3.2-3.7,6.4-7.1,6.8"/>
				</g>
			</g>
			<g>
				<g>
					<path class="st15" d="M154.6,168.7c-0.1-8.7-0.2-20.7-0.3-20.7c0,0-7.5-1.3-9.1-11.1c-0.8-4.9-0.5-12.9-0.1-19.4
						c0.4-5.9,4.3-13.1,10.1-12.5l18.3,4.6c1.8,0.2,3.1,1.7,3.1,3.5l0,0l-1.2,37.9"/>
				</g>
			</g>
			<g>
				<g>
					<g>
						<g>
							<g>
								<g>
									<g>
										<path class="st9" d="M149.7,124.5c0,0.7,0.5,1.2,1.2,1.3c0.7,0,1.3-0.4,1.3-1.1s-0.5-1.2-1.2-1.3
											C150.3,123.4,149.7,123.9,149.7,124.5z"/>
									</g>
								</g>
							</g>
						</g>
					</g>
				</g>
			</g>
			<g>
				<g>
					<g>
						<g>
							<g>
								<g>
									<g>
										<path class="st9" d="M163.2,124.5c0,0.7,0.5,1.2,1.2,1.3c0.7,0,1.3-0.4,1.3-1.1s-0.5-1.2-1.2-1.3
											C163.8,123.4,163.2,123.9,163.2,124.5z"/>
									</g>
								</g>
							</g>
						</g>
					</g>
				</g>
			</g>
			<g>
				<g>
					<g>
						<path class="st9" d="M155.1,131.5c0-0.1-0.8-0.2-2.2-0.4c-0.3,0-0.7-0.1-0.7-0.3c-0.1-0.3,0.1-0.6,0.2-1
							c0.3-0.8,0.7-1.7,1-2.6c1.4-3.7,2.4-6.8,2.3-6.9c-0.1,0-1.4,2.9-2.9,6.7c-0.3,0.9-0.7,1.8-1,2.7c-0.1,0.4-0.3,0.8-0.2,1.3
							c0.1,0.3,0.3,0.4,0.6,0.5c0.2,0.1,0.4,0.1,0.6,0.1C154.2,131.5,155.1,131.6,155.1,131.5z"/>
					</g>
				</g>
			</g>
			<g>
				<g>
					<path class="st16" d="M154.3,148.1c0,0,6.6,0.4,13.1-3.5c0,0-3.3,6.8-13.1,5.9V148.1z"/>
				</g>
			</g>
			<g>
				<g>
					<g>
						<g>
							<g>
								<g>
									<g>
										<path class="st15" d="M174.8,125.6c0.1-0.1,5.2-2.3,5.3,3.5c0.1,5.9-5.8,4.7-5.9,4.5C174.2,133.5,174.8,125.6,174.8,125.6
											z"/>
									</g>
								</g>
							</g>
						</g>
					</g>
				</g>
			</g>
			<g>
				<g>
					<g>
						<g>
							<g>
								<g>
									<g>
										<g>
											<path class="st16" d="M176,131.4c0,0,0.1,0.1,0.3,0.1s0.5,0.1,0.8,0c0.6-0.2,1.1-1.2,1.2-2.3c0-0.5-0.1-1-0.3-1.4
												s-0.5-0.7-0.8-0.8c-0.3-0.1-0.5,0.1-0.6,0.3c-0.1,0.2,0,0.3-0.1,0.3c0,0-0.1-0.1-0.1-0.3c0-0.1,0.1-0.3,0.2-0.4
												c0.1-0.1,0.3-0.2,0.6-0.2c0.4,0,0.9,0.4,1.1,0.9c0.2,0.5,0.4,1,0.4,1.6c0,1.2-0.6,2.3-1.5,2.6c-0.4,0.1-0.8,0-0.9-0.1
												C176,131.6,176,131.5,176,131.4z"/>
										</g>
									</g>
								</g>
							</g>
						</g>
					</g>
				</g>
			</g>
			<g>
				<g>
					<g>
						<g>
							<g>
								<path class="st16" d="M155.5,135.3c0.2,0.5,0.4,1,0.7,1.4s0.8,0.8,1.3,0.8c0.6,0,1.1-0.3,1.4-0.8c0.3-0.5,0.4-1.1,0.4-1.6
									s-0.3-1.1-0.8-1.2c-0.2,0-0.4,0.1-0.6,0.1c-0.9,0.4-1.8,0.7-2.7,1.1"/>
							</g>
						</g>
					</g>
				</g>
				<g>
					<g>
						<g>
							<g>
								<g>
									<path class="st9" d="M156.6,137.5c0-0.1,0.6,0.2,1.4-0.2c0.4-0.2,0.8-0.5,1.1-1c0.2-0.5,0.3-1.2,0-1.8
										c-0.1-0.1-0.1-0.3-0.2-0.4c-0.1-0.1-0.1-0.1-0.2-0.1c-0.1,0-0.3,0.1-0.4,0.2s-0.3,0.1-0.4,0.2c-0.6,0.2-1.1,0.4-1.5,0.6
										c-0.9,0.3-1.4,0.5-1.5,0.4c0-0.1,0.5-0.3,1.3-0.8c0.4-0.2,0.9-0.4,1.5-0.7c0.1-0.1,0.3-0.1,0.4-0.2
										c0.2-0.1,0.3-0.1,0.5-0.2c0.1,0,0.3,0,0.4,0c0.1,0.1,0.2,0.2,0.3,0.2c0.1,0.2,0.2,0.3,0.3,0.5c0.3,0.7,0.2,1.5-0.1,2.2
										c-0.3,0.6-0.9,1-1.4,1.1s-0.9,0.1-1.2,0C156.7,137.6,156.6,137.5,156.6,137.5z"/>
								</g>
							</g>
						</g>
					</g>
				</g>
			</g>
			<g>
				<g>
					<path class="st6" d="M181.4,121.6c-0.6,0-5.5,0.6-5.1,9.6c0.3,8.4,6.3,6.6,8.2,3.4C186.2,131.6,187.3,122,181.4,121.6z"/>
				</g>
			</g>
			<g>
				<g>
					<g>
						<path class="st6" d="M184.4,122.6c0,0,0-0.1,0-0.2c0-0.2,0-0.4,0-0.7c0-0.6,0-1.5-0.1-2.6c0-2.2-0.1-5.3-0.2-8.8l0.1,0.1
							c-0.8,0-1.6,0-2.5,0l0.1-0.1c0,0.7,0,1.4,0.1,2.1c0.1,3.4,0.2,6.5,0.2,9.2v0.1H182c-1.1,0.3-2,0.9-2.6,1.7
							c-0.6,0.7-0.8,1.5-1,2.2s-0.2,1.2-0.3,1.5c0,0.2,0,0.3,0,0.4s0,0.1,0,0.1s0,0,0-0.1s0-0.2,0-0.4c0-0.4,0.1-0.9,0.2-1.6
							c0.2-0.7,0.4-1.5,1-2.2c0.6-0.8,1.5-1.5,2.7-1.7l-0.1,0.1c-0.1-2.6-0.2-5.8-0.3-9.2c0-0.7,0-1.4,0-2.1v-0.1h0.1
							c0.9,0,1.7,0,2.5,0h0.1v0.1c0,3.5,0.1,6.6,0.1,8.8c0,1.1,0,1.9,0,2.6C184.4,122.1,184.4,122.3,184.4,122.6
							C184.4,122.6,184.4,122.6,184.4,122.6z"/>
					</g>
				</g>
			</g>
			<g>
				<g>
					<path class="st6" d="M181.4,110.3c0,0-2.5-5.9-8.6-8.8c-2.9-1.4-5.1-2.2-7.2-2.7c0,0,3.5-0.8,9.2,1.7c2.6,1.2,5.2,2.7,6.9,4.9
						c1.1,1.4,2.5,4.2,2.5,4.9H181.4L181.4,110.3z"/>
				</g>
			</g>
			<g>
				<g>
					<g>
						<path class="st9" d="M180.7,137.1c0,0-0.1,0-0.2,0c-0.1,0-0.3-0.1-0.4-0.2c-0.4-0.2-0.9-0.7-1.3-1.3c-0.4-0.7-0.7-1.6-0.8-2.6
							s-0.1-2.2,0-3.4s0.3-2.3,0.6-3.3s0.6-1.9,1-2.6s0.9-1.1,1.3-1.3c0.2-0.1,0.3-0.2,0.4-0.2c0.1,0,0.2,0,0.2,0s-0.2,0.1-0.6,0.3
							c-0.3,0.2-0.8,0.7-1.2,1.3c-0.4,0.7-0.7,1.5-0.9,2.5s-0.4,2.1-0.5,3.3s-0.1,2.3,0,3.3s0.3,1.9,0.7,2.6
							c0.4,0.7,0.8,1.1,1.2,1.3C180.5,137,180.7,137.1,180.7,137.1z"/>
					</g>
				</g>
			</g>
			<g>
				<g>
					<g>
						<path class="st6" d="M162.8,138.1l-6.7,1.3c0,0-0.1,0-0.1-0.1l-0.5-2.4c0,0,0-0.1,0.1-0.1l6.7-1.3c0,0,0.1,0,0.1,0.1l0.5,2.4
							C162.9,138.1,162.9,138.1,162.8,138.1z"/>
					</g>
				</g>
				<g>
					<g>
						<path class="st6" d="M162.1,136.4l20.6-6.5c0.5-0.2,1.1,0.1,1.2,0.6l0,0c0.2,0.5-0.1,1.1-0.7,1.2l-21.1,5.7V136.4z"/>
					</g>
				</g>
				<g>
					<g>
						<g>
							<path class="st9" d="M177.3,133.6c0,0,0.2-0.1,0.7-0.2c0.5-0.1,1.1-0.3,1.9-0.6c0.8-0.2,1.8-0.5,2.8-0.8
								c0.3-0.1,0.5-0.2,0.7-0.4s0.3-0.4,0.3-0.7s-0.2-0.5-0.4-0.6c-0.3-0.1-0.6,0-0.9,0c-2.4,0.8-4.5,1.5-6.2,2
								c-0.8,0.2-1.4,0.4-1.9,0.6c-0.4,0.1-0.7,0.2-0.7,0.2s0.2-0.1,0.7-0.3s1.1-0.4,1.9-0.7c1.6-0.5,3.7-1.3,6.2-2.1
								c0.3-0.1,0.7-0.1,1,0s0.6,0.5,0.6,0.8s-0.1,0.6-0.3,0.9c-0.2,0.2-0.5,0.3-0.8,0.5c-1.1,0.3-2,0.6-2.8,0.8s-1.4,0.4-1.9,0.5
								C177.5,133.5,177.3,133.6,177.3,133.6z"/>
						</g>
					</g>
				</g>
			</g>
			<g>
				<g>
					<g>
						<path class="st16" d="M166.5,121.7c-0.2,0.3-1.6-0.5-3.3-0.2c-1.8,0.3-2.8,1.5-3,1.3c-0.1-0.1,0-0.5,0.5-1s1.3-1.1,2.4-1.3
							c1.1-0.2,2.1,0.1,2.7,0.4C166.3,121.2,166.6,121.6,166.5,121.7z"/>
					</g>
				</g>
			</g>
			<g>
				<g>
					<g>
						<path class="st9" d="M166.3,121.9c0,0-0.4-0.1-1-0.2s-1.4-0.2-2.3,0c-0.9,0.2-1.6,0.6-2.1,1s-0.7,0.7-0.8,0.6
							c0,0,0.1-0.4,0.6-0.8c0.4-0.4,1.2-0.9,2.2-1.2c1-0.2,1.9-0.1,2.5,0.1S166.3,121.8,166.3,121.9z"/>
					</g>
				</g>
			</g>
			<g>
				<g>
					<g>
						<path class="st9" d="M167.2,117.9c-0.1,0.5-1.6,0.4-3.4,0.5c-1.8,0-3.3,0.2-3.4-0.3c-0.1-0.2,0.2-0.6,0.8-0.9s1.5-0.6,2.5-0.6
							s2,0.1,2.6,0.4C166.9,117.4,167.2,117.7,167.2,117.9z"/>
					</g>
				</g>
			</g>
			<g>
				<g>
					<g>
						<path class="st16" d="M152.4,122.7c-0.1,0.1-0.4-0.2-0.8-0.5c-0.4-0.3-1-0.6-1.8-0.7c-1.5-0.3-2.7,0.4-2.9,0.2
							c-0.1-0.1,0.1-0.4,0.7-0.8c0.5-0.3,1.4-0.6,2.4-0.4c1,0.1,1.8,0.7,2.1,1.2C152.5,122.2,152.5,122.6,152.4,122.7z"/>
					</g>
				</g>
			</g>
			<g>
				<g>
					<g>
						<path class="st9" d="M152.6,123.4c0,0-0.3-0.3-0.8-0.7c-0.5-0.4-1.2-0.9-2.2-1.1c-0.9-0.2-1.8-0.1-2.4,0.1s-1,0.4-1,0.3
							c0,0,0.3-0.3,0.9-0.6c0.6-0.3,1.6-0.4,2.6-0.2c1,0.2,1.8,0.8,2.3,1.3C152.5,123,152.6,123.4,152.6,123.4z"/>
					</g>
				</g>
			</g>
			<g>
				<g>
					<g>
						<path class="st9" d="M153.2,118.5c-0.1,0.5-1.5,0.6-3.2,0.6s-3.1-0.1-3.2-0.6c-0.1-0.5,1.3-1.2,3.2-1.2
							C151.8,117.4,153.3,118.1,153.2,118.5z"/>
					</g>
				</g>
			</g>
			<g>
				<g>
					<path class="st9" d="M169,104.6c-1.1,1.6-2.1,3.2-2.7,5c-0.5,1.8-0.5,4,0.6,5.5c1,1.5,2.8,2.3,4.4,3.2c1.6,0.9,3.3,2.1,3.7,3.9
						c0.1,0.6-0.1,2.5,0.3,2.9c0.6,0.5,1.6,0.2,2-0.4c0.4-0.7,0.7-2.8,0.7-3.6c0-2.4,0.1-4.9,0.1-7.3c0-2.1,0-4.2-0.9-6.1
						c-1.3-2.6-3.9-3.4-7.6-3.3"/>
				</g>
			</g>
			<g>
				<g>
					<path class="st9" d="M144.9,119.3c0.3-2.5,1.2-4.9,2.8-6.8s3.8-3.4,6.3-3.8s5,0.3,7.5,0.4s5.3-0.5,6.6-2.6
						c0.4-0.7,0.6-1.6,0.1-2.2c-0.2-0.2-0.5-0.3-0.7-0.5c-3.3-1.6-7.1-2.3-10.7-1.7c-3.6,0.5-7.1,2.4-9.4,5.2
						c-2.3,2.9-3.3,6.8-2.4,10.3"/>
				</g>
			</g>
			<g>
				<g>
					<g>
						<path class="st6" d="M143.4,115.7c0,0,0-0.1-0.1-0.3c-0.1-0.2-0.1-0.5-0.2-1c-0.1-0.8-0.1-2.1,0.3-3.6
							c0.4-1.4,1.4-3.1,2.9-4.4s3.6-2.3,5.9-2.7c2.3-0.4,4.5-0.2,6.5,0.3c1,0.2,1.9,0.5,2.7,0.8s1.6,0.6,2.3,0.8
							c1.4,0.3,2.7,0.5,3.5,0.3s1.1-0.6,1.1-0.6s-0.1,0.1-0.2,0.3c-0.2,0.2-0.5,0.3-0.9,0.4c-0.8,0.2-2.1,0.1-3.6-0.2
							c-0.8-0.2-1.5-0.5-2.3-0.8s-1.7-0.6-2.7-0.8c-1.9-0.4-4.1-0.6-6.4-0.3c-2.2,0.4-4.3,1.3-5.8,2.6c-1.5,1.3-2.4,2.8-2.9,4.2
							c-0.5,1.4-0.5,2.6-0.4,3.5C143.3,115.2,143.5,115.6,143.4,115.7z"/>
					</g>
				</g>
			</g>
			<g>
				<g>
					<g>
						<path class="st6" d="M154.3,100.2c0,0,0.2-0.1,0.6-0.1c0.4,0,1-0.1,1.7,0c1.4,0.1,3.4,0.7,5.2,2.1c0.9,0.7,1.6,1.4,2.4,2
							c0.8,0.5,1.6,0.8,2.3,0.9s1.3,0.2,1.7,0.1c0.4,0,0.6-0.2,0.6-0.1s-0.2,0.2-0.6,0.3c-0.4,0.1-1,0.1-1.7,0s-1.6-0.3-2.4-0.9
							c-0.8-0.5-1.5-1.3-2.4-1.9c-1.7-1.3-3.6-1.9-5-2.1C155.2,100.2,154.3,100.3,154.3,100.2z"/>
					</g>
				</g>
			</g>
			<g>
				<g>
					<g>
						<path class="st6" d="M184,118.2c0,0-0.1-0.2-0.4-0.6c-0.3-0.4-0.8-0.8-1.6-1.2c-0.8-0.3-1.8-0.6-2.9-0.6
							c-1.1,0-2.3,0.3-3.6,0.5s-2.6,0.4-3.7,0.3c-1.2-0.1-2.2-0.4-2.9-0.7s-1.4-0.7-1.8-1c-0.4-0.3-0.6-0.5-0.6-0.5
							c0-0.1,0.9,0.6,2.5,1.2c0.8,0.3,1.8,0.5,2.9,0.6c1.1,0.1,2.3-0.1,3.6-0.3c1.3-0.2,2.5-0.5,3.7-0.5s2.2,0.3,3,0.7
							c0.8,0.4,1.3,0.9,1.6,1.3c0.1,0.2,0.2,0.4,0.3,0.5C183.9,118.2,184,118.2,184,118.2z"/>
					</g>
				</g>
			</g>
			<g>
				<g>
					<g>
						<path class="st6" d="M182.9,113.5c0,0-0.1-0.2-0.4-0.6c-0.3-0.3-0.8-0.8-1.6-1.1c-0.8-0.3-1.7-0.4-2.8-0.3s-2.3,0.4-3.5,0.7
							c-1.3,0.2-2.6,0.3-3.7-0.1c-1.1-0.3-1.9-1-2.5-1.6s-0.9-1.2-1.1-1.7c-0.1-0.2-0.1-0.4-0.2-0.5c0-0.1,0-0.2,0-0.2
							c0.1,0,0.3,1,1.5,2.2c0.6,0.6,1.4,1.1,2.5,1.4c1,0.3,2.3,0.3,3.5,0c1.3-0.2,2.4-0.6,3.6-0.7c1.1-0.1,2.2,0,2.9,0.4
							c0.8,0.3,1.3,0.9,1.6,1.3C182.9,113.3,182.9,113.5,182.9,113.5z"/>
					</g>
				</g>
			</g>
			<g>
				<g>
					<g>
						<path class="st9" d="M157.7,180.7c0,0,0,0,0.1-0.1s0.2-0.2,0.4-0.3c0.3-0.3,0.8-0.7,1.4-1.3s1.2-1.3,1.9-2.2s1.4-2,2.3-3.2
							c1.6-2.4,3.6-5.4,5.6-8.9c1-1.7,2.1-3.5,3.2-5.5c0.3-0.5,0.5-1,0.8-1.5s0.5-1,0.9-1.4c0.4-0.5,0.9-0.8,1.4-1
							c0.3-0.1,0.6-0.2,0.9-0.1c0.2,0,0.3,0.1,0.4,0.2c0.1,0.1,0.2,0.3,0.2,0.4l0,0l0,0c-0.1,0.2-0.2,0.4-0.3,0.6
							c-0.1,0.2-0.4,0.3-0.6,0.3c-0.4,0-0.8-0.2-1.2-0.4c-0.7-0.4-1.1-1.4-0.8-2.3c0.1-0.4,0.5-0.8,0.9-1s0.8-0.3,1.3-0.2
							c0.4,0.1,0.9,0.3,1,0.8c0.1,0.2,0,0.5-0.1,0.7c-0.2,0.2-0.4,0.3-0.6,0.3c-0.8,0.2-1.6-0.2-2-0.9c-0.2-0.3-0.2-0.8-0.1-1.2
							c0.1-0.4,0.3-0.7,0.6-1s0.7-0.4,1.1-0.4c0.4,0,0.8,0.2,1,0.5c0.1,0.2,0.2,0.4,0.1,0.6c0,0.2-0.2,0.4-0.3,0.5
							c-0.3,0.2-0.7,0.3-1.1,0.1c-0.4-0.1-0.6-0.5-0.7-0.8c-0.1-0.3-0.2-0.7-0.2-1.1c0-0.7,0.1-1.4,0.5-2c0.2-0.3,0.5-0.5,0.8-0.6
							s0.7,0,1,0.2s0.6,0.5,0.5,0.9c0,0.4-0.3,0.7-0.7,0.8c-0.3,0.1-0.7,0.1-1-0.2c-0.3-0.2-0.4-0.5-0.5-0.9c-0.1-0.3,0-0.7,0.1-1
							s0.2-0.6,0.3-0.9c0.1-0.3,0.4-0.5,0.6-0.7c0.3-0.2,0.6-0.3,0.9-0.3c0.1,0,0.3,0,0.5,0.1c0.1,0.1,0.3,0.2,0.3,0.3
							c0.1,0.1,0.2,0.3,0.2,0.4c0,0.2,0,0.3-0.1,0.5c-0.2,0.3-0.6,0.4-0.8,0.3c-0.3,0-0.6-0.2-0.8-0.4c-0.4-0.4-0.6-1-0.7-1.5
							c0-0.5,0.1-1.1,0.4-1.5c0.2-0.2,0.3-0.4,0.6-0.5c0.2-0.1,0.5-0.2,0.7-0.2c0.3,0,0.5,0,0.7,0.2s0.3,0.4,0.3,0.7
							c-0.1,0.5-0.5,0.9-1,0.9c-0.5,0.1-0.9-0.3-1.1-0.6c-0.2-0.4-0.3-0.8-0.3-1.2c0.1-0.8,0.5-1.4,0.7-2c0.3-0.6,0.5-1.2,0.7-1.7
							c0.4-1,0.8-1.8,1-2.3c0.1-0.3,0.2-0.4,0.3-0.6c0.1-0.1,0.1-0.2,0.1-0.2s0,0.1-0.1,0.2c-0.1,0.1-0.1,0.3-0.3,0.6
							c-0.2,0.5-0.6,1.3-1,2.3c-0.2,0.5-0.4,1.1-0.7,1.7c-0.2,0.6-0.6,1.3-0.7,2c0,0.4,0,0.8,0.3,1.1c0.2,0.3,0.6,0.6,1,0.5
							c0.4,0,0.8-0.4,0.8-0.8c0-0.2-0.1-0.4-0.2-0.5c-0.2-0.1-0.4-0.2-0.6-0.2c-0.2,0-0.4,0.1-0.7,0.2c-0.2,0.1-0.4,0.3-0.5,0.5
							c-0.3,0.4-0.4,0.9-0.4,1.4s0.2,1,0.6,1.4c0.2,0.2,0.4,0.3,0.7,0.3c0.2,0,0.5,0,0.6-0.2s0-0.5-0.1-0.7
							c-0.1-0.1-0.2-0.2-0.3-0.3c-0.1,0-0.2,0-0.4,0c-0.5,0.1-1.1,0.3-1.3,0.9c-0.1,0.3-0.2,0.5-0.3,0.8s-0.1,0.6-0.1,0.9
							c0,0.3,0.2,0.6,0.4,0.7c0.2,0.2,0.5,0.2,0.8,0.1c0.3-0.1,0.5-0.3,0.5-0.6s-0.2-0.5-0.4-0.7c-0.3-0.2-0.6-0.2-0.8-0.2
							c-0.3,0.1-0.5,0.3-0.7,0.5c-0.3,0.5-0.5,1.2-0.5,1.9c0,0.3,0,0.7,0.1,1s0.3,0.6,0.6,0.7c0.3,0.1,0.6,0.1,0.9-0.1
							c0.3-0.2,0.3-0.5,0.1-0.8s-0.5-0.4-0.8-0.4s-0.6,0.1-0.9,0.3c-0.5,0.4-0.8,1.2-0.4,1.8c0.3,0.6,1.1,1,1.7,0.8
							c0.2,0,0.4-0.1,0.5-0.3c0.1-0.1,0.2-0.3,0.1-0.5c-0.1-0.3-0.5-0.6-0.9-0.7c-0.8-0.2-1.6,0.3-1.9,1c-0.3,0.7,0,1.6,0.7,2
							c0.3,0.2,0.7,0.4,1,0.4s0.6-0.3,0.7-0.7v0.1c-0.1-0.3-0.2-0.5-0.5-0.5s-0.5,0-0.8,0.1c-0.5,0.2-1,0.5-1.3,1
							c-0.3,0.4-0.6,0.9-0.9,1.4c-0.3,0.5-0.5,1-0.8,1.5c-1.1,1.9-2.1,3.8-3.2,5.5c-2.1,3.4-4,6.4-5.7,8.8c-0.8,1.2-1.6,2.3-2.3,3.2
							s-1.4,1.7-2,2.2C158.5,180.3,157.7,180.7,157.7,180.7z"/>
					</g>
				</g>
			</g>
		</g>
	</g>
</g>
</svg>
