<?xml version="1.0" encoding="utf-8"?>
<!-- Generator: Adobe Illustrator 27.8.0, SVG Export Plug-In . SVG Version: 6.00 Build 0)  -->
<svg version="1.1" id="Camada_1" xmlns="http://www.w3.org/2000/svg" xmlns:xlink="http://www.w3.org/1999/xlink" x="0px" y="0px"
	 viewBox="0 0 450 400" style="enable-background:new 0 0 450 400;" xml:space="preserve">
<style type="text/css">
	.st0{fill:#FF4A5B;}
	.st1{fill:#FF4A5B;stroke:#FFFFFF;stroke-linecap:round;stroke-linejoin:round;stroke-miterlimit:10;}
	.st2{fill:#FFFFFF;}
	.st3{fill:none;stroke:#464646;stroke-width:0.75;stroke-linecap:round;stroke-linejoin:round;stroke-miterlimit:10;}
</style>
<g>
	<g>
		<path class="st0" d="M409.2,148.6c-1.1-1.8-2.9-2-4.6-2c-1.8,0-4.6,0.7-4.6,3.1c0,1.9,2.1,2.4,4.6,2.8c2.9,0.6,5.9,1.1,5.9,4.3
			c0,3.4-3.4,4.2-6,4.2c-2.4,0-5-1-6.2-3.3l1-0.5c0.9,1.8,3.3,2.7,5.1,2.7s4.8-0.5,4.8-3.2c0-2.3-2.5-2.8-5-3.2
			c-2.8-0.5-5.6-1.1-5.6-3.9c-0.1-3.2,3.3-4.2,5.7-4.2c2.2,0,4,0.3,5.5,2.6L409.2,148.6z"/>
		<path class="st0" d="M412.9,155.5c0-3.2,2.4-5.5,5.4-5.5c3,0,5.7,1.8,5.3,6H414c0.2,2.5,2.1,4,4.3,4c1.4,0,3-0.6,3.8-1.6l0.8,0.6
			c-1,1.4-2.9,2-4.6,2C415.3,161,412.9,158.9,412.9,155.5z M422.7,155.1c0-2.6-1.7-4.1-4.3-4.1c-2.2,0-4.1,1.5-4.3,4.1H422.7z"/>
		<path class="st0" d="M436.6,145.7v15.1h-1v-2.4c-0.9,1.6-2.6,2.5-4.4,2.5c-3,0-5.3-2-5.3-5.5c0-3.5,2.4-5.5,5.3-5.5
			c1.8,0,3.6,0.8,4.4,2.5v-6.8L436.6,145.7L436.6,145.7L436.6,145.7z M426.8,155.5c0,3,2,4.5,4.3,4.5c2.5,0,4.3-1.8,4.3-4.5
			s-1.9-4.5-4.3-4.5C428.8,151,426.8,152.5,426.8,155.5z"/>
		<path class="st0" d="M439.3,155.5c0-3.2,2.4-5.5,5.4-5.5c3,0,5.7,1.8,5.3,6h-9.6c0.2,2.5,2.1,4,4.3,4c1.4,0,3-0.6,3.8-1.6l0.8,0.6
			c-1,1.4-2.9,2-4.6,2C441.7,161,439.3,158.9,439.3,155.5z M449,155.1c0-2.6-1.7-4.1-4.3-4.1c-2.2,0-4.1,1.5-4.3,4.1H449z"/>
	</g>
	<path class="st1" d="M272.7,189.4c-0.4,0-1.7,0.5-1.9-0.5c-0.2-1,0.7-1.3,1-1.6c0,0-1.8-0.4-2.6-0.4c-0.8,0-1.7,0.1-2.4,0.2
		c-0.8,0.2-2.3,1.4-2.9,2.1c-0.7,0.7-2.1,0.4-2.8,0.4c-0.8,0-1-0.2-1.5-0.7c-0.5-0.4-1.1-0.3-1.8-0.3s0.3,1.3,0,1.7
		c-0.3,0.4,0.2,0.7,0,1.3c-0.2,0.6-1.3-0.6-1.3-0.6s-4.1-1.5-4.6-1.5c-0.5,0-0.9,0.3-1.3,0.4c-0.3,0.1-1.7,0.2-2.7-0.7
		c-1-0.9,0-1.2,0-1.7c0-0.5-0.9-1.4-1.4-1.6c-0.5-0.2-0.5,0.7-1.3,1.2c-0.8,0.5-0.6-0.2-1.4-1.2c-0.8-1-0.4,0.1-1.4,0.7
		c-1,0.6-0.9,1.9-1,2.7c-0.2,0.8-0.9,0.6-0.9,0.6l-2-0.9c0,0-1.5-1.6-2.2-2.3c-0.7-0.7-2,0-2.3,0c-0.3,0-1.2-0.2-2.2-0.9
		c-1-0.6-0.2-2,0-2.9c0.2-0.9,0.5-2.2,0.4-2.5c-0.1-0.3-0.8,1-1.4,2c-0.6,1-1.2,3.1-1.2,3.1l-0.9,2.2c0,0-0.6,2-0.6,2.5
		c0,0.5-0.2,1-0.8,2.1c-0.7,1.1-1.4,0.4-1.4,2.8c0,2.3,0.5,2.7,0,3.8c-0.5,1.1-1.6,1.4-1.9,3.2c-0.3,1.7,0,2.8-0.2,3.7
		c-0.2,0.9-3.5,1.5-4.4,2.9c-0.9,1.4-1.1,2.9-1.9,4.6s-1.4,2.8-2.4,3.2c-1,0.4-2.6,0.2-3.5,0.8c-0.9,0.6-1,1.7-2.3,2.3s-2,0.5-2,1.3
		c0,0.8,0.4,0.9,0.4,1.8s0.2,1.9-1.4,3.2c-0.1,0.1-0.2,0.1-0.3,0.2c0,0,0,0,0,0c-0.1,0.1-0.2,0.2-0.3,0.3c-0.1,0.1-0.2,0.3-0.3,0.4
		c-0.1,0.1-0.2,0.3-0.3,0.4c0,0.1-0.1,0.1-0.1,0.2c0,0.1-0.1,0.1-0.1,0.2c-0.1,0.1-0.2,0.3-0.3,0.4c-0.1,0.1-0.2,0.3-0.3,0.5
		c-0.1,0.1-0.2,0.3-0.2,0.5c0,0,0,0,0,0c0,0.1-0.1,0.2-0.2,0.4c-0.1,0.2-0.2,0.5-0.3,0.7c0,0,0,0.1-0.1,0.2c0,0.1-0.1,0.3-0.1,0.4
		c0,0.1,0,0.2-0.1,0.3c0,0.1,0,0.2-0.1,0.2c0,0.1,0,0.1,0,0.2c0,0,0,0,0,0.1s0,0.1,0,0.1c0,0,0,0.1,0,0.1c0,1.1,0,2.1,0.1,2.8
		c0.1,0.8,0.9,1.8,0.9,2.4s0.5,1.3-0.3,1.3c0,0-0.9,0.8,0,1.5c0.9,0.8,3.3,0.9,3.3,0.9s-0.4,1.7-0.8,1.9c-0.3,0.2-1.2,0.9-0.5,1.3
		c0.7,0.4,0.6,1.2,1.7,0.7c1.2-0.5-0.1-0.8,1.6-0.6c1.7,0.2,1.9-0.1,2.5,0.8c0.6,0.8,1.8,1.5,3,2.4c1.2,0.9,3.9,1.2,4.5,1.3
		c0.6,0.1,2.3,0.8,2.6,1.2c0.2,0.4,0.4,0.8,1.4,1.3c1,0.5,1.3,1.6,2,2.4c0.2-0.2,0.3-0.4,0.4-0.6c0.2-0.6,0-1.3,0.2-1.9
		c0.2-0.9,1.8-1.2,2.4-1.7c0,0,0.1-0.1,0.1-0.2c0,0,0,0,0.1-0.1c0,0,0-0.1,0.1-0.1c0,0,0-0.1,0.1-0.1c0-0.1,0.1-0.2,0.1-0.3
		c0,0,0-0.1,0-0.2c0.1-0.3,0.2-0.6,0.3-0.9c0.2-0.6,0.9-1.9,1.4-2.4c0.5-0.5,2.1-0.5,3.1-0.7c1-0.2,2.8-0.7,3-0.7
		c0.2,0,1.7-0.6,2-0.6c0.3,0,1.3,0.6,2.3,0.6c1,0,1-0.1,1.3-0.4c0.3-0.3,1.3-0.8,1.8-1.2s0.9-0.4,1.6-0.5s2.1-0.1,2.4,0
		c0.3,0.1,1.1,0.1,1.8-0.2c0.7-0.3,1.6,0,2,0.2c0.4,0.2,1.7,0.7,2.3,1s2.4-0.9,2.8-1c0.4-0.1,1.5-1,2.3-1.5c0.8-0.5,1.1-0.9,1.5-1.4
		c0.4-0.5-0.1-0.9-0.2-1.3c0-0.3-0.4-1.3-0.5-1.7c0-0.5,0.5-1,0.6-1.2s0-1.2-0.4-1.4c-0.3-0.2-0.8-0.1-1.4-0.6
		c-0.6-0.5,0.2-1.2,0.5-1.8c0.3-0.6,1.4-1.4,1.7-1.9c0.4-0.5,1.1-0.7,1.5-1c0.4-0.3-0.1-1.3-0.5-2c-0.4-0.7-0.8-1.3-1.6-2.1
		c-0.7-0.8-0.5-1.1-0.7-1.7c-0.2-0.5,0.2-0.4,0.7-1c0.5-0.7,0-0.8,0-1.7s0.2-1.5,0.4-1.8c0.2-0.3,1.1-0.2,1.3-0.2
		c0.2,0,1.1-0.2,2.1-0.4c1-0.2,1.1-0.5,1.6-0.8s0-0.9,0-1c0-0.1-0.6-0.7-0.9-1.3c-0.3-0.6-0.7-1-0.7-1.4c0-0.3,0.9-1.1,1-1.4
		c0.1-0.3-0.7-1-1-1.6c-0.3-0.5,0.6-1.3,1-1.4c0.4-0.1,0.7,0,0.9,0c0.2,0,1,0.3,1.6,0.4c0.6,0.1,0.6,0,0.9-0.2
		c0.3-0.2-0.1-0.7-0.3-1.1c-0.2-0.4-0.5-0.9-0.6-1.2c-0.1-0.3,0.7-1.6,0.7-1.6s1.3,0.9,1.4,1.1c0.2,0.2,0.7,0.8,1.3,1.4
		c0.7,0.6,0.8,0,1.3,0c0.6,0,1.6,0.2,1.6,0.2c0.1-0.3-0.5-0.7-0.5-0.9v-3.3c0-0.9,0.4-0.7,0.8-0.9c0.3-0.2,0-0.8-0.2-0.9
		c-0.3-0.2-1.2-0.9-2.2-1.5c-0.9-0.6-0.3-2.1-0.2-2.5c0.1-0.4,0.3-1.6,0.2-2.2c0-0.7-0.3-0.8-0.3-1.7c0-0.9,0.2-0.7,0.8-1.3
		c0.6-0.7,1.9-0.9,2.3-1.5C274.9,189.3,273.1,189.4,272.7,189.4z M260.4,215c0,0.2-0.3,0.3-0.6,0.6c-0.2,0.2-0.2,1.3-0.2,1.6
		c0,0.3,0.5,0.7-0.1,0.9c-0.6,0.2-1.7,0.3-2.3,0.3s-1.7-0.1-3.3-0.3c-1.6-0.2-2.9-0.2-3.3-0.3c-0.4-0.1-0.8-0.9-0.4-1.5
		c0.5-0.6,0.7-0.7,0.9-0.9c0.2-0.1,0.7-0.4,0.7-0.6c0-0.1-0.2-0.9,0.1-1.5c0.3-0.5,0.9-1.3,1.5-1.3s2.5-0.1,2.8,0
		c0.2,0.1,1.2,0.4,1.4,0.4c0.2,0,1.7,0.1,1.7,0.1l1.1,1.2C260.4,213.7,260.4,214.8,260.4,215z M248,331.1c0.2,0.4,1.2,2,1.2,2
		s-0.2,0.9-0.6,2s-0.8,5.7-1,6.9c-0.2,1.2-3.2,3.8-4.9,5c-0.1,0-0.1,0.1-0.2,0.2c-0.1,0-0.2,0.1-0.3,0.2c-1.3,1.1-3.6,3.5-5.5,5.8
		c-0.3-0.7-0.6-1.2-0.6-1.2c-0.2-0.4-0.6-0.9-0.6-0.9s-0.9,0.2-1.2,0.1c-0.2-0.2-0.8,0.7-1.5,0s0,0,0.2-0.4s1.3-1.4,1.6-2.3
		c0.3-0.8,0-1.6,0.2-1.8c0.2-0.2,1.3-0.5,2.1-2.1c0.8-1.6-1.6-0.9-1.8-0.9c-0.2,0-3.4,0.4-4.4,0.4c-1,0-3.4-1.3-4.1-2.3
		c-0.8-1.1-7.1-5.9-7.3-6.4c-0.2-0.5-1.2-0.7-1.2-0.7s-3.4-0.6-4.3-0.9c-0.9-0.3-3.4-1.7-5.4-2.4c-2-0.7-7-0.6-7.6-0.5
		c-0.4,0-3.2,0-4.9,0c0,0,0.1,0,0.1-0.1c0.1,0,0.2-0.1,0.2-0.1c0.1,0,0.2-0.1,0.3-0.1c0,0,0.1,0,0.1,0c0.2-0.1,0.9-1.1,1.3-2.7
		c0.4-1.6,0.2-3.3,0.3-5.2c0-0.3,0-0.5,0-0.8c0.8-0.3,1.8-0.7,2.1-0.7c0.4,0,1.3-0.2,1.6,0.5c0.2,0.7,1.7,0.9,1.7,0.9
		s0.4-0.9,0.9-0.7c0.5,0.2,1.7-0.7,2.2,0c0.5,0.7,1.9,1.5,2.2,1.6c0.2,0.1,1.2-0.1,1.9,0s2.1-0.2,2.8,0.4c0.7,0.6,1,0.8,1,0.8
		s0.9-0.2,1.7,0c0.9,0.2,2.8,1.8,3.6,1.7c0.8-0.1,1.9,0.1,1.9-0.4v-1.8c0-0.8-0.2-3,1.3-2.9c1.5,0,2.3,0,2.3,0s0.8-0.3,1-0.6
		c0.2-0.2,1.7-1.4,2.1-1.3c0.4,0.1,1.3,0.4,1.3,0.4s0.1-0.2,1.3-0.4c1.2-0.2,2.3-0.6,2.6-0.6c0.2,0,1.7,0.2,2.2,1
		c0.5,0.8,0.9,1.2,1.3,1.3c0.3,0.1,0.8,0.6,1.5,0.1c0.8-0.5,2-1.6,2.7-1.9c0.5-0.3,2.8-0.6,6.2,0c0.2,0.5,0.7,1,1.1,1.4
		c0.5,0.6,0.9,1,0.9,1s-2,3.1-2.1,3.8c0,0.7,0,3.2,0,3.5S247.8,330.7,248,331.1z M314.9,84.3c-0.1,0.4-0.2,0.8-0.2,1.1
		c-0.3,1.1-1.5,1.9-2,2.5s-1.3,1-2.3,1.7s-2.8,0.9-2.8,0.9s-0.9,0.9-1.7,1.9c-0.8,1,0,1.3,0,1.9s-0.6,1.5-1.2,2.3
		c-0.6,0.8-1.7,2.1-1.7,2.1s0.1,0.2,0.2,0.9c0.1,0.6,0.9,1.3,0.9,1.7c0,0.4-0.2,0.6-0.7,1.3c-0.5,0.7-0.3,1.5-0.2,2
		c0.1,0.5,0.6,1.3,1,1.9c0.4,0.6,0.6,1.9,0.6,2.4s-0.4,0.9-0.8,1.3c-0.4,0.4-1.3,0.8-1.8,1.6s-0.2,4.4-0.2,5.1s0.8,0.7,1,0.9
		c0.2,0.2,0.8,0.5,1.3,0.6s0.8,0.7,0.9,1.1c0.1,0.4-0.2,1.4-0.4,2c-0.1,0.6-0.7,1.3-1.2,1.9c-0.5,0.6-1.4,0.2-2,0.2
		c-0.6,0-1.3,0.7-2.3,1.1c-1.1,0.4-2.1-0.3-2.2-0.4c0-0.1-0.5-0.6-0.6-0.9c-0.1-0.3-1.8,0-2.8,0.2c-0.9,0.3-0.8,0.8-1.3,1.4
		c-0.4,0.6-1.8,1.4-2.7,1.9c-0.9,0.5-2.3,2.2-3.6,3c-1.3,0.8-4.3,1.5-4.5,1.6c0,0-0.3,0.2-0.6,0.4c-0.6,0.4-1.4,1.1-1.7,1.4
		c-0.5,0.5-1.1,1.3-1.1,2c0,0.7-0.1,1.4-0.4,2.5c-0.3,1.1-1.6,3.2-1.8,4.3c-0.2,1.1-0.9,1.3-1.4,1.8c-0.5,0.5-0.9,1-0.9,1.8
		c0,0.8,0.3,2,0.3,2s0.8,1.5,1,1.9s0,1.2,0,1.4s0.4,1.5,0.5,1.9c0.1,0.4-0.5,0.8-0.6,1c-0.1,0.2-0.3,2.6-0.4,3.4
		c0,0.8-0.4,1.3-0.4,1.3s-2.8-0.3-3-0.3s-0.8-0.6-1.2-1.1s-0.3-1.4-0.5-2c-0.2-0.6-0.6-0.8-0.7-0.8c-0.1,0-1.1-0.7-1.1-1.2
		s1.1-1.2,1.1-1.3c0-0.1-0.1-0.4-0.4-1.5c-0.3-1-0.7-0.4-1-0.6c-0.3-0.2-1.4-0.4-1.7-0.8c-0.4-0.4-0.2-1-0.4-1.7s-0.6-0.4-0.9-0.7
		c-0.3-0.3-0.4-1-0.4-1c0.5-0.8,0.8-1.5,1.3-2.4s0.3-1.4,0.7-2.3c0.3-0.9,0.7-0.4,1.3-0.8c0.6-0.3,1.2,0,1.4,0
		c0.2,0,0.8-1.4,0.7-2.4c-0.1-1-0.4-2.3-0.8-2.9c-0.3-0.6-1.5-0.4-2.6-0.2c-1.1,0.2-2.1,1.3-2.3,1.6c-0.2,0.2-1.6-2.1-1.8-2.6
		c-0.2-0.5-1.6-1.7-2-2.5c-0.4-0.8-0.4-1.3-0.4-2.1c0-0.8-0.2-0.2-0.9,0c-0.7,0.2-1.3-0.2-1.7-0.7c-0.5-0.4,1.4-1.2,2.2-1.7
		c0.8-0.6,1.3-4.9,1.3-4.9s0-2,0-2.8c-0.1-0.8,0.1-3.8,0-4.9c-0.1-1.1-1-2.7-1.4-3.4c-0.4-0.7-2-1.7-2.8-2.6c-0.8-0.9-1.2,0.1-1.8,0
		c-0.7-0.1-2.1,0-2.1,0l-0.8-1.8c0.2-0.2,0.4-0.5,0.7-0.9c0.9-1.4,1.4-1.3,2-1.8c0.6-0.6,2.2-1.1,3.6-1.9c0.8-0.5,1.4-1.2,1.9-1.9
		c0.4-0.6,0.9-1.2,1.3-1.8c0.9-1.2,1.1-1.7,1.8-2.8c0.8-1.2,0.4-1.5,0.7-2.3c0.2-0.8,1.4-1.7,2.3-2.8c0.8-1.2,1.2-1.9,1.5-2.8
		c0.3-0.9,0.3-2.4,0.7-3.7c0.3-1.3,1.7-3,2.4-4.4s2-6,2.3-8.4c0.1-1.3,0.1-3.7,0.1-5.6c0.2,0,0.4,0.1,0.6,0.2c0.1,0,0.2,0.1,0.3,0.1
		c0.3,0.1,0.6,0.2,0.8,0.2c0.1,0,0.2,0.1,0.4,0.1c0.1,0,0.2,0.1,0.4,0.1c0.9,0.3,1.6,0.5,1.8,0.6c0,0,0,0,0.1,0c0,0,0,0,0,0
		c0.4,0.1,2.6,1.4,2.8,1.6c0.2,0.1,1.2,1.9,1.5,2.1s0.8-0.2,1.1-0.6c0.3-0.4,1.4-1,2-1c0.5,0,2.7,3.1,3.4,4.1c0.8,1,2.8,5.2,2.7,5.5
		c0,0.3-0.1,1.2-0.1,1.5c0,0.3,0.8,0.8,0.8,0.8l0.3-0.1c0,0,1.5-0.6,1.7-0.5c0.2,0,0.5,0.8,0.5,0.8s1.6-0.8,2.3-1.4
		c0.7-0.7,0.9-0.6,2-1c1-0.3,2,0.5,2.9,0.8s4.4,2.3,4.4,2.3s2,0.8,2.2,0.8c0,0,0,0,0.1,0c0,0,0,0,0.1,0c0,0,0.1,0,0.2,0h0
		c0,0,0,0,0.1,0c0.1,0,0.2,0,0.3,0c0.2,0,0.4,0,0.6,0.1c0,0,0.1,0,0.2,0c0.3,0,0.7,0.1,1.1,0.1c0.1,0,0.3,0,0.4,0c0.1,0,0.1,0,0.2,0
		c0,0,0,0,0,0c0.1,0,0.2,0,0.3,0c0,0,0.1,0,0.2,0c0.1,0,0.3,0,0.4,0c0.1,0,0.1,0,0.2,0c0,0,0,0,0,0c0.2,0,0.3,0,0.4,0
		c0.8,0.1,2.8,1,3,1.2C314.5,84.2,314.7,84.3,314.9,84.3z M333.2,220.5c-0.4,0.3-2.3,0.9-2.8,1.4c-0.4,0.4-1.4,1.7-1.7,2.2
		c-0.3,0.5,1.2,0.8,0.9,1.6c-0.3,0.8-0.5,1.1-1.3,1.3c-0.8,0.2-1.5,0.7-1.6,1.1s-0.1,1.1-0.1,1.8c0,0.7-0.1,1.2,0.3,1.8
		c0.4,0.6,0.9,0.9,1.4,1.6s2,2.6,2,3c0,0.3-0.3,1.1-0.1,1.5l-3.5-0.4c0,0-1.4,1.3-1.5,1.7c-0.1,0.3,0.2,0.6-0.5,0.5
		c-0.8-0.1-0.8-0.2-1.5,0c-0.7,0.2-2.2,0.5-2.2,1.2c0,0.8,0,2,0.5,2.3s0.9,0.8,1,1.3c0.1,0.6,0.8,0.9,0.1,1.7
		c-0.7,0.8-2.9,0.5-2.2,0.9c0.8,0.4,2.6,1.4,2.7,2.1c0.1,0.7,1.1,1.2,0.1,2.8c-1,1.6-1.8,3-2.3,3.7c-0.4,0.7-0.3,2.3-0.7,2.6
		c-0.3,0.2-1.4,1.2-1.9,1.8s-1,0.3-2,0.8c-1,0.4-2.3,0.6-2.3,1.2s0.4,2.4,0.6,2.9c0,0,0,0.1,0,0.1c-0.6,0.3-1.2,0.8-1.4,1.2
		c-0.3,1.1-0.8,0.8-1.6,2.1c-0.8,1.3-0.8,1.5-1,2c-0.2,0.6-0.4,1.5-0.7,2.1c-0.3,0.6-0.8,1.2-0.5,2.1c0.3,0.9,0.2,1.3-0.1,1.5
		c-0.3,0.2-1.2,0.4-1.2,0.4s-4.2,0.8-4.7,1.6c-0.5,0.8-1.1,1.5-1.5,1.5c-0.4,0-1.6-0.5-2.3-0.6c-0.8-0.1-2.3-0.6-3.2-0.4
		c-0.1,0-0.1,0-0.2,0.1c0,0-0.1,0-0.1,0c-0.4,0.1-1,0.3-1.7,0.6c-0.1,0-0.2,0-0.2,0.1c-0.3,0.1-0.7,0.2-1,0.4
		c-0.4,0.1-0.8,0.3-1.1,0.4c-0.1,0-0.2,0.1-0.3,0.1c-0.4,0.1-0.7,0.2-0.9,0.3c-1.2,0.3-4.7,1.2-4.7,1.2l-1.2,1l-1.3,0.3
		c0,0-1.1,0.8-1.6,1.3c-0.5,0.5-1.3,0.5-1.7,0.5c-0.5,0-1,0-2.1-0.1c-1.1-0.1-0.9,0-1.5,0.2c-0.6,0.2-0.8,0.8-1.1,1.7
		c-0.3,0.9-0.5,0.9-0.6,1.1c-0.1,0.2-3.6-0.4-3.9-0.5s-0.9-0.2-1.4-0.5c-0.5-0.4-0.8-1.9-0.9-2.6c-0.1-0.7-1-1-1.2-1.2
		c-0.2-0.1-0.9-1.2-1-2.2c-0.2-1-0.1-0.8,0-1c0.1-0.3,0-1.5-0.1-1.8c-0.1-0.3-0.1-1.3,0-1.6c0.1-0.3,0.9-1.1,1.3-1.5
		c0.4-0.4,0.7-1.4,0.7-1.7c0-0.2-0.8-1.2-2.6-1.2c-1.8,0-1.1,0.3-1.5,0.3c-0.4,0-0.9,0.1-1.1,0c-0.2-0.1-0.6-1.6-1-2.2
		c-0.3-0.6-1-3-0.6-3.7c0.4-0.7,0.2-0.6,0.5-1.4c0.2-0.8-0.3-1.2-0.6-1.4c-0.2-0.2-1.3-0.8-1.3-1.1s1.1-1.6,1-1.8
		c0-0.2-1.1-1.8-1.7-2.1c-0.7-0.3-1.2-0.1-1.2-0.1s-0.8-0.5-0.9-0.5s-1.1,0.2-2,0.6c-0.9,0.4-0.8,0.6-1,0.8
		c-0.2,0.2-0.8,0.3-1.1,0.2c-0.2-0.1-1.3-0.3-1.6-0.3s-0.6,0.4-0.7,0.5c-0.1,0-2.4,0.1-3.3,0.3c-0.9,0.2-1.6-0.2-1.6-0.2l-0.5,0.2
		l-0.5,0.8c0,0-0.8,0.8-1,1c-0.2,0.2-0.3-0.9-0.4-1.4c0-0.5-1,0.1-1,0.1s-1.2,0.8-1.4,0.8c-0.2,0.1-0.4-0.9-0.4-1.4s-0.2-1.3-0.3-2
		c-0.1-0.7-0.4-0.5-0.4-0.5s-1.6-0.2-2.3-0.2s-2.2,0.5-2.7,0.6s-1.7,0-2.4,0c-0.7,0-2.1-0.8-2.4-1.1c-0.2-0.4-1.6-0.6-1.8-0.6
		s-0.9,0.6-1.4,0.9c-0.1,0-0.3,0.2-0.5,0.3c0,0-0.1,0-0.1,0.1c-0.1,0.1-0.2,0.2-0.4,0.3c-0.1,0.1-0.2,0.2-0.4,0.3
		c-0.2,0.1-0.3,0.2-0.5,0.4c-0.1,0.1-0.2,0.1-0.3,0.2c0,0,0,0,0,0c-0.1,0-0.1,0.1-0.2,0.2c-0.1,0.1-0.3,0.2-0.4,0.3
		c0,0-0.1,0.1-0.2,0.1l0,0c0,0-0.1,0.1-0.1,0.1c0,0,0,0,0,0c0,0-0.1,0.1-0.1,0.1c0,0,0,0-0.1,0l0,0c0,0-0.2-1.4-0.2-1.7
		c0-0.3-0.3-1.7-0.3-2.3c0-0.5,0.7-0.8,1.5-1.6c0.2-0.2,0.3-0.4,0.4-0.6c0.2-0.6,0-1.3,0.2-1.9c0.2-0.9,1.8-1.2,2.4-1.7
		c0,0,0.1-0.1,0.1-0.2c0,0,0,0,0.1-0.1c0,0,0.1-0.1,0.1-0.1c0,0,0-0.1,0.1-0.1c0-0.1,0.1-0.2,0.1-0.3c0,0,0-0.1,0-0.2
		c0.1-0.3,0.2-0.6,0.3-0.9c0.2-0.6,0.9-1.9,1.4-2.4c0.5-0.5,2.1-0.5,3.1-0.7c1-0.2,2.8-0.7,3-0.7s1.6-0.6,2-0.6
		c0.3,0,1.3,0.6,2.3,0.6c1,0,1-0.1,1.3-0.4s1.3-0.8,1.8-1.2s0.9-0.4,1.6-0.5c0.7-0.1,2.1-0.1,2.4,0c0.3,0.1,1.1,0.1,1.8-0.2
		c0.7-0.3,1.6,0,2,0.2c0.4,0.2,1.7,0.7,2.3,1c0.6,0.3,2.4-0.9,2.8-1c0.4-0.1,1.5-1,2.3-1.5s1.1-0.9,1.5-1.4c0.4-0.5-0.1-0.9-0.2-1.3
		c0-0.3-0.4-1.3-0.5-1.7s0.5-1,0.6-1.2c0.1-0.2,0-1.2-0.4-1.4c-0.3-0.2-0.8-0.1-1.4-0.6s0.2-1.2,0.5-1.8c0.3-0.6,1.4-1.4,1.7-1.9
		c0.4-0.5,1.1-0.7,1.5-1s-0.1-1.3-0.5-2c-0.4-0.7-0.8-1.3-1.6-2.1c-0.7-0.8-0.5-1.1-0.7-1.7c-0.2-0.5,0.2-0.4,0.7-1s0-0.8,0-1.7
		s0.2-1.5,0.4-1.8s1.1-0.2,1.3-0.2c0.2,0,1.1-0.2,2.1-0.4c1-0.2,1.1-0.5,1.6-0.8c0.5-0.3,0-0.9,0-1c0-0.1-0.6-0.7-0.9-1.3
		c-0.3-0.6-0.7-1-0.7-1.4c0-0.3,0.9-1.1,1-1.4c0.1-0.3-0.7-1-1-1.6c-0.3-0.5,0.6-1.3,1-1.4c0.4-0.1,0.7,0,0.9,0c0.2,0,1,0.3,1.5,0.4
		c0.6,0.1,0.6,0,0.9-0.2c0.3-0.2-0.1-0.7-0.3-1.1c-0.2-0.4-0.5-0.9-0.6-1.2c-0.1-0.3,0.7-1.6,0.7-1.6s1.3,0.9,1.4,1.1
		c0.2,0.2,0.7,0.8,1.3,1.4c0.7,0.6,0.8,0,1.3,0c0.5,0,1.6,0.2,1.6,0.2c-0.1,0.3-0.4,0.2-0.7,1.1c-0.3,0.9-0.8,1.7-0.4,1.8
		s2.4-0.4,2.6-0.7c0.2-0.3,2.9-2.6,3.3-3c0.4-0.4,1.5-1.2,2.2-1.7c0.7-0.4,3.1-1.1,3.1-1.1l0.4-0.2l1.3-0.8c0,0,2.6-2.3,3.6-2.6
		c1-0.3,4.3-0.5,4.7-0.3c0.4,0.2,1.4,1.3,1.4,1.3s0,0.6-0.3,1.2c-0.4,0.6-0.9,1.3-0.6,2.1c0.3,0.8,0.8,1.5,1.6,1.6
		c0.7,0.2,1.5,0.5,1.8,0.2c0.4-0.3,0.6-1.3,1.3-1.6s0.5-1.2,2.2-0.7c1.7,0.4,2.7,1.3,3,1.7c0.3,0.4,0.4,0.8,2.2,1.6
		c1.7,0.8,2.6,1.5,3.2,1.8c0.7,0.4,1.8,0.6,1.8,0.6s2.5-0.2,2.8-0.6c0.3-0.3,0.7-0.6,1-0.4c0.3,0.1,1.3,0.7,1.3,0.7l2.3,4.1
		c0,0,0,1.2,0.2,1.5c0.2,0.3,2,0.6,2,0.6s0.9-0.2,1-0.4c0.1-0.3-0.1-0.7,0.9-0.7c1,0,0.9-0.2,2.3,0.3c1.3,0.5,1.7,0.4,1.8,0.8
		c0,0.4,1.1,1,1.6,1c0.5,0,1.8,0,2.5,0.5c0.7,0.5,1.5,0.8,1.9,1.8C333.7,219.3,333.6,220.2,333.2,220.5z M291.6,285.4
		c-0.3,0.5-0.9,1.3-0.9,1.3l-0.9,1.2c-0.7,0.1-2.4,0.6-3.2,1.2c-1,0.7,0,1.5,0,1.8c0,0.3-0.6,0.9-0.6,0.9s-1.5,0-2.2,0.4
		c-0.7,0.4-2.3,1.4-2.5,1.5s-1.4,0.8-1.7,1c-0.2,0.2,0.1,0.7,0.3,0.9c0.2,0.2,1.7,0.7,2,0.8c0.2,0.1-2.1,2.1-2.8,2s-4.5-2.2-5.1-2.3
		c-0.6,0-1.3,0.2-1.4,0.5c-0.2,0.2-1.3,1.7-1.7,2c-0.5,0.3-2.4,0-2.9,0.1c-0.5,0.2-2.5,1.5-3,2.2c-0.5,0.7-0.7,1.2-0.8,1.3
		c-0.2,0.2-1,0.2-1.5,0.7c-0.5,0.5-6.8,4.2-6.8,4.2s-0.6,1.3-1,3c-0.1,0.5-0.6,1.1-1.2,1.7c-0.2-0.4-0.5-0.9-0.8-1.1
		c-0.6-0.3-0.7-3-1.2-3c-0.5,0-2.2,0-2.2,0s-0.9,2.1-0.9,1.3s0-3.5,0-3.5s-0.3-0.6-1.2-0.6c-0.8,0-2.9-0.2-3.2,0s-3-0.1-3-0.1
		s-0.1-0.9,0-1.3c0.1-0.3,0.3-1,0.3-1.5c0-0.5,0.3-1.2-0.4-1.7c-0.6-0.6-1.7-2-2.1-2.6c-0.3-0.6-0.8-1.9-0.8-2.5s0.5-2.2,0-3.1
		c-0.5-0.9-2-3.7-2.5-3.9c-0.5-0.2-2.4-1.2-3.1-0.8c-0.7,0.4-3.1,0.9-3.1,0.9l-3.5-0.9c0,0-0.8-1.3-1.2-1.3c-0.4,0-6.1-0.9-6.1-0.9
		l-2.7-0.8c0,0-1.4-0.4-2.1-0.4c-0.7,0-1.3,0.4-1.3,0.4s-1.4,0.4-2.5,0.4c-1.1,0-3.8-0.2-3.8-0.2l-3.1-0.3c0.1-0.1,0.2-0.1,0.3-0.2
		c1-0.8,2.3-1.9,3.3-2.8c0.1-0.1,0.2-0.2,0.3-0.3c0.2-0.2,0.4-0.3,0.5-0.4c0.1-0.1,0.2-0.2,0.3-0.3c0.3-0.3,0.5-0.5,0.7-0.6l0,0
		c0.4-0.4,1.9-1.2,3.1-2.1c1.2-0.9,1.5-0.9,1.3-1.4c-0.2-0.5,0-1.4,0.4-1.7c0.4-0.3,1.6-0.8,1.6-0.8s-0.1-1.7-0.3-2.2
		c-0.3-0.4,0.3-0.9,1.6-2.7c1.3-1.7,1.4-0.2,2.1-0.7c0.7-0.4,0-1.2,0-2.1c0-0.9-0.2-2.7,0.6-3.8s3.3-1.2,3.5-1.2
		c0.2,0,1.2-2.1,1.2-2.1l0,0c0,0,0,0,0.1,0c0,0,0.1,0,0.1-0.1c0,0,0,0,0,0c0,0,0.1-0.1,0.1-0.1l0,0c0,0,0.1-0.1,0.2-0.1
		c0.1-0.1,0.2-0.2,0.4-0.3c0.1,0,0.1-0.1,0.2-0.2c0,0,0,0,0,0c0.1-0.1,0.2-0.1,0.3-0.2c0.2-0.1,0.3-0.2,0.5-0.4
		c0.1-0.1,0.3-0.2,0.4-0.3c0.1-0.1,0.3-0.2,0.4-0.3c0,0,0.1-0.1,0.1-0.1c0.2-0.1,0.4-0.3,0.5-0.3c0.6-0.2,1.2-0.9,1.4-0.9
		c0.2,0,1.6,0.2,1.8,0.6c0.2,0.4,1.7,1.1,2.4,1.1c0.7,0,1.9,0.1,2.4,0c0.5-0.1,2-0.6,2.7-0.6s2.3,0.2,2.3,0.2s0.3-0.2,0.4,0.5
		c0.1,0.7,0.2,1.5,0.3,2s0.2,1.5,0.4,1.4s1.4-0.8,1.4-0.8s0.9-0.7,1-0.1c0,0.6,0.2,1.6,0.4,1.4c0.2-0.2,1-1,1-1l0.5-0.8l0.5-0.2
		c0,0,0.8,0.4,1.6,0.2c0.9-0.2,3.1-0.2,3.3-0.3c0.1,0,0.4-0.5,0.7-0.5c0.3,0,1.4,0.2,1.6,0.3c0.2,0.1,0.8,0,1.1-0.2
		c0.2-0.2,0.1-0.3,1-0.8c0.9-0.4,1.9-0.6,2-0.6c0.1,0,0.9,0.5,0.9,0.5s0.6-0.2,1.2,0.1c0.7,0.3,1.7,1.8,1.7,2.1c0,0.2-1,1.6-1,1.8
		c-0.1,0.3,1,1,1.3,1.1c0.2,0.2,0.8,0.6,0.6,1.4c-0.2,0.8-0.1,0.7-0.5,1.4c-0.4,0.7,0.3,3.1,0.6,3.7c0.3,0.6,0.8,2.1,1,2.2
		c0.2,0.1,0.7,0,1.1,0c0.4,0-0.3-0.3,1.5-0.3c1.8,0,2.6,1,2.6,1.2c0,0.2-0.2,1.3-0.7,1.7c-0.4,0.4-1.2,1.1-1.3,1.5
		c-0.1,0.3,0,1.3,0,1.6c0.1,0.3,0.2,1.5,0.1,1.8c-0.1,0.3-0.2,0,0,1s0.8,2.1,1,2.2c0.2,0.1,1.1,0.5,1.2,1.2c0.1,0.7,0.4,2.2,0.9,2.6
		c0.5,0.4,1,0.5,1.4,0.5c0.3,0.1,3.8,0.7,3.9,0.5c0.1-0.2,0.2-0.2,0.6-1.1c0.3-0.9,0.5-1.5,1.1-1.7c0.6-0.2,0.4-0.3,1.5-0.2
		s1.6,0.1,2.1,0.1s1.3-0.1,1.7-0.5c0.5-0.5,1.6-1.3,1.6-1.3l1.3-0.3l1.2-1c0,0-0.2,1.7,0,2c0.2,0.3,0.7,0.8,1.2,0.9
		c0.4,0.2,2.6,0.2,3.1,0.2C291,284.6,291.9,284.9,291.6,285.4z M358.4,172.5c-0.1,0.2-0.2,0.4-0.3,0.6c-0.1,0.2-0.2,0.3-0.2,0.5
		c-0.4,0.7-0.7,1.3-0.9,1.6c-0.7,1.4-3.9,4.4-4.6,5.6c-0.7,1.1-1.9,4.1-2.3,5c-0.4,0.9-1.5,1.5-2.5,1.9c-1,0.4-0.8-0.8-1.1-1.1
		s-2,1.7-2.9,2.6c-0.8,0.9-0.1,1.9,0,2.5c0.1,0.6-0.3,1.3-0.8,2.1c-0.5,0.8,0.1,1.1,0.3,2c0.2,0.8,0,2.1,0,3c0,0.9,0,2.4,0,2.6
		c0,0.2-1.2,1.6-1.4,2.6c-0.2,1,0.3,2.2,0.7,3.4c0.4,1.2,0.3,3.6,0.5,4.3c0.2,0.7,0.3,4.2,0.2,4.8c-0.1,0.6-0.5,1.7-1.1,3.4
		c-0.6,1.6-0.8,3.9-1.4,6c-0.6,2.1-0.3,5.4-0.2,5.6c0,0.2,0.6,3.1,0.7,3.7c0.1,0.6-0.8,1.9-0.8,1.9s-1.4,1.2-2.2,1.7
		c-0.1,0.1-0.3,0.3-0.4,0.4c-0.5,0.6-1,1.6-1.5,2.4l-0.5-0.3c0,0-2.8-1.5-3.1-2c-0.3-0.4-1.7-1-2.2-1.4c-0.1-0.1-0.2-0.1-0.2-0.2
		c-0.2-0.4,0.1-1.1,0.1-1.5c0-0.3-1.5-2.3-2-3c-0.5-0.6-0.9-1-1.4-1.6c-0.4-0.6-0.3-1.1-0.3-1.8s0-1.4,0.1-1.8
		c0.1-0.4,0.8-0.8,1.6-1.1c0.8-0.2,1.1-0.6,1.3-1.3c0.3-0.8-1.2-1.1-0.9-1.6c0.3-0.5,1.2-1.7,1.7-2.2c0.4-0.4,2.4-1.1,2.8-1.4
		s0.4-1.2,0-2.2c-0.4-1-1.2-1.3-1.9-1.8c-0.7-0.5-2-0.5-2.5-0.5c-0.5,0-1.5-0.6-1.6-1c0-0.4-0.4-0.3-1.8-0.8
		c-1.3-0.5-1.3-0.2-2.3-0.3c-1,0-0.8,0.4-0.9,0.7c-0.1,0.3-1,0.4-1,0.4s-1.8-0.3-2-0.6S319,213,319,213l-2.3-4.1c0,0-1-0.6-1.3-0.7
		c-0.3-0.1-0.7,0.1-1,0.4c-0.3,0.3-2.8,0.6-2.8,0.6s-1.2-0.2-1.8-0.6c-0.7-0.4-1.5-1-3.2-1.8c-1.7-0.8-1.8-1.2-2.2-1.6
		c-0.3-0.4-1.3-1.2-3-1.7c-1.7-0.4-1.6,0.4-2.2,0.7c-0.7,0.3-0.9,1.3-1.3,1.6c-0.4,0.3-1.1,0-1.8-0.2c-0.7-0.2-1.2-0.8-1.6-1.6
		c-0.3-0.8,0.2-1.5,0.6-2.1c0.4-0.6,0.3-1.2,0.3-1.2s-1-1.1-1.4-1.3s-3.7,0-4.7,0.3s-3.6,2.6-3.6,2.6l-1.3,0.8l-0.4,0.2
		c0,0-2.3,0.6-3.1,1.1c-0.7,0.4-1.8,1.3-2.2,1.7c-0.4,0.4-3.1,2.7-3.3,3c-0.2,0.3-2.2,0.7-2.6,0.7c-0.4,0,0.1-0.9,0.4-1.8
		c0.3-0.9,0.6-0.7,0.7-1.1c0.1-0.3-0.5-0.7-0.5-0.9v-3.2c0-0.9,0.4-0.7,0.8-0.9c0.3-0.2,0-0.8-0.2-0.9c-0.3-0.2-1.2-0.9-2.2-1.5
		c-0.9-0.6-0.3-2.1-0.2-2.5c0.1-0.4,0.3-1.6,0.2-2.2c0-0.7-0.3-0.8-0.3-1.7c0-0.9,0.2-0.7,0.8-1.3c0.6-0.7,1.9-0.9,2.3-1.5
		s-1.5-0.5-1.9-0.5c-0.4,0-1.7,0.5-1.9-0.5c-0.2-1,0.7-1.3,1-1.6c0.3-0.3,0.3-0.4,0.6-0.7c0.2-0.2-0.1-0.9-0.4-1.1
		c-0.2-0.1-0.7-0.4-0.7-0.9c0-0.4,0.2-1.3,0.7-1.8s0.1-0.8,0-1.1c-0.1-0.3-0.8-0.4-1-0.6c-0.2-0.2-1.2-3.1-1.1-3.4
		c0-0.1,0.1-0.1,0.3-0.2c0,0,0.1,0,0.2,0c0,0,0.1,0,0.1,0l0,0c0.1,0,0.3,0,0.5-0.1c0,0,0.1,0,0.1,0c0.1,0,0.2-0.1,0.3-0.1
		c0.1-0.1,0.3-0.2,0.4-0.3c0,0,0.1-0.1,0.1-0.2c0.4-0.9-2.2-1.5-2.2-1.5s0-0.9,0.1-1.1c0.2-0.2,1.8-0.2,2.5-0.3
		c0.6-0.2-0.3-1.2-0.6-1.5s-1.9-0.3-2.4-0.6c-0.5-0.3-1.7-0.9-1.9-1.5c-0.3-0.6,1.9-3.6,2.5-4.3c0.6-0.7,2.7-2.5,3.5-3.4
		c0.8-0.9,1.9-1.9,2.4-2.5c0.4-0.6,0-0.9,0-0.9l-0.1-0.1c0.4-0.4,1-1.3,1.4-1.1c0.4,0.2,1.5,1.7,1.5,2.5c0,0.7,0.5,0.8,0.5,1.3
		c0,0.5-0.2,1.2,0,1.8c0.2,0.6,0.2,1.5,1.2,1.9c1.1,0.5,2.5,0.5,2.8,0.6s1.1,0.6,1.8,0.3c0.1,0,0.1-0.1,0.2-0.1
		c0.7-0.4,1.5-1,1.9-1.5c0.4-0.5,1.7-2,1.9-2c0.2,0,0.7,0.3,1.2,0.3s1.9-0.6,2.4-0.9s1.8-1.7,2.2-2.4c0.3-0.6,1.9-3.4,1.7-3.8
		c-0.2-0.5-0.5-1.2-1-1.7c-0.5-0.4-1.6-1.3-0.7-2.3c0.8-1.1,3.1-2.4,3.3-2.5c0.2,0,1.1-1.2,1.1,0s0.2,1.7,0.7,1.7
		c0.5,0,0.4,0.2,1.3,0c0.8-0.1,2.1-0.3,2.2,0c0.2,0.3,0,1.1,0.9,1.5s1.7,0.7,2.2,0s1.3-1.7,1.7-1.9c0.4-0.3,1.7-0.8,2.3-0.8
		c0.6,0,1.9-0.3,1.9-0.3l3-2.3c0,0,0.1-0.8,1.6-1.5c1.2-0.5,2.7-1.7,3.3-2.2c0.2,0.3,0.4,0.5,0.6,0.7c1.1,0.9,1.5,0.7,2.3,1.5
		c0.8,0.8,1.9,2.5,2,2.7c0.1,0.3,0.4,0.4,0,0.8c-0.4,0.4-0.6,0.9-0.6,1.2s0.9,1.7,1.2,1.6c0.3-0.1,2.5-1.5,2.5-1.5s0.6-0.2,0.8-0.5
		c0.3-0.3,0.7-0.8,0.7-1.6s-0.5-1,0-1.1c0.5,0,0.9,0,1.3,0c0.3,0,1.1-0.3,1.3-0.5c0.2-0.2,0.4,0,0.9-0.7c0.4-0.7,1.3-1.5,1.8-2.1
		c0.6-0.6,1.3-1.3,1.8-1.5c0.5-0.2,1-1.3,1.6-0.4c0.6,0.9,0.8,1.6,1.2,1.8c0.4,0.2,0,0.2,1.3,0.4s2.1,0,2.2,0.2
		c0.2,0.1,0.7,0.9,1.2,1.2c0.5,0.3,1.1,0.5,1.5,0.5c0.3,0,1.5,0,2.1,0.6c0.6,0.6,0.9,1.8,0.9,2.1c0,0.2,0.1,0.4,0.3,0.9
		c0,0.1,0.1,0.2,0.2,0.3c0.4,0.6,1.2,1.2,1.2,1.7c0,0,0,0.1,0,0.2c0.1,0.5,0.4,1.5,0.4,1.9c0,0.6,0.3,1.7,0.7,2
		c0.2,0.2,0.7,0.8,1.1,1.3l0,0c0.2,0.3,0.5,0.6,0.6,0.7c0.3,0.3,0.5,0.7,0.5,1.1c0,0.4-0.8,1.7-0.8,1.7s-0.2-0.2,0,0.8
		c0.3,1,0.4,1.2,0.4,1.7s-1.2,0.9-1.4,0.8c-0.2,0-1-0.6-1-0.6s0-0.2-0.7,0c-0.7,0.2-1.7-0.3-1.7,0.6c0,0.8,0.3,1.6,0.7,2.2
		c0.3,0.6,0.5,0.6,0.8,1.3c0.3,0.7,0.4,1.1,0.6,1.7c0.2,0.6,0,0.2,0.6,1.3s1.7,1.8,1.7,1.8s2.2-0.2,2.4,0c0.2,0.2,1.2-0.2,1.7,0
		C357.5,172.4,357.9,172.4,358.4,172.5z M320.2,279.7c-0.8,0.3-3.6,0.8-4.1,1c-0.5,0.2,0,0.8,0,1.3c0,0.5-0.7,0.4-1.6,0.6
		c-1,0.2-1.3,0.7-1.7,1c-0.4,0.2-0.2,1.1-0.2,1.4c0,0.3,1.2,0.7,1.2,0.7s0,0.5,0,0.9c0,0.3-0.7,0.5-1.5,0.9
		c-0.8,0.4-7.8,0.3-7.8,0.3s-1.3-0.1-1.9,0c-0.6,0.1-1.4,1.4-1.7,1.5c-0.4,0.1-1.7,0.2-2.6,0.1c-0.8-0.1-0.7-0.3-0.9-0.6
		c-0.2-0.3-2.3-0.3-2.6-0.3c-0.4,0-1.1,0.4-1.6,0.9c-0.1,0.1-0.3,0.3-0.5,0.4c-0.5,0.3-1.1,0.6-1.4,0.7c-0.5,0.1-1.6,0.3-2.2,0.3
		c-0.5,0-0.2-0.6-0.1-0.9c0.1-0.3,0.4-0.4,1.3-1.1c0.8-0.8-0.1-0.8-0.3-0.8c0,0-0.1,0-0.3,0l0.9-1.2c0,0,0.6-0.8,0.9-1.3
		c0.3-0.5-0.7-0.7-1.2-0.8c-0.5,0-2.7,0-3.1-0.2c-0.4-0.2-1-0.7-1.2-0.9c-0.2-0.3,0-2,0-2s3.5-0.9,4.7-1.2c0.2,0,0.5-0.1,0.9-0.3
		c0.1,0,0.2-0.1,0.3-0.1c0.3-0.1,0.7-0.2,1.1-0.4c0.3-0.1,0.7-0.2,1-0.4c0.1,0,0.2-0.1,0.2-0.1c0.7-0.2,1.3-0.4,1.7-0.6
		c0,0,0.1,0,0.1,0c0.1,0,0.2,0,0.2-0.1c0.9-0.2,2.5,0.3,3.2,0.4c0.8,0.1,1.9,0.6,2.3,0.6c0.4,0,0.9-0.6,1.5-1.5
		c0.5-0.8,4.7-1.6,4.7-1.6s0.9-0.2,1.2-0.4s0.4-0.6,0.1-1.5s0.2-1.5,0.5-2.1s0.5-1.6,0.7-2.1c0.2-0.6,0.2-0.7,1-2s1.2-1,1.6-2.1
		c0.1-0.5,0.7-0.9,1.4-1.2c0.1,0.5-0.1,1.4,0.1,1.8c0.2,0.4,0.8,0.9,0.8,1.9c0,1-0.1,1.1,0.7,1.4c0.6,0.3,2.5,0.4,3.3,0.5
		c0.2,0,0.4,0,0.4,0l2.2,0.6h1c0,0.1-0.1,0.3-0.1,0.5c-0.5,1.9-1.1,2.8-1,3.4c0.2,0.6,1,1.9,1.3,3
		C323.6,278.9,321,279.4,320.2,279.7z M253.6,312c-1.3,1.2-3.2,2.5-3.8,2.9c-0.9,0.7-1.9,2.4-2.1,3.2c0,0.3,0,0.5,0.1,0.8
		c-3.4-0.6-5.6-0.3-6.2,0c-0.7,0.3-1.9,1.4-2.7,1.9c-0.8,0.5-1.2,0-1.5-0.1c-0.3-0.1-0.8-0.5-1.3-1.3c-0.5-0.8-1.9-1-2.2-1
		c-0.2,0-1.4,0.3-2.6,0.6c-1.2,0.2-1.3,0.4-1.3,0.4s-0.8-0.3-1.3-0.4c-0.4-0.1-1.8,1.1-2.1,1.3c-0.2,0.2-1,0.6-1,0.6s-0.8,0-2.3,0
		c-1.5,0-1.3,2.2-1.3,2.9v1.8c0,0.5-1.2,0.3-1.9,0.4c-0.8,0.1-2.8-1.5-3.6-1.7c-0.8-0.2-1.7,0-1.7,0s-0.3-0.2-1-0.8
		c-0.7-0.6-2-0.3-2.8-0.4c-0.8-0.1-1.7,0.1-1.9,0c-0.2-0.1-1.7-0.8-2.2-1.6c-0.5-0.7-1.7,0.2-2.2,0c-0.5-0.2-0.9,0.7-0.9,0.7
		s-1.4-0.2-1.7-0.9c-0.2-0.7-1.2-0.5-1.6-0.5c-0.2,0-1.3,0.4-2.1,0.7c-0.2-1.6-1.1-3-1.1-3s-1.2-3.3-1.4-4c-0.2-0.7-0.7-0.7-1-0.9
		c-0.4-0.2-2.1-0.3-2.9-0.3c-0.8,0-1,0.3-2.2,0.5c-1.2,0.2-0.8-0.5-0.8-0.6c0-0.1,0.7-1.6,0.9-1.9c0.2-0.2,0.6-1.9,0.8-3.1
		c0.1-1.1,0.3-2.6,1.2-4c0.9-1.4,0.2-3,0-3.6s-0.3-1.6-0.5-2c0,0,1,0,2-0.6c1-0.6,0.8-0.8,1-1.7c0.2-0.8,0.2-1.5,0.4-2.6
		c0.2-1.1,1.1-0.9,1.8-1.4c0.8-0.5,0.4-1,0.4-1.3c0-0.3,0.5-2.2,1-2.8c0.5-0.6,2.8-2.3,3.8-2.9c0.1,0,0.2-0.1,0.3-0.2
		c0.1,0,0.1-0.1,0.2-0.1c0.1,0,0.2-0.1,0.2-0.2c0,0,0,0,0,0c0.1-0.1,0.2-0.2,0.4-0.3c0.1,0,0.1-0.1,0.2-0.2l0,0l3.1,0.3
		c0,0,2.7,0.2,3.8,0.2c1.1,0,2.5-0.4,2.5-0.4s0.6-0.4,1.3-0.4s2.1,0.4,2.1,0.4l2.7,0.8c0,0,5.7,0.9,6.1,0.9c0.4,0,1.2,1.3,1.2,1.3
		l3.5,0.9c0,0,2.4-0.5,3.1-0.9c0.7-0.4,2.6,0.5,3.1,0.8c0.5,0.2,2,3,2.5,3.9c0.5,0.9,0,2.5,0,3.1c0,0.6,0.5,1.9,0.8,2.5
		s1.4,2,2.1,2.6c0.6,0.6,0.4,1.3,0.4,1.7c0,0.5-0.2,1.2-0.3,1.5c-0.1,0.3,0,1.3,0,1.3s2.8,0.2,3,0.1s2.3,0,3.2,0
		c0.8,0,1.2,0.6,1.2,0.6s0,2.7,0,3.5c0,0.9,0.9-1.3,0.9-1.3s1.7,0,2.2,0c0.5,0,0.6,2.7,1.2,3C253.1,311.1,253.4,311.6,253.6,312z
		 M235,346.5c-0.2,0.2,0.1,1-0.2,1.8c-0.3,0.8-1.3,1.8-1.6,2.3c-0.2,0.4-0.9-0.2-0.2,0.4c0.7,0.7,1.3-0.2,1.5,0s1.2-0.1,1.2-0.1
		s0.3,0.5,0.6,0.9c0,0.1,0.3,0.5,0.6,1.2c-0.3,0.3-0.5,0.7-0.8,1c-0.1,0.1-0.2,0.2-0.3,0.4c-0.5,0.7-1,1.4-1.3,1.9
		c-1.4,2.7-6.9,12.7-7.7,13.9c-0.7,1.2-4.9,4.7-6.8,5.7c-1.3,0.7-2.7,1.5-3.8,2.4c-1.1,0.9-1.4,2.4-2.6,3.3
		c-0.6,0.5-1.4,0.9-1.9,1.5c-1,1-1.3,2.5-1.8,3.9c-0.6,1.8-1.5,4.2-2.8,5.6c-0.6,0.6-1.3,0.7-1.9,1.2c-1,0.8-2.8,3.4-4.2,3
		c-1.4-0.4-1.1-2.2-1.3-3.3c-0.2-1.6,0-1.9,0.4-2.8s1.3-0.9,1.6-1.3c0.3-0.4,1.4-1,1.9-1.7c0.5-0.7-0.5-1.7-0.9-2.2
		c-0.4-0.5-1.9-0.7-2.6-1c-0.7-0.3-1.2-1.4-1.2-2.1s-1-1.6-1.8-2.5c-0.8-0.8-1.8-1.7-1.8-1.7s-2.3-0.6-3.5-2.1
		c-1.2-1.6-1.2-1.3-1.6-1.5c-0.4-0.2-2.1-0.7-3-1.5c-0.9-0.8-1-0.4-2.6-1.1c-1.5-0.7-1.4-0.7-2.8-2c-1.3-1.3-1.8-2.2-2.6-2.7
		c-0.8-0.5-0.9,0.6-1.1,1.6c-0.2,1-1.8,1.1-2.3,0.6s-0.6-1.7-1.1-2.6c-0.5-0.9-2.7-3.1-3.4-4.2c-0.8-1.1-2.4-1.7-3.9-2.5
		c-1.5-0.8-2.3,0.2-2.8,0.6c-0.4,0.5-2.9,1.2-3.6,0.8c-0.7-0.4-0.5-0.6,0-1.4c0.5-0.8,5.3-6.2,6.8-7.6c1.4-1.4,5.6-6.3,6.3-6.9
		c0.7-0.6,1.7-1.7,2.3-2.3c0.6-0.6,1.5,0,1.8-0.4c0.4-0.5-1-0.3,0.5-1.7c1.5-1.4,3.8-2.9,6.4-4.7c2.6-1.8,4.7-2.9,5-3.1
		c0.3-0.2,3.2-0.8,4-1.5c0.4-0.4,1.2-0.8,1.8-1.1c0.1,0,0.1-0.1,0.2-0.1c1.6,0,4.4,0,4.9,0c0.6-0.1,5.6-0.2,7.6,0.5
		c2,0.7,4.5,2.1,5.4,2.4c0.9,0.3,4.3,0.9,4.3,0.9s1,0.2,1.2,0.7c0.2,0.5,6.5,5.3,7.3,6.4c0.8,1.1,3.1,2.3,4.1,2.3
		c1,0,4.2-0.4,4.4-0.4c0.2,0,2.6-0.7,1.8,0.9C236.3,346,235.2,346.3,235,346.5z M271.9,70.9c-0.2,2.3-1.5,6.9-2.3,8.4
		c-0.8,1.4-2.1,3.2-2.4,4.4c-0.3,1.3-0.3,2.8-0.7,3.7c-0.3,0.9-0.7,1.7-1.5,2.8c-0.9,1.2-2,2.1-2.3,2.8c-0.2,0.8,0.1,1.1-0.7,2.3
		c-0.8,1.2-0.9,1.7-1.8,2.8c-0.4,0.5-0.8,1.2-1.3,1.8c-0.5,0.8-1.1,1.5-1.9,1.9c-1.4,0.8-3,1.3-3.6,1.9c-0.6,0.6-1.1,0.4-2,1.8
		c-0.2,0.3-0.4,0.6-0.7,0.9c-0.8,0.9-1.6,1.4-2,1.8c-0.5,0.5-2.6,1.3-2,1.5c0.6,0.2,2.6,0.3,2.9,0.4c0.3,0.1,1.6,1.4,1.8,1.6
		c0.2,0.2,1.1,1.5,0.9,2c-0.2,0.5-0.9,1.3-1.3,1.6c-0.3,0.3-0.3,0.9-0.3,1.5s0.2,1-0.8,2.2c-0.9,1.2-2.9,3.7-3.4,4.1
		c-0.6,0.4-2,0.2-2.6,0.9c-0.6,0.6-1.6,1-1.9,1.8c-0.3,0.9-0.8,0-0.9,1.7c-0.2,1.7-1.2,2.9-1.3,3.4c-0.1,0.4,0.2,1.4,0.5,2
		c0.2,0.6,1.8,1.7,2,2.7c0.2,0.9-0.4,4.6-1.3,5.8c-0.9,1.2-1.9,1.7-2.4,2.6c-0.5,0.9-0.7,1.7-1.4,2.1c-0.8,0.4-1.7,0.2-2.3,1.8
		c-0.7,1.7-1.8,3.8-2,4.2c-0.1,0.3-1,2.5-1.4,3.3c0-0.2,0.1-0.3,0.1-0.3c0,0,0,0,0,0l-13.4-1l-46.9-3.4h-3.3l-2.3-1.1
		c0,0-0.8-1.7-1.1-2.3c-0.2-0.5-2-0.2-2.3-0.7c-0.3-0.5-0.8-1.5-1.2-2.1c-0.3-0.6-1.2-0.4-1.3-0.9c-0.2-0.4-0.9-2.8-0.9-3.3
		c0-0.4-0.1-2.2-0.8-3c-0.7-0.9-0.8-1.3-1.2-2.8c-0.4-1.5,0-3.2,0-3.2s-1.3-1.5-2.7-1.9c0,0-1.8-4.2-2.3-4.4c-0.4-0.2-1-1.3-1-2
		c0-0.7,2.8-3.2,3.8-5.6c1-2.3,6.9-14.3,8-17.3s6.1-12.5,7.1-14.3c1-1.8,0.4-2.9,0.6-4.7c0.1-1.8,0.7-1.5,1.6-2.2
		c0.9-0.8,2.3-1.7,2.3-1.7l-0.8-1.1c0,0-1.9,1.2-3.7,1.6s-2.5-0.8-2.8-0.9s-0.8-0.7-1.6-2.5c-0.8-1.8-2-0.9-2.6-1.2
		c-0.6-0.3-2.2-0.7-4.3-1.7c-2-1-2.1-1.1-2.6-2c-0.4-0.9,0-1.9,0-1.9h-3.1c0,0-0.6-0.4-1.5-1.2c-0.9-0.8-0.7-0.4-1.7-1.8
		c-1-1.3-1-3-1.3-4s-1.5-1.2-2-2.5c-0.6-1.2,0-4.8,0-4.8l0.7-10.4c0.4,0.1,0.8,0.1,0.8,0.1c0.2,0,2.8-0.6,3.1-1.1
		c0.2-0.5,1-1.9,1.5-2c0.4-0.2,1.7,1,2.7,0.9s0.5-1.5,1.3-1.9s2.6,0.1,3.1,0c0.4-0.1,1.5-1.7,2.5-2.4c1-0.7,1.4-0.3,1.5-0.3
		c0.1,0,1.7,0.7,2.7,0.8c1,0.1,1.7-0.2,2.1-0.5c0.4-0.3,2.8,0,3.7,0.3c0.9,0.3,2.4,1.1,3.4,0.8c1-0.4,0.6-2.5,0.6-2.5
		c0-0.3-0.9-1.6-1.5-1.9c-0.6-0.3,1.1-2.5,1.1-2.5s3,1.2,3.4,1.3s1.2,0,2.2-1c1-1,3.4-0.7,3.7-0.7c0.2,0,0.9,0.7,1.6,1.4
		c0,0.2,0.5,2,0,2.9c-0.5,0.9-0.4,3.3,0.2,3.4c0.7,0.1,2.8-1.1,3.7-0.7c0.8,0.4,2.7,2.7,3.3,3c0.6,0.3,2.8,0.9,2.8,0.9s2,0.6,2.3,1
		c0.3,0.4,1.7,3.1,1.7,3.4c0,0.3,1.2,1.4,1.7,2c0.5,0.6,1.3,1.2,1.3,2c0,0.8,0.2,3.2,0,3.6c-0.2,0.4,0.1,1,0.6,2c0.5,1,4,3.4,4,4.2
		s0.4,2.3,0.7,2.5c0.2,0.2,0.9,0.7,0.9,1.1c0.1,0.4,0.2,2.5,0.8,2.8c0.7,0.3,3.8,1.1,3.8,1.1s1.9,1.5,2.8-1.1
		c0.9-2.6,1.4-3.9,1.9-4.4c0.5-0.5,2.1-1.7,2.1-1.7s0.8-2.5,1.1-3.2c0.3-0.7,1.2-1.3,1.9-1.7c0.8-0.4,1.6-0.5,2.2-0.9
		c0.6-0.4,1.3-1.3,1.6-1.8c0.2-0.5,1.2-2.2,1.9-2.4c0.9-0.3,1.5-0.6,2.4-0.8c0.3,0,0.7-0.1,1-0.3c0,0.1,0,0.2,0.1,0.4
		c0.2,0.6,0.3,0.8,0.3,1.4c0,0.4-0.1,1.2,0.2,1.6c0.1,0.1,1.7,0.2,1.7,0.2s1.3,0,1.5,0c0.2,0,2,1.1,2.2,1.4s1.7,2.1,2.1,3
		c0.4,0.9,1.7,1.2,1.7,1.2s1.6,0,2.2-0.2c0.7-0.2,2.1,0,2.5,0c0.4,0,1.3,1.3,1.3,1.3s-0.6,0.7-0.9,1.2c-0.3,0.5,1.4,1,1.6,1
		c0.2,0,2.3,0.3,2.7,0.1c0.4-0.2,3.5,0.3,6.4,0.7c0.2,0,0.3,0,0.6,0.1c0.1,0,0.2,0,0.3,0c0.3,0,0.6,0.1,1,0.2c0.1,0,0.3,0.1,0.5,0.1
		c0.1,0,0.2,0.1,0.4,0.1c0.3,0.1,0.5,0.1,0.8,0.2c0.5,0.1,0.9,0.3,1.4,0.4c0.3,0.1,0.6,0.2,0.9,0.2c0.2,0.1,0.5,0.1,0.7,0.2
		c0.5,0.1,1,0.3,1.5,0.4c0.2,0,0.4,0.1,0.5,0.1c1.1,0.3,2.3,0.7,3.3,1c0.2,0.1,0.4,0.1,0.7,0.2c0,0,0,0,0,0
		C272,67.1,272,69.5,271.9,70.9z M383.2,132.3c0,2.6-1.4,11.1-1.7,11.8c-0.1,0.3-0.7,1.2-1.4,2.4l-0.7-0.9c0,0-1.4-0.5-1.6-0.7
		c-0.2-0.1-1.3-0.5-1.7-0.5c-0.5,0-1.4,0.7-1.4,0.7s-1.5,0.5-1.6,0.5s-0.9,0-1.6,0.1c-0.6,0.1-0.9,0.5-1.3,0.9c-0.4,0.4-1,1-1.4,1.5
		c-0.4,0.5-0.9,0.6-1.5,0.9c-0.6,0.3-1.4,0-1.8,0.1c-0.4,0-1.7,0.7-2.1,0.9c-0.4,0.2-1.4,0-2,0c-0.6,0-0.6-0.1-0.9-0.2
		c-0.3-0.1-0.9-0.6-1.1-0.9c-0.2-0.3-1.2-0.9-1.3-1.1c-0.1-0.2-1.6-0.2-1.8-0.2c-0.2,0.1-0.6-0.9-0.7-1c-0.1-0.1-1.4-1.1-1.5-1.2
		c-0.1,0-0.8,0.8-1,1.2c0,0.1-0.1,0.1-0.1,0.2c0,0.1-0.1,0.2-0.2,0.2l0,0c-0.2,0.3-0.4,0.5-0.5,0.6c-0.2,0.2-1,0.3-1.1,0.3
		c-0.1,0-0.3,0.2-0.5,0.8c-0.2,0.5-1.4,1-1.4,1c-0.2-0.4-0.3-0.7-0.3-0.9c0-0.2-0.3-1.5-0.9-2.1c-0.6-0.6-1.8-0.6-2.1-0.6
		c-0.3,0-0.9-0.2-1.5-0.5s-1.1-1.1-1.2-1.2c-0.2-0.1-0.9,0-2.2-0.2c-1.3-0.2-0.9-0.2-1.3-0.4s-0.7-0.9-1.2-1.8
		c-0.6-0.9-1.1,0.3-1.6,0.4c-0.5,0.2-1.3,0.9-1.8,1.5c-0.6,0.6-1.4,1.4-1.8,2.1c-0.4,0.7-0.7,0.5-0.9,0.7c-0.2,0.2-0.9,0.5-1.3,0.5
		c-0.3,0-0.8,0-1.3,0s0,0.3,0,1.1c0,0.7-0.4,1.2-0.7,1.6c-0.3,0.3-0.8,0.5-0.8,0.5s-2.1,1.4-2.5,1.5c-0.3,0.1-1.2-1.3-1.2-1.6
		c0-0.2,0.2-0.8,0.6-1.2s0.1-0.6,0-0.8c-0.1-0.3-1.2-1.9-2-2.7c-0.8-0.8-1.2-0.6-2.3-1.5c-0.2-0.2-0.4-0.5-0.6-0.7
		c0.1-0.1,0.2-0.2,0.2-0.2s0.2-0.4,1.8-1.6s2.6-1.7,3.1-2.5c0.4-0.5,0.9-1.6,1.1-2.1c0.1-0.2,0.1-0.3,0.1-0.3s0-2.2-0.5-2.9
		c-0.4-0.7-0.8-1.1-0.8-1.5c0-0.4,0.2-1.3,0.7-2c0.1-0.2,0.3-0.5,0.5-0.8c1.3,0.4,2.6,0.8,3,0.8c0.8,0.1,1.9,0.3,2.3,0.2
		c0.4-0.1,1.5-0.3,1.9-0.7c0.4-0.4,2.7,0,2.7,0s1.6,0.9,2,1.4c0.4,0.5,0.6,0.8,1.4,2c0.8,1.2,1.7,1.3,2.3,1.5c0.6,0.2,0.6-0.2,1.1-1
		c0.5-0.7,1-1.1,1.5-1.6c0.1,0.1,0.1,0.2,0.2,0.2c0,0.4,1.3,0.9,1.4,0.9c0.1,0,0.8-0.3,1.4-0.6c0.7-0.3,0.9,0.6,1.1,0.9
		s0.8,0.9,1.5,1.1c0.7,0.2,3.5-1.6,4.2-2.1c0.8-0.5,1.3-1.2,1.9-2c0.5-0.8,1-0.8,1.8-1.6c0.8-0.8,1.7,0.2,2.3,0.2
		c0.7,0,1.3,1.4,1.3,1.8c0,0.4-0.3,0.7-0.5,0.8c-0.2,0.1-0.9,0.4-1.2,0.8c-0.3,0.4,0,0.7,0,1c0,0.3-0.5,0.5-0.9,0.8
		c-0.4,0.3-0.6,1-0.5,1.2c0,0.1,0.7,0.7,0.9,0.9c0.3,0.2,0.2,1.7,0.4,2c0.2,0.2,0.8,0.6,1.4,0.6s0.8-0.5,1.2-0.8c0.4-0.2,1,0,1.3,0
		c0.3,0,1.2-0.7,1.2-1.3s0.3-1.3,0.7-1.7c0.4-0.5,0.6-0.6,1.1-1c0.5-0.4,0.7-0.3,1.7-0.1c1,0.2,1.8,0,2.3,0c0.5,0,1,0,1.4-0.2
		c0.4-0.2,1.9-0.5,2-0.5s1.1-0.1,1.5-0.8c0.4-0.7,0.2-1,0.3-1.2c0.1-0.2,1.1-0.7,1.8-1.1s1.3,0,1.3,0s2.2,1.2,2.3,1.2
		C381.8,131.8,382.5,132,383.2,132.3z M359.7,104.7c0,0-1.9,0.4-2.8,0.4c-0.9,0-1.1-0.3-1.5,0.4c-0.4,0.7-0.8,1.8-1,2.6
		c-0.2,0.8-0.6,1.1-1.5,2.6c-0.9,1.4-1.2,2.3-1.7,3.2c-0.5,0.8-0.5,1.3-1.3,1.9c-0.9,0.6-0.8,0.5-2.3,1.5c-1.4,1-1.9,1.8-1.8,2.3
		c0,0,0,0.1,0,0.1c0.1,0.5,0.2,1.2,0,1.8c-0.2,0.6-0.7,1.3-0.7,1.9c0,0.6,0.8,0.7,0.3,1.3c-0.5,0.6-1,0.5-1.1,1
		c-0.1,0.4,0.2,0.6,0.6,1.4c0.4,0.8,1.4,2.4,1.1,3.1c-0.3,0.8-0.8,1.4-1.3,2c0,0-0.1,0.1-0.1,0.1c-0.4,0.5-1,0.9-1.5,1.6
		c-0.5,0.8-0.5,1.2-1.1,1c-0.6-0.2-1.5-0.3-2.3-1.5c-0.8-1.2-1-1.4-1.4-2c-0.4-0.5-2-1.4-2-1.4s-2.3-0.4-2.7,0
		c-0.4,0.4-1.5,0.6-1.9,0.7c-0.4,0.1-1.5-0.2-2.3-0.2c-0.4,0-1.7-0.4-3-0.8c0.4-0.6,0.8-1.1,0.9-1.4c0.2-0.4,1.3-3.6,0.6-4.4
		c-0.7-0.8-2,0-2.7-1.8c-0.7-1.8-1.1-3.4-1.1-4.4c0-1-0.4-1.5-0.7-2.1c-0.3-0.7-0.5-2.2-0.3-3.2c0.2-1,0.6-2.5,0.2-3.2
		s-1.8-2.1-2.5-2.7s-0.7-2.3-0.7-2.6c0-0.3,0.1-2.3,0.6-3.2c0.4-0.9,1.5-2.3,0.9-3.4c-0.6-1.1-1.4-2.2-1.7-2.9
		c-0.3-0.7-0.8-1.7-0.8-3c0-1.2,0.4-4.4,0.6-5c0.1-0.3,0.2-0.9,0.2-1.4c0.1,0,0.2,0,0.4,0c0.4,0,0.8-0.1,1.3-0.2
		c0.2,0,0.4-0.1,0.6-0.1c0.4,0,0.7-0.1,1.1-0.2c0.2,0,0.4,0,0.5-0.1c0.3,0,0.6-0.1,0.9-0.1s0.6-0.1,0.8-0.1c0.1,0,0.2,0,0.4,0
		c0.2,0,0.5,0,0.7-0.1c2-0.2,5.7,0.1,6.4,0.2c0.8,0,4.2,2.8,6.1,4c1.9,1.2,4.7,3.5,5.1,3.7c0.4,0.2,1.8,0.9,2.1,1
		c0.3,0.1,1.1,1.2,1.1,1.2s2.2,2.4,2.8,3.1c0.6,0.7,1.3,1,2.3,1.5c1,0.5,2.3,1.4,2.9,2c0.2,0.2,0.4,0.4,0.8,0.7
		c0.1,0.1,0.2,0.2,0.3,0.3c0.2,0.1,0.3,0.3,0.5,0.5c0.4,0.4,0.8,0.8,1,1C358.4,103.7,359.1,104.3,359.7,104.7z M70.4,155.7
		c-0.3,0.2-0.5,0.4-0.7,0.7c-0.5,0.8-1,1.3-1.3,1.7c0,0,0,0,0,0c-0.2,0.4-1.7,1.4-1.9,1.5c-0.1,0.1-2.5,0.2-3,0.2
		c-0.5,0-1,0.6-1.3,1.2c-0.3,0.5-1,0.9-1.4,1.3c-0.4,0.4-0.8,0-1.2,0s-1.9,0.1-2.9,0.3c-1,0.2-0.3,1.5-0.4,2c0,0.5-3.1,3.1-5.3,3.4
		c-2.2,0.3-0.5-1.1-0.9-1.7c-0.4-0.6-1.7,0.4-2,0.4c-0.3,0-1.7-0.9-2.1-1.1c-0.4-0.2-1.3-0.1-1.6-0.1c-0.2,0-2.2,0.6-2.6,0.4
		c-0.5-0.2-1.6-0.8-1.9-0.8c-0.3-0.1-1.3,0-2.1,0.9c-0.8,0.9-1.2,0.8-2,0.8c-0.8,0-3.1-0.2-3.2-0.9s-0.3-4.1-0.3-6
		c0-1.9,0.4-2.8,0.5-3.7c0.2-0.9-0.3-1.3-0.4-2.3c0-1,0.6-1.3,0.6-1.8c0-0.6-0.4-1.1-0.8-1.1c-0.4,0-1.6,1-2.3,1.7
		c-0.8,0.6-2.5,1.9-3.1,2.8c-0.7,0.9-2.4,1.5-3.9,1.7c-1.5,0.2-4.9,0.1-5.9-0.4c-1-0.5-1-3.8-1.6-4.8c-0.5-1-2.3-0.7-3.7-0.9
		c-1.4-0.2-4-0.2-4.4-0.7c-0.5-0.5,1.2-1.7,1.7-2.6c0.6-1,0.1-1.5-0.8-2.7c-0.8-1.2-2.5-2.6-2.8-3c-0.3-0.4-1.6-1-1.8-1.6
		c-0.3-0.5-0.8-1.8-1.2-2.6c-0.4-0.8-0.3-1.3-0.3-1.8c0-0.6-0.1-1.4-0.7-1.8C1,133.9,0,132.5,0,131.8c0-0.7,0.2-1.1,1-1.8
		c0.8-0.7,0.4-1,0.4-1.5c0,0,8.7,2.8,10,3.5c1.3,0.7,11.1,2.9,13.6,3.3s8,1.1,9.3,2.2c1.3,1.1,6,3.2,8.3,5.3
		c2.3,2.1,15,7.3,17.8,8.6c2.8,1.3,7.1,2.8,7.1,2.8l1.7,0.9L70.4,155.7z M234.6,45.7c-0.2,1.1-1,1.8-0.9,2.8c-0.3,0.1-0.6,0.2-1,0.3
		c-0.9,0.1-1.5,0.5-2.4,0.8c-0.8,0.2-1.7,1.9-1.9,2.4c-0.2,0.5-1,1.4-1.6,1.8c-0.6,0.4-1.4,0.5-2.2,0.9c-0.8,0.4-1.6,1.1-1.9,1.7
		c-0.3,0.7-1.1,3.2-1.1,3.2s-1.6,1.3-2.1,1.7c-0.5,0.5-1.1,1.8-1.9,4.4c-0.8,2.6-2.8,1.1-2.8,1.1s-3.2-0.8-3.8-1.1
		c-0.7-0.3-0.8-2.4-0.8-2.8c-0.1-0.4-0.7-0.9-0.9-1.1s-0.7-1.7-0.7-2.5s-3.5-3.2-4-4.2c-0.5-1-0.8-1.6-0.6-2c0.2-0.4,0-2.8,0-3.6
		c0-0.9-0.8-1.4-1.3-2c-0.5-0.6-1.7-1.7-1.7-2c0-0.3-1.4-3-1.7-3.4c-0.3-0.4-2.3-1-2.3-1s-2.2-0.6-2.8-0.9c-0.6-0.3-2.4-2.6-3.3-3
		s-3,0.8-3.7,0.7c-0.7-0.1-0.8-2.4-0.2-3.4c0.5-0.9,0-2.7,0-2.9l0,0c0.7,0.7,1.3,1.3,1.3,1.3s3.8,0.8,4.1,0.7
		c0.3-0.1,3.7-0.6,4.2-0.8c0.6-0.2,3.9,0.1,3.9,0.1s2.3,0.7,2.7,0.7s3.8-1.1,4.6-2s2.6-2.8,3.2-5.5c0.7-2.7,4.7-8.3,5.5-8.9
		c0.8-0.7,1.8-3.1,1.9-4.1c0.1-1,1-1.1,1-1.1l3.2,2.2l0.3,1c0,0,0.2,1.4,0.2,1.9c0,0.5,0,1.5,0,2.2c0,0.7,0.4,2.5,0.6,4.4
		s1.5,4.4,1.5,5s0.9,1.3,1.1,2s0.5,1.7,0.7,1.9c0.2,0.2,1.2,0.1,1.5,0.1c0.3,0,1.3,0.4,1.6,0.6c0.3,0.2,0.4,1.5,0.8,2.8
		c0.4,1.4,0.8,0.8,1,0.8c0.2,0,2.1,0.9,2.5,1.2c0.4,0.3,0.6,2.3,0.8,3.4C235.3,42.5,234.6,45.7,234.6,45.7z M147.4,43l-0.7,10.4
		c0,0-0.1,0-0.3,0c0,0-0.1,0-0.1,0c0,0,0,0-0.1,0c0,0-0.1,0-0.1,0c0,0-0.1,0-0.1,0c-0.1,0-0.2,0-0.3,0c-0.6-0.1-1.4-0.2-2.3-0.3
		c-0.1,0-0.2,0-0.3,0c-0.2,0-0.5,0-0.8-0.1c-0.1,0-0.3,0-0.5,0c-0.1,0-0.3,0-0.4,0c-0.2,0-0.5,0-0.7,0c0,0-0.1,0-0.1,0
		c-0.1,0-0.2,0-0.2,0c-0.3,0-0.6,0-0.9,0c-2,0-3.7,0.1-3.9,0.7c0,0-1,3.3-1.7,4.3c-0.7,1.1-2.3,3.7-1.9,4.1c0.4,0.4,1.1,0.6,1.2,1
		c0.1,0.4-0.7,1.1-1.2,1.3c-0.5,0.2-1.4,0.5-1.8,0.5s-1.5-0.8-1.5-0.8s-0.6-1.5-1.2-1.8s-3.4-1.5-3.8-1c-0.4,0.4-2.5,1.4-2.7,2.4
		c-0.2,1,0.3,1.6,0.4,2.3s-0.2,1.1-0.4,1.5c-0.3,0.3-0.4,0.6-0.4,1.2s0,0.8,0.6,1.7c0.6,0.8,0.9,1.2,0.7,1.5c-0.3,0.3-0.8,0-1.3-0.3
		c-0.4-0.3-0.7-1.6-1.5-1.6c-0.8,0-1.2,0.2-1.5-0.1c-0.2-0.3-1.4-2.1-1.5-2.3c-0.1-0.2-1.1-1.6-2.1-2.1c-1-0.5-2.7-1.2-2.5-1.6
		c0.2-0.4,1.8-1.3,2.4-1.7c0.6-0.4,0.9-1.3,0.9-1.8c0-0.6,0.4-1.7-0.7-2.7c-1.1-1-2.1-4.1-2.1-5c0-0.9-0.5-1.3-0.5-1.9
		c0-0.6-0.5-1.6,0-2.4c0.5-0.8,1.5-2.1,1.2-2.5c-0.3-0.4-1.1-2.3-1.4-2.5c-0.3-0.2-2.9-2.2-2.9-2.2s0.1-1.3,0.6-2.4
		c0.4-1.1,0.8-1.8,0.3-2.3c-0.6-0.5-2.1-1.2-2.3-1.3c-0.3,0-2.1-0.6-2.1-0.6s-1.3-0.7-1.6-0.8c0.1-0.7,0.2-1.5,0.3-1.7
		c0.1-0.4-0.6-0.9-0.7-0.9c-0.1-0.1-1.4,0.2-1.7,0.4c-0.3,0.3-1.7,0-2.6-0.1c-0.1,0-0.2,0-0.3-0.1h0c0,0-0.1,0-0.2,0c0,0,0,0,0,0
		c0,0-0.1,0-0.1-0.1c0,0,0,0,0,0c0,0,0,0-0.1,0c0,0,0,0-0.1,0c-0.1-0.1-0.1-0.1-0.2-0.2l0,0c0,0,0-0.1-0.1-0.1c0,0,0-0.1-0.1-0.1
		c0,0,0,0,0,0c0,0,0,0,0-0.1c-0.1-0.2-0.1-1.2,0-1.6c0.2-0.4,0.1-1.1,0-1.7s-1-1.2-1.7-1.8c-0.6-0.6-0.6-2.1-0.6-2.2s0-1.1,0-1.5
		c0-0.3,0.5-0.5,0.7-0.9c0.2-0.4,0.2-0.9,0.1-1.2c0-0.3-1.7-1.4-2.6-2.2s-2.4-1.8-3.6-3c-1.2-1.2-0.5-1.9-0.5-1.9s1.9,1.3,2.7,1.6
		c0.8,0.2,1.9,0.4,2.8,0.4c0.9,0,0.8,0.5,0.9,0.6c0,0.1,1.3,1.4,1.4,1.5c0.1,0.1,1-0.4,1.2-0.5c0.2-0.1,2.1,0.6,2.2,0.7
		c0.2,0,1.3,0.3,1.6,0.2c0.2-0.1,1.5-0.9,1.8-1.1c0.4-0.1,0.9,0.6,1.1,0.7c0.1,0.1,1.8,1.7,1.9,2.1c0.1,0.4,0.6,0.9,0.6,0.9
		s0.6-0.2,0.7-0.5c0.1-0.2,0.6-0.5,0.8-0.6c0.1,0,0.7,0.4,1,0.2c0.4-0.2,0.2-2.6,0.2-3.1c0-0.4,2.2-1.5,2.5-1.7
		c0.3-0.1,2.4,0.4,2.4,0.4s1.7,0.1,2.1-0.2c0.5-0.2,2.2-0.8,2.6-0.9c0.5-0.1,1.3-0.7,1.6-1.2c0.3-0.5,2.1-0.9,2.4-1.1
		c0.3-0.2,2.1-0.2,3-0.4c0.9-0.1,0.4-0.9,0.5-1.3c0.1-0.4,2.6-1.9,3-2.3c0.5-0.4,0.6-0.9,0.6-1.3c0-0.4-0.4-0.7-0.5-1
		c-0.2-0.3,0.1-0.9,0.3-1c0.2-0.1,1.5-0.2,1.7-0.4c0.2-0.2,2.1,0,2.6,0.2c0.5,0.2,1.4,2.8,1.4,2.9c0,0.1-0.8,1.7-1.1,2.3
		c-0.4,0.6-0.4,1.5-0.4,1.5s3.3,0.7,3.5,0.8c0.2,0.1,0.2,0.5,0.2,1c0,0.4,0.2,1.4,0.4,1.9c0.1,0.5,1.8,1.7,1.8,2.4
		c0,0.7-2.7,2.1-2.7,2.1s-0.2,1.5-0.2,1.7c0,0.2,0.2,1.1,0.1,1.7s-1,1.5-1.2,2.3c-0.2,0.9-0.5,4.1-0.5,4.3c0,0.2,0.1,2.2,0.3,2.7
		c0.2,0.5,2,1.6,2.3,2.3c0.3,0.8-0.2,2.2-0.2,2.2s0.8,1.8,1,2.1c0.2,0.3,1.7,1.7,2,2.1c0.2,0.4,1.9,1.7,2.3,1.8
		c0.3,0.2,2.1,0.9,2.3,1C145.8,42.6,146.7,42.8,147.4,43z M260.4,213.7c0,0,0,1.1,0,1.3c0,0.2-0.3,0.3-0.6,0.6
		c-0.2,0.2-0.2,1.3-0.2,1.6c0,0.3,0.5,0.7-0.1,0.9c-0.6,0.2-1.7,0.3-2.3,0.3s-1.7-0.1-3.3-0.3c-1.6-0.2-2.9-0.2-3.3-0.3
		c-0.4-0.1-0.8-0.9-0.4-1.5c0.5-0.6,0.7-0.7,0.9-0.9c0.2-0.1,0.7-0.4,0.7-0.6c0-0.1-0.2-0.9,0.1-1.5c0.3-0.5,0.9-1.3,1.5-1.3
		s2.5-0.1,2.8,0c0.2,0.1,1.2,0.4,1.4,0.4c0.2,0,1.7,0.1,1.7,0.1L260.4,213.7z M380.1,146.6c-1.2,2-2.7,4.6-3,5.1
		c-0.4,0.7-3.5,3-4.2,3.7c-0.7,0.8-4.1,4.9-5.3,6.6c-0.1,0.1-0.1,0.2-0.2,0.3c-0.5-0.5-1-1.1-1.2-1.3c-0.2-0.4-1.3-1.3-1.5-1.7
		s-2.3-1.5-2.7-1.8c-0.4-0.3-2.8-1.3-3.7-2.1c-0.2-0.2-0.6-0.4-0.9-0.6c-0.1-0.1-0.3-0.1-0.4-0.2c-0.2-0.1-0.5-0.2-0.8-0.4
		c-0.4-0.2-0.8-0.3-1.1-0.5c-0.2-0.1-0.3-0.2-0.5-0.3c0,0-0.1,0-0.1-0.1c-0.2-0.1-0.3-0.2-0.5-0.3c-0.8-0.6-2.1-0.8-3.2-0.9
		c0-0.1,0-0.2,0-0.2c0-0.4-0.8-1.1-1.2-1.7c-0.1-0.1-0.1-0.2-0.2-0.3c0,0,1.2-0.5,1.4-1c0.2-0.5,0.5-0.7,0.5-0.8
		c0.1,0,0.9-0.2,1.1-0.3c0.1-0.1,0.3-0.4,0.5-0.6l0,0c0-0.1,0.1-0.2,0.2-0.2c0-0.1,0.1-0.2,0.1-0.2c0.2-0.4,0.9-1.3,1-1.2
		c0.1,0,1.4,1.1,1.5,1.2c0.1,0.1,0.4,1.1,0.7,1c0.2-0.1,1.7,0,1.8,0.2c0.1,0.2,1.1,0.8,1.3,1.1c0.2,0.3,0.8,0.8,1.1,0.9
		c0.3,0.1,0.3,0.2,0.9,0.2c0.6,0,1.6,0.2,2,0c0.4-0.2,1.7-0.9,2.1-0.9c0.4,0,1.2,0.2,1.8-0.1s1.1-0.5,1.5-0.9c0.4-0.5,1-1,1.4-1.5
		c0.4-0.4,0.6-0.8,1.3-0.9c0.6-0.1,1.4-0.1,1.6-0.1c0.1,0,1.6-0.5,1.6-0.5s0.9-0.7,1.4-0.7c0.5,0,1.6,0.4,1.7,0.5
		c0.2,0.1,1.6,0.7,1.6,0.7L380.1,146.6z M383.2,132.3c-0.7-0.3-1.5-0.6-1.5-0.6c-0.1,0-2.3-1.2-2.3-1.2s-0.6-0.3-1.3,0
		s-1.7,0.9-1.8,1.1c-0.1,0.2,0.1,0.5-0.3,1.2c-0.4,0.7-1.3,0.8-1.5,0.8s-1.6,0.3-2,0.5c-0.4,0.2-0.9,0.2-1.4,0.2s-1.4,0.2-2.3,0
		c-0.9-0.2-1.2-0.3-1.7,0.1c-0.5,0.4-0.7,0.5-1.1,1c-0.4,0.5-0.7,1.1-0.7,1.7c0,0.6-0.9,1.3-1.2,1.3s-1-0.2-1.3,0
		c-0.4,0.2-0.7,0.8-1.2,0.8c-0.5,0-1.2-0.3-1.4-0.6c-0.2-0.2-0.1-1.7-0.4-2c-0.3-0.2-0.9-0.8-0.9-0.9c0-0.1,0.1-0.8,0.5-1.2
		c0.4-0.3,0.9-0.5,0.9-0.8c0-0.3-0.3-0.6,0-1c0.3-0.4,1-0.7,1.2-0.8c0.2-0.1,0.5-0.4,0.5-0.8c0-0.4-0.6-1.8-1.3-1.8
		c-0.7,0-1.5-1-2.3-0.2c-0.8,0.8-1.3,0.8-1.8,1.6c-0.5,0.8-1.1,1.5-1.9,2c-0.8,0.5-3.5,2.3-4.2,2.1c-0.7-0.2-1.3-0.8-1.5-1.1
		c-0.2-0.2-0.4-1.2-1.1-0.9s-1.3,0.6-1.4,0.6c-0.1,0-1.4-0.5-1.4-0.9c0,0-0.1-0.1-0.2-0.2c0,0,0.1-0.1,0.1-0.1
		c0.5-0.6,0.9-1.3,1.3-2c0.3-0.8-0.7-2.3-1.1-3.1c-0.4-0.8-0.7-1-0.6-1.4c0.1-0.4,0.6-0.4,1.1-1c0.5-0.6-0.2-0.7-0.3-1.3
		c0-0.6,0.4-1.3,0.7-1.9c0.2-0.6,0.1-1.3,0-1.8c0,0,0-0.1,0-0.1c0.1,0,0.3,0,0.6-0.1c0.6-0.2,0.8,0.2,0.8,0.2s1.5,1.3,1.6,1.5
		c0.1,0.2,1.5,0.4,1.7,0.4c0.2,0,1-0.3,2-0.9c1-0.6,0.5-0.5,0.9-1.1c0.4-0.6,0.6-0.9,1-1.1c0.5-0.2,1.3-0.2,1.7-0.4s0.8-0.4,1.2-0.8
		s1.4-0.6,2.5-0.9c1.1-0.4,0.3,1.1,0.3,1.3c0,0.1-0.3,1-0.3,1.3s-1.1,0.2-1.5,0.4c-0.4,0.2-0.1,0.6-0.6,1.3
		c-0.5,0.7-0.4,0.5-0.4,0.8s0.1,1.3,0.2,1.5s0.6,1.2,0.8,1.4s0.6,0,0.6,0s1.3-0.5,1.5-0.5c0.2,0,1,0.7,1.4,0.7c0.3,0,0.5-0.5,1-0.8
		c0.5-0.3,0.7,0.2,1,0.4c0.4,0.2,0.2,1.3,0.3,1.7c0.1,0.4,0.8,0.6,1,0.6c0.2,0,0.8-0.6,0.9-0.9c0.1-0.3,0.6-0.3,0.8-0.6
		c0.2-0.3,0-0.5-0.1-0.6c-0.1-0.1-0.4-0.9-0.3-1.2c0-0.2,0.4-0.4,0.5-0.6c0.1-0.2,0-0.5-0.4-1c-0.1-0.2-0.2-0.2-0.2-0.2
		c0,0,0,0.1-0.1-0.1c-0.3-0.4-0.1-0.6,0-1.2c0.1-0.6,0.7-0.5,1.1-0.6c0.4-0.1,0.9,0.6,1.2,0.9c0.3,0.3,0.6,0.4,0.6,0.4
		s0.7-0.1,1.3,0c0.6,0.1,0.7,0,0.7,0s1.2,0.6,1.4,0.6s2.1,0,2.3-0.1c0.2-0.2,1.1,0.1,1.2,0c0.1-0.1,1.5,1.1,1.5,1.1s1-0.1,2.1-0.2
		c0.6,0,1.3-0.2,1.9-0.5c0.5,1.6,0.9,3.2,1.1,4.2c0.5,2.3,0.5,4.4,0.7,6.1C383.2,131.9,383.2,132.1,383.2,132.3z M381.4,121.6
		c-0.6,0.2-1.3,0.4-1.9,0.5c-1.1,0.1-2.1,0.2-2.1,0.2s-1.4-1.2-1.5-1.1c-0.1,0.1-1-0.2-1.2,0s-2.1,0.1-2.3,0.1
		c-0.2,0-1.4-0.6-1.4-0.6s-0.1,0.1-0.7,0c-0.5-0.1-1.3,0-1.3,0s-0.3-0.1-0.6-0.4c-0.3-0.3-0.9-1-1.2-0.9c-0.4,0.1-1,0-1.1,0.6
		c-0.1,0.6-0.3,0.8,0,1.2c0.2,0.2,0.1,0.1,0.1,0.1c0,0,0.1,0.1,0.2,0.2c0.4,0.6,0.5,0.8,0.4,1c-0.1,0.2-0.5,0.4-0.5,0.6
		c0,0.2,0.2,1.1,0.3,1.2c0.1,0.1,0.3,0.3,0.1,0.6s-0.7,0.3-0.8,0.6c-0.1,0.3-0.7,0.9-0.9,0.9c-0.2,0-0.9-0.2-1-0.6
		c-0.1-0.4,0.1-1.5-0.3-1.7c-0.4-0.2-0.5-0.8-1-0.4c-0.5,0.3-0.7,0.8-1,0.8c-0.3,0-1.2-0.7-1.4-0.7s-1.5,0.5-1.5,0.5s-0.3,0.2-0.6,0
		c-0.2-0.2-0.6-1.3-0.8-1.4c-0.2-0.1-0.2-1.2-0.2-1.5s-0.1-0.2,0.4-0.8c0.5-0.7,0.2-1.1,0.6-1.3c0.4-0.2,1.5,0,1.5-0.4
		s0.3-1.2,0.3-1.3s0.8-1.6-0.3-1.3c-1.1,0.4-2.1,0.5-2.5,0.9c-0.4,0.5-0.8,0.5-1.2,0.8c-0.5,0.3-1.3,0.2-1.7,0.4
		c-0.5,0.2-0.6,0.5-1,1.1c-0.4,0.6,0.1,0.5-0.9,1.1c-1,0.6-1.7,0.9-2,0.9c-0.2,0-1.6-0.2-1.7-0.4s-1.6-1.5-1.6-1.5s-0.2-0.4-0.8-0.2
		c-0.2,0.1-0.4,0.1-0.6,0.1c0-0.5,0.4-1.3,1.8-2.3c1.5-1,1.4-0.9,2.3-1.5c0.9-0.6,0.8-1.1,1.3-1.9s0.8-1.7,1.7-3.2
		c0.9-1.4,1.3-1.8,1.5-2.6c0.2-0.8,0.6-1.9,1-2.6c0.4-0.7,0.6-0.3,1.5-0.4c0.9,0,2.8-0.4,2.8-0.4c0.4,0.3,0.8,0.5,1,0.6
		c0.6,0.2,1.8,0.3,2.4,0.9s1.7,0.4,3.4,0.6c1.7,0.2,2.1,0,3.6-0.3c1.5-0.3,3.8,0.1,4.6,0.2c0.8,0.2,2.6,2.6,3.1,3.4
		c0.5,0.8,1.5,4.5,2,6.1C380.1,117.1,380.8,119.4,381.4,121.6z M367.4,162.2c-0.1,0.1-0.2,0.2-0.3,0.3c0,0-0.1,0.1-0.2,0.1
		c-0.1,0.1-0.2,0.1-0.3,0.2c0,0-0.1,0-0.1,0c0,0-0.1,0-0.1,0c-0.4,0-0.6-0.2-1-0.1c-0.3,0.1-1.1,0.8-1.7,1.3c-0.5,0.4-0.9,0.8-1,0.9
		c-0.1,0.1-0.4,0.4-0.7,0.8c-0.6,0.8-1.2,1.8-1.4,2.3c0,0.1-0.1,0.2-0.2,0.4c0,0.1-0.1,0.2-0.1,0.2c0,0,0,0,0,0.1
		c0,0-0.1,0.1-0.1,0.2c-0.2,0.4-0.5,0.9-0.8,1.5c-0.1,0.2-0.3,0.5-0.4,0.8c-0.1,0.1-0.1,0.3-0.2,0.4c-0.1,0.2-0.2,0.5-0.4,0.7
		c-0.5,0-0.9-0.1-1.1-0.2c-0.5-0.2-1.5,0.2-1.7,0c-0.2-0.2-2.4,0-2.4,0s-1.1-0.7-1.7-1.8c-0.6-1.1-0.4-0.7-0.6-1.3
		c-0.2-0.6-0.2-1-0.6-1.7c-0.3-0.7-0.5-0.7-0.8-1.3c-0.3-0.6-0.7-1.4-0.7-2.2c0-0.8,0.9-0.3,1.7-0.6c0.7-0.2,0.7,0,0.7,0
		s0.8,0.5,1,0.6s1.3-0.3,1.4-0.8c0-0.6-0.1-0.7-0.4-1.7c-0.3-1,0-0.8,0-0.8s0.8-1.3,0.8-1.7c0-0.4-0.2-0.8-0.5-1.1
		c-0.1-0.1-0.3-0.4-0.6-0.7l0,0c-0.4-0.5-0.9-1.1-1.1-1.3c-0.4-0.3-0.7-1.5-0.7-2c0-0.5-0.3-1.4-0.4-1.9c1,0.1,2.4,0.4,3.2,0.9
		c0.1,0.1,0.3,0.2,0.5,0.3c0,0,0.1,0,0.1,0.1c0.2,0.1,0.3,0.2,0.5,0.3c0.4,0.2,0.8,0.4,1.1,0.5c0.3,0.1,0.6,0.2,0.8,0.4
		c0.1,0.1,0.3,0.1,0.4,0.2c0.4,0.2,0.7,0.4,0.9,0.6c0.9,0.9,3.3,1.8,3.7,2.1c0.4,0.3,2.5,1.5,2.7,1.8c0.2,0.3,1.3,1.3,1.5,1.7
		C366.3,161.1,366.9,161.7,367.4,162.2z M335.9,242.2c-0.5,1-0.1,2.6,0,3.5c0.1,1,0,5.3,0,5.3s-0.3,2.6-0.5,3
		c-0.1,0.4-2.8,1.7-3.3,2.3c-0.5,0.6-1.1,2-1.9,3.2c-0.8,1.2-1.7,3.7-2.5,4.8c-0.7,1.1-1.5,1.2-2,2c-0.2,0.3-0.4,0.7-0.5,1.1
		c-0.1,0.5-0.2,0.9-0.2,0.9s-1.4,1.1-2,2.7h-1l-2.2-0.6c0,0-0.1,0-0.4,0c-0.8,0-2.7-0.2-3.3-0.5c-0.8-0.3-0.7-0.4-0.7-1.4
		c0-1-0.5-1.5-0.8-1.9c-0.2-0.4,0-1.3-0.1-1.8c0,0,0-0.1,0-0.1c-0.2-0.5-0.6-2.3-0.6-2.9c0-0.6,1.3-0.8,2.3-1.2c1-0.4,1.4-0.1,2-0.8
		c0.6-0.7,1.6-1.6,1.9-1.8c0.3-0.2,0.2-1.9,0.7-2.6c0.4-0.7,1.3-2.1,2.3-3.7c1-1.6,0-2.1-0.1-2.8c-0.1-0.7-1.9-1.7-2.7-2.1
		c-0.8-0.4,1.5-0.2,2.2-0.9s0-1.1-0.1-1.7s-0.5-1.1-1-1.3c-0.5-0.2-0.5-1.5-0.5-2.3c0-0.8,1.5-1,2.2-1.2s0.8-0.1,1.5,0
		c0.8,0.1,0.4-0.2,0.5-0.5s1.5-1.7,1.5-1.7l3.5,0.4c0,0,0.1,0.1,0.2,0.2c0.5,0.4,1.9,1,2.2,1.4c0.3,0.5,3.1,2,3.1,2l0.5,0.3
		C336.1,241.8,336,242,335.9,242.2z M275.9,160c-0.4,0.6-1.6,1.6-2.4,2.5c-0.8,0.9-3,2.7-3.5,3.4c-0.6,0.7-2.8,3.7-2.5,4.3
		s1.5,1.2,1.9,1.5c0.4,0.3,2.1,0.3,2.4,0.6c0.2,0.3,1.2,1.3,0.6,1.5c-0.6,0.2-2.3,0.2-2.5,0.3c-0.2,0.2-0.1,1.1-0.1,1.1
		s2.6,0.5,2.2,1.5c0,0.1,0,0.1-0.1,0.2c-0.1,0.1-0.2,0.3-0.4,0.3c-0.1,0-0.2,0.1-0.3,0.1c0,0-0.1,0-0.1,0c-0.2,0-0.3,0.1-0.5,0.1
		l0,0c0,0-0.1,0-0.1,0c-0.1,0-0.1,0-0.2,0c-0.2,0-0.3,0.1-0.3,0.2c-0.1,0.3,0.8,3.3,1.1,3.4c0.2,0.2,0.9,0.3,1,0.6
		c0.1,0.3,0.5,0.6,0,1.1c-0.5,0.6-0.7,1.4-0.7,1.8c0,0.4,0.4,0.8,0.7,0.9c0.2,0.1,0.6,0.8,0.4,1.1c-0.2,0.2-0.3,0.3-0.6,0.7
		c0,0-1.8-0.4-2.6-0.4c-0.8,0-1.7,0.1-2.4,0.2c-0.8,0.2-2.3,1.4-2.9,2.1c-0.7,0.7-2.1,0.4-2.8,0.4c-0.8,0-1-0.2-1.5-0.7
		c-0.5-0.4-1.1-0.3-1.8-0.3s0.3,1.3,0,1.7c-0.3,0.4,0.2,0.7,0,1.3c-0.2,0.6-1.3-0.6-1.3-0.6s-4.1-1.5-4.6-1.5
		c-0.5,0-0.9,0.3-1.3,0.4c-0.3,0.1-1.7,0.2-2.7-0.7s0-1.2,0-1.7c0-0.5-0.9-1.4-1.4-1.6c-0.5-0.2-0.5,0.7-1.3,1.2
		c-0.8,0.5-0.6-0.2-1.4-1.2c-0.8-1-0.4,0.1-1.4,0.7c-1,0.6-0.9,1.9-1,2.7c-0.2,0.8-0.9,0.6-0.9,0.6l-2-0.9c0,0-1.5-1.6-2.2-2.3
		c-0.7-0.7-2,0-2.3,0c-0.3,0-1.2-0.2-2.2-0.9c-1-0.6-0.2-2,0-2.9c0.2-0.9,0.5-2.2,0.4-2.5c-0.1-0.3-0.8,1-1.4,2
		c-0.6,1-1.2,3.1-1.2,3.1s-0.9-0.4-1.3-0.5c-0.5-0.1-0.2-2.1-0.2-2.1s-0.1-2.7-0.2-5.1c-0.1-1.5-0.1-2.9-0.1-3.4
		c0-1.1-0.9-2.3-0.9-2.8c0-0.4,0.9-1.7,1.3-3.1s0.1-2.9,0.8-5.4c0.5-2,2.1-6.2,2.8-7.8c0,0,0,0,0-0.1c0,0,0-0.1,0-0.1
		c0,0,0-0.1,0-0.1c0.3-0.8,1.3-2.9,1.4-3.3c0.2-0.4,1.3-2.5,2-4.2s1.6-1.4,2.3-1.8c0.8-0.4,0.9-1.3,1.4-2.1c0.5-0.8,1.5-1.4,2.4-2.6
		c0.9-1.2,1.5-4.9,1.3-5.8c-0.2-0.9-1.7-2.1-2-2.7c-0.2-0.6-0.6-1.6-0.5-2c0.1-0.4,1.1-1.7,1.3-3.4c0.2-1.7,0.6-0.8,0.9-1.7
		c0.3-0.8,1.3-1.3,1.9-1.8s2-0.4,2.6-0.9c0.6-0.4,2.5-2.9,3.4-4.1c0.9-1.2,0.8-1.6,0.8-2.2s0-1.2,0.3-1.5c0.3-0.3,1.1-1.1,1.3-1.6
		c0.2-0.5-0.7-1.8-0.9-2s-1.5-1.5-1.8-1.6c-0.3-0.1-2.3-0.2-2.9-0.4c-0.6-0.2,1.5-1,2-1.5c0.4-0.4,1.2-0.9,2-1.8l0.8,1.8
		c0,0,1.4-0.1,2.1,0c0.7,0.1,1-0.9,1.8,0c0.8,0.8,2.4,1.9,2.8,2.6c0.4,0.7,1.3,2.3,1.4,3.4c0.1,1.1-0.1,4.1,0,4.9
		c0.1,0.9,0,2.8,0,2.8s-0.5,4.3-1.3,4.9c-0.8,0.6-2.7,1.3-2.2,1.7c0.5,0.4,1.1,0.8,1.7,0.7c0.7-0.2,0.9-0.8,0.9,0s0,1.3,0.4,2.1
		c0.4,0.9,1.7,2,2,2.5c0.2,0.5,1.6,2.8,1.8,2.6c0.2-0.2,1.3-1.3,2.3-1.6c1.1-0.2,2.3-0.4,2.6,0.2s0.7,1.9,0.8,2.9
		c0.1,1-0.4,2.4-0.7,2.4c-0.2,0-0.8-0.3-1.4,0c-0.6,0.3-0.9-0.2-1.3,0.8c-0.3,0.9-0.2,1.4-0.7,2.3c-0.5,0.9-0.8,1.7-1.3,2.4
		c0,0,0,0.7,0.4,1c0.3,0.3,0.7-0.1,0.9,0.7c0.2,0.8,0.1,1.3,0.4,1.7c0.4,0.4,1.5,0.6,1.7,0.8c0.3,0.2,0.7-0.4,1,0.6
		c0.3,1,0.5,1.3,0.4,1.5c0,0.1-1.1,0.9-1.1,1.3s1,1.1,1.1,1.2c0.1,0,0.5,0.2,0.7,0.8s0.2,1.5,0.5,2c0.4,0.5,1,1.1,1.2,1.1
		s3,0.3,3,0.3s1.5,0,1.7,0c0,0,0.1,0,0.2-0.1l0.1,0.1C275.9,159,276.4,159.4,275.9,160z M223.7,257.5c0,0.3,0.2,1.7,0.2,1.7
		s-0.9,2.1-1.2,2.1s-2.7,0.1-3.5,1.2c-0.8,1.1-0.6,2.8-0.6,3.8c0,0.9,0.7,1.7,0,2.1c-0.7,0.4-0.8-1.1-2.1,0.7
		c-1.3,1.7-1.9,2.3-1.6,2.7s0.3,2.2,0.3,2.2s-1.2,0.4-1.6,0.8c-0.4,0.3-0.6,1.3-0.4,1.7c0.2,0.5-0.2,0.5-1.3,1.4
		c-1.2,0.9-2.7,1.7-3.1,2.1l0,0c-0.1,0.1-0.3,0.3-0.7,0.6c-0.1,0.1-0.2,0.2-0.3,0.3c-0.1,0.1-0.3,0.3-0.5,0.4
		c-0.1,0.1-0.2,0.2-0.3,0.3c-1,0.9-2.3,2-3.3,2.8c-0.1,0.1-0.2,0.1-0.3,0.2l0,0c-0.1,0-0.1,0.1-0.2,0.2c-0.1,0.1-0.3,0.2-0.4,0.3
		c0,0,0,0,0,0c-0.1,0.1-0.2,0.1-0.2,0.2c-0.1,0-0.1,0.1-0.2,0.1c-0.1,0.1-0.2,0.2-0.3,0.2c-1,0.6-3.3,2.3-3.8,2.9
		c-0.5,0.6-1,2.4-1,2.8c0,0.3,0.3,0.9-0.4,1.3c-0.8,0.5-1.6,0.3-1.8,1.4s-0.2,1.7-0.4,2.6c-0.2,0.9,0,1.1-1,1.7c-1,0.6-2,0.6-2,0.6
		c-0.2-0.4-0.9-1.6-1-1.7c0-0.2-2.1-0.1-2.5,0.1c-0.3,0.2-1.6,0.8-1.9,1c-0.4,0.2-2.3-0.1-3.9-0.3c-1.6-0.2-1.3-0.8-1.3-1.5
		c0-0.6-0.5-1.3-0.9-2.1c-0.4-0.8,0.1-1.6,0.1-2c0-0.5,0.1-1-0.2-1.7s-0.9-1.1-0.9-2c0-1,0.4-1.4,0.5-2.4c0.1-1-0.5-1-0.6-1.3
		c-0.1-0.3-0.3-1.2-0.4-1.9c-0.1-0.7-1.3-1.3-2.3-1.8s-0.9,0-1.4,0s-1.9-0.4-2.4-1c-0.5-0.6-1-0.9-1.5-0.9c-0.5,0-0.6,1.3-1.9,1.6
		c-1.3,0.3-5.4,0-6.5,0c-1,0-2-0.7-2.7-1.5c-0.7-0.8-0.7,0-1.5,0c-0.8,0-1.3,0-2,0c-0.8,0-0.6-0.9-0.1-1.1c0.6-0.2,0.6-1.6,0.6-2.3
		c0-0.7-0.4-0.6-0.7-1.2c-0.3-0.6,0.4-1.1,0.4-1.1s0.7-2.4,1-4.1s-0.2-3.1-0.6-3.9c-0.4-0.8-1-1.6-1.7-2.6c-0.8-1-0.7-3.6-0.6-3.9
		c0.1-0.2,2.3-0.6,2.3-0.6s0.5-0.6-0.1-1.3c-0.6-0.6-1.4-0.7-1.9-1.2c-0.5-0.5,0-1.1,0.2-1.6c0.2-0.5,2-4.4,2.4-5.1
		c0.4-0.7,1,0.1,1.3,0c0.4-0.1,0.2-1.5,0-2.4c-0.2-1-0.4-0.8-0.3-1.1c0-0.2,0.4-1.8,0.6-3.1c0.2-1.3,0.5-1.3,0.8-1.5s1-0.7,0.9-1.2
		c0-0.5-0.9-1.1-1.5-1.9c-0.3-0.5-0.4-1.3-0.4-1.8c0.3,0,0.5,0,0.8,0c1.3-0.1,1.8,0,2.7-0.4c0.9-0.4,3.3-2.3,4.1-3.9
		c0.8-1.6,2.8-0.3,3.6-0.3c0.9,0,0.9-0.1,1.3-0.7c0.4-0.6,1.3-0.4,2.2-0.4c0.9,0,5.2,1.4,5.5,1.5s3.2,2.1,4.8,2.2
		c1.6,0.1,1.4-0.4,1.7-0.8s1.5-0.8,2.9-1.2c1.4-0.3,1.4,1.3,2.1,1.7c0.7,0.5,1.4,0.9,1.4,0.9s1.1-0.5,1.6-1.3
		c0.4-0.8,0.9-0.8,0.9-0.8s2.4-2.3,2.7-2.3c0.2,0,0.8,2.2,0.8,2.8c0,0.7-0.6,1.1-1.2,1.7c-0.6,0.7-0.9,1.3-0.9,1.6s1.2,1.6,1.4,1.6
		c0.2,0,2-0.2,2.4-0.2s2.5,0.9,3.4,0.9c0,0-0.9,0.8,0,1.5c0.9,0.8,3.3,0.9,3.3,0.9s-0.4,1.7-0.8,1.9c-0.3,0.2-1.2,0.9-0.5,1.3
		c0.7,0.4,0.6,1.2,1.7,0.7c1.2-0.5-0.1-0.8,1.6-0.6c1.7,0.2,1.9-0.1,2.5,0.8c0.6,0.8,1.8,1.5,3,2.4c1.2,0.9,3.9,1.2,4.5,1.3
		c0.6,0.1,2.3,0.8,2.6,1.2c0.2,0.4,0.4,0.8,1.4,1.3c1,0.5,1.3,1.6,2,2.4c-0.8,0.7-1.5,1-1.5,1.6
		C223.4,255.7,223.7,257.1,223.7,257.5z M231.7,154.9C231.7,154.9,231.7,155,231.7,154.9c0,0.1-0.1,0.2-0.1,0.3c0,0,0,0.1,0,0.1
		c0,0,0,0.1,0,0.1c0,0,0,0,0,0.1c-0.6,1.6-2.2,5.8-2.8,7.8c-0.7,2.5-0.4,4.1-0.8,5.4c-0.3,1.3-1.3,2.7-1.3,3.1
		c0,0.4,0.9,1.7,0.9,2.8c0,0.4,0,1.8,0.1,3.4c0.1,2.4,0.2,5.1,0.2,5.1s-0.2,2,0.2,2.1c0.5,0.1,1.3,0.5,1.3,0.5l-0.9,2.2
		c0,0-0.6,2-0.6,2.5c0,0.5-0.2,1-0.8,2.1c-0.7,1.1-1.4,0.4-1.4,2.8s0.5,2.7,0,3.8c-0.5,1.1-1.6,1.4-1.9,3.2c-0.3,1.7,0,2.8-0.2,3.7
		c-0.2,0.9-3.5,1.5-4.4,2.9c-0.9,1.4-1.1,2.9-1.9,4.6s-1.4,2.8-2.4,3.2c-1,0.4-2.6,0.2-3.5,0.8c-0.9,0.6-1,1.7-2.3,2.3s-2,0.5-2,1.3
		c0,0.8,0.4,0.9,0.4,1.8s0.2,1.9-1.4,3.2c-0.1,0.1-0.2,0.1-0.3,0.2c0,0,0,0,0,0c-0.1,0.1-0.2,0.2-0.3,0.3c-0.1,0.1-0.2,0.3-0.3,0.4
		c-0.1,0.1-0.2,0.3-0.3,0.4c0,0.1-0.1,0.1-0.1,0.2c0,0.1-0.1,0.1-0.1,0.2c-0.1,0.1-0.2,0.3-0.3,0.4c-0.1,0.1-0.2,0.3-0.3,0.5
		c-0.1,0.1-0.2,0.3-0.2,0.5c0,0,0,0,0,0c0,0.1-0.1,0.2-0.2,0.4c-0.1,0.2-0.2,0.5-0.3,0.7c0,0,0,0.1-0.1,0.2c0,0.1-0.1,0.3-0.1,0.4
		c0,0.1,0,0.2-0.1,0.3c0,0.1,0,0.2,0,0.2c0,0.1,0,0.1,0,0.2c0,0,0,0,0,0.1s0,0.1,0,0.1c0,0,0,0.1,0,0.1c0,1.1,0,2.1,0.1,2.8
		c0.1,0.8,0.9,1.8,0.9,2.4s0.5,1.3-0.3,1.3c-0.9,0-2.9-0.9-3.4-0.9c-0.4,0-2.2,0.2-2.4,0.2s-1.4-1.3-1.4-1.6c0-0.2,0.2-0.9,0.9-1.6
		c0.6-0.7,1.2-1.1,1.2-1.7c0-0.7-0.6-2.8-0.8-2.8s-2.7,2.3-2.7,2.3s-0.4,0-0.9,0.8c-0.4,0.8-1.6,1.3-1.6,1.3s-0.7-0.3-1.4-0.9
		c-0.7-0.5-0.7-2.1-2.1-1.7c-1.4,0.3-2.7,0.8-2.9,1.2s-0.1,0.8-1.7,0.8c-1.6-0.1-4.4-2.1-4.8-2.2c-0.3-0.1-4.6-1.5-5.5-1.5
		s-1.7-0.2-2.2,0.4c-0.4,0.6-0.5,0.7-1.3,0.7c-0.8,0-2.8-1.3-3.6,0.3c-0.8,1.6-3.3,3.5-4.1,3.9c-0.8,0.4-1.4,0.3-2.7,0.4
		c-0.3,0-0.6,0-0.8,0c0-0.4,0-0.7,0-0.8c0-0.2-1.7-2.2-2-2.4c-0.1-0.1-0.6-0.2-1.2-0.4c-0.6-0.3-1.5-0.8-2.6-1.7
		c-2.3-1.7-1-1.8-1.3-2.9c-0.3-1-0.7-3.6-0.4-4c0.2-0.4,0.9-0.9,1.3-1.7c0.5-0.9,0.2-1.3-0.1-2.2c-0.3-0.8-1.5,0.8-1.5,0.8
		s-2.1,0-3,0s-9.6-0.5-10.1-0.5c-0.5,0-3.4-0.8-3.5-1.4c-0.1-0.6-0.2-2-0.2-3.6s-0.3-3.1-0.7-3.9c-0.4-0.8-2.9-1.6-2.9-2.3
		c0-0.7,1-0.7,1.7-0.7s0.9-0.4,1-1.7c0-1.4-0.2-2.4-0.6-3.4c-0.4-1-1.2-3.5-1-4.1c0.1-0.6,0-1.9-0.1-2.7c-0.1-0.8-1-1.6-1.1-1.8
		c0-0.1-0.3-0.3-0.7-0.5c0,0-0.1-0.1-0.1-0.1c-0.1,0,1.8-1.1,2.3-1.7c0.5-0.6,0.5-1.8,0.5-2.3c0-0.4,0.8-1.7,1-1.9s1.7-2.6,1.7-3.5
		c0.1-0.9,0-0.5,0.8-1.6c0.8-1.1,0.9-2.3,0.9-3.2c0-0.8-0.6-1.5-1.7-3.6c-1.2-2.1-1.1-1.6-1.1-2.3c0-0.8,0.2-1,0.4-1.3
		c0.2-0.3,0.7-1,0.9-1.9c0.2-0.9,0-1.5,0-1.5s-2.1-0.1-3.4-0.8c-1.3-0.7,0-0.8,0-0.8s-7.7,0-8.7,0c-1,0-1.8-0.2-2.3-0.5
		c-0.5-0.3-0.2-1.7,0.2-2.7c0.5-1,0-1.4,0-2.3s-0.5-1.6-0.9-2.6c-0.3-1,0.6-1.9,0.9-2.3c0.1-0.2,0-0.5-0.3-0.8
		c-0.3-0.4-0.7-0.9-0.7-1.1c0-0.4,0.2-0.7,0.4-1.4c0.2-0.7-0.1-2.2-0.3-2.5c-0.2-0.3-0.7-1.7-0.7-1.7l1.5-1.5c0,0,0-2.3,0-3
		c0-0.2-0.1-0.3-0.2-0.4l19.1-0.3l11.4-0.2c0,0,0.1-0.8,0-1.9c-0.1-1.2,0.2-1.6,0.4-2.3c0.2-0.7,1-2.2,0.6-2.9s-0.8-2.9-0.8-3.2
		c0-0.2,1.4-1.4,1.6-2.3c0.2-0.8-1.6-2.2,0-2.2c0.3,0,0.5,0,0.8,0.1c1.4,0.5,2.7,1.9,2.7,1.9s-0.4,1.7,0,3.2
		c0.4,1.5,0.5,1.9,1.2,2.8c0.7,0.8,0.8,2.6,0.8,3c0,0.4,0.8,2.8,0.9,3.3c0.2,0.4,1,0.3,1.3,0.9c0.3,0.6,0.8,1.6,1.2,2.1
		c0.3,0.5,2.1,0.2,2.3,0.7c0.2,0.5,1.1,2.3,1.1,2.3l2.3,1.1h3.3l46.9,3.4L231.7,154.9z M137.1,179.7c0,0.8-0.2,2.1-0.9,3.2
		c-0.8,1.1-0.7,0.7-0.8,1.6c-0.1,0.9-1.5,3.3-1.7,3.5c-0.2,0.2-1,1.5-1,1.9c0,0.4,0,1.7-0.5,2.3c-0.5,0.6-2.4,1.7-2.3,1.7
		c-0.4-0.3-1-0.6-1.3-0.7c-0.7-0.2-2.1-0.2-2.6-0.4c-0.5-0.1-2.4-0.6-4-0.6s-1.2,0.3-2.1,0.5c-0.9,0.2-2.1-0.9-2.6-1.6
		c-0.5-0.8-1.4-1.4-2-2c0,0,0,0-0.1-0.1c0,0,0,0-0.1-0.1c0,0,0,0-0.1,0c-0.1-0.1-0.3-0.2-0.4-0.2c-0.1,0-0.2,0-0.3-0.1
		c-0.1,0-0.2,0-0.2,0c0,0-0.1,0-0.2,0c-0.1,0-0.1,0-0.2,0c-0.1,0-0.2,0-0.2,0c-0.1,0-0.2,0-0.3,0c-0.3,0-0.5,0-0.6,0
		c-0.4-0.1-2.6-0.5-4.3-1.6c-1.7-1.2-1.8-1.8-2-2.4c-0.2-0.6-1.3-1.1-1.3-1.1s-1.4,0.6-1.6,0.6c-0.2,0-1.6-0.8-2.6-1.5
		c-1-0.7-2.2-0.7-2.8-0.7s-1.6,0.2-2,0.2s-1.7-0.2-2.9-0.8c-1.3-0.6-4.5-2.3-6.4-5.1c-1.8-2.8-1.7-3.1-2.5-4.6
		c-0.8-1.5,0.1-3.4,0.3-3.8c0.2-0.4,0-1.1-0.2-1.7c0-0.1,0-0.1,0-0.2c0,0,0,0,0,0c0,0,0-0.1,0-0.1c0-0.1,0-0.1-0.1-0.2
		c0,0,0-0.1-0.1-0.2c-0.1-0.2-0.2-0.3-0.3-0.5c0-0.1-0.1-0.2-0.2-0.3c-0.2-0.4-0.4-0.8-0.5-1.3c-0.3-1.2,0.6-1.9,0.9-2.3
		c0.3-0.4,0.3-0.9,0-1.5c-0.3-0.6,0-1,0-1.4c0-0.4,0.8-1.6,0.8-2.2c0-0.6-1-1.4-1.5-1.5c-0.4-0.1-1,0.7-1.3,0.8
		c-0.3,0.1-2-0.2-2.5-0.3c-0.5-0.1-3.8,0.1-5,0.2c-1.2,0.2-3.1,0.3-3.1,0.3s-0.5,0.2-1,0.6l-1.2-0.6c0,0,2.7-1.2,3-2.1
		c0.3-0.9,0.4-2.3,1.3-2.6c0.8-0.2,3.6,0.1,3.8,0.4c0.2,0.3,1.3,1.3,1.7,1.4c0.5,0.1,2.8-0.8,2.8-0.8s0.7-0.8,1.1-0.8
		c0.4,0.1,0.8-0.6,1.1,0c0.3,0.6,2.3,0.2,2.6,0c0.2-0.2,0.8-0.9,1.1-2.1c0.2-1.2-0.2-2.2,1-2.3c1.2-0.2,3.2,1,3.2,1s1.3,0.7,1.9,0.2
		c0.7-0.4,0.9-0.7,1-1.3c0.1-0.6,0.4-2.3,0.8-2.6c0.3-0.3,1.7-0.9,1.7-0.9s-0.4-1.7,0-2.3c0.4-0.5,1.7-1.7,1.7-1.7s1.1-0.9,1.4-1.5
		c0.3-0.6,2.9-1.3,3.2-1.3c0.2,0,4.9,1.1,4.9,1.1s1.9,2,2.2,2.5c0.2,0.5,1.8,2.5,2.3,2.6c0.4,0,1.5,0.4,1.9,1.5
		c0.4,1.1,3.3,1.9,3.3,1.9l1.8-1.1c0,0,0.7-0.1,1.1,0.1l0,0c0.1,0.1,0.2,0.2,0.2,0.4c0,0.8,0,3,0,3l-1.5,1.5c0,0,0.4,1.4,0.7,1.7
		c0.2,0.3,0.6,1.8,0.3,2.5c-0.2,0.7-0.4,1-0.4,1.4c0,0.2,0.4,0.7,0.7,1.1c0.2,0.3,0.4,0.6,0.3,0.8c-0.2,0.4-1.2,1.3-0.9,2.3
		c0.3,1,0.8,1.7,0.9,2.6c0,0.9,0.5,1.3,0,2.3c-0.5,1-0.7,2.3-0.2,2.7c0.5,0.3,1.3,0.5,2.3,0.5c1,0,8.7,0,8.7,0s-1.3,0.1,0,0.8
		c1.3,0.7,3.4,0.8,3.4,0.8s0.2,0.6,0,1.5s-0.8,1.6-0.9,1.9c-0.2,0.3-0.4,0.6-0.4,1.3c0,0.8-0.1,0.2,1.1,2.3
		C136.5,178.1,137.1,178.8,137.1,179.7z M174.5,77.3c0,0-1.5,0.9-2.3,1.7c-0.9,0.8-1.5,0.4-1.6,2.2s0.4,2.9-0.6,4.7
		c-1,1.8-6,11.3-7.1,14.3c-1.1,3-7,15-8,17.3c-1,2.3-3.8,4.9-3.8,5.6c0,0.7,0.6,1.8,1,2c0.4,0.2,2.3,4.4,2.3,4.4
		c-0.3-0.1-0.5-0.1-0.8-0.1c-1.6,0,0.2,1.3,0,2.2c-0.2,0.9-1.6,2-1.6,2.3c0,0.2,0.3,2.4,0.8,3.2c0.4,0.8-0.3,2.3-0.6,2.9
		c-0.2,0.7-0.5,1.1-0.4,2.3c0.1,1.2,0,1.9,0,1.9l-11.4,0.2l-19.1,0.3l0,0c-0.4-0.2-1.1-0.1-1.1-0.1l-1.8,1.1c0,0-2.8-0.9-3.3-1.9
		c-0.4-1.1-1.5-1.4-1.9-1.5c-0.4,0-2-2-2.3-2.6c-0.2-0.5-2.2-2.5-2.2-2.5s-4.7-1.1-4.9-1.1c-0.2,0-2.8,0.7-3.2,1.3s-1.4,1.5-1.4,1.5
		s-1.3,1.2-1.7,1.7c-0.4,0.5,0,2.3,0,2.3s-1.3,0.6-1.7,0.9s-0.7,2-0.8,2.6c-0.1,0.6-0.3,0.9-1,1.3c-0.7,0.4-1.9-0.2-1.9-0.2
		s-2-1.2-3.2-1c-1.2,0.2-0.8,1.2-1,2.3s-0.8,1.9-1.1,2.1c-0.2,0.2-2.3,0.6-2.6,0c-0.3-0.6-0.7,0.1-1.1,0c-0.4-0.1-1.1,0.8-1.1,0.8
		s-2.3,0.9-2.8,0.8c-0.5-0.1-1.5-1.1-1.7-1.4c-0.2-0.3-3-0.7-3.8-0.4c-0.8,0.2-0.9,1.7-1.3,2.6c-0.3,0.9-3,2.1-3,2.1l-1.7-0.9
		c0,0-4.3-1.5-7.1-2.8c-2.8-1.3-15.5-6.5-17.8-8.6c-2.3-2.1-7-4.2-8.3-5.3c-1.3-1.1-6.8-1.8-9.3-2.2s-12.3-2.6-13.6-3.3
		c-1.3-0.7-10-3.5-10-3.5c0-0.5,0-0.9,0-2.1c0-1.2,2.2-3,3.1-3.5c1-0.5,3-1.6,3.3-2c0.3-0.5-1.6-2.8-1.3-3.8c0.2-1,1.7-2.6,2-2.8
		c0.3-0.2,0.6-1.3,0.6-2.4s0.8-2.6,0.9-3.3c0.1-0.7,1.4-1.2,2-1.6c0.5-0.4,4.9-2.9,5.5-3.4c0.6-0.4,1.7-1.7,2.3-2.1
		c0.5-0.4,1.7,0,2.5,0s2.5-0.8,3.4-1c0.9-0.2,3.7-0.4,3.8-0.8c0.1-0.4,1-1.3,1.7-1.6c0.6-0.3,2.3-0.6,2.6-0.5c0.2,0.1,0.7,1.1,1,1.7
		c0.4,0.5,2.1,0.3,3,0c0.9-0.3,1.6-4.4,1.9-5.7c0.3-1.3,2.7-12.3,3-14.4s1.3-10,1.6-11.2c0.3-1.1-0.4-1.9-1.3-2.8
		c-0.9-0.9-0.1-1.9-0.1-2.6c0-0.7-1.5-1.9-2.8-2.9s-1.3-1.2-2-2.1c-0.6-1-0.6-6.4-0.6-6.7c0-0.3,2.1-0.9,2.4-1.1s1.6-0.3,1.6-0.3
		s2-0.4,2.2-0.4c0.2,0,1.6,0.4,2.3,0.7c0.8,0.3,0.4-3,0.4-3s-0.1-1-0.3-1.2c-0.2-0.2-1.8-0.8-2.3-1c-0.5-0.2-2.1,0.1-2.7-0.1
		c-0.6-0.2-1.1-0.9-1.4-1.4c-0.3-0.5-0.2-2.1-0.2-3.2s2.1-2.1,2.3-2.1s2.5,0.3,2.9,0.2c0.4,0,10.6,0.2,10.7,0.2
		c0.1,0,0.7-0.3,0.6-0.5c-0.1-0.2-0.7-0.7-0.9-1.1c-0.2-0.4,0.2-0.5,0.5-0.7c0.3-0.2,1.3,0.7,1.7,0.9c0.4,0.2,1.1,0.2,1.3,0
		c0.2-0.1,0.5-0.7,0.7-0.9c0.2-0.2,1.4-0.3,1.6-0.3s0.8-0.7,1-1.2c0.2-0.5,1.1-0.9,1.5-1c0.3-0.1,0.7,0.6,0.7,0.6s0.2,2,0.4,2.5
		c0.2,0.5,1.5,0.7,1.7,0.9c0.2,0.2,0.2,2.5,0.2,2.9c0,0.3,0.2,2.6,0.4,3c0.2,0.4,1,0.2,1.1,0.2c0.1,0,1.6,0.2,2.1,0.3
		c0.5,0.1,1.7,1.7,2.1,2.3s1.8,1.5,2.1,1.9c0.3,0.4,3-0.1,3.4-0.6c0.4-0.5,1.3-1.7,1.5-1.8s1.4-0.4,1.5-0.4c0.1,0,1.1,0.8,1.3,1
		C81.8,46.5,82,47,82,47s-0.9,1-0.9,1.6c0,0.6,1.1,0.5,1.1,0.5s0.9-0.6,1-0.9c0.1-0.3,0.4-1.2,0.7-1.5c0.3-0.3,1.1-0.2,1.3-0.5
		c0.2-0.3,0.2-0.9,0.4-1.1s0.9-0.8,1.3-1.1c0.4-0.4,1.2-0.8,1.6-1c0.4-0.1,1.1,0.4,1.4,0.3c0.2,0,1.6-1.5,2-1.9
		c0.4-0.4,0.8-0.2,0.8-0.2s0.4,0.7,0.7,0.7c0.3,0,0.6-0.6,0.9-1c0.3-0.4,1.9-1.5,2.2-2.1c0.2-0.6,0.1-2.8,0.2-3.1
		c0.1-0.3,1.4,0,1.8,0.2c0.4,0.2,1.1,0,1.7-0.6c0.6-0.6,1.9-0.9,2.3-1.1c0.2-0.1,0.3-0.4,0.4-0.9c0.3,0,1.6,0.8,1.6,0.8
		s1.8,0.5,2.1,0.6s1.8,0.8,2.3,1.3c0.6,0.5,0.2,1.2-0.3,2.3c-0.4,1.1-0.6,2.4-0.6,2.4s2.6,2.1,2.9,2.2c0.3,0.2,1.1,2.1,1.4,2.5
		c0.3,0.4-0.7,1.7-1.2,2.5c-0.5,0.8,0,1.8,0,2.4c0,0.6,0.4,1.1,0.5,1.9c0,0.9,1,4,2.1,5c1.1,1,0.7,2.2,0.7,2.7
		c0,0.6-0.3,1.5-0.9,1.8s-2.2,1.3-2.4,1.7c-0.2,0.4,1.5,1.1,2.5,1.6c1,0.5,2,1.9,2.1,2.1c0.1,0.2,1.3,2,1.5,2.3
		c0.2,0.3,0.6,0.1,1.5,0.1c0.8,0,1.1,1.3,1.5,1.6c0.4,0.3,1,0.6,1.3,0.3c0.3-0.3-0.1-0.6-0.7-1.5c-0.6-0.8-0.6-1.1-0.6-1.7
		s0.1-0.8,0.4-1.2c0.3-0.3,0.6-0.7,0.4-1.5s-0.6-1.3-0.4-2.3c0.2-1,2.3-1.9,2.7-2.4c0.4-0.4,3.2,0.7,3.8,1c0.6,0.3,1.2,1.8,1.2,1.8
		s1.1,0.8,1.5,0.8s1.3-0.3,1.8-0.5c0.5-0.2,1.3-0.8,1.2-1.3c-0.1-0.4-0.8-0.6-1.2-1s1.2-3,1.9-4.1c0.7-1.1,1.7-4.3,1.7-4.3
		c0.2-0.6,1.9-0.8,3.9-0.7c0.3,0,0.6,0,0.9,0c0.1,0,0.2,0,0.2,0c0,0,0.1,0,0.1,0c0.2,0,0.5,0,0.7,0c0.1,0,0.3,0,0.4,0
		c0.2,0,0.3,0,0.5,0c0.3,0,0.5,0,0.8,0.1c0.1,0,0.2,0,0.3,0c0.9,0.1,1.7,0.2,2.3,0.3c0.1,0,0.2,0,0.3,0c0,0,0.1,0,0.1,0
		c0,0,0.1,0,0.1,0c0,0,0,0,0.1,0c0,0,0.1,0,0.1,0c0.2,0,0.3,0,0.3,0s-0.6,3.6,0,4.8c0.6,1.2,1.7,1.5,2,2.5c0.3,1,0.3,2.7,1.3,4
		c1,1.3,0.8,1,1.7,1.8c0.9,0.8,1.5,1.2,1.5,1.2h3.1c0,0-0.4,1,0,1.9s0.6,1,2.6,2c2,1,3.7,1.3,4.3,1.7s1.8-0.6,2.6,1.2
		c0.8,1.8,1.2,2.3,1.6,2.5s1,1.2,2.8,0.9c1.8-0.3,3.7-1.6,3.7-1.6L174.5,77.3z M326,130.6c-0.4,0.7-0.7,1.6-0.7,2
		c0,0.4,0.3,0.8,0.8,1.5s0.5,2.9,0.5,2.9s0,0.1-0.1,0.3c-0.2,0.5-0.7,1.6-1.1,2.1c-0.6,0.7-1.5,1.3-3.1,2.5
		c-1.7,1.2-1.8,1.6-1.8,1.6s-0.1,0.1-0.2,0.2c-0.6,0.4-2.1,1.6-3.3,2.2c-1.5,0.7-1.6,1.5-1.6,1.5l-3,2.3c0,0-1.3,0.2-1.9,0.3
		c-0.6,0-1.9,0.6-2.3,0.8s-1.2,1.3-1.7,1.9c-0.6,0.7-1.3,0.3-2.2,0c-0.9-0.3-0.7-1.1-0.9-1.5c-0.2-0.3-1.4-0.1-2.2,0
		c-0.8,0.1-0.8,0-1.3,0s-0.7-0.5-0.7-1.7c0-1.2-0.9,0-1.1,0s-2.5,1.4-3.3,2.5c-0.8,1.1,0.2,1.9,0.7,2.3s0.8,1.2,1,1.7
		c0.2,0.5-1.4,3.2-1.7,3.8c-0.3,0.6-1.7,2.1-2.2,2.4s-1.9,0.9-2.4,0.9s-1.1-0.3-1.2-0.3c-0.2,0-1.5,1.5-1.9,2
		c-0.4,0.5-1.3,1.1-1.9,1.5c-0.1,0-0.1,0.1-0.2,0.1c-0.7,0.3-1.5-0.2-1.8-0.3c-0.3,0-1.7,0-2.8-0.6c-1.1-0.5-1-1.3-1.2-1.9
		s0-1.3,0-1.8c0-0.5-0.5-0.6-0.5-1.3s-1.1-2.2-1.5-2.5c-0.3-0.2-1,0.7-1.4,1.1c-0.1,0.1-0.2,0.2-0.2,0.1c-0.2,0-1.7,0-1.7,0
		s0.4-0.5,0.4-1.3c0-0.8,0.3-3.2,0.4-3.4c0.1-0.2,0.7-0.6,0.6-1c-0.1-0.4-0.5-1.7-0.5-1.9s0.2-1,0-1.4c-0.2-0.4-1-1.9-1-1.9
		s-0.3-1.2-0.3-2c0-0.8,0.4-1.4,0.9-1.8c0.5-0.5,1.2-0.7,1.4-1.8c0.2-1.1,1.6-3.2,1.8-4.3s0.4-1.8,0.4-2.5c0-0.7,0.6-1.5,1.1-2
		c0.3-0.3,1.2-1,1.7-1.4c0.3-0.2,0.5-0.4,0.6-0.4c0.2-0.1,3.2-0.8,4.5-1.6c1.3-0.8,2.7-2.5,3.6-3c0.9-0.5,2.3-1.3,2.7-1.9
		c0.4-0.6,0.3-1.1,1.3-1.4c0.9-0.3,2.6-0.5,2.8-0.2c0.1,0.3,0.6,0.8,0.6,0.9c0,0.1,1.1,0.8,2.2,0.4c1.1-0.4,1.7-1.1,2.3-1.1
		s1.5,0.4,2-0.2c0.5-0.6,1.1-1.3,1.2-1.9c0.1-0.6,0.5-1.6,0.4-2c-0.1-0.4-0.4-1-0.9-1.1c-0.6-0.1-1.1-0.4-1.3-0.6
		c-0.2-0.2-1-0.2-1-0.9s-0.2-4.3,0.2-5.1c0.5-0.8,1.4-1.1,1.8-1.6c0.4-0.4,0.8-0.8,0.8-1.3c0-0.5-0.2-1.8-0.6-2.4
		c-0.4-0.6-0.9-1.5-1-1.9s-0.3-1.3,0.2-2c0.5-0.7,0.6-0.9,0.7-1.3c0-0.4-0.8-1.1-0.9-1.7c-0.1-0.6-0.2-0.9-0.2-0.9s1.1-1.3,1.7-2.1
		c0.6-0.8,1.2-1.7,1.2-2.3c0-0.6-0.8-0.9,0-1.9c0.8-1,1.7-1.9,1.7-1.9s1.8-0.2,2.8-0.9c1-0.7,1.7-1.1,2.3-1.7s1.7-1.5,2-2.5
		c0.1-0.3,0.2-0.7,0.2-1.1c0.1,0,0.1,0,0.2,0.1c0.1,0,0.2,0,0.2,0.1c0,0,0,0,0.1,0c0.1,0,0.1,0,0.2,0c0.4,0.1,0.8,0.2,1.2,0.3
		c0.2,0,0.3,0.1,0.5,0.1h0c0,0,0.1,0,0.1,0c0,0,0,0,0,0c0.2,0,0.4,0.1,0.6,0.1c0.2,0,0.3,0,0.5,0.1c0.2,0,0.5,0,0.8,0
		c0.1,0,0.2,0,0.3,0c0.1,0,0.2,0,0.2,0c-0.1,0.5-0.2,1-0.2,1.4c-0.2,0.6-0.6,3.8-0.6,5c0,1.2,0.4,2.2,0.8,3c0.3,0.7,1.2,1.8,1.7,2.9
		c0.6,1.1-0.5,2.4-0.9,3.4c-0.4,0.9-0.6,3-0.6,3.2c0,0.3,0.1,1.9,0.7,2.6c0.6,0.6,2.1,1.9,2.5,2.7c0.4,0.7,0,2.2-0.2,3.2
		c-0.2,1,0,2.5,0.3,3.2c0.3,0.7,0.7,1.1,0.7,2.1c0,1,0.4,2.6,1.1,4.4s1.9,1,2.7,1.8c0.7,0.8-0.4,4-0.6,4.4c-0.1,0.3-0.5,0.8-0.9,1.4
		C326.3,130.1,326.1,130.3,326,130.6z"/>
	<path class="st2" d="M250.9,217.8v-1.3l1-1.6l0.9-1.7c0,0,3.7-0.9,4.1-0.9s2.9,0.7,2.9,0.7v2.8l-1.3,2.1l-3.2,0.4L250.9,217.8z"/>
	<g>
		<polyline class="st3" points="424.9,168.6 403.6,216.5 260.9,216.5 		"/>
	</g>
</g>
</svg>
