<?xml version="1.0" encoding="utf-8"?>
<!-- Generator: Adobe Illustrator 27.8.0, SVG Export Plug-In . SVG Version: 6.00 Build 0)  -->
<svg version="1.1" id="Camada_1" xmlns="http://www.w3.org/2000/svg" xmlns:xlink="http://www.w3.org/1999/xlink" x="0px" y="0px"
	 viewBox="0 0 1920 1728.8" style="enable-background:new 0 0 1920 1728.8;" xml:space="preserve">
<style type="text/css">
	.st0{fill:#ECECEC;}
	.st1{fill:#F5F5F5;}
	.st2{fill:#E1E1E1;}
	.st3{fill:#1A2E35;}
	.st4{fill:#FF4A5B;}
	.st5{fill:#375A64;}
	.st6{opacity:0.3;}
	.st7{fill:#FFBF9D;}
	.st8{fill:#FF9A6C;}
</style>
<g>
	<g>
		<g>
			<polygon class="st0" points="109,698.8 241.6,745.8 208.1,765.2 115.5,818.1 85.6,835.2 			"/>
		</g>
		<g>
			<g>
				<polygon class="st0" points="686.5,1426.9 769.1,1389.4 589.3,1083 508.2,1155 365.7,905.1 287.2,958.2 159.6,728.1 
					112.7,747.9 268.6,1058.1 357,981.5 491.4,1260.5 571.6,1173.5 				"/>
			</g>
		</g>
	</g>
	<g>
		<g>
			<polygon class="st1" points="1879.6,1248.9 1779.9,1245.3 1796.9,1266.8 1844.2,1325.9 1859.4,1344.9 			"/>
		</g>
		<g>
			<g>
				<polygon class="st1" points="1309.2,1578.2 1264.5,1532 1462.9,1376.9 1497.5,1445.5 1656.6,1317.9 1694.5,1373.4 1838.6,1255 
					1864.3,1280.3 1680.7,1444.1 1642.4,1370.6 1481.2,1519.4 1450.9,1441.1 				"/>
			</g>
		</g>
	</g>
	<g>
		<g>
			<polygon class="st2" points="1690.1,361.8 1557,432.7 1595.6,447.9 1702.2,489.3 1736.6,502.7 			"/>
		</g>
		<g>
			<g>
				<polygon class="st2" points="1193.9,1225.4 1100.4,1198.8 1242.2,845.4 1339.6,908.9 1450.9,621.2 1542.5,665.1 1641.1,400.9 
					1694,414.4 1578.2,768 1472.2,700.9 1374.2,1018 1275.3,938.5 				"/>
			</g>
		</g>
	</g>
	<g>
		<g>
			<g>
				<g>
					<g>
						<g>
							<g>
								<g>
									<g>
										<g>
											<path class="st0" d="M1867,444h-173.4c-12,0-21.7-9.7-21.7-21.7v-240c0-12,9.7-21.7,21.7-21.7h110l85.1,87.7v174
												C1888.7,434.3,1879,444,1867,444z"/>
										</g>
									</g>
								</g>
							</g>
						</g>
						<g>
							<g>
								<g>
									<g>
										<g>
											<path class="st1" d="M1803.6,160.6v67.6c0,11.1,9,20.2,20.2,20.2h65L1803.6,160.6z"/>
										</g>
									</g>
								</g>
							</g>
						</g>
						<g>
							<g>
								<g>
									<g>
										<g>
											<path class="st2" d="M1804.5,234.1c0,0-0.9,16.4,17.8,21.8c0.7,0.2,1.4,0.4,2.1,0.5c8.5,1.5,64.3,11.4,64.3,10.2
												c0-1.4,0-18.2,0-18.2h-65C1823.7,248.4,1807.5,247.8,1804.5,234.1z"/>
										</g>
									</g>
								</g>
							</g>
						</g>
					</g>
				</g>
				<g>
					<g>
						<g>
							<g>
								<g>
									<g>
										<path class="st2" d="M1867,444c0-0.1,1.3,0,3.7-0.4c2.4-0.5,6.1-1.5,9.8-4.6c3.6-3,7.4-8.3,7.8-15.3c0.1-7,0-15.1,0-24.2
											c-0.1-36.3-0.2-88.3-0.3-151.2l0.2,0.4c-25.8-26.5-54.5-56.1-85.2-87.7l0.5,0.2c-20.4,0-41.6,0-63.5,0
											c-10.9,0-22,0-33.2,0c-2.8,0-5.6,0-8.4,0s-5.7-0.1-8.3,0.3c-5.4,0.9-10.4,4-13.6,8.5c-2.2,3.1-3.6,6.9-3.8,10.7
											c-0.2,3.8,0,7.9-0.1,11.8c0,7.9,0,15.7,0,23.4c0,15.5,0,30.8,0,45.8c0,30,0,59,0,86.5c0,13.8,0,27.2,0,40.3
											c0,6.5,0,13,0,19.3c0,3.2,0,6.3,0,9.4s-0.2,6.2,0.4,9.1c1.1,5.9,4.9,11,9.8,13.9c2.5,1.5,5.2,2.4,8,2.8
											c2.8,0.3,5.7,0.2,8.5,0.2c11.4,0,22.3,0,32.7,0c41.7,0.1,75.4,0.2,98.8,0.2c11.6,0.1,20.7,0.1,26.9,0.1c3,0,5.4,0.1,7,0.1
											C1866.2,444,1867,444,1867,444s-0.8,0.1-2.4,0.1s-3.9,0-7,0.1c-6.2,0-15.2,0.1-26.9,0.1c-23.4,0.1-57.1,0.1-98.8,0.2
											c-10.4,0-21.4,0-32.7,0c-2.8,0-5.7,0.1-8.7-0.2c-3-0.4-5.9-1.4-8.5-3c-5.2-3.1-9.2-8.5-10.4-14.7
											c-0.6-3.1-0.4-6.3-0.4-9.4s0-6.3,0-9.4c0-6.3,0-12.8,0-19.3c0-13.1,0-26.5,0-40.3c0-27.6,0-56.5,0-86.5
											c0-15,0-30.3,0-45.8c0-7.7,0-15.6,0-23.4c0-4-0.1-7.8,0.1-11.9c0.3-4.1,1.7-8.1,4.1-11.4c3.4-4.8,8.8-8.2,14.6-9.1
											c2.9-0.5,5.8-0.3,8.6-0.3c2.8,0,5.6,0,8.4,0c11.2,0,22.3,0,33.2,0c21.8,0,43.1,0,63.5,0h0.3l0.2,0.2
											c30.6,31.6,59.3,61.2,85.1,87.8l0.2,0.2v0.3c-0.1,62.8-0.2,114.8-0.3,151.2c-0.1,9.1,0,17.2-0.2,24.2
											c-0.4,7.2-4.3,12.5-8.1,15.6c-3.9,3.1-7.6,4.1-10,4.5c-1.2,0.2-2.2,0.3-2.8,0.3C1867.3,444.1,1867,444,1867,444z"/>
									</g>
								</g>
							</g>
						</g>
					</g>
				</g>
				<g>
					<g>
						<g>
							<g>
								<g>
									<g>
										<path class="st2" d="M1888.7,248.4c0,0.1-0.6,0.1-1.7,0.2c-1.3,0-2.8,0.1-4.8,0.1c-4.4,0.1-10.3,0.1-17.6,0.2
											c-7.5,0-16.3,0.1-26.1,0.2c-4.9,0-10.1,0-15.4,0c-5.5-0.1-11.2-2.6-15.1-7.1c-1.9-2.2-3.4-4.8-4.3-7.5s-1-5.7-1-8.3
											c0-5.3,0-10.5,0-15.4c0.1-9.8,0.1-18.6,0.2-26.1c0.1-7.3,0.2-13.2,0.2-17.6c0.1-1.9,0.1-3.5,0.1-4.8
											c0-1.1,0.1-1.7,0.2-1.7s0.1,0.6,0.2,1.7c0,1.3,0.1,2.8,0.1,4.8c0.1,4.4,0.1,10.3,0.2,17.6c0,7.5,0.1,16.3,0.2,26.1
											c0,4.9,0,10.1,0,15.4c-0.3,5.3,1.2,10.7,4.9,14.8c3.6,4.1,8.9,6.5,14,6.6c5.3,0,10.5,0.1,15.4,0.1
											c9.8,0.1,18.6,0.1,26.1,0.2c7.3,0.1,13.2,0.2,17.6,0.2c1.9,0.1,3.5,0.1,4.8,0.1C1888.1,248.3,1888.7,248.3,1888.7,248.4z"
											/>
									</g>
								</g>
							</g>
						</g>
					</g>
				</g>
			</g>
			<g>
				<g>
					<path class="st2" d="M1800.3,220.9c0,0.4-20.5,0.7-45.7,0.7c-25.3,0-45.7-0.3-45.7-0.7s20.5-0.7,45.7-0.7
						C1779.8,220.1,1800.3,220.5,1800.3,220.9z"/>
				</g>
			</g>
			<g>
				<g>
					<path class="st2" d="M1843.7,254.6c0,0.4-30.2,0.7-67.4,0.7c-37.3,0-67.5-0.3-67.5-0.7c0-0.4,30.2-0.7,67.5-0.7
						C1813.5,253.8,1843.7,254.2,1843.7,254.6z"/>
				</g>
			</g>
			<g>
				<g>
					<path class="st2" d="M1843.7,288.3c0,0.4-30.2,0.7-67.4,0.7c-37.3,0-67.5-0.3-67.5-0.7s30.2-0.7,67.5-0.7
						C1813.5,287.5,1843.7,287.9,1843.7,288.3z"/>
				</g>
			</g>
			<g>
				<g>
					<path class="st2" d="M1843.7,322c0,0.4-30.2,0.7-67.4,0.7c-37.3,0-67.5-0.3-67.5-0.7c0-0.4,30.2-0.7,67.5-0.7
						C1813.5,321.2,1843.7,321.6,1843.7,322z"/>
				</g>
			</g>
			<g>
				<g>
					<path class="st2" d="M1843.7,355.7c0,0.4-30.2,0.7-67.4,0.7c-37.3,0-67.5-0.3-67.5-0.7s30.2-0.7,67.5-0.7
						C1813.5,354.9,1843.7,355.3,1843.7,355.7z"/>
				</g>
			</g>
			<g>
				<g>
					<path class="st2" d="M1843.7,397.3c0,0.4-30.2,0.7-67.4,0.7c-37.3,0-67.5-0.3-67.5-0.7s30.2-0.7,67.5-0.7
						C1813.5,396.5,1843.7,396.8,1843.7,397.3z"/>
				</g>
			</g>
		</g>
		<g>
			<g>
				<g>
					<g>
						<g>
							<g>
								<g>
									<g>
										<g>
											<path class="st0" d="M1435.9,277.8h-169.4c-11.7,0-21.2-9.5-21.2-21.2V22.1c0-11.7,9.5-21.2,21.2-21.2h107.4l83.2,85.7
												v170C1457.1,268.3,1447.6,277.8,1435.9,277.8z"/>
										</g>
									</g>
								</g>
							</g>
						</g>
						<g>
							<g>
								<g>
									<g>
										<g>
											<path class="st1" d="M1373.9,1v66c0,10.9,8.8,19.7,19.7,19.7h63.5L1373.9,1z"/>
										</g>
									</g>
								</g>
							</g>
						</g>
						<g>
							<g>
								<g>
									<g>
										<g>
											<path class="st2" d="M1374.8,72.7c0,0-0.8,16,17.4,21.3c0.7,0.2,1.4,0.3,2.1,0.5c8.3,1.5,62.8,11.2,62.8,9.9
												c0-1.4,0-17.7,0-17.7h-63.5C1393.6,86.7,1377.8,86.1,1374.8,72.7z"/>
										</g>
									</g>
								</g>
							</g>
						</g>
					</g>
				</g>
				<g>
					<g>
						<g>
							<g>
								<g>
									<g>
										<path class="st2" d="M1435.9,277.8c0-0.1,1.3,0,3.7-0.4c2.4-0.4,5.9-1.5,9.6-4.5c3.6-2.9,7.2-8.1,7.6-14.9
											c0.1-6.8,0-14.8,0-23.6c-0.1-35.5-0.2-86.3-0.3-147.7l0.2,0.4c-25.2-25.9-53.3-54.8-83.2-85.7l0.5,0.2
											c-19.9,0-40.7,0-62,0c-10.7,0-21.5,0-32.4,0c-2.7,0-5.5,0-8.2,0c-2.8,0-5.5-0.1-8.1,0.3c-5.3,0.8-10.2,3.9-13.3,8.3
											c-2.2,3-3.5,6.7-3.7,10.4c-0.1,3.8,0,7.7-0.1,11.5c0,7.7,0,15.3,0,22.9c0,15.1,0,30.1,0,44.7c0,29.3,0,57.6,0,84.5
											c0,13.5,0,26.6,0,39.4c0,6.4,0,12.7,0,18.9c0,3.1,0,6.2,0,9.2c0,3.1-0.2,6.1,0.4,8.9c1.1,5.7,4.8,10.7,9.6,13.6
											c2.4,1.5,5.1,2.4,7.8,2.8c2.7,0.3,5.6,0.2,8.3,0.2c11.1,0,21.8,0,32,0c40.7,0.1,73.7,0.2,96.5,0.2
											c11.4,0.1,20.2,0.1,26.2,0.1c3,0,5.2,0.1,6.8,0.1C1435.1,277.8,1435.9,277.8,1435.9,277.8s-0.8,0.1-2.3,0.1
											c-1.6,0-3.9,0-6.8,0.1c-6,0-14.9,0.1-26.2,0.1c-22.8,0.1-55.8,0.1-96.5,0.2c-10.2,0-20.9,0-32,0c-2.8,0-5.6,0.1-8.5-0.2
											c-2.9-0.4-5.7-1.4-8.3-2.9c-5.1-3-9-8.3-10.2-14.4c-0.6-3.1-0.4-6.1-0.4-9.2c0-3,0-6.1,0-9.2c0-6.2,0-12.5,0-18.9
											c0-12.8,0-25.9,0-39.4c0-26.9,0-55.2,0-84.5c0-14.7,0-29.6,0-44.7c0-7.6,0-15.2,0-22.9c0-3.9-0.1-7.6,0.1-11.6
											s1.7-7.9,4-11.2c3.3-4.7,8.6-8,14.3-8.9c2.9-0.5,5.6-0.3,8.4-0.3s5.5,0,8.2,0c10.9,0,21.8,0,32.4,0c21.3,0,42.1,0,62,0
											h0.3l0.2,0.2c29.9,30.9,58,59.8,83.1,85.8l0.2,0.2v0.3c-0.1,61.4-0.2,112.2-0.3,147.7c-0.1,8.9,0,16.8-0.2,23.7
											c-0.4,7-4.2,12.3-7.9,15.2c-3.8,3-7.4,4-9.8,4.4c-1.2,0.2-2.1,0.3-2.8,0.2C1436.2,277.8,1435.9,277.8,1435.9,277.8z"/>
									</g>
								</g>
							</g>
						</g>
					</g>
				</g>
				<g>
					<g>
						<g>
							<g>
								<g>
									<g>
										<path class="st2" d="M1457.1,86.7c0,0.1-0.6,0.1-1.6,0.2c-1.2,0-2.8,0.1-4.7,0.1c-4.3,0.1-10.1,0.1-17.2,0.2
											c-7.3,0-15.9,0.1-25.5,0.2c-4.8,0-9.9,0-15.1,0c-5.4-0.1-11-2.6-14.7-6.9c-1.9-2.2-3.3-4.7-4.2-7.4
											c-0.9-2.6-1-5.5-0.9-8.1c0-5.2,0-10.3,0-15.1c0.1-9.5,0.1-18.2,0.2-25.5c0.1-7.1,0.2-12.9,0.2-17.2
											c0.1-1.9,0.1-3.4,0.1-4.7c0-1.1,0.1-1.6,0.2-1.6s0.1,0.6,0.2,1.6c0,1.2,0.1,2.8,0.1,4.7c0.1,4.3,0.1,10.1,0.2,17.2
											c0,7.3,0.1,15.9,0.2,25.5c0,4.8,0,9.8,0,15.1c-0.3,5.2,1.1,10.4,4.8,14.5c3.5,4,8.6,6.3,13.7,6.4c5.2,0,10.2,0.1,15,0.1
											c9.5,0.1,18.2,0.1,25.5,0.2c7.1,0.1,12.9,0.2,17.2,0.2c1.9,0.1,3.4,0.1,4.7,0.1C1456.5,86.6,1457.1,86.6,1457.1,86.7z"/>
									</g>
								</g>
							</g>
						</g>
					</g>
				</g>
			</g>
			<g>
				<g>
					<path class="st2" d="M1370.7,59.8c0,0.4-20,0.7-44.7,0.7s-44.7-0.3-44.7-0.7s20-0.7,44.7-0.7S1370.7,59.4,1370.7,59.8z"/>
				</g>
			</g>
			<g>
				<g>
					<path class="st2" d="M1413.1,92.8c0,0.4-29.5,0.7-65.9,0.7s-65.9-0.3-65.9-0.7s29.5-0.7,65.9-0.7
						C1383.6,92,1413.1,92.3,1413.1,92.8z"/>
				</g>
			</g>
			<g>
				<g>
					<path class="st2" d="M1413.1,125.7c0,0.4-29.5,0.7-65.9,0.7s-65.9-0.3-65.9-0.7s29.5-0.7,65.9-0.7
						C1383.6,124.9,1413.1,125.3,1413.1,125.7z"/>
				</g>
			</g>
			<g>
				<g>
					<path class="st2" d="M1413.1,158.6c0,0.4-29.5,0.7-65.9,0.7s-65.9-0.3-65.9-0.7s29.5-0.7,65.9-0.7S1413.1,158.2,1413.1,158.6z"
						/>
				</g>
			</g>
			<g>
				<g>
					<path class="st2" d="M1413.1,191.5c0,0.4-29.5,0.7-65.9,0.7s-65.9-0.3-65.9-0.7s29.5-0.7,65.9-0.7S1413.1,191.1,1413.1,191.5z"
						/>
				</g>
			</g>
			<g>
				<g>
					<path class="st2" d="M1413.1,232.1c0,0.4-29.5,0.7-65.9,0.7s-65.9-0.3-65.9-0.7s29.5-0.7,65.9-0.7S1413.1,231.7,1413.1,232.1z"
						/>
				</g>
			</g>
		</g>
		<g>
			<g>
				<g>
					<g>
						<g>
							<g>
								<g>
									<g>
										<g>
											<path class="st0" d="M376.9,587.3H200.1c-12.2,0-22.1-9.9-22.1-22.1V320.5c0-12.2,9.9-22.1,22.1-22.1h112.1l86.8,89.5
												v177.4C399,577.4,389.1,587.3,376.9,587.3z"/>
										</g>
									</g>
								</g>
							</g>
						</g>
						<g>
							<g>
								<g>
									<g>
										<g>
											<path class="st1" d="M312.2,298.3v68.9c0,11.4,9.2,20.6,20.6,20.6H399L312.2,298.3z"/>
										</g>
									</g>
								</g>
							</g>
						</g>
						<g>
							<g>
								<g>
									<g>
										<g>
											<path class="st2" d="M313.1,373.2c0,0-0.9,16.7,18.1,22.2c0.7,0.2,1.4,0.4,2.2,0.5c8.6,1.5,65.6,11.7,65.6,10.4
												c0-1.4,0-18.5,0-18.5h-66.2C332.8,387.8,316.2,387.2,313.1,373.2z"/>
										</g>
									</g>
								</g>
							</g>
						</g>
					</g>
				</g>
				<g>
					<g>
						<g>
							<g>
								<g>
									<g>
										<path class="st3" d="M376.9,587.3c0-0.1,1.3,0,3.8-0.4c2.5-0.5,6.2-1.6,10-4.7c3.7-3.1,7.5-8.4,7.9-15.6
											c0.1-7.1,0-15.4,0-24.7c-0.1-37.1-0.2-90.1-0.3-154.1l0.2,0.4c-26.3-27-55.6-57.2-86.9-89.4l0.5,0.2
											c-20.8,0-42.4,0-64.7,0c-11.1,0-22.4,0-33.8,0c-2.9,0-5.7,0-8.6,0c-2.9,0-5.8-0.1-8.5,0.3c-5.5,0.9-10.6,4.1-13.9,8.7
											c-2.3,3.2-3.7,7-3.9,10.9s0,8-0.1,12c0,8,0,16,0,23.9c0,15.8,0,31.4,0,46.7c0,30.6,0,60.1,0,88.2c0,14.1,0,27.8,0,41.1
											c0,6.7,0,13.2,0,19.7c0,3.2,0,6.4,0,9.6c0.1,3.2-0.2,6.3,0.4,9.3c1.2,6,5,11.2,10,14.2c2.5,1.5,5.3,2.5,8.2,2.9
											c2.8,0.4,5.8,0.2,8.7,0.2c11.6,0,22.7,0,33.4,0c42.5,0.1,76.9,0.2,100.7,0.2c11.9,0.1,21.1,0.1,27.4,0.1
											c3.1,0,5.5,0.1,7.1,0.1C376.1,587.2,376.9,587.3,376.9,587.3s-0.8,0.1-2.4,0.1s-4,0-7.1,0.1c-6.3,0-15.5,0.1-27.4,0.1
											c-23.8,0.1-58.2,0.1-100.7,0.2c-10.6,0-21.8,0-33.4,0c-2.9,0-5.8,0.1-8.9-0.2c-3-0.4-6-1.4-8.6-3
											c-5.3-3.2-9.4-8.7-10.6-15c-0.7-3.2-0.4-6.4-0.5-9.5c0-3.2,0-6.4,0-9.6c0-6.5,0-13,0-19.7c0-13.3,0-27,0-41.1
											c0-28.1,0-57.6,0-88.2c0-15.3,0-30.9,0-46.7c0-7.9,0-15.9,0-23.9c0-4-0.1-8,0.1-12.1c0.3-4.2,1.8-8.2,4.2-11.6
											c3.5-4.9,9-8.3,14.9-9.3c3-0.5,5.9-0.3,8.7-0.3c2.9,0,5.7,0,8.6,0c11.4,0,22.7,0,33.8,0c22.3,0,43.9,0,64.7,0h0.3l0.2,0.2
											c31.2,32.2,60.5,62.4,86.7,89.5l0.2,0.2v0.3c-0.1,64.1-0.2,117.1-0.3,154.1c-0.1,9.3,0,17.5-0.2,24.7
											c-0.4,7.4-4.4,12.8-8.2,15.9c-3.9,3.1-7.7,4.2-10.2,4.6c-1.3,0.2-2.2,0.3-2.9,0.3C377.2,587.3,376.9,587.3,376.9,587.3z"
											/>
									</g>
								</g>
							</g>
						</g>
					</g>
				</g>
				<g>
					<g>
						<g>
							<g>
								<g>
									<g>
										<path class="st3" d="M399,387.8c0,0.1-0.6,0.1-1.7,0.2c-1.3,0-2.9,0.1-4.9,0.1c-4.4,0.1-10.5,0.1-17.9,0.2
											c-7.6,0-16.6,0.1-26.6,0.2c-5,0-10.3,0-15.7,0c-5.6-0.1-11.4-2.7-15.4-7.2c-2-2.2-3.5-4.9-4.3-7.7c-0.9-2.8-1-5.8-1-8.4
											c0-5.4,0-10.7,0-15.7c0.1-10,0.1-19,0.2-26.6c0.1-7.4,0.2-13.5,0.2-17.9c0.1-2,0.1-3.6,0.1-4.9c0-1.1,0.1-1.7,0.2-1.7
											s0.1,0.6,0.2,1.7c0,1.3,0.1,2.9,0.1,4.9c0.1,4.4,0.1,10.5,0.2,17.9c0,7.6,0.1,16.6,0.2,26.6c0,5,0,10.3,0,15.7
											c-0.1,2.8,0.1,5.4,0.9,8s2.2,5,4,7.1c3.7,4.2,9,6.6,14.3,6.7c5.4,0,10.7,0.1,15.7,0.1c10,0.1,19,0.1,26.6,0.2
											c7.4,0.1,13.5,0.2,17.9,0.2c2,0.1,3.6,0.1,4.9,0.1C398.4,387.7,399,387.7,399,387.8z"/>
									</g>
								</g>
							</g>
						</g>
					</g>
				</g>
			</g>
			<g>
				<g>
					<path class="st3" d="M308.9,359.8c0,0.4-20.9,0.7-46.6,0.7c-25.8,0-46.6-0.3-46.6-0.7s20.9-0.7,46.6-0.7
						C288,359,308.9,359.4,308.9,359.8z"/>
				</g>
			</g>
			<g>
				<g>
					<path class="st3" d="M353.1,394.1c0,0.4-30.8,0.7-68.8,0.7s-68.8-0.3-68.8-0.7c0-0.4,30.8-0.7,68.8-0.7
						S353.1,393.7,353.1,394.1z"/>
				</g>
			</g>
			<g>
				<g>
					<path class="st3" d="M353.1,428.5c0,0.4-30.8,0.7-68.8,0.7s-68.8-0.3-68.8-0.7s30.8-0.7,68.8-0.7S353.1,428.1,353.1,428.5z"/>
				</g>
			</g>
			<g>
				<g>
					<path class="st3" d="M353.1,462.9c0,0.4-30.8,0.7-68.8,0.7s-68.8-0.3-68.8-0.7s30.8-0.7,68.8-0.7
						C322.3,462.1,353.1,462.4,353.1,462.9z"/>
				</g>
			</g>
			<g>
				<g>
					<path class="st3" d="M353.1,497.2c0,0.4-30.8,0.7-68.8,0.7s-68.8-0.3-68.8-0.7c0-0.4,30.8-0.7,68.8-0.7
						S353.1,496.8,353.1,497.2z"/>
				</g>
			</g>
			<g>
				<g>
					<path class="st3" d="M353.1,531.6c0,0.4-30.8,0.7-68.8,0.7s-68.8-0.3-68.8-0.7s30.8-0.7,68.8-0.7
						C322.3,530.8,353.1,531.2,353.1,531.6z"/>
				</g>
			</g>
		</g>
		<g>
			<g>
				<g>
					<g>
						<g>
							<g>
								<g>
									<g>
										<g>
											<path class="st0" d="M691.8,310.2H518c-12,0-21.7-9.7-21.7-21.7V47.9c0-12,9.7-21.7,21.7-21.7h110.2l85.3,87.9v174.4
												C713.6,300.4,703.8,310.2,691.8,310.2z"/>
										</g>
									</g>
								</g>
							</g>
						</g>
						<g>
							<g>
								<g>
									<g>
										<g>
											<path class="st1" d="M628.2,26.1v67.7c0,11.2,9.1,20.2,20.2,20.2h65.1L628.2,26.1z"/>
										</g>
									</g>
								</g>
							</g>
						</g>
						<g>
							<g>
								<g>
									<g>
										<g>
											<path class="st2" d="M629.1,99.7c0,0-0.9,16.4,17.8,21.8c0.7,0.2,1.4,0.4,2.1,0.5c8.5,1.5,64.5,11.5,64.5,10.2
												c0-1.4,0-18.2,0-18.2h-65.1C648.5,114,632.2,113.5,629.1,99.7z"/>
										</g>
									</g>
								</g>
							</g>
						</g>
					</g>
				</g>
				<g>
					<g>
						<g>
							<g>
								<g>
									<g>
										<path class="st3" d="M691.8,310.2c0-0.1,1.3,0,3.8-0.4c2.4-0.5,6.1-1.5,9.9-4.6c3.6-3,7.4-8.3,7.8-15.3
											c0.1-7,0-15.2,0-24.2c-0.1-36.4-0.2-88.5-0.3-151.5l0.2,0.4c-25.8-26.6-54.6-56.2-85.4-87.9l0.5,0.2
											c-20.4,0-41.7,0-63.6,0c-10.9,0-22,0-33.3,0c-2.8,0-5.6,0-8.4,0c-2.8,0-5.7-0.1-8.3,0.3c-5.4,0.9-10.4,4-13.6,8.5
											c-2.2,3.1-3.6,6.9-3.8,10.7c-0.2,3.9,0,7.9-0.1,11.8c0,7.9,0,15.7,0,23.5c0,15.5,0,30.8,0,45.9c0,30.1,0,59.1,0,86.7
											c0,13.8,0,27.3,0,40.4c0,6.5,0,13,0,19.3c0,3.2,0,6.3,0,9.5c0,3.1-0.2,6.2,0.4,9.1c1.1,5.9,4.9,11,9.8,14
											c2.5,1.5,5.2,2.5,8,2.8s5.7,0.2,8.6,0.2c11.4,0,22.4,0,32.8,0c41.8,0.1,75.6,0.2,99,0.2c11.7,0.1,20.7,0.1,26.9,0.1
											c3,0,5.4,0.1,7,0.1C691,310.1,691.8,310.2,691.8,310.2s-0.8,0.1-2.4,0.1c-1.6,0-4,0-7,0.1c-6.2,0-15.3,0.1-26.9,0.1
											c-23.4,0.1-57.2,0.1-99,0.2c-10.5,0-21.4,0-32.8,0c-2.9,0-5.7,0.1-8.7-0.2c-3-0.4-5.9-1.4-8.5-3
											c-5.2-3.1-9.2-8.5-10.4-14.8c-0.6-3.1-0.4-6.3-0.4-9.4s0-6.3,0-9.5c0-6.4,0-12.8,0-19.3c0-13.1,0-26.6,0-40.4
											c0-27.6,0-56.7,0-86.7c0-15,0-30.3,0-45.9c0-7.8,0-15.6,0-23.5c0-4-0.1-7.8,0.1-11.9c0.3-4.1,1.7-8.1,4.1-11.5
											c3.4-4.8,8.8-8.2,14.6-9.1c2.9-0.5,5.8-0.3,8.6-0.3s5.6,0,8.4,0c11.2,0,22.3,0,33.3,0c21.9,0,43.2,0,63.6,0h0.3l0.2,0.2
											c30.7,31.7,59.5,61.4,85.3,88l0.2,0.2v0.3c-0.1,63-0.2,115.1-0.3,151.5c-0.1,9.1,0,17.2-0.2,24.3
											c-0.4,7.2-4.4,12.6-8.1,15.6c-3.9,3.1-7.6,4.1-10.1,4.5c-1.2,0.2-2.2,0.3-2.8,0.3C692.1,310.2,691.8,310.2,691.8,310.2z"
											/>
									</g>
								</g>
							</g>
						</g>
					</g>
				</g>
				<g>
					<g>
						<g>
							<g>
								<g>
									<g>
										<path class="st3" d="M713.6,114c0,0.1-0.6,0.1-1.7,0.2c-1.3,0-2.8,0.1-4.8,0.1c-4.4,0.1-10.3,0.1-17.6,0.2
											c-7.5,0-16.4,0.1-26.2,0.2c-4.9,0-10.1,0-15.5,0c-5.5-0.1-11.2-2.6-15.1-7.1c-1.9-2.2-3.4-4.8-4.3-7.5
											c-0.9-2.7-1-5.7-1-8.3c0-5.4,0-10.5,0-15.4c0.1-9.8,0.1-18.6,0.2-26.2c0.1-7.3,0.2-13.3,0.2-17.6c0.1-1.9,0.1-3.5,0.1-4.8
											c0-1.1,0.1-1.7,0.2-1.7c0.1,0,0.1,0.6,0.2,1.7c0,1.3,0.1,2.8,0.1,4.8c0.1,4.4,0.1,10.3,0.2,17.6c0,7.5,0.1,16.4,0.2,26.2
											c0,4.9,0,10.1,0,15.4c-0.1,2.7,0.1,5.3,0.9,7.9c0.8,2.5,2.2,4.9,4,7c3.6,4.1,8.9,6.5,14,6.6c5.3,0,10.5,0.1,15.4,0.1
											c9.8,0.1,18.6,0.1,26.2,0.2c7.3,0.1,13.3,0.2,17.6,0.2c1.9,0.1,3.5,0.1,4.8,0.1C713,113.9,713.6,114,713.6,114z"/>
									</g>
								</g>
							</g>
						</g>
					</g>
				</g>
			</g>
			<g>
				<g>
					<path class="st3" d="M625,86.5c0,0.4-20.5,0.7-45.9,0.7c-25.3,0-45.9-0.3-45.9-0.7s20.5-0.7,45.9-0.7
						C604.4,85.8,625,86.1,625,86.5z"/>
				</g>
			</g>
			<g>
				<g>
					<path class="st3" d="M668.5,120.3c0,0.4-30.3,0.7-67.6,0.7s-67.6-0.3-67.6-0.7s30.3-0.7,67.6-0.7
						C638.2,119.5,668.5,119.9,668.5,120.3z"/>
				</g>
			</g>
			<g>
				<g>
					<path class="st3" d="M668.5,154.1c0,0.4-30.3,0.7-67.6,0.7s-67.6-0.3-67.6-0.7s30.3-0.7,67.6-0.7
						C638.2,153.3,668.5,153.7,668.5,154.1z"/>
				</g>
			</g>
			<g>
				<g>
					<path class="st3" d="M668.5,187.8c0,0.4-30.3,0.7-67.6,0.7s-67.6-0.3-67.6-0.7s30.3-0.7,67.6-0.7
						C638.2,187.1,668.5,187.4,668.5,187.8z"/>
				</g>
			</g>
			<g>
				<g>
					<path class="st3" d="M668.5,221.6c0,0.4-30.3,0.7-67.6,0.7s-67.6-0.3-67.6-0.7s30.3-0.7,67.6-0.7S668.5,221.2,668.5,221.6z"/>
				</g>
			</g>
			<g>
				<g>
					<path class="st3" d="M668.5,255.4c0,0.4-30.3,0.7-67.6,0.7s-67.6-0.3-67.6-0.7c0-0.4,30.3-0.7,67.6-0.7S668.5,255,668.5,255.4z
						"/>
				</g>
			</g>
		</g>
	</g>
	<g>
		<g>
			<path class="st3" d="M1884.5,1727.7c0,0.6-421.7,1.1-941.8,1.1c-520.3,0-941.9-0.5-941.9-1.1s421.6-1.1,941.9-1.1
				C1462.8,1726.7,1884.5,1727.1,1884.5,1727.7z"/>
		</g>
	</g>
	<g>
		<g>
			<rect x="1096.8" y="1561.2" class="st4" width="101.2" height="165.6"/>
		</g>
		<g>
			<rect x="1504.8" y="1445.8" class="st4" width="101.2" height="281"/>
		</g>
		<g>
			<rect x="1708.9" y="1624.6" class="st4" width="101.2" height="102.1"/>
		</g>
		<g>
			<rect x="1300.9" y="1482.5" class="st4" width="101.2" height="244.3"/>
		</g>
		<g>
			<rect x="892.7" y="1422.4" class="st4" width="101.2" height="304.4"/>
		</g>
		<g>
			<rect x="688.7" y="1335.2" class="st4" width="101.2" height="391.6"/>
		</g>
		<g>
			<rect x="484.6" y="1238.2" class="st4" width="101.2" height="488.6"/>
		</g>
		<g>
			<rect x="280.7" y="1106.5" class="st4" width="101.2" height="620.3"/>
		</g>
		<g>
			<rect x="76.6" y="911.3" class="st4" width="101.2" height="815.4"/>
		</g>
	</g>
	<g>
		<g>
			<path class="st0" d="M1633.2,1617c-32.2-63-100.4-105.8-171.1-107.5c42.9-47.5,51.4-120.9,26.6-179.9
				c-24.7-59-79.2-103-140.3-122c-61.1-19-128-14.5-188.9,5.1c7.1-46.1-39.1-92.2-85.2-85c18-12.5,24.2-39.3,13.4-58.4
				c-10.8-19.1-37-27.6-57-18.6l2.7-338.1h-66.6H899h-66.6l2.7,338.1c-20-9.1-46.2-0.5-57,18.6s-4.7,45.9,13.4,58.4
				c-46.1-7.2-92.3,38.9-85.2,85c-60.9-19.6-127.8-24.1-188.9-5.1s-115.6,63-140.3,122c-24.7,59-16.3,132.4,26.6,179.9
				c-70.7,1.7-138.9,44.5-171.1,107.5c-18.7,36.6-20.4,90.6,15.9,109.7H899h67.8h650.5C1653.6,1707.6,1651.9,1653.6,1633.2,1617z"/>
		</g>
		<g>
			<g>
				<path class="st3" d="M248.5,1726.7c0,0-1.7-1-4.9-2.9c-3.2-2-7.6-5.7-12.2-11.5c-4.5-6-8.5-14.5-10.6-25.2
					c-2.2-10.7-2.1-23.6,0.4-37.7s8.3-29.3,17.5-44.2c9.1-15,21.2-30.1,36.6-43.9c15.4-13.7,33.8-26.5,55.6-35.8
					c2.7-1.1,5.5-2.3,8.2-3.5c2.8-1,5.7-2,8.6-3c2.9-1.1,5.8-1.9,8.8-2.7c3-0.8,6-1.7,9-2.4c12.2-2.8,25-4.4,38.3-5l-0.5,1.1
					c-12.5-14-22.7-30.9-29.9-49.9c-7-19-10.7-39.9-10.7-61.5c0.2-21.6,3.8-44,12.3-65.4c4.2-10.7,9.3-21.2,15.7-31.2
					c6.2-10,13.4-19.7,21.6-28.6c32.4-36,78.7-63,130.9-73.2c26-5.3,53.4-6.7,80.9-4.7c27.5,2.1,55.3,7.7,82.6,16.4l-1.2,1.1
					c-1.6-10.9-0.4-22.4,3.5-33c3.9-10.7,10.2-20.6,18.3-29s18-15.3,29.1-19.7c11.1-4.4,23.4-6.2,35.5-4.4l-0.7,1.8
					c-17.4-12.1-24.7-38.1-14.4-58.3c10.4-20.2,37.5-30,59-20.4l-1.5,0.9c-0.9-107.7-1.8-221.2-2.7-338.1v-1.1h1.1
					c31.9,0,66,0,100.4,0c33.8,0,67.4,0,100.6,0h1.1v1.1c-0.9,116.6-1.9,229.8-2.7,338.1l-1.5-0.9c21.1-9.4,47.8-0.2,58.6,19.6
					c10.7,19.9,4.1,46.5-14,59.1l-0.7-1.8c11.9-1.9,24.1-0.1,35.1,4.2c11,4.3,20.9,11.1,29,19.3c8.1,8.3,14.6,18.2,18.5,28.9
					c4,10.7,5.4,22.4,3.7,33.7l-1.2-1.1c27.2-8.7,55-14.2,82.5-16.4c27.5-1.9,54.8-0.6,80.8,4.7c52.2,10.2,98.4,37.1,130.8,73
					c8.2,8.9,15.4,18.6,21.6,28.6c6.4,9.9,11.5,20.4,15.7,31.1c4.4,10.6,7.1,21.7,9.3,32.6c2,11,3,22,3.1,32.8
					c0,21.6-3.7,42.6-10.7,61.6c-7.1,19-17.4,36-29.9,50l-0.5-1.1c13.2,0.5,26.1,2.2,38.3,5c3.1,0.7,6,1.6,9,2.4s5.9,1.6,8.8,2.7
					c2.9,1,5.7,2,8.6,3c2.8,1.2,5.5,2.3,8.2,3.5c21.8,9.3,40.2,22.2,55.6,35.9c15.4,13.8,27.5,28.9,36.5,43.9
					c9.2,15,15,30.1,17.4,44.2c2.6,14.1,2.6,26.9,0.4,37.7c-2.1,10.7-6.2,19.3-10.6,25.2c-4.6,5.8-9,9.5-12.1,11.5
					c-3.2,2-4.9,2.9-4.9,2.9s1.6-1.1,4.8-3.1c3.1-2.1,7.4-5.7,12-11.6c4.4-5.9,8.3-14.4,10.4-25.1s2.1-23.5-0.5-37.4
					c-2.5-14-8.3-29-17.5-43.9c-9.1-14.9-21.2-29.9-36.5-43.6c-15.3-13.6-33.7-26.4-55.4-35.6c-2.7-1.1-5.4-2.3-8.2-3.4
					c-2.8-1-5.7-2-8.5-3c-2.8-1.1-5.8-1.9-8.7-2.7c-3-0.8-5.9-1.7-9-2.4c-12.2-2.8-24.9-4.4-38.1-4.9l-1.4-0.1l0.9-1
					c12.4-13.9,22.6-30.8,29.6-49.7c6.8-18.9,10.5-39.7,10.5-61.1c-0.1-10.7-1.1-21.6-3.1-32.5c-2.2-10.8-4.9-21.8-9.3-32.3
					c-4.2-10.6-9.3-21-15.7-30.8c-6.2-9.9-13.3-19.5-21.5-28.3c-32.2-35.6-78.1-62.3-130-72.3c-25.8-5.3-53-6.6-80.3-4.6
					c-27.4,2.1-55,7.7-82.1,16.3l-1.5,0.5l0.2-1.5c1.7-10.9,0.3-22.2-3.6-32.7s-10.2-20.1-18.1-28.2s-17.6-14.7-28.3-18.9
					c-10.7-4.2-22.5-5.9-34-4.1l-4.3,0.7l3.6-2.5c17.2-11.9,23.6-37.7,13.4-56.5s-36-27.7-56-18.7l-1.5,0.7v-1.6
					c0.9-108.3,1.7-221.5,2.7-338.1l1.1,1.1c-33.2,0-66.8,0-100.6,0c-34.4,0-68.6,0-100.4,0l1.1-1.1c0.9,116.9,1.8,230.4,2.7,338.1
					v1.6l-1.5-0.7c-20.3-9.1-46.6,0.3-56.3,19.5c-9.8,19.2-2.8,44.3,13.7,55.8l3.6,2.5l-4.3-0.7c-11.7-1.8-23.6-0.1-34.4,4.2
					c-10.8,4.3-20.5,11-28.4,19.2c-15.9,16.3-24.6,39.2-21.3,60.4l0.2,1.5l-1.5-0.5c-27.1-8.7-54.7-14.2-82.1-16.3
					c-27.4-1.9-54.5-0.6-80.4,4.7c-51.9,10.1-97.8,36.8-130,72.5c-8.1,8.9-15.3,18.4-21.4,28.4c-6.3,9.9-11.4,20.3-15.6,30.9
					c-8.4,21.2-12.1,43.4-12.3,64.8c0,21.4,3.7,42.2,10.6,61c7,18.8,17.1,35.6,29.5,49.5l0.9,1l-1.4,0.1c-13.1,0.5-25.9,2.1-38,4.9
					c-3,0.7-6,1.6-9,2.4s-5.9,1.6-8.7,2.7c-2.9,1-5.7,2-8.5,2.9c-2.7,1.2-5.5,2.3-8.2,3.4c-21.7,9.2-40,21.9-55.4,35.5
					c-15.3,13.7-27.4,28.7-36.5,43.6c-9.2,14.9-15,29.9-17.5,43.9c-2.6,14-2.7,26.8-0.6,37.5c2.1,10.7,6,19.2,10.4,25.1
					c4.5,5.8,8.8,9.5,12,11.6C246.9,1725.7,248.5,1726.7,248.5,1726.7z"/>
			</g>
		</g>
		<g>
			<g>
				<polygon class="st4" points="672.1,484.3 925.3,189.5 1168.5,484.3 1073.6,484.3 1073.6,964.9 778.9,964.9 778.9,484.8 				"/>
			</g>
		</g>
		<g>
			<g>
				<g>
					<polygon class="st5" points="1874.5,727.9 1695.3,783 1738.8,810.5 1859.4,885.5 1898.2,909.7 					"/>
				</g>
				<g>
					<g>
						<polygon class="st5" points="1065.7,1660.7 957.7,1606.7 1213.9,1210.7 1317.9,1310.4 1521.4,987.2 1623,1061.7 1805.5,764 
							1866.8,792.7 1642.4,1195 1528.7,1088.8 1334.6,1451 1232.4,1331.4 						"/>
					</g>
				</g>
			</g>
			<g class="st6">
				<g>
					<path d="M1171.4,1558.6c-24.6-16.3-56.4-18.1-85.3-12.4c-9.6,1.9-20.1,4.4-28.5-0.6c-8.3-5-11.1-15.3-14.4-24.4
						c-16.9-46.4-63.3-78.3-112-86.4c-48.8-8.1-87.9-4.2-132.1,17.9c-26.4,13.2-53.6,31.7-76.8,66.2c-6.6,9.9-18.7,30-18.7,30
						c-8.8,6.5-20.5,7-31.4,8.7c-44.7,7.3-83.3,43.6-93.2,87.8l619.7-10.1C1210.4,1608.3,1196,1574.9,1171.4,1558.6z"/>
				</g>
			</g>
			<g>
				<g>
					<path class="st0" d="M545.1,1685.8c19.4-68.6,95.7-115.7,165.7-102.2c14.8-74.7,86.3-133.9,162.4-134.5s148.6,57.6,164.5,132
						c42.1-9.7,87.3-16.9,127.4-1.1c40.2,15.8,70.9,62.9,54.3,102.7"/>
				</g>
				<g>
					<g>
						<path class="st3" d="M1219.5,1682.7c0,0,0.1-0.4,0.3-1.2c0.3-0.8,0.6-2,1.1-3.4c0.5-1.5,1.1-3.3,1.5-5.6
							c0.4-2.3,1.1-4.9,1.1-7.9c1-11.9-1.8-30.6-14.9-49.1c-6.5-9.2-15.3-18.2-26.6-25.7c-11.2-7.7-25.2-12.6-40.5-15.6
							c-15.3-2.8-32.1-3.2-49.4-1.5c-17.4,1.6-35.4,5.1-54.1,9.4l-0.9,0.2l-0.2-0.9c-6.7-29.5-22.6-59.3-47.4-82.8
							c-24.6-23.5-57.4-41.4-93.8-46.6c-22.7-3.2-45.7-1.4-66.6,5.3c-21,6.6-40.2,17.1-56.5,30c-16.4,12.9-30,28.3-40.2,44.9
							s-17.1,34.3-20.6,51.7l-0.2,0.9l-0.9-0.2c-15.6-2.9-31.1-2.8-45.3-0.6c-7.2,0.9-14,2.9-20.6,4.6c-3.2,1.1-6.4,2.2-9.6,3.3
							c-3.2,1-6.1,2.6-9,3.8c-6,2.4-11.3,5.8-16.6,8.7c-2.5,1.7-5,3.3-7.4,4.9c-1.2,0.8-2.4,1.6-3.6,2.4c-1.1,0.8-2.2,1.8-3.3,2.6
							c-2.2,1.7-4.3,3.5-6.4,5.1c-2.1,1.7-3.9,3.6-5.7,5.3c-1.8,1.8-3.7,3.4-5.4,5.2c-1.6,1.8-3.2,3.6-4.7,5.4
							c-12,14.1-18.8,27.1-22.7,36.2c-2,4.5-3,8.2-3.9,10.6s-1.4,3.6-1.4,3.6s1.3-5.1,4.8-14.4c3.8-9.1,10.4-22.4,22.4-36.6
							c1.5-1.8,3.1-3.6,4.7-5.4c1.6-1.8,3.5-3.5,5.3-5.3c1.9-1.8,3.7-3.7,5.7-5.4c2.1-1.7,4.2-3.4,6.4-5.2c1.1-0.9,2.2-1.8,3.3-2.7
							c1.2-0.8,2.4-1.6,3.6-2.4c2.4-1.6,4.9-3.3,7.4-5c5.3-2.9,10.6-6.4,16.7-8.8c3-1.3,5.9-2.9,9.1-3.9c3.2-1.1,6.4-2.3,9.6-3.4
							c6.7-1.8,13.5-3.8,20.8-4.8c14.4-2.3,30.1-2.5,45.9,0.4l-1.1,0.7c3.5-17.7,10.4-35.6,20.8-52.4c10.3-16.8,24.1-32.3,40.6-45.5
							c16.5-13.1,35.9-23.8,57.2-30.4c21.2-6.9,44.6-8.7,67.5-5.4c36.9,5.3,70.1,23.4,94.9,47.2c25,23.8,41.1,54.1,47.8,83.9
							l-1.2-0.7c18.7-4.3,36.8-7.8,54.3-9.3c17.5-1.6,34.4-1.2,49.9,1.7c15.4,3,29.7,8.1,40.9,16c11.4,7.6,20.3,16.9,26.8,26.2
							c13.1,18.8,15.9,37.8,14.6,49.8c-0.1,3.1-0.8,5.7-1.3,8c-0.4,2.3-1.1,4.2-1.6,5.6s-0.9,2.5-1.2,3.4
							C1219.7,1682.4,1219.5,1682.8,1219.5,1682.7z"/>
					</g>
				</g>
			</g>
		</g>
	</g>
	<g>
		<g>
			<g>
				<g>
					<g>
						<g>
							<path class="st2" d="M833.6,629.8c2.6,164.8-128.7,301-292.7,303.6s-299.6-129.3-302.2-294c-2.6-164.8,128.7-301,292.7-303.6
								C695.4,333.1,831,465.1,833.6,629.8z M393.9,636.9c1.3,78.8,66.1,141.9,144.5,140.6c78.4-1.3,141.2-66.4,139.9-145.2
								s-66.1-141.9-144.5-140.6C455.5,493,392.7,558.1,393.9,636.9z"/>
						</g>
					</g>
				</g>
			</g>
			<g>
				<g>
					<g>
						<g>
							<path class="st5" d="M833.6,629.8c2.6,164.8-128.7,301-292.7,303.6l-2.5-156c78.4-1.3,141.2-66.4,139.9-145.2
								c-1.3-78.8-66.1-141.9-144.5-140.6l-2.5-156C695.4,333.2,831,465.1,833.6,629.8z"/>
							<path class="st5" d="M538.9,935.5l-2.6-160h2c77.3-1.2,139.2-65.4,137.9-143.1c-0.6-37.6-15.8-72.7-42.7-98.9
								c-26.9-26.2-62.3-40.2-99.7-39.7h-2.1l-2.4-160h2c79.9-1.3,155.6,28.8,213.1,84.8s89.9,131,91.2,211.2
								c2.7,165.9-129.6,303.1-294.7,305.7H538.9z M540.5,779.5l2.4,151.9c161.9-3.7,291.2-138.6,288.6-301.5
								c-1.3-79.1-33.2-153.1-90-208.4c-56.2-54.7-130-84.4-208-83.7l2.4,151.9c37.6,0,73.4,14.4,100.6,40.9
								c27.7,27,43.3,63.1,43.9,101.7C681.7,711.5,619.1,777.1,540.5,779.5z"/>
						</g>
					</g>
				</g>
			</g>
			<g>
				<g id="XMLID_00000094579858673664603630000015149019927310354620_">
					<g>
						<g>
							<path class="st4" d="M567.7,957.5c-191.9,3.1-345-145.8-348.1-338.6l181.6-2.9c1.5,92.2,71.6,150.2,163.4,148.7L567.7,957.5z
								"/>
						</g>
					</g>
				</g>
			</g>
		</g>
		<g>
			<g>
				<g>
					<path class="st3" d="M323.9,622c1.2,0.8-16,27.7-38.3,60.1c-22.3,32.4-41.4,58-42.5,57.2c-1.2-0.8,16-27.7,38.3-60.1
						C303.8,646.8,322.8,621.2,323.9,622z"/>
				</g>
			</g>
		</g>
		<g>
			<g>
				<g>
					<path class="st3" d="M402.9,637.2c1.2,0.8-24.2,39.6-56.7,86.8c-32.5,47.1-59.7,84.7-60.9,83.9c-1.2-0.8,24.2-39.6,56.7-86.8
						C374.5,674,401.7,636.4,402.9,637.2z"/>
				</g>
			</g>
		</g>
		<g>
			<g>
				<g>
					<path class="st3" d="M441.3,717.9c1.2,0.8-21.7,36-51.1,78.6S336.1,873,335,872.2c-1.2-0.8,21.7-36,51.1-78.6
						C415.4,751,440.2,717.1,441.3,717.9z"/>
				</g>
			</g>
		</g>
		<g>
			<g>
				<g>
					<path class="st3" d="M508.2,762.6c1.2,0.8-21.7,36-51.1,78.6s-54.1,76.5-55.2,75.7c-1.2-0.8,21.7-36,51.1-78.6
						C482.3,795.7,507,761.8,508.2,762.6z"/>
				</g>
			</g>
		</g>
		<g>
			<g>
				<g>
					<path class="st3" d="M565.5,819.3c1.2,0.8-17.5,29.9-41.7,65c-24.2,35.1-44.7,62.9-45.9,62.1c-1.2-0.8,17.5-29.9,41.7-65
						C543.8,846.3,564.3,818.5,565.5,819.3z"/>
				</g>
			</g>
		</g>
	</g>
	<g>
		<g>
			<g>
				<g>
					<g>
						<g>
							<g>
								<g>
									<g>
										<path class="st0" d="M235.1,1025.9H60.2c-12.1,0-21.9-9.8-21.9-21.9V761.9c0-12.1,9.8-21.9,21.9-21.9h110.9l85.9,88.5
											V1004C257,1016.1,247.2,1025.9,235.1,1025.9z"/>
									</g>
								</g>
							</g>
						</g>
					</g>
					<g>
						<g>
							<g>
								<g>
									<g>
										<path class="st1" d="M171.1,740v68.1c0,11.2,9.1,20.4,20.4,20.4H257L171.1,740z"/>
									</g>
								</g>
							</g>
						</g>
					</g>
					<g>
						<g>
							<g>
								<g>
									<g>
										<path class="st2" d="M172,814.2c0,0-0.9,16.5,18,22c0.7,0.2,1.4,0.4,2.2,0.5c8.6,1.5,64.9,11.5,64.9,10.3
											c0-1.4,0-18.3,0-18.3h-65.5C191.4,828.5,175.1,828,172,814.2z"/>
									</g>
								</g>
							</g>
						</g>
					</g>
				</g>
			</g>
			<g>
				<g>
					<g>
						<g>
							<g>
								<g>
									<path class="st3" d="M235.1,1025.9c0-0.1,1.3,0,3.8-0.4c2.4-0.5,6.1-1.6,9.9-4.6c3.7-3,7.5-8.3,7.8-15.4
										c0.1-7.1,0-15.3,0-24.4c-0.1-36.7-0.2-89.1-0.3-152.5l0.2,0.4c-26-26.8-55-56.6-85.9-88.4l0.5,0.2c-20.6,0-42,0-64,0
										c-11,0-22.2,0-33.5,0c-2.8,0-5.7,0-8.5,0c-2.8,0-5.7-0.1-8.4,0.3c-5.4,0.9-10.5,4-13.7,8.6c-2.2,3.1-3.6,6.9-3.9,10.8
										c-0.2,3.9,0,7.9-0.1,11.9c0,7.9,0,15.8,0,23.6c0,15.6,0,31,0,46.2c0,30.3,0,59.5,0,87.3c0,13.9,0,27.5,0,40.6
										c0,6.6,0,13.1,0,19.5c0,3.2,0,6.4,0,9.5c0.1,3.2-0.2,6.3,0.4,9.2c1.1,5.9,4.9,11.1,9.9,14.1c2.5,1.5,5.3,2.5,8.1,2.9
										s5.7,0.2,8.6,0.2c11.5,0,22.5,0,33,0c42,0.1,76.1,0.2,99.6,0.2c11.7,0.1,20.9,0.1,27.1,0.1c3.1,0,5.4,0.1,7,0.1
										C234.3,1025.9,235.1,1025.9,235.1,1025.9s-0.8,0.1-2.4,0.1c-1.6,0-4,0-7,0.1c-6.2,0-15.4,0.1-27.1,0.1
										c-23.6,0.1-57.6,0.1-99.6,0.2c-10.5,0-21.5,0-33,0c-2.9,0-5.7,0.1-8.8-0.2c-3-0.4-5.9-1.4-8.5-3
										c-5.3-3.1-9.3-8.6-10.5-14.9c-0.6-3.2-0.4-6.3-0.4-9.4s0-6.3,0-9.5c0-6.4,0-12.9,0-19.5c0-13.2,0-26.7,0-40.6
										c0-27.8,0-57,0-87.3c0-15.1,0-30.5,0-46.2c0-7.8,0-15.7,0-23.6c0-4-0.1-7.9,0.1-12c0.3-4.1,1.7-8.2,4.1-11.5
										c3.5-4.9,8.9-8.2,14.7-9.2c3-0.5,5.8-0.3,8.6-0.3c2.8,0,5.7,0,8.5,0c11.3,0,22.5,0,33.5,0c22,0,43.4,0,64,0h0.3l0.2,0.2
										c30.9,31.9,59.9,61.8,85.8,88.6l0.2,0.2v0.3c-0.1,63.4-0.2,115.8-0.3,152.5c-0.1,9.2,0,17.3-0.2,24.4
										c-0.4,7.3-4.4,12.7-8.1,15.7c-3.9,3.1-7.7,4.1-10.1,4.5c-1.2,0.2-2.2,0.3-2.8,0.3C235.4,1025.9,235.1,1025.9,235.1,1025.9z
										"/>
								</g>
							</g>
						</g>
					</g>
				</g>
			</g>
			<g>
				<g>
					<g>
						<g>
							<g>
								<g>
									<path class="st3" d="M257,828.5c0,0.1-0.6,0.1-1.7,0.2c-1.3,0-2.9,0.1-4.8,0.1c-4.4,0.1-10.4,0.1-17.7,0.2
										c-7.6,0-16.5,0.1-26.3,0.2c-5,0-10.2,0-15.6,0c-5.6-0.1-11.3-2.7-15.2-7.1c-2-2.2-3.4-4.8-4.3-7.6c-0.9-2.7-1-5.7-1-8.4
										c0-5.4,0-10.6,0-15.5c0.1-9.9,0.1-18.8,0.2-26.3c0.1-7.3,0.2-13.4,0.2-17.7c0.1-2,0.1-3.6,0.1-4.8c0-1.1,0.1-1.7,0.2-1.7
										c0.1,0,0.1,0.6,0.2,1.7c0,1.3,0.1,2.9,0.1,4.8c0.1,4.4,0.1,10.4,0.2,17.7c0,7.6,0.1,16.5,0.2,26.3c0,5,0,10.2,0,15.5
										c-0.1,2.7,0.1,5.3,0.9,7.9c0.8,2.6,2.2,5,4,7c3.6,4.2,8.9,6.5,14.1,6.7c5.4,0,10.6,0.1,15.5,0.1c9.9,0.1,18.8,0.1,26.3,0.2
										c7.3,0.1,13.4,0.2,17.7,0.2c2,0.1,3.6,0.1,4.8,0.1C256.4,828.4,257,828.5,257,828.5z"/>
								</g>
							</g>
						</g>
					</g>
				</g>
			</g>
		</g>
		<g>
			<g>
				<path class="st3" d="M167.8,800.8c0,0.4-20.7,0.7-46.1,0.7c-25.5,0-46.1-0.3-46.1-0.7s20.7-0.7,46.1-0.7
					S167.8,800.4,167.8,800.8z"/>
			</g>
		</g>
		<g>
			<g>
				<path class="st3" d="M211.6,834.8c0,0.4-30.5,0.7-68,0.7c-37.6,0-68-0.3-68-0.7s30.5-0.7,68-0.7S211.6,834.4,211.6,834.8z"/>
			</g>
		</g>
		<g>
			<g>
				<path class="st3" d="M211.6,868.8c0,0.4-30.5,0.7-68,0.7c-37.6,0-68-0.3-68-0.7s30.5-0.7,68-0.7S211.6,868.4,211.6,868.8z"/>
			</g>
		</g>
		<g>
			<g>
				<path class="st3" d="M211.6,902.8c0,0.4-30.5,0.7-68,0.7c-37.6,0-68-0.3-68-0.7s30.5-0.7,68-0.7S211.6,902.4,211.6,902.8z"/>
			</g>
		</g>
		<g>
			<g>
				<path class="st3" d="M211.6,936.8c0,0.4-30.5,0.7-68,0.7c-37.6,0-68-0.3-68-0.7s30.5-0.7,68-0.7S211.6,936.4,211.6,936.8z"/>
			</g>
		</g>
		<g>
			<g>
				<path class="st3" d="M211.6,970.8c0,0.4-30.5,0.7-68,0.7c-37.6,0-68-0.3-68-0.7s30.5-0.7,68-0.7S211.6,970.4,211.6,970.8z"/>
			</g>
		</g>
	</g>
	<g>
		<g>
			<g>
				<g>
					<g>
						<g>
							<g>
								<path class="st1" d="M1111.7,1482.5c0,2.5,0,137.3,0,137.3h-22.9v14.9h22.9v91.9h428.6V1643h-31.8v-18.2h31.8v-27.3h14.1
									v-12.4h-16.8v-102.6H1111.7z"/>
							</g>
						</g>
					</g>
				</g>
			</g>
			<g>
				<g>
					<g>
						<g>
							<g>
								<polygon class="st2" points="1426.5,1482.9 1426.5,1725.1 1540.3,1725.1 1540.3,1641.5 1508.6,1641.5 1508.6,1624.8 
									1540.3,1625.4 1540.3,1598 1554.7,1598.1 1554.4,1583.9 1537.7,1583.5 1537.7,1482.5 								"/>
							</g>
						</g>
					</g>
				</g>
			</g>
			<g>
				<g>
					<g>
						<g>
							<g>
								<g>
									<path class="st2" d="M1434.6,1632.8c0,0.8-77.6,1.5-173.2,1.5c-95.7,0-173.2-0.7-173.2-1.5s77.5-1.5,173.2-1.5
										C1357,1631.3,1434.6,1631.9,1434.6,1632.8z"/>
								</g>
							</g>
						</g>
					</g>
				</g>
			</g>
			<g>
				<g>
					<g>
						<g>
							<g>
								<g>
									<path class="st2" d="M1434.6,1618.8c0,0.8-77.6,1.5-173.2,1.5c-95.7,0-173.2-0.7-173.2-1.5s77.5-1.5,173.2-1.5
										C1357,1617.3,1434.6,1618,1434.6,1618.8z"/>
								</g>
							</g>
						</g>
					</g>
				</g>
			</g>
			<g>
				<g>
					<g>
						<g>
							<g>
								<g>
									<path class="st2" d="M1456.9,1581.3c0,0.8-77.6,1.5-173.2,1.5c-95.7,0-173.2-0.7-173.2-1.5s77.5-1.5,173.2-1.5
										C1379.3,1579.8,1456.9,1580.4,1456.9,1581.3z"/>
								</g>
							</g>
						</g>
					</g>
				</g>
			</g>
			<g>
				<g>
					<g>
						<g>
							<g>
								<g>
									<path class="st2" d="M1459,1683.6c0,0.8-77.6,1.5-173.2,1.5c-95.7,0-173.2-0.7-173.2-1.5s77.5-1.5,173.2-1.5
										C1381.4,1682.1,1459,1682.8,1459,1683.6z"/>
								</g>
							</g>
						</g>
					</g>
				</g>
			</g>
		</g>
	</g>
	<g>
		<g>
			<g>
				<g>
					<g>
						<path class="st7" d="M1509.2,145.1c0,0,17.9-41.3,18.8-47.7c0.9-6.5-0.9-20.8-5.6-24.7c-4.6-3.9-10.6-4.7-14.8-2
							c0,0-0.7-9-9.8-10.7c-9.2-1.7-8.9,6.8-8.9,6.8s0.4-6.3-6.2-8c-3.3-0.8-7,1-7,1s-8.8-7.8-14.6-3c-5.8,4.8,0.9,80,0.9,80
							L1509.2,145.1z"/>
					</g>
					<g>
						<g>
							<path class="st7" d="M1460.8,128.2c0,0-16-27.6-15.9-35.1s9.1-24.5,14.1-26.7c5-2.1,24.8-6.6,24.8-6.6s8.1,7.6-3.9,15.1
								l-13.8,7.8c0,0,22,7.4,21.3,29.8"/>
						</g>
						<g>
							<g>
								<path class="st8" d="M1487.4,112.5c-0.4,0,0.1-4-2-10.4c-1.2-3.1-3.2-6.8-6.5-10.1c-3.2-3.3-7.8-6.5-13.1-8.5l-1.8-0.7
									l1.7-1c4.3-2.5,9-5.2,14-8c2.3-1.4,4.5-3.4,5.4-5.9c0.9-2.4-0.1-5.4-2-7.4l1,0.3c-3.4,0.8-7,1.7-10.6,2.5
									c-2.8,0.7-5.6,1.4-8.3,2.2c-1.4,0.4-2.7,0.8-4,1.2c-0.6,0.2-1.3,0.4-1.8,0.7c-0.5,0.2-1,0.6-1.4,1
									c-3.7,3.6-6.3,8.4-8.4,12.8c-1,2.2-2,4.5-2.7,6.7c-0.6,2.2-1.2,4.5-0.9,6.4c0.9,4.2,2.6,8.1,4.1,11.5
									c3.1,6.9,6,12.4,7.9,16.2s3,5.9,2.9,6c-0.1,0.1-1.4-1.9-3.6-5.6c-2.2-3.7-5.2-9.1-8.5-16c-1.6-3.5-3.4-7.3-4.5-11.9
									c-0.5-2.5,0.2-4.9,0.8-7.3c0.7-2.4,1.6-4.7,2.7-7c2.2-4.6,4.6-9.4,8.8-13.6c0.6-0.5,1.2-1,1.9-1.4c0.7-0.3,1.4-0.6,2.1-0.8
									c1.4-0.5,2.7-0.9,4.1-1.3c2.7-0.8,5.5-1.5,8.4-2.2c3.6-0.9,7.2-1.7,10.6-2.5l0.6-0.1l0.4,0.4c2.5,2.5,3.7,6.3,2.5,9.6
									c-1.2,3.2-3.8,5.4-6.3,6.9c-5,2.8-9.7,5.4-14.1,7.9l-0.2-1.6c5.7,2.3,10.2,5.6,13.6,9.2c3.3,3.6,5.3,7.5,6.4,10.8
									c0.5,1.7,0.9,3.2,1,4.5c0.2,1.3,0.3,2.5,0.3,3.4C1487.6,111.6,1487.5,112.5,1487.4,112.5z"/>
							</g>
						</g>
					</g>
					<g>
						<g>
							<path class="st7" d="M1487.3,67c-2.2,8-3,16.4-2.4,24.6c0.2,2.8,0.7,5.8,2.7,7.8c1.9,1.9,4.8,2.6,7.4,2.1s5-2,6.9-3.9"/>
						</g>
						<g>
							<g>
								<path class="st8" d="M1501.9,97.7c0.2,0.1-1.3,2.8-5.9,4.5c-2.2,0.7-5.5,0.8-8.3-1.2c-2.9-2.1-3.6-6-3.9-9.4
									c-1.1-13.9,3-24.8,3.4-24.5c0.6,0.1-2.4,10.9-1.3,24.4c0.2,3.3,0.9,6.4,2.9,8s4.7,1.8,6.7,1.3
									C1499.7,99.7,1501.6,97.4,1501.9,97.7z"/>
							</g>
						</g>
					</g>
					<g>
						<g>
							<path class="st7" d="M1469.7,81.9c-1.4,3.6-0.9,5.2-0.7,9c0.2,3.8,2.5,7.8,6.3,8.7c3.1,0.7,7.2-3.4,9-7.8"/>
						</g>
						<g>
							<g>
								<path class="st8" d="M1484.3,91.9c0.2,0.1-0.1,2-1.9,4.6c-0.9,1.3-2.2,2.8-4.3,3.8c-1,0.5-2.6,0.6-3.8,0.2
									c-1.2-0.4-2.3-1.1-3.2-2c-1.8-1.9-2.7-4.2-3-6.3c-0.2-2.2-0.2-3.8-0.2-5.4c0.2-3.3,1.5-4.9,1.7-4.7c0.3,0.1-0.4,1.9-0.2,4.7
									c0.2,1.8,0.4,3.5,0.6,5.1c0.3,1.8,1.1,3.7,2.6,5.1c0.7,0.7,1.5,1.3,2.4,1.6s1.5,0.3,2.3,0c1.6-0.6,2.9-1.9,3.8-2.9
									C1483.1,93.4,1484,91.7,1484.3,91.9z"/>
							</g>
						</g>
					</g>
					<g>
						<g>
							<path class="st7" d="M1509.1,71.1c-4.5,4.9-7.8,10.8-9.6,17.2c-0.9,3.4-1.2,7.5,1.4,9.8c2.7,2.5,7.1,1.5,10.2-0.4
								c4.7-2.9,8.1-7.9,9.1-13.3"/>
						</g>
						<g>
							<g>
								<path class="st8" d="M1520.2,84.4c0.2,0,0.3,3.5-2.6,8.2c-1.5,2.3-3.7,4.7-6.9,6.5c-1.6,0.9-3.5,1.5-5.7,1.5
									c-2.1,0-4.6-1-5.8-3c-1.3-2-1.4-4.3-1.2-6.3c0.2-2,0.8-3.8,1.4-5.5c1.2-3.3,2.7-6.2,4.1-8.4c2.9-4.5,5.5-6.5,5.7-6.4
									c0.3,0.2-1.9,2.7-4.4,7.1c-1.2,2.2-2.5,5-3.6,8.2c-0.5,1.6-1,3.3-1.1,5.1c-0.2,1.7,0,3.6,0.9,4.9c1.8,2.9,6.1,2.3,8.8,0.9
									c2.9-1.5,5.1-3.7,6.6-5.7C1519.3,87.6,1519.8,84.3,1520.2,84.4z"/>
							</g>
						</g>
					</g>
				</g>
				<g>
					<g>
						<path class="st3" d="M1286.5,409.4c0,0,22.2-24,31-29.4s66.6-74.3,72.7-92.5c6.1-18.1,62.9-163.8,61.7-161.9
							c-1,1.6,72,15.4,72,15.4s-54.4,168-61,187.2c-12,34.8-71.3,105.4-105.2,147.6c-14.4,18-34.3,75.7-34.3,75.7L1286.5,409.4z"/>
					</g>
					<g>
						<g>
							<path class="st5" d="M1339.5,499.9c-0.3,0-1.2-5-2.1-13.2s-1.8-19.5-2-32.1s0.3-23.9,0.9-32.2c0.6-8.2,1.4-13.3,1.7-13.2
								c0.3,0,0.1,5.1-0.1,13.3c-0.3,8.2-0.5,19.5-0.3,32c0.2,12.5,0.8,23.8,1.4,32C1339.4,494.8,1339.8,499.9,1339.5,499.9z"/>
						</g>
					</g>
				</g>
			</g>
			<g>
				<g>
					<g>
						<g>
							<g>
								<g>
									<g>
										<g>
											<g>
												<g>
													<g>
														<g>
															<path class="st5" d="M972.9,1356.1l-31.3,63.7l-4,15.6c0,0,20.9,94.7,7.8,104l-93-150.2l24-15.1l29.8-63.7
																L972.9,1356.1z"/>
														</g>
													</g>
												</g>
											</g>
										</g>
									</g>
								</g>
							</g>
						</g>
					</g>
					<g>
						<g>
							<g>
								<g>
									<g>
										<g>
											<g>
												<g>
													<g>
														<g>
															<path class="st3" d="M852.4,1389.3l11.8-6.8L949,1529c0,0,1.4,8.4-3.5,10.4L852.4,1389.3z"/>
														</g>
													</g>
												</g>
											</g>
										</g>
									</g>
								</g>
							</g>
						</g>
					</g>
					<g>
						<g>
							<g>
								<g>
									<g>
										<g>
											<g>
												<g>
													<g>
														<g>
															<g>
																<path class="st3" d="M939.9,1437.4c-0.7,0.4-3.3-3.1-7.8-5.3c-4.4-2.3-8.6-2.3-8.7-3.2c-0.3-0.8,4.5-2.2,9.9,0.5
																	C938.7,1432.2,940.6,1437.2,939.9,1437.4z"/>
															</g>
														</g>
													</g>
												</g>
											</g>
										</g>
									</g>
								</g>
							</g>
						</g>
					</g>
					<g>
						<g>
							<g>
								<g>
									<g>
										<g>
											<g>
												<g>
													<g>
														<g>
															<g>
																<path class="st3" d="M943.5,1457c-0.6,0.6-3.7-1.9-8.2-2.5c-4.5-0.8-8,0.6-8.5-0.2c-0.5-0.6,3.2-3.7,8.8-2.7
																	C941.2,1452.5,944.1,1456.6,943.5,1457z"/>
															</g>
														</g>
													</g>
												</g>
											</g>
										</g>
									</g>
								</g>
							</g>
						</g>
					</g>
					<g>
						<g>
							<g>
								<g>
									<g>
										<g>
											<g>
												<g>
													<g>
														<g>
															<g>
																<path class="st3" d="M931.2,1477.1c-0.6-0.6,2.3-3.8,7.2-4.2c5-0.5,8.6,2,8.2,2.7c-0.3,0.8-3.7-0.2-7.8,0.3
																	C934.8,1476.1,931.7,1477.8,931.2,1477.1z"/>
															</g>
														</g>
													</g>
												</g>
											</g>
										</g>
									</g>
								</g>
							</g>
						</g>
					</g>
				</g>
				<g>
					<g>
						<g>
							<g>
								<path class="st3" d="M1291.6,887.4c-3.1,7.3-160,247.5-192.2,274.2s-142.1,245.9-142.1,245.9s-89.8-43.6-91.8-38.8
									c-2,4.7,63-154.7,101.7-220.2c38.8-65.5,56.8-90.8,56.8-90.8l77.1-205.6c0,0,1.6-67.7,11.5-94.1
									c9.9-26.4,38.9-49.2,38.9-49.2L1291.6,887.4z"/>
							</g>
						</g>
					</g>
				</g>
				<g>
					<g>
						<g>
							<g>
								<g>
									<g>
										<g>
											<g>
												<g>
													<g>
														<g>
															<path class="st5" d="M1150.2,1177.8l-83.5,6c0,0-21.4,91.5-36.8,94.2l-18.4-170.2l129.6-15L1150.2,1177.8z"/>
														</g>
													</g>
												</g>
											</g>
										</g>
									</g>
								</g>
							</g>
						</g>
					</g>
					<g>
						<g>
							<g>
								<g>
									<g>
										<g>
											<g>
												<g>
													<g>
														<g>
															<g>
																<path class="st2" d="M1068.1,1130.4c-1.2-3.2-5-5.1-8-4s-4.9,5.1-3.7,8.3c1.2,3.2,5.6,5.6,8.5,4.2
																	c2.9-1.5,4.8-6.3,3-9.1"/>
															</g>
														</g>
													</g>
												</g>
											</g>
										</g>
									</g>
								</g>
							</g>
						</g>
					</g>
					<g>
						<g>
							<g>
								<g>
									<g>
										<g>
											<g>
												<g>
													<g>
														<g>
															<path class="st3" d="M1011.7,1107.7l13.1-1l12.7,163.6c0,0-2.3,7.9-7.5,7.6L1011.7,1107.7z"/>
														</g>
													</g>
												</g>
											</g>
										</g>
									</g>
								</g>
							</g>
						</g>
					</g>
					<g>
						<g>
							<g>
								<g>
									<g>
										<g>
											<g>
												<g>
													<g>
														<g>
															<g>
																<path class="st3" d="M1067.9,1186.5c-0.8,0.1-1.6-4.1-4.6-7.9c-2.9-3.9-6.5-5.6-6.3-6.4c0.1-0.8,4.9-0.1,8.4,4.6
																	C1069,1181.4,1068.6,1186.6,1067.9,1186.5z"/>
															</g>
														</g>
													</g>
												</g>
											</g>
										</g>
									</g>
								</g>
							</g>
						</g>
					</g>
					<g>
						<g>
							<g>
								<g>
									<g>
										<g>
											<g>
												<g>
													<g>
														<g>
															<g>
																<path class="st3" d="M1062.8,1205.1c-0.7,0.3-2.5-3.2-6.1-5.6c-3.6-2.6-7.2-2.9-7.3-3.7c-0.2-0.8,4.3-1.9,8.8,1.3
																	C1062.7,1200.1,1063.6,1205,1062.8,1205.1z"/>
															</g>
														</g>
													</g>
												</g>
											</g>
										</g>
									</g>
								</g>
							</g>
						</g>
					</g>
					<g>
						<g>
							<g>
								<g>
									<g>
										<g>
											<g>
												<g>
													<g>
														<g>
															<g>
																<path class="st3" d="M1043.7,1217.5c-0.2-0.7,3.6-2.3,8.1-0.7c4.6,1.6,6.7,5.4,6.1,5.8c-0.6,0.5-3.2-1.7-6.9-3
																	C1047.2,1218.1,1043.8,1218.3,1043.7,1217.5z"/>
															</g>
														</g>
													</g>
												</g>
											</g>
										</g>
									</g>
								</g>
							</g>
						</g>
					</g>
					<g>
						<g>
							<g>
								<g>
									<g>
										<g>
											<g>
												<g>
													<g>
														<g>
															<g>
																<path class="st3" d="M1086.8,1182.9c-0.8-0.3-0.1-4.2-0.9-8.9c-0.7-4.7-2.6-8.2-2-8.7c0.5-0.5,3.8,2.7,4.7,8.2
																	C1089.5,1179,1087.4,1183.2,1086.8,1182.9z"/>
															</g>
														</g>
													</g>
												</g>
											</g>
										</g>
									</g>
								</g>
							</g>
						</g>
					</g>
				</g>
				<g>
					<path class="st3" d="M1077.1,824.5c0,0-0.2,80.1,36.1,107.1c36.3,27.1,162.4,128.8,162.4,128.8l-201.2,34.4l15,93.3
						c0,0,271.6-27.4,304.9-38.5c33.2-11.1,57.2-67.4,31.1-106.4c-13.1-19.6-148.3-211.9-148.3-211.9l-4.1-51.6l-170.5,10.8
						L1077.1,824.5z"/>
				</g>
				<g>
					<g>
						<path class="st5" d="M1089.5,1188c0,0-0.2-0.5-0.4-1.6c-0.2-1.2-0.5-2.8-0.9-4.8c-0.8-4.4-1.8-10.6-3.2-18.6
							c-2.7-16.2-6.6-39.5-11.3-68.2l-0.1-0.8l0.8-0.1c48.4-8.3,112.9-19.5,183.7-31.7c6-1,11.9-2,17.5-3l-0.5,1.9
							c-28.3-23.4-55.3-45.5-79.9-65.3c-12.3-9.8-24-19.2-35-27.9c-10.9-8.7-21.5-16.4-30.2-24.6c-17.5-16.2-28.9-31.8-35.8-43
							c-3.5-5.6-5.8-10.2-7.3-13.3c-0.7-1.6-1.2-2.8-1.6-3.6c-0.3-0.8-0.5-1.3-0.4-1.3c0,0,0.2,0.4,0.6,1.2s0.9,2,1.8,3.5
							c1.6,3.1,4,7.6,7.6,13.1c7.1,11,18.7,26.4,36.2,42.4c8.7,8,19.2,15.6,30.2,24.3c11,8.6,22.8,17.9,35.1,27.8
							c24.6,19.7,51.7,41.7,80,65.2l1.8,1.5l-2.3,0.4c-5.5,0.9-11.5,2-17.4,3c-70.8,12-135.4,22.9-183.8,31.1l0.7-0.9
							c4.5,28.7,8.1,52,10.6,68.3c1.2,8,2.1,14.2,2.8,18.6c0.3,2,0.5,3.6,0.7,4.9C1089.5,1187.4,1089.5,1188,1089.5,1188z"/>
					</g>
				</g>
				<g>
					<g>
						<path class="st5" d="M1329.9,1066.1c-0.2,0.6-12-2.8-26.9-4.4s-27.2-0.7-27.2-1.4c0-0.3,3-0.9,8-1.2c5-0.3,11.9-0.4,19.5,0.4
							s14.3,2.3,19.1,3.7C1327.2,1064.6,1330,1065.8,1329.9,1066.1z"/>
					</g>
				</g>
			</g>
			<g>
				<g>
					<g>
						<g>
							<g>
								<g>
									<g>
										<g>
											<g>
												<g>
													<g>
														<path class="st3" d="M1205.7,152.8c2.3-7.4,9.7-12.9,17.4-12.9c7.5-8.6,21.3-10.8,31.1-5c5.9-5.1,14.6-6.9,22-4.4
															s13.4,9,15.1,16.7c7.5-2.6,16.5,0.1,21.3,6.4c4.9,6.3,5.2,15.8,0.8,22.4c8.9,1.2,16.1,9.8,15.8,18.8
															c-0.3,9-8.1,17.1-17,17.7l-99.3-39.1C1206.5,168.9,1203.4,160.2,1205.7,152.8z"/>
													</g>
												</g>
											</g>
										</g>
									</g>
								</g>
							</g>
						</g>
					</g>
				</g>
				<g>
					<g>
						<g>
							<g>
								<g>
									<g>
										<g>
											<g>
												<g>
													<g>
														<g>
															<g>
																<g>
																	<g>
																		<path class="st7" d="M1315.3,214.5c-10.4-39.3-49.1-64-88.9-56.7l-4,0.7c-42.1,10.2-48.4,52.1-37,94.2L1218,411
																			l0,0l78.4,46.5l9.4-34.6l-0.1-56.4c0,0,39.8-13.8,32.8-55.1C1335.3,291.5,1325,251,1315.3,214.5z"/>
																	</g>
																</g>
															</g>
														</g>
													</g>
												</g>
											</g>
										</g>
									</g>
								</g>
							</g>
						</g>
						<g>
							<g>
								<g>
									<g>
										<g>
											<g>
												<g>
													<g>
														<g>
															<g>
																<g>
																	<g>
																		<g>
																			<g>
																				<path class="st8" d="M1306.2,366.4c0,0-25.9,6.3-56.5-6c0,0,16,29.6,56.2,18.5L1306.2,366.4z"/>
																			</g>
																		</g>
																	</g>
																</g>
															</g>
														</g>
													</g>
												</g>
											</g>
										</g>
									</g>
								</g>
							</g>
						</g>
						<g>
							<g>
								<g>
									<g>
										<g>
											<g>
												<g>
													<g>
														<g>
															<g>
																<g>
																	<g>
																		<g>
																			<g>
																				<g>
																					<g>
																						<g>
																							<path class="st3" d="M1310.3,253.2c0.7,3.1-1.4,6.2-4.6,7s-6.3-1.1-7-4.2c-0.7-3.1,1.4-6.2,4.6-7
																								C1306.4,248.3,1309.6,250.2,1310.3,253.2z"/>
																						</g>
																					</g>
																				</g>
																			</g>
																		</g>
																	</g>
																</g>
															</g>
														</g>
													</g>
												</g>
											</g>
										</g>
									</g>
								</g>
							</g>
						</g>
						<g>
							<g>
								<g>
									<g>
										<g>
											<g>
												<g>
													<g>
														<g>
															<g>
																<g>
																	<g>
																		<g>
																			<g>
																				<g>
																					<g>
																						<g>
																							<g>
																								<path class="st3" d="M1311,238.2c-0.6,0.9-5.6-1.6-11.9-0.4c-6.3,1.1-10.3,5.2-11.1,4.5
																									c-0.4-0.3,0.1-1.8,1.8-3.6c1.7-1.8,4.8-3.9,8.8-4.6c3.9-0.7,7.5,0.2,9.6,1.3
																									C1310.4,236.5,1311.3,237.8,1311,238.2z"/>
																							</g>
																						</g>
																					</g>
																				</g>
																			</g>
																		</g>
																	</g>
																</g>
															</g>
														</g>
													</g>
												</g>
											</g>
										</g>
									</g>
								</g>
							</g>
						</g>
						<g>
							<g>
								<g>
									<g>
										<g>
											<g>
												<g>
													<g>
														<g>
															<g>
																<g>
																	<g>
																		<g>
																			<g>
																				<g>
																					<g>
																						<g>
																							<path class="st3" d="M1255.3,265.7c0.7,3.1-1.4,6.2-4.6,7s-6.3-1.1-7-4.2s1.4-6.2,4.6-7
																								C1251.5,260.7,1254.6,262.6,1255.3,265.7z"/>
																						</g>
																					</g>
																				</g>
																			</g>
																		</g>
																	</g>
																</g>
															</g>
														</g>
													</g>
												</g>
											</g>
										</g>
									</g>
								</g>
							</g>
						</g>
						<g>
							<g>
								<g>
									<g>
										<g>
											<g>
												<g>
													<g>
														<g>
															<g>
																<g>
																	<g>
																		<g>
																			<g>
																				<g>
																					<g>
																						<g>
																							<g>
																								<path class="st3" d="M1250.7,248.3c-0.6,0.9-5.6-1.6-11.9-0.4c-6.3,1.1-10.3,5.2-11.1,4.5
																									c-0.4-0.3,0.1-1.8,1.8-3.6c1.7-1.8,4.8-3.9,8.8-4.6c3.9-0.7,7.5,0.2,9.6,1.3
																									C1250,246.6,1250.9,247.9,1250.7,248.3z"/>
																							</g>
																						</g>
																					</g>
																				</g>
																			</g>
																		</g>
																	</g>
																</g>
															</g>
														</g>
													</g>
												</g>
											</g>
										</g>
									</g>
								</g>
							</g>
						</g>
						<g>
							<g>
								<g>
									<g>
										<g>
											<g>
												<g>
													<g>
														<g>
															<g>
																<g>
																	<g>
																		<g>
																			<g>
																				<g>
																					<g>
																						<g>
																							<path class="st3" d="M1279.9,291.4c-0.1-0.4,3.7-1.7,9.9-3.7c1.6-0.5,3-1.1,3.1-2.2c0.2-1.2-0.8-2.9-1.9-4.6
																								c-2.2-3.6-4.5-7.4-7-11.4c-9.8-16.3-17.2-29.9-16.5-30.2c0.7-0.4,9.1,12.5,18.9,28.8c2.4,4,4.6,7.9,6.8,11.6
																								c0.9,1.7,2.4,3.6,2,6.2c-0.2,1.3-1.2,2.4-2.2,2.8c-1,0.5-1.9,0.7-2.7,0.9
																								C1283.9,291,1280,291.8,1279.9,291.4z"/>
																						</g>
																					</g>
																				</g>
																			</g>
																		</g>
																	</g>
																</g>
															</g>
														</g>
													</g>
												</g>
											</g>
										</g>
									</g>
								</g>
							</g>
						</g>
						<g>
							<g>
								<g>
									<g>
										<g>
											<g>
												<g>
													<g>
														<g>
															<g>
																<g>
																	<g>
																		<g>
																			<g>
																				<g>
																					<g>
																						<g>
																							<path class="st3" d="M1262.2,299.1c1-0.2,2.3,6.6,9,10.4s13.9,1.7,14.1,2.7c0.2,0.4-1.4,1.6-4.4,2.3
																								c-3,0.7-7.6,0.5-11.7-1.9c-4.1-2.3-6.4-6.1-7.1-8.8C1261.2,301,1261.7,299.2,1262.2,299.1z"/>
																						</g>
																					</g>
																				</g>
																			</g>
																		</g>
																	</g>
																</g>
															</g>
														</g>
													</g>
												</g>
											</g>
										</g>
									</g>
								</g>
							</g>
						</g>
						<g>
							<g>
								<g>
									<g>
										<g>
											<g>
												<g>
													<g>
														<g>
															<g>
																<g>
																	<g>
																		<g>
																			<path class="st3" d="M1247.5,230.2c-0.4,1.8-6.1,1.3-12.7,2.6c-6.6,1.2-11.8,3.7-12.8,2.2
																				c-0.4-0.7,0.4-2.4,2.4-4.2c2-1.8,5.4-3.6,9.3-4.4c3.9-0.7,7.6-0.2,10.1,0.7
																				C1246.3,228,1247.6,229.3,1247.5,230.2z"/>
																		</g>
																	</g>
																</g>
															</g>
														</g>
													</g>
												</g>
											</g>
										</g>
									</g>
								</g>
							</g>
						</g>
						<g>
							<g>
								<g>
									<g>
										<g>
											<g>
												<g>
													<g>
														<g>
															<g>
																<g>
																	<g>
																		<g>
																			<path class="st3" d="M1306.4,221.1c-0.7,1.7-5.4,1.4-10.5,2.7c-5.2,1.1-9.2,3.5-10.6,2.3c-0.6-0.6-0.3-2.2,1.2-4
																				s4.3-3.8,7.9-4.6c3.5-0.8,6.9-0.4,9.1,0.6C1305.7,219,1306.7,220.3,1306.4,221.1z"/>
																		</g>
																	</g>
																</g>
															</g>
														</g>
													</g>
												</g>
											</g>
										</g>
									</g>
								</g>
							</g>
						</g>
						<g>
							<g>
								<g>
									<g>
										<g>
											<g>
												<g>
													<g>
														<g>
															<g>
																<g>
																	<g>
																		<path class="st3" d="M1307.9,196.3c0,0-15.5-23.8-28.9-27.6c-16.3-4.6-19.7,13.1-34.7,11.7s-30.5-5.8-43.1,7.9
																			c-13.8,15-4.7,22.2-2.4,40.6c9.5,74.8-0.2,98.2-10.4,64c-1.1-3.7-12.2-4.9-16.7-20.7
																			c-5.8-20.6-11.2-45.9-9.3-61.6c1.6-13.2,7.2-23.2,18.2-35c17.4-18.7,44.9-24.1,64-25.6
																			C1263.7,148.6,1303.8,163.7,1307.9,196.3z"/>
																	</g>
																</g>
															</g>
														</g>
													</g>
												</g>
											</g>
										</g>
									</g>
								</g>
							</g>
						</g>
						<g>
							<g>
								<g>
									<g>
										<g>
											<g>
												<g>
													<g>
														<g>
															<g>
																<g>
																	<g>
																		<path class="st7" d="M1196,290.4c-1.4-6.3-7.8-10.3-14-8.6c-7.5,2.1-15.2,8-11.8,23.8c6,28,32.7,16.2,32.6,15.4
																			C1202.7,320.5,1198.6,302.1,1196,290.4z"/>
																	</g>
																</g>
															</g>
														</g>
													</g>
												</g>
											</g>
										</g>
									</g>
								</g>
							</g>
						</g>
						<g>
							<g>
								<g>
									<g>
										<g>
											<g>
												<g>
													<g>
														<g>
															<g>
																<g>
																	<g>
																		<path class="st8" d="M1194.5,311.8c-0.1-0.1-0.4,0.4-1.2,1c-0.7,0.5-2,1.1-3.6,0.9c-3.2-0.5-6.7-4.6-7.9-9.6
																			c-0.6-2.5-0.6-5.1-0.1-7.3c0.4-2.2,1.4-3.9,2.8-4.5c1.4-0.7,2.6,0,3.1,0.7s0.5,1.3,0.6,1.3c0.1,0.1,0.5-0.6,0-1.7
																			c-0.2-0.5-0.7-1.1-1.5-1.5s-1.8-0.5-2.8-0.1c-2.1,0.6-3.6,3-4.1,5.4c-0.6,2.5-0.7,5.3,0,8.2
																			c1.4,5.6,5.4,10.3,9.7,10.6c2.1,0.1,3.6-0.9,4.3-1.7C1194.6,312.5,1194.6,311.8,1194.5,311.8z"/>
																	</g>
																</g>
															</g>
														</g>
													</g>
												</g>
											</g>
										</g>
									</g>
								</g>
							</g>
						</g>
					</g>
					<g>
						<g>
							<g>
								<g>
									<g>
										<g>
											<g>
												<g>
													<g>
														<g>
															<g>
																<path class="st3" d="M1181.5,236.7c4.1,1.8,8.4,3.7,12.9,3.4c4.5-0.4,9-3.8,9-8.3c0-2-0.9-4.2,0.1-6
																	c1.2-2.1,4.1-2,6.5-2.2c8.3-0.6,15.6-7.9,16.2-16.3c2.6,2.7,7.5,1.7,10.2-0.9c2.8-2.6,4.2-6.3,6.1-9.6
																	s4.9-6.4,8.7-6.6c2.1-0.1,4.3,0.8,6.3,0.2c3.6-1,4.6-5.7,4.5-9.4c-0.1-3.8-0.5-8.1,2.3-10.7c2.5-2.4,6.5-2,10-2.1
																	s7.7-1.7,8-5.2c0.1-1.8-0.9-3.5-2.2-4.9c-5.6-6.1-15.7-7.4-22.7-3c-4.4-8.8-14.4-14.5-24.2-13.7
																	c-9.8,0.7-18.8,7.8-21.8,17.2c-6.9-4.3-15.9-5-23.4-1.8s-13.2,10.2-14.8,18.2c-7.1-0.6-14.4,3.5-17.7,9.9
																	c-3.3,6.4-2.4,14.7,2.1,20.3c-4.5,3.8-7.9,9.6-6.9,15.5c1,5.8,7.7,10.6,13,8.1c-1.4,4.9,1.5,10.8,6.4,12.5
																	c4.8,1.7,10.8-0.9,12.8-5.6"/>
															</g>
														</g>
													</g>
												</g>
											</g>
										</g>
									</g>
								</g>
							</g>
						</g>
					</g>
				</g>
				<g>
					<g>
						<g>
							<g>
								<g>
									<g>
										<g>
											<g>
												<g>
													<g>
														<g>
															<path class="st5" d="M1161.6,229.1c-0.1-0.1-0.1,2.5,2.7,5.1c1.4,1.2,3.6,2.4,6.2,2.3c2.6,0,5.6-1.2,7.6-3.8h-1.2
																c1.8,2.2,4.1,4.3,6.9,6c1.8,1.1,3.7,1.9,5.7,2.3s4.1,0.1,5.7-0.5c3.5-1,6.2-3.5,7.2-6.1c1.1-2.6,1.2-4.8,1.2-6.3
																s-0.1-2.3-0.2-2.3s-0.2,0.8-0.4,2.3c-0.2,1.4-0.5,3.6-1.6,5.8c-1.9,4.5-10.2,8.2-16.7,3.5c-2.6-1.6-4.8-3.6-6.5-5.6
																l-0.6-0.7l-0.6,0.8c-1.6,2.2-4.1,3.3-6.4,3.4s-4.2-0.7-5.6-1.8C1162.2,231.3,1161.8,229,1161.6,229.1z"/>
														</g>
													</g>
												</g>
											</g>
										</g>
									</g>
								</g>
							</g>
						</g>
					</g>
				</g>
				<g>
					<g>
						<g>
							<g>
								<g>
									<g>
										<g>
											<g>
												<g>
													<g>
														<g>
															<path class="st5" d="M1202.8,155.2c0,0.1,0.8,0.1,2.1,0.4c1.3,0.3,3.3,1,5,2.9l0.4,0.5l0.3-0.6
																c2-4,5.5-9.3,11.5-13.5c3-2,6.6-3.7,10.6-4.4s8.4-0.3,12.5,1.3c3.2,1.2,6,3.1,8.3,5.4c2.2,2.3,3.8,5.1,4.6,7.9
																l0.3,0.9l0.8-0.4c4-1.9,8.4-1.9,11.9-0.7s6,3.5,7.6,5.7c3.2,4.5,3,8.1,3.3,8c0.1,0,0.2-0.8-0.1-2.4
																c-0.2-1.5-0.8-3.8-2.4-6.2s-4.2-5-7.9-6.4c-3.7-1.4-8.5-1.5-13,0.5l1.1,0.5c-0.8-3.1-2.5-6.1-4.9-8.6
																s-5.4-4.5-8.8-5.9c-4.4-1.7-9.1-2.1-13.3-1.3c-4.3,0.8-8,2.6-11.1,4.8c-6.2,4.4-9.7,10.1-11.5,14.3l0.7-0.1
																c-2-2-4.2-2.6-5.6-2.8C1203.5,154.9,1202.8,155.1,1202.8,155.2z"/>
														</g>
													</g>
												</g>
											</g>
										</g>
									</g>
								</g>
							</g>
						</g>
					</g>
				</g>
			</g>
			<g>
				<g>
					<path class="st2" d="M1249.5,839c3.9,0.4,17.2,5.1,34.5-27c17.3-32,33.9-150.5,33.9-150.5L1249.5,839z"/>
				</g>
				<g>
					<g>
						<g>
							<path class="st2" d="M1324.3,615.6l2-114.7l-23-87.8c0,0-16.1-25.2-33.7-38.1c-20.9-15.3-38.2-18.7-38.2-18.7l-26.4-6.4
								l-2.8,21.9l76.6,88L1324.3,615.6z"/>
						</g>
					</g>
					<g>
						<g>
							<path class="st3" d="M1202.4,357.6c0,0,63.1,5.4,93.6,81.7c16.4,40.9,26.4,150.8,28.3,167.9s-4.5,56.5-16.2,109.5
								c-2.3,10.3-10.5,37.4-33,103.1c-24.1,70.2-43.3,122.1-43.3,122.1l-201.7-78.1l100.3-176c0,0-5.3-54.2-5.1-59.4
								c1.9-40.3-5.9-63,7.4-140.5c4-23.1,12-45.4,24-65.6c12.7-21.4,22.1-27.7,43.7-43.8L1202.4,357.6z"/>
						</g>
					</g>
					<g>
						<g>
							<g>
								<polygon class="st3" points="1224.1,838.5 1229.4,796 1133.2,756.9 1115.7,797.6 								"/>
							</g>
						</g>
						<g>
							<g>
								<g>
									<path class="st5" d="M1224.1,838.5c0-0.1-0.8-0.4-2.2-1c-1.6-0.6-3.6-1.4-6.1-2.5c-5.5-2.2-13.2-5.2-22.7-8.9
										c-19.4-7.5-46.2-17.8-77-29.6l0.6,1.4c4.7-10.9,9.7-22.5,14.9-34.4c0.9-2.1,1.8-4.2,2.7-6.2l-1.4,0.6
										c37.8,15.2,71.7,28.8,96.3,38.7l-0.5-0.8c-1.4,13-2.6,23.5-3.4,31c-0.4,3.5-0.7,6.4-0.9,8.6
										C1224.1,837.4,1224.1,838.5,1224.1,838.5c0,0.1,0.2-0.9,0.5-2.8c0.3-2.1,0.7-4.9,1.2-8.3c1.1-7.6,2.5-18.3,4.4-31.4
										l0.1-0.6l-0.5-0.2c-24.5-10-58.3-23.9-96.1-39.3l-1-0.4l-0.4,1c-0.9,2-1.8,4.1-2.7,6.2c-5.2,12-10.2,23.6-14.9,34.5l-0.4,1
										l1,0.4c31.3,11.6,58.5,21.7,78.2,28.9c9.5,3.4,17.1,6.2,22.6,8.2c2.5,0.9,4.4,1.6,6,2.1
										C1223.4,838.4,1224.1,838.6,1224.1,838.5z"/>
								</g>
							</g>
						</g>
					</g>
					<g>
						<g>
							<path class="st5" d="M1303.8,730.9c0,0-0.1,0.4-0.3,1.1c-0.3,0.8-0.6,1.9-1,3.2c-1,2.9-2.3,7-3.9,12.2
								c-3.6,10.7-8.6,25.9-14.9,44.6c-12.8,37.8-30.4,89.7-49.9,147c-0.4,1.1-0.7,2.1-1.1,3.1l-0.4,1.1l-1-0.4
								c-55.8-21.7-106.1-41.3-142.7-55.5c-18.1-7.1-32.7-12.9-43-17c-4.9-2-8.8-3.6-11.6-4.7c-1.2-0.5-2.2-0.9-3-1.3
								c-0.7-0.3-1-0.5-1-0.5s0.4,0.1,1.1,0.3c0.8,0.3,1.8,0.6,3.1,1.1c2.8,1,6.8,2.5,11.8,4.3c10.4,3.9,25.1,9.5,43.3,16.4
								c36.6,14.1,87,33.5,142.9,54.9l-1.4,0.7c0.3-1,0.7-2,1.1-3.1c19.7-57.3,37.5-109.1,50.5-146.8c6.5-18.6,11.8-33.8,15.5-44.4
								c1.8-5.1,3.3-9.1,4.3-12c0.5-1.3,0.9-2.3,1.2-3.1C1303.6,731.3,1303.8,730.9,1303.8,730.9z"/>
						</g>
					</g>
				</g>
				<g>
					<g>
						<g>
							<g>
								<path class="st5" d="M1007.3,955.8c0,0,23.9-77.7,44.1-82.9c20.3-5.3,47.1-6.1,51.9,7.1c4.7,13.2,8.6,32.5,7.8,52
									c-0.8,19.5-8,48.2-8,48.2l-20.7-6.4c0,0,16.2-78.9,12-91.8c-4.2-12.9-38.6-9.8-44.9,3.6c-6.3,13.4-26.2,75.1-26.2,75.1
									L1007.3,955.8z"/>
							</g>
						</g>
					</g>
					<g>
						<g>
							<g>
								<g>
									<path class="st5" d="M912.1,1053.5c7.3-32.5,24.2-104.1,31.7-135.6c2-8.6,10.5-14,19.1-12.3l194.4,38.5
										c8.7,1.7,14.4,10,13,18.7l-22,135.1c-1.5,9.1-10.2,15.2-19.2,13.5L925,1073.1C915.9,1071.5,910,1062.5,912.1,1053.5z"/>
								</g>
							</g>
						</g>
						<g>
							<g>
								<g>
									<g>
										<path class="st3" d="M1150.4,993.9c0,0-0.1,0.5-0.2,1.4c-0.2,1-0.5,2.5-0.8,4.3c-0.8,3.9-1.9,9.5-3.3,16.8
											c-2.9,14.7-7.1,35.9-12.3,62c-0.3,1.6-0.7,3.3-1,5s-0.9,3.5-2.1,4.9s-2.9,2.5-4.7,2.9c-1.8,0.5-3.9,0.1-5.6-0.2
											c-7.1-1.4-14.6-2.8-22.2-4.3c-15.4-3-31.8-6.2-49.1-9.5c-17.3-3.4-35.4-6.9-54.2-10.5c-9.4-1.8-19-3.7-28.7-5.6
											c-4.9-0.9-9.7-1.9-14.7-2.9l-3.7-0.7c-1.2-0.3-2.5-0.4-3.8-1c-2.5-1.1-4.5-3.4-5.1-6.1c-0.3-1.2-0.4-2.4-0.2-3.5
											c0.2-1.2,0.4-2.2,0.7-3.2c0.5-2.1,0.9-4.2,1.4-6.3c0.9-4.2,1.8-8.4,2.7-12.6c1.8-8.3,3.5-16.6,5.3-24.7
											c3.5-16.2,6.8-31.9,10-46.8l0.2-0.7l0.7,0.2c55.3,14.1,103,24.3,137,30.9c17,3.3,30.5,5.8,39.7,7.5
											c4.6,0.9,8.2,1.5,10.6,2c1.2,0.2,2,0.4,2.7,0.5C1150.1,993.8,1150.4,993.9,1150.4,993.9s-0.3,0-1-0.1s-1.6-0.2-2.8-0.4
											c-2.5-0.4-6-1-10.6-1.7c-9.3-1.6-22.8-3.9-39.8-7.1c-34-6.4-81.8-16.4-137.2-30.4l0.9-0.5c-3.2,15-6.5,30.6-10,46.8
											c-1.7,8.1-3.5,16.3-5.3,24.7c-0.9,4.2-1.8,8.4-2.7,12.6c-0.5,2.1-0.9,4.2-1.4,6.4c-0.5,2.2-1.1,4.2-0.5,6.1
											c0.5,2.3,2.2,4.2,4.3,5.1c1,0.5,2.2,0.6,3.5,0.9l3.7,0.7c4.9,1,9.8,1.9,14.7,2.9c9.7,1.9,19.3,3.8,28.7,5.6
											c18.8,3.7,36.9,7.2,54.2,10.6s33.7,6.6,49.1,9.6c7.7,1.5,15.1,3,22.2,4.4c1.8,0.4,3.4,0.7,5.1,0.3
											c1.6-0.4,3.1-1.3,4.1-2.5c1.1-1.3,1.6-2.7,1.9-4.4c0.3-1.7,0.7-3.3,1-4.9c5.4-26,9.8-47,12.8-61.6
											c1.5-7.3,2.7-12.9,3.5-16.8c0.4-1.9,0.7-3.4,1-4.4C1150.2,994.4,1150.4,993.9,1150.4,993.9z"/>
									</g>
								</g>
							</g>
						</g>
						<g>
							<g>
								<g>
									<g>
										<path class="st3" d="M1077.9,1069.5c0-0.1,1.2,0.2,3.5,0.2c2.2-0.1,5.7-0.6,9.3-3c3.6-2.4,6.8-7,7.5-13.2
											c1.2-6.1,2.6-13.1,4.1-20.7c0.8-3.8,1.6-7.9,2.4-12c1.1-4.1,0.9-8.6-1.2-12.6c-2-4-5.8-7.2-10.4-8.4c-4.7-1-9.7-2-14.8-3
											c-20.3-4.1-42.6-8.5-66-13.2c-5.6-1.1-11.7,0.9-15.4,5.1c-1.9,2-3.2,4.6-3.8,7.3c-0.6,2.8-1.1,5.6-1.7,8.3
											c-1.1,5.5-2.2,10.9-3.3,16.2c-0.5,2.7-1.1,5.3-1.6,7.9s-1.2,5.2-1.3,7.6c-0.3,5,1.8,9.8,5.4,13c1.7,1.6,3.8,2.8,6,3.5
											s4.6,1,6.8,1.5c9,1.8,17.4,3.6,25.1,5.1c15.2,3.2,27.6,5.7,36.3,7.5c4.2,0.9,7.5,1.6,9.9,2.1c1.1,0.2,1.9,0.4,2.6,0.6
											C1077.6,1069.4,1077.9,1069.5,1077.9,1069.5s-0.3,0-0.9-0.1c-0.7-0.1-1.5-0.3-2.6-0.4c-2.4-0.4-5.7-1.1-9.9-1.9
											c-8.7-1.7-21.1-4.1-36.4-7.1c-7.7-1.5-16.1-3.2-25.1-5c-2.3-0.5-4.5-0.8-6.9-1.5c-2.3-0.7-4.6-2-6.5-3.7
											c-3.8-3.4-6.2-8.6-5.8-14c0.2-2.7,0.9-5.2,1.3-7.8c0.5-2.6,1-5.2,1.6-7.9c1.1-5.3,2.1-10.7,3.3-16.3
											c0.6-2.8,1.1-5.6,1.7-8.4c0.7-2.9,2.1-5.7,4.1-7.9c4-4.6,10.6-6.8,16.7-5.5c23.4,4.7,45.7,9.2,66,13.3
											c5.1,1.1,10,2,14.8,3.1c4.9,1.3,9,4.8,11.1,9.1c2.2,4.2,2.3,9.2,1.2,13.3c-0.9,4.2-1.7,8.2-2.5,12
											c-1.6,7.6-3,14.6-4.3,20.7c-0.3,1.5-0.6,3-1,4.4c-0.5,1.4-1,2.7-1.8,3.8c-1.4,2.3-3.3,4.1-5.1,5.3
											c-3.8,2.5-7.4,2.9-9.6,2.9C1079,1069.9,1077.9,1069.5,1077.9,1069.5z"/>
									</g>
								</g>
							</g>
						</g>
						<g class="st6">
							<g>
								<g>
									<g>
										<path d="M943.2,1055.8c54.3,28.6,117.1,40.8,178.1,34.6L943.2,1055.8z"/>
									</g>
								</g>
							</g>
						</g>
						<g>
							<g>
								<g>
									<path class="st2" d="M1065.3,1015.2l-22.9-4.6c-3.6-0.7-5.9-4.2-5.2-7.8l0,0c0.7-3.6,4.2-5.9,7.8-5.2l22.9,4.6
										c3.6,0.7,5.9,4.2,5.2,7.8l0,0C1072.4,1013.6,1068.9,1016,1065.3,1015.2z"/>
								</g>
							</g>
						</g>
					</g>
					<g>
						<g>
							<g>
								<g>
									<path class="st7" d="M1101.7,855.4c0,0,5.9,9.1,7.3,14.7c1.4,5.6,0.5,27.8,0.5,27.8s-4.8,2.4-8.7-10.5
										c-3.9-12.9-4.4-19-4.4-19L1101.7,855.4z"/>
								</g>
							</g>
						</g>
						<g>
							<g>
								<g>
									<path class="st7" d="M1101.1,896.6l0.9-40.7l-15.7-30l-49.7-0.9l-1.8,49.3c0,0,7.3,21.1,10.8,25.1s10.5,1,10.5,1
										c3.8,5.9,14.1,3.7,14.1,3.7c5.1,6,12.9,0.3,12.9,0.3s6.9,6.3,10.1,5.9c1.1-0.1,2.3-1,3.3-2.1
										C1099.5,905.1,1101,900.9,1101.1,896.6z"/>
								</g>
							</g>
						</g>
						<g>
							<g>
								<g>
									<g>
										<path class="st8" d="M1052.3,889.8c0.5-0.2,1.6,2,2.6,4.9c1,2.8,1.4,5.3,0.9,5.4c-0.5,0.2-1.6-2-2.6-4.9
											C1052.2,892.4,1051.8,889.9,1052.3,889.8z"/>
									</g>
								</g>
							</g>
						</g>
						<g>
							<g>
								<g>
									<g>
										<path class="st8" d="M1065.2,889.2c0.5-0.1,1.3,3.4,2.6,7.6c1.2,4.2,2.4,7.5,1.9,7.7c-0.4,0.2-2.4-2.9-3.7-7.2
											C1064.8,892.9,1064.7,889.2,1065.2,889.2z"/>
									</g>
								</g>
							</g>
						</g>
						<g>
							<g>
								<g>
									<g>
										<path class="st8" d="M1079.9,890.5c0.5,0,0.9,3.1,1.6,6.8s1.4,6.8,1,7s-2-2.7-2.7-6.6
											C1079,893.7,1079.4,890.5,1079.9,890.5z"/>
									</g>
								</g>
							</g>
						</g>
						<g>
							<g>
								<g>
									<g>
										<path class="st8" d="M1101.5,868.7c0.5,0,0.8,6.9,0.7,15.5c-0.1,8.5-0.6,15.4-1.1,15.4s-0.8-6.9-0.7-15.5
											C1100.5,875.6,1101,868.7,1101.5,868.7z"/>
									</g>
								</g>
							</g>
						</g>
						<g>
							<g>
								<g>
									<g>
										<path class="st8" d="M1051.6,881.6c0.1,0.2-0.2,0.8-1.1,1.3s-2.3,0.9-3.9,0.6c-1.6-0.3-2.8-1.3-3.4-2.1s-0.7-1.5-0.4-1.6
											c0.4-0.3,1.8,1.5,4.2,2C1049.3,882.3,1051.3,881.2,1051.6,881.6z"/>
									</g>
								</g>
							</g>
						</g>
						<g>
							<g>
								<g>
									<g>
										<path class="st8" d="M1066.6,884.1c0.1,0.2-0.3,0.8-1.3,1.2c-1,0.5-2.6,0.8-4.2,0.4c-1.7-0.3-3-1.2-3.7-2
											s-0.9-1.5-0.7-1.6c0.4-0.3,2.1,1.4,4.8,1.9C1064.1,884.6,1066.3,883.6,1066.6,884.1z"/>
									</g>
								</g>
							</g>
						</g>
						<g>
							<g>
								<g>
									<g>
										<path class="st8" d="M1095.3,881.1c0.2-0.2,1.1,1.1,0,2.8c-1.2,1.6-3.4,2.7-6.1,2.9s-5-0.6-6.5-1.5s-2-1.9-1.9-2
											c0.3-0.4,3.5,2.2,8.2,1.7c2.2-0.2,4.3-1.1,5.3-1.9C1095.3,882.2,1095.1,881.2,1095.3,881.1z"/>
									</g>
								</g>
							</g>
						</g>
					</g>
				</g>
				<g>
					<g>
						<g>
							<g>
								<path class="st3" d="M1250.1,498.7c-19.5,20.3-140.8,139.4-140.8,139.4s-7,192.4-10.5,193.2s-73.2-4.9-73.2-4.9
									s-9.8-203.9-1.6-227.2c8.1-23.3,111.9-159.3,114.1-162.1s14.1-23.6,53.8-33.8c46.5-11.9,66,10.3,73.8,33.2
									c6.7,19.7-6.1,50.3-12.3,58.5C1252.3,496.3,1251.3,497.5,1250.1,498.7z"/>
							</g>
							<g>
								<g>
									<path class="st5" d="M1250.1,498.7c0,0,0.6-0.8,1.8-2.3c1.3-1.4,2.8-3.8,4.5-7c3.3-6.6,7.7-16.8,9.9-30.6
										c1-6.9,1.4-14.9-1.5-22.9s-7.4-16.3-14.7-23.1c-3.6-3.4-8-6.1-12.9-8.2c-4.8-2.1-10.3-3.1-15.8-3.8
										c-11.2-0.8-23.1,1.2-35.1,4.7c-11.9,3.6-24.1,9.1-34.7,17.7c-5.3,4.3-9.8,9.5-13.9,15.4c-4.3,5.7-8.7,11.5-13.2,17.4
										c-17.8,23.7-36.7,49.1-56,76.1c-9.7,13.5-19.5,27.5-29.1,42c-4.7,7.3-9.6,14.7-13.4,22.5c-0.4,1-1,2-1.3,3l-0.6,3.2
										c-0.5,2.1-0.8,4.3-0.9,6.5l-0.6,6.7l-0.3,6.8c-1.3,36.1-0.2,73.7,0.8,112.1c0.9,31.2,2.1,61.8,3.5,91.4l-1-1
										c12.6,1,25.1,2,37.4,2.9c6.2,0.4,12.3,0.9,18.4,1.3c3,0.2,6.1,0.4,9.1,0.5l4.5,0.2h2.2h1c0,0.1,0.6-0.2-0.1,0.2
										c-0.2,0.3,0-0.1,0-0.1c1.1-5.6,1.4-11.7,1.9-17.5c0.4-5.9,0.8-11.7,1.2-17.5c0.6-11.6,1.3-23,1.9-34.2
										c2.2-44.8,3.9-86.2,5.4-123v-0.3l0.2-0.2c43.4-42.7,78.6-77.5,103.1-101.6c12.2-12,21.7-21.3,28.3-27.7
										c3.2-3.1,5.7-5.5,7.4-7.2C1249.2,499.5,1250.1,498.7,1250.1,498.7s-0.8,0.9-2.4,2.6c-1.7,1.7-4.1,4.1-7.2,7.3
										c-6.4,6.5-15.9,15.9-27.9,28c-24.4,24.2-59.5,59.2-102.6,102.1l0.2-0.6c-1.3,36.9-2.9,78.2-5.1,123.1
										c-0.6,11.2-1.2,22.6-1.8,34.2c-0.4,5.8-0.8,11.7-1.2,17.6c-0.5,5.9-0.7,11.8-2,18c-0.2,0.3,0,0.3-0.5,0.9
										c-0.3,0.4-0.8,0.5-0.8,0.4h-0.3l-1.3,0.1h-2.3l-4.5-0.2c-3-0.2-6.1-0.4-9.1-0.5c-6.1-0.4-12.2-0.8-18.4-1.3
										c-12.3-1-24.8-1.9-37.5-2.9l-0.9-0.1v-0.9c-1.4-29.6-2.6-60.2-3.5-91.4c-1-38.4-2.1-75.9-0.7-112.2l0.3-6.8l0.6-6.8
										c0.2-2.2,0.4-4.5,1-6.8l0.7-3.4c0.4-1.1,0.9-2.1,1.4-3.1c3.9-8.2,8.8-15.5,13.6-22.8c9.6-14.6,19.5-28.5,29.2-42
										c19.4-27.1,38.4-52.4,56.2-76c4.5-5.9,8.9-11.7,13.2-17.4c2.1-2.8,4.2-5.8,6.6-8.4c2.4-2.7,5-5,7.6-7.3
										c10.8-8.8,23.2-14.3,35.3-17.9c12.1-3.5,24.2-5.5,35.7-4.6c5.7,0.7,11.2,1.7,16.2,3.9c4.9,2.2,9.5,5,13.2,8.5
										c7.5,6.9,12,15.5,14.8,23.6c2.8,8.3,2.4,16.4,1.3,23.4c-2.3,14-6.9,24.2-10.3,30.7c-1.8,3.3-3.4,5.6-4.7,7
										C1250.8,498,1250.1,498.7,1250.1,498.7z"/>
								</g>
							</g>
						</g>
					</g>
				</g>
				<g>
					<g>
						<path class="st5" d="M1318.9,586.8c-0.1,0-0.4-0.8-0.8-2.3c-0.5-1.7-1.2-4-2-6.7c-1.7-6.1-4.1-14.5-7.1-24.9
							c-5.9-21.4-14-50.7-23.1-83.6l-0.1-0.5l0.3-0.4c2.3-3.5,4.7-7.3,7.1-11.1l1.9-2.9l0.8,1.6c-4.7-0.4-9.2-0.9-13.6-1.3l-0.7-0.1
							l-0.2-0.7c-2.5-7.9-5.3-15.5-8.4-22.6s-6.4-13.8-10.5-19.4s-10.1-8.9-15.4-12.1c-5.4-3.1-10.6-5.6-15.4-7.9
							c-9.6-4.5-17.4-7.8-22.8-10c-2.5-1.1-4.6-1.9-6.2-2.6c-1.4-0.6-2.1-0.9-2.1-1s0.8,0.1,2.3,0.6s3.6,1.2,6.4,2.2
							c5.5,2,13.5,5.1,23.1,9.5c4.8,2.2,10.1,4.7,15.6,7.8c5.4,3.1,11.6,6.5,16,12.4c4.3,5.8,7.7,12.6,10.9,19.7
							c3.2,7.2,6,14.8,8.6,22.8l-0.9-0.7c4.4,0.4,8.9,0.8,13.6,1.3l1.8,0.2l-1,1.5l-1.9,2.9c-2.4,3.8-4.9,7.5-7.2,11.1l0.1-0.9
							c8.8,33,16.7,62.4,22.4,83.8c2.7,10.4,4.9,18.9,6.5,25.1c0.7,2.8,1.2,5,1.6,6.8C1318.8,585.9,1319,586.7,1318.9,586.8z"/>
					</g>
				</g>
				<g>
					<g>
						<path class="st4" d="M1304.8,464.2c-23.8,14-43.1,13.9-82.8,10.6c-27.5-2.3-51.7-10.2-79.3-11.1
							c-39.8-1.2-69.6,10.9-105.9,27.4l-26.7,31.6l50.2,15.2c0,0,48.1-27.4,109.8-24c61.7,3.4,119.3-13.4,139.7-29l7-19.5l-2.7-10.1
							l-8.5-0.8L1304.8,464.2z"/>
					</g>
					<g>
						<g>
							<path class="st3" d="M1304.8,464.2c0,0,0-0.9,0.1-2.5c0.1-1.7,0.3-4.2,0.6-7.3v-0.3h0.3c2.4,0.2,5.2,0.4,8.5,0.7h0.2l0.1,0.2
								c0.8,3,1.7,6.4,2.7,10.1v0.1v0.1c-2,5.7-4.3,12.2-6.9,19.5l-0.1,0.2l-0.1,0.1c-5.4,4.2-12.1,7.6-19.4,10.7
								c-7.4,3.1-15.5,6-24.3,8.4c-17.6,4.9-37.7,8.6-59.8,10.1c-11,0.7-22.6,1-34.5,0.4c-11.8-0.5-24-0.4-36.5,1.1
								c-12.4,1.4-25.1,4.1-37.7,7.8c-12.6,3.8-25.3,8.5-37.3,14.9l-0.4,0.2l-0.4-0.1c-9.4-2.8-19.3-5.8-29.4-8.9
								c-7-2.1-13.9-4.2-20.8-6.3l-1.6-0.5l1-1.2c9.1-10.8,18-21.3,26.7-31.6l0.2-0.2l0.2-0.1c17.9-8.1,35.4-15.7,53.2-20.7
								c17.7-5,35.4-7.2,52-6.7c16.7,0.4,32.2,3.5,46.6,6.2c14.4,2.8,27.7,4.8,40,5.7c12.3,1,23.3,1.7,33,1.4
								c9.7-0.2,17.9-1.6,24.4-3.6c6.5-1.9,11.2-4.2,14.4-5.8c1.5-0.8,2.7-1.4,3.5-1.8C1304.3,464.4,1304.8,464.2,1304.8,464.2
								s-0.3,0.3-1.1,0.7c-0.8,0.5-1.9,1.2-3.5,2.1c-3.1,1.7-7.9,4.1-14.4,6.1c-6.5,2.1-14.8,3.6-24.6,4c-9.7,0.4-20.9-0.2-33.2-1.1
								c-12.3-0.7-25.8-2.7-40.2-5.4c-14.4-2.6-29.8-5.6-46.3-5.9c-16.5-0.4-34,1.7-51.5,6.7s-35,12.6-52.8,20.7l0.4-0.3
								c-8.7,10.3-17.6,20.9-26.7,31.6l-0.5-1.7c6.9,2.1,13.8,4.2,20.8,6.3c10.1,3,20,6.1,29.4,8.9l-0.8,0.1
								c12.3-6.5,25-11.3,37.7-15.1s25.5-6.4,38-7.8c12.6-1.5,24.9-1.6,36.8-1c11.8,0.6,23.3,0.3,34.2-0.3c22-1.4,42-5,59.5-9.7
								c8.8-2.3,16.8-5.2,24.2-8.2c7.3-3.1,13.9-6.4,19.3-10.4l-0.2,0.3c2.7-7.3,5-13.8,7.1-19.4v0.3c-1-3.8-1.8-7.2-2.6-10.2
								l0.3,0.3c-3.2-0.3-6.1-0.6-8.4-0.9l0.3-0.2c-0.4,3.2-0.7,5.6-0.9,7.4C1304.9,463.4,1304.8,464.2,1304.8,464.2z"/>
						</g>
					</g>
				</g>
			</g>
		</g>
		<g>
			<g>
				<path class="st5" d="M1210.8,720.2c-0.2,0.6-18.3-5.4-40.5-13.4c-22.2-7.9-40-14.8-39.8-15.4c0.2-0.6,18.3,5.4,40.5,13.4
					C1193.2,712.7,1211,719.6,1210.8,720.2z"/>
			</g>
		</g>
	</g>
</g>
</svg>
