<?xml version="1.0" encoding="utf-8"?>
<!-- Generator: Adobe Illustrator 27.8.0, SVG Export Plug-In . SVG Version: 6.00 Build 0)  -->
<svg version="1.1" id="Camada_1" xmlns="http://www.w3.org/2000/svg" xmlns:xlink="http://www.w3.org/1999/xlink" x="0px" y="0px"
	 viewBox="0 0 450 400" style="enable-background:new 0 0 450 400;" xml:space="preserve">
<style type="text/css">
	.st0{fill:#ECECEC;}
	.st1{fill:#F5F5F5;}
	.st2{fill:#E1E1E1;}
	.st3{fill:#1A2E35;}
	.st4{fill:#FF4A5B;}
	.st5{fill:#375A64;}
	.st6{opacity:0.3;}
	.st7{fill:#FFBF9D;}
	.st8{fill:#FF9A6C;}
</style>
<g>
	<g>
		<g>
			<polygon class="st0" points="25.6,155.3 57,166.4 49,171 27.1,183.6 20.1,187.6 			"/>
		</g>
		<g>
			<g>
				<polygon class="st0" points="162.2,327.6 181.8,318.7 139.2,246.2 120,263.3 86.3,204.1 67.8,216.7 37.6,162.3 26.5,166.9 
					63.4,240.3 84.3,222.2 116.1,288.2 135,267.6 				"/>
			</g>
		</g>
	</g>
	<g>
		<g>
			<polygon class="st1" points="444.5,285.5 420.9,284.6 424.9,289.7 436.1,303.7 439.7,308.2 			"/>
		</g>
		<g>
			<g>
				<polygon class="st1" points="309.5,363.4 299,352.4 345.9,315.7 354.1,332 391.7,301.8 400.7,314.9 434.8,286.9 440.9,292.9 
					397.4,331.6 388.4,314.3 350.2,349.5 343.1,330.9 				"/>
			</g>
		</g>
	</g>
	<g>
		<g>
			<polygon class="st2" points="399.6,75.6 368.2,92.4 377.3,96 402.5,105.8 410.6,108.9 			"/>
		</g>
		<g>
			<g>
				<polygon class="st2" points="282.3,279.9 260.1,273.6 293.7,190 316.7,205 343.1,137 364.7,147.4 388.1,84.9 400.6,88 
					373.2,171.7 348.1,155.8 324.9,230.8 301.5,212 				"/>
			</g>
		</g>
	</g>
	<g>
		<g>
			<g>
				<g>
					<g>
						<g>
							<g>
								<g>
									<g>
										<g>
											<path class="st0" d="M441.5,105h-41c-2.8,0-5.1-2.3-5.1-5.1V43.1c0-2.8,2.3-5.1,5.1-5.1h26l20.1,20.7v41.2
												C446.6,102.8,444.3,105,441.5,105z"/>
										</g>
									</g>
								</g>
							</g>
						</g>
						<g>
							<g>
								<g>
									<g>
										<g>
											<path class="st1" d="M426.5,38v16c0,2.6,2.1,4.8,4.8,4.8h15.4L426.5,38z"/>
										</g>
									</g>
								</g>
							</g>
						</g>
						<g>
							<g>
								<g>
									<g>
										<g>
											<path class="st2" d="M426.7,55.4c0,0-0.2,3.9,4.2,5.2c0.2,0,0.3,0.1,0.5,0.1c2,0.4,15.2,2.7,15.2,2.4c0-0.3,0-4.3,0-4.3
												h-15.4C431.3,58.8,427.4,58.6,426.7,55.4z"/>
										</g>
									</g>
								</g>
							</g>
						</g>
					</g>
				</g>
				<g>
					<g>
						<g>
							<g>
								<g>
									<g>
										<path class="st2" d="M441.5,105c0,0,0.3,0,0.9-0.1c0.6-0.1,1.4-0.4,2.3-1.1c0.9-0.7,1.8-2,1.8-3.6c0-1.7,0-3.6,0-5.7
											c0-8.6,0-20.9-0.1-35.8l0,0.1c-6.1-6.3-12.9-13.3-20.2-20.7l0.1,0c-4.8,0-9.8,0-15,0c-2.6,0-5.2,0-7.9,0c-0.7,0-1.3,0-2,0
											s-1.3,0-2,0.1c-1.3,0.2-2.5,0.9-3.2,2c-0.5,0.7-0.9,1.6-0.9,2.5c0,0.9,0,1.9,0,2.8c0,1.9,0,3.7,0,5.5c0,3.7,0,7.3,0,10.8
											c0,7.1,0,14,0,20.5c0,3.3,0,6.4,0,9.5c0,1.5,0,3.1,0,4.6c0,0.8,0,1.5,0,2.2s0,1.5,0.1,2.2c0.3,1.4,1.2,2.6,2.3,3.3
											c0.6,0.4,1.2,0.6,1.9,0.7c0.7,0.1,1.3,0,2,0c2.7,0,5.3,0,7.7,0c9.9,0,17.8,0,23.4,0c2.7,0,4.9,0,6.4,0c0.7,0,1.3,0,1.7,0
											C441.3,105,441.5,105,441.5,105s-0.2,0-0.6,0s-0.9,0-1.7,0c-1.5,0-3.6,0-6.4,0c-5.5,0-13.5,0-23.4,0c-2.5,0-5.1,0-7.7,0
											c-0.7,0-1.3,0-2.1,0c-0.7-0.1-1.4-0.3-2-0.7c-1.2-0.7-2.2-2-2.5-3.5c-0.1-0.7-0.1-1.5-0.1-2.2s0-1.5,0-2.2
											c0-1.5,0-3,0-4.6c0-3.1,0-6.3,0-9.5c0-6.5,0-13.4,0-20.5c0-3.5,0-7.2,0-10.8c0-1.8,0-3.7,0-5.5c0-0.9,0-1.8,0-2.8
											c0.1-1,0.4-1.9,1-2.7c0.8-1.1,2.1-1.9,3.5-2.2c0.7-0.1,1.4-0.1,2-0.1c0.7,0,1.3,0,2,0c2.6,0,5.3,0,7.9,0
											c5.2,0,10.2,0,15,0h0.1l0,0c7.2,7.5,14,14.5,20.1,20.8l0,0v0.1c0,14.9,0,27.2-0.1,35.8c0,2.2,0,4.1,0,5.7
											c-0.1,1.7-1,3-1.9,3.7c-0.9,0.7-1.8,1-2.4,1.1c-0.3,0-0.5,0.1-0.7,0.1C441.6,105.1,441.5,105,441.5,105z"/>
									</g>
								</g>
							</g>
						</g>
					</g>
				</g>
				<g>
					<g>
						<g>
							<g>
								<g>
									<g>
										<path class="st2" d="M446.6,58.8c0,0-0.1,0-0.4,0c-0.3,0-0.7,0-1.1,0c-1,0-2.4,0-4.2,0c-1.8,0-3.9,0-6.2,0
											c-1.2,0-2.4,0-3.6,0c-1.3,0-2.6-0.6-3.6-1.7c-0.4-0.5-0.8-1.1-1-1.8c-0.2-0.6-0.2-1.3-0.2-2c0-1.3,0-2.5,0-3.6
											c0-2.3,0-4.4,0-6.2c0-1.7,0-3.1,0-4.2c0-0.4,0-0.8,0-1.1c0-0.3,0-0.4,0-0.4s0,0.1,0,0.4c0,0.3,0,0.7,0,1.1
											c0,1,0,2.4,0,4.2c0,1.8,0,3.9,0,6.2c0,1.2,0,2.4,0,3.6c-0.1,1.3,0.3,2.5,1.2,3.5c0.9,1,2.1,1.5,3.3,1.6c1.3,0,2.5,0,3.6,0
											c2.3,0,4.4,0,6.2,0c1.7,0,3.1,0,4.2,0c0.4,0,0.8,0,1.1,0C446.5,58.8,446.6,58.8,446.6,58.8z"/>
									</g>
								</g>
							</g>
						</g>
					</g>
				</g>
			</g>
			<g>
				<g>
					<path class="st2" d="M425.7,52.3c0,0.1-4.8,0.2-10.8,0.2c-6,0-10.8-0.1-10.8-0.2s4.8-0.2,10.8-0.2
						C420.9,52.1,425.7,52.2,425.7,52.3z"/>
				</g>
			</g>
			<g>
				<g>
					<path class="st2" d="M436,60.2c0,0.1-7.1,0.2-15.9,0.2c-8.8,0-16-0.1-16-0.2s7.1-0.2,16-0.2C428.8,60.1,436,60.1,436,60.2z"/>
				</g>
			</g>
			<g>
				<g>
					<path class="st2" d="M436,68.2c0,0.1-7.1,0.2-15.9,0.2c-8.8,0-16-0.1-16-0.2s7.1-0.2,16-0.2C428.8,68,436,68.1,436,68.2z"/>
				</g>
			</g>
			<g>
				<g>
					<path class="st2" d="M436,76.2c0,0.1-7.1,0.2-15.9,0.2c-8.8,0-16-0.1-16-0.2c0-0.1,7.1-0.2,16-0.2C428.8,76,436,76.1,436,76.2z
						"/>
				</g>
			</g>
			<g>
				<g>
					<path class="st2" d="M436,84.2c0,0.1-7.1,0.2-15.9,0.2c-8.8,0-16-0.1-16-0.2c0-0.1,7.1-0.2,16-0.2C428.8,84,436,84.1,436,84.2z
						"/>
				</g>
			</g>
			<g>
				<g>
					<path class="st2" d="M436,94c0,0.1-7.1,0.2-15.9,0.2c-8.8,0-16-0.1-16-0.2s7.1-0.2,16-0.2C428.8,93.8,436,93.9,436,94z"/>
				</g>
			</g>
		</g>
		<g>
			<g>
				<g>
					<g>
						<g>
							<g>
								<g>
									<g>
										<g>
											<path class="st0" d="M339.5,65.7h-40.1c-2.8,0-5-2.2-5-5V5.2c0-2.8,2.2-5,5-5h25.4l19.7,20.3v40.2
												C344.5,63.5,342.3,65.7,339.5,65.7z"/>
										</g>
									</g>
								</g>
							</g>
						</g>
						<g>
							<g>
								<g>
									<g>
										<g>
											<path class="st1" d="M324.8,0.2v15.6c0,2.6,2.1,4.7,4.7,4.7h15L324.8,0.2z"/>
										</g>
									</g>
								</g>
							</g>
						</g>
						<g>
							<g>
								<g>
									<g>
										<g>
											<path class="st2" d="M325.1,17.2c0,0-0.2,3.8,4.1,5c0.2,0,0.3,0.1,0.5,0.1c2,0.4,14.9,2.6,14.9,2.3c0-0.3,0-4.2,0-4.2
												h-15C329.5,20.5,325.8,20.4,325.1,17.2z"/>
										</g>
									</g>
								</g>
							</g>
						</g>
					</g>
				</g>
				<g>
					<g>
						<g>
							<g>
								<g>
									<g>
										<path class="st2" d="M339.5,65.7c0,0,0.3,0,0.9-0.1c0.6-0.1,1.4-0.4,2.3-1.1c0.9-0.7,1.7-1.9,1.8-3.5c0-1.6,0-3.5,0-5.6
											c0-8.4,0-20.4-0.1-34.9l0,0.1c-6-6.1-12.6-13-19.7-20.3l0.1,0c-4.7,0-9.6,0-14.7,0c-2.5,0-5.1,0-7.7,0c-0.6,0-1.3,0-1.9,0
											c-0.7,0-1.3,0-1.9,0.1c-1.3,0.2-2.4,0.9-3.1,2c-0.5,0.7-0.8,1.6-0.9,2.5c0,0.9,0,1.8,0,2.7c0,1.8,0,3.6,0,5.4
											c0,3.6,0,7.1,0,10.6c0,6.9,0,13.6,0,20c0,3.2,0,6.3,0,9.3c0,1.5,0,3,0,4.5c0,0.7,0,1.5,0,2.2c0,0.7,0,1.4,0.1,2.1
											c0.3,1.3,1.1,2.5,2.3,3.2c0.6,0.4,1.2,0.6,1.8,0.7c0.6,0.1,1.3,0,2,0c2.6,0,5.2,0,7.6,0c9.6,0,17.4,0,22.8,0
											c2.7,0,4.8,0,6.2,0c0.7,0,1.2,0,1.6,0C339.3,65.7,339.5,65.7,339.5,65.7s-0.2,0-0.5,0c-0.4,0-0.9,0-1.6,0
											c-1.4,0-3.5,0-6.2,0c-5.4,0-13.2,0-22.8,0c-2.4,0-4.9,0-7.6,0c-0.7,0-1.3,0-2,0c-0.7-0.1-1.3-0.3-2-0.7
											c-1.2-0.7-2.1-2-2.4-3.4c-0.1-0.7-0.1-1.4-0.1-2.2c0-0.7,0-1.4,0-2.2c0-1.5,0-3,0-4.5c0-3,0-6.1,0-9.3c0-6.4,0-13.1,0-20
											c0-3.5,0-7,0-10.6c0-1.8,0-3.6,0-5.4c0-0.9,0-1.8,0-2.7s0.4-1.9,0.9-2.6c0.8-1.1,2-1.9,3.4-2.1c0.7-0.1,1.3-0.1,2-0.1
											s1.3,0,1.9,0c2.6,0,5.2,0,7.7,0c5,0,10,0,14.7,0h0.1l0,0c7.1,7.3,13.7,14.1,19.7,20.3l0,0v0.1c0,14.5,0,26.5-0.1,34.9
											c0,2.1,0,4,0,5.6c-0.1,1.7-1,2.9-1.9,3.6c-0.9,0.7-1.8,0.9-2.3,1c-0.3,0-0.5,0.1-0.7,0C339.6,65.7,339.5,65.7,339.5,65.7z
											"/>
									</g>
								</g>
							</g>
						</g>
					</g>
				</g>
				<g>
					<g>
						<g>
							<g>
								<g>
									<g>
										<path class="st2" d="M344.5,20.5c0,0-0.1,0-0.4,0c-0.3,0-0.7,0-1.1,0c-1,0-2.4,0-4.1,0c-1.7,0-3.8,0-6,0
											c-1.1,0-2.3,0-3.6,0c-1.3,0-2.6-0.6-3.5-1.6c-0.4-0.5-0.8-1.1-1-1.8c-0.2-0.6-0.2-1.3-0.2-1.9c0-1.2,0-2.4,0-3.6
											c0-2.2,0-4.3,0-6c0-1.7,0-3.1,0-4.1c0-0.4,0-0.8,0-1.1c0-0.3,0-0.4,0-0.4s0,0.1,0,0.4c0,0.3,0,0.7,0,1.1c0,1,0,2.4,0,4.1
											c0,1.7,0,3.8,0,6c0,1.1,0,2.3,0,3.6c-0.1,1.2,0.3,2.5,1.1,3.4c0.8,0.9,2,1.5,3.2,1.5c1.2,0,2.4,0,3.5,0c2.2,0,4.3,0,6,0
											c1.7,0,3.1,0,4.1,0c0.4,0,0.8,0,1.1,0C344.4,20.5,344.5,20.5,344.5,20.5z"/>
									</g>
								</g>
							</g>
						</g>
					</g>
				</g>
			</g>
			<g>
				<g>
					<path class="st2" d="M324.1,14.2c0,0.1-4.7,0.2-10.6,0.2s-10.6-0.1-10.6-0.2s4.7-0.2,10.6-0.2S324.1,14.1,324.1,14.2z"/>
				</g>
			</g>
			<g>
				<g>
					<path class="st2" d="M334.1,22c0,0.1-7,0.2-15.6,0.2c-8.6,0-15.6-0.1-15.6-0.2c0-0.1,7-0.2,15.6-0.2
						C327.1,21.8,334.1,21.8,334.1,22z"/>
				</g>
			</g>
			<g>
				<g>
					<path class="st2" d="M334.1,29.7c0,0.1-7,0.2-15.6,0.2c-8.6,0-15.6-0.1-15.6-0.2c0-0.1,7-0.2,15.6-0.2
						C327.1,29.6,334.1,29.7,334.1,29.7z"/>
				</g>
			</g>
			<g>
				<g>
					<path class="st2" d="M334.1,37.5c0,0.1-7,0.2-15.6,0.2c-8.6,0-15.6-0.1-15.6-0.2s7-0.2,15.6-0.2
						C327.1,37.4,334.1,37.4,334.1,37.5z"/>
				</g>
			</g>
			<g>
				<g>
					<path class="st2" d="M334.1,45.3c0,0.1-7,0.2-15.6,0.2c-8.6,0-15.6-0.1-15.6-0.2c0-0.1,7-0.2,15.6-0.2
						C327.1,45.1,334.1,45.2,334.1,45.3z"/>
				</g>
			</g>
			<g>
				<g>
					<path class="st2" d="M334.1,54.9c0,0.1-7,0.2-15.6,0.2c-8.6,0-15.6-0.1-15.6-0.2c0-0.1,7-0.2,15.6-0.2
						C327.1,54.8,334.1,54.8,334.1,54.9z"/>
				</g>
			</g>
		</g>
		<g>
			<g>
				<g>
					<g>
						<g>
							<g>
								<g>
									<g>
										<g>
											<path class="st0" d="M89,138.9H47.1c-2.9,0-5.2-2.3-5.2-5.2V75.8c0-2.9,2.3-5.2,5.2-5.2h26.5l20.5,21.2v42
												C94.2,136.6,91.9,138.9,89,138.9z"/>
										</g>
									</g>
								</g>
							</g>
						</g>
						<g>
							<g>
								<g>
									<g>
										<g>
											<path class="st1" d="M73.7,70.6v16.3c0,2.7,2.2,4.9,4.9,4.9h15.7L73.7,70.6z"/>
										</g>
									</g>
								</g>
							</g>
						</g>
						<g>
							<g>
								<g>
									<g>
										<g>
											<path class="st2" d="M73.9,88.3c0,0-0.2,4,4.3,5.3c0.2,0,0.3,0.1,0.5,0.1c2,0.4,15.5,2.8,15.5,2.5c0-0.3,0-4.4,0-4.4
												H78.5C78.5,91.8,74.6,91.6,73.9,88.3z"/>
										</g>
									</g>
								</g>
							</g>
						</g>
					</g>
				</g>
				<g>
					<g>
						<g>
							<g>
								<g>
									<g>
										<path class="st3" d="M89,138.9c0,0,0.3,0,0.9-0.1c0.6-0.1,1.5-0.4,2.4-1.1c0.9-0.7,1.8-2,1.9-3.7c0-1.7,0-3.6,0-5.8
											c0-8.8,0-21.3-0.1-36.5l0,0.1c-6.2-6.4-13.2-13.5-20.6-21.1l0.1,0c-4.9,0-10,0-15.3,0c-2.6,0-5.3,0-8,0c-0.7,0-1.3,0-2,0
											c-0.7,0-1.4,0-2,0.1c-1.3,0.2-2.5,1-3.3,2.1c-0.5,0.8-0.9,1.7-0.9,2.6c0,0.9,0,1.9,0,2.8c0,1.9,0,3.8,0,5.7
											c0,3.7,0,7.4,0,11c0,7.2,0,14.2,0,20.9c0,3.3,0,6.6,0,9.7c0,1.6,0,3.1,0,4.7c0,0.8,0,1.5,0,2.3c0,0.8,0,1.5,0.1,2.2
											c0.3,1.4,1.2,2.6,2.4,3.4c0.6,0.4,1.3,0.6,1.9,0.7c0.7,0.1,1.4,0,2.1,0c2.7,0,5.4,0,7.9,0c10.1,0,18.2,0,23.8,0
											c2.8,0,5,0,6.5,0c0.7,0,1.3,0,1.7,0C88.8,138.9,89,138.9,89,138.9s-0.2,0-0.6,0c-0.4,0-0.9,0-1.7,0c-1.5,0-3.7,0-6.5,0
											c-5.6,0-13.8,0-23.8,0c-2.5,0-5.2,0-7.9,0c-0.7,0-1.4,0-2.1,0c-0.7-0.1-1.4-0.3-2-0.7c-1.3-0.8-2.2-2.1-2.5-3.5
											c-0.2-0.8-0.1-1.5-0.1-2.2c0-0.8,0-1.5,0-2.3c0-1.5,0-3.1,0-4.7c0-3.1,0-6.4,0-9.7c0-6.6,0-13.6,0-20.9c0-3.6,0-7.3,0-11
											c0-1.9,0-3.8,0-5.7c0-0.9,0-1.9,0-2.9c0.1-1,0.4-1.9,1-2.7c0.8-1.2,2.1-2,3.5-2.2c0.7-0.1,1.4-0.1,2.1-0.1
											c0.7,0,1.3,0,2,0c2.7,0,5.4,0,8,0c5.3,0,10.4,0,15.3,0h0.1l0,0c7.4,7.6,14.3,14.8,20.5,21.2l0,0v0.1
											c0,15.2,0,27.7-0.1,36.5c0,2.2,0,4.1,0,5.8c-0.1,1.8-1,3-1.9,3.8c-0.9,0.7-1.8,1-2.4,1.1c-0.3,0-0.5,0.1-0.7,0.1
											C89,138.9,89,138.9,89,138.9z"/>
									</g>
								</g>
							</g>
						</g>
					</g>
				</g>
				<g>
					<g>
						<g>
							<g>
								<g>
									<g>
										<path class="st3" d="M94.2,91.8c0,0-0.1,0-0.4,0c-0.3,0-0.7,0-1.2,0c-1,0-2.5,0-4.2,0c-1.8,0-3.9,0-6.3,0
											c-1.2,0-2.4,0-3.7,0c-1.3,0-2.7-0.6-3.6-1.7c-0.5-0.5-0.8-1.2-1-1.8c-0.2-0.7-0.2-1.4-0.2-2c0-1.3,0-2.5,0-3.7
											c0-2.4,0-4.5,0-6.3c0-1.8,0-3.2,0-4.2c0-0.5,0-0.9,0-1.2c0-0.3,0-0.4,0-0.4s0,0.1,0,0.4c0,0.3,0,0.7,0,1.2
											c0,1,0,2.5,0,4.2c0,1.8,0,3.9,0,6.3c0,1.2,0,2.4,0,3.7c0,0.7,0,1.3,0.2,1.9c0.2,0.6,0.5,1.2,0.9,1.7
											c0.9,1,2.1,1.6,3.4,1.6c1.3,0,2.5,0,3.7,0c2.4,0,4.5,0,6.3,0c1.8,0,3.2,0,4.2,0c0.5,0,0.9,0,1.2,0
											C94.1,91.7,94.2,91.7,94.2,91.8z"/>
									</g>
								</g>
							</g>
						</g>
					</g>
				</g>
			</g>
			<g>
				<g>
					<path class="st3" d="M72.9,85.1c0,0.1-4.9,0.2-11,0.2c-6.1,0-11-0.1-11-0.2s4.9-0.2,11-0.2C67.9,84.9,72.9,85,72.9,85.1z"/>
				</g>
			</g>
			<g>
				<g>
					<path class="st3" d="M83.3,93.2c0,0.1-7.3,0.2-16.3,0.2s-16.3-0.1-16.3-0.2c0-0.1,7.3-0.2,16.3-0.2S83.3,93.1,83.3,93.2z"/>
				</g>
			</g>
			<g>
				<g>
					<path class="st3" d="M83.3,101.4c0,0.1-7.3,0.2-16.3,0.2s-16.3-0.1-16.3-0.2c0-0.1,7.3-0.2,16.3-0.2S83.3,101.3,83.3,101.4z"/>
				</g>
			</g>
			<g>
				<g>
					<path class="st3" d="M83.3,109.5c0,0.1-7.3,0.2-16.3,0.2s-16.3-0.1-16.3-0.2c0-0.1,7.3-0.2,16.3-0.2
						C76.1,109.3,83.3,109.4,83.3,109.5z"/>
				</g>
			</g>
			<g>
				<g>
					<path class="st3" d="M83.3,117.6c0,0.1-7.3,0.2-16.3,0.2s-16.3-0.1-16.3-0.2c0-0.1,7.3-0.2,16.3-0.2S83.3,117.5,83.3,117.6z"/>
				</g>
			</g>
			<g>
				<g>
					<path class="st3" d="M83.3,125.8c0,0.1-7.3,0.2-16.3,0.2s-16.3-0.1-16.3-0.2s7.3-0.2,16.3-0.2
						C76.1,125.6,83.3,125.7,83.3,125.8z"/>
				</g>
			</g>
		</g>
		<g>
			<g>
				<g>
					<g>
						<g>
							<g>
								<g>
									<g>
										<g>
											<path class="st0" d="M163.5,73.4h-41.1c-2.8,0-5.1-2.3-5.1-5.1V11.3c0-2.8,2.3-5.1,5.1-5.1h26.1L168.6,27v41.3
												C168.6,71.1,166.3,73.4,163.5,73.4z"/>
										</g>
									</g>
								</g>
							</g>
						</g>
						<g>
							<g>
								<g>
									<g>
										<g>
											<path class="st1" d="M148.4,6.2v16c0,2.6,2.2,4.8,4.8,4.8h15.4L148.4,6.2z"/>
										</g>
									</g>
								</g>
							</g>
						</g>
						<g>
							<g>
								<g>
									<g>
										<g>
											<path class="st2" d="M148.6,23.6c0,0-0.2,3.9,4.2,5.2c0.2,0,0.3,0.1,0.5,0.1c2,0.4,15.3,2.7,15.3,2.4c0-0.3,0-4.3,0-4.3
												h-15.4C153.2,27,149.4,26.9,148.6,23.6z"/>
										</g>
									</g>
								</g>
							</g>
						</g>
					</g>
				</g>
				<g>
					<g>
						<g>
							<g>
								<g>
									<g>
										<path class="st3" d="M163.5,73.4c0,0,0.3,0,0.9-0.1c0.6-0.1,1.4-0.4,2.3-1.1c0.9-0.7,1.8-2,1.8-3.6c0-1.7,0-3.6,0-5.7
											c0-8.6,0-20.9-0.1-35.8l0,0.1c-6.1-6.3-12.9-13.3-20.2-20.8l0.1,0c-4.8,0-9.9,0-15,0c-2.6,0-5.2,0-7.9,0c-0.7,0-1.3,0-2,0
											c-0.7,0-1.3,0-2,0.1c-1.3,0.2-2.5,0.9-3.2,2c-0.5,0.7-0.9,1.6-0.9,2.5c0,0.9,0,1.9,0,2.8c0,1.9,0,3.7,0,5.6
											c0,3.7,0,7.3,0,10.9c0,7.1,0,14,0,20.5c0,3.3,0,6.5,0,9.6c0,1.5,0,3.1,0,4.6c0,0.8,0,1.5,0,2.2c0,0.7,0,1.5,0.1,2.2
											c0.3,1.4,1.2,2.6,2.3,3.3c0.6,0.4,1.2,0.6,1.9,0.7c0.7,0.1,1.3,0,2,0c2.7,0,5.3,0,7.8,0c9.9,0,17.9,0,23.4,0
											c2.8,0,4.9,0,6.4,0c0.7,0,1.3,0,1.7,0C163.3,73.4,163.5,73.4,163.5,73.4s-0.2,0-0.6,0s-0.9,0-1.7,0c-1.5,0-3.6,0-6.4,0
											c-5.5,0-13.5,0-23.4,0c-2.5,0-5.1,0-7.8,0c-0.7,0-1.3,0-2.1,0c-0.7-0.1-1.4-0.3-2-0.7c-1.2-0.7-2.2-2-2.5-3.5
											c-0.1-0.7-0.1-1.5-0.1-2.2s0-1.5,0-2.2c0-1.5,0-3,0-4.6c0-3.1,0-6.3,0-9.6c0-6.5,0-13.4,0-20.5c0-3.5,0-7.2,0-10.9
											c0-1.8,0-3.7,0-5.6c0-0.9,0-1.8,0-2.8c0.1-1,0.4-1.9,1-2.7c0.8-1.1,2.1-1.9,3.5-2.2c0.7-0.1,1.4-0.1,2-0.1s1.3,0,2,0
											c2.6,0,5.3,0,7.9,0c5.2,0,10.2,0,15,0h0.1l0,0c7.3,7.5,14.1,14.5,20.2,20.8l0,0V27c0,14.9,0,27.2-0.1,35.8
											c0,2.2,0,4.1,0,5.7c-0.1,1.7-1,3-1.9,3.7c-0.9,0.7-1.8,1-2.4,1.1c-0.3,0-0.5,0.1-0.7,0.1
											C163.5,73.4,163.5,73.4,163.5,73.4z"/>
									</g>
								</g>
							</g>
						</g>
					</g>
				</g>
				<g>
					<g>
						<g>
							<g>
								<g>
									<g>
										<path class="st3" d="M168.6,27c0,0-0.1,0-0.4,0c-0.3,0-0.7,0-1.1,0c-1,0-2.4,0-4.2,0c-1.8,0-3.9,0-6.2,0
											c-1.2,0-2.4,0-3.7,0c-1.3,0-2.6-0.6-3.6-1.7c-0.4-0.5-0.8-1.1-1-1.8c-0.2-0.6-0.2-1.3-0.2-2c0-1.3,0-2.5,0-3.6
											c0-2.3,0-4.4,0-6.2c0-1.7,0-3.1,0-4.2c0-0.4,0-0.8,0-1.1c0-0.3,0-0.4,0-0.4c0,0,0,0.1,0,0.4c0,0.3,0,0.7,0,1.1
											c0,1,0,2.4,0,4.2c0,1.8,0,3.9,0,6.2c0,1.2,0,2.4,0,3.6c0,0.6,0,1.3,0.2,1.9c0.2,0.6,0.5,1.2,0.9,1.7
											c0.9,1,2.1,1.5,3.3,1.6c1.3,0,2.5,0,3.6,0c2.3,0,4.4,0,6.2,0c1.7,0,3.1,0,4.2,0c0.4,0,0.8,0,1.1,0
											C168.5,27,168.6,27,168.6,27z"/>
									</g>
								</g>
							</g>
						</g>
					</g>
				</g>
			</g>
			<g>
				<g>
					<path class="st3" d="M147.7,20.5c0,0.1-4.8,0.2-10.9,0.2c-6,0-10.9-0.1-10.9-0.2c0-0.1,4.8-0.2,10.9-0.2
						C142.8,20.3,147.7,20.4,147.7,20.5z"/>
				</g>
			</g>
			<g>
				<g>
					<path class="st3" d="M158,28.5c0,0.1-7.2,0.2-16,0.2c-8.8,0-16-0.1-16-0.2c0-0.1,7.2-0.2,16-0.2C150.8,28.3,158,28.4,158,28.5z
						"/>
				</g>
			</g>
			<g>
				<g>
					<path class="st3" d="M158,36.5c0,0.1-7.2,0.2-16,0.2c-8.8,0-16-0.1-16-0.2s7.2-0.2,16-0.2C150.8,36.3,158,36.4,158,36.5z"/>
				</g>
			</g>
			<g>
				<g>
					<path class="st3" d="M158,44.4c0,0.1-7.2,0.2-16,0.2c-8.8,0-16-0.1-16-0.2s7.2-0.2,16-0.2C150.8,44.3,158,44.3,158,44.4z"/>
				</g>
			</g>
			<g>
				<g>
					<path class="st3" d="M158,52.4c0,0.1-7.2,0.2-16,0.2c-8.8,0-16-0.1-16-0.2c0-0.1,7.2-0.2,16-0.2C150.8,52.3,158,52.3,158,52.4z
						"/>
				</g>
			</g>
			<g>
				<g>
					<path class="st3" d="M158,60.4c0,0.1-7.2,0.2-16,0.2c-8.8,0-16-0.1-16-0.2c0-0.1,7.2-0.2,16-0.2C150.8,60.3,158,60.3,158,60.4z
						"/>
				</g>
			</g>
		</g>
	</g>
	<g>
		<g>
			<path class="st3" d="M445.6,398.7c0,0.1-99.8,0.3-222.8,0.3C99.7,399,0,398.9,0,398.7s99.7-0.3,222.8-0.3
				C345.9,398.5,445.6,398.6,445.6,398.7z"/>
		</g>
	</g>
	<g>
		<g>
			<rect x="259.3" y="359.4" class="st4" width="23.9" height="39.2"/>
		</g>
		<g>
			<rect x="355.8" y="332" class="st4" width="23.9" height="66.5"/>
		</g>
		<g>
			<rect x="404.1" y="374.3" class="st4" width="23.9" height="24.2"/>
		</g>
		<g>
			<rect x="307.6" y="340.7" class="st4" width="23.9" height="57.8"/>
		</g>
		<g>
			<rect x="211" y="326.5" class="st4" width="23.9" height="72"/>
		</g>
		<g>
			<rect x="162.7" y="305.9" class="st4" width="23.9" height="92.6"/>
		</g>
		<g>
			<rect x="114.5" y="282.9" class="st4" width="23.9" height="115.6"/>
		</g>
		<g>
			<rect x="66.2" y="251.8" class="st4" width="23.9" height="146.7"/>
		</g>
		<g>
			<rect x="17.9" y="205.6" class="st4" width="23.9" height="192.9"/>
		</g>
	</g>
	<g>
		<g>
			<path class="st0" d="M386.2,372.6c-7.6-14.9-23.8-25-40.5-25.4c10.1-11.2,12.2-28.6,6.3-42.6c-5.8-14-18.7-24.4-33.2-28.9
				s-30.3-3.4-44.7,1.2c1.7-10.9-9.3-21.8-20.2-20.1c4.3-3,5.7-9.3,3.2-13.8c-2.6-4.5-8.8-6.5-13.5-4.4l0.6-80h-15.8h-16h-15.8
				l0.6,80c-4.7-2.2-10.9-0.1-13.5,4.4c-2.6,4.5-1.1,10.9,3.2,13.8c-10.9-1.7-21.8,9.2-20.2,20.1c-14.4-4.6-30.2-5.7-44.7-1.2
				S94.9,290.6,89,304.6c-5.8,14-3.9,31.3,6.3,42.6c-16.7,0.4-32.9,10.5-40.5,25.4c-4.4,8.7-4.8,21.4,3.8,26h153.9h16h153.9
				C391,394,390.6,381.2,386.2,372.6z"/>
		</g>
		<g>
			<g>
				<path class="st3" d="M58.6,398.5c0,0-0.4-0.2-1.2-0.7c-0.8-0.5-1.8-1.3-2.9-2.7c-1.1-1.4-2-3.4-2.5-6c-0.5-2.5-0.5-5.6,0.1-8.9
					s2-6.9,4.1-10.5c2.2-3.5,5-7.1,8.7-10.4c3.6-3.2,8-6.3,13.2-8.5c0.6-0.3,1.3-0.5,1.9-0.8c0.7-0.2,1.3-0.5,2-0.7
					c0.7-0.3,1.4-0.4,2.1-0.6c0.7-0.2,1.4-0.4,2.1-0.6c2.9-0.7,5.9-1,9.1-1.2l-0.1,0.3c-3-3.3-5.4-7.3-7.1-11.8
					c-1.7-4.5-2.5-9.4-2.5-14.5c0-5.1,0.9-10.4,2.9-15.5c1-2.5,2.2-5,3.7-7.4c1.5-2.4,3.2-4.7,5.1-6.8c7.7-8.5,18.6-14.9,31-17.3
					c6.2-1.3,12.6-1.6,19.1-1.1c6.5,0.5,13.1,1.8,19.5,3.9l-0.3,0.3c-0.4-2.6-0.1-5.3,0.8-7.8c0.9-2.5,2.4-4.9,4.3-6.9
					c1.9-2,4.3-3.6,6.9-4.7s5.5-1.5,8.4-1L187,257c-4.1-2.9-5.8-9-3.4-13.8c2.5-4.8,8.9-7.1,14-4.8l-0.4,0.2
					c-0.2-25.5-0.4-52.3-0.6-80v-0.3h0.3c7.5,0,15.6,0,23.8,0c8,0,15.9,0,23.8,0h0.3v0.3c-0.2,27.6-0.4,54.4-0.6,80l-0.4-0.2
					c5-2.2,11.3,0,13.9,4.6c2.5,4.7,1,11-3.3,14l-0.2-0.4c2.8-0.4,5.7,0,8.3,1c2.6,1,4.9,2.6,6.9,4.6c1.9,2,3.5,4.3,4.4,6.8
					c0.9,2.5,1.3,5.3,0.9,8l-0.3-0.3c6.4-2.1,13-3.4,19.5-3.9c6.5-0.4,13-0.1,19.1,1.1c12.3,2.4,23.3,8.8,30.9,17.3
					c1.9,2.1,3.6,4.4,5.1,6.8c1.5,2.3,2.7,4.8,3.7,7.4c1,2.5,1.7,5.1,2.2,7.7c0.5,2.6,0.7,5.2,0.7,7.8c0,5.1-0.9,10.1-2.5,14.6
					c-1.7,4.5-4.1,8.5-7.1,11.8l-0.1-0.3c3.1,0.1,6.2,0.5,9.1,1.2c0.7,0.2,1.4,0.4,2.1,0.6c0.7,0.2,1.4,0.4,2.1,0.6
					c0.7,0.2,1.3,0.5,2,0.7c0.7,0.3,1.3,0.5,1.9,0.8c5.2,2.2,9.5,5.3,13.2,8.5c3.6,3.3,6.5,6.8,8.6,10.4c2.2,3.5,3.5,7.1,4.1,10.5
					c0.6,3.3,0.6,6.4,0.1,8.9c-0.5,2.5-1.5,4.6-2.5,6c-1.1,1.4-2.1,2.2-2.9,2.7c-0.8,0.5-1.2,0.7-1.2,0.7s0.4-0.3,1.1-0.7
					c0.7-0.5,1.8-1.3,2.8-2.7c1-1.4,2-3.4,2.5-5.9s0.5-5.6-0.1-8.8c-0.6-3.3-2-6.9-4.1-10.4c-2.2-3.5-5-7.1-8.6-10.3
					c-3.6-3.2-8-6.2-13.1-8.4c-0.6-0.3-1.3-0.5-1.9-0.8c-0.7-0.2-1.3-0.5-2-0.7c-0.7-0.3-1.4-0.4-2.1-0.6c-0.7-0.2-1.4-0.4-2.1-0.6
					c-2.9-0.7-5.9-1-9-1.2l-0.3,0l0.2-0.2c2.9-3.3,5.3-7.3,7-11.8c1.6-4.5,2.5-9.4,2.5-14.5c0-2.5-0.3-5.1-0.7-7.7
					c-0.5-2.6-1.2-5.2-2.2-7.6c-1-2.5-2.2-5-3.7-7.3c-1.5-2.3-3.1-4.6-5.1-6.7c-7.6-8.4-18.5-14.7-30.8-17.1
					c-6.1-1.3-12.5-1.6-19-1.1c-6.5,0.5-13,1.8-19.4,3.9l-0.4,0.1l0-0.4c0.4-2.6,0.1-5.3-0.9-7.7s-2.4-4.8-4.3-6.7
					c-1.9-1.9-4.2-3.5-6.7-4.5c-2.5-1-5.3-1.4-8-1l-1,0.2l0.9-0.6c4.1-2.8,5.6-8.9,3.2-13.4c-2.4-4.4-8.5-6.6-13.2-4.4l-0.4,0.2
					v-0.4c0.2-25.6,0.4-52.4,0.6-80l0.3,0.3c-7.9,0-15.8,0-23.8,0c-8.1,0-16.2,0-23.8,0l0.3-0.3c0.2,27.7,0.4,54.5,0.6,80v0.4
					l-0.4-0.2c-4.8-2.2-11,0.1-13.3,4.6c-2.3,4.5-0.7,10.5,3.2,13.2l0.9,0.6l-1-0.2c-2.8-0.4-5.6,0-8.1,1c-2.6,1-4.8,2.6-6.7,4.5
					c-3.8,3.9-5.8,9.3-5,14.3l0,0.4l-0.4-0.1c-6.4-2.1-12.9-3.4-19.4-3.9c-6.5-0.4-12.9-0.1-19,1.1c-12.3,2.4-23.1,8.7-30.8,17.2
					c-1.9,2.1-3.6,4.4-5.1,6.7c-1.5,2.3-2.7,4.8-3.7,7.3c-2,5-2.9,10.3-2.9,15.3c0,5.1,0.9,10,2.5,14.4c1.7,4.4,4,8.4,7,11.7
					l0.2,0.2l-0.3,0c-3.1,0.1-6.1,0.5-9,1.2c-0.7,0.2-1.4,0.4-2.1,0.6s-1.4,0.4-2.1,0.6c-0.7,0.2-1.3,0.5-2,0.7
					c-0.6,0.3-1.3,0.5-1.9,0.8c-5.1,2.2-9.5,5.2-13.1,8.4c-3.6,3.2-6.5,6.8-8.6,10.3c-2.2,3.5-3.5,7.1-4.1,10.4
					c-0.6,3.3-0.6,6.3-0.1,8.9c0.5,2.5,1.4,4.5,2.5,5.9c1.1,1.4,2.1,2.2,2.8,2.7C58.2,398.3,58.6,398.5,58.6,398.5z"/>
			</g>
		</g>
		<g>
			<g>
				<polygon class="st4" points="158.8,85.6 218.7,15.8 276.2,85.6 253.8,85.6 253.8,199.3 184.1,199.3 184.1,85.7 				"/>
			</g>
		</g>
		<g>
			<g>
				<g>
					<polygon class="st5" points="443.3,162.2 400.9,175.2 411.2,181.8 439.7,199.5 448.9,205.2 					"/>
				</g>
				<g>
					<g>
						<polygon class="st5" points="251.9,382.9 226.4,370.1 287,276.4 311.6,300 359.7,223.6 383.8,241.2 426.9,170.8 441.4,177.5 
							388.4,272.7 361.5,247.6 315.5,333.3 291.4,305 						"/>
					</g>
				</g>
			</g>
			<g class="st6">
				<g>
					<path d="M276.9,358.7c-5.8-3.9-13.3-4.3-20.2-2.9c-2.3,0.4-4.8,1-6.7-0.1c-2-1.2-2.6-3.6-3.4-5.8c-4-11-15-18.5-26.5-20.4
						c-11.5-1.9-20.8-1-31.3,4.2c-6.2,3.1-12.7,7.5-18.2,15.7c-1.6,2.3-4.4,7.1-4.4,7.1c-2.1,1.5-4.8,1.7-7.4,2.1
						c-10.6,1.7-19.7,10.3-22,20.8l146.6-2.4C286.2,370.5,282.8,362.6,276.9,358.7z"/>
				</g>
			</g>
			<g>
				<g>
					<path class="st0" d="M128.8,388.8c4.6-16.2,22.6-27.4,39.2-24.2c3.5-17.7,20.4-31.7,38.4-31.8s35.2,13.6,38.9,31.2
						c10-2.3,20.7-4,30.1-0.3c9.5,3.7,16.8,14.9,12.8,24.3"/>
				</g>
				<g>
					<g>
						<path class="st3" d="M288.3,388.1c0,0,0-0.1,0.1-0.3c0.1-0.2,0.1-0.5,0.3-0.8c0.1-0.4,0.3-0.8,0.4-1.3
							c0.1-0.5,0.3-1.2,0.3-1.9c0.2-2.8-0.4-7.2-3.5-11.6c-1.5-2.2-3.6-4.3-6.3-6.1c-2.6-1.8-6-3-9.6-3.7c-3.6-0.7-7.6-0.8-11.7-0.4
							c-4.1,0.4-8.4,1.2-12.8,2.2l-0.2,0l0-0.2c-1.6-7-5.3-14-11.2-19.6c-5.8-5.6-13.6-9.8-22.2-11c-5.4-0.8-10.8-0.3-15.8,1.3
							c-5,1.6-9.5,4-13.4,7.1c-3.9,3.1-7.1,6.7-9.5,10.6s-4,8.1-4.9,12.2l0,0.2l-0.2,0c-3.7-0.7-7.4-0.7-10.7-0.1
							c-1.7,0.2-3.3,0.7-4.9,1.1c-0.8,0.3-1.5,0.5-2.3,0.8c-0.8,0.2-1.4,0.6-2.1,0.9c-1.4,0.6-2.7,1.4-3.9,2.1
							c-0.6,0.4-1.2,0.8-1.8,1.2c-0.3,0.2-0.6,0.4-0.9,0.6c-0.3,0.2-0.5,0.4-0.8,0.6c-0.5,0.4-1,0.8-1.5,1.2
							c-0.5,0.4-0.9,0.9-1.3,1.3c-0.4,0.4-0.9,0.8-1.3,1.2c-0.4,0.4-0.8,0.9-1.1,1.3c-2.8,3.3-4.4,6.4-5.4,8.6
							c-0.5,1.1-0.7,1.9-0.9,2.5s-0.3,0.9-0.3,0.9s0.3-1.2,1.1-3.4c0.9-2.2,2.5-5.3,5.3-8.7c0.4-0.4,0.7-0.9,1.1-1.3
							c0.4-0.4,0.8-0.8,1.3-1.3c0.4-0.4,0.9-0.9,1.3-1.3c0.5-0.4,1-0.8,1.5-1.2c0.3-0.2,0.5-0.4,0.8-0.6c0.3-0.2,0.6-0.4,0.9-0.6
							c0.6-0.4,1.2-0.8,1.8-1.2c1.3-0.7,2.5-1.5,4-2.1c0.7-0.3,1.4-0.7,2.2-0.9c0.8-0.3,1.5-0.5,2.3-0.8c1.6-0.4,3.2-0.9,4.9-1.1
							c3.4-0.5,7.1-0.6,10.9,0.1l-0.3,0.2c0.8-4.2,2.5-8.4,4.9-12.4c2.4-4,5.7-7.6,9.6-10.8c3.9-3.1,8.5-5.6,13.5-7.2
							c5-1.6,10.6-2.1,16-1.3c8.7,1.3,16.6,5.5,22.5,11.2c5.9,5.6,9.7,12.8,11.3,19.8l-0.3-0.2c4.4-1,8.7-1.8,12.8-2.2
							c4.1-0.4,8.1-0.3,11.8,0.4c3.6,0.7,7,1.9,9.7,3.8c2.7,1.8,4.8,4,6.3,6.2c3.1,4.4,3.8,8.9,3.5,11.8c0,0.7-0.2,1.3-0.3,1.9
							c-0.1,0.5-0.3,1-0.4,1.3s-0.2,0.6-0.3,0.8C288.4,388,288.3,388.1,288.3,388.1z"/>
					</g>
				</g>
			</g>
		</g>
	</g>
	<g>
		<g>
			<g>
				<g>
					<g>
						<g>
							<path class="st2" d="M197,139c0.6,39-30.4,71.2-69.2,71.8c-38.8,0.6-70.9-30.6-71.5-69.6c-0.6-39,30.4-71.2,69.2-71.8
								C164.3,68.8,196.4,100,197,139z M93,140.7c0.3,18.6,15.6,33.6,34.2,33.3c18.5-0.3,33.4-15.7,33.1-34.4s-15.6-33.6-34.2-33.3
								C107.6,106.6,92.7,122,93,140.7z"/>
						</g>
					</g>
				</g>
			</g>
			<g>
				<g>
					<g>
						<g>
							<path class="st5" d="M197,139c0.6,39-30.4,71.2-69.2,71.8l-0.6-36.9c18.5-0.3,33.4-15.7,33.1-34.4
								c-0.3-18.6-15.6-33.6-34.2-33.3l-0.6-36.9C164.3,68.8,196.4,100,197,139z"/>
							<path class="st5" d="M127.3,211.3l-0.6-37.9h0.5c18.3-0.3,32.9-15.5,32.6-33.9c-0.1-8.9-3.7-17.2-10.1-23.4
								s-14.7-9.5-23.6-9.4h-0.5L125,69h0.5c18.9-0.3,36.8,6.8,50.4,20.1s21.3,31,21.6,50c0.6,39.2-30.7,71.7-69.7,72.3H127.3z
								 M127.7,174.4l0.6,35.9c38.3-0.9,68.9-32.8,68.3-71.3c-0.3-18.7-7.9-36.2-21.3-49.3c-13.3-12.9-30.8-20-49.2-19.8l0.6,35.9
								c8.9,0,17.4,3.4,23.8,9.7c6.6,6.4,10.2,14.9,10.4,24.1C161.1,158.3,146.3,173.9,127.7,174.4z"/>
						</g>
					</g>
				</g>
			</g>
			<g>
				<g id="XMLID_00000094579858673664603630000015149019927310354620_">
					<g>
						<g>
							<path class="st4" d="M134.1,216.5c-45.4,0.7-81.6-34.5-82.4-80.1l43-0.7c0.4,21.8,16.9,35.5,38.7,35.2L134.1,216.5z"/>
						</g>
					</g>
				</g>
			</g>
		</g>
		<g>
			<g>
				<g>
					<path class="st3" d="M76.4,137.2c0.3,0.2-3.8,6.6-9.1,14.2s-9.8,13.7-10.1,13.5c-0.3-0.2,3.8-6.6,9.1-14.2
						C71.7,143,76.2,137,76.4,137.2z"/>
				</g>
			</g>
		</g>
		<g>
			<g>
				<g>
					<path class="st3" d="M95.1,140.8c0.3,0.2-5.7,9.4-13.4,20.5c-7.7,11.1-14.1,20-14.4,19.8s5.7-9.4,13.4-20.5
						C88.4,149.5,94.8,140.6,95.1,140.8z"/>
				</g>
			</g>
		</g>
		<g>
			<g>
				<g>
					<path class="st3" d="M104.2,159.8c0.3,0.2-5.1,8.5-12.1,18.6c-7,10.1-12.8,18.1-13.1,17.9c-0.3-0.2,5.1-8.5,12.1-18.6
						C98.1,167.7,104,159.7,104.2,159.8z"/>
				</g>
			</g>
		</g>
		<g>
			<g>
				<g>
					<path class="st3" d="M120,170.4c0.3,0.2-5.1,8.5-12.1,18.6s-12.8,18.1-13.1,17.9c-0.3-0.2,5.1-8.5,12.1-18.6
						C113.9,178.3,119.8,170.2,120,170.4z"/>
				</g>
			</g>
		</g>
		<g>
			<g>
				<g>
					<path class="st3" d="M133.6,183.8c0.3,0.2-4.1,7.1-9.9,15.4s-10.6,14.9-10.9,14.7c-0.3-0.2,4.1-7.1,9.9-15.4
						C128.5,190.2,133.3,183.6,133.6,183.8z"/>
				</g>
			</g>
		</g>
	</g>
	<g>
		<g>
			<g>
				<g>
					<g>
						<g>
							<g>
								<g>
									<g>
										<path class="st0" d="M55.4,232.7H14.1c-2.9,0-5.2-2.3-5.2-5.2v-57.3c0-2.9,2.3-5.2,5.2-5.2h26.2L60.6,186v41.5
											C60.6,230.4,58.3,232.7,55.4,232.7z"/>
									</g>
								</g>
							</g>
						</g>
					</g>
					<g>
						<g>
							<g>
								<g>
									<g>
										<path class="st1" d="M40.3,165.1v16.1c0,2.6,2.2,4.8,4.8,4.8h15.5L40.3,165.1z"/>
									</g>
								</g>
							</g>
						</g>
					</g>
					<g>
						<g>
							<g>
								<g>
									<g>
										<path class="st2" d="M40.5,182.6c0,0-0.2,3.9,4.3,5.2c0.2,0,0.3,0.1,0.5,0.1c2,0.4,15.4,2.7,15.4,2.4c0-0.3,0-4.3,0-4.3
											H45.1C45.1,186,41.2,185.9,40.5,182.6z"/>
									</g>
								</g>
							</g>
						</g>
					</g>
				</g>
			</g>
			<g>
				<g>
					<g>
						<g>
							<g>
								<g>
									<path class="st3" d="M55.4,232.7c0,0,0.3,0,0.9-0.1c0.6-0.1,1.4-0.4,2.3-1.1c0.9-0.7,1.8-2,1.8-3.6c0-1.7,0-3.6,0-5.8
										c0-8.7,0-21.1-0.1-36.1l0,0.1c-6.2-6.3-13-13.4-20.3-20.9l0.1,0c-4.9,0-9.9,0-15.1,0c-2.6,0-5.3,0-7.9,0c-0.7,0-1.3,0-2,0
										s-1.3,0-2,0.1c-1.3,0.2-2.5,0.9-3.2,2c-0.5,0.7-0.9,1.6-0.9,2.6c0,0.9,0,1.9,0,2.8c0,1.9,0,3.7,0,5.6c0,3.7,0,7.3,0,10.9
										c0,7.2,0,14.1,0,20.7c0,3.3,0,6.5,0,9.6c0,1.6,0,3.1,0,4.6c0,0.8,0,1.5,0,2.2c0,0.8,0,1.5,0.1,2.2c0.3,1.4,1.2,2.6,2.3,3.3
										c0.6,0.4,1.3,0.6,1.9,0.7c0.7,0.1,1.3,0,2,0c2.7,0,5.3,0,7.8,0c9.9,0,18,0,23.6,0c2.8,0,4.9,0,6.4,0c0.7,0,1.3,0,1.7,0
										C55.2,232.7,55.4,232.7,55.4,232.7s-0.2,0-0.6,0c-0.4,0-0.9,0-1.7,0c-1.5,0-3.6,0-6.4,0c-5.6,0-13.6,0-23.6,0
										c-2.5,0-5.1,0-7.8,0c-0.7,0-1.3,0-2.1,0c-0.7-0.1-1.4-0.3-2-0.7c-1.3-0.7-2.2-2-2.5-3.5c-0.1-0.8-0.1-1.5-0.1-2.2
										c0-0.7,0-1.5,0-2.2c0-1.5,0-3.1,0-4.6c0-3.1,0-6.3,0-9.6c0-6.6,0-13.5,0-20.7c0-3.6,0-7.2,0-10.9c0-1.8,0-3.7,0-5.6
										c0-0.9,0-1.9,0-2.8c0.1-1,0.4-1.9,1-2.7c0.8-1.2,2.1-1.9,3.5-2.2c0.7-0.1,1.4-0.1,2-0.1s1.3,0,2,0c2.7,0,5.3,0,7.9,0
										c5.2,0,10.3,0,15.1,0h0.1l0,0c7.3,7.5,14.2,14.6,20.3,21l0,0v0.1c0,15,0,27.4-0.1,36.1c0,2.2,0,4.1,0,5.8
										c-0.1,1.7-1,3-1.9,3.7c-0.9,0.7-1.8,1-2.4,1.1c-0.3,0-0.5,0.1-0.7,0.1C55.5,232.7,55.4,232.7,55.4,232.7z"/>
								</g>
							</g>
						</g>
					</g>
				</g>
			</g>
			<g>
				<g>
					<g>
						<g>
							<g>
								<g>
									<path class="st3" d="M60.6,186c0,0-0.1,0-0.4,0c-0.3,0-0.7,0-1.1,0c-1,0-2.5,0-4.2,0c-1.8,0-3.9,0-6.2,0
										c-1.2,0-2.4,0-3.7,0c-1.3,0-2.7-0.6-3.6-1.7c-0.5-0.5-0.8-1.1-1-1.8c-0.2-0.6-0.2-1.3-0.2-2c0-1.3,0-2.5,0-3.7
										c0-2.3,0-4.4,0-6.2c0-1.7,0-3.2,0-4.2c0-0.5,0-0.9,0-1.1c0-0.3,0-0.4,0-0.4c0,0,0,0.1,0,0.4c0,0.3,0,0.7,0,1.1
										c0,1,0,2.5,0,4.2c0,1.8,0,3.9,0,6.2c0,1.2,0,2.4,0,3.7c0,0.6,0,1.3,0.2,1.9s0.5,1.2,0.9,1.7c0.9,1,2.1,1.5,3.3,1.6
										c1.3,0,2.5,0,3.7,0c2.3,0,4.4,0,6.2,0c1.7,0,3.2,0,4.2,0c0.5,0,0.9,0,1.1,0C60.5,186,60.6,186,60.6,186z"/>
								</g>
							</g>
						</g>
					</g>
				</g>
			</g>
		</g>
		<g>
			<g>
				<path class="st3" d="M39.5,179.5c0,0.1-4.9,0.2-10.9,0.2c-6,0-10.9-0.1-10.9-0.2s4.9-0.2,10.9-0.2S39.5,179.4,39.5,179.5z"/>
			</g>
		</g>
		<g>
			<g>
				<path class="st3" d="M49.9,187.5c0,0.1-7.2,0.2-16.1,0.2c-8.9,0-16.1-0.1-16.1-0.2s7.2-0.2,16.1-0.2S49.9,187.4,49.9,187.5z"/>
			</g>
		</g>
		<g>
			<g>
				<path class="st3" d="M49.9,195.5c0,0.1-7.2,0.2-16.1,0.2c-8.9,0-16.1-0.1-16.1-0.2s7.2-0.2,16.1-0.2S49.9,195.5,49.9,195.5z"/>
			</g>
		</g>
		<g>
			<g>
				<path class="st3" d="M49.9,203.6c0,0.1-7.2,0.2-16.1,0.2c-8.9,0-16.1-0.1-16.1-0.2s7.2-0.2,16.1-0.2S49.9,203.5,49.9,203.6z"/>
			</g>
		</g>
		<g>
			<g>
				<path class="st3" d="M49.9,211.6c0,0.1-7.2,0.2-16.1,0.2c-8.9,0-16.1-0.1-16.1-0.2s7.2-0.2,16.1-0.2S49.9,211.5,49.9,211.6z"/>
			</g>
		</g>
		<g>
			<g>
				<path class="st3" d="M49.9,219.7c0,0.1-7.2,0.2-16.1,0.2c-8.9,0-16.1-0.1-16.1-0.2s7.2-0.2,16.1-0.2S49.9,219.6,49.9,219.7z"/>
			</g>
		</g>
	</g>
	<g>
		<g>
			<g>
				<g>
					<g>
						<g>
							<g>
								<path class="st1" d="M262.8,340.7c0,0.6,0,32.5,0,32.5h-5.4v3.5h5.4v21.7h101.4v-19.8h-7.5v-4.3h7.5v-6.5h3.3V365h-4v-24.3
									H262.8z"/>
							</g>
						</g>
					</g>
				</g>
			</g>
			<g>
				<g>
					<g>
						<g>
							<g>
								<polygon class="st2" points="337.3,340.8 337.3,398.1 364.2,398.1 364.2,378.3 356.7,378.3 356.7,374.4 364.2,374.5 
									364.2,368.1 367.6,368.1 367.5,364.7 363.6,364.6 363.6,340.7 								"/>
							</g>
						</g>
					</g>
				</g>
			</g>
			<g>
				<g>
					<g>
						<g>
							<g>
								<g>
									<path class="st2" d="M339.2,376.3c0,0.2-18.4,0.4-41,0.4c-22.6,0-41-0.2-41-0.4s18.3-0.4,41-0.4
										C320.8,375.9,339.2,376.1,339.2,376.3z"/>
								</g>
							</g>
						</g>
					</g>
				</g>
			</g>
			<g>
				<g>
					<g>
						<g>
							<g>
								<g>
									<path class="st2" d="M339.2,373c0,0.2-18.4,0.4-41,0.4c-22.6,0-41-0.2-41-0.4c0-0.2,18.3-0.4,41-0.4
										C320.8,372.6,339.2,372.8,339.2,373z"/>
								</g>
							</g>
						</g>
					</g>
				</g>
			</g>
			<g>
				<g>
					<g>
						<g>
							<g>
								<g>
									<path class="st2" d="M344.5,364.1c0,0.2-18.4,0.4-41,0.4c-22.6,0-41-0.2-41-0.4s18.3-0.4,41-0.4
										C326.1,363.8,344.5,363.9,344.5,364.1z"/>
								</g>
							</g>
						</g>
					</g>
				</g>
			</g>
			<g>
				<g>
					<g>
						<g>
							<g>
								<g>
									<path class="st2" d="M345,388.3c0,0.2-18.4,0.4-41,0.4c-22.6,0-41-0.2-41-0.4s18.3-0.4,41-0.4
										C326.6,388,345,388.1,345,388.3z"/>
								</g>
							</g>
						</g>
					</g>
				</g>
			</g>
		</g>
	</g>
	<g>
		<g>
			<g>
				<g>
					<g>
						<path class="st7" d="M356.8,33.3c0,0,4.2-9.8,4.4-11.3c0.2-1.5-0.2-4.9-1.3-5.8c-1.1-0.9-2.5-1.1-3.5-0.5c0,0-0.2-2.1-2.3-2.5
							c-2.2-0.4-2.1,1.6-2.1,1.6s0.1-1.5-1.5-1.9c-0.8-0.2-1.7,0.2-1.7,0.2s-2.1-1.8-3.5-0.7s0.2,18.9,0.2,18.9L356.8,33.3z"/>
					</g>
					<g>
						<g>
							<path class="st7" d="M345.4,29.3c0,0-3.8-6.5-3.8-8.3c0-1.8,2.2-5.8,3.3-6.3c1.2-0.5,5.9-1.6,5.9-1.6s1.9,1.8-0.9,3.6
								l-3.3,1.8c0,0,5.2,1.8,5,7"/>
						</g>
						<g>
							<g>
								<path class="st8" d="M351.7,25.6c-0.1,0,0-0.9-0.5-2.5c-0.3-0.7-0.8-1.6-1.5-2.4c-0.8-0.8-1.8-1.5-3.1-2l-0.4-0.2l0.4-0.2
									c1-0.6,2.1-1.2,3.3-1.9c0.5-0.3,1.1-0.8,1.3-1.4c0.2-0.6,0-1.3-0.5-1.8l0.2,0.1c-0.8,0.2-1.7,0.4-2.5,0.6
									c-0.7,0.2-1.3,0.3-2,0.5c-0.3,0.1-0.6,0.2-0.9,0.3c-0.1,0-0.3,0.1-0.4,0.2c-0.1,0-0.2,0.1-0.3,0.2c-0.9,0.9-1.5,2-2,3
									c-0.2,0.5-0.5,1.1-0.6,1.6c-0.1,0.5-0.3,1.1-0.2,1.5c0.2,1,0.6,1.9,1,2.7c0.7,1.6,1.4,2.9,1.9,3.8c0.4,0.9,0.7,1.4,0.7,1.4
									c0,0-0.3-0.4-0.9-1.3s-1.2-2.2-2-3.8c-0.4-0.8-0.8-1.7-1.1-2.8c-0.1-0.6,0-1.2,0.2-1.7c0.2-0.6,0.4-1.1,0.6-1.7
									c0.5-1.1,1.1-2.2,2.1-3.2c0.1-0.1,0.3-0.2,0.4-0.3c0.2-0.1,0.3-0.1,0.5-0.2c0.3-0.1,0.6-0.2,1-0.3c0.6-0.2,1.3-0.4,2-0.5
									c0.9-0.2,1.7-0.4,2.5-0.6l0.1,0l0.1,0.1c0.6,0.6,0.9,1.5,0.6,2.3c-0.3,0.8-0.9,1.3-1.5,1.6c-1.2,0.7-2.3,1.3-3.3,1.9l0-0.4
									c1.3,0.5,2.4,1.3,3.2,2.2c0.8,0.9,1.3,1.8,1.5,2.6c0.1,0.4,0.2,0.8,0.2,1.1c0,0.3,0.1,0.6,0.1,0.8
									C351.7,25.4,351.7,25.6,351.7,25.6z"/>
							</g>
						</g>
					</g>
					<g>
						<g>
							<path class="st7" d="M351.7,14.9c-0.5,1.9-0.7,3.9-0.6,5.8c0,0.7,0.2,1.4,0.6,1.8c0.4,0.4,1.1,0.6,1.8,0.5
								c0.6-0.1,1.2-0.5,1.6-0.9"/>
						</g>
						<g>
							<g>
								<path class="st8" d="M355.1,22.1c0,0-0.3,0.7-1.4,1.1c-0.5,0.2-1.3,0.2-2-0.3c-0.7-0.5-0.9-1.4-0.9-2.2
									c-0.3-3.3,0.7-5.9,0.8-5.8c0.1,0-0.6,2.6-0.3,5.8c0,0.8,0.2,1.5,0.7,1.9c0.5,0.4,1.1,0.4,1.6,0.3
									C354.6,22.6,355.1,22.1,355.1,22.1z"/>
							</g>
						</g>
					</g>
					<g>
						<g>
							<path class="st7" d="M347.5,18.4c-0.3,0.9-0.2,1.2-0.2,2.1c0,0.9,0.6,1.8,1.5,2.1c0.7,0.2,1.7-0.8,2.1-1.8"/>
						</g>
						<g>
							<g>
								<path class="st8" d="M351,20.8c0,0,0,0.5-0.4,1.1c-0.2,0.3-0.5,0.7-1,0.9c-0.2,0.1-0.6,0.1-0.9,0c-0.3-0.1-0.5-0.3-0.8-0.5
									c-0.4-0.4-0.6-1-0.7-1.5c0-0.5,0-0.9,0-1.3c0-0.8,0.4-1.2,0.4-1.1c0.1,0-0.1,0.4,0,1.1c0,0.4,0.1,0.8,0.1,1.2
									c0.1,0.4,0.3,0.9,0.6,1.2c0.2,0.2,0.4,0.3,0.6,0.4c0.2,0.1,0.4,0.1,0.5,0c0.4-0.1,0.7-0.4,0.9-0.7
									C350.7,21.1,350.9,20.7,351,20.8z"/>
							</g>
						</g>
					</g>
					<g>
						<g>
							<path class="st7" d="M356.8,15.8c-1.1,1.2-1.8,2.6-2.3,4.1c-0.2,0.8-0.3,1.8,0.3,2.3c0.6,0.6,1.7,0.4,2.4-0.1
								c1.1-0.7,1.9-1.9,2.2-3.1"/>
						</g>
						<g>
							<g>
								<path class="st8" d="M359.5,19c0,0,0.1,0.8-0.6,1.9c-0.4,0.5-0.9,1.1-1.6,1.5c-0.4,0.2-0.8,0.4-1.3,0.4
									c-0.5,0-1.1-0.2-1.4-0.7c-0.3-0.5-0.3-1-0.3-1.5c0-0.5,0.2-0.9,0.3-1.3c0.3-0.8,0.6-1.5,1-2c0.7-1.1,1.3-1.5,1.3-1.5
									c0.1,0-0.4,0.6-1,1.7c-0.3,0.5-0.6,1.2-0.9,1.9c-0.1,0.4-0.2,0.8-0.3,1.2c0,0.4,0,0.9,0.2,1.2c0.4,0.7,1.4,0.5,2.1,0.2
									c0.7-0.4,1.2-0.9,1.6-1.3C359.2,19.7,359.4,19,359.5,19z"/>
							</g>
						</g>
					</g>
				</g>
				<g>
					<g>
						<path class="st3" d="M304.2,95.9c0,0,5.3-5.7,7.3-7s15.8-17.6,17.2-21.9c1.4-4.3,14.9-38.8,14.6-38.3c-0.2,0.4,17,3.6,17,3.6
							s-12.9,39.7-14.4,44.3c-2.8,8.2-16.9,24.9-24.9,34.9c-3.4,4.3-8.1,17.9-8.1,17.9L304.2,95.9z"/>
					</g>
					<g>
						<g>
							<path class="st5" d="M316.7,117.3c-0.1,0-0.3-1.2-0.5-3.1c-0.2-1.9-0.4-4.6-0.5-7.6c0-3,0.1-5.7,0.2-7.6
								c0.1-1.9,0.3-3.1,0.4-3.1c0.1,0,0,1.2,0,3.1c-0.1,1.9-0.1,4.6-0.1,7.6c0,3,0.2,5.6,0.3,7.6
								C316.7,116.1,316.8,117.3,316.7,117.3z"/>
						</g>
					</g>
				</g>
			</g>
			<g>
				<g>
					<g>
						<g>
							<g>
								<g>
									<g>
										<g>
											<g>
												<g>
													<g>
														<g>
															<path class="st5" d="M230,319.8l-7.4,15.1l-0.9,3.7c0,0,4.9,22.4,1.8,24.6l-22-35.5l5.7-3.6l7-15.1L230,319.8z"/>
														</g>
													</g>
												</g>
											</g>
										</g>
									</g>
								</g>
							</g>
						</g>
					</g>
					<g>
						<g>
							<g>
								<g>
									<g>
										<g>
											<g>
												<g>
													<g>
														<g>
															<path class="st3" d="M201.5,327.7l2.8-1.6l20.1,34.7c0,0,0.3,2-0.8,2.5L201.5,327.7z"/>
														</g>
													</g>
												</g>
											</g>
										</g>
									</g>
								</g>
							</g>
						</g>
					</g>
					<g>
						<g>
							<g>
								<g>
									<g>
										<g>
											<g>
												<g>
													<g>
														<g>
															<g>
																<path class="st3" d="M222.2,339.1c-0.2,0.1-0.8-0.7-1.8-1.3c-1-0.5-2-0.5-2.1-0.8c-0.1-0.2,1.1-0.5,2.3,0.1
																	C221.9,337.8,222.3,339,222.2,339.1z"/>
															</g>
														</g>
													</g>
												</g>
											</g>
										</g>
									</g>
								</g>
							</g>
						</g>
					</g>
					<g>
						<g>
							<g>
								<g>
									<g>
										<g>
											<g>
												<g>
													<g>
														<g>
															<g>
																<path class="st3" d="M223,343.7c-0.1,0.1-0.9-0.4-1.9-0.6c-1.1-0.2-1.9,0.1-2,0c-0.1-0.1,0.8-0.9,2.1-0.6
																	C222.5,342.6,223.2,343.6,223,343.7z"/>
															</g>
														</g>
													</g>
												</g>
											</g>
										</g>
									</g>
								</g>
							</g>
						</g>
					</g>
					<g>
						<g>
							<g>
								<g>
									<g>
										<g>
											<g>
												<g>
													<g>
														<g>
															<g>
																<path class="st3" d="M220.1,348.5c-0.1-0.1,0.5-0.9,1.7-1c1.2-0.1,2,0.5,1.9,0.6c-0.1,0.2-0.9,0-1.8,0.1
																	C221,348.2,220.2,348.6,220.1,348.5z"/>
															</g>
														</g>
													</g>
												</g>
											</g>
										</g>
									</g>
								</g>
							</g>
						</g>
					</g>
				</g>
				<g>
					<g>
						<g>
							<g>
								<path class="st3" d="M305.4,208.9c-0.7,1.7-37.9,58.6-45.5,64.9c-7.6,6.3-33.6,58.2-33.6,58.2s-21.2-10.3-21.7-9.2
									c-0.5,1.1,14.9-36.6,24.1-52.1c9.2-15.5,13.4-21.5,13.4-21.5l18.2-48.6c0,0,0.4-16,2.7-22.3s9.2-11.6,9.2-11.6L305.4,208.9z
									"/>
							</g>
						</g>
					</g>
				</g>
				<g>
					<g>
						<g>
							<g>
								<g>
									<g>
										<g>
											<g>
												<g>
													<g>
														<g>
															<path class="st5" d="M271.9,277.6l-19.8,1.4c0,0-5.1,21.6-8.7,22.3l-4.4-40.3l30.7-3.5L271.9,277.6z"/>
														</g>
													</g>
												</g>
											</g>
										</g>
									</g>
								</g>
							</g>
						</g>
					</g>
					<g>
						<g>
							<g>
								<g>
									<g>
										<g>
											<g>
												<g>
													<g>
														<g>
															<g>
																<path class="st2" d="M252.5,266.4c-0.3-0.8-1.2-1.2-1.9-0.9c-0.7,0.3-1.2,1.2-0.9,2c0.3,0.8,1.3,1.3,2,1
																	c0.7-0.4,1.1-1.5,0.7-2.2"/>
															</g>
														</g>
													</g>
												</g>
											</g>
										</g>
									</g>
								</g>
							</g>
						</g>
					</g>
					<g>
						<g>
							<g>
								<g>
									<g>
										<g>
											<g>
												<g>
													<g>
														<g>
															<path class="st3" d="M239.2,261.1l3.1-0.2l3,38.7c0,0-0.5,1.9-1.8,1.8L239.2,261.1z"/>
														</g>
													</g>
												</g>
											</g>
										</g>
									</g>
								</g>
							</g>
						</g>
					</g>
					<g>
						<g>
							<g>
								<g>
									<g>
										<g>
											<g>
												<g>
													<g>
														<g>
															<g>
																<path class="st3" d="M252.4,279.7c-0.2,0-0.4-1-1.1-1.9c-0.7-0.9-1.5-1.3-1.5-1.5c0-0.2,1.2,0,2,1.1
																	C252.7,278.5,252.6,279.7,252.4,279.7z"/>
															</g>
														</g>
													</g>
												</g>
											</g>
										</g>
									</g>
								</g>
							</g>
						</g>
					</g>
					<g>
						<g>
							<g>
								<g>
									<g>
										<g>
											<g>
												<g>
													<g>
														<g>
															<g>
																<path class="st3" d="M251.2,284.1c-0.2,0.1-0.6-0.8-1.4-1.3c-0.9-0.6-1.7-0.7-1.7-0.9c0-0.2,1-0.4,2.1,0.3
																	C251.2,282.9,251.4,284.1,251.2,284.1z"/>
															</g>
														</g>
													</g>
												</g>
											</g>
										</g>
									</g>
								</g>
							</g>
						</g>
					</g>
					<g>
						<g>
							<g>
								<g>
									<g>
										<g>
											<g>
												<g>
													<g>
														<g>
															<g>
																<path class="st3" d="M246.7,287c0-0.2,0.9-0.5,1.9-0.2c1.1,0.4,1.6,1.3,1.4,1.4c-0.1,0.1-0.8-0.4-1.6-0.7
																	C247.6,287.2,246.7,287.2,246.7,287z"/>
															</g>
														</g>
													</g>
												</g>
											</g>
										</g>
									</g>
								</g>
							</g>
						</g>
					</g>
					<g>
						<g>
							<g>
								<g>
									<g>
										<g>
											<g>
												<g>
													<g>
														<g>
															<g>
																<path class="st3" d="M256.9,278.9c-0.2-0.1,0-1-0.2-2.1c-0.2-1.1-0.6-1.9-0.5-2.1c0.1-0.1,0.9,0.6,1.1,1.9
																	C257.6,277.9,257.1,278.9,256.9,278.9z"/>
															</g>
														</g>
													</g>
												</g>
											</g>
										</g>
									</g>
								</g>
							</g>
						</g>
					</g>
				</g>
				<g>
					<path class="st3" d="M254.6,194.1c0,0,0,18.9,8.5,25.3c8.6,6.4,38.4,30.5,38.4,30.5L254,258l3.5,22.1c0,0,64.3-6.5,72.1-9.1
						c7.9-2.6,13.5-15.9,7.4-25.2c-3.1-4.6-35.1-50.1-35.1-50.1l-1-12.2l-40.3,2.6L254.6,194.1z"/>
				</g>
				<g>
					<g>
						<path class="st5" d="M257.6,280.1c0,0,0-0.1-0.1-0.4c0-0.3-0.1-0.7-0.2-1.1c-0.2-1-0.4-2.5-0.8-4.4c-0.6-3.8-1.6-9.3-2.7-16.1
							l0-0.2l0.2,0c11.5-2,26.7-4.6,43.5-7.5c1.4-0.2,2.8-0.5,4.1-0.7l-0.1,0.4c-6.7-5.5-13.1-10.8-18.9-15.4
							c-2.9-2.3-5.7-4.5-8.3-6.6c-2.6-2.1-5.1-3.9-7.1-5.8c-4.1-3.8-6.8-7.5-8.5-10.2c-0.8-1.3-1.4-2.4-1.7-3.1
							c-0.2-0.4-0.3-0.7-0.4-0.9c-0.1-0.2-0.1-0.3-0.1-0.3c0,0,0,0.1,0.1,0.3s0.2,0.5,0.4,0.8c0.4,0.7,0.9,1.8,1.8,3.1
							c1.7,2.6,4.4,6.2,8.6,10c2.1,1.9,4.5,3.7,7.1,5.7c2.6,2,5.4,4.2,8.3,6.6c5.8,4.7,12.2,9.9,18.9,15.4l0.4,0.4l-0.5,0.1
							c-1.3,0.2-2.7,0.5-4.1,0.7c-16.7,2.8-32,5.4-43.5,7.4l0.2-0.2c1.1,6.8,1.9,12.3,2.5,16.2c0.3,1.9,0.5,3.4,0.7,4.4
							c0.1,0.5,0.1,0.9,0.2,1.2C257.6,279.9,257.6,280.1,257.6,280.1z"/>
					</g>
				</g>
				<g>
					<g>
						<path class="st5" d="M314.4,251.2c0,0.1-2.8-0.7-6.4-1c-3.5-0.4-6.4-0.2-6.4-0.3c0-0.1,0.7-0.2,1.9-0.3
							c1.2-0.1,2.8-0.1,4.6,0.1c1.8,0.2,3.4,0.5,4.5,0.9C313.8,250.9,314.5,251.2,314.4,251.2z"/>
					</g>
				</g>
			</g>
			<g>
				<g>
					<g>
						<g>
							<g>
								<g>
									<g>
										<g>
											<g>
												<g>
													<g>
														<path class="st3" d="M285,35.2c0.5-1.8,2.3-3.1,4.1-3.1c1.8-2,5-2.6,7.4-1.2c1.4-1.2,3.5-1.6,5.2-1
															c1.8,0.6,3.2,2.1,3.6,4c1.8-0.6,3.9,0,5,1.5c1.2,1.5,1.2,3.7,0.2,5.3c2.1,0.3,3.8,2.3,3.7,4.4c-0.1,2.1-1.9,4-4,4.2
															L286.8,40C285.2,39,284.5,36.9,285,35.2z"/>
													</g>
												</g>
											</g>
										</g>
									</g>
								</g>
							</g>
						</g>
					</g>
				</g>
				<g>
					<g>
						<g>
							<g>
								<g>
									<g>
										<g>
											<g>
												<g>
													<g>
														<g>
															<g>
																<g>
																	<g>
																		<path class="st7" d="M311,49.8c-2.5-9.3-11.6-15.1-21-13.4l-0.9,0.2c-10,2.4-11.5,12.3-8.8,22.3l7.7,37.4l0,0
																			l18.5,11l2.2-8.2l0-13.3c0,0,9.4-3.3,7.8-13C315.7,68,313.3,58.4,311,49.8z"/>
																	</g>
																</g>
															</g>
														</g>
													</g>
												</g>
											</g>
										</g>
									</g>
								</g>
							</g>
						</g>
						<g>
							<g>
								<g>
									<g>
										<g>
											<g>
												<g>
													<g>
														<g>
															<g>
																<g>
																	<g>
																		<g>
																			<g>
																				<path class="st8" d="M308.8,85.7c0,0-6.1,1.5-13.4-1.4c0,0,3.8,7,13.3,4.4L308.8,85.7z"/>
																			</g>
																		</g>
																	</g>
																</g>
															</g>
														</g>
													</g>
												</g>
											</g>
										</g>
									</g>
								</g>
							</g>
						</g>
						<g>
							<g>
								<g>
									<g>
										<g>
											<g>
												<g>
													<g>
														<g>
															<g>
																<g>
																	<g>
																		<g>
																			<g>
																				<g>
																					<g>
																						<g>
																							<path class="st3" d="M309.8,58.9c0.2,0.7-0.3,1.5-1.1,1.7c-0.8,0.2-1.5-0.3-1.7-1s0.3-1.5,1.1-1.7
																								C308.9,57.8,309.6,58.2,309.8,58.9z"/>
																						</g>
																					</g>
																				</g>
																			</g>
																		</g>
																	</g>
																</g>
															</g>
														</g>
													</g>
												</g>
											</g>
										</g>
									</g>
								</g>
							</g>
						</g>
						<g>
							<g>
								<g>
									<g>
										<g>
											<g>
												<g>
													<g>
														<g>
															<g>
																<g>
																	<g>
																		<g>
																			<g>
																				<g>
																					<g>
																						<g>
																							<g>
																								<path class="st3" d="M310,55.4c-0.1,0.2-1.3-0.4-2.8-0.1c-1.5,0.3-2.4,1.2-2.6,1.1c-0.1-0.1,0-0.4,0.4-0.9
																									c0.4-0.4,1.1-0.9,2.1-1.1c0.9-0.2,1.8,0,2.3,0.3C309.8,55,310,55.3,310,55.4z"/>
																							</g>
																						</g>
																					</g>
																				</g>
																			</g>
																		</g>
																	</g>
																</g>
															</g>
														</g>
													</g>
												</g>
											</g>
										</g>
									</g>
								</g>
							</g>
						</g>
						<g>
							<g>
								<g>
									<g>
										<g>
											<g>
												<g>
													<g>
														<g>
															<g>
																<g>
																	<g>
																		<g>
																			<g>
																				<g>
																					<g>
																						<g>
																							<path class="st3" d="M296.8,61.9c0.2,0.7-0.3,1.5-1.1,1.7c-0.8,0.2-1.5-0.3-1.7-1s0.3-1.5,1.1-1.7
																								S296.6,61.1,296.8,61.9z"/>
																						</g>
																					</g>
																				</g>
																			</g>
																		</g>
																	</g>
																</g>
															</g>
														</g>
													</g>
												</g>
											</g>
										</g>
									</g>
								</g>
							</g>
						</g>
						<g>
							<g>
								<g>
									<g>
										<g>
											<g>
												<g>
													<g>
														<g>
															<g>
																<g>
																	<g>
																		<g>
																			<g>
																				<g>
																					<g>
																						<g>
																							<g>
																								<path class="st3" d="M295.7,57.8c-0.1,0.2-1.3-0.4-2.8-0.1c-1.5,0.3-2.4,1.2-2.6,1.1
																									c-0.1-0.1,0-0.4,0.4-0.9s1.1-0.9,2.1-1.1c0.9-0.2,1.8,0,2.3,0.3S295.7,57.7,295.7,57.8z"/>
																							</g>
																						</g>
																					</g>
																				</g>
																			</g>
																		</g>
																	</g>
																</g>
															</g>
														</g>
													</g>
												</g>
											</g>
										</g>
									</g>
								</g>
							</g>
						</g>
						<g>
							<g>
								<g>
									<g>
										<g>
											<g>
												<g>
													<g>
														<g>
															<g>
																<g>
																	<g>
																		<g>
																			<g>
																				<g>
																					<g>
																						<g>
																							<path class="st3" d="M302.6,67.9c0-0.1,0.9-0.4,2.3-0.9c0.4-0.1,0.7-0.3,0.7-0.5c0-0.3-0.2-0.7-0.4-1.1
																								c-0.5-0.9-1.1-1.8-1.7-2.7c-2.3-3.9-4.1-7.1-3.9-7.1c0.2-0.1,2.2,3,4.5,6.8c0.6,0.9,1.1,1.9,1.6,2.7
																								c0.2,0.4,0.6,0.9,0.5,1.5c0,0.3-0.3,0.6-0.5,0.7c-0.2,0.1-0.4,0.2-0.6,0.2C303.5,67.9,302.6,68,302.6,67.9z"
																								/>
																						</g>
																					</g>
																				</g>
																			</g>
																		</g>
																	</g>
																</g>
															</g>
														</g>
													</g>
												</g>
											</g>
										</g>
									</g>
								</g>
							</g>
						</g>
						<g>
							<g>
								<g>
									<g>
										<g>
											<g>
												<g>
													<g>
														<g>
															<g>
																<g>
																	<g>
																		<g>
																			<g>
																				<g>
																					<g>
																						<g>
																							<path class="st3" d="M298.4,69.8c0.2,0,0.5,1.6,2.1,2.5c1.6,0.9,3.3,0.4,3.3,0.6c0,0.1-0.3,0.4-1,0.5
																								c-0.7,0.2-1.8,0.1-2.8-0.4c-1-0.5-1.5-1.4-1.7-2.1C298.2,70.2,298.3,69.8,298.4,69.8z"/>
																						</g>
																					</g>
																				</g>
																			</g>
																		</g>
																	</g>
																</g>
															</g>
														</g>
													</g>
												</g>
											</g>
										</g>
									</g>
								</g>
							</g>
						</g>
						<g>
							<g>
								<g>
									<g>
										<g>
											<g>
												<g>
													<g>
														<g>
															<g>
																<g>
																	<g>
																		<g>
																			<path class="st3" d="M294.9,53.5c-0.1,0.4-1.4,0.3-3,0.6c-1.6,0.3-2.8,0.9-3,0.5c-0.1-0.2,0.1-0.6,0.6-1
																				s1.3-0.9,2.2-1c0.9-0.2,1.8,0,2.4,0.2C294.7,52.9,295,53.3,294.9,53.5z"/>
																		</g>
																	</g>
																</g>
															</g>
														</g>
													</g>
												</g>
											</g>
										</g>
									</g>
								</g>
							</g>
						</g>
						<g>
							<g>
								<g>
									<g>
										<g>
											<g>
												<g>
													<g>
														<g>
															<g>
																<g>
																	<g>
																		<g>
																			<path class="st3" d="M308.9,51.3c-0.2,0.4-1.3,0.3-2.5,0.6c-1.2,0.3-2.2,0.8-2.5,0.5c-0.1-0.1-0.1-0.5,0.3-0.9
																				s1-0.9,1.9-1.1c0.8-0.2,1.6-0.1,2.2,0.1C308.7,50.8,308.9,51.1,308.9,51.3z"/>
																		</g>
																	</g>
																</g>
															</g>
														</g>
													</g>
												</g>
											</g>
										</g>
									</g>
								</g>
							</g>
						</g>
						<g>
							<g>
								<g>
									<g>
										<g>
											<g>
												<g>
													<g>
														<g>
															<g>
																<g>
																	<g>
																		<path class="st3" d="M309.2,45.4c0,0-3.7-5.6-6.8-6.5c-3.9-1.1-4.7,3.1-8.2,2.8c-3.5-0.3-7.2-1.4-10.2,1.9
																			c-3.3,3.5-1.1,5.3-0.6,9.6c2.2,17.7,0,23.2-2.5,15.1c-0.3-0.9-2.9-1.2-4-4.9c-1.4-4.9-2.6-10.9-2.2-14.6
																			c0.4-3.1,1.7-5.5,4.3-8.3c4.1-4.4,10.6-5.7,15.1-6.1C298.8,34.2,308.3,37.7,309.2,45.4z"/>
																	</g>
																</g>
															</g>
														</g>
													</g>
												</g>
											</g>
										</g>
									</g>
								</g>
							</g>
						</g>
						<g>
							<g>
								<g>
									<g>
										<g>
											<g>
												<g>
													<g>
														<g>
															<g>
																<g>
																	<g>
																		<path class="st7" d="M282.8,67.7c-0.3-1.5-1.8-2.4-3.3-2c-1.8,0.5-3.6,1.9-2.8,5.6c1.4,6.6,7.7,3.8,7.7,3.6
																			C284.3,74.8,283.4,70.5,282.8,67.7z"/>
																	</g>
																</g>
															</g>
														</g>
													</g>
												</g>
											</g>
										</g>
									</g>
								</g>
							</g>
						</g>
						<g>
							<g>
								<g>
									<g>
										<g>
											<g>
												<g>
													<g>
														<g>
															<g>
																<g>
																	<g>
																		<path class="st8" d="M282.4,72.8c0,0-0.1,0.1-0.3,0.2c-0.2,0.1-0.5,0.3-0.9,0.2c-0.8-0.1-1.6-1.1-1.9-2.3
																			c-0.1-0.6-0.1-1.2,0-1.7c0.1-0.5,0.3-0.9,0.7-1.1c0.3-0.2,0.6,0,0.7,0.2s0.1,0.3,0.1,0.3c0,0,0.1-0.1,0-0.4
																			c0-0.1-0.2-0.3-0.4-0.4s-0.4-0.1-0.7,0c-0.5,0.1-0.9,0.7-1,1.3c-0.1,0.6-0.2,1.3,0,1.9c0.3,1.3,1.3,2.4,2.3,2.5
																			c0.5,0,0.9-0.2,1-0.4C282.4,72.9,282.4,72.8,282.4,72.8z"/>
																	</g>
																</g>
															</g>
														</g>
													</g>
												</g>
											</g>
										</g>
									</g>
								</g>
							</g>
						</g>
					</g>
					<g>
						<g>
							<g>
								<g>
									<g>
										<g>
											<g>
												<g>
													<g>
														<g>
															<g>
																<path class="st3" d="M279.3,55c1,0.4,2,0.9,3.1,0.8c1.1-0.1,2.1-0.9,2.1-2c0-0.5-0.2-1,0-1.4c0.3-0.5,1-0.5,1.5-0.5
																	c2-0.1,3.7-1.9,3.8-3.9c0.6,0.6,1.8,0.4,2.4-0.2c0.7-0.6,1-1.5,1.4-2.3c0.4-0.8,1.2-1.5,2.1-1.6c0.5,0,1,0.2,1.5,0
																	c0.9-0.2,1.1-1.3,1.1-2.2c0-0.9-0.1-1.9,0.5-2.5c0.6-0.6,1.5-0.5,2.4-0.5c0.8,0,1.8-0.4,1.9-1.2
																	c0-0.4-0.2-0.8-0.5-1.2c-1.3-1.4-3.7-1.8-5.4-0.7c-1-2.1-3.4-3.4-5.7-3.2c-2.3,0.2-4.4,1.8-5.2,4.1
																	c-1.6-1-3.8-1.2-5.5-0.4c-1.8,0.8-3.1,2.4-3.5,4.3c-1.7-0.1-3.4,0.8-4.2,2.3c-0.8,1.5-0.6,3.5,0.5,4.8
																	c-1.1,0.9-1.9,2.3-1.6,3.7c0.2,1.4,1.8,2.5,3.1,1.9c-0.3,1.2,0.4,2.6,1.5,3c1.1,0.4,2.6-0.2,3-1.3"/>
															</g>
														</g>
													</g>
												</g>
											</g>
										</g>
									</g>
								</g>
							</g>
						</g>
					</g>
				</g>
				<g>
					<g>
						<g>
							<g>
								<g>
									<g>
										<g>
											<g>
												<g>
													<g>
														<g>
															<path class="st5" d="M274.6,53.2c0,0,0,0.6,0.6,1.2c0.3,0.3,0.9,0.6,1.5,0.5c0.6,0,1.3-0.3,1.8-0.9h-0.3
																c0.4,0.5,1,1,1.6,1.4c0.4,0.3,0.9,0.4,1.3,0.5s1,0,1.3-0.1c0.8-0.2,1.5-0.8,1.7-1.4c0.3-0.6,0.3-1.1,0.3-1.5
																s0-0.5,0-0.5s0,0.2-0.1,0.5c0,0.3-0.1,0.9-0.4,1.4c-0.4,1.1-2.4,1.9-4,0.8c-0.6-0.4-1.1-0.9-1.5-1.3l-0.1-0.2
																l-0.1,0.2c-0.4,0.5-1,0.8-1.5,0.8c-0.5,0-1-0.2-1.3-0.4C274.8,53.7,274.7,53.2,274.6,53.2z"/>
														</g>
													</g>
												</g>
											</g>
										</g>
									</g>
								</g>
							</g>
						</g>
					</g>
				</g>
				<g>
					<g>
						<g>
							<g>
								<g>
									<g>
										<g>
											<g>
												<g>
													<g>
														<g>
															<path class="st5" d="M284.4,35.7c0,0,0.2,0,0.5,0.1c0.3,0.1,0.8,0.2,1.2,0.7l0.1,0.1l0.1-0.1
																c0.5-0.9,1.3-2.2,2.7-3.2c0.7-0.5,1.6-0.9,2.5-1c0.9-0.2,2-0.1,3,0.3c0.8,0.3,1.4,0.7,2,1.3c0.5,0.5,0.9,1.2,1.1,1.9
																l0.1,0.2l0.2-0.1c0.9-0.4,2-0.4,2.8-0.2c0.8,0.3,1.4,0.8,1.8,1.3c0.8,1.1,0.7,1.9,0.8,1.9c0,0,0-0.2,0-0.6
																c0-0.4-0.2-0.9-0.6-1.5c-0.4-0.6-1-1.2-1.9-1.5c-0.9-0.3-2-0.4-3.1,0.1l0.3,0.1c-0.2-0.7-0.6-1.4-1.2-2
																c-0.6-0.6-1.3-1.1-2.1-1.4c-1-0.4-2.2-0.5-3.1-0.3c-1,0.2-1.9,0.6-2.6,1.1c-1.5,1-2.3,2.4-2.7,3.4l0.2,0
																c-0.5-0.5-1-0.6-1.3-0.7C284.5,35.7,284.4,35.7,284.4,35.7z"/>
														</g>
													</g>
												</g>
											</g>
										</g>
									</g>
								</g>
							</g>
						</g>
					</g>
				</g>
			</g>
			<g>
				<g>
					<path class="st2" d="M295.4,197.5c0.9,0.1,4.1,1.2,8.2-6.4c4.1-7.6,8-35.6,8-35.6L295.4,197.5z"/>
				</g>
				<g>
					<g>
						<g>
							<path class="st2" d="M313.1,144.6l0.5-27.1l-5.4-20.8c0,0-3.8-6-8-9c-4.9-3.6-9-4.4-9-4.4l-6.2-1.5l-0.7,5.2l18.1,20.8
								L313.1,144.6z"/>
						</g>
					</g>
					<g>
						<g>
							<path class="st3" d="M284.3,83.6c0,0,14.9,1.3,22.1,19.3c3.9,9.7,6.2,35.7,6.7,39.7c0.4,4-1.1,13.4-3.8,25.9
								c-0.5,2.4-2.5,8.8-7.8,24.4c-5.7,16.6-10.2,28.9-10.2,28.9l-47.7-18.5l23.7-41.6c0,0-1.3-12.8-1.2-14.1
								c0.4-9.5-1.4-14.9,1.8-33.2c0.9-5.5,2.8-10.7,5.7-15.5c3-5.1,5.2-6.6,10.3-10.4L284.3,83.6z"/>
						</g>
					</g>
					<g>
						<g>
							<g>
								<polygon class="st3" points="289.4,197.4 290.7,187.3 267.9,178.1 263.8,187.7 								"/>
							</g>
						</g>
						<g>
							<g>
								<g>
									<path class="st5" d="M289.4,197.4c0,0-0.2-0.1-0.5-0.2c-0.4-0.1-0.9-0.3-1.4-0.6c-1.3-0.5-3.1-1.2-5.4-2.1
										c-4.6-1.8-10.9-4.2-18.2-7l0.1,0.3c1.1-2.6,2.3-5.3,3.5-8.1c0.2-0.5,0.4-1,0.6-1.5l-0.3,0.1c8.9,3.6,17,6.8,22.8,9.2
										l-0.1-0.2c-0.3,3.1-0.6,5.6-0.8,7.3c-0.1,0.8-0.2,1.5-0.2,2C289.4,197.1,289.4,197.4,289.4,197.4c0,0,0-0.2,0.1-0.7
										c0.1-0.5,0.2-1.2,0.3-2c0.3-1.8,0.6-4.3,1-7.4l0-0.1l-0.1,0c-5.8-2.4-13.8-5.7-22.7-9.3l-0.2-0.1l-0.1,0.2
										c-0.2,0.5-0.4,1-0.6,1.5c-1.2,2.8-2.4,5.6-3.5,8.2l-0.1,0.2l0.2,0.1c7.4,2.7,13.8,5.1,18.5,6.8c2.2,0.8,4,1.5,5.3,1.9
										c0.6,0.2,1,0.4,1.4,0.5C289.2,197.4,289.4,197.4,289.4,197.4z"/>
								</g>
							</g>
						</g>
					</g>
					<g>
						<g>
							<path class="st5" d="M308.3,171.9c0,0,0,0.1-0.1,0.3c-0.1,0.2-0.1,0.4-0.2,0.8c-0.2,0.7-0.5,1.7-0.9,2.9
								c-0.9,2.5-2,6.1-3.5,10.6c-3,8.9-7.2,21.2-11.8,34.8c-0.1,0.3-0.2,0.5-0.3,0.7l-0.1,0.3l-0.2-0.1
								c-13.2-5.1-25.1-9.8-33.8-13.1c-4.3-1.7-7.7-3.1-10.2-4c-1.2-0.5-2.1-0.9-2.7-1.1c-0.3-0.1-0.5-0.2-0.7-0.3
								c-0.2-0.1-0.2-0.1-0.2-0.1s0.1,0,0.3,0.1c0.2,0.1,0.4,0.1,0.7,0.3c0.7,0.2,1.6,0.6,2.8,1c2.5,0.9,5.9,2.2,10.2,3.9
								c8.7,3.3,20.6,7.9,33.8,13l-0.3,0.2c0.1-0.2,0.2-0.5,0.3-0.7c4.7-13.6,8.9-25.8,11.9-34.7c1.5-4.4,2.8-8,3.7-10.5
								c0.4-1.2,0.8-2.2,1-2.8c0.1-0.3,0.2-0.5,0.3-0.7C308.2,172,308.3,171.9,308.3,171.9z"/>
						</g>
					</g>
				</g>
				<g>
					<g>
						<g>
							<g>
								<path class="st5" d="M238.1,225.1c0,0,5.7-18.4,10.4-19.6c4.8-1.3,11.1-1.4,12.3,1.7c1.1,3.1,2,7.7,1.8,12.3
									c-0.2,4.6-1.9,11.4-1.9,11.4l-4.9-1.5c0,0,3.8-18.7,2.8-21.7c-1-3.1-9.1-2.3-10.6,0.9s-6.2,17.8-6.2,17.8L238.1,225.1z"/>
							</g>
						</g>
					</g>
					<g>
						<g>
							<g>
								<g>
									<path class="st5" d="M215.6,248.2c1.7-7.7,5.7-24.6,7.5-32.1c0.5-2,2.5-3.3,4.5-2.9l46,9.1c2.1,0.4,3.4,2.4,3.1,4.4
										l-5.2,32c-0.4,2.2-2.4,3.6-4.5,3.2l-48.3-9.1C216.5,252.5,215.1,250.4,215.6,248.2z"/>
								</g>
							</g>
						</g>
						<g>
							<g>
								<g>
									<g>
										<path class="st3" d="M272,234.1c0,0,0,0.1,0,0.3c0,0.2-0.1,0.6-0.2,1c-0.2,0.9-0.4,2.2-0.8,4c-0.7,3.5-1.7,8.5-2.9,14.7
											c-0.1,0.4-0.2,0.8-0.2,1.2c-0.1,0.4-0.2,0.8-0.5,1.2s-0.7,0.6-1.1,0.7c-0.4,0.1-0.9,0-1.3,0c-1.7-0.3-3.5-0.7-5.3-1
											c-3.6-0.7-7.5-1.5-11.6-2.2c-4.1-0.8-8.4-1.6-12.8-2.5c-2.2-0.4-4.5-0.9-6.8-1.3c-1.2-0.2-2.3-0.4-3.5-0.7l-0.9-0.2
											c-0.3-0.1-0.6-0.1-0.9-0.2c-0.6-0.3-1.1-0.8-1.2-1.4c-0.1-0.3-0.1-0.6,0-0.8c0-0.3,0.1-0.5,0.2-0.8c0.1-0.5,0.2-1,0.3-1.5
											c0.2-1,0.4-2,0.6-3c0.4-2,0.8-3.9,1.3-5.8c0.8-3.8,1.6-7.5,2.4-11.1l0-0.2l0.2,0c13.1,3.3,24.4,5.7,32.4,7.3
											c4,0.8,7.2,1.4,9.4,1.8c1.1,0.2,1.9,0.4,2.5,0.5c0.3,0,0.5,0.1,0.6,0.1C271.9,234.1,272,234.1,272,234.1s-0.1,0-0.2,0
											c-0.2,0-0.4,0-0.7-0.1c-0.6-0.1-1.4-0.2-2.5-0.4c-2.2-0.4-5.4-0.9-9.4-1.7c-8-1.5-19.4-3.9-32.5-7.2l0.2-0.1
											c-0.8,3.5-1.5,7.2-2.4,11.1c-0.4,1.9-0.8,3.9-1.3,5.8c-0.2,1-0.4,2-0.6,3c-0.1,0.5-0.2,1-0.3,1.5c-0.1,0.5-0.3,1-0.1,1.4
											c0.1,0.5,0.5,1,1,1.2c0.2,0.1,0.5,0.1,0.8,0.2l0.9,0.2c1.2,0.2,2.3,0.4,3.5,0.7c2.3,0.4,4.6,0.9,6.8,1.3
											c4.4,0.9,8.7,1.7,12.8,2.5c4.1,0.8,8,1.6,11.6,2.3c1.8,0.4,3.6,0.7,5.3,1c0.4,0.1,0.8,0.2,1.2,0.1c0.4-0.1,0.7-0.3,1-0.6
											c0.3-0.3,0.4-0.6,0.4-1c0.1-0.4,0.2-0.8,0.2-1.2c1.3-6.2,2.3-11.1,3-14.6c0.4-1.7,0.6-3.1,0.8-4c0.1-0.4,0.2-0.8,0.2-1
											C271.9,234.3,272,234.1,272,234.1z"/>
									</g>
								</g>
							</g>
						</g>
						<g>
							<g>
								<g>
									<g>
										<path class="st3" d="M254.8,252c0,0,0.3,0,0.8,0c0.5,0,1.3-0.1,2.2-0.7c0.9-0.6,1.6-1.7,1.8-3.1c0.3-1.4,0.6-3.1,1-4.9
											c0.2-0.9,0.4-1.9,0.6-2.8c0.3-1,0.2-2-0.3-3c-0.5-0.9-1.4-1.7-2.5-2c-1.1-0.2-2.3-0.5-3.5-0.7c-4.8-1-10.1-2-15.6-3.1
											c-1.3-0.3-2.8,0.2-3.6,1.2c-0.4,0.5-0.8,1.1-0.9,1.7c-0.1,0.7-0.3,1.3-0.4,2c-0.3,1.3-0.5,2.6-0.8,3.8
											c-0.1,0.6-0.3,1.3-0.4,1.9c-0.1,0.6-0.3,1.2-0.3,1.8c-0.1,1.2,0.4,2.3,1.3,3.1c0.4,0.4,0.9,0.7,1.4,0.8
											c0.5,0.2,1.1,0.2,1.6,0.4c2.1,0.4,4.1,0.9,5.9,1.2c3.6,0.8,6.5,1.3,8.6,1.8c1,0.2,1.8,0.4,2.3,0.5c0.3,0,0.4,0.1,0.6,0.1
											C254.7,252,254.8,252,254.8,252s-0.1,0-0.2,0c-0.2,0-0.4-0.1-0.6-0.1c-0.6-0.1-1.3-0.3-2.3-0.4c-2.1-0.4-5-1-8.6-1.7
											c-1.8-0.4-3.8-0.8-5.9-1.2c-0.5-0.1-1.1-0.2-1.6-0.4c-0.5-0.2-1.1-0.5-1.5-0.9c-0.9-0.8-1.5-2-1.4-3.3
											c0-0.6,0.2-1.2,0.3-1.8c0.1-0.6,0.2-1.2,0.4-1.9c0.3-1.3,0.5-2.5,0.8-3.9c0.1-0.7,0.3-1.3,0.4-2c0.2-0.7,0.5-1.3,1-1.9
											c0.9-1.1,2.5-1.6,4-1.3c5.5,1.1,10.8,2.2,15.6,3.1c1.2,0.3,2.4,0.5,3.5,0.7c1.2,0.3,2.1,1.1,2.6,2.2
											c0.5,1,0.5,2.2,0.3,3.1c-0.2,1-0.4,1.9-0.6,2.8c-0.4,1.8-0.7,3.5-1,4.9c-0.1,0.4-0.1,0.7-0.2,1c-0.1,0.3-0.2,0.6-0.4,0.9
											c-0.3,0.5-0.8,1-1.2,1.3c-0.9,0.6-1.8,0.7-2.3,0.7C255.1,252.1,254.8,252,254.8,252z"/>
									</g>
								</g>
							</g>
						</g>
						<g class="st6">
							<g>
								<g>
									<g>
										<path d="M222.9,248.8c12.8,6.8,27.7,9.7,42.1,8.2L222.9,248.8z"/>
									</g>
								</g>
							</g>
						</g>
						<g>
							<g>
								<g>
									<path class="st2" d="M251.8,239.2l-5.4-1.1c-0.9-0.2-1.4-1-1.2-1.8l0,0c0.2-0.9,1-1.4,1.8-1.2l5.4,1.1
										c0.9,0.2,1.4,1,1.2,1.8l0,0C253.5,238.8,252.7,239.4,251.8,239.2z"/>
								</g>
							</g>
						</g>
					</g>
					<g>
						<g>
							<g>
								<g>
									<path class="st7" d="M260.4,201.4c0,0,1.4,2.2,1.7,3.5c0.3,1.3,0.1,6.6,0.1,6.6s-1.1,0.6-2.1-2.5s-1-4.5-1-4.5L260.4,201.4
										z"/>
								</g>
							</g>
						</g>
						<g>
							<g>
								<g>
									<path class="st7" d="M260.3,211.1l0.2-9.6l-3.7-7.1l-11.8-0.2l-0.4,11.7c0,0,1.7,5,2.6,5.9s2.5,0.2,2.5,0.2
										c0.9,1.4,3.3,0.9,3.3,0.9c1.2,1.4,3.1,0.1,3.1,0.1s1.6,1.5,2.4,1.4c0.3,0,0.5-0.2,0.8-0.5
										C259.9,213.1,260.3,212.1,260.3,211.1z"/>
								</g>
							</g>
						</g>
						<g>
							<g>
								<g>
									<g>
										<path class="st8" d="M248.8,209.5c0.1,0,0.4,0.5,0.6,1.2c0.2,0.7,0.3,1.3,0.2,1.3c-0.1,0-0.4-0.5-0.6-1.2
											C248.7,210.1,248.6,209.5,248.8,209.5z"/>
									</g>
								</g>
							</g>
						</g>
						<g>
							<g>
								<g>
									<g>
										<path class="st8" d="M251.8,209.4c0.1,0,0.3,0.8,0.6,1.8c0.3,1,0.6,1.8,0.4,1.8c-0.1,0-0.6-0.7-0.9-1.7
											C251.7,210.2,251.7,209.4,251.8,209.4z"/>
									</g>
								</g>
							</g>
						</g>
						<g>
							<g>
								<g>
									<g>
										<path class="st8" d="M255.3,209.7c0.1,0,0.2,0.7,0.4,1.6c0.2,0.9,0.3,1.6,0.2,1.7c-0.1,0-0.5-0.6-0.6-1.6
											C255.1,210.4,255.2,209.7,255.3,209.7z"/>
									</g>
								</g>
							</g>
						</g>
						<g>
							<g>
								<g>
									<g>
										<path class="st8" d="M260.4,204.5c0.1,0,0.2,1.6,0.2,3.7c0,2-0.1,3.6-0.3,3.6s-0.2-1.6-0.2-3.7
											C260.2,206.2,260.3,204.5,260.4,204.5z"/>
									</g>
								</g>
							</g>
						</g>
						<g>
							<g>
								<g>
									<g>
										<path class="st8" d="M248.6,207.6c0,0,0,0.2-0.3,0.3s-0.5,0.2-0.9,0.1c-0.4-0.1-0.7-0.3-0.8-0.5s-0.2-0.4-0.1-0.4
											c0.1-0.1,0.4,0.4,1,0.5C248,207.7,248.5,207.5,248.6,207.6z"/>
									</g>
								</g>
							</g>
						</g>
						<g>
							<g>
								<g>
									<g>
										<path class="st8" d="M252.1,208.2c0,0-0.1,0.2-0.3,0.3c-0.2,0.1-0.6,0.2-1,0.1c-0.4-0.1-0.7-0.3-0.9-0.5s-0.2-0.4-0.2-0.4
											c0.1-0.1,0.5,0.3,1.1,0.4C251.6,208.3,252.1,208,252.1,208.2z"/>
									</g>
								</g>
							</g>
						</g>
						<g>
							<g>
								<g>
									<g>
										<path class="st8" d="M258.9,207.5c0,0,0.3,0.3,0,0.7c-0.3,0.4-0.8,0.6-1.4,0.7c-0.6,0-1.2-0.1-1.5-0.4
											c-0.4-0.2-0.5-0.4-0.4-0.5c0.1-0.1,0.8,0.5,1.9,0.4c0.5,0,1-0.3,1.3-0.4C258.9,207.7,258.9,207.5,258.9,207.5z"/>
									</g>
								</g>
							</g>
						</g>
					</g>
				</g>
				<g>
					<g>
						<g>
							<g>
								<path class="st3" d="M295.6,117c-4.6,4.8-33.3,33-33.3,33s-1.7,45.5-2.5,45.7s-17.3-1.2-17.3-1.2s-2.3-48.2-0.4-53.7
									c1.9-5.5,26.5-37.7,27-38.3c0.5-0.7,3.3-5.6,12.7-8c11-2.8,15.6,2.4,17.5,7.9c1.6,4.7-1.4,11.9-2.9,13.8
									C296.1,116.4,295.8,116.7,295.6,117z"/>
							</g>
							<g>
								<g>
									<path class="st5" d="M295.6,117c0,0,0.1-0.2,0.4-0.5c0.3-0.3,0.7-0.9,1.1-1.7c0.8-1.6,1.8-4,2.3-7.2
										c0.2-1.6,0.3-3.5-0.4-5.4c-0.7-1.9-1.8-3.9-3.5-5.5c-0.9-0.8-1.9-1.4-3.1-1.9c-1.1-0.5-2.4-0.7-3.7-0.9
										c-2.6-0.2-5.5,0.3-8.3,1.1c-2.8,0.9-5.7,2.2-8.2,4.2c-1.3,1-2.3,2.2-3.3,3.6c-1,1.3-2.1,2.7-3.1,4.1
										c-4.2,5.6-8.7,11.6-13.2,18c-2.3,3.2-4.6,6.5-6.9,9.9c-1.1,1.7-2.3,3.5-3.2,5.3c-0.1,0.2-0.2,0.5-0.3,0.7l-0.1,0.8
										c-0.1,0.5-0.2,1-0.2,1.5l-0.1,1.6l-0.1,1.6c-0.3,8.5,0,17.4,0.2,26.5c0.2,7.4,0.5,14.6,0.8,21.6l-0.2-0.2
										c3,0.2,5.9,0.5,8.8,0.7c1.5,0.1,2.9,0.2,4.4,0.3c0.7,0,1.4,0.1,2.2,0.1l1.1,0h0.5h0.2c0,0,0.1,0,0,0c0,0.1,0,0,0,0
										c0.3-1.3,0.3-2.8,0.4-4.1c0.1-1.4,0.2-2.8,0.3-4.1c0.1-2.7,0.3-5.4,0.4-8.1c0.5-10.6,0.9-20.4,1.3-29.1v-0.1l0,0
										c10.3-10.1,18.6-18.3,24.4-24c2.9-2.8,5.1-5,6.7-6.6c0.8-0.7,1.3-1.3,1.8-1.7C295.3,117.2,295.6,117,295.6,117
										s-0.2,0.2-0.6,0.6c-0.4,0.4-1,1-1.7,1.7c-1.5,1.5-3.8,3.8-6.6,6.6c-5.8,5.7-14.1,14-24.3,24.2l0-0.1
										c-0.3,8.7-0.7,18.5-1.2,29.1c-0.1,2.6-0.3,5.3-0.4,8.1c-0.1,1.4-0.2,2.8-0.3,4.2c-0.1,1.4-0.2,2.8-0.5,4.3
										c0,0.1,0,0.1-0.1,0.2c-0.1,0.1-0.2,0.1-0.2,0.1h-0.1l-0.3,0h-0.5l-1.1,0c-0.7,0-1.4-0.1-2.2-0.1c-1.4-0.1-2.9-0.2-4.4-0.3
										c-2.9-0.2-5.9-0.4-8.9-0.7l-0.2,0v-0.2c-0.3-7-0.6-14.2-0.8-21.6c-0.2-9.1-0.5-18-0.2-26.5l0.1-1.6l0.1-1.6
										c0-0.5,0.1-1.1,0.2-1.6l0.2-0.8c0.1-0.3,0.2-0.5,0.3-0.7c0.9-1.9,2.1-3.7,3.2-5.4c2.3-3.5,4.6-6.7,6.9-9.9
										c4.6-6.4,9.1-12.4,13.3-18c1.1-1.4,2.1-2.8,3.1-4.1c0.5-0.7,1-1.4,1.6-2c0.6-0.6,1.2-1.2,1.8-1.7c2.6-2.1,5.5-3.4,8.4-4.2
										c2.9-0.8,5.7-1.3,8.4-1.1c1.3,0.2,2.6,0.4,3.8,0.9c1.2,0.5,2.2,1.2,3.1,2c1.8,1.6,2.8,3.7,3.5,5.6c0.7,2,0.6,3.9,0.3,5.5
										c-0.5,3.3-1.6,5.7-2.4,7.3c-0.4,0.8-0.8,1.3-1.1,1.7C295.7,116.8,295.6,117,295.6,117z"/>
								</g>
							</g>
						</g>
					</g>
				</g>
				<g>
					<g>
						<path class="st5" d="M311.8,137.8c0,0-0.1-0.2-0.2-0.5c-0.1-0.4-0.3-0.9-0.5-1.6c-0.4-1.4-1-3.4-1.7-5.9
							c-1.4-5.1-3.3-12-5.5-19.8l0-0.1l0.1-0.1c0.5-0.8,1.1-1.7,1.7-2.6l0.4-0.7l0.2,0.4c-1.1-0.1-2.2-0.2-3.2-0.3l-0.2,0l0-0.2
							c-0.6-1.9-1.3-3.7-2-5.3c-0.7-1.7-1.5-3.3-2.5-4.6c-1-1.3-2.4-2.1-3.6-2.9c-1.3-0.7-2.5-1.3-3.6-1.9c-2.3-1.1-4.1-1.8-5.4-2.4
							c-0.6-0.3-1.1-0.4-1.5-0.6c-0.3-0.1-0.5-0.2-0.5-0.2s0.2,0,0.5,0.1c0.4,0.1,0.9,0.3,1.5,0.5c1.3,0.5,3.2,1.2,5.5,2.2
							c1.1,0.5,2.4,1.1,3.7,1.8c1.3,0.7,2.7,1.5,3.8,2.9c1,1.4,1.8,3,2.6,4.7c0.8,1.7,1.4,3.5,2,5.4l-0.2-0.2c1,0.1,2.1,0.2,3.2,0.3
							l0.4,0l-0.2,0.4l-0.4,0.7c-0.6,0.9-1.2,1.8-1.7,2.6l0-0.2c2.1,7.8,4,14.8,5.3,19.8c0.6,2.5,1.2,4.5,1.5,5.9
							c0.2,0.7,0.3,1.2,0.4,1.6C311.8,137.6,311.9,137.8,311.8,137.8z"/>
					</g>
				</g>
				<g>
					<g>
						<path class="st4" d="M308.5,108.8c-5.6,3.3-10.2,3.3-19.6,2.5c-6.5-0.5-12.2-2.4-18.8-2.6c-9.4-0.3-16.5,2.6-25.1,6.5
							l-6.3,7.5l11.9,3.6c0,0,11.4-6.5,26-5.7c14.6,0.8,28.2-3.2,33-6.9l1.7-4.6l-0.6-2.4l-2-0.2L308.5,108.8z"/>
					</g>
					<g>
						<g>
							<path class="st3" d="M308.5,108.8c0,0,0-0.2,0-0.6c0-0.4,0.1-1,0.1-1.7v-0.1h0.1c0.6,0,1.2,0.1,2,0.2h0l0,0
								c0.2,0.7,0.4,1.5,0.6,2.4v0v0c-0.5,1.3-1,2.9-1.6,4.6l0,0l0,0c-1.3,1-2.9,1.8-4.6,2.5c-1.8,0.7-3.7,1.4-5.7,2
								c-4.2,1.2-8.9,2-14.1,2.4c-2.6,0.2-5.3,0.2-8.2,0.1c-2.8-0.1-5.7-0.1-8.6,0.3c-2.9,0.3-5.9,1-8.9,1.8c-3,0.9-6,2-8.8,3.5
								l-0.1,0l-0.1,0c-2.2-0.7-4.6-1.4-7-2.1c-1.7-0.5-3.3-1-4.9-1.5l-0.4-0.1l0.2-0.3c2.2-2.6,4.3-5,6.3-7.5l0,0l0,0
								c4.2-1.9,8.4-3.7,12.6-4.9c4.2-1.2,8.4-1.7,12.3-1.6c4,0.1,7.6,0.8,11,1.5c3.4,0.7,6.6,1.1,9.5,1.3c2.9,0.2,5.5,0.4,7.8,0.3
								c2.3,0,4.2-0.4,5.8-0.9c1.5-0.4,2.6-1,3.4-1.4c0.4-0.2,0.6-0.3,0.8-0.4C308.4,108.9,308.5,108.8,308.5,108.8
								s-0.1,0.1-0.3,0.2c-0.2,0.1-0.4,0.3-0.8,0.5c-0.7,0.4-1.9,1-3.4,1.4c-1.5,0.5-3.5,0.9-5.8,0.9c-2.3,0.1-4.9,0-7.9-0.3
								c-2.9-0.2-6.1-0.6-9.5-1.3c-3.4-0.6-7-1.3-11-1.4c-3.9-0.1-8,0.4-12.2,1.6c-4.1,1.2-8.3,3-12.5,4.9l0.1-0.1
								c-2.1,2.4-4.2,4.9-6.3,7.5l-0.1-0.4c1.6,0.5,3.3,1,4.9,1.5c2.4,0.7,4.7,1.4,7,2.1l-0.2,0c2.9-1.5,5.9-2.7,8.9-3.6
								c3-0.9,6-1.5,9-1.8c3-0.4,5.9-0.4,8.7-0.2c2.8,0.1,5.5,0.1,8.1-0.1c5.2-0.3,9.9-1.2,14.1-2.3c2.1-0.5,4-1.2,5.7-1.9
								c1.7-0.7,3.3-1.5,4.6-2.5l0,0.1c0.6-1.7,1.2-3.3,1.7-4.6v0.1c-0.2-0.9-0.4-1.7-0.6-2.4l0.1,0.1c-0.8-0.1-1.4-0.1-2-0.2l0.1,0
								c-0.1,0.8-0.2,1.3-0.2,1.8C308.5,108.6,308.5,108.8,308.5,108.8z"/>
						</g>
					</g>
				</g>
			</g>
		</g>
		<g>
			<g>
				<path class="st5" d="M286.3,169.4c0,0.1-4.3-1.3-9.6-3.2c-5.3-1.9-9.5-3.5-9.4-3.6c0-0.1,4.3,1.3,9.6,3.2
					C282.1,167.6,286.3,169.2,286.3,169.4z"/>
			</g>
		</g>
	</g>
</g>
</svg>
