<?xml version="1.0" encoding="utf-8"?>
<!-- Generator: Adobe Illustrator 27.8.0, SVG Export Plug-In . SVG Version: 6.00 Build 0)  -->
<svg version="1.1" id="Camada_1" xmlns="http://www.w3.org/2000/svg" xmlns:xlink="http://www.w3.org/1999/xlink" x="0px" y="0px"
	 viewBox="0 0 100 100.1" style="enable-background:new 0 0 100 100.1;" xml:space="preserve">
<style type="text/css">
	.st0{fill:#F7F7F7;}
	.st1{fill:#1A2E35;}
	.st2{fill:#FFC19D;}
	.st3{fill:#FF9C6A;}
	.st4{fill:#375A64;}
	.st5{opacity:0.5;fill:#FFFFFF;}
	.st6{fill:#FFFFFF;}
	.st7{fill:#EA505E;}
	.st8{opacity:0.3;fill:#FFFFFF;}
</style>
<rect y="0" class="st0" width="100" height="100"/>
<g>
	<g>
		<g>
			<path class="st1" d="M59,14.1c2.8,2.3,4.3,6,3.9,9.6c-0.2,1.7-0.7,3.7,0.4,5.1c1.1,1.4,3.3,1.4,4.3,2.8c1.2,1.6,0.1,4,0.5,6
				c0.4,1.9,2.3,3.3,4.2,3.1c-2.3,1.8-5,2.9-7.9,3.2c-0.7-1-1.4-1.9-2.1-2.9c0.8,1,0.5,2.6-0.3,3.5c-0.8,1-2.1,1.5-3.3,1.8
				C52.8,48,46.1,46.8,41.2,43"/>
			<path class="st1" d="M25.8,28.6c0.5-1.3,1.2-2.5,1.6-3.9c0.7-2.9-0.6-6.3,0.9-8.9c1.1-1.9,3.3-2.7,5.4-3.3c2.1-0.6,4.3-1,5.9-2.5
				c1.2-1.1,1.8-2.6,3-3.7c1.6-1.5,4-2,6.3-2.1c2.3-0.1,4.7,0.2,6.7,1.3c2,1.1,3.7,3,4,5.3c0.1,1.1,0,2.3,0.3,3.4
				c0.4,1.2,1.3,2.1,1.8,3.2c1.1,2.4,0.4,5.5-1.7,7.1l-16.4,20c-3.4,1.2-11.4-0.6-13.9-3.1C27.1,38.8,24.6,31.9,25.8,28.6z"/>
			<path class="st2" d="M59.5,21.8c-0.5-4.7-3.9-10.2-8.5-9.5l-14.4,4.4c-1.4,0.2-2.4,1.5-2.3,2.9l3.2,33.7c0,0-1.1,0.8-1.8,0.6
				c-0.2-0.1-0.3,0.1-0.2,0.3c1.6,2.5,9.4,13.6,17.8,10.5c1.9-0.7,0-6.6,0.3-8.8l-0.1-5.5c-0.1-2.8-0.2-4-0.2-4c0,0,5.9-1.3,6.8-9.1
				C60.6,33.4,60.1,27,59.5,21.8z"/>
			<g>
				<g>
					<g>
						<g>
							<g>
								<g>
									<g>
										<g>
											<g>
												<g>
													<g>
														<g>
															<g>
																<path class="st1" d="M57.5,28.9c0,0.5-0.4,1-0.9,1.1c-0.5,0.1-1-0.3-1.1-0.9c0-0.5,0.4-1,0.9-1.1
																	C57,28,57.5,28.4,57.5,28.9z"/>
															</g>
														</g>
													</g>
												</g>
											</g>
										</g>
									</g>
								</g>
							</g>
						</g>
					</g>
				</g>
			</g>
			<g>
				<g>
					<g>
						<g>
							<g>
								<g>
									<g>
										<g>
											<g>
												<g>
													<g>
														<g>
															<g>
																<path class="st1" d="M47.6,29.3c0,0.5-0.4,1-0.9,1.1c-0.5,0.1-1-0.3-1.1-0.9c0-0.5,0.4-1,0.9-1.1
																	C47.1,28.3,47.6,28.7,47.6,29.3z"/>
															</g>
														</g>
													</g>
												</g>
											</g>
										</g>
									</g>
								</g>
							</g>
						</g>
					</g>
				</g>
			</g>
			<g>
				<g>
					<g>
						<g>
							<g>
								<g>
									<g>
										<g>
											<g>
												<g>
													<g>
														<g>
															<g>
																<g>
																	<path class="st1" d="M58.8,25.7c-0.1,0.2-1-0.4-2.2-0.3c-1.2,0.1-1.9,0.9-2.1,0.8c-0.1-0.1,0-0.4,0.4-0.7
																		c0.3-0.4,0.9-0.7,1.6-0.8c0.7-0.1,1.4,0.2,1.8,0.4C58.7,25.3,58.8,25.6,58.8,25.7z"/>
																</g>
															</g>
														</g>
													</g>
												</g>
											</g>
										</g>
									</g>
								</g>
							</g>
						</g>
					</g>
				</g>
			</g>
			<g>
				<g>
					<g>
						<g>
							<g>
								<g>
									<g>
										<g>
											<g>
												<g>
													<g>
														<g>
															<g>
																<g>
																	<path class="st1" d="M48.3,26.2c-0.1,0.2-1-0.5-2.3-0.5c-1.3,0-2.2,0.7-2.3,0.5c-0.1-0.1,0.1-0.4,0.5-0.7
																		c0.4-0.3,1.1-0.6,1.8-0.6c0.8,0,1.4,0.3,1.8,0.6C48.3,25.9,48.4,26.2,48.3,26.2z"/>
																</g>
															</g>
														</g>
													</g>
												</g>
											</g>
										</g>
									</g>
								</g>
							</g>
						</g>
					</g>
				</g>
			</g>
			<g>
				<g>
					<g>
						<g>
							<g>
								<g>
									<g>
										<g>
											<g>
												<g>
													<g>
														<g>
															<g>
																<g>
																	<path class="st1" d="M52,33.7c0-0.1,0.7-0.2,1.7-0.4c0.3,0,0.5-0.1,0.6-0.3c0.1-0.2-0.1-0.5-0.2-0.8
																		c-0.3-0.7-0.6-1.3-0.9-2.1c-1.3-2.9-2.2-5.3-2.1-5.4c0.1-0.1,1.2,2.3,2.5,5.2c0.3,0.7,0.6,1.4,0.9,2.1
																		c0.1,0.3,0.3,0.7,0.2,1.1c-0.1,0.2-0.3,0.4-0.4,0.4c-0.2,0.1-0.3,0.1-0.5,0.1C52.7,33.7,52,33.8,52,33.7z"/>
																</g>
															</g>
														</g>
													</g>
												</g>
											</g>
										</g>
									</g>
								</g>
							</g>
						</g>
					</g>
				</g>
			</g>
			<g>
				<g>
					<g>
						<g>
							<g>
								<g>
									<g>
										<g>
											<g>
												<g>
													<g>
														<g>
															<g>
																<path class="st3" d="M53.4,46.4c0,0-5.2,0.6-10.6-2.3c0,0,2.9,5.3,10.7,4.2L53.4,46.4z"/>
															</g>
														</g>
													</g>
												</g>
											</g>
										</g>
									</g>
								</g>
							</g>
						</g>
					</g>
				</g>
			</g>
			<path class="st3" d="M48.7,36.7c0.2-0.2,0.3-0.5,0.6-0.6c0.3-0.2,0.6-0.1,0.9-0.1c0.5,0.1,0.9,0.3,1.2,0.7
				c0.3,0.4,0.4,0.9,0.3,1.3l0,0c-0.1,0.4-0.8,0.7-1.3,0.7c-0.5,0.1-0.9-0.1-1.3-0.3c-0.3-0.2-0.7-0.5-0.7-0.9
				C48.4,37.2,48.5,37,48.7,36.7z"/>
			<g>
				<g>
					<g>
						<g>
							<g>
								<g>
									<g>
										<g>
											<g>
												<g>
													<g>
														<g>
															<g>
																<g>
																	<path class="st1" d="M48.9,35.2c0.2,0,0.2,1.1,1.3,1.9c1,0.8,2.3,0.6,2.3,0.8c0,0.1-0.3,0.2-0.8,0.3
																		c-0.5,0-1.3-0.1-1.9-0.6c-0.6-0.5-0.9-1.1-1-1.6C48.7,35.5,48.9,35.2,48.9,35.2z"/>
																</g>
															</g>
														</g>
													</g>
												</g>
											</g>
										</g>
									</g>
								</g>
							</g>
						</g>
					</g>
				</g>
			</g>
			<g>
				<g>
					<g>
						<g>
							<g>
								<g>
									<g>
										<g>
											<g>
												<g>
													<path class="st1" d="M48.4,22c-0.1,0.3-1.2,0.2-2.4,0.4c-1.3,0.2-2.3,0.6-2.4,0.4c-0.1-0.1,0.1-0.4,0.5-0.7
														c0.4-0.3,1-0.6,1.8-0.7c0.8-0.1,1.5,0,1.9,0.1C48.2,21.7,48.4,21.9,48.4,22z"/>
												</g>
											</g>
										</g>
									</g>
								</g>
							</g>
						</g>
					</g>
				</g>
			</g>
			<g>
				<g>
					<g>
						<g>
							<g>
								<g>
									<g>
										<g>
											<g>
												<g>
													<path class="st1" d="M58.2,21.7c-0.2,0.3-1.1,0-2.1,0.1c-1,0-1.9,0.3-2.1,0c-0.1-0.1,0-0.4,0.4-0.6
														c0.4-0.2,1-0.5,1.7-0.5c0.7,0,1.3,0.2,1.7,0.4C58.2,21.4,58.3,21.6,58.2,21.7z"/>
												</g>
											</g>
										</g>
									</g>
								</g>
							</g>
						</g>
					</g>
				</g>
			</g>
			<path class="st1" d="M33.5,17.7c0.7-1.1,2.1-1.6,3.3-2.1c5.4-1.9,10.9-3.2,16.6-3.7c0.7,1.2,0,2.7-1.1,3.5
				c-1.1,0.8-2.5,1.1-3.7,1.5c-1.3,0.4-2.6,1.1-3.2,2.4c-0.6,1.3-0.2,2.9-0.7,4.2c-0.9,2.3-4.2,3-5.1,5.3c-0.7,1.7,0.3,3.7,0.5,5.5
				c0.2,2.1-0.6,4.3-2.2,5.7c-1.2,1.1-2.9,1.7-4.6,1.7c-0.2-6.7-0.4-13.4-0.6-20.1C32.7,20.4,32.7,18.9,33.5,17.7z"/>
			<path class="st1" d="M19.5,34.2c1.1-0.9,2.4-1.7,2.9-3c0.7-2-0.8-4.3,0.2-6.1c1-1.6,3.7-1.5,4.6-3.1c0.7-1.3,0-2.5,0.3-3.6
				c0.3-1.1,1.9-2.1,3.1-1.9L39.4,30c0.7,4.5,1.5,6.8,0.5,9.4c-0.6,1.4-1.3,2.8-1.5,4.3c-0.2,1.5,0.1,3.2,1.3,4.1
				c-5.5,0.3-10.5-2.7-15.2-5.6c-1.6-1-3.3-2-4.9-3.1c-0.5-0.3-1-0.7-1.3-1.2C17.5,36.7,18.4,35.1,19.5,34.2z"/>
			<path class="st4" d="M24.4,40.8c0,0,0.2,0.1,0.6,0.1c0.4,0,1,0.1,1.7-0.1c0.7-0.2,1.6-0.5,2.4-1.2c0.8-0.7,1.5-1.8,1.7-3.1
				c0.1-0.7,0.1-1.4-0.1-2.1c-0.2-0.7-0.6-1.4-1-2.1c-0.4-0.7-0.8-1.4-1-2.1c-0.2-0.8-0.2-1.7,0.4-2.3c0.5-0.7,1.4-0.8,2.3-1.1
				c0.4-0.2,0.9-0.4,1.2-0.8c0.3-0.4,0.4-0.9,0.4-1.4c0-1-0.4-1.9-0.5-2.9c-0.1-0.5-0.1-1,0-1.4c0.1-0.4,0.4-0.8,0.8-1.1
				c0.8-0.5,1.8-0.6,2.8-0.7c1,0,2-0.2,2.8-0.7c0.8-0.5,1.5-1.2,2-2c0.4-0.8,0.6-1.7,0.8-2.6c0.2-0.9,0.3-1.7,0.6-2.4
				c0.3-0.7,0.8-1.4,1.3-1.9c1.1-1,2.5-1.5,3.8-1.6c1.3-0.1,2.5,0.3,3.4,0.8c0.9,0.5,1.6,1.1,2.1,1.7c1,1.1,1.2,1.9,1.2,1.9
				c0,0,0-0.1,0-0.1c0-0.1-0.1-0.2-0.2-0.4c-0.2-0.4-0.5-0.9-0.9-1.4c-0.5-0.6-1.1-1.2-2.1-1.7C49.9,7.4,48.7,7,47.4,7
				c-1.3,0.1-2.8,0.6-4,1.6c-0.6,0.5-1.1,1.2-1.4,2c-0.3,0.8-0.5,1.6-0.6,2.5c-0.2,0.9-0.3,1.7-0.8,2.5c-0.4,0.8-1.1,1.4-1.9,1.9
				C37.9,18,37,18.2,36,18.2c-1,0.1-2,0.1-2.9,0.7c-0.4,0.3-0.8,0.7-0.9,1.3c-0.2,0.5-0.1,1,0,1.5c0.2,1,0.6,1.9,0.5,2.8
				c0,0.5-0.1,0.9-0.4,1.2c-0.3,0.3-0.6,0.6-1,0.7c-0.4,0.2-0.9,0.3-1.3,0.4c-0.4,0.2-0.9,0.4-1.1,0.8c-0.6,0.8-0.6,1.7-0.4,2.6
				c0.2,0.8,0.6,1.5,1,2.2c0.4,0.7,0.8,1.3,0.9,2c0.2,0.7,0.2,1.4,0.1,2c-0.2,1.3-0.8,2.4-1.5,3c-0.8,0.7-1.6,1.1-2.3,1.2
				C25.2,41.1,24.4,40.8,24.4,40.8z"/>
			<path class="st1" d="M74.8,36.1c-0.1,0,0.3,0.5-0.1,1.4c-0.2,0.4-0.5,0.9-1.2,1.1c-0.6,0.2-1.4,0-2-0.6c-0.3-0.3-0.4-0.7-0.4-1.2
				c0-0.4,0.1-0.9,0.2-1.4c0.3-0.9,0.9-1.9,0.9-3.1c0-1.2-0.6-2.4-1.6-3.2c-0.5-0.4-1.1-0.7-1.7-0.9c-0.6-0.2-1.3-0.3-1.9-0.3
				c-0.7-0.1-1.3-0.1-1.9-0.3c-0.6-0.2-1.1-0.5-1.4-1c-0.3-0.5-0.5-1.1-0.5-1.6c0-0.6,0.1-1.1,0.2-1.7c0.3-1.1,0.6-2.1,0.6-3.2
				c0-1-0.4-2-0.9-2.7c-0.5-0.7-1.2-1.2-1.7-1.6c-0.6-0.4-1-0.7-1.4-1c-0.7-0.6-0.8-1.2-0.9-1.2c0,0,0,0,0,0.1c0,0.1,0,0.2,0.1,0.3
				c0.1,0.2,0.3,0.6,0.7,0.9c0.3,0.3,0.8,0.7,1.4,1.1c0.5,0.4,1.2,0.8,1.7,1.5c0.5,0.7,0.8,1.6,0.8,2.6c0,1-0.3,2-0.6,3.1
				c-0.1,0.6-0.2,1.1-0.2,1.8c0,0.6,0.2,1.2,0.5,1.8c0.4,0.5,1,0.9,1.6,1.1c0.6,0.2,1.3,0.2,1.9,0.3c0.6,0.1,1.3,0.1,1.9,0.3
				c0.6,0.2,1.1,0.5,1.6,0.9c0.9,0.8,1.4,1.9,1.5,3c0.1,1.1-0.5,2.1-0.8,3c-0.2,0.5-0.3,1-0.2,1.5c0,0.5,0.2,1,0.5,1.3
				c0.6,0.7,1.5,0.8,2.2,0.6c0.7-0.2,1.1-0.8,1.2-1.2c0.2-0.5,0.1-0.9,0.1-1.1C74.9,36.2,74.8,36.1,74.8,36.1z"/>
		</g>
		<path class="st5" d="M40.7,8.4c0,0-0.3,0.4-1,1.3c-0.7,0.9-2.5,1.7-3.2,2c-0.7,0.3-3.4,0.9-4.6,1.3c-1.2,0.4-1.8,1-2.9,2
			c-1.1,0.9-1.2,2-1.6,3c-0.3,0.9,0.1,1.9,0.1,2.8c0,0.8-0.3,1.2-0.8,2s-2.7,1.3-3.7,1.9c-1,0.6-0.8,1.8-0.9,2.4
			c0,0.6,0.2,1.5,0.3,2.2c0.1,0.6,0.1,0.9,0,1.4c0,0.5-0.3,1-0.6,1.5c-0.3,0.5-1.5,1.5-1.5,1.5l-1,0.8c-1.1,0.9-1.9,2.4-1.2,3.6
			c0.3,0.5,0.8,0.9,1.3,1.2l0,0c0,0,2.2-0.9,3.8-4.2c0.9-1.8,1.3-3.7,1.3-6.9c0-2.7,3-2.6,4.1-4.6c1.9-3.6,0.1-5.3,2.5-7
			c2.8-2,3.9,0.3,8.6-4.3c3.5-3.5,3.9-5.2,8.3-6.7C52.6,3.9,57.5,7,57.5,7c-0.6-0.6-1.3-1.2-2.1-1.6c-2-1.1-4.4-1.4-6.7-1.3
			c-2.2,0.1-4.6,0.5-6.3,2.1c-0.4,0.3-0.7,0.7-1,1.1l-0.2,0.2"/>
		<path class="st5" d="M62.1,30.3c1.5,1.9,3.7,2.1,3.7,4.9c0,2.9,2.6,6.6,2.6,6.6v1c1.4-0.5,2.8-1.3,4-2.2c-1.9,0.2-3.8-1.2-4.2-3.1
			c-0.4-2,0.7-4.3-0.5-6c-1-1.4-3.2-1.4-4.3-2.8c-1.1-1.4-0.6-3.3-0.4-5.1c0.3-2.9-0.6-5.9-2.5-8.2c0,0,0,0,0-0.1
			c0.3,0.2,0.6,0.4,0.9,0.7c0.5,0.4,1.2,0.8,1.7,1.5c0.5,0.7,0.8,1.6,0.8,2.6c0,1-0.3,2-0.6,3.1c-0.1,0.6-0.2,1.1-0.2,1.8
			c0,0.6,0.2,1.2,0.5,1.8c0.4,0.5,1,0.9,1.6,1.1c0.6,0.2,1.3,0.2,1.9,0.3c0.6,0.1,1.3,0.1,1.9,0.3c0.6,0.2,1.1,0.5,1.6,0.9
			c0.9,0.8,1.4,1.9,1.5,3c0.1,1.1-0.5,2.1-0.8,3c-0.2,0.5-0.3,1-0.2,1.5c0,0.5,0.2,1,0.5,1.3c0.6,0.7,1.5,0.8,2.2,0.6
			c0.7-0.2,1.1-0.8,1.2-1.2c0.2-0.5,0.1-0.9,0.1-1.1c-0.1-0.2-0.1-0.4-0.1-0.4c-0.1,0,0.3,0.5-0.1,1.4c-0.2,0.4-0.5,0.9-1.2,1.1
			c-0.6,0.2-1.4,0-2-0.6c-0.3-0.3-0.4-0.7-0.4-1.2c0-0.4,0.1-0.9,0.2-1.4c0.3-0.9,0.9-1.9,0.9-3.1c0-1.2-0.6-2.4-1.6-3.2
			c-0.5-0.4-1.1-0.7-1.7-0.9c-0.6-0.2-1.3-0.3-1.9-0.3c-0.7-0.1-1.3-0.1-1.9-0.3c-0.6-0.2-1.1-0.5-1.4-1c-0.3-0.5-0.5-1.1-0.5-1.6
			c0-0.6,0.1-1.1,0.2-1.7c0.3-1.1,0.6-2.1,0.6-3.2c0-1-0.4-2-0.9-2.7c-0.5-0.7-1.2-1.2-1.7-1.6c-0.5-0.3-0.9-0.6-1.2-0.8
			c-0.2-0.3-0.3-0.6-0.4-1c-0.3-1.1-0.2-2.2-0.3-3.4c-0.2-1.4-0.9-2.7-1.9-3.8c1.3,2.7,2,5.7,1.6,8c-0.2,1.3,2,2.4,2.3,5.6
			C61.7,24,61.4,29.4,62.1,30.3z"/>
		<g>
			<path class="st6" d="M59.5,11c0,0-0.1-0.4-0.3-1.2c-0.2-0.7-0.7-1.8-1.7-2.7c-1-0.9-2.5-1.7-4.2-2.3c-1.7-0.6-3.8-0.8-5.8-0.5
				c-2.1,0.4-3.9,1.3-5.3,2.5c-0.7,0.6-1.2,1.3-1.7,1.9c-0.4,0.7-1,1.3-1.5,1.8c-1.1,0.9-2.3,1.2-3,1.4c-0.4,0.1-0.7,0.1-0.9,0.2
				c-0.2,0-0.3,0-0.3,0c0,0,0.4-0.1,1.2-0.3c0.7-0.2,1.8-0.6,2.9-1.5c0.5-0.4,1-1,1.4-1.7c0.4-0.7,1-1.4,1.7-2
				c1.4-1.3,3.3-2.2,5.4-2.6c2.1-0.4,4.3-0.1,6,0.5c1.8,0.6,3.3,1.4,4.3,2.5c1,1,1.5,2.1,1.7,2.9c0.1,0.4,0.1,0.7,0.1,0.9
				C59.5,10.9,59.5,11,59.5,11z"/>
		</g>
		<g>
			<path class="st6" d="M68.3,38.2c0,0-0.1-0.1-0.1-0.2c-0.1-0.2-0.2-0.4-0.2-0.7c-0.1-0.7-0.1-1.6,0-2.8c0-0.6,0-1.2-0.1-1.9
				c-0.1-0.6-0.6-1.2-1.2-1.6c-0.6-0.4-1.4-0.7-2.1-1.1c-0.7-0.4-1.6-0.9-2-1.8c-0.4-0.9-0.3-1.9-0.1-2.7c0.2-0.8,0.3-1.6,0.3-2.4
				c0.1-1.5-0.2-2.9-0.6-4c-0.8-2.2-1.9-3.3-1.8-3.3c0,0,0.1,0.1,0.2,0.2c0.1,0.1,0.3,0.3,0.5,0.6c0.4,0.5,0.9,1.3,1.4,2.4
				c0.4,1.1,0.8,2.5,0.7,4.1c0,0.8-0.2,1.6-0.3,2.4c-0.1,0.8-0.2,1.7,0.1,2.4c0.4,0.7,1.1,1.2,1.8,1.6c0.7,0.4,1.5,0.7,2.2,1.2
				c0.7,0.4,1.2,1.1,1.3,1.8c0.2,0.7,0.1,1.4,0.1,2c-0.1,1.2-0.2,2.1-0.1,2.8C68.2,37.9,68.3,38.2,68.3,38.2z"/>
		</g>
		<g>
			<path class="st6" d="M34.7,12.1c0,0.1-1.4,0.1-3.4,1.1c-1,0.5-2.1,1.3-2.9,2.5c-0.4,0.6-0.7,1.3-0.9,2.1
				c-0.2,0.8-0.1,1.6-0.1,2.5c0,0.9-0.1,1.8-0.6,2.5c-0.6,0.7-1.4,1-2.1,1.2c-0.7,0.2-1.4,0.4-1.8,0.9c-0.4,0.4-0.7,1-0.8,1.5
				c-0.2,1.1,0,2,0.1,2.6c0.1,0.6,0.2,0.9,0.2,1c0,0-0.2-0.3-0.3-0.9c-0.2-0.6-0.5-1.5-0.3-2.7c0.1-0.6,0.3-1.2,0.8-1.7
				c0.5-0.5,1.2-0.8,1.9-1c0.7-0.2,1.4-0.5,1.9-1.1c0.5-0.6,0.5-1.4,0.5-2.3c0-0.8-0.1-1.7,0.1-2.5c0.2-0.8,0.5-1.6,0.9-2.2
				c0.9-1.3,2-2.1,3-2.6c1-0.5,1.9-0.7,2.6-0.8C34.4,12.1,34.7,12.1,34.7,12.1z"/>
		</g>
		<g>
			<path class="st3" d="M60.3,34.3c0,0-0.1-0.3-0.1-0.9c0-0.7-0.1-1.5-0.1-2.4c-0.1-2-0.3-4.9-0.6-8c-0.3-3.1-1.3-5.8-2.5-7.4
				c-1.2-1.6-2.4-2.2-2.3-2.3c0,0,0.3,0.1,0.8,0.4c0.5,0.3,1.1,0.9,1.8,1.7c1.3,1.6,2.4,4.4,2.7,7.5c0.3,3.1,0.5,5.9,0.5,8
				c0,1,0,1.9,0,2.4C60.3,34,60.3,34.3,60.3,34.3z"/>
		</g>
	</g>
	<g>
		<path class="st6" d="M82.2,45.9c0.1,0-0.3,1.6-0.8,3.6c-0.6,2-1.1,3.5-1.2,3.5c-0.1,0,0.3-1.6,0.8-3.6
			C81.5,47.5,82.1,45.9,82.2,45.9z"/>
	</g>
	<g>
		<g>
			<g>
				<g>
					<path class="st2" d="M82.1,45.7l-2.4,7.8l-0.9,1.3c0,0-0.7,4.3-0.7,5.2c0,0.9,1.3,5.7,1.3,5.7L77,70.2l7.5,2.6
						c0,0,1.9-4,2.4-4.4c0.5-0.5,0.9-1.7,1-2.6c0.1-0.9,1-6,1-6s3.1-5.7,1.7-5.9c-0.3-0.1-1,0.1-1,0.1s-1.8,3.8-2.4,3.8l-0.8-0.4
						c0,0,1.3-5.7,1.4-6.7c0-1.1-0.2-1.8-1-1.9c0,0-0.6,0.3-0.6,0.5c0,0.3-1.4,6.6-1.7,6.5c-0.4-0.1-0.2-0.7-0.2-0.7
						s1.8-7.7,1.7-8.1c-0.1-0.4-0.5-1.1-1.3-1l-1.4,4.2c0,0,0.6-3.5,0-4.2C82.7,45.4,82.1,45.7,82.1,45.7z"/>
				</g>
				<g>
					<g>
						<path class="st3" d="M84.2,62.8c-0.1,0,0-0.7-0.3-1.7c-0.3-1-1-2.5-2.4-3.5l-0.1-0.1l0-0.1c0.1-0.6,0.2-1.2,0.3-1.8l0,0l0,0
							c0.1-0.2,0.2-0.4,0.4-0.6c0.4-0.7,0.7-1.5,0.8-2.3c0-0.4,0.1-0.7-0.1-1c-0.1-0.3-0.3-0.5-0.6-0.6l0.1-0.1
							c-0.9,0.9-1.6,1.6-2.1,2.1c-0.5,0.5-0.8,0.8-0.8,0.7c0,0,0.2-0.3,0.7-0.9c0.5-0.5,1.2-1.3,2-2.2l0.1-0.1l0.1,0
							c0.4,0,0.8,0.4,0.9,0.8c0.1,0.4,0.1,0.8,0.1,1.2c-0.1,0.8-0.4,1.6-0.8,2.4c-0.1,0.2-0.2,0.4-0.4,0.7l0-0.1
							c-0.1,0.6-0.2,1.2-0.4,1.8l-0.1-0.2c1.5,1.1,2.2,2.7,2.4,3.7c0.1,0.5,0.2,1,0.1,1.3C84.2,62.6,84.2,62.8,84.2,62.8z"/>
					</g>
				</g>
				<g>
					<g>
						<path class="st3" d="M84,56.5c0-0.1,1.2,0.2,2.4,0.9c1.2,0.7,2,1.6,1.9,1.7c-0.1,0.1-0.9-0.6-2.1-1.4C85,57.1,84,56.6,84,56.5
							z"/>
					</g>
				</g>
			</g>
			<g>
				<g>
					<g>
						<g>
							<path class="st1" d="M63.3,100.1c0.3-3.3,0.6-7.1,1-11.1c0.6-6.8,1-12.9,1.1-17.4c0-2.2,0-4-0.1-5.3c0-0.6,0-1.1-0.1-1.4
								c0-0.3,0-0.5,0-0.5c0,0,0,0.2,0,0.5c0,0.4,0,0.8,0,1.4c0,1.2,0,3-0.1,5.3c-0.1,4.4-0.5,10.6-1.2,17.3
								c-0.4,4-0.7,7.8-0.9,11.1H63.3z"/>
						</g>
					</g>
				</g>
			</g>
			<g>
				<path class="st7" d="M76.1,67.8L73,78.2l-5-19c-0.6-2.1-2.2-3.8-4.2-4.5c0,0-4.4-1.1-4.4-1.1l3.8,37.9l1,2.9
					c0.8,1.9,2.1,3.2,3.7,4c4.5,2.2,10.4,0.1,11.7-4.8l7-22.4L76.1,67.8z"/>
				<g>
					<g>
						<g>
							<g>
								<path class="st6" d="M62.6,100.1L62.7,77l-9.1-24.9c-1.2,2.2-3.5,2.8-6.1,2.6c-1.8-0.2-5.1-0.6-6.6-1.7l-3.7-3.7l-7.6,15.5
									l1.8,35.4H62.6z"/>
							</g>
						</g>
					</g>
					<g>
						<g>
							<g>
								<g>
									<path class="st7" d="M45.4,100.1c0.2-5.3,0.2-10.9-0.2-14.7c-0.8-8-2.1-19.8-2.8-23.9c-0.7-4.1-5.2-14.3-5.2-14.3L34,50.7
										l-15,5.4l7.8,44H45.4z"/>
								</g>
							</g>
						</g>
						<g>
							<g>
								<g>
									<path class="st7" d="M60,100.1h4.7c0.7-11.3,1.8-28,1.8-30.2c0.1-3.2-1.9-15-1.9-15l-8.9-2.5l-2-3.4l-0.1,3.3
										c0,0,4.5,20.3,5.6,28.5C60,85.6,60.1,93.2,60,100.1z"/>
								</g>
							</g>
						</g>
						<g>
							<g>
								<g>
									<g>
										<path class="st1" d="M56.1,53c0.2,0.4,0.5,1,0.9,1.7c0.7,1.5,1.8,3.6,2.8,6.3c0.5,1.4,0.9,2.9,1.2,4.6
											c0.2,1.7,0.4,3.5,0.5,5.5c0.1,1.9,0.3,4,0.4,6.1c0.1,1.1,0.1,2.1,0.1,3.2c0,1.1-0.1,2.2-0.1,3.3c-0.3,6-0.6,11.7-0.8,16.5
											h0.3c0.3-4.8,0.6-10.4,0.9-16.5c0-1.1,0.1-2.2,0.1-3.3c0-1.1-0.1-2.2-0.1-3.2C62,75,61.9,73,61.8,71
											c-0.2-1.9-0.3-3.8-0.6-5.5c-0.3-1.7-0.7-3.3-1.2-4.6c-1-2.8-2.1-4.9-2.9-6.3C56.7,53.9,56.4,53.3,56.1,53
											c0-0.2-0.1-0.3-0.2-0.5c-0.1-0.1-0.1-0.1-0.1-0.1c0,0,0,0.1,0.1,0.2C55.9,52.6,56,52.8,56.1,53z"/>
									</g>
								</g>
							</g>
						</g>
						<g>
							<g>
								<g>
									<g>
										<path class="st1" d="M33.9,53.6c0.1,1.3,0.3,3.2,0.7,5.5c0.2,1.2,0.4,2.4,0.8,3.8c0.4,1.4,1,2.7,1.6,4.1
											c1.2,2.9,2.5,6,3.8,9.4c1.2,3.4,2.3,6.6,2.9,9.7c0.3,1.5,0.5,3,0.4,4.3c-0.1,1.4-0.2,2.7-0.3,3.9c-0.1,2.4-0.1,4.3,0,5.6
											c0,0,0,0.1,0,0.1H44c0,0,0-0.1,0-0.1c0-1.3,0-3.2,0.1-5.6c0.1-1.2,0.2-2.5,0.3-3.8c0.1-1.4-0.1-2.9-0.4-4.4
											c-0.6-3.1-1.7-6.3-2.9-9.7c-1.3-3.4-2.6-6.5-3.8-9.4c-0.6-1.4-1.3-2.8-1.6-4.1c-0.4-1.3-0.6-2.6-0.8-3.7
											c-0.4-2.3-0.6-4.2-0.8-5.5c-0.1-0.6-0.1-1.1-0.2-1.5c0-0.3-0.1-0.5-0.1-0.5c0,0,0,0.2,0,0.5C33.8,52.5,33.8,53,33.9,53.6z
											"/>
									</g>
								</g>
							</g>
						</g>
						<g>
							<g>
								<g>
									<g>
										<path class="st1" d="M64.6,100.1c0.3-3.6,0.6-7.8,1.1-12.4c0.6-6.2,0.9-11.9,1-16c0-2.1,0-3.7-0.1-4.9c0-0.5,0-1-0.1-1.3
											c0-0.3,0-0.5,0-0.5c0,0,0,0.2,0,0.5c0,0.3,0,0.8,0,1.3c0,1.1,0,2.8-0.1,4.9c-0.1,4.1-0.5,9.8-1.1,16
											c-0.4,4.6-0.8,8.9-1,12.4H64.6z"/>
									</g>
								</g>
							</g>
						</g>
						<g>
							<g>
								<g>
									<g>
										<path class="st1" d="M25.7,79.9c0,0,0-0.3,0-0.9c0-0.6,0-1.4,0-2.5c-0.1-2.1-0.4-5-1.1-8.2c-0.7-3.1-1.8-5.9-2.7-7.8
											c-0.4-1-0.8-1.7-1.1-2.3c-0.3-0.5-0.4-0.8-0.4-0.8c0,0,0.2,0.3,0.5,0.8c0.3,0.5,0.7,1.3,1.2,2.2c0.9,1.9,2,4.7,2.8,7.8
											c0.7,3.2,1,6.1,1,8.2c0,1.1,0,1.9-0.1,2.5C25.8,79.6,25.7,79.9,25.7,79.9z"/>
									</g>
								</g>
							</g>
						</g>
					</g>
				</g>
			</g>
			<g>
				<g>
					<g>
						<g>
							<g>
								<path class="st7" d="M21.8,100.1l4-19.8l-6.7-24.2c0,0-4,4.6-5.2,9.2c-1.8,6.8-5.7,26.8-6.5,34.8H21.8z"/>
							</g>
						</g>
					</g>
				</g>
			</g>
			<g>
				<path class="st1" d="M49.9,90.5c0,0,0.5-0.5,1-1.5c0.4-1,0.9-2.5,1.3-4.1c0.4-1.7,0.6-3.2,0.6-4.3c0.1-1.1,0.1-1.8,0.1-1.8
					c0,0,0.1,0.7,0.1,1.8c0,1.1-0.2,2.7-0.6,4.4c-0.4,1.7-0.9,3.2-1.4,4.2C50.6,90.2,49.9,90.6,49.9,90.5z"/>
			</g>
		</g>
		<path class="st5" d="M85.9,46.9c-0.1-0.4-0.5-1.1-1.3-1l-1.4,4.2c0,0,0.6-3.5,0-4.2c-0.6-0.6-1.2-0.3-1.2-0.3l-2.4,7.8l-0.1,0.1
			c-0.1,0.1-0.2,0.2-0.1,0.2l-0.7,1c0,0-0.7,4.3-0.7,5.2c0,0.9,1.3,5.7,1.3,5.7L78,68.4l-1.9-0.6L73,78.2l-5-19
			c-0.5-1.8-1.7-3.3-3.3-4.2c0-0.1,0-0.2,0-0.2l-8.9-2.5c0,0,9,3.4,10.4,6.4c2,4,4.2,19,6,20.7c1.8,1.7,4.7-10.4,4.7-10.4l4.2,0.2
			l-1.4-10.4l0.4-3.9l2.7-3.9c0,0,0.3,0.1,0.7-0.3c0.4-0.4,1.2-4,1.4-4C85.3,46.8,85.9,46.9,85.9,46.9z"/>
		<path class="st5" d="M10.1,100.1c0.3-2,0.7-4.1,1.3-6.2c2.9-10.9,7.4-29,8.8-32.7C21.6,57.4,34,50.7,34,50.7l-15,5.4l0,0
			c0,0-0.1,0.1-0.3,0.3c-0.2,0.2-0.4,0.5-0.7,0.9c-0.6,0.8-1.5,2-2.4,3.6c-0.5,0.8-0.9,1.8-1.4,2.8c-0.4,1.1-0.7,2.3-1,3.6
			c-0.6,2.6-1.3,5.6-2,8.9c-0.7,3.3-1.4,6.9-2.1,10.8C8.6,90.8,7.9,95,7.4,99.4c0,0.2,0,0.4-0.1,0.7H10.1z"/>
		<g>
			<path class="st6" d="M68.2,59.7c-0.1,0-0.3-1.4-1.3-2.8c-1-1.4-2.4-1.9-2.3-2.1c0,0,0.4,0,0.9,0.3c0.5,0.3,1.2,0.8,1.7,1.5
				c0.5,0.7,0.9,1.5,1,2.1C68.3,59.3,68.2,59.7,68.2,59.7z"/>
		</g>
		<g>
			<path class="st6" d="M78.7,54.3c0.1,0-0.5,2.5-0.3,5.6c0.2,3.1,1.1,5.5,1,5.5c0,0-0.3-0.5-0.7-1.5c-0.3-1-0.6-2.4-0.7-4
				c-0.1-1.6,0.1-3,0.3-4C78.4,54.9,78.7,54.3,78.7,54.3z"/>
		</g>
		<g>
			<path class="st6" d="M7.4,100.1c0-0.4,0.1-0.8,0.1-1.2c0.9-5.1,2.1-10.8,3.2-16.7c0.6-3,1.1-5.9,1.7-8.7c0.3-1.4,0.5-2.8,0.8-4.1
				c0.2-1.3,0.5-2.7,0.9-3.9c0.7-2.5,1.7-4.8,3-6.7c0.6-1,1.4-1.8,2.1-2.5c0.4-0.2,0.9-0.4,1.4-0.6c0.5-0.2,1-0.4,1.4-0.5
				c3.7-1.4,6.7-2.5,8.8-3.2c1-0.4,1.8-0.7,2.4-0.9c0.3-0.1,0.5-0.2,0.6-0.2c0.1-0.1,0.2-0.1,0.2-0.1c0,0-0.1,0-0.2,0.1
				c-0.2,0.1-0.4,0.1-0.6,0.2c-0.6,0.2-1.4,0.5-2.4,0.8c-2.1,0.7-5.1,1.7-8.9,3.1c-0.5,0.2-0.9,0.4-1.4,0.5c-0.5,0.2-1,0.3-1.5,0.7
				c-0.8,0.7-1.5,1.6-2.2,2.6c-1.3,1.9-2.4,4.3-3.1,6.8c-0.4,1.3-0.7,2.6-0.9,3.9c-0.3,1.3-0.5,2.7-0.8,4.1
				c-0.5,2.8-1.1,5.7-1.7,8.7C9.2,88,8,93.7,7.1,98.8C7.1,99.3,7,99.7,7,100.1H7.4z"/>
		</g>
		<polygon class="st8" points="28.9,100.1 29.6,99.1 24.5,86.9 26.9,100.1 		"/>
		<g>
			<path class="st1" d="M22,100.1c1-5.2,1.9-9.6,2.5-12.8c0.3-1.7,0.6-3,0.7-3.9c0.1-0.4,0.1-0.8,0.2-1.1c0-0.2,0.1-0.4,0-0.4
				c0,0,0,0.1-0.1,0.4c-0.1,0.3-0.1,0.6-0.2,1c-0.2,0.9-0.5,2.3-0.8,3.9c-0.7,3.2-1.6,7.6-2.6,12.8H22z"/>
		</g>
		<g>
			<path class="st1" d="M73.2,77.6c0.1,0-0.2,0.7-0.6,1.8c-0.4,1.1-0.9,2.6-1.2,4.3c-0.4,1.7-0.6,3.2-0.8,4.4
				c-0.1,1.1-0.2,1.8-0.3,1.8c-0.1,0-0.1-0.7,0-1.9c0.1-1.1,0.3-2.7,0.7-4.4c0.4-1.7,0.9-3.2,1.4-4.3C72.8,78.2,73.2,77.6,73.2,77.6
				z"/>
		</g>
	</g>
</g>
</svg>
