<?xml version="1.0" encoding="utf-8"?>
<!-- Generator: Adobe Illustrator 27.8.0, SVG Export Plug-In . SVG Version: 6.00 Build 0)  -->
<svg version="1.1" id="Camada_1" xmlns="http://www.w3.org/2000/svg" xmlns:xlink="http://www.w3.org/1999/xlink" x="0px" y="0px"
	 viewBox="0 0 100 100.1" style="enable-background:new 0 0 100 100.1;" xml:space="preserve">
<style type="text/css">
	.st0{fill:#F7F7F7;}
	.st1{fill:#FF4F5B;}
	.st2{opacity:0.5;}
	.st3{fill:#FFBF9D;}
	.st4{fill:#1A2E35;}
	.st5{fill:#FFFFFF;}
	.st6{fill:#FF9A6C;}
	.st7{opacity:0.2;}
	.st8{opacity:0.4;}
	.st9{fill:#375A64;}
</style>
<rect y="0" class="st0" width="100" height="100"/>
<g>
	<g>
		<g>
			<path class="st1" d="M52,18c0,0-2-0.7-2.1-2c0-1.3,15.2-3.2,18.2,4.2c0,0-0.6,0.4-2.9,0.3"/>
		</g>
		<g class="st2">
			<path d="M52,18c0,0-2-0.7-2.1-2c0-1.3,15.2-3.2,18.2,4.2c0,0-0.6,0.4-2.9,0.3"/>
		</g>
		<g>
			<g>
				<g>
					<g>
						<g>
							<g>
								<path class="st3" d="M64.6,39.6l-9.3-0.7c-0.1-1.1,0-5.3,0-5.3s-3.9-0.6-3.9-4.5c0-3.9,0.6-12.8,0.6-12.8l0,0
									c4.5-1.9,9.7-1.3,13.5,1.7l0.6,0.4L64.6,39.6z"/>
							</g>
						</g>
						<g>
							<g>
								<g>
									<path class="st4" d="M52.9,23c0.2-0.2,0.2-0.6,0-0.8c-0.2-0.2-0.6-0.2-0.8,0c-0.2,0.2-0.2,0.6,0,0.8
										C52.4,23.2,52.7,23.2,52.9,23z"/>
								</g>
							</g>
							<g>
								<g>
									<g>
										<path class="st4" d="M52,22.1c0.1,0.1,0.4-0.2,1-0.2c0.5,0,0.9,0.3,1,0.2c0,0,0-0.2-0.2-0.3c-0.2-0.1-0.5-0.3-0.8-0.2
											c-0.3,0-0.6,0.1-0.8,0.3C52,21.9,52,22.1,52,22.1z"/>
									</g>
								</g>
							</g>
						</g>
						<g>
							<g>
								<g>
									<path class="st4" d="M58.2,22.6c-0.3,0.2-0.3,0.5-0.2,0.8c0.2,0.3,0.5,0.3,0.8,0.2c0.3-0.2,0.3-0.5,0.2-0.8
										C58.8,22.5,58.4,22.4,58.2,22.6z"/>
								</g>
							</g>
							<g>
								<g>
									<g>
										<path class="st4" d="M57.8,22.6c0.1,0.1,0.4-0.2,1-0.2c0.5,0,0.9,0.3,1,0.2c0,0,0-0.2-0.2-0.3c-0.2-0.1-0.5-0.3-0.8-0.2
											c-0.3,0-0.6,0.1-0.8,0.3C57.8,22.4,57.8,22.5,57.8,22.6z"/>
									</g>
								</g>
							</g>
						</g>
						<g>
							<g>
								<g>
									<path class="st4" d="M55.7,27c0,0-0.3-0.1-0.9-0.2c-0.1,0-0.2,0-0.3-0.1c0-0.1,0-0.2,0.1-0.4c0.1-0.4,0.3-0.7,0.4-1.1
										c0.6-1.5,1-2.8,0.9-2.8c-0.1,0-0.6,1.2-1.2,2.7c-0.1,0.4-0.3,0.7-0.4,1.1c-0.1,0.2-0.1,0.3-0.1,0.6c0,0.1,0.1,0.2,0.2,0.2
										c0.1,0,0.2,0,0.2,0C55.3,27,55.7,27,55.7,27z"/>
								</g>
							</g>
						</g>
						<g>
							<g>
								<path class="st5" d="M57.4,27.5c-0.7,0.3-1.5,0.6-2.6,0.8c0,0,0.6,1,1.7,0.6C57.7,28.5,57.4,27.5,57.4,27.5z"/>
							</g>
						</g>
						<g>
							<g>
								<path class="st6" d="M55.3,33.5c0,0,2.4,0.2,5.1-1.4c0,0-1.2,2.8-5.1,2.4L55.3,33.5z"/>
							</g>
						</g>
					</g>
				</g>
			</g>
			<g>
				<path class="st4" d="M52,17.3c0,0,2.3,1.3,5.4,0c2.1-0.9,4.5-1.2,4.9-0.7c0.5,0.4,0.4,2.5,2.4,3.3c0,0-0.4,3.9,1.2,3.9
					c1.6,0,1.1-6.2,1.1-6.2l-3.7-2.2l-4.1-1.1l-4,0.3L52,15.2V17.3z"/>
			</g>
			<g>
				<g>
					<g>
						<path class="st3" d="M65.7,22.5c0.1,0,2.7-0.8,2.6,1.9c-0.1,2.6-2.7,2-2.7,1.9C65.5,26.2,65.7,22.5,65.7,22.5z"/>
					</g>
				</g>
				<g>
					<g>
						<g>
							<path class="st6" d="M66.4,25.3c0,0,0,0,0.1,0.1c0.1,0,0.2,0.1,0.3,0c0.3-0.1,0.5-0.5,0.6-1c0-0.2,0-0.5-0.1-0.7
								c-0.1-0.2-0.2-0.3-0.3-0.4c-0.1,0-0.2,0-0.3,0.1c0,0.1,0,0.1,0,0.1c0,0-0.1,0,0-0.2c0-0.1,0-0.1,0.1-0.2
								c0.1,0,0.2-0.1,0.3-0.1c0.2,0,0.4,0.2,0.5,0.4c0.1,0.2,0.2,0.5,0.1,0.7c0,0.5-0.3,1-0.7,1.1c-0.2,0-0.3,0-0.4-0.1
								C66.4,25.4,66.4,25.3,66.4,25.3z"/>
						</g>
					</g>
				</g>
			</g>
			<g>
				<g>
					<path class="st4" d="M67.5,14.3c0,0.1-0.4,0.1-0.9,0.2c-0.4,0.1-0.7,0.4-0.8,0.3c-0.1,0,0.2-0.5,0.7-0.6
						C67.1,14,67.5,14.2,67.5,14.3z"/>
				</g>
			</g>
			<g>
				<g>
					<path class="st4" d="M66,12.6c0.1,0,0.2,0.6,0.1,1.3c-0.1,0.7-0.6,1.1-0.6,1.1c-0.1-0.1,0.2-0.5,0.3-1.2
						C65.9,13.2,65.9,12.6,66,12.6z"/>
				</g>
			</g>
			<g>
				<g>
					<path class="st4" d="M54.6,21.2c-0.1,0.2-0.6,0-1.2,0c-0.6,0-1.1,0-1.2-0.1c-0.1-0.1,0.5-0.5,1.2-0.5
						C54.2,20.6,54.7,21.1,54.6,21.2z"/>
				</g>
			</g>
			<g>
				<g>
					<path class="st4" d="M60.5,21.2c-0.1,0.2-0.6,0-1.2,0c-0.6,0-1.1,0-1.2-0.1c-0.1-0.1,0.5-0.5,1.2-0.5
						C60.1,20.6,60.6,21.1,60.5,21.2z"/>
				</g>
			</g>
		</g>
		<g>
			<path class="st1" d="M58.3,15.4c-7-0.8-8.3,0.5-8.4,0.5c-0.2-0.2-0.3-0.5-0.4-0.7c-0.3-2.1,2.3-2.6,2.3-2.6c1.6-7.1,8-6.4,8-6.4
				l0-0.1c0.1-0.6,0.7-1,1.4-0.9l1,0.2c0.6,0.1,1,0.7,0.9,1.4l0,0c7.5,2.5,5,9.5,5,9.5l1.1,1.3c1,2-1.1,2.6-1.1,2.6
				S65.5,16.2,58.3,15.4z"/>
		</g>
		<g class="st2">
			<g>
				<path d="M61.8,13c-0.1,0,0.2-1.4,0.5-3.1c0.4-1.7,0.8-3,0.9-3c0.1,0-0.2,1.4-0.5,3.1C62.3,11.7,61.9,13,61.8,13z"/>
			</g>
		</g>
		<g class="st2">
			<g>
				<path d="M58.1,12.1c-0.1,0,0.2-1.3,0.7-3c0.5-1.6,0.9-2.9,1-2.9c0.1,0-0.2,1.3-0.7,3C58.6,10.8,58.1,12.1,58.1,12.1z"/>
			</g>
		</g>
		<g class="st2">
			<g>
				<path d="M52.1,12.9c0,0,0.2-0.1,0.6-0.2c0.4-0.1,1-0.2,1.7-0.3c1.5-0.2,3.6-0.2,5.8,0.4c2.2,0.5,4.1,1.4,5.4,2.2
					c0.6,0.4,1.2,0.7,1.5,0.9c0.3,0.2,0.5,0.4,0.5,0.4c0,0-0.8-0.5-2.1-1.1c-1.3-0.7-3.2-1.5-5.4-2.1c-2.2-0.5-4.2-0.6-5.7-0.5
					C53,12.7,52.1,13,52.1,12.9z"/>
			</g>
		</g>
		<g class="st7">
			<g>
				<path class="st5" d="M61.5,14.2c0,0,0.5,0,1.2,0.2c0.7,0.2,1.8,0.6,2.8,1.2c1,0.6,1.9,1.2,2.5,1.7c0.6,0.5,0.9,0.9,0.9,0.9
					c-0.1,0.1-1.5-1.3-3.5-2.4C63.3,14.8,61.4,14.3,61.5,14.2z"/>
			</g>
		</g>
		<g class="st7">
			<g>
				<path class="st5" d="M62.6,7.2c-0.1,0,0-0.4-0.1-0.7c-0.1-0.4-0.3-0.6-0.2-0.7c0.1-0.1,0.4,0.2,0.5,0.7
					C62.9,6.9,62.7,7.3,62.6,7.2z"/>
			</g>
		</g>
		<g class="st7">
			<g>
				<path class="st5" d="M67.5,15.2c-0.4-0.1-0.3-2.1-1.3-4.1c-1-2-2.8-3-2.6-3.4c0.1-0.2,0.7-0.2,1.5,0.2c0.8,0.4,1.9,1.2,2.5,2.5
					c0.7,1.3,0.8,2.6,0.6,3.5C68,14.8,67.7,15.3,67.5,15.2z"/>
			</g>
		</g>
	</g>
	<g>
		<path class="st3" d="M11.6,65c0,0-4.6-2.4-5.4-3.4C5.3,60.5,5,56.7,5,56.7l7.9,2.9L11.6,65z"/>
		<path class="st3" d="M45.8,55.2c-0.3,0.1-5.3,11.4-9.4,11.5C32.3,66.7,11.6,65,11.6,65l1.3-5.4L32.8,59l6.5-8.8L45.8,55.2z"/>
	</g>
	<g>
		<g>
			<path class="st1" d="M82.5,184.4l0.9,3.9c0,0,6.3,8.2,8.3,7.8c1.3-0.3-0.3-2.4-2.7-8.7l-0.5-2.6L82.5,184.4z"/>
		</g>
		<g>
			<g>
				<path class="st4" d="M91.9,194.9c0,0,0,0-0.1,0.1c0,0.1-0.1,0.2-0.3,0.2c-0.1,0.1-0.3,0.1-0.6,0.1c-0.2,0-0.5-0.1-0.7-0.3
					c-0.9-0.7-2-1.7-3.2-3c-1.2-1.2-2.2-2.4-2.8-3.3c-0.3-0.4-0.6-0.8-0.8-1.1c-0.1-0.1-0.1-0.2-0.2-0.3c0-0.1-0.1-0.1-0.1-0.1
					c0,0,0,0,0.1,0.1c0.1,0.1,0.1,0.2,0.2,0.3c0.2,0.3,0.5,0.7,0.8,1c0.7,0.9,1.7,2.1,2.9,3.3c1.2,1.2,2.3,2.3,3.2,3
					c0.5,0.3,0.9,0.3,1.2,0.2C91.9,195.1,91.9,194.9,91.9,194.9z"/>
			</g>
		</g>
		<g>
			<g>
				<path class="st4" d="M91,192.3c0,0-0.2,0-0.5,0c-0.3,0-0.7,0.2-1.1,0.4c-0.4,0.2-0.7,0.6-0.9,0.9c-0.1,0.3-0.2,0.5-0.2,0.5
					c0,0,0-0.2,0.1-0.5c0.1-0.3,0.4-0.7,0.9-0.9c0.4-0.3,0.9-0.4,1.2-0.4C90.9,192.2,91,192.2,91,192.3z"/>
			</g>
		</g>
		<g>
			<g>
				<path class="st4" d="M85,190.3c0,0,0.1-0.3,0.1-0.7c0.1-0.4,0-1.1-0.3-1.7c-0.3-0.6-0.8-1-1.2-1.2c-0.4-0.2-0.7-0.2-0.7-0.3
					c0,0,0.1,0,0.2,0c0.1,0,0.3,0.1,0.5,0.2c0.4,0.2,1,0.6,1.3,1.2c0.3,0.6,0.4,1.3,0.3,1.8c0,0.2-0.1,0.4-0.1,0.5
					C85.1,190.3,85,190.3,85,190.3z"/>
			</g>
		</g>
		<g>
			<g>
				<path class="st4" d="M82.9,185.1c0,0,0.2,0.5,0.4,1.2c0.1,0.7,0.2,1.2,0.2,1.2c0,0-0.2-0.5-0.3-1.2
					C83,185.6,82.8,185.1,82.9,185.1z"/>
			</g>
		</g>
		<g>
			<g>
				<path class="st4" d="M89.1,188c0,0-0.4,0-0.8,0.1c-0.4,0.1-0.7,0.3-0.8,0.2c0,0,0.3-0.3,0.7-0.4C88.7,187.9,89.1,188,89.1,188z"
					/>
			</g>
		</g>
		<g>
			<g>
				<path class="st4" d="M89.2,188.7c0,0-0.3,0-0.7,0.1c-0.4,0.1-0.6,0.2-0.6,0.2c0,0,0.2-0.2,0.6-0.3
					C88.9,188.5,89.2,188.6,89.2,188.7z"/>
			</g>
		</g>
		<g>
			<g>
				<path class="st4" d="M89.7,189.5c0,0-0.3-0.1-0.7,0c-0.4,0.1-0.6,0.3-0.6,0.3c0,0,0.2-0.3,0.6-0.4
					C89.4,189.3,89.7,189.5,89.7,189.5z"/>
			</g>
		</g>
		<g>
			<g>
				<path class="st4" d="M88.7,187.7c0,0-0.1,0-0.2,0c-0.1,0-0.3-0.1-0.6-0.2c-0.2-0.1-0.5-0.2-0.8-0.4c-0.1-0.1-0.3-0.2-0.4-0.3
					c-0.1-0.1-0.3-0.2-0.3-0.5c0-0.3,0.3-0.4,0.5-0.3c0.2,0.1,0.3,0.2,0.4,0.3c0.2,0.2,0.4,0.4,0.6,0.6c0.2,0.2,0.3,0.4,0.3,0.5
					c0.1,0.1,0.1,0.2,0.1,0.2c0,0-0.2-0.2-0.5-0.6c-0.2-0.2-0.4-0.4-0.6-0.6c-0.1-0.1-0.2-0.2-0.4-0.3c-0.1,0-0.3,0-0.3,0.2
					c0,0.1,0.1,0.3,0.3,0.4c0.1,0.1,0.3,0.2,0.4,0.3c0.3,0.2,0.5,0.3,0.8,0.4C88.4,187.6,88.7,187.7,88.7,187.7z"/>
			</g>
		</g>
		<g>
			<g>
				<path class="st4" d="M88.3,187.6c0,0,0-0.1,0-0.2c0-0.1,0-0.3,0-0.5c0-0.2,0.1-0.5,0.2-0.8c0.1-0.1,0.1-0.3,0.2-0.4
					c0.1-0.1,0.3-0.3,0.5-0.2c0.2,0.1,0.2,0.3,0.2,0.5c0,0.2-0.1,0.3-0.1,0.5c-0.1,0.3-0.3,0.5-0.5,0.7c-0.2,0.2-0.3,0.3-0.4,0.3
					C88.4,187.6,88.3,187.6,88.3,187.6c0,0,0.2-0.2,0.5-0.5c0.1-0.2,0.3-0.4,0.4-0.6c0.1-0.1,0.1-0.3,0.1-0.4c0-0.1,0-0.3-0.1-0.4
					c-0.1-0.1-0.3,0-0.4,0.1c-0.1,0.1-0.2,0.2-0.2,0.4c-0.1,0.3-0.2,0.5-0.2,0.7C88.4,187.4,88.3,187.6,88.3,187.6z"/>
			</g>
		</g>
		<g class="st8">
			<path d="M83.4,188.3l-0.4-1.9c0,0,1.6,0.3,2,1.5c0.4,1.2,0.3,2,0.3,2l3.4,3.6c0,0,0.8-1.7,2.4-1.3c0,0,1.2,2.7,1.2,3.3
				c0,0.7-0.8,0.6-1.1,0.5c-0.1-0.1-1.6-0.9-3-2.4C86.2,191.8,84.3,189.4,83.4,188.3z"/>
		</g>
	</g>
	<g>
		<g>
			<g>
				<g>
					<g>
						<path class="st1" d="M50.9,186.4l0-5.2l9.7-0.1l0.1,7.6l-0.6,0c-2.7,0.2-13.6,0.7-15.4,0.2C42.7,188.3,50.9,186.4,50.9,186.4z
							"/>
					</g>
				</g>
				<g class="st8">
					<g>
						<path d="M57.2,188.6c0.1-0.8,0.6-1.6,1.2-2.1c0.6-0.5,1.4-0.8,2.3-0.7l0,2.7L57.2,188.6z"/>
					</g>
				</g>
			</g>
			<g>
				<g>
					<path class="st8" d="M46.9,187.5c0,0-2.9,0.9-2.5,1.3c0.4,0.5,11.4,0.3,16.3-0.2l0-0.2l-12.9,0.3
						C47.8,188.7,47.5,187.5,46.9,187.5z"/>
				</g>
			</g>
			<g>
				<g>
					<g>
						<path class="st4" d="M60.9,188.4c0,0-0.1,0-0.2,0c-0.1,0-0.3,0-0.5,0c-0.5,0-1.1,0.1-1.8,0.1c-1.5,0.1-3.5,0.1-5.8,0.2
							c-2.3,0-4.3,0-5.8,0c-0.7,0-1.3,0-1.8-0.1c-0.2,0-0.3,0-0.5,0c-0.1,0-0.2,0-0.2,0c0,0,0.1,0,0.2,0c0.1,0,0.3,0,0.5,0
							c0.5,0,1.1,0,1.8,0c1.5,0,3.5,0,5.8,0c2.3,0,4.3-0.1,5.8-0.1c0.7,0,1.3,0,1.8-0.1c0.2,0,0.3,0,0.5,0
							C60.8,188.4,60.9,188.4,60.9,188.4z"/>
					</g>
				</g>
			</g>
			<g>
				<g>
					<g>
						<path class="st4" d="M47.8,188.9c0,0-0.1-0.4-0.3-0.8c-0.3-0.4-0.6-0.6-0.6-0.7c0,0,0.4,0.1,0.7,0.6
							C47.9,188.4,47.8,188.9,47.8,188.9z"/>
					</g>
				</g>
			</g>
			<g>
				<g>
					<g>
						<path class="st4" d="M50.6,187.4c0,0-0.2-0.1-0.3-0.4c-0.1-0.2-0.2-0.4-0.2-0.4c0,0,0.2,0.1,0.3,0.4
							C50.6,187.2,50.7,187.3,50.6,187.4z"/>
					</g>
				</g>
			</g>
			<g>
				<g>
					<g>
						<path class="st4" d="M51.4,186.9c0,0-0.2-0.1-0.3-0.2c-0.2-0.1-0.3-0.3-0.3-0.3c0,0,0.2,0.1,0.3,0.2
							C51.3,186.8,51.4,186.9,51.4,186.9z"/>
					</g>
				</g>
			</g>
			<g>
				<g>
					<g>
						<path class="st4" d="M51.9,186c0,0-0.2,0.1-0.5,0.1c-0.3,0-0.5,0-0.5,0c0,0,0.2-0.1,0.5-0.1C51.7,186,51.9,186,51.9,186z"/>
					</g>
				</g>
			</g>
			<g>
				<g>
					<g>
						<path class="st4" d="M52.1,185.4c0,0-0.2,0.1-0.6,0.2c-0.3,0-0.6,0-0.6-0.1c0,0,0.3,0,0.6,0C51.8,185.4,52.1,185.3,52.1,185.4
							z"/>
					</g>
				</g>
			</g>
			<g>
				<g>
					<g>
						<path class="st4" d="M50.3,186.5c0,0-0.2,0-0.6,0c-0.2,0-0.4-0.1-0.7-0.1c-0.1,0-0.2-0.1-0.4-0.2c-0.1,0-0.1-0.1-0.2-0.2
							c0-0.1,0-0.2,0.1-0.2c0.6-0.3,1.2,0,1.4,0.3c0.1,0.2,0.2,0.3,0.2,0.4c0,0.1,0,0.2,0,0.2c0,0,0-0.2-0.3-0.5
							c-0.1-0.1-0.3-0.3-0.5-0.3c-0.2-0.1-0.5-0.1-0.7,0.1c-0.1,0.1-0.1,0.2,0.1,0.3c0.1,0.1,0.2,0.1,0.4,0.1
							c0.2,0.1,0.5,0.1,0.6,0.2C50.1,186.5,50.3,186.5,50.3,186.5z"/>
					</g>
				</g>
			</g>
			<g>
				<g>
					<g>
						<path class="st4" d="M50.1,186.6c0,0-0.1-0.2-0.1-0.4c0-0.1,0.1-0.3,0.2-0.5c0.1-0.1,0.2-0.3,0.5-0.3c0.1,0,0.2,0.2,0.2,0.3
							c0,0.1-0.1,0.2-0.1,0.3c-0.1,0.2-0.2,0.3-0.3,0.4C50.4,186.5,50.2,186.6,50.1,186.6c0,0,0.2-0.1,0.3-0.3
							c0.1-0.1,0.2-0.2,0.3-0.4c0.1-0.1,0.1-0.4,0-0.4c-0.2,0-0.3,0.1-0.4,0.3c-0.1,0.1-0.1,0.3-0.2,0.4
							C50.1,186.4,50.2,186.6,50.1,186.6z"/>
					</g>
				</g>
			</g>
			<g>
				<g>
					<g>
						<path class="st4" d="M60.6,185.8c0,0-0.3,0-0.7,0c-0.4,0.1-1,0.2-1.6,0.7c-0.5,0.4-0.8,1-1,1.4c-0.1,0.4-0.2,0.7-0.2,0.7
							c0,0,0-0.1,0-0.2c0-0.1,0-0.3,0.1-0.5c0.1-0.4,0.4-1,1-1.5c0.5-0.4,1.2-0.6,1.6-0.7c0.2,0,0.4,0,0.5,0
							C60.6,185.7,60.6,185.8,60.6,185.8z"/>
					</g>
				</g>
			</g>
			<g>
				<g>
					<g>
						<path class="st4" d="M59.6,181.8c0,0,0.1,0.9,0.1,2c0,1.1,0,2,0,2c0,0-0.1-0.9-0.1-2C59.5,182.6,59.5,181.8,59.6,181.8z"/>
					</g>
				</g>
			</g>
			<g>
				<g>
					<g>
						<path class="st4" d="M56,187.7c0,0-0.6,0.1-1.4,0.2c-0.8,0-1.4-0.1-1.4-0.1c0,0,0.6,0,1.4,0C55.3,187.7,56,187.6,56,187.7z"/>
					</g>
				</g>
			</g>
			<g>
				<g>
					<g>
						<path class="st4" d="M57.9,187.7c0,0-0.1,0.1-0.1,0.3c-0.1,0.1-0.1,0.3-0.1,0.3c0,0-0.1-0.2,0-0.3
							C57.7,187.7,57.9,187.6,57.9,187.7z"/>
					</g>
				</g>
			</g>
			<g>
				<g>
					<g>
						<path class="st4" d="M58.6,186.8c0,0,0,0.1-0.1,0.2c-0.1,0.1-0.2,0.2-0.2,0.1c0,0,0-0.1,0.1-0.2
							C58.5,186.8,58.6,186.7,58.6,186.8z"/>
					</g>
				</g>
			</g>
			<g>
				<g>
					<g>
						<path class="st4" d="M59.6,186.3c0,0-0.1,0-0.3,0.1c-0.1,0-0.2,0.1-0.3,0.1c0,0,0.1-0.2,0.2-0.2
							C59.5,186.2,59.6,186.3,59.6,186.3z"/>
					</g>
				</g>
			</g>
			<g>
				<g>
					<g>
						<path class="st4" d="M60.3,186.1c0,0,0,0.1-0.1,0.1c-0.1,0-0.2,0-0.2,0c0,0,0-0.1,0.1-0.1C60.2,186.1,60.3,186.1,60.3,186.1z"
							/>
					</g>
				</g>
			</g>
		</g>
	</g>
	<path class="st1" d="M73.6,85.1l-29.3,1.7c-0.1-3.2,1.2-29,1.2-29l-1.6,3l-8.4-7.5l7.3-9.9c2.3-3.1,5.8-5.2,9.7-5.7
		c1.1-0.2,2-0.2,2.6-0.3c3.3,1,6.6,1,9.9,0l0,0c1.5,0.1,2.9,0.3,4.1,0.8c2.6,0.9,4.7,2.3,6.6,4.2l0,0l8.8,14.7l-10.6,6.7l-1.5-4.6
		L73.6,85.1z"/>
	<g>
		<g>
			<g>
				<polyline class="st4" points="44.4,83.7 48.9,184.1 64,184.5 61.4,100.3 78.4,185.1 92.8,185.1 73.6,83.7 				"/>
			</g>
			<g>
				<polygon class="st9" points="77.7,183.7 78,185.2 92.8,185.4 92.5,183.1 				"/>
			</g>
			<g>
				<g>
					<g>
						<path class="st9" d="M61.4,183.6c0.1,0,0.2,0.2,0.2,0.4c0,0.2,0,0.5-0.1,0.5s-0.2-0.2-0.2-0.4
							C61.2,183.8,61.3,183.6,61.4,183.6z"/>
					</g>
				</g>
				<g>
					<g>
						<path class="st9" d="M61.2,179.9c0.1,0,0.2,0.4,0.2,0.9c0,0.5,0,0.9-0.1,0.9c-0.1,0-0.2-0.4-0.2-0.9
							C61.1,180.4,61.1,179.9,61.2,179.9z"/>
					</g>
				</g>
				<g>
					<g>
						<path class="st9" d="M61.1,176.3c0.1,0,0.2,0.4,0.2,0.9c0,0.5,0,0.9-0.1,0.9c-0.1,0-0.2-0.4-0.2-0.9
							C61,176.7,61,176.3,61.1,176.3z"/>
					</g>
				</g>
				<g>
					<g>
						<path class="st9" d="M61,172.7c0.1,0,0.2,0.4,0.2,0.9c0,0.5,0,0.9-0.1,0.9c-0.1,0-0.2-0.4-0.2-0.9
							C60.9,173.1,60.9,172.7,61,172.7z"/>
					</g>
				</g>
				<g>
					<g>
						<path class="st9" d="M60.9,169c0.1,0,0.2,0.4,0.2,0.9c0,0.5,0,0.9-0.1,0.9c-0.1,0-0.2-0.4-0.2-0.9
							C60.8,169.4,60.8,169,60.9,169z"/>
					</g>
				</g>
				<g>
					<g>
						<path class="st9" d="M60.8,165.4c0.1,0,0.2,0.4,0.2,0.9c0,0.5,0,0.9-0.1,0.9c-0.1,0-0.2-0.4-0.2-0.9
							C60.7,165.8,60.7,165.4,60.8,165.4z"/>
					</g>
				</g>
				<g>
					<g>
						<path class="st9" d="M60.7,161.7c0.1,0,0.2,0.4,0.2,0.9c0,0.5,0,0.9-0.1,0.9c-0.1,0-0.2-0.4-0.2-0.9
							C60.5,162.1,60.6,161.7,60.7,161.7z"/>
					</g>
				</g>
				<g>
					<g>
						<path class="st9" d="M60.5,158.1c0.1,0,0.2,0.4,0.2,0.9c0,0.5,0,0.9-0.1,0.9c-0.1,0-0.2-0.4-0.2-0.9
							C60.4,158.5,60.4,158.1,60.5,158.1z"/>
					</g>
				</g>
				<g>
					<g>
						<path class="st9" d="M60.4,154.5c0.1,0,0.2,0.4,0.2,0.9c0,0.5,0,0.9-0.1,0.9c-0.1,0-0.2-0.4-0.2-0.9
							C60.3,154.9,60.3,154.5,60.4,154.5z"/>
					</g>
				</g>
				<g>
					<g>
						<path class="st9" d="M60.3,150.8c0.1,0,0.2,0.4,0.2,0.9c0,0.5,0,0.9-0.1,0.9c-0.1,0-0.2-0.4-0.2-0.9
							C60.1,151.2,60.2,150.8,60.3,150.8z"/>
					</g>
				</g>
				<g>
					<g>
						<path class="st9" d="M60.2,147.2c0.1,0,0.2,0.4,0.2,0.9c0,0.5,0,0.9-0.1,0.9c-0.1,0-0.2-0.4-0.2-0.9
							C60,147.6,60.1,147.2,60.2,147.2z"/>
					</g>
				</g>
				<g>
					<g>
						<path class="st9" d="M60.1,143.5c0.1,0,0.2,0.4,0.2,0.9c0,0.5-0.1,0.9-0.1,0.9c-0.1,0-0.2-0.4-0.2-0.9
							C60,143.9,60,143.5,60.1,143.5z"/>
					</g>
				</g>
				<g>
					<g>
						<path class="st9" d="M60,139.9c0.1,0,0.2,0.4,0.2,0.9c0,0.5-0.1,0.9-0.1,0.9c-0.1,0-0.2-0.4-0.2-0.9
							C59.9,140.3,60,139.9,60,139.9z"/>
					</g>
				</g>
				<g>
					<g>
						<path class="st9" d="M60,136.2c0.1,0,0.2,0.4,0.2,0.9c0,0.5-0.1,0.9-0.1,0.9c-0.1,0-0.2-0.4-0.2-0.9
							C59.8,136.7,59.9,136.2,60,136.2z"/>
					</g>
				</g>
				<g>
					<g>
						<path class="st9" d="M60,132.6c0.1,0,0.2,0.4,0.2,0.9c0,0.5-0.1,0.9-0.2,0.9c-0.1,0-0.2-0.4-0.2-0.9
							C59.8,133,59.9,132.6,60,132.6z"/>
					</g>
				</g>
				<g>
					<g>
						<path class="st9" d="M60,129c0.1,0,0.2,0.4,0.2,0.9c0,0.5-0.1,0.9-0.2,0.9c-0.1,0-0.2-0.4-0.2-0.9C59.8,129.4,59.9,129,60,129
							z"/>
					</g>
				</g>
				<g>
					<g>
						<path class="st9" d="M60,125.3c0.1,0,0.2,0.4,0.2,0.9c0,0.5-0.1,0.9-0.2,0.9c-0.1,0-0.2-0.4-0.2-0.9
							C59.8,125.7,59.9,125.3,60,125.3z"/>
					</g>
				</g>
				<g>
					<g>
						<path class="st9" d="M60,121.7c0.1,0,0.2,0.4,0.1,0.9c0,0.5-0.1,0.9-0.2,0.9c-0.1,0-0.2-0.4-0.1-0.9
							C59.9,122.1,59.9,121.7,60,121.7z"/>
					</g>
				</g>
				<g>
					<g>
						<path class="st9" d="M60.1,118c0.1,0,0.1,0.4,0.1,0.9c0,0.5-0.1,0.9-0.2,0.9c-0.1,0-0.1-0.4-0.1-0.9
							C59.9,118.4,60,118,60.1,118z"/>
					</g>
				</g>
				<g>
					<g>
						<path class="st9" d="M60.2,114.4c0.1,0,0.1,0.4,0.1,0.9c0,0.5-0.1,0.9-0.2,0.9c-0.1,0-0.1-0.4-0.1-0.9
							C60,114.8,60.1,114.4,60.2,114.4z"/>
					</g>
				</g>
				<g>
					<g>
						<path class="st9" d="M60.3,110.7c0.1,0,0.1,0.4,0.1,0.9c0,0.5-0.1,0.9-0.2,0.9c-0.1,0-0.1-0.4-0.1-0.9
							C60.1,111.1,60.2,110.7,60.3,110.7z"/>
					</g>
				</g>
				<g>
					<g>
						<path class="st9" d="M60.5,107.1c0.1,0,0.1,0.4,0.1,0.9c0,0.5-0.1,0.9-0.2,0.9c-0.1,0-0.1-0.4-0.1-0.9
							C60.3,107.5,60.4,107.1,60.5,107.1z"/>
					</g>
				</g>
				<g>
					<g>
						<path class="st9" d="M60.8,103.5c0.1,0,0.1,0.4,0.1,0.9c0,0.5-0.2,0.9-0.2,0.9c-0.1,0-0.1-0.4-0.1-0.9
							C60.6,103.9,60.7,103.5,60.8,103.5z"/>
					</g>
				</g>
				<g>
					<g>
						<path class="st9" d="M61.1,100.8c0.1,0,0.1,0.2,0.1,0.5c0,0.2-0.1,0.4-0.2,0.4c-0.1,0-0.1-0.2-0.1-0.5
							C60.9,101,61,100.8,61.1,100.8z"/>
					</g>
				</g>
			</g>
			<g>
				<polygon class="st9" points="48.5,184.6 64.4,184.9 64.3,182.2 48.5,182.3 				"/>
			</g>
		</g>
		<g>
			<polygon class="st4" points="66.3,86.7 64.7,56 47.1,56 44.3,87.6 			"/>
		</g>
		<g>
			<path class="st4" d="M70.2,38.5c0,0-7.1,1.9-7.2,18.6H60c0,0-0.8-14.1,7-19.6C67,37.6,69.3,37,70.2,38.5z"/>
		</g>
		<g>
			<path class="st4" d="M55.1,37.4c0,0-5.1,2.4-5.2,19.1h-2.4c0,0-0.2-15.7,4.6-18.8C52,37.7,53.5,36.7,55.1,37.4z"/>
		</g>
		<g>
			<g>
				<g>
					<path class="st9" d="M89.7,182.3c0.1,0,0.2,0.2,0.2,0.4c0,0.2,0,0.5-0.1,0.5c-0.1,0-0.2-0.2-0.2-0.4
						C89.6,182.5,89.7,182.3,89.7,182.3z"/>
				</g>
			</g>
			<g>
				<g>
					<path class="st9" d="M89.2,178.8c0.1,0,0.2,0.4,0.3,0.8c0.1,0.5,0.1,0.9,0,0.9c-0.1,0-0.2-0.4-0.3-0.8
						C89.1,179.2,89.1,178.8,89.2,178.8z"/>
				</g>
			</g>
			<g>
				<g>
					<path class="st9" d="M88.6,175.3c0.1,0,0.2,0.4,0.3,0.8c0.1,0.5,0.1,0.9,0,0.9c-0.1,0-0.2-0.4-0.3-0.8
						C88.5,175.7,88.5,175.3,88.6,175.3z"/>
				</g>
			</g>
			<g>
				<g>
					<path class="st9" d="M88,171.8c0.1,0,0.2,0.4,0.3,0.8c0.1,0.5,0.1,0.9,0,0.9c-0.1,0-0.2-0.4-0.3-0.8
						C87.9,172.2,87.9,171.8,88,171.8z"/>
				</g>
			</g>
			<g>
				<g>
					<path class="st9" d="M87.4,168.3c0.1,0,0.2,0.4,0.3,0.8c0.1,0.5,0.1,0.9,0,0.9c-0.1,0-0.2-0.4-0.3-0.8
						C87.3,168.7,87.3,168.3,87.4,168.3z"/>
				</g>
			</g>
			<g>
				<g>
					<path class="st9" d="M86.8,164.8c0.1,0,0.2,0.4,0.3,0.8c0.1,0.5,0.1,0.9,0,0.9c-0.1,0-0.2-0.4-0.3-0.8
						C86.8,165.2,86.8,164.8,86.8,164.8z"/>
				</g>
			</g>
			<g>
				<g>
					<path class="st9" d="M86.2,161.3c0.1,0,0.2,0.4,0.3,0.8c0.1,0.5,0.1,0.9,0,0.9c-0.1,0-0.2-0.4-0.3-0.8
						C86.2,161.8,86.2,161.4,86.2,161.3z"/>
				</g>
			</g>
			<g>
				<g>
					<path class="st9" d="M85.6,157.9c0.1,0,0.2,0.4,0.3,0.8c0.1,0.5,0.1,0.9,0,0.9c-0.1,0-0.2-0.4-0.3-0.8
						C85.6,158.3,85.6,157.9,85.6,157.9z"/>
				</g>
			</g>
			<g>
				<g>
					<path class="st9" d="M85,154.4c0.1,0,0.2,0.4,0.3,0.8c0.1,0.5,0.1,0.9,0,0.9c-0.1,0-0.2-0.4-0.3-0.8
						C84.9,154.8,84.9,154.4,85,154.4z"/>
				</g>
			</g>
			<g>
				<g>
					<path class="st9" d="M84.4,150.9c0.1,0,0.2,0.4,0.3,0.8c0.1,0.5,0.1,0.9,0,0.9c-0.1,0-0.2-0.4-0.3-0.8
						C84.3,151.3,84.3,150.9,84.4,150.9z"/>
				</g>
			</g>
			<g>
				<g>
					<path class="st9" d="M83.8,147.4c0.1,0,0.2,0.4,0.3,0.8c0.1,0.5,0.1,0.9,0,0.9c-0.1,0-0.2-0.4-0.3-0.8
						C83.7,147.8,83.7,147.4,83.8,147.4z"/>
				</g>
			</g>
			<g>
				<g>
					<path class="st9" d="M83.2,143.9c0.1,0,0.2,0.4,0.3,0.8c0.1,0.5,0.1,0.9,0,0.9c-0.1,0-0.2-0.4-0.3-0.8
						C83.1,144.3,83.1,143.9,83.2,143.9z"/>
				</g>
			</g>
			<g>
				<g>
					<path class="st9" d="M82.5,140.4c0.1,0,0.2,0.4,0.3,0.8c0.1,0.5,0.1,0.9,0,0.9c-0.1,0-0.2-0.4-0.3-0.8
						C82.5,140.9,82.5,140.4,82.5,140.4z"/>
				</g>
			</g>
			<g>
				<g>
					<path class="st9" d="M81.9,137c0.1,0,0.2,0.4,0.3,0.8c0.1,0.5,0.1,0.9,0,0.9c-0.1,0-0.2-0.4-0.3-0.8
						C81.8,137.4,81.8,137,81.9,137z"/>
				</g>
			</g>
			<g>
				<g>
					<path class="st9" d="M81.3,133.5c0.1,0,0.2,0.4,0.3,0.8c0.1,0.5,0.1,0.9,0,0.9c-0.1,0-0.2-0.4-0.3-0.8
						C81.2,133.9,81.2,133.5,81.3,133.5z"/>
				</g>
			</g>
			<g>
				<g>
					<path class="st9" d="M80.6,130c0.1,0,0.2,0.4,0.3,0.8c0.1,0.5,0.1,0.9,0,0.9s-0.2-0.4-0.3-0.8C80.5,130.4,80.5,130,80.6,130z"
						/>
				</g>
			</g>
			<g>
				<g>
					<path class="st9" d="M80,126.5c0.1,0,0.2,0.4,0.3,0.8c0.1,0.5,0.1,0.9,0,0.9c-0.1,0-0.2-0.4-0.3-0.8
						C79.9,126.9,79.9,126.5,80,126.5z"/>
				</g>
			</g>
			<g>
				<g>
					<path class="st9" d="M79.3,123c0.1,0,0.2,0.4,0.3,0.8c0.1,0.5,0.1,0.9,0,0.9c-0.1,0-0.2-0.4-0.3-0.8
						C79.2,123.5,79.2,123.1,79.3,123z"/>
				</g>
			</g>
			<g>
				<g>
					<path class="st9" d="M78.6,119.6c0.1,0,0.2,0.4,0.3,0.8c0.1,0.5,0.1,0.9,0,0.9c-0.1,0-0.2-0.4-0.3-0.8
						C78.6,120,78.6,119.6,78.6,119.6z"/>
				</g>
			</g>
			<g>
				<g>
					<path class="st9" d="M78,116.1c0.1,0,0.2,0.4,0.3,0.8c0.1,0.5,0.1,0.9,0,0.9c-0.1,0-0.2-0.4-0.3-0.8
						C77.9,116.5,77.9,116.1,78,116.1z"/>
				</g>
			</g>
			<g>
				<g>
					<path class="st9" d="M77.3,112.6c0.1,0,0.2,0.4,0.3,0.8c0.1,0.5,0.1,0.9,0,0.9c-0.1,0-0.2-0.4-0.3-0.8
						C77.2,113,77.2,112.6,77.3,112.6z"/>
				</g>
			</g>
			<g>
				<g>
					<path class="st9" d="M76.6,109.1c0.1,0,0.2,0.4,0.3,0.8c0.1,0.5,0.1,0.9,0,0.9s-0.2-0.4-0.3-0.8
						C76.5,109.6,76.5,109.2,76.6,109.1z"/>
				</g>
			</g>
			<g>
				<g>
					<path class="st9" d="M75.9,105.7c0.1,0,0.2,0.4,0.3,0.8c0.1,0.5,0.1,0.9,0,0.9c-0.1,0-0.2-0.4-0.3-0.8
						C75.9,106.1,75.8,105.7,75.9,105.7z"/>
				</g>
			</g>
			<g>
				<g>
					<path class="st9" d="M75.2,102.2c0.1,0,0.2,0.4,0.3,0.8c0.1,0.5,0.1,0.9,0,0.9c-0.1,0-0.2-0.4-0.3-0.8
						C75.2,102.6,75.2,102.2,75.2,102.2z"/>
				</g>
			</g>
			<g>
				<g>
					<path class="st9" d="M74.5,98.7c0.1,0,0.2,0.4,0.3,0.8c0.1,0.5,0.1,0.9,0,0.9c-0.1,0-0.2-0.4-0.3-0.8
						C74.5,99.2,74.5,98.7,74.5,98.7z"/>
				</g>
			</g>
			<g>
				<g>
					<path class="st9" d="M73.8,95.3c0.1,0,0.2,0.4,0.3,0.8c0.1,0.5,0.1,0.9,0,0.9c-0.1,0-0.2-0.4-0.3-0.8
						C73.8,95.7,73.8,95.3,73.8,95.3z"/>
				</g>
			</g>
			<g>
				<g>
					<path class="st9" d="M73.3,92.6c0.1,0,0.2,0.2,0.2,0.4c0,0.2,0,0.5-0.1,0.5c-0.1,0-0.2-0.2-0.2-0.4
						C73.2,92.9,73.2,92.7,73.3,92.6z"/>
				</g>
			</g>
		</g>
		<g>
			<g>
				<path class="st9" d="M50,55.6c0,0,0.1,0.3,0.2,0.9c0,0.3,0,0.6-0.2,1c-0.2,0.3-0.5,0.7-1,0.8c-0.5,0.1-0.9-0.2-1.2-0.5
					c-0.3-0.3-0.3-0.7-0.4-1c0-0.6,0.2-0.9,0.2-0.9c0.1,0-0.1,0.3,0,0.9c0,0.3,0.1,0.6,0.3,0.8c0.2,0.2,0.6,0.4,0.9,0.4
					c0.4-0.1,0.6-0.3,0.8-0.6c0.2-0.3,0.2-0.6,0.2-0.9C49.9,56,49.9,55.6,50,55.6z"/>
			</g>
		</g>
		<g>
			<g>
				<path class="st9" d="M48.7,56.1c0,0,0.2-0.1,0.4,0.1c0.1,0.1,0.2,0.2,0.2,0.4c0,0.2-0.2,0.4-0.4,0.4c-0.2,0-0.5,0-0.6-0.2
					c-0.1-0.2-0.1-0.4,0-0.5c0.1-0.3,0.3-0.2,0.3-0.2c0,0-0.1,0.1-0.1,0.3c0,0.2,0.1,0.4,0.3,0.3c0.2,0,0.3-0.3,0.2-0.4
					C48.8,56.1,48.7,56.1,48.7,56.1z"/>
			</g>
		</g>
		<g>
			<g>
				<path class="st9" d="M62.7,55.7c0,0,0.1,0.3,0.1,0.8c0,0.3-0.1,0.6-0.2,0.9c-0.2,0.3-0.6,0.6-1,0.6c-0.4,0-0.8-0.2-1.1-0.4
					c-0.3-0.3-0.4-0.6-0.5-0.8c-0.1-0.5-0.1-0.9,0-0.9c0.1,0,0.1,0.3,0.2,0.8c0.1,0.2,0.2,0.5,0.5,0.7c0.2,0.2,0.6,0.3,0.9,0.3
					c0.3,0,0.6-0.2,0.8-0.5c0.2-0.3,0.2-0.5,0.3-0.8C62.7,56.1,62.7,55.7,62.7,55.7z"/>
			</g>
		</g>
		<g>
			<g>
				<path class="st9" d="M61.3,56.1c0,0,0.2-0.1,0.3,0.1c0.1,0.1,0.1,0.2,0.1,0.4c0,0.2-0.2,0.3-0.4,0.3c-0.2,0-0.4,0-0.5-0.2
					c-0.1-0.1-0.1-0.3,0-0.4c0.1-0.2,0.3-0.2,0.3-0.2c0,0-0.1,0.1-0.1,0.2c0,0.1,0.1,0.2,0.2,0.2c0.2,0,0.2-0.2,0.1-0.3
					C61.4,56.2,61.3,56.1,61.3,56.1z"/>
			</g>
		</g>
		<g>
			<g>
				<path class="st9" d="M62,63.5c0,0-0.1,0.1-0.4,0.3c-0.3,0.2-0.7,0.4-1.2,0.6c-1,0.5-2.6,1.1-4.3,1.4c-1.7,0.3-3.4,0.4-4.5,0.3
					c-0.6,0-1-0.1-1.4-0.2c-0.3-0.1-0.5-0.1-0.5-0.1c0-0.1,0.7,0,1.9,0c1.1,0,2.7-0.1,4.4-0.4c1.7-0.3,3.2-0.8,4.3-1.3
					C61.4,63.8,62,63.4,62,63.5z"/>
			</g>
		</g>
	</g>
	<g>
		<g>
			<polygon class="st1" points="75.9,90.4 43.9,87.6 43.9,91.3 75.9,94 			"/>
		</g>
		<g>
			<g>
				<path class="st9" d="M54,88.3c0,0-0.5,0-1.3,0c-0.8,0-2-0.1-3.3-0.2l0.1-0.2c0.2,1.1,0.4,2.3,0.7,3.7c0,0.1,0,0.2,0.1,0.3
					L50,91.7c1.6,0.1,3,0.2,4.3,0.3l-0.1,0.1C54.1,91,54,90.1,54,89.4C54,88.7,54,88.3,54,88.3c0,0,0.1,0.3,0.1,1
					c0.1,0.7,0.2,1.6,0.3,2.8l0,0.1l-0.2,0C53,92.2,51.6,92.1,50,92l-0.1,0l0-0.1c0-0.1,0-0.2-0.1-0.3c-0.2-1.3-0.4-2.6-0.6-3.7
					l0-0.2l0.2,0c1.4,0.1,2.6,0.3,3.4,0.4C53.6,88.2,54,88.3,54,88.3z"/>
			</g>
		</g>
		<g>
			<g>
				<path class="st4" d="M47.9,89.1c0-0.1,0.8-0.1,1.8,0c1,0.1,1.8,0.2,1.8,0.3c0,0.1-0.8,0.1-1.8,0C48.7,89.3,47.9,89.2,47.9,89.1z
					"/>
			</g>
		</g>
		<g>
			<g>
				<path class="st4" d="M47.7,90.1c0-0.1,0.9-0.1,1.9,0c1,0.1,1.9,0.3,1.9,0.3c0,0.1-0.9,0.1-1.9,0C48.5,90.4,47.6,90.2,47.7,90.1z
					"/>
			</g>
		</g>
	</g>
	<g>
		<g>
			<g>
				<g>
					<path class="st9" d="M12.4,56.7l-8.8-3l-0.3,1.1c0,0,3.4,5.4,7.5,6.5L12.4,56.7z"/>
				</g>
				<g>
					<path class="st9" d="M38.6,72.5c0,0-13.6-9.5-14.4-9.8c-0.8-0.3-6.7-0.3-8.1-0.1c-1.5,0.2-5.6-0.3-5.6-0.3l4.3-12l-9.2-2.4
						l0.5-1.6c0,0,7.4-4.4,11.6-3.2c4.3,1.3,6.3,6.9,7.1,8.2c0.9,1.4,2.8,6.3,11.9,12.2l5.4,3.6L38.6,72.5z"/>
				</g>
				<g>
					<g>
						<path class="st4" d="M23.9,53.2c0,0,0,0.1-0.1,0.1c0,0.1-0.1,0.2-0.2,0.4c-0.1,0.3-0.4,0.8-0.6,1.4c-0.5,1.2-1.3,3-2.2,5.1
							l-0.1-0.1c0.5,0,1,0,1.6,0c0.5,0,1.1,0.1,1.7,0.3c1,0.6,2,1.3,3.1,2c2.1,1.4,4.4,3,6.8,4.7c0.3,0.2,0.6,0.4,1,0.5
							c0.4,0,0.7,0,1-0.2c0.6-0.3,1-1.1,0.8-1.8c-0.1-0.3-0.3-0.6-0.5-0.9c-0.3-0.2-0.6-0.4-0.9-0.6c-0.6-0.4-1.1-0.8-1.7-1.2
							c-2.2-1.6-4.2-3-5.9-4.2c-0.4-0.3-0.8-0.7-1.1-1c-0.3-0.4-0.5-0.7-0.8-1.1c-0.5-0.7-0.8-1.3-1.1-1.8c-0.3-0.5-0.5-0.9-0.7-1.2
							c-0.1-0.1-0.1-0.2-0.2-0.3C24,53.2,23.9,53.2,23.9,53.2C23.9,53.2,24,53.2,23.9,53.2c0.1,0.2,0.2,0.3,0.2,0.4
							c0.2,0.3,0.4,0.7,0.7,1.1c0.3,0.5,0.7,1.1,1.1,1.8c0.2,0.3,0.5,0.7,0.8,1c0.3,0.4,0.6,0.7,1,1c1.7,1.2,3.7,2.6,5.9,4.2
							c0.6,0.4,1.1,0.8,1.7,1.2c0.3,0.2,0.6,0.4,0.9,0.6c0.3,0.3,0.5,0.6,0.6,1c0.2,0.8-0.2,1.7-0.9,2.1c-0.4,0.2-0.8,0.3-1.2,0.2
							c-0.4,0-0.8-0.3-1.1-0.5c-2.4-1.7-4.7-3.3-6.8-4.7c-1.1-0.7-2.1-1.4-3-2c-0.5-0.2-1.1-0.3-1.6-0.3c-0.5,0-1,0-1.5,0l-0.1,0
							l0.1-0.1c1-2.1,1.8-3.9,2.3-5.1c0.3-0.6,0.5-1,0.6-1.4c0.1-0.1,0.1-0.3,0.2-0.3C23.9,53.2,23.9,53.2,23.9,53.2z"/>
					</g>
				</g>
				<g>
					<path class="st9" d="M59.2,83.4L59.2,83.4c-1.3,1.9-3.9,2.4-5.7,1L35.4,70.2l3.2-5.5l19.6,13.1C60,79.1,60.4,81.6,59.2,83.4z"
						/>
				</g>
			</g>
			<g>
				<g>
					<polygon class="st4" points="19.4,52.4 17.8,57.5 14.8,57.5 16.6,52.4 					"/>
				</g>
				<g>
					<g>
						<path class="st4" d="M14.6,56.4c0-0.1,1-0.2,2.2-0.2c1.2,0,2.2,0.1,2.2,0.2c0,0.1-1,0.2-2.2,0.2
							C15.6,56.6,14.6,56.5,14.6,56.4z"/>
					</g>
				</g>
				<g>
					<g>
						<path class="st4" d="M15.1,54.8c0-0.1,1-0.2,2.2-0.2c1.2,0,2.2,0.1,2.2,0.2c0,0.1-1,0.2-2.2,0.2C16.1,55,15.1,54.9,15.1,54.8z
							"/>
					</g>
				</g>
				<g>
					<g>
						<path class="st4" d="M15.5,53.2c0-0.1,1-0.2,2.2-0.2c1.2,0,2.2,0.1,2.2,0.2c0,0.1-1,0.2-2.2,0.2
							C16.5,53.4,15.5,53.4,15.5,53.2z"/>
					</g>
				</g>
			</g>
		</g>
		<g>
			<g>
				<path class="st4" d="M12.5,56.1c0.1,0-0.2,1.2-0.7,2.7c-0.5,1.4-1,2.6-1.1,2.5c-0.1,0,0.4-1.2,0.9-2.6
					C12,57.3,12.4,56.1,12.5,56.1z"/>
			</g>
		</g>
	</g>
	<path class="st3" d="M88,71.3c0.1-4.5-4.8-13.4-4.8-13.4l-8.7,5.5L76,67l-19.4,8l-5.3,0.2l-3.4,4.9l4.4,4l11.4-3.1
		C70.8,79.7,88,76.3,88,71.3z"/>
</g>
</svg>
