<svg id="Camada_1" data-name="Camada 1" xmlns="http://www.w3.org/2000/svg" viewBox="0 0 87.87 91.65"><defs><style>.cls-1{fill:#f5f5f5;}.cls-2{fill:#e1e1e1;}.cls-3{fill:#ececec;}.cls-4{fill:#1a2e35;}.cls-5{opacity:0.3;}.cls-6{fill:#fff;}</style></defs><path class="cls-1" d="M12.93,57.19v22H9.24v2.4h3.69V96.37H81.69V83h-5.1V80h5.1V75.63h2.25v-2H81.26V57.19Z" transform="translate(-9.13 -4.72)"/><polygon class="cls-2" points="54.3 52.54 54.3 91.4 72.55 91.4 72.55 77.98 67.46 77.98 67.46 75.3 72.55 75.39 72.55 71.01 74.87 71.01 74.83 68.74 72.13 68.67 72.13 52.47 54.3 52.54"/><path class="cls-2" d="M64.72,81.3c0,.14-12.45.25-27.79.25s-27.8-.11-27.8-.25,12.44-.25,27.8-.25S64.72,81.16,64.72,81.3Z" transform="translate(-9.13 -4.72)"/><path class="cls-2" d="M64.72,79.05c0,.14-12.45.25-27.79.25s-27.8-.11-27.8-.25,12.44-.24,27.8-.24S64.72,78.93,64.72,79.05Z" transform="translate(-9.13 -4.72)"/><path class="cls-2" d="M68.3,73c0,.14-12.45.25-27.8.25S12.71,73.17,12.71,73s12.43-.25,27.79-.25S68.3,72.91,68.3,73Z" transform="translate(-9.13 -4.72)"/><path class="cls-2" d="M68.64,89.46c0,.13-12.45.24-27.79.24s-27.8-.11-27.8-.24,12.44-.25,27.8-.25S68.64,89.32,68.64,89.46Z" transform="translate(-9.13 -4.72)"/><path class="cls-3" d="M92.59,71.06,50.21,79.42a5.42,5.42,0,0,1-6.36-4.25L32.27,16.52a5.41,5.41,0,0,1,4.25-6.35L63.4,4.86l25,17.34,8.4,42.52A5.38,5.38,0,0,1,92.59,71.06Z" transform="translate(-9.13 -4.72)"/><path class="cls-1" d="M63.42,4.86l3.25,16.5a5,5,0,0,0,5.91,3.95l15.88-3.13Z" transform="translate(-9.13 -4.72)"/><path class="cls-2" d="M67.17,22.77a5.61,5.61,0,0,0,5.39,4.47h.56c2.15,0,16.26-.3,16.21-.62s-.87-4.43-.87-4.43L72.58,25.33S68.59,26,67.17,22.77Z" transform="translate(-9.13 -4.72)"/><path class="cls-4" d="M92.59,71.06l.23-.08a4.24,4.24,0,0,0,.66-.21,5.53,5.53,0,0,0,2.19-1.6A5.39,5.39,0,0,0,96.82,65c-.3-1.71-.73-3.7-1.17-5.91-1.76-8.88-4.29-21.57-7.35-36.93l0,.09L63.31,5l.11,0L47.91,8.05c-2.67.53-5.37,1.07-8.11,1.6l-2.07.41a12.26,12.26,0,0,0-2,.48,5.28,5.28,0,0,0-2.93,2.74,5.14,5.14,0,0,0-.43,2.81c.14.95.37,1.93.55,2.89.37,1.92.75,3.82,1.12,5.71q1.13,5.68,2.21,11.18c1.44,7.33,2.85,14.4,4.16,21.14.66,3.37,1.32,6.66,1.94,9.85.32,1.6.63,3.16.93,4.71.16.77.3,1.55.44,2.3a12.2,12.2,0,0,0,.54,2.22,5.32,5.32,0,0,0,3.1,3,5,5,0,0,0,2.1.3,19.62,19.62,0,0,0,2.1-.36c2.77-.55,5.44-1.06,8-1.56l24.15-4.72c2.85-.55,5-1,6.57-1.26l1.7-.32.63-.07-.57.12-1.71.36-6.55,1.31L59.62,77.68l-8,1.58c-.69.13-1.39.3-2.13.37a5.11,5.11,0,0,1-2.21-.32,5.5,5.5,0,0,1-3.24-3.07A12.94,12.94,0,0,1,43.5,74c-.14-.76-.3-1.53-.46-2.29-.31-1.55-.63-3.12-.95-4.72-.64-3.18-1.28-6.48-2-9.84C38.8,50.37,37.39,43.31,36,36c-.73-3.66-1.46-7.4-2.21-11.17-.37-1.89-.74-3.81-1.13-5.72-.18-1-.4-1.9-.56-2.9a5.53,5.53,0,0,1,3.56-5.87,14.41,14.41,0,0,1,2.09-.5l2.06-.41,8.12-1.6,15.5-3.06,0,0,.06,0,25,17.35,0,0,0,.06c3,15.36,5.5,28.07,7.24,37,.43,2.22.84,4.18,1.14,5.93a5.39,5.39,0,0,1-1.21,4.18,5.52,5.52,0,0,1-2.23,1.58,3.08,3.08,0,0,1-.67.2A1.27,1.27,0,0,0,92.59,71.06Z" transform="translate(-9.13 -4.72)"/><path class="cls-4" d="M88.44,22.2a1.32,1.32,0,0,1-.41.1c-.3.08-.68.17-1.16.27l-4.29.89c-1.81.38-4,.8-6.37,1.3-1.21.23-2.45.48-3.77.75a5.24,5.24,0,0,1-4-1,5.12,5.12,0,0,1-1.38-1.62,5.61,5.61,0,0,1-.63-2c-.25-1.3-.49-2.57-.73-3.78l-1.22-6.39c-.34-1.79-.61-3.25-.81-4.3-.08-.48-.14-.88-.19-1.18s0-.41,0-.41a1.82,1.82,0,0,1,.1.41l.27,1.16c.21,1.05.52,2.51.89,4.29s.8,4,1.3,6.37c.23,1.19.5,2.46.75,3.76a5.74,5.74,0,0,0,.6,1.88,4.83,4.83,0,0,0,1.32,1.53,4.92,4.92,0,0,0,3.77.95l3.76-.73,6.39-1.23,4.3-.8,1.18-.2C88.3,22.2,88.44,22.18,88.44,22.2Z" transform="translate(-9.13 -4.72)"/><path class="cls-4" d="M65.52,19.74c0,.09-5,1.14-11.15,2.37s-11.19,2.14-11.21,2.06,5-1.14,11.14-2.36S65.5,19.67,65.52,19.74Z" transform="translate(-9.13 -4.72)"/><path class="cls-4" d="M77.76,25.88c0,.09-7.35,1.6-16.44,3.4s-16.5,3.19-16.52,3.1,7.35-1.6,16.44-3.4S77.74,25.81,77.76,25.88Z" transform="translate(-9.13 -4.72)"/><path class="cls-4" d="M79.38,34.12c0,.09-7.35,1.61-16.45,3.4s-16.49,3.19-16.51,3.1,7.35-1.6,16.44-3.4S79.36,34,79.38,34.12Z" transform="translate(-9.13 -4.72)"/><path class="cls-4" d="M48,48.88c0-.09,7.35-1.6,16.44-3.4S81,42.29,81,42.38s-7.35,1.6-16.45,3.4S48.06,49,48,48.88Z" transform="translate(-9.13 -4.72)"/><path class="cls-4" d="M82.64,50.59c0,.09-7.35,1.6-16.45,3.4s-16.5,3.18-16.52,3.09,7.36-1.6,16.45-3.4S82.62,50.52,82.64,50.59Z" transform="translate(-9.13 -4.72)"/><path class="cls-4" d="M84.26,58.83c0,.09-7.35,1.6-16.45,3.4s-16.5,3.18-16.52,3.09,7.36-1.6,16.45-3.39S84.24,58.74,84.26,58.83Z" transform="translate(-9.13 -4.72)"/><g class="cls-5"><path d="M68.4,64,33.89,70.77a.75.75,0,0,1-.89-.59l-2.9-14.7a.74.74,0,0,1,.58-.89L65.2,47.78a.75.75,0,0,1,.89.58L69,63.06A.74.74,0,0,1,68.4,64Z" transform="translate(-9.13 -4.72)"/></g><path class="cls-6" d="M41,63.92l1-.22-1-4.18-1,.22-.23-1.07L42,58.19l1.17,5.27.87-.2.23,1-3,.66Z" transform="translate(-9.13 -4.72)"/><path class="cls-6" d="M43.94,59.65c-.28-1.32.84-2.17,2-2.44s2.72-.07,3.06,1.4-.78,2.18-2.08,2.46c-.52.13-1.34.45-1.18,1.12l.13.54,3.89-.88L50,63,44.94,64.1c-.12-.56-.25-1.09-.37-1.66-.32-1.44.89-2.15,2.11-2.44.49-.1,1.32-.37,1.16-1.1S47,58,46.19,58.22c-.63.15-1.18.59-1.07,1.16Z" transform="translate(-9.13 -4.72)"/><path class="cls-6" d="M49.91,59.22A2.82,2.82,0,1,1,55.41,58l.19.91a2.82,2.82,0,1,1-5.5,1.23Zm1.37.64a1.62,1.62,0,1,0,3.15-.71l-.2-.91a1.62,1.62,0,1,0-3.15.71Z" transform="translate(-9.13 -4.72)"/><path class="cls-6" d="M59.39,55.77l1,.42-.36.73a2,2,0,0,1,.77,1.21A1.81,1.81,0,0,1,60.18,60a1.51,1.51,0,0,1,1.24,1.26,2,2,0,0,1-1.76,2.45A2.08,2.08,0,0,1,57,62.23L58.08,62a1.06,1.06,0,0,0,1.37.69c.62-.14,1-.58.9-1.19A1,1,0,0,0,59,60.84a2.13,2.13,0,0,1-2.74-1.73A2.19,2.19,0,0,1,58,56.37a2,2,0,0,1,1.07,0Zm-2,3.11a1.18,1.18,0,1,0,.88-1.49A1.16,1.16,0,0,0,57.36,58.88Z" transform="translate(-9.13 -4.72)"/></svg>