<?xml version="1.0" encoding="utf-8"?>
<!-- Generator: Adobe Illustrator 26.0.3, SVG Export Plug-In . SVG Version: 6.00 Build 0)  -->
<svg version="1.1" id="Camada_1" xmlns="http://www.w3.org/2000/svg" xmlns:xlink="http://www.w3.org/1999/xlink" x="0px" y="0px"
	 viewBox="0 0 1920 1342.3" style="enable-background:new 0 0 1920 1342.3;" xml:space="preserve">
<style type="text/css">
	.st0{fill:#ECECEC;}
	.st1{fill:#F5F5F5;}
	.st2{fill:#E1E1E1;}
	.st3{fill:#FFFFFF;}
	.st4{fill:#1A2E35;}
	.st5{opacity:0.3;}
</style>
<g>
	<g>
		<g>
			<g>
				<g>
					<g>
						<g>
							<g>
								<g>
									<g>
										<path class="st0" d="M1637.4,777.3h-200.9c-13.9,0-25.1-11.3-25.1-25.1V474.1c0-13.9,11.3-25.1,25.1-25.1h127.4
											l98.6,101.6v201.5C1662.6,766,1651.3,777.3,1637.4,777.3z"/>
									</g>
								</g>
							</g>
						</g>
					</g>
					<g>
						<g>
							<g>
								<g>
									<g>
										<path class="st1" d="M1563.9,448.9v78.3c0,12.9,10.5,23.4,23.4,23.4h75.2L1563.9,448.9z"/>
									</g>
								</g>
							</g>
						</g>
					</g>
					<g>
						<g>
							<g>
								<g>
									<g>
										<path class="st2" d="M1565,534.1c0,0-1,19,20.6,25.2c0.8,0.2,1.6,0.4,2.5,0.6c9.8,1.8,74.5,13.3,74.5,11.8
											c0-1.6,0-21,0-21h-75.2C1587.3,550.6,1568.5,549.9,1565,534.1z"/>
									</g>
								</g>
							</g>
						</g>
					</g>
				</g>
			</g>
			<g>
				<g>
					<g>
						<g>
							<g>
								<g>
									<path class="st2" d="M1637.4,777.3c0-0.1,1.5,0,4.3-0.5s7.1-1.8,11.4-5.3c4.2-3.5,8.6-9.6,9-17.7c0.1-8.1,0-17.5,0-28
										c-0.1-42.1-0.2-102.3-0.3-175.1l0.2,0.5c-29.9-30.7-63.2-65-98.7-101.6l0.6,0.3c-23.6,0-48.2,0-73.5,0
										c-12.7,0-25.5,0-38.5,0c-3.2,0-6.5,0-9.8,0s-6.6-0.2-9.6,0.4c-6.3,1-12.1,4.6-15.8,9.8c-2.6,3.6-4.2,7.9-4.4,12.4
										c-0.2,4.5,0,9.1-0.1,13.6c0,9.1,0,18.1,0,27.1c0,18,0,35.6,0,53c0,34.8,0,68.3-0.1,100.2c0,16,0,31.5,0,46.7
										c0,7.6,0,15,0,22.4c0,3.7,0,7.3,0,10.9c0.1,3.6-0.2,7.2,0.5,10.6c1.3,6.8,5.7,12.7,11.4,16.2c2.8,1.7,6,2.8,9.3,3.3
										c3.2,0.4,6.6,0.2,9.9,0.3c13.2,0,25.8,0,37.9,0.1c48.3,0.1,87.4,0.2,114.4,0.3c13.5,0.1,23.9,0.1,31.1,0.2
										c3.5,0,6.2,0.1,8.1,0.1C1636.5,777.2,1637.4,777.3,1637.4,777.3s-0.9,0.1-2.8,0.1s-4.6,0-8.1,0.1c-7.2,0-17.6,0.1-31.1,0.2
										c-27.1,0.1-66.1,0.2-114.4,0.3c-12.1,0-24.7,0-37.9,0.1c-3.3-0.1-6.6,0.2-10.1-0.2c-3.4-0.5-6.8-1.6-9.8-3.4
										c-6-3.6-10.7-9.9-12.1-17.1c-0.7-3.6-0.4-7.3-0.5-10.9c0-3.6,0-7.3,0-10.9c0-7.3,0-14.8,0-22.4c0-15.1,0-30.7,0-46.7
										c0-31.9,0-65.5-0.1-100.2c0-17.4,0-35.1,0-53c0-9,0-18,0-27.1c0-4.6-0.1-9.1,0.1-13.8c0.3-4.7,2-9.4,4.8-13.2
										c4-5.6,10.2-9.5,16.9-10.5c3.4-0.6,6.7-0.3,9.9-0.4c3.3,0,6.5,0,9.8,0c13,0,25.8,0,38.5,0c25.3,0,49.9,0,73.5,0h0.4
										l0.2,0.3c35.5,36.6,68.7,70.9,98.5,101.7l0.2,0.2v0.3c-0.1,72.8-0.2,133-0.3,175.1c-0.1,10.5,0,19.9-0.2,28.1
										c-0.5,8.4-5,14.5-9.4,18c-4.5,3.5-8.8,4.7-11.6,5.2c-1.4,0.2-2.5,0.3-3.3,0.3C1637.8,777.3,1637.4,777.3,1637.4,777.3z"/>
								</g>
							</g>
						</g>
					</g>
				</g>
			</g>
			<g>
				<g>
					<g>
						<g>
							<g>
								<g>
									<path class="st2" d="M1662.6,550.6c0,0.1-0.7,0.1-1.9,0.2c-1.5,0-3.3,0.1-5.5,0.2c-5,0.1-12,0.2-20.4,0.3
										c-8.7,0.1-18.9,0.1-30.2,0.2c-5.7,0-11.7,0-17.9,0c-6.4-0.1-13-3.1-17.5-8.2c-2.3-2.6-3.9-5.5-4.9-8.7
										c-1.1-3.1-1.2-6.6-1.1-9.6c0-6.2,0-12.2,0.1-17.9c0.1-11.3,0.1-21.6,0.2-30.2c0.1-8.4,0.2-15.3,0.3-20.4
										c0.1-2.3,0.1-4.1,0.2-5.5c0.1-1.3,0.1-1.9,0.2-1.9s0.1,0.7,0.2,1.9c0,1.5,0.1,3.3,0.2,5.5c0.1,5,0.2,12,0.3,20.4
										c0.1,8.7,0.1,18.9,0.2,30.2c0,5.7,0,11.7,0.1,17.9c-0.4,6.1,1.4,12.4,5.6,17.2s10.3,7.5,16.2,7.6c6.2,0,12.1,0.1,17.8,0.1
										c11.3,0.1,21.6,0.1,30.2,0.2c8.4,0.1,15.3,0.2,20.4,0.3c2.3,0.1,4.1,0.1,5.5,0.2C1661.9,550.5,1662.6,550.5,1662.6,550.6z"
										/>
								</g>
							</g>
						</g>
					</g>
				</g>
			</g>
		</g>
		<g>
			<g>
				<path class="st2" d="M1560.1,518.8c0,0.5-23.7,0.9-53,0.9s-53-0.4-53-0.9s23.7-0.9,53-0.9
					C1536.4,517.9,1560.1,518.3,1560.1,518.8z"/>
			</g>
		</g>
		<g>
			<g>
				<path class="st2" d="M1610.4,557.8c0,0.5-35,0.9-78.1,0.9c-43.2,0-78.1-0.4-78.1-0.9s35-0.9,78.1-0.9
					C1575.4,556.9,1610.4,557.3,1610.4,557.8z"/>
			</g>
		</g>
		<g>
			<g>
				<path class="st2" d="M1610.4,596.8c0,0.5-35,0.9-78.1,0.9c-43.2,0-78.1-0.4-78.1-0.9s35-0.9,78.1-0.9
					C1575.4,596,1610.4,596.4,1610.4,596.8z"/>
			</g>
		</g>
		<g>
			<g>
				<path class="st2" d="M1610.4,635.9c0,0.5-35,0.9-78.1,0.9c-43.2,0-78.1-0.4-78.1-0.9s35-0.9,78.1-0.9S1610.4,635.4,1610.4,635.9
					z"/>
			</g>
		</g>
		<g>
			<g>
				<path class="st2" d="M1610.4,674.9c0,0.5-35,0.9-78.1,0.9c-43.2,0-78.1-0.4-78.1-0.9s35-0.9,78.1-0.9
					C1575.4,674.1,1610.4,674.4,1610.4,674.9z"/>
			</g>
		</g>
		<g>
			<g>
				<path class="st2" d="M1610.4,723.1c0,0.5-35,0.9-78.1,0.9c-43.2,0-78.1-0.4-78.1-0.9s35-0.9,78.1-0.9
					C1575.4,722.2,1610.4,722.6,1610.4,723.1z"/>
			</g>
		</g>
	</g>
	<g>
		<g>
			<g>
				<g>
					<g>
						<path class="st0" d="M1511.3,1035.8l-152.1,266l-301,4.3c-9.6,0.1-17.4,7.7-17.9,17.2l0,0l306.1,0.9l11.5-0.4l383.2,0.8
							l77.4-133.6l98.9-141.8c6.5-9.3-0.2-22-11.5-22l-382.5,1.5C1518.4,1028.8,1513.8,1031.5,1511.3,1035.8z"/>
					</g>
				</g>
			</g>
		</g>
		<g>
			<g>
				<g>
					<g>
						<g>
							<path class="st2" d="M1917.5,1037.4c0,0.1-0.6,0.1-1.8,0.2c-1.4,0.1-3.2,0.1-5.4,0.2c-5,0.1-11.9,0.2-20.7,0.4
								c-18.3,0.1-44.2,0.4-76.1,0.6c-64.5,0.1-153.2,0.3-251.1,0.6c-6.1,0-12.2,0-18.3,0c-5.7-0.4-11,2.1-13.9,6.6
								c-5.8,10.4-11.5,20.6-17,30.7c-11.2,20.2-22,39.7-32.3,58.3c-20.6,37.1-39.2,70.5-54.9,98.6c-15.6,27.8-28.3,50.4-37.3,66.3
								c-4.4,7.6-7.8,13.6-10.3,17.9c-1.1,1.9-2,3.4-2.8,4.6c-0.6,1-1,1.5-1.1,1.5s0.2-0.6,0.7-1.7c0.7-1.3,1.4-2.9,2.4-4.8
								c2.4-4.5,5.6-10.6,9.7-18.3c8.7-16.1,21.1-38.9,36.2-66.9c15.5-28.3,33.8-61.8,54.2-99c10.2-18.6,21-38.2,32.1-58.4
								c5.6-10.2,11.3-20.5,17.1-31c3.5-5.7,10.7-8.8,17.1-8.3c6.1,0,12.1,0,18.3,0c97.9,0.2,186.5,0.4,251.1,0.6
								c31.9,0.3,57.8,0.5,76.1,0.6c8.7,0.1,15.7,0.3,20.7,0.4c2.2,0.1,3.9,0.1,5.4,0.2C1916.9,1037.2,1917.5,1037.3,1917.5,1037.4z
								"/>
						</g>
					</g>
				</g>
			</g>
		</g>
		<g>
			<g>
				<g>
					<g>
						<path class="st3" d="M1647.8,1171.1c-6.8,7.5-6.9,18.4-0.4,24.3c6.6,5.9,17.4,4.7,24.2-2.9c6.8-7.5,6.9-18.4,0.4-24.3
							C1665.4,1162.3,1654.6,1163.6,1647.8,1171.1z"/>
					</g>
				</g>
			</g>
		</g>
	</g>
	<g>
		<g>
			<g>
				<g>
					<g>
						<g>
							<g>
								<path class="st1" d="M27.3,1040.8c0,2.9,0,159.1,0,159.1H0.7v17.3h26.6v106.5h496.5v-96.9H487v-21.1h36.8V1174h16.3v-14.4
									h-19.4v-118.8L27.3,1040.8L27.3,1040.8z"/>
							</g>
						</g>
					</g>
				</g>
			</g>
			<g>
				<g>
					<g>
						<g>
							<g>
								<polygon class="st2" points="392,1041.3 392,1321.9 523.8,1321.9 523.8,1225 487,1225 487,1205.7 523.8,1206.3 
									523.8,1174.7 540.5,1174.7 540.2,1158.3 520.7,1157.8 520.7,1040.8 								"/>
							</g>
						</g>
					</g>
				</g>
			</g>
			<g>
				<g>
					<g>
						<g>
							<g>
								<g>
									<path class="st2" d="M401.3,1214.9c0,1-89.9,1.8-200.7,1.8c-110.9,0-200.7-0.8-200.7-1.8s89.8-1.8,200.7-1.8
										S401.3,1213.9,401.3,1214.9z"/>
								</g>
							</g>
						</g>
					</g>
				</g>
			</g>
			<g>
				<g>
					<g>
						<g>
							<g>
								<g>
									<path class="st2" d="M401.3,1198.7c0,1-89.9,1.8-200.7,1.8c-110.9,0-200.7-0.8-200.7-1.8s89.8-1.8,200.7-1.8
										C311.5,1197,401.3,1197.8,401.3,1198.7z"/>
								</g>
							</g>
						</g>
					</g>
				</g>
			</g>
			<g>
				<g>
					<g>
						<g>
							<g>
								<g>
									<path class="st2" d="M427.1,1155.2c0,1-89.9,1.8-200.7,1.8c-110.9,0-200.7-0.8-200.7-1.8s89.8-1.8,200.7-1.8
										C337.3,1153.5,427.1,1154.3,427.1,1155.2z"/>
								</g>
							</g>
						</g>
					</g>
				</g>
			</g>
			<g>
				<g>
					<g>
						<g>
							<g>
								<g>
									<path class="st2" d="M429.6,1273.8c0,1-89.9,1.8-200.7,1.8c-110.9,0-200.7-0.8-200.7-1.8s89.8-1.8,200.7-1.8
										C339.7,1272,429.6,1272.8,429.6,1273.8z"/>
								</g>
							</g>
						</g>
					</g>
				</g>
			</g>
		</g>
	</g>
	<g>
		<g>
			<g>
				<g>
					<g>
						<g>
							<g>
								<g>
									<g>
										<path class="st0" d="M1045.8,345.8H849.6c-13.6,0-24.6-11-24.6-24.6V49.6C825,36,836,25,849.6,25h124.5l96.3,99.3v196.9
											C1070.4,334.8,1059.4,345.8,1045.8,345.8z"/>
									</g>
								</g>
							</g>
						</g>
					</g>
					<g>
						<g>
							<g>
								<g>
									<g>
										<path class="st1" d="M974,25.1v76.4c0,12.6,10.2,22.8,22.8,22.8h73.5L974,25.1z"/>
									</g>
								</g>
							</g>
						</g>
					</g>
					<g>
						<g>
							<g>
								<g>
									<g>
										<path class="st2" d="M975,108.3c0,0-1,18.5,20.1,24.6c0.8,0.2,1.6,0.4,2.4,0.5c9.6,1.7,72.8,13,72.8,11.5
											c0-1.6,0-20.5,0-20.5h-73.5C996.8,124.4,978.5,123.8,975,108.3z"/>
									</g>
								</g>
							</g>
						</g>
					</g>
				</g>
			</g>
			<g>
				<g>
					<g>
						<g>
							<g>
								<g>
									<path class="st2" d="M1045.8,345.8c0-0.1,1.5,0,4.2-0.5s6.9-1.7,11.1-5.2c4.1-3.4,8.4-9.4,8.8-17.3c0.1-7.9,0-17.1,0-27.4
										c-0.1-41.1-0.2-100-0.3-171.1l0.2,0.5c-29.2-30-61.7-63.5-96.4-99.2l0.6,0.3c-23.1,0-47.1,0-71.8,0c-12.4,0-24.9,0-37.6,0
										c-3.2,0-6.3,0-9.5,0s-6.4-0.2-9.4,0.3c-6.1,1-11.8,4.5-15.4,9.6c-2.5,3.5-4.1,7.8-4.3,12.1s0,8.9-0.1,13.3
										c0,8.9,0,17.7,0,26.5c0,17.5,0,34.8,0,51.8c0,34,0,66.7,0,97.9c0,15.6,0,30.8,0,45.6c0,7.4,0,14.7,0,21.8
										c0,3.6,0,7.1,0,10.7c0.1,3.5-0.2,7,0.5,10.3c1.3,6.6,5.5,12.4,11.1,15.8c2.8,1.7,5.9,2.8,9,3.2c3.1,0.4,6.4,0.2,9.7,0.3
										c12.9,0,25.2,0,37,0.1c47.2,0.1,85.3,0.2,111.8,0.3c13.2,0.1,23.4,0.1,30.4,0.2c3.4,0,6.1,0.1,7.9,0.1
										C1044.9,345.8,1045.8,345.8,1045.8,345.8s-0.9,0.1-2.7,0.1c-1.8,0-4.5,0-7.9,0.1c-7,0-17.2,0.1-30.4,0.2
										c-26.4,0.1-64.6,0.2-111.8,0.3c-11.8,0-24.2,0-37,0.1c-3.2-0.1-6.4,0.2-9.8-0.2c-3.3-0.4-6.6-1.6-9.6-3.4
										c-5.9-3.5-10.4-9.6-11.8-16.7c-0.7-3.6-0.4-7.1-0.5-10.6c0-3.5,0-7.1,0-10.7c0-7.2,0-14.5,0-21.8c0-14.8,0-30,0-45.6
										c0-31.2,0-64-0.1-97.9c0-17,0-34.3,0-51.8c0-8.8,0-17.6,0-26.5c0-4.5-0.1-8.8,0.1-13.4c0.3-4.6,2-9.2,4.7-12.9
										c3.9-5.5,10-9.2,16.5-10.3c3.3-0.5,6.5-0.3,9.7-0.4c3.2,0,6.4,0,9.5,0c12.7,0,25.2,0,37.6,0c24.7,0,48.7,0,71.8,0h0.4
										l0.2,0.3c34.7,35.8,67.1,69.3,96.3,99.4l0.2,0.2v0.3c-0.1,71.1-0.2,129.9-0.3,171.1c-0.1,10.3,0,19.4-0.2,27.4
										c-0.5,8.2-4.9,14.2-9.1,17.6c-4.4,3.5-8.6,4.6-11.4,5.1c-1.4,0.2-2.5,0.3-3.2,0.3C1046.2,345.8,1045.8,345.8,1045.8,345.8z
										"/>
								</g>
							</g>
						</g>
					</g>
				</g>
			</g>
			<g>
				<g>
					<g>
						<g>
							<g>
								<g>
									<path class="st2" d="M1070.4,124.4c0,0.1-0.7,0.1-1.9,0.2c-1.4,0-3.2,0.1-5.4,0.2c-4.9,0.1-11.7,0.2-19.9,0.3
										c-8.5,0.1-18.5,0.1-29.5,0.2c-5.6,0-11.4,0-17.5,0c-6.3-0.1-12.7-3-17.1-8c-2.2-2.5-3.8-5.4-4.8-8.5s-1.2-6.4-1.1-9.4
										c0-6,0-11.9,0.1-17.4c0.1-11.1,0.1-21.1,0.2-29.5c0.1-8.2,0.2-15,0.3-19.9c0.1-2.2,0.1-4,0.2-5.4c0.1-1.2,0.1-1.9,0.2-1.9
										c0.1,0,0.1,0.6,0.2,1.9c0,1.4,0.1,3.2,0.2,5.4c0.1,4.9,0.2,11.7,0.3,19.9C975,61,975,71,975.1,82c0,5.6,0,11.4,0.1,17.4
										c-0.4,6,1.3,12.1,5.5,16.8c4.1,4.7,10,7.3,15.8,7.5c6,0,11.9,0.1,17.4,0.1c11.1,0.1,21.1,0.1,29.5,0.2
										c8.2,0.1,15,0.2,19.9,0.3c2.2,0.1,4,0.1,5.4,0.2C1069.7,124.3,1070.4,124.3,1070.4,124.4z"/>
								</g>
							</g>
						</g>
					</g>
				</g>
			</g>
		</g>
		<g>
			<g>
				<path class="st2" d="M970.3,93.3c0,0.5-23.2,0.9-51.8,0.9s-51.8-0.4-51.8-0.9s23.2-0.9,51.8-0.9S970.3,92.8,970.3,93.3z"/>
			</g>
		</g>
		<g>
			<g>
				<path class="st2" d="M1019.4,131.4c0,0.5-34.2,0.9-76.3,0.9c-42.2,0-76.3-0.4-76.3-0.9s34.2-0.9,76.3-0.9
					C985.3,130.6,1019.4,131,1019.4,131.4z"/>
			</g>
		</g>
		<g>
			<g>
				<path class="st2" d="M1019.4,169.6c0,0.5-34.2,0.9-76.3,0.9c-42.2,0-76.3-0.4-76.3-0.9s34.2-0.9,76.3-0.9
					C985.3,168.7,1019.4,169.1,1019.4,169.6z"/>
			</g>
		</g>
		<g>
			<g>
				<path class="st2" d="M1019.4,207.7c0,0.5-34.2,0.9-76.3,0.9c-42.2,0-76.3-0.4-76.3-0.9s34.2-0.9,76.3-0.9
					C985.3,206.9,1019.4,207.2,1019.4,207.7z"/>
			</g>
		</g>
		<g>
			<g>
				<path class="st2" d="M1019.4,245.9c0,0.5-34.2,0.9-76.3,0.9c-42.2,0-76.3-0.4-76.3-0.9s34.2-0.9,76.3-0.9
					C985.3,245,1019.4,245.4,1019.4,245.9z"/>
			</g>
		</g>
		<g>
			<g>
				<path class="st2" d="M1019.4,292.9c0,0.5-34.2,0.9-76.3,0.9c-42.2,0-76.3-0.4-76.3-0.9s34.2-0.9,76.3-0.9
					C985.3,292,1019.4,292.4,1019.4,292.9z"/>
			</g>
		</g>
	</g>
	<g>
		<g>
			<g>
				<g>
					<g>
						<g>
							<g>
								<g>
									<g>
										<g>
											<g>
												<path class="st0" d="M1081.7,862.7l-238.1,47c-16.5,3.2-32.4-7.5-35.7-23.9l-65.1-329.5c-3.2-16.5,7.5-32.4,23.9-35.7
													l151-29.8l140.7,97.4l47.2,238.9C1108.9,843.5,1098.2,859.5,1081.7,862.7z"/>
											</g>
										</g>
									</g>
								</g>
							</g>
							<g>
								<g>
									<g>
										<g>
											<g>
												<path class="st1" d="M917.8,490.8l18.3,92.7c3,15.3,17.9,25.3,33.2,22.2l89.2-17.6L917.8,490.8z"/>
											</g>
										</g>
									</g>
								</g>
							</g>
							<g>
								<g>
									<g>
										<g>
											<g>
												<path class="st2" d="M938.9,591.4c0,0,3.3,22.7,30.3,25.1c1,0.1,2,0.1,3.1,0.1c12.1-0.2,91.4-1.7,91.1-3.5
													c-0.4-1.9-4.9-24.9-4.9-24.9l-89.2,17.6C969.3,605.8,946.9,609.4,938.9,591.4z"/>
											</g>
										</g>
									</g>
								</g>
							</g>
						</g>
					</g>
					<g>
						<g>
							<g>
								<g>
									<g>
										<g>
											<path class="st4" d="M1081.7,862.7c0,0,0.4-0.1,1.3-0.4c0.9-0.2,2.1-0.6,3.7-1.2c3.2-1.3,8-3.8,12.3-9
												c4.2-5.1,7.9-13.4,6.5-23.2c-1.7-9.6-4.1-20.8-6.6-33.2c-9.9-49.9-24.1-121.2-41.3-207.5l0.3,0.5
												c-42.6-29.4-90.1-62.3-140.7-97.3l0.6,0.1c-28,5.5-57.1,11.3-87.1,17.2c-15,3-30.2,6-45.6,9c-3.8,0.8-7.7,1.5-11.6,2.3
												s-7.8,1.3-11.4,2.7c-7.2,2.7-13.3,8.3-16.5,15.4c-2.2,4.9-3.1,10.5-2.4,15.8c0.8,5.3,2.1,10.8,3.1,16.2
												c2.1,10.8,4.2,21.5,6.3,32.1c4.2,21.3,8.3,42.2,12.4,62.8c8.1,41.2,16,80.9,23.4,118.8c3.7,18.9,7.4,37.4,10.9,55.3
												c1.8,9,3.5,17.8,5.2,26.5c0.9,4.3,1.7,8.7,2.5,12.9c0.9,4.3,1.4,8.6,3,12.5c3.2,7.8,9.7,13.8,17.4,16.6
												c3.8,1.4,7.8,2,11.8,1.7c3.9-0.3,7.9-1.3,11.8-2c15.6-3.1,30.6-6,45-8.8c57.3-11.2,103.6-20.2,135.7-26.5
												c16-3.1,28.4-5.5,36.9-7.1c4.2-0.8,7.4-1.4,9.6-1.8C1080.6,862.9,1081.7,862.7,1081.7,862.7s-1.1,0.3-3.2,0.7
												c-2.2,0.5-5.4,1.1-9.6,2c-8.5,1.7-20.9,4.2-36.8,7.4c-32,6.4-78.3,15.6-135.6,27.1c-14.3,2.8-29.3,5.8-44.9,8.9
												c-3.9,0.7-7.8,1.7-12,2.1c-4.1,0.3-8.4-0.3-12.4-1.8c-8-2.8-14.9-9.2-18.2-17.3c-1.7-4.1-2.2-8.5-3.1-12.7
												c-0.8-4.3-1.7-8.6-2.6-12.9c-1.7-8.7-3.5-17.5-5.3-26.5c-3.6-17.9-7.2-36.4-11-55.3c-7.5-37.9-15.4-77.6-23.5-118.8
												c-4.1-20.6-8.2-41.6-12.4-62.8c-2.1-10.6-4.2-21.4-6.4-32.1c-1-5.4-2.2-10.7-3.1-16.3c-0.8-5.6,0.2-11.5,2.5-16.7
												c3.4-7.5,9.8-13.5,17.5-16.3c3.9-1.5,7.8-1.9,11.7-2.8c3.9-0.8,7.7-1.5,11.6-2.3c15.4-3,30.6-6,45.6-9
												c30-5.9,59.1-11.7,87.1-17.2l0.3-0.1l0.3,0.2c50.6,35.1,98.1,68,140.6,97.5l0.2,0.2l0.1,0.3
												c16.9,86.3,30.9,157.7,40.7,207.6c2.4,12.5,4.7,23.5,6.4,33.3c1.4,10-2.5,18.4-6.8,23.5c-4.5,5.2-9.3,7.7-12.5,8.9
												c-1.6,0.6-2.9,1-3.8,1.1C1082.2,862.6,1081.7,862.7,1081.7,862.7z"/>
										</g>
									</g>
								</g>
							</g>
						</g>
					</g>
					<g>
						<g>
							<g>
								<g>
									<g>
										<g>
											<path class="st4" d="M1058.4,588.2c0,0.1-0.8,0.3-2.3,0.6c-1.7,0.4-3.8,0.9-6.5,1.5c-5.9,1.2-14.1,2.9-24.1,5
												c-10.2,2.1-22.4,4.5-35.8,7.3c-6.8,1.3-13.8,2.7-21.2,4.2c-7.6,1.3-16-0.6-22.5-5.6c-3.2-2.5-5.9-5.6-7.8-9.1
												c-2-3.4-2.9-7.4-3.5-11.1c-1.4-7.3-2.8-14.4-4.1-21.2c-2.6-13.5-4.9-25.6-6.9-35.9c-1.9-10.1-3.4-18.3-4.5-24.2
												c-0.5-2.7-0.8-4.9-1.1-6.6c-0.2-1.5-0.3-2.3-0.3-2.3c0.1,0,0.3,0.8,0.6,2.3c0.4,1.7,0.9,3.8,1.5,6.5
												c1.2,5.9,2.9,14.1,5,24.1c2.1,10.2,4.5,22.4,7.3,35.8c1.3,6.7,2.8,13.8,4.2,21.1c0.7,3.7,1.5,7.3,3.4,10.6
												c1.8,3.3,4.3,6.2,7.4,8.6c6.1,4.7,14,6.5,21.2,5.3c7.3-1.4,14.4-2.8,21.1-4.1c13.5-2.6,25.6-4.9,35.9-6.9
												c10.1-1.9,18.3-3.4,24.2-4.5c2.7-0.5,4.9-0.8,6.6-1.1C1057.6,588.2,1058.4,588.1,1058.4,588.2z"/>
										</g>
									</g>
								</g>
							</g>
						</g>
					</g>
				</g>
				<g>
					<g>
						<path class="st4" d="M929.6,574.4c0.1,0.5-28,6.4-62.6,13.3c-34.7,6.9-62.9,12-63,11.6c-0.1-0.5,27.9-6.4,62.6-13.3
							C901.3,579.2,929.5,574,929.6,574.4z"/>
					</g>
				</g>
				<g>
					<g>
						<path class="st4" d="M998.4,608.9c0.1,0.5-41.3,9-92.4,19.1c-51.2,10.1-92.7,17.9-92.8,17.4c-0.1-0.5,41.3-9,92.4-19.1
							C956.7,616.3,998.3,608.5,998.4,608.9z"/>
					</g>
				</g>
				<g>
					<g>
						<path class="st4" d="M1007.5,655.2c0.1,0.5-41.3,9-92.4,19.1c-51.2,10.1-92.7,17.9-92.8,17.4c-0.1-0.5,41.3-9,92.4-19.1
							C965.9,662.5,1007.4,654.7,1007.5,655.2z"/>
					</g>
				</g>
				<g>
					<g>
						<path class="st4" d="M831.4,738.1c-0.1-0.5,41.3-9,92.4-19.1c51.2-10.1,92.7-17.9,92.8-17.4c0.1,0.5-41.3,9-92.4,19.1
							C873.1,730.7,831.5,738.5,831.4,738.1z"/>
					</g>
				</g>
				<g>
					<g>
						<path class="st4" d="M1025.8,747.7c0.1,0.5-41.3,9-92.4,19.1c-51.2,10.1-92.7,17.9-92.8,17.4c-0.1-0.5,41.3-9,92.4-19.1
							C984.1,755.1,1025.7,747.3,1025.8,747.7z"/>
					</g>
				</g>
				<g>
					<g>
						<path class="st4" d="M1034.9,794c0.1,0.5-41.3,9-92.4,19.1c-51.2,10.1-92.7,17.9-92.8,17.4c-0.1-0.5,41.3-9,92.4-19.1
							C993.3,801.3,1034.8,793.5,1034.9,794z"/>
					</g>
				</g>
				<g class="st5">
					<path d="M945.8,822.8l-193.9,38.3c-2.3,0.5-4.5-1-5-3.3l-16.3-82.6c-0.5-2.3,1-4.5,3.3-5l193.9-38.3c2.3-0.5,4.5,1,5,3.3
						l16.3,82.6C949.6,820.1,948.1,822.4,945.8,822.8z"/>
				</g>
				<g>
					<path class="st3" d="M792.1,822.6l5.3-1.2l-5.3-23.5l-5.5,1.2l-1.3-6l12.1-2.7L804,820l4.9-1.1l1.3,5.6l-16.7,3.7L792.1,822.6z
						"/>
					<path class="st3" d="M808.4,798.6c-1.6-7.4,4.7-12.2,11.2-13.7c7-1.6,15.3-0.4,17.2,7.9c2,9-4.4,12.2-11.7,13.8
						c-2.9,0.7-7.5,2.5-6.6,6.3l0.7,3l21.9-4.9l1.4,6.2l-28.5,6.4c-0.7-3.1-1.4-6.1-2.1-9.3c-1.8-8.1,5-12.1,11.9-13.7
						c2.7-0.6,7.4-2.1,6.5-6.2c-0.9-3.8-4.7-4.9-9.3-3.8c-3.5,0.8-6.6,3.3-6,6.5L808.4,798.6z"/>
					<path class="st3" d="M841.9,796.2c-4.7-21,26.2-27.9,30.9-6.9l1.1,5.1c4.7,21-26.2,27.9-30.9,6.9L841.9,796.2z M849.6,799.8
						c2.9,12.8,20.5,8.8,17.7-4l-1.1-5.1c-2.8-12.6-20.5-8.8-17.7,4L849.6,799.8z"/>
					<path class="st3" d="M895.2,776.8l5.3,2.4l-2,4.1c2.4,1.7,3.6,4,4.3,6.8c0.7,3.1,0.5,7.6-3.2,10.4c4.6,1.1,6.3,3.9,7,7.1
						c1.5,6.8-2.8,12.2-9.9,13.8s-13.5-1.6-15-8.3l6.1-1.4c0.7,3.2,4.2,4.7,7.7,3.9s5.9-3.3,5.1-6.7s-4.3-4.3-7.4-3.6
						c-7.7,1.7-13.6-1.9-15.4-9.7s2.8-13.8,9.8-15.4c2-0.4,4-0.6,6,0.1L895.2,776.8z M883.8,794.3c1,4.3,4.5,6.2,8,5.4
						s5.9-4.1,4.9-8.3c-1-4.3-4.5-6.3-8-5.5C885.1,786.7,882.8,790,883.8,794.3z"/>
				</g>
			</g>
		</g>
	</g>
	<g>
		<g>
			<g>
				<g>
					<g>
						<g>
							<g>
								<g>
									<g>
										<path class="st0" d="M259.4,736.8H54.6c-14.2,0-25.6-11.5-25.6-25.6V427.7c0-14.2,11.5-25.6,25.6-25.6h129.9L285,505.7
											v205.5C285,725.4,273.6,736.8,259.4,736.8z"/>
									</g>
								</g>
							</g>
						</g>
					</g>
					<g>
						<g>
							<g>
								<g>
									<g>
										<path class="st1" d="M184.5,402.1v79.8c0,13.2,10.7,23.8,23.8,23.8H285L184.5,402.1z"/>
									</g>
								</g>
							</g>
						</g>
					</g>
					<g>
						<g>
							<g>
								<g>
									<g>
										<path class="st2" d="M185.5,488.9c0,0-1,19.4,21,25.7c0.8,0.2,1.7,0.4,2.5,0.6c10,1.8,76,13.5,76,12c0-1.6,0-21.4,0-21.4
											h-76.7C208.3,505.7,189.2,505.1,185.5,488.9z"/>
									</g>
								</g>
							</g>
						</g>
					</g>
				</g>
			</g>
			<g>
				<g>
					<g>
						<g>
							<g>
								<g>
									<path class="st4" d="M259.4,736.8c0-0.1,1.5,0,4.4-0.5s7.2-1.8,11.6-5.4c4.3-3.6,8.7-9.8,9.2-18.1c0.1-8.3,0-17.9,0-28.6
										c-0.1-42.9-0.2-104.3-0.3-178.5l0.2,0.5c-30.4-31.3-64.4-66.3-100.6-103.6l0.6,0.3c-24.1,0-49.2,0-75,0
										c-12.9,0-26,0-39.2,0c-3.3,0-6.6,0-9.9,0c-3.3,0-6.7-0.2-9.8,0.4c-6.4,1-12.3,4.7-16.1,10c-2.6,3.7-4.3,8.1-4.5,12.6
										s-0.1,9.3-0.1,13.9c0,9.3,0,18.5,0,27.7c0,18.3,0,36.3,0,54.1c0,35.4,0,69.6-0.1,102.2c0,16.3,0,32.2,0,47.6
										c0,7.7,0,15.3,0,22.8c0,3.7,0,7.5,0,11.1c0.1,3.7-0.2,7.4,0.5,10.8c1.3,6.9,5.8,13,11.6,16.5c2.9,1.8,6.1,2.9,9.5,3.3
										c3.3,0.4,6.7,0.2,10.1,0.3c13.4,0,26.3,0,38.7,0.1c49.2,0.1,89.1,0.2,116.7,0.3c13.7,0.1,24.4,0.1,31.7,0.2
										c3.6,0,6.3,0.1,8.2,0.1C258.5,736.8,259.4,736.8,259.4,736.8s-1,0.1-2.8,0.1c-1.9,0-4.7,0-8.2,0.1c-7.3,0-18,0.1-31.7,0.2
										c-27.6,0.1-67.4,0.2-116.7,0.3c-12.3,0-25.2,0-38.7,0.1c-3.4-0.1-6.7,0.2-10.3-0.3c-3.5-0.5-6.9-1.7-10-3.5
										c-6.2-3.7-10.9-10.1-12.3-17.4c-0.8-3.7-0.5-7.4-0.5-11.1c0-3.7,0-7.4,0-11.1c0-7.5,0-15.1,0-22.8c0-15.4,0-31.3,0-47.6
										c0-32.6,0-66.8-0.1-102.2c0-17.7,0-35.8,0-54.1c0-9.2,0-18.4,0-27.7c0-4.7-0.1-9.2,0.1-14c0.3-4.8,2-9.6,4.9-13.5
										c4-5.7,10.4-9.6,17.2-10.7c3.5-0.6,6.8-0.3,10.1-0.4c3.3,0,6.6,0,9.9,0c13.2,0,26.3,0,39.2,0c25.8,0,50.9,0,75,0h0.4
										l0.2,0.3c36.2,37.3,70.1,72.3,100.5,103.7l0.2,0.2v0.3c-0.1,74.2-0.2,135.6-0.3,178.5c-0.1,10.7,0,20.3-0.2,28.6
										c-0.5,8.5-5.1,14.8-9.5,18.4c-4.6,3.6-9,4.8-11.9,5.3c-1.5,0.2-2.6,0.3-3.3,0.3C259.8,736.9,259.4,736.8,259.4,736.8z"/>
								</g>
							</g>
						</g>
					</g>
				</g>
			</g>
			<g>
				<g>
					<g>
						<g>
							<g>
								<g>
									<path class="st4" d="M285,505.7c0,0.1-0.7,0.1-2,0.2c-1.5,0-3.4,0.1-5.7,0.2c-5.1,0.1-12.2,0.2-20.8,0.3
										c-8.8,0.1-19.3,0.1-30.8,0.2c-5.8,0-11.9,0-18.2,0c-6.5-0.1-13.2-3.1-17.8-8.4c-2.3-2.6-4-5.7-5-8.9
										c-1.1-3.2-1.2-6.7-1.1-9.8c0-6.3,0-12.4,0.1-18.2c0.1-11.5,0.1-22,0.2-30.8c0.1-8.6,0.2-15.6,0.3-20.8
										c0.1-2.3,0.1-4.2,0.2-5.6c0.1-1.3,0.1-2,0.2-2s0.1,0.7,0.2,2c0,1.5,0.1,3.4,0.2,5.6c0.1,5.1,0.2,12.2,0.3,20.8
										c0.1,8.8,0.1,19.3,0.2,30.8c0,5.8,0,11.9,0.1,18.2c-0.1,3.2,0.1,6.2,1.1,9.3c0.9,3,2.5,5.8,4.7,8.3
										c4.3,4.9,10.5,7.7,16.6,7.8c6.3,0,12.4,0.1,18.2,0.1c11.5,0.1,22,0.1,30.8,0.2c8.6,0.1,15.6,0.2,20.8,0.3
										c2.3,0.1,4.2,0.1,5.7,0.2C284.4,505.6,285,505.7,285,505.7z"/>
								</g>
							</g>
						</g>
					</g>
				</g>
			</g>
		</g>
		<g>
			<g>
				<path class="st4" d="M180.6,473.3c0,0.5-24.2,0.9-54,0.9s-54-0.4-54-0.9s24.2-0.9,54-0.9S180.6,472.8,180.6,473.3z"/>
			</g>
		</g>
		<g>
			<g>
				<path class="st4" d="M231.9,513.1c0,0.5-35.7,0.9-79.7,0.9s-79.7-0.4-79.7-0.9s35.7-0.9,79.7-0.9
					C196.2,512.2,231.9,512.6,231.9,513.1z"/>
			</g>
		</g>
		<g>
			<g>
				<path class="st4" d="M231.9,552.9c0,0.5-35.7,0.9-79.7,0.9s-79.7-0.4-79.7-0.9s35.7-0.9,79.7-0.9S231.9,552.4,231.9,552.9z"/>
			</g>
		</g>
		<g>
			<g>
				<path class="st4" d="M231.9,592.7c0,0.5-35.7,0.9-79.7,0.9s-79.7-0.4-79.7-0.9s35.7-0.9,79.7-0.9S231.9,592.2,231.9,592.7z"/>
			</g>
		</g>
		<g>
			<g>
				<path class="st4" d="M231.9,632.5c0,0.5-35.7,0.9-79.7,0.9s-79.7-0.4-79.7-0.9s35.7-0.9,79.7-0.9S231.9,632,231.9,632.5z"/>
			</g>
		</g>
		<g>
			<g>
				<path class="st4" d="M231.9,672.3c0,0.5-35.7,0.9-79.7,0.9s-79.7-0.4-79.7-0.9s35.7-0.9,79.7-0.9
					C196.2,671.4,231.9,671.8,231.9,672.3z"/>
			</g>
		</g>
	</g>
	<g>
		<g>
			<g>
				<g>
					<g>
						<g>
							<g>
								<g>
									<g>
										<path class="st0" d="M303.3,1112.4H100.7c-14,0-25.4-11.4-25.4-25.4V806.5c0-14,11.4-25.4,25.4-25.4h128.5l99.5,102.5
											v203.3C328.7,1101,317.3,1112.4,303.3,1112.4z"/>
									</g>
								</g>
							</g>
						</g>
					</g>
					<g>
						<g>
							<g>
								<g>
									<g>
										<path class="st1" d="M229.2,781.2v78.9c0,13,10.6,23.6,23.6,23.6h75.9L229.2,781.2z"/>
									</g>
								</g>
							</g>
						</g>
					</g>
					<g>
						<g>
							<g>
								<g>
									<g>
										<path class="st2" d="M230.2,867.1c0,0-1,19.1,20.8,25.4c0.8,0.2,1.7,0.4,2.5,0.6c9.9,1.8,75.2,13.4,75.2,11.9
											c0-1.6,0-21.2,0-21.2h-75.9C252.8,883.7,233.8,883.1,230.2,867.1z"/>
									</g>
								</g>
							</g>
						</g>
					</g>
				</g>
			</g>
			<g>
				<g>
					<g>
						<g>
							<g>
								<g>
									<path class="st4" d="M303.3,1112.4c0-0.1,1.5,0,4.4-0.5c2.8-0.5,7.1-1.8,11.5-5.4c4.2-3.5,8.6-9.7,9.1-17.9
										c0.1-8.2,0-17.7,0-28.3c-0.1-42.5-0.2-103.2-0.3-176.6l0.2,0.5c-30.1-31-63.7-65.6-99.6-102.5l0.6,0.3
										c-23.8,0-48.6,0-74.2,0c-12.8,0-25.7,0-38.8,0c-3.3,0-6.6,0-9.8,0c-3.3,0-6.6-0.2-9.7,0.4c-6.3,1-12.2,4.7-15.9,9.9
										c-2.6,3.6-4.2,8-4.5,12.5c-0.2,4.5,0,9.2-0.1,13.8c0,9.2,0,18.3,0,27.4c0,18.1,0,36,0,53.5c0,35.1,0,68.9-0.1,101.1
										c0,16.1,0,31.8,0,47.1c0,7.6,0,15.2,0,22.6c0,3.7,0,7.4,0,11c0.1,3.7-0.2,7.3,0.5,10.7c1.3,6.9,5.7,12.9,11.5,16.3
										c2.9,1.7,6.1,2.9,9.4,3.3c3.2,0.4,6.7,0.2,10,0.3c13.3,0,26.1,0,38.3,0.1c48.7,0.1,88.1,0.2,115.4,0.3
										c13.6,0.1,24.2,0.1,31.4,0.2c3.6,0,6.3,0.1,8.2,0.1C302.4,1112.3,303.3,1112.4,303.3,1112.4s-0.9,0.1-2.8,0.1
										s-4.6,0-8.2,0.1c-7.2,0-17.8,0.1-31.4,0.2c-27.3,0.1-66.7,0.2-115.4,0.3c-12.2,0-25,0-38.3,0.1c-3.3-0.1-6.7,0.2-10.2-0.3
										s-6.8-1.6-9.9-3.5c-6.1-3.6-10.8-9.9-12.2-17.2c-0.8-3.7-0.4-7.3-0.5-10.9c0-3.6,0-7.3,0-11c0-7.4,0-14.9,0-22.6
										c0-15.3,0-31,0-47.1c0-32.2,0-66.1-0.1-101.1c0-17.5,0-35.4,0-53.5c0-9.1,0-18.2,0-27.4c0-4.6-0.1-9.1,0.1-13.9
										c0.3-4.8,2-9.5,4.8-13.4c4-5.6,10.3-9.5,17-10.6c3.4-0.6,6.7-0.3,10-0.4c3.3,0,6.6,0,9.8,0c13.1,0,26,0,38.8,0
										c25.5,0,50.3,0,74.2,0h0.4l0.2,0.3c35.8,36.9,69.3,71.6,99.4,102.6l0.2,0.2v0.3c-0.1,73.4-0.2,134.2-0.3,176.6
										c-0.1,10.6,0,20-0.2,28.3c-0.5,8.4-5.1,14.7-9.4,18.2c-4.5,3.6-8.9,4.8-11.7,5.2c-1.4,0.2-2.6,0.3-3.3,0.3
										C303.7,1112.4,303.3,1112.4,303.3,1112.4z"/>
								</g>
							</g>
						</g>
					</g>
				</g>
			</g>
			<g>
				<g>
					<g>
						<g>
							<g>
								<g>
									<path class="st4" d="M328.7,883.7c0,0.1-0.7,0.1-1.9,0.2c-1.5,0-3.3,0.1-5.6,0.2c-5.1,0.1-12.1,0.2-20.6,0.3
										c-8.8,0.1-19.1,0.1-30.5,0.2c-5.8,0-11.8,0-18,0c-6.5-0.1-13.1-3.1-17.6-8.3c-2.3-2.6-4-5.6-5-8.8
										c-1.1-3.2-1.2-6.6-1.1-9.7c0-6.2,0-12.3,0.1-18c0.1-11.4,0.1-21.7,0.2-30.5c0.1-8.5,0.2-15.5,0.3-20.6
										c0.1-2.3,0.1-4.1,0.2-5.6c0.1-1.3,0.1-1.9,0.2-1.9s0.1,0.7,0.2,1.9c0,1.5,0.1,3.3,0.2,5.6c0.1,5.1,0.2,12.1,0.3,20.6
										c0.1,8.8,0.1,19.1,0.2,30.5c0,5.7,0,11.8,0.1,18c-0.1,3.2,0.1,6.2,1.1,9.2c0.9,3,2.5,5.8,4.6,8.2
										c4.2,4.8,10.4,7.6,16.4,7.7c6.2,0,12.2,0.1,18,0.1c11.4,0.1,21.7,0.1,30.5,0.2c8.5,0.1,15.5,0.2,20.6,0.3
										c2.3,0.1,4.1,0.1,5.6,0.2C328,883.6,328.7,883.7,328.7,883.7z"/>
								</g>
							</g>
						</g>
					</g>
				</g>
			</g>
		</g>
		<g>
			<g>
				<path class="st4" d="M225.4,851.6c0,0.5-23.9,0.9-53.5,0.9c-29.5,0-53.5-0.4-53.5-0.9s23.9-0.9,53.5-0.9
					C201.4,850.8,225.4,851.2,225.4,851.6z"/>
			</g>
		</g>
		<g>
			<g>
				<path class="st4" d="M276.1,891c0,0.5-35.3,0.9-78.8,0.9s-78.8-0.4-78.8-0.9s35.3-0.9,78.8-0.9S276.1,890.5,276.1,891z"/>
			</g>
		</g>
		<g>
			<g>
				<path class="st4" d="M276.1,930.4c0,0.5-35.3,0.9-78.8,0.9s-78.8-0.4-78.8-0.9s35.3-0.9,78.8-0.9S276.1,929.9,276.1,930.4z"/>
			</g>
		</g>
		<g>
			<g>
				<path class="st4" d="M276.1,969.8c0,0.5-35.3,0.9-78.8,0.9s-78.8-0.4-78.8-0.9s35.3-0.9,78.8-0.9
					C240.8,968.9,276.1,969.3,276.1,969.8z"/>
			</g>
		</g>
		<g>
			<g>
				<path class="st4" d="M276.1,1009.1c0,0.5-35.3,0.9-78.8,0.9s-78.8-0.4-78.8-0.9s35.3-0.9,78.8-0.9
					C240.8,1008.3,276.1,1008.7,276.1,1009.1z"/>
			</g>
		</g>
		<g>
			<g>
				<path class="st4" d="M276.1,1048.5c0,0.5-35.3,0.9-78.8,0.9s-78.8-0.4-78.8-0.9s35.3-0.9,78.8-0.9
					C240.8,1047.7,276.1,1048,276.1,1048.5z"/>
			</g>
		</g>
	</g>
	<g>
		<g>
			<g>
				<g>
					<g>
						<g>
							<g>
								<g>
									<g>
										<path class="st0" d="M548.1,411.6H346.7c-13.9,0-25.2-11.3-25.2-25.2V107.7c0-13.9,11.3-25.2,25.2-25.2h127.7l98.8,101.9
											v202C573.3,400.4,562,411.6,548.1,411.6z"/>
									</g>
								</g>
							</g>
						</g>
					</g>
					<g>
						<g>
							<g>
								<g>
									<g>
										<path class="st1" d="M474.4,82.5V161c0,12.9,10.5,23.4,23.4,23.4h75.4L474.4,82.5z"/>
									</g>
								</g>
							</g>
						</g>
					</g>
					<g>
						<g>
							<g>
								<g>
									<g>
										<path class="st2" d="M475.5,167.9c0,0-1,19,20.7,25.3c0.8,0.2,1.6,0.4,2.5,0.6c9.8,1.8,74.7,13.3,74.7,11.8
											c0-1.6,0-21.1,0-21.1H498C497.9,184.4,479,183.8,475.5,167.9z"/>
									</g>
								</g>
							</g>
						</g>
					</g>
				</g>
			</g>
			<g>
				<g>
					<g>
						<g>
							<g>
								<g>
									<path class="st4" d="M548.1,411.6c0-0.1,1.5,0,4.4-0.5c2.8-0.5,7.1-1.8,11.4-5.3c4.2-3.5,8.6-9.6,9-17.8
										c0.1-8.1,0-17.6,0-28.1c-0.1-42.2-0.2-102.6-0.3-175.5l0.2,0.5c-29.9-30.8-63.3-65.1-98.9-101.8l0.6,0.3
										c-23.7,0-48.3,0-73.7,0c-12.7,0-25.5,0-38.5,0c-3.3,0-6.5,0-9.8,0s-6.6-0.2-9.7,0.4c-6.3,1-12.1,4.6-15.8,9.9
										c-2.6,3.6-4.2,8-4.5,12.4c-0.2,4.5,0,9.1-0.1,13.7c0,9.1,0,18.2,0,27.2c0,18,0,35.7,0,53.1c0,34.8,0,68.5-0.1,100.5
										c0,16,0,31.6,0,46.8c0,7.6,0,15.1,0,22.4c0,3.7,0,7.3,0,10.9c0.1,3.6-0.2,7.2,0.5,10.6c1.3,6.8,5.7,12.8,11.4,16.2
										c2.9,1.7,6,2.8,9.3,3.3c3.2,0.4,6.6,0.2,9.9,0.3c13.2,0,25.9,0,38,0.1c48.4,0.1,87.6,0.2,114.7,0.3
										c13.5,0.1,24,0.1,31.2,0.2c3.5,0,6.2,0.1,8.1,0.1C547.2,411.6,548.1,411.6,548.1,411.6s-0.9,0.1-2.8,0.1
										c-1.9,0-4.6,0-8.1,0.1c-7.2,0-17.7,0.1-31.2,0.2c-27.1,0.1-66.3,0.2-114.7,0.3c-12.1,0-24.8,0-38,0.1
										c-3.3-0.1-6.6,0.2-10.1-0.2c-3.4-0.5-6.8-1.6-9.8-3.4c-6.1-3.6-10.7-9.9-12.1-17.1c-0.7-3.6-0.4-7.3-0.5-10.9
										c0-3.6,0-7.3,0-10.9c0-7.4,0-14.8,0-22.4c0-15.2,0-30.8,0-46.8c0-32,0-65.6-0.1-100.5c0-17.4,0-35.2,0-53.1
										c0-9,0-18.1,0-27.2c0-4.6-0.1-9.1,0.1-13.8c0.3-4.7,2-9.4,4.8-13.3c4-5.6,10.2-9.5,16.9-10.6c3.4-0.6,6.7-0.3,10-0.4
										c3.3,0,6.5,0,9.8,0c13,0,25.9,0,38.5,0c25.4,0,50,0,73.7,0h0.4L475,82c35.6,36.7,68.9,71.1,98.8,102l0.2,0.2v0.3
										c-0.1,72.9-0.2,133.3-0.3,175.5c-0.1,10.5,0,19.9-0.2,28.1c-0.5,8.4-5,14.6-9.4,18.1c-4.5,3.5-8.8,4.7-11.7,5.2
										c-1.4,0.2-2.5,0.3-3.3,0.3C548.5,411.6,548.1,411.6,548.1,411.6z"/>
								</g>
							</g>
						</g>
					</g>
				</g>
			</g>
			<g>
				<g>
					<g>
						<g>
							<g>
								<g>
									<path class="st4" d="M573.3,184.4c0,0.1-0.7,0.1-1.9,0.2c-1.5,0-3.3,0.1-5.6,0.2c-5.1,0.1-12,0.2-20.4,0.3
										c-8.7,0.1-19,0.1-30.3,0.2c-5.7,0-11.7,0-17.9,0c-6.4-0.1-13-3.1-17.5-8.2c-2.3-2.6-3.9-5.6-4.9-8.7
										c-1.1-3.1-1.2-6.6-1.1-9.6c0-6.2,0-12.2,0.1-17.9c0.1-11.3,0.1-21.6,0.2-30.3c0.1-8.4,0.2-15.4,0.3-20.4
										c0.1-2.3,0.1-4.1,0.2-5.6c0.1-1.3,0.1-1.9,0.2-1.9s0.1,0.7,0.2,1.9c0,1.5,0.1,3.3,0.2,5.6c0.1,5.1,0.2,12,0.3,20.4
										c0.1,8.7,0.1,19,0.2,30.3c0,5.7,0,11.7,0.1,17.9c-0.1,3.1,0.1,6.1,1.1,9.1c0.9,2.9,2.5,5.7,4.6,8.1
										c4.2,4.8,10.3,7.5,16.3,7.7c6.2,0,12.2,0.1,17.9,0.1c11.3,0.1,21.6,0.1,30.3,0.2c8.4,0.1,15.4,0.2,20.4,0.3
										c2.3,0.1,4.1,0.1,5.6,0.2C572.6,184.3,573.3,184.4,573.3,184.4z"/>
								</g>
							</g>
						</g>
					</g>
				</g>
			</g>
		</g>
		<g>
			<g>
				<path class="st4" d="M470.6,152.5c0,0.5-23.8,0.9-53.1,0.9c-29.3,0-53.1-0.4-53.1-0.9s23.8-0.9,53.1-0.9
					C446.8,151.7,470.6,152.1,470.6,152.5z"/>
			</g>
		</g>
		<g>
			<g>
				<path class="st4" d="M521,191.7c0,0.5-35.1,0.9-78.3,0.9c-43.3,0-78.3-0.4-78.3-0.9s35.1-0.9,78.3-0.9
					C486,190.8,521,191.2,521,191.7z"/>
			</g>
		</g>
		<g>
			<g>
				<path class="st4" d="M521,230.8c0,0.5-35.1,0.9-78.3,0.9c-43.3,0-78.3-0.4-78.3-0.9s35.1-0.9,78.3-0.9
					C486,229.9,521,230.3,521,230.8z"/>
			</g>
		</g>
		<g>
			<g>
				<path class="st4" d="M521,269.9c0,0.5-35.1,0.9-78.3,0.9c-43.3,0-78.3-0.4-78.3-0.9s35.1-0.9,78.3-0.9
					C486,269.1,521,269.4,521,269.9z"/>
			</g>
		</g>
		<g>
			<g>
				<path class="st4" d="M521,309c0,0.5-35.1,0.9-78.3,0.9c-43.3,0-78.3-0.4-78.3-0.9s35.1-0.9,78.3-0.9
					C486,308.2,521,308.6,521,309z"/>
			</g>
		</g>
		<g>
			<g>
				<path class="st4" d="M521,348.2c0,0.5-35.1,0.9-78.3,0.9c-43.3,0-78.3-0.4-78.3-0.9s35.1-0.9,78.3-0.9
					C486,347.3,521,347.7,521,348.2z"/>
			</g>
		</g>
	</g>
	<g>
		<g>
			<g>
				<g>
					<g>
						<g>
							<g>
								<g>
									<g>
										<path class="st0" d="M1415.2,1252.2h-204.6c-14.1,0-25.6-11.5-25.6-25.6V943.5c0-14.1,11.5-25.6,25.6-25.6h129.7
											l100.4,103.5v205.2C1440.8,1240.8,1429.4,1252.2,1415.2,1252.2z"/>
									</g>
								</g>
							</g>
						</g>
					</g>
					<g>
						<g>
							<g>
								<g>
									<g>
										<path class="st1" d="M1340.4,917.9v79.7c0,13.1,10.7,23.8,23.8,23.8h76.6L1340.4,917.9z"/>
									</g>
								</g>
							</g>
						</g>
					</g>
					<g>
						<g>
							<g>
								<g>
									<g>
										<path class="st2" d="M1341.4,1004.6c0,0-1,19.3,21,25.7c0.8,0.2,1.7,0.4,2.5,0.6c10,1.8,75.9,13.5,75.9,12
											c0-1.6,0-21.4,0-21.4h-76.6C1364.2,1021.4,1345.1,1020.7,1341.4,1004.6z"/>
									</g>
								</g>
							</g>
						</g>
					</g>
				</g>
			</g>
			<g>
				<g>
					<g>
						<g>
							<g>
								<g>
									<path class="st4" d="M1415.2,1252.2c0-0.1,1.5,0,4.4-0.5s7.2-1.8,11.6-5.4c4.3-3.6,8.7-9.8,9.2-18.1c0.1-8.3,0-17.8,0-28.5
										c-0.1-42.9-0.2-104.2-0.3-178.3l0.2,0.5c-30.4-31.3-64.3-66.2-100.5-103.4l0.6,0.3c-24.1,0-49.1,0-74.9,0
										c-12.9,0-25.9,0-39.2,0c-3.3,0-6.6,0-9.9,0s-6.7-0.2-9.8,0.4c-6.4,1-12.3,4.7-16.1,10c-2.6,3.7-4.3,8.1-4.5,12.6
										s-0.1,9.3-0.1,13.9c0,9.3,0,18.5,0,27.6c0,18.3,0,36.3,0,54c0,35.4,0,69.5-0.1,102.1c0,16.3,0,32.1,0,47.5
										c0,7.7,0,15.3,0,22.8c0,3.7,0,7.4,0,11.1c0.1,3.7-0.2,7.3,0.5,10.8c1.3,6.9,5.8,13,11.6,16.5c2.9,1.8,6.1,2.9,9.4,3.3
										s6.7,0.2,10.1,0.3c13.4,0,26.3,0,38.6,0.1c49.2,0.1,89,0.2,116.5,0.3c13.7,0.1,24.4,0.1,31.7,0.2c3.6,0,6.3,0.1,8.2,0.1
										C1414.3,1252.2,1415.2,1252.2,1415.2,1252.2s-1,0.1-2.8,0.1c-1.9,0-4.7,0-8.2,0.1c-7.3,0-18,0.1-31.7,0.2
										c-27.6,0.1-67.4,0.2-116.5,0.3c-12.3,0-25.2,0-38.6,0.1c-3.4-0.1-6.7,0.2-10.2-0.3s-6.9-1.6-10-3.5
										c-6.1-3.7-10.9-10-12.3-17.4c-0.8-3.7-0.5-7.4-0.5-11c0-3.7,0-7.4,0-11.1c0-7.5,0-15.1,0-22.8c0-15.4,0-31.3,0-47.5
										c0-32.5,0-66.7-0.1-102.1c0-17.7,0-35.7,0-54c0-9.1,0-18.3,0-27.6c0-4.7-0.1-9.2,0.1-14c0.3-4.8,2-9.5,4.8-13.5
										c4-5.7,10.4-9.6,17.2-10.7c3.5-0.6,6.8-0.3,10.1-0.4c3.3,0,6.6,0,9.9,0c13.2,0,26.3,0,39.2,0c25.8,0,50.8,0,74.9,0h0.4
										l0.2,0.3c36.1,37.3,70,72.2,100.3,103.6l0.2,0.2v0.3c-0.1,74.1-0.2,135.4-0.3,178.3c-0.1,10.7,0,20.2-0.2,28.6
										c-0.5,8.5-5.1,14.8-9.5,18.4c-4.5,3.6-9,4.8-11.8,5.3c-1.5,0.2-2.6,0.3-3.3,0.3C1415.6,1252.2,1415.2,1252.2,1415.2,1252.2
										z"/>
								</g>
							</g>
						</g>
					</g>
				</g>
			</g>
			<g>
				<g>
					<g>
						<g>
							<g>
								<g>
									<path class="st4" d="M1440.8,1021.4c0,0.1-0.7,0.1-2,0.2c-1.5,0-3.3,0.1-5.6,0.2c-5.1,0.1-12.2,0.2-20.8,0.3
										c-8.8,0.1-19.3,0.1-30.8,0.2c-5.8,0-11.9,0-18.2,0c-6.5-0.1-13.2-3.1-17.8-8.3c-2.3-2.6-4-5.6-5-8.9
										c-1.1-3.2-1.2-6.7-1.1-9.8c0-6.3,0-12.4,0.1-18.2c0.1-11.5,0.1-22,0.2-30.8c0.1-8.6,0.2-15.6,0.3-20.8
										c0.1-2.3,0.1-4.2,0.2-5.6c0.1-1.3,0.1-2,0.2-2s0.1,0.7,0.2,2c0,1.5,0.1,3.3,0.2,5.6c0.1,5.1,0.2,12.2,0.3,20.8
										c0.1,8.8,0.1,19.3,0.2,30.8c0,5.8,0,11.9,0.1,18.2c-0.1,3.2,0.1,6.2,1.1,9.2c0.9,3,2.5,5.8,4.7,8.2
										c4.3,4.9,10.5,7.7,16.5,7.8c6.3,0,12.4,0.1,18.2,0.1c11.5,0.1,21.9,0.1,30.8,0.2c8.6,0.1,15.6,0.2,20.8,0.3
										c2.3,0.1,4.2,0.1,5.6,0.2C1440.1,1021.3,1440.8,1021.3,1440.8,1021.4z"/>
								</g>
							</g>
						</g>
					</g>
				</g>
			</g>
		</g>
		<g>
			<g>
				<path class="st4" d="M1336.5,989c0,0.5-24.2,0.9-54,0.9s-54-0.4-54-0.9s24.2-0.9,54-0.9C1312.4,988.1,1336.5,988.5,1336.5,989z"
					/>
			</g>
		</g>
		<g>
			<g>
				<path class="st4" d="M1387.7,1028.8c0,0.5-35.6,0.9-79.6,0.9s-79.6-0.4-79.6-0.9s35.6-0.9,79.6-0.9S1387.7,1028.3,1387.7,1028.8
					z"/>
			</g>
		</g>
		<g>
			<g>
				<path class="st4" d="M1387.7,1068.5c0,0.5-35.6,0.9-79.6,0.9s-79.6-0.4-79.6-0.9s35.6-0.9,79.6-0.9S1387.7,1068,1387.7,1068.5z"
					/>
			</g>
		</g>
		<g>
			<g>
				<path class="st4" d="M1387.7,1108.3c0,0.5-35.6,0.9-79.6,0.9s-79.6-0.4-79.6-0.9s35.6-0.9,79.6-0.9S1387.7,1107.8,1387.7,1108.3
					z"/>
			</g>
		</g>
		<g>
			<g>
				<path class="st4" d="M1387.7,1148c0,0.5-35.6,0.9-79.6,0.9s-79.6-0.4-79.6-0.9s35.6-0.9,79.6-0.9S1387.7,1147.5,1387.7,1148z"/>
			</g>
		</g>
		<g>
			<g>
				<path class="st4" d="M1387.7,1197c0,0.5-35.6,0.9-79.6,0.9s-79.6-0.4-79.6-0.9s35.6-0.9,79.6-0.9
					C1352.1,1196.2,1387.7,1196.6,1387.7,1197z"/>
			</g>
		</g>
	</g>
</g>
</svg>
