<?xml version="1.0" encoding="utf-8"?>
<!-- Generator: Adobe Illustrator 27.8.0, SVG Export Plug-In . SVG Version: 6.00 Build 0)  -->
<svg version="1.1" id="Camada_1" xmlns="http://www.w3.org/2000/svg" xmlns:xlink="http://www.w3.org/1999/xlink" x="0px" y="0px"
	 viewBox="0 0 100 100.1" style="enable-background:new 0 0 100 100.1;" xml:space="preserve">
<style type="text/css">
	.st0{fill:#F7F7F7;}
	.st1{fill:#375A64;}
	.st2{fill:#263238;}
	.st3{fill:#FFBF9D;}
	.st4{fill:#FF9A6C;}
	.st5{fill:#1A2E35;}
	.st6{opacity:0.3;}
</style>
<rect y="0" class="st0" width="100" height="100"/>
<path class="st1" d="M76.7,49.4l-12-2.9L61.9,42l-18.6,4.4l-1.7,3.9l-10,5c-1.8,2.8-3,6-3.4,9.4c-0.2,4,0.3,26.6,0.3,26.6L28,100
	l0.1,0.1h10.8l0.5-0.1h28.2c4.1-1.8,7.9-4.3,11.3-7.3l1.2-13.9L76.7,49.4z"/>
<path class="st2" d="M60.6,30.1c0.9-3,1.6-6.1,1.9-9.3c0.4-3.2-0.1-6.4-1.2-9.3C61.1,11,59.5,8.1,59,8.2s0.7,2.8,0.5,3.1
	c-1.4,3-1.9,6.3-1.3,9.6C58.7,24,59.5,27.1,60.6,30.1"/>
<path class="st3" d="M60.3,18c-0.2-7.9-4.9-14.5-12.8-14.1L46.7,4C39.4,4.8,33.8,11,34,18.4c0.2,6.9,0.4,14.5,0.9,18.1
	c0.9,7.6,8.6,8,8.6,8l0.3,5l3.3,3.4l15.1-9.3L60.3,18z"/>
<path class="st4" d="M43.5,44.6c3.5-0.4,6.8-1.8,9.6-4c-1.1,4.2-4.9,7.1-9.2,7L43.5,44.6z"/>
<path class="st5" d="M38.4,24.6c0,0.6,0.6,1,1.2,1c0.6,0,1-0.4,1-1v-0.1c0-0.6-0.6-1-1.2-1l0,0C38.8,23.5,38.4,24,38.4,24.6
	C38.4,24.5,38.4,24.6,38.4,24.6z"/>
<path class="st5" d="M36,21.4c0.2,0.1,0.9-0.6,2.1-0.7s2.1,0.4,2.2,0.2s-0.1-0.3-0.5-0.5C39.2,20.1,38.6,20,38,20
	c-0.6,0.1-1.2,0.3-1.6,0.7C36,21.1,35.9,21.4,36,21.4z"/>
<path class="st5" d="M48.7,23.7c0,0.6,0.6,1,1.2,1c0.6,0,1-0.4,1-1v-0.1c0-0.6-0.6-1-1.2-1c-0.6,0-1,0.4-1,1
	C48.7,23.7,48.7,23.7,48.7,23.7z"/>
<path class="st5" d="M47.5,20.7c0.1,0.1,0.9-0.6,2.1-0.7s2.1,0.4,2.2,0.2s-0.1-0.3-0.5-0.5c-0.5-0.3-1.2-0.4-1.8-0.4
	c-0.6,0.1-1.2,0.3-1.6,0.7C47.5,20.4,47.4,20.6,47.5,20.7z"/>
<path class="st5" d="M44.2,30.1c-0.6-0.1-1.3-0.2-1.9-0.1c-0.3,0-0.6,0-0.7-0.2c-0.1-0.3,0-0.6,0.1-0.9c0.2-0.8,0.4-1.5,0.6-2.4
	c0.6-2,1.1-4.1,1.3-6.1c-0.8,1.9-1.4,4-1.8,6l-0.6,2.4c-0.1,0.4-0.1,0.8,0,1.2c0.1,0.2,0.3,0.3,0.5,0.4c0.2,0,0.3,0,0.5,0
	C43,30.3,43.6,30.2,44.2,30.1z"/>
<path class="st5" d="M47.7,30.5c-0.2,0-0.1,1.3-1,2.3s-2.3,1-2.3,1.2s0.3,0.2,0.9,0.2c0.8-0.1,1.5-0.4,2-0.9s0.8-1.2,0.8-1.9
	C48,30.8,47.8,30.5,47.7,30.5z"/>
<path class="st5" d="M47,16c0.2,0.3,1.3,0,2.7,0s2.5,0.3,2.7,0c0.1-0.1-0.2-0.4-0.6-0.7c-0.6-0.3-1.3-0.5-2-0.5s-1.4,0.2-2,0.5
	C47.2,15.5,47,15.8,47,16z"/>
<path class="st5" d="M36.1,17.5c0.2,0.2,1-0.1,2-0.2s1.8,0,2-0.3c0.1-0.1-0.1-0.4-0.5-0.6c-0.5-0.3-1.1-0.4-1.7-0.3
	c-0.6,0.1-1.1,0.3-1.5,0.7C36,17.1,36,17.4,36.1,17.5z"/>
<path class="st3" d="M60.3,23.7c0.1-0.1,5-2.1,5.4,3.1s-4.9,4.5-4.9,4.4S60.3,23.7,60.3,23.7z"/>
<path class="st4" d="M62.2,29c0,0,0.1,0.1,0.2,0.1c0.2,0.1,0.5,0.1,0.7,0c0.7-0.5,1-1.3,0.9-2.1c0-0.4-0.1-0.9-0.3-1.3
	c-0.1-0.3-0.4-0.6-0.7-0.6c-0.2,0-0.4,0.1-0.5,0.3c-0.1,0.1,0,0.2,0,0.3s-0.1-0.1-0.1-0.3c0-0.1,0.1-0.3,0.2-0.3
	c0.1-0.1,0.3-0.2,0.5-0.2c0.4,0.1,0.8,0.3,1,0.7c0.2,0.4,0.4,0.9,0.4,1.4c0.1,0.9-0.3,1.9-1.2,2.3c-0.3,0.1-0.6,0.1-0.8-0.1
	C62.2,29.2,62.2,29.1,62.2,29z"/>
<path class="st2" d="M36.8,9.6c-0.9-0.4,1.5-3.3,3.5-4.4c3-1.6,7.8-2.8,10.7-2.2c3.5,0.8,6.5,2.3,8.5,5.3c1.9,3.1,2.9,6.7,3,10.3
	c0.1,1.1-0.1,2.2-0.5,3.2c-0.7,1.2-2,2-1.8,3.6c0.1,0.6-0.1,1.2-0.4,1.6c-0.9,1.1-2.1,0.2-2.7-0.7c-1.3-2-1.5-4.4-1.8-6.7
	c-0.3-1.7-0.3-3.3,0-5c0.2-0.9,0.5-1.7,0.7-2.6c0.2-0.9,0-1.8-0.5-2.6C55.4,9.3,55.2,9.1,55,9c-1.6-1.2-3.6-1.4-5.4-0.7
	c-2.9,1.2-7.8,3.1-9.1,2.2c-1-0.6-1.8-1.3-2.5-2.2L36.8,9.6z"/>
<path class="st1" d="M28.5,100.1l3-44.9c-0.3,0.4-4.6,1.8-6.2,4.5s-3.2,14.8-3.2,14.8l-2,25.6H28.5z"/>
<g class="st6">
	<path d="M63.5,66.9c0.1,1.6,0.4,3.2,0.9,4.8c0.5,1.6,1.6,2.9,3,3.8c0.6,0.3,1.2,0.6,1.8,1c0.5,0.6,0.9,1.2,1.3,1.8
		c0.6,0.6,1.4,1,2.2,1.3c2.3,0.8,4.8,1.2,7.3,1.2c0.1-0.8,0.1-3.9,0.2-4.7L63.5,66.9z"/>
</g>
<path class="st1" d="M76.7,49.4c0,0,5.4,1.6,7,3.9s4.3,11.2,4.9,12.8s0.1,5.5-1,8.2s-2.9,5.1-6.2,5.5S73.1,78.2,72,77
	c-0.8-1.2-1.4-2.5-1.6-3.9c1.4-0.3,2.8-0.6,4.2-1.1"/>
<path class="st5" d="M74.6,72L74.6,72l-0.3,0.1l-0.8,0.3c-1,0.3-2.1,0.6-3.1,0.8V73c0.1,0.7,0.3,1.3,0.6,2c0.1,0.3,0.3,0.7,0.5,1
	c0.2,0.4,0.4,0.7,0.7,1c0.3,0.3,0.7,0.5,1.1,0.7s0.8,0.4,1.3,0.6c0.9,0.4,1.9,0.7,2.8,0.9c1.1,0.3,2.1,0.4,3.2,0.4
	c0.3,0,0.6,0,0.8,0c0.3,0,0.6-0.1,0.8-0.2c0.6-0.1,1.1-0.3,1.6-0.6c1-0.6,1.9-1.5,2.6-2.5c0.7-1.1,1.2-2.2,1.5-3.5
	c0.3-0.9,0.5-1.9,0.7-2.9c0.1-0.9,0.2-1.9,0.1-2.8c0-0.5-0.1-0.9-0.3-1.3c-0.2-0.4-0.3-0.9-0.4-1.3c-0.3-0.9-0.6-1.7-0.8-2.5
	c-0.6-1.6-1.1-3.2-1.6-4.6c-0.5-1.3-1.1-2.6-1.7-3.9c-0.3-0.5-0.7-1-1.2-1.4c-0.4-0.3-0.9-0.6-1.4-0.9c-0.8-0.4-1.6-0.8-2.4-1.2
	c-0.7-0.3-1.2-0.5-1.6-0.6l-0.4-0.2h-0.1H77l0.4,0.1c0.4,0.1,0.9,0.3,1.6,0.6c0.8,0.3,1.6,0.7,2.4,1.1c0.5,0.3,1,0.6,1.4,0.9
	c0.5,0.4,0.9,0.8,1.3,1.4c0.7,1.2,1.3,2.5,1.8,3.9c0.6,1.4,1.1,3,1.7,4.6c0.3,0.8,0.6,1.7,0.8,2.5l0.4,1.3c0.2,0.4,0.3,0.9,0.3,1.4
	c0,1,0,1.9-0.1,2.9s-0.3,2-0.6,3c-0.3,1.2-0.9,2.4-1.5,3.5c-0.7,1-1.6,1.9-2.6,2.5c-0.5,0.3-1.1,0.5-1.7,0.6
	c-0.3,0.1-0.6,0.1-0.9,0.2c-0.3,0-0.6,0-0.8,0c-1.1,0-2.2-0.2-3.2-0.4c-1-0.2-1.9-0.5-2.9-0.9c-0.4-0.2-0.9-0.4-1.3-0.6
	s-0.8-0.4-1.1-0.7c-0.3-0.3-0.6-0.6-0.8-1c-0.2-0.3-0.3-0.7-0.5-1.1c-0.2-0.7-0.4-1.3-0.5-2l0,0l0,0c1.1-0.2,2.1-0.4,3.1-0.7
	L74.6,72L74.6,72L74.6,72z"/>
<path class="st5" d="M84.4,69.1c0,0-0.2-0.7-0.6-1.7c-0.6-1.3-1.4-2.5-2.4-3.5c-0.6-0.5-1.2-1-1.9-1.3L79,62.5
	c-0.2-0.1-0.3-0.1-0.5-0.2c-0.3-0.1-0.6-0.2-0.9-0.2h-0.2H77c-0.2,0-0.4,0-0.5,0c-0.2,0-0.3,0-0.5,0c0.1-0.1,0.3-0.1,0.5-0.1
	s0.4-0.1,0.6-0.1h0.3h0.2h0.2c0.3,0,0.6,0.1,0.9,0.2c0.2,0,0.3,0.1,0.5,0.1l0.5,0.2c0.7,0.4,1.4,0.8,1.9,1.4c1,1,1.9,2.2,2.4,3.5
	c0.1,0.2,0.2,0.5,0.3,0.7c0.1,0.2,0.1,0.4,0.2,0.5C84.4,68.8,84.4,69,84.4,69.1z"/>
<path class="st5" d="M87.3,64.3c-0.2-0.6-0.5-1.1-0.8-1.6c-0.8-1.2-2-2.1-3.4-2.6c-1.4-0.4-2.9-0.5-4.4-0.2L77.4,60
	c-0.2,0-0.3,0-0.5,0c0.2-0.1,0.3-0.1,0.5-0.1c0.3-0.1,0.8-0.1,1.3-0.2c1.5-0.3,3-0.2,4.4,0.2c0.8,0.2,1.5,0.6,2.2,1.2
	c0.5,0.4,1,0.9,1.3,1.5c0.2,0.4,0.4,0.8,0.6,1.2C87.3,64,87.3,64.1,87.3,64.3z"/>
<path class="st5" d="M83.3,58.5c-1.1-0.2-2.1-0.3-3.2-0.3c-1.1,0.1-2.1,0.3-3.2,0.6c0.3-0.2,0.6-0.3,0.9-0.4
	c0.7-0.2,1.5-0.4,2.3-0.4s1.5,0,2.3,0.2C82.7,58.3,83,58.4,83.3,58.5z"/>
<path class="st5" d="M74.6,50.7c0,0,0,0.5-0.1,1.4c-0.1,1.1-0.1,2.3,0,3.4c0.1,1.1,0.3,2.2,0.6,3.3H75c-0.2-0.5-0.3-0.8-0.4-1.1
	c-0.1-0.1-0.1-0.3-0.1-0.4c0.1,0.1,0.1,0.2,0.2,0.4l0.4,1H75c-0.3-1.1-0.5-2.2-0.6-3.3c-0.1-1.2-0.1-2.3,0-3.5c0-0.4,0.1-0.8,0.2-1
	C74.5,50.9,74.5,50.8,74.6,50.7z"/>
<path class="st3" d="M67,40.7c0,0-2.8,0-3.1,3.3c-0.1,2.1-0.1,4.1,0,6.2c0,1.1-0.5,5.1-0.5,5.1c-1.1,1-1.7,2.3-1.9,3.7
	c-0.1,1.1,0.5,2.1,1.5,2.7c-0.5,1.3-0.2,2.7,0.8,3.7c0,0-0.8,1.9-0.2,3.1c0.4,0.6,1,1.1,1.7,1.3c-0.4,0.9,0,2.1,0.9,2.5
	c0.1,0,0.2,0.1,0.2,0.1c0.9,0.3,1.9,0.4,2.9,0.4h2.1l1.8,1c0,0,3.1-1.4,3.2-3.2l0.1-1.8c-0.4-1.3-0.7-2.6-1-4
	c-0.1-1,0.7-3.3,0.2-4.3s-2.2-1.7-2-3.1c0.2-1.1-0.1-2.3-0.8-3.1c-1.2-0.9-2.6-1.8-4-2.4c-0.5-1.3-0.7-2.6-0.8-3.9
	C68.2,46.2,69.8,41.3,67,40.7z"/>
<path class="st4" d="M68.9,52.4c-0.2,0.2-0.5,0.4-0.8,0.5c-0.5,0.3-1.2,0.7-1.9,1.1s-1.5,0.8-2,1c-0.3,0.2-0.5,0.3-0.8,0.4
	c0.2-0.2,0.5-0.4,0.8-0.5c0.5-0.3,1.2-0.7,1.9-1.1s1.4-0.8,2-1C68.3,52.6,68.6,52.5,68.9,52.4z"/>
<path class="st4" d="M70.7,58.7c0,0-0.1,0.1-0.2,0.2c-0.2,0.2-0.5,0.4-0.7,0.5c-0.8,0.5-1.7,1-2.6,1.3c-0.9,0.4-1.9,0.6-2.8,0.8
	c-0.4,0.1-0.7,0.1-0.9,0.1c-0.1,0-0.2,0-0.3,0c0,0,0.5-0.1,1.2-0.2c0.9-0.2,1.9-0.5,2.8-0.8s1.8-0.8,2.6-1.2
	C70.3,58.9,70.7,58.7,70.7,58.7z"/>
<path class="st4" d="M73.1,56.7c0.1,0-0.1,0.4-0.4,0.7S72,57.8,72,57.7s0.3-0.2,0.6-0.5S73,56.7,73.1,56.7z"/>
<path class="st4" d="M72,64.2c-0.4,0.2-0.8,0.3-1.2,0.4c-1,0.3-1.9,0.5-2.9,0.7s-2,0.3-3,0.3c-0.4,0-0.8,0-1.2,0
	c0.4-0.1,0.8-0.1,1.2-0.1c0.8-0.1,1.8-0.2,3-0.3s2.2-0.4,2.9-0.6C71.2,64.4,71.6,64.3,72,64.2z"/>
<path class="st4" d="M74.5,63.8c0.1-0.2,0.1-0.4,0.2-0.6c0.2-0.5,0.2-1,0.2-1.5c-0.1-0.5-0.2-1-0.5-1.4c-0.1-0.2-0.2-0.3-0.3-0.5
	c0,0,0.2,0.1,0.5,0.4c0.3,0.4,0.5,0.9,0.6,1.5c0.1,0.5,0,1.1-0.2,1.5C74.8,63.4,74.7,63.6,74.5,63.8z"/>
<path class="st4" d="M72.1,69.9c-0.3,0.1-0.7,0.2-1,0.2c-1.6,0.3-3.3,0.3-4.9,0c-0.3,0-0.7-0.1-1-0.2c0.3,0,0.7,0,1,0.1
	c0.6,0.1,1.5,0.1,2.4,0.2s1.8-0.1,2.5-0.1C71.4,69.9,71.7,69.9,72.1,69.9z"/>
<path class="st4" d="M67.2,47.9c0,0-0.1,0.1-0.4,0.2c-0.3,0.1-0.7,0.2-1.1,0.1c-0.4,0-0.7-0.2-1-0.4c-0.1-0.1-0.2-0.2-0.3-0.3
	c0.4,0.2,0.9,0.4,1.4,0.5C66.2,48,66.7,48,67.2,47.9z"/>
<path class="st4" d="M75.1,64c0,0.1,0,0.2,0,0.3c0,0.3,0,0.6-0.1,0.8c-0.1,0.3-0.2,0.7-0.3,1.2c-0.2,0.5-0.2,0.9-0.2,1.4
	c0.1,0.5,0.4,0.9,0.5,1.4c0,0.4-0.1,0.9-0.3,1.2c-0.1,0.2-0.3,0.4-0.5,0.7c-0.1,0.2-0.2,0.2-0.2,0.2s0.3-0.3,0.6-0.9
	c0.2-0.3,0.3-0.7,0.2-1.1c0-0.4-0.4-0.8-0.5-1.4c-0.1-0.5,0-1,0.2-1.5c0.1-0.4,0.3-0.8,0.4-1.2C74.9,64.7,75,64.4,75.1,64z"/>
<path class="st5" d="M76.1,66.4c0.1,0.1,0.1,0.2,0.1,0.4c0.1,0.2,0.2,0.6,0.3,1c0.1,0.5,0.2,1,0.2,1.6c0,0.7-0.1,1.3-0.3,1.9
	c-0.3,0.6-0.7,1.1-1.2,1.5c-0.4,0.4-0.8,0.7-1.2,1c-0.4,0.2-0.7,0.4-0.9,0.6c-0.1,0.1-0.2,0.1-0.3,0.2c0,0,0.4-0.3,1.2-0.8
	c0.4-0.3,0.8-0.6,1.2-1c0.5-0.4,0.9-0.9,1.2-1.5c0.2-0.6,0.4-1.2,0.3-1.8c0-0.5-0.1-1-0.2-1.5C76.2,67,76.1,66.4,76.1,66.4z"/>
<path class="st5" d="M46.7,53.5c-0.2-0.1-0.3-0.2-0.5-0.3l-1.2-1l-0.8-0.7c-0.1-0.1-0.3-0.2-0.5-0.3s-0.4-0.1-0.5,0
	c-0.3,0.2-0.6,0.6-0.8,1l-0.9,1.2c-0.5,0.6-0.9,1.2-1.3,1.8L40,55.4l0.1-0.4c0.2-1.2,0.6-2.3,1-3.4c0.2-0.4,0.3-0.7,0.4-0.9
	c0-0.1,0.1-0.2,0.2-0.3c0,0.1-0.1,0.2-0.1,0.3c-0.1,0.2-0.2,0.5-0.3,1c-0.4,1.1-0.7,2.2-0.9,3.3l-0.2-0.1l1.3-1.8
	c0.3-0.4,0.6-0.8,0.9-1.2l0.4-0.5c0.1-0.2,0.3-0.4,0.5-0.5s0.5-0.1,0.7,0s0.3,0.2,0.5,0.4l0.8,0.7l1.1,1
	C46.5,53.2,46.6,53.3,46.7,53.5z"/>
<path class="st5" d="M63.2,50.2c0,0,0,0.1-0.2,0.1l-0.5,0.4L60.8,52l-5.7,4.2L55,56.3v-0.1L54.9,56c-1.1-1.7-2-3.2-2.9-4.5h0.1
	c-1.1,0.4-2.2,1-3.2,1.6c-0.4,0.2-0.7,0.4-0.8,0.5s-0.2,0.1-0.3,0.2l0.3-0.2c0.2-0.1,0.5-0.3,0.8-0.6c1-0.6,2.1-1.2,3.2-1.6h0.1v0.1
	l2.9,4.5l0.1,0.2L55,56l5.8-4.2l1.8-1.2l0.5-0.3L63.2,50.2z"/>
<path class="st5" d="M28.2,65.7c0,0.1,0,0.2,0,0.3v0.8c0,0.7,0,1.7,0.1,2.9c0.1,2.4,0.2,5.8,0.4,9.6s0.3,7.1,0.3,9.6
	c0,1.2,0,2.2,0,2.9v0.8c0,0.1,0,0.2,0,0.3c0,0,0-0.1,0-0.3v-0.8c0-0.7,0-1.7-0.1-2.9c-0.1-2.4-0.2-5.8-0.4-9.6s-0.3-7.1-0.3-9.6
	c0-1.2,0-2.2,0-2.9V66C28.2,65.9,28.2,65.8,28.2,65.7z"/>
<path class="st5" d="M46.3,94.5c0.1,2,0.2,3.6,0.4,4.7l0.1,0.8h0.1c0-0.2,0-0.5-0.1-0.8c-0.1-1.1-0.2-2.7-0.3-4.7s-0.2-4.3-0.3-7
	s0-5.5,0-8.6s0.2-5.9,0.4-8.5s0.4-5,0.6-7s0.4-3.6,0.5-4.7c0.1-0.5,0.1-1,0.1-1.3v-0.3V57c0,0,0,0,0,0.1v0.3c0,0.3-0.1,0.7-0.2,1.3
	c-0.2,1.1-0.3,2.7-0.6,4.7c-0.2,2-0.4,4.3-0.6,7S46.1,75.9,46,79s0,5.9,0,8.6S46.2,92.5,46.3,94.5z"/>
</svg>
