<?xml version="1.0" encoding="utf-8"?>
<!-- Generator: Adobe Illustrator 27.8.0, SVG Export Plug-In . SVG Version: 6.00 Build 0)  -->
<svg version="1.1" id="Camada_1" xmlns="http://www.w3.org/2000/svg" xmlns:xlink="http://www.w3.org/1999/xlink" x="0px" y="0px"
	 viewBox="0 0 100 100.1" style="enable-background:new 0 0 100 100.1;" xml:space="preserve">
<style type="text/css">
	.st0{fill:#F7F7F7;}
	.st1{fill:#FFBF9D;}
	.st2{fill:#1A2E35;}
	.st3{fill:#FF4F5B;}
	.st4{fill:#FF9A6C;}
	.st5{fill:#FAFAFA;}
	.st6{opacity:0.2;}
	.st7{fill:#375A64;}
</style>
<rect y="0" class="st0" width="100" height="100"/>
<g>
	<g>
		<path class="st1" d="M80.2,100.1l-1.3-1.8l-11.5-6.1c-1,2.4-1.5,5.1-1.4,7.8H80.2z"/>
	</g>
	<g>
		<g>
			<path class="st2" d="M43.3,48.7c-1.5-1.5-4.2-0.2-5.4,1.5c-1.3,1.7-2.2,3.9-4.2,4.7c-2,0.9-4.5,0.1-6.1,1.5
				c-2.3,1.9-1,6.2-3.4,7.9c-1,0.6-2.3,0.6-3.3,1.2c-2.4,1.3-2.4,4.7-2,7.4c0.5,3.8,1.1,7.8,3.2,11c2.1,3.2,6.2,5.5,9.9,4.3
				c3.5-1.2,5.3-5,6.7-8.4c2-4.7,4-9.5,5.9-14.2c1.1-2.7,2.3-5.5,2.7-8.5c0.4-2.9-0.1-6.1-2-8.4"/>
		</g>
		<g>
			<g>
				<path class="st3" d="M42.3,45.4c-1.1-0.1-2,1.2-1.7,2.3c0.3,1.1,1.3,1.8,2.4,2.2c0.6,0.2,1.2,0.3,1.8,0.2
					c0.6-0.1,1.2-0.5,1.4-1.1c0.2-0.6,0-1-0.5-1.4c-0.7-0.5-1.2-0.8-1.7-1.1C43.2,46,43.2,45.9,42.3,45.4"/>
			</g>
		</g>
		<g>
			<g>
				<path class="st2" d="M40.5,18.8c0-1.6,1.4-2.8,2.9-3.4c1.5-0.6,3.1-0.8,4.4-1.7c1.2-0.8,1.9-2,2.9-3c2.4-2.4,6.1-3.4,9.4-2.5
					c3.3,0.9,6,3.7,6.8,7c0.6,2.2,0.2,4.9-1.6,6.4c-2,1.7-5.1,1.3-7.7,0.8c-2.6-0.5-5.6-1.1-7.8,0.5c-1.3,0.9-2.1,2.4-2.9,3.8
					c-0.8,1.4-1.8,2.8-3.3,3.3c-1.5,0.5-3.6-0.4-3.7-2"/>
			</g>
		</g>
		<g>
			<path class="st2" d="M40.6,19.6c0.2,1.3-0.8,2.5-1.7,3.4c-0.9,0.9-2,1.9-2.2,3.2c-0.2,1.5,0.9,3,0.6,4.6c-0.2,1-1,1.7-1.4,2.6
				c-0.6,1.2-0.7,2.7-0.3,4c0.4,1.3,1,4.3,1.9,5.3c2.5,2.8,6.6,5.3,10.3,6.2c3.7,0.9,7.6,0.9,11.4,0.6c3.1-0.2,6.7,0,9.3-4.3
				c1.3-2.2,2-5.2,2.7-7.7c0.6-2.2,1.1-4.5,0.5-6.6c-0.4-1.2-1.1-2.4-1.5-3.6c-0.5-1.6-0.3-3.2-0.5-4.9c-0.4-3.5-2.6-6.8-5.7-8.5
				c-3.1-1.7-7-1.8-10.2-0.3"/>
		</g>
	</g>
	<g>
		<g>
			<g>
				<g>
					<g>
						<path class="st1" d="M21.3,100.1l14.7-17.2l-4.5-18.3C22.7,74.5,5,94.6,4.2,97.8c-0.1,0.5-0.1,1.3,0,2.3H21.3z"/>
					</g>
				</g>
			</g>
		</g>
		<g>
			<g>
				<g>
					<path class="st4" d="M14.3,99.7c0.7-0.1,1.6-0.1,2.6,0.2c0.1,0,0.3,0.1,0.4,0.2h0.8c-0.3-0.2-0.7-0.4-1.1-0.5
						c-1-0.3-2-0.3-2.7-0.1c-0.7,0.2-1.1,0.4-1,0.4C13.3,100,13.7,99.8,14.3,99.7z"/>
				</g>
			</g>
		</g>
	</g>
	<g>
		<g>
			<path class="st3" d="M71.4,100.1l10.2-2c0,0-6.7-30.3-9.5-36.4c-2.9-6.1-11.8-6.1-11.8-6.1l8.2,44.5H71.4z"/>
		</g>
		<g>
			<g>
				<g>
					<g>
						<path class="st3" d="M39.2,99.6c0,0.2,0,0.3,0,0.5h31.6c0-0.3-0.1-0.6-0.1-0.7c-0.4-2.5,1.4-15.7,1.4-15.7
							c0-6.3-1-11.6-2.1-15.8c-1.9-6.7-7.6-11.7-14.6-12.6c-2.6-0.4-5.3-0.5-7.8-0.1c-8.9,0.8-14.9,4.1-19.5,8.5l6,17.9
							C34.1,81.5,39.6,92.1,39.2,99.6z"/>
					</g>
				</g>
			</g>
			<g>
				<g>
					<path class="st3" d="M28.1,63.7L10.9,85.3C9,87.7,9.4,91.2,11.8,93l7.1,5.5c2.4,1.9,5.9,1.4,7.7-1.1c4.2-5.7,10.8-14.8,11-14.6
						C38,83,39.9,62.8,28.1,63.7z"/>
				</g>
				<g>
					<g>
						<path class="st2" d="M65.8,66.1c0,0.2,0.1,0.4,0.2,0.7c0.3,1.1,1,2.6,2.2,4.2c0.6,0.8,1.3,1.7,2,2.6c0.7,0.9,1.4,1.9,2,3.1
							c0.6,1.2,0.9,2.5,0.9,3.9c0,1.4-0.3,2.9-0.6,4.3c-0.4,1.5-0.8,2.9-1.1,4.3c-0.3,1.4-0.5,2.8-0.6,4.1c-0.2,2.6-0.2,4.9,0,6.8
							h0.2c-0.2-1.9-0.2-4.3,0-6.8c0.1-1.3,0.3-2.7,0.6-4c0.3-1.4,0.7-2.8,1.1-4.3c0.4-1.5,0.7-3,0.6-4.4c0-1.4-0.3-2.9-0.9-4
							c-0.6-1.2-1.3-2.2-2.1-3.1c-0.7-0.9-1.4-1.8-2-2.6c-1.2-1.6-1.9-3-2.3-4.1C66,66.5,65.9,66.3,65.8,66.1c0.1-0.2,0-0.4,0-0.5
							c-0.1-0.3-0.1-0.4-0.1-0.4c0,0,0,0.2,0,0.4C65.7,65.7,65.7,65.9,65.8,66.1z"/>
					</g>
				</g>
				<g>
					<g>
						<path class="st5" d="M37.1,83.5c0,0-0.1,0-0.4,0c-0.3,0-0.7-0.1-1.1-0.3c-1-0.3-2.4-0.9-3.6-2.3c-1.3-1.3-2.4-3.4-2.4-5.8
							c0-1.2,0.2-2.5,0.7-3.7c0.3-0.6,0.7-1.2,1.2-1.7c0.5-0.5,1.3-0.7,2-0.7c0.7,0,1.5,0.4,1.9,1c0.4,0.6,0.5,1.4,0.3,2
							c-0.2,0.7-0.5,1.3-1,1.7c-0.5,0.5-1,0.8-1.6,1.1c-2.2,1.1-4.7,0.8-6.3-0.1c-1.6-0.9-2.5-2.2-2.9-3.1c-0.2-0.5-0.3-0.8-0.4-1.1
							c-0.1-0.3-0.1-0.4-0.1-0.4c0,0,0.1,0.6,0.6,1.5c0.5,0.9,1.3,2.1,2.9,3c1.6,0.8,3.9,1.1,6,0.1c1-0.5,2.1-1.4,2.4-2.6
							c0.1-0.6,0.1-1.3-0.3-1.8c-0.3-0.5-0.9-0.8-1.6-0.9c-0.7,0-1.3,0.2-1.8,0.7c-0.5,0.4-0.9,1-1.1,1.5c-0.5,1.2-0.8,2.4-0.7,3.6
							c0,2.4,1,4.4,2.3,5.7c1.2,1.3,2.6,2,3.5,2.3C36.6,83.4,37.1,83.4,37.1,83.5z"/>
					</g>
				</g>
				<g>
					<g>
						<path class="st5" d="M70.7,94.1c0,0-0.3,0-1-0.1c-0.6-0.1-1.6-0.3-2.7-0.9c-1.1-0.5-2.3-1.5-3.4-2.8c-0.6-0.7-1.1-1.4-1.7-2.2
							c-0.5-0.8-1-1.8-1.1-2.9c-0.1-1.1,0.1-2.3,1-3.3c0.4-0.5,1-0.8,1.6-0.9c0.6-0.1,1.3,0,1.9,0.2c1.3,0.4,2.2,1.6,2.8,2.8
							c0.5,1.3,0.7,2.7,0.6,4.2c-0.1,1.5-0.5,2.9-1.2,4.3c-0.3,0.7-0.8,1.3-1.2,1.9c-0.5,0.6-1,1.2-1.6,1.7c-1.2,1-2.7,1.8-4.3,2.1
							c-1.6,0.3-3.3,0.3-4.9-0.1c-1.6-0.4-3.2-1.1-4.5-2.1c-1.3-1-2.3-2.3-3-3.8c-0.6-1.4-0.9-3.1-0.5-4.6c0.4-1.5,1.4-2.8,2.8-3.4
							c0.7-0.3,1.4-0.5,2.1-0.4c0.7,0.1,1.4,0.3,2,0.7c1.2,0.8,2,2,2.2,3.3c0.3,1.3,0,2.6-0.5,3.7c-0.5,1.1-1.3,2-2.2,2.6
							c-1.8,1.3-3.8,1.7-5.5,1.8c-1.7,0.1-3.2-0.1-4.4-0.4c-1.2-0.2-2.1-0.5-2.7-0.6c-0.3-0.1-0.5-0.1-0.7-0.2
							c-0.2,0-0.2-0.1-0.2-0.1c0,0,0.1,0,0.2,0c0.2,0,0.4,0.1,0.7,0.2c0.6,0.1,1.5,0.4,2.7,0.6c1.2,0.2,2.7,0.4,4.4,0.3
							c1.7-0.1,3.7-0.6,5.4-1.8c0.8-0.6,1.6-1.5,2.1-2.6c0.5-1,0.8-2.3,0.5-3.5c-0.3-1.2-1-2.4-2.1-3.1c-0.6-0.4-1.2-0.6-1.9-0.7
							c-0.7,0-1.4,0.1-2,0.4c-1.2,0.6-2.2,1.8-2.6,3.2c-0.4,1.4-0.1,3,0.5,4.4c0.6,1.4,1.6,2.7,2.9,3.6c1.3,1,2.7,1.7,4.3,2.1
							c1.6,0.4,3.2,0.4,4.8,0.1c1.5-0.4,3-1.1,4.2-2.1c0.6-0.5,1.1-1.1,1.6-1.6c0.5-0.6,0.9-1.2,1.2-1.9c0.7-1.3,1.1-2.7,1.2-4.2
							c0.1-1.4-0.1-2.8-0.6-4.1c-0.5-1.2-1.4-2.3-2.6-2.7c-1.2-0.4-2.5-0.2-3.3,0.6c-0.8,0.8-1.1,2-1,3.1c0.1,1.1,0.6,2,1.1,2.8
							c0.5,0.8,1.1,1.6,1.6,2.2c1.1,1.3,2.3,2.3,3.3,2.8c1.1,0.6,2,0.8,2.6,0.9C70.4,94.1,70.7,94.1,70.7,94.1z"/>
					</g>
				</g>
				<g>
					<g>
						<path class="st5" d="M75.4,72.4c0,0-0.3,0.1-0.8,0.1c-0.5,0-1.3,0-2.2-0.3c-0.9-0.3-1.9-0.8-2.8-1.7c-0.4-0.4-0.8-1-1-1.7
							c-0.1-0.7,0.1-1.5,0.7-2c0.6-0.5,1.5-0.4,2.1,0c0.6,0.4,1,1,1.1,1.6c0.4,1.2,0.2,2.4-0.2,3.2c-0.4,0.8-0.9,1.4-1.4,1.7
							c-0.2,0.2-0.4,0.3-0.5,0.3c-0.1,0.1-0.2,0.1-0.2,0.1c0,0,0.2-0.2,0.6-0.5c0.4-0.3,0.9-0.9,1.2-1.7c0.3-0.8,0.5-1.9,0.2-3
							c-0.2-0.5-0.5-1.1-1-1.4c-0.5-0.3-1.2-0.4-1.7,0c-0.5,0.4-0.7,1.1-0.6,1.7c0.1,0.6,0.5,1.1,0.9,1.5c0.8,0.8,1.8,1.4,2.6,1.7
							C74.3,72.5,75.4,72.3,75.4,72.4z"/>
					</g>
				</g>
				<g>
					<g>
						<path class="st2" d="M40,67.9c0,0,0.2,0.2,0.5,0.7c0.3,0.5,0.6,1.2,0.8,2.1c0.5,1.8,0.4,4.5-0.8,7.2c-1.1,2.6-2.6,4.8-3.7,6.2
							c-0.6,0.7-1.1,1.3-1.4,1.7c-0.4,0.4-0.6,0.6-0.6,0.6c0,0,0.2-0.2,0.5-0.7c0.3-0.4,0.8-1,1.3-1.7c1.1-1.5,2.5-3.6,3.6-6.2
							c1.1-2.6,1.2-5.2,0.8-7C40.7,68.9,40,68,40,67.9z"/>
					</g>
				</g>
				<g class="st6">
					<g>
						<path d="M39.1,96.1c1.4-0.3,2.6-1.4,3.2-2.7c0.6-1.3,0.8-2.8,0.9-4.2c0.1-2.1-0.1-4.2-0.4-6.3c-0.3-1.9-0.9-3.8-2.3-5.2
							c-0.9,2-2.1,3.9-3.6,5.7c-0.4,0.5-1.1,1.8-1.1,1.8s0.4,0.9,0.5,1.3C37.5,89.7,38.6,92.7,39.1,96.1"/>
					</g>
				</g>
				<g class="st6">
					<g>
						<path d="M70.9,100.1h0.6c0.9-0.2,1.8-1.3,2.3-2.1c0.5-1,0.6-2.3,0.4-3.5c-0.1-1.2-0.4-2.3-0.5-3.5c-0.1-2,0.4-4,0.6-6
							c0.3-2-0.2-4.3-1.3-6c0.8,2.5-2.2,11.3-2.4,16C70.6,96.9,70,98.5,70.9,100.1L70.9,100.1z"/>
					</g>
				</g>
			</g>
		</g>
	</g>
	<g>
		<g>
			<path class="st1" d="M68.4,25c-0.3-4.5-3.3-10-7.7-9.5l-13.9,3.6c-1.4,0.1-2.4,1.3-2.3,2.7l1.6,33.6c0,0-0.1,0-0.1,0
				c0,0,3.2,9.5,12.4,6.6c1.8-0.6,2.7-2.6,3-4.6l0.1,0c0-0.2,0-0.5,0-0.7c0.3-2.4,0.1-4.6,0.1-4.6l0,0c0-2.7,0-3.8,0-3.8
				c0,0,5.7-1,6.9-8.4C68.9,36.1,68.7,30,68.4,25z"/>
		</g>
		<g>
			<g>
				<g>
					<g>
						<g>
							<g>
								<g>
									<g>
										<g>
											<g>
												<g>
													<g>
														<g>
															<g>
																<g>
																	<g>
																		<g>
																			<path class="st2" d="M65.9,29.6c0,0.5-0.4,0.9-0.9,1c-0.5,0-1-0.4-1-0.9c0-0.5,0.4-0.9,0.9-1
																				C65.4,28.7,65.9,29.1,65.9,29.6z"/>
																		</g>
																	</g>
																</g>
															</g>
														</g>
													</g>
												</g>
											</g>
											<g>
												<g>
													<g>
														<g>
															<g>
																<g>
																	<g>
																		<g>
																			<g>
																				<path class="st2" d="M67,28.2c-0.1,0.1-0.8-0.4-1.9-0.4c-1,0-1.8,0.5-1.9,0.4c-0.1-0.1,0.1-0.3,0.4-0.5
																					c0.3-0.2,0.9-0.5,1.5-0.5c0.6,0,1.2,0.2,1.5,0.5C67,27.9,67.1,28.1,67,28.2z"/>
																			</g>
																		</g>
																	</g>
																</g>
															</g>
														</g>
													</g>
												</g>
											</g>
										</g>
										<g>
											<g>
												<g>
													<g>
														<g>
															<g>
																<g>
																	<g>
																		<g>
																			<path class="st2" d="M55.7,29.9c0,0.5-0.4,0.9-0.9,1c-0.5,0-1-0.4-1-0.9c0-0.5,0.4-0.9,0.9-1
																				C55.2,29,55.6,29.4,55.7,29.9z"/>
																		</g>
																	</g>
																</g>
															</g>
														</g>
													</g>
												</g>
											</g>
											<g>
												<g>
													<g>
														<g>
															<g>
																<g>
																	<g>
																		<g>
																			<g>
																				<path class="st2" d="M56.9,28.4C56.8,28.5,56.1,28,55,28c-1,0-1.8,0.5-1.9,0.4c-0.1-0.1,0.1-0.3,0.4-0.5
																					c0.3-0.2,0.9-0.5,1.5-0.5c0.6,0,1.2,0.2,1.5,0.5C56.9,28.1,57,28.4,56.9,28.4z"/>
																			</g>
																		</g>
																	</g>
																</g>
															</g>
														</g>
													</g>
												</g>
											</g>
										</g>
										<g>
											<g>
												<g>
													<g>
														<g>
															<g>
																<g>
																	<g>
																		<g>
																			<path class="st2" d="M60.7,36c0-0.1,0.6-0.2,1.7-0.3c0.3,0,0.5-0.1,0.6-0.3c0.1-0.2,0-0.5-0.2-0.8
																				c-0.2-0.6-0.5-1.3-0.8-2c-1.1-2.8-1.9-5.2-1.8-5.2c0.1,0,1.1,2.2,2.2,5.1c0.3,0.7,0.5,1.4,0.7,2
																				c0.1,0.3,0.3,0.6,0.1,1c-0.1,0.2-0.3,0.3-0.4,0.4C62.7,36,62.5,36,62.4,36C61.3,36.1,60.7,36.1,60.7,36z"/>
																		</g>
																	</g>
																</g>
															</g>
														</g>
													</g>
												</g>
											</g>
										</g>
										<g>
											<g>
												<g>
													<g>
														<g>
															<g>
																<g>
																	<g>
																		<path class="st4" d="M61.4,48.2c0,0-5,0.3-10-2.6c0,0,2.4,5.1,9.9,4.4L61.4,48.2z"/>
																	</g>
																</g>
															</g>
														</g>
													</g>
												</g>
											</g>
										</g>
										<g>
											<g>
												<g>
													<g>
														<g>
															<g>
																<g>
																	<g>
																		<path class="st4" d="M60.2,38.5c-0.4-0.5-1-0.8-1.7-0.7c-0.4,0-0.9,0.3-1.2,0.6c-0.3,0.4-0.3,0.9-0.1,1.2
																			c0.3,0.4,0.9,0.5,1.4,0.3c0.5-0.1,0.9-0.5,1.3-0.8c0.1-0.1,0.2-0.2,0.3-0.3C60.4,38.8,60.4,38.7,60.2,38.5"/>
																	</g>
																</g>
															</g>
														</g>
													</g>
												</g>
											</g>
										</g>
										<g>
											<g>
												<g>
													<g>
														<g>
															<g>
																<g>
																	<g>
																		<g>
																			<path class="st2" d="M57.6,36.8c0.2,0,0.2,1.1,1.1,1.9c1,0.8,2.1,0.7,2.2,0.8c0,0.1-0.3,0.2-0.8,0.2
																				c-0.5,0-1.2-0.1-1.8-0.6c-0.6-0.5-0.8-1.1-0.9-1.6C57.4,37,57.6,36.8,57.6,36.8z"/>
																		</g>
																	</g>
																</g>
															</g>
														</g>
													</g>
												</g>
											</g>
										</g>
									</g>
								</g>
							</g>
							<g>
								<g>
									<g>
										<g>
											<g>
												<g>
													<g>
														<g>
															<path class="st2" d="M57.4,26.6c-0.1,0.3-1.1,0.1-2.3,0.3c-1.2,0.1-2.2,0.5-2.3,0.2c-0.1-0.1,0.1-0.4,0.5-0.7
																c0.4-0.3,1-0.5,1.7-0.6c0.7-0.1,1.4,0,1.8,0.2C57.2,26.3,57.4,26.5,57.4,26.6z"/>
														</g>
													</g>
												</g>
											</g>
										</g>
									</g>
								</g>
							</g>
							<g>
								<g>
									<g>
										<g>
											<g>
												<g>
													<g>
														<g>
															<path class="st2" d="M66.7,25.2c-0.2,0.2-0.9,0-1.7,0c-0.9,0-1.6,0.2-1.7-0.1c-0.1-0.1,0-0.4,0.4-0.6
																c0.3-0.2,0.8-0.4,1.4-0.4c0.6,0,1.1,0.2,1.4,0.5C66.6,24.9,66.7,25.1,66.7,25.2z"/>
														</g>
													</g>
												</g>
											</g>
										</g>
									</g>
								</g>
							</g>
						</g>
					</g>
				</g>
			</g>
			<g>
				<g>
					<path class="st2" d="M41.5,43.6c2.1,0.4,4.3-0.2,5.8-1.6c1.5-1.4,2.3-3.6,2.1-5.7c-0.2-1.8-1.2-3.7-0.6-5.4
						c0.8-2.3,4.1-3,4.9-5.3c0.5-1.3,0.1-2.9,0.6-4.2c0.5-1.2,1.8-1.9,3.1-2.4c1.3-0.5,2.6-0.8,3.7-1.6c1.1-0.8,1.7-2.4,1-3.5
						c-5.6,0.7-11.1,2-16.3,4c-1.2,0.5-2.5,1-3.2,2.1c-0.8,1.1-0.7,2.6-0.7,4c0.3,6.7,0.6,13.4,0.9,20.1"/>
				</g>
			</g>
		</g>
		<g>
			<g>
				<path class="st7" d="M42,46.2c0,0,0,0-0.1-0.1c-0.1-0.1-0.2-0.2-0.3-0.3c-0.3-0.2-0.7-0.6-1.2-1c-0.5-0.5-1.1-1.1-1.8-1.8
					c-0.6-0.8-1.2-1.8-1.4-3.1c-0.2-1.2-0.1-2.8,1-3.9c0.5-0.6,1.1-1,1.7-1.5c0.6-0.5,1.1-1.1,1.4-1.8c0.6-1.5,0.3-3.3,0.5-5.1
					c0.2-1.8,0.9-3.6,2.1-5.1c0.6-0.7,1.4-1.4,2.2-1.8c0.8-0.4,1.8-0.6,2.6-0.9c0.9-0.2,1.6-0.6,2.3-1.1c0.7-0.5,1.2-1.2,1.7-1.8
					c0.9-1.3,1.6-2.7,2.5-3.9c0.4-0.6,0.9-1.1,1.5-1.6c0.5-0.4,1.1-0.8,1.7-0.9c1.2-0.4,2.5-0.3,3.3,0.3c0.8,0.6,1.1,1.5,1.2,2.2
					c0,0.7-0.2,1.3-0.4,1.5c-0.1,0.1-0.2,0.2-0.3,0.3C62,14.8,62,14.8,62,14.8c0,0,0,0,0.1-0.1c0.1-0.1,0.2-0.2,0.3-0.3
					c0.2-0.3,0.4-0.8,0.4-1.5c-0.1-0.7-0.4-1.5-1.2-2.1c-0.8-0.5-2-0.7-3.1-0.3c-0.6,0.2-1.1,0.5-1.7,0.9c-0.5,0.4-1,0.9-1.4,1.5
					c-0.9,1.2-1.5,2.6-2.5,3.9c-0.5,0.7-1,1.3-1.7,1.9c-0.7,0.6-1.5,1-2.4,1.2c-0.9,0.3-1.8,0.4-2.6,0.9c-0.8,0.4-1.5,1-2.1,1.7
					c-1.2,1.4-1.8,3.2-2,5c-0.2,1.7,0,3.5-0.6,5.1c-0.3,0.8-0.8,1.5-1.5,2c-0.6,0.5-1.2,0.9-1.7,1.4c-1,1.1-1.1,2.5-0.9,3.7
					c0.2,1.2,0.7,2.2,1.3,3c0.6,0.8,1.2,1.4,1.7,1.9c0.5,0.5,0.9,0.8,1.2,1.1C41.8,46.1,42,46.2,42,46.2z"/>
			</g>
		</g>
	</g>
</g>
</svg>
