<?xml version="1.0" encoding="utf-8"?>
<!-- Generator: Adobe Illustrator 27.8.0, SVG Export Plug-In . SVG Version: 6.00 Build 0)  -->
<svg version="1.1" id="Camada_1" xmlns="http://www.w3.org/2000/svg" xmlns:xlink="http://www.w3.org/1999/xlink" x="0px" y="0px"
	 viewBox="0 0 100 100.1" style="enable-background:new 0 0 100 100.1;" xml:space="preserve">
<style type="text/css">
	.st0{fill:#F7F7F7;}
	.st1{fill:#FFC19D;}
	.st2{fill:#FF9C6A;}
	.st3{fill:#1A2E35;}
	.st4{fill:#375A64;}
	.st5{fill:#F5F5F5;}
	.st6{opacity:0.3;}
	.st7{fill:#E1E1E1;}
	.st8{fill:#EA505E;}
</style>
<rect y="0" class="st0" width="100" height="100"/>
<g>
	<g>
		<g>
			<path class="st1" d="M22.9,38l0.4,7.7l0.5,1.4c0,0-0.4,4.1-0.5,5c-0.2,0.8-2.5,4.9-2.5,4.9l1.3,4.6l-7.4,0.7c0,0-0.8-4-1.2-4.6
				c-0.4-0.5-0.4-1.8-0.3-2.6c0.1-0.8,0.4-5.7,0.4-5.7s-1.6-5.9-0.3-5.8c0,0,0.1,0,0.1,0c0.5,0.1,0.9,0.5,1,1
				c0.3,1.1,0.8,3.2,1.2,3.3l0.8-0.2c0,0,0-5.5,0.2-6.5c0.2-1,0.6-1.6,1.3-1.5c0,0,0.5,0.4,0.5,0.6c0,0.3-0.2,6.3,0.1,6.3
				c0.3,0,0.3-0.6,0.3-0.6s0.1-7.4,0.3-7.8c0.2-0.4,0.7-0.9,1.4-0.6l0.4,4.2c0,0,0.2-3.4,0.9-3.8C22.4,37.6,22.9,38,22.9,38z"/>
		</g>
		<g>
			<g>
				<path class="st2" d="M17.2,53.2c0.1,0,0.2-0.6,0.7-1.5c0.5-0.9,1.5-2,3-2.7l0.1,0l0-0.1c0-0.5,0-1.1,0.1-1.7l0,0l0,0
					c-0.1-0.2-0.1-0.4-0.2-0.6c-0.2-0.8-0.3-1.5-0.2-2.2c0-0.3,0.1-0.7,0.3-0.9c0.1-0.3,0.4-0.4,0.7-0.4l-0.1-0.1
					c0.6,1,1.1,1.8,1.4,2.4c0.4,0.6,0.6,0.9,0.6,0.9c0,0-0.1-0.4-0.4-1c-0.3-0.6-0.8-1.4-1.3-2.4l0-0.1l-0.1,0
					c-0.4-0.1-0.8,0.2-1,0.5c-0.2,0.3-0.3,0.7-0.3,1.1c-0.1,0.8,0,1.6,0.2,2.4c0.1,0.2,0.1,0.5,0.2,0.7l0-0.1c0,0.6,0,1.2-0.1,1.7
					l0.1-0.2c-1.6,0.7-2.6,1.9-3.1,2.9c-0.2,0.5-0.4,0.9-0.4,1.2C17.2,53,17.2,53.2,17.2,53.2z"/>
			</g>
		</g>
		<g>
			<g>
				<path class="st2" d="M18.7,47.5c0-0.1-1.1-0.1-2.4,0.3c-1.3,0.4-2.2,1-2.1,1.1c0.1,0.1,1-0.4,2.2-0.8
					C17.7,47.8,18.8,47.6,18.7,47.5z"/>
			</g>
		</g>
	</g>
	<g>
		<g>
			<g>
				<g>
					<g>
						<g>
							<g>
								<path class="st3" d="M63.1,18.7c-0.5-1-1.8-1.7-2.9-1.5c-1.3-1.1-3.4-1.1-4.8,0c-1-0.6-2.3-0.7-3.4-0.1
									c-1.1,0.5-1.8,1.7-1.9,2.8c-1.2-0.2-2.5,0.4-3,1.5c-0.6,1.1-0.4,2.5,0.4,3.3c-1.3,0.4-2.2,1.8-1.9,3.2
									c0.3,1.3,1.6,2.3,3,2.2l13.9-8.2C63.4,21.1,63.7,19.8,63.1,18.7z"/>
							</g>
						</g>
					</g>
				</g>
			</g>
		</g>
		<g>
			<g>
				<g>
					<g>
						<g>
							<g>
								<g>
									<g>
										<g>
											<g>
												<path class="st1" d="M48.3,30.5c0.6-6.1,5.8-10.7,11.9-10.5l0.6,0c6.5,0.5,9.7,6.4,9,12.9l-1.4,21.8l-1,2.7L56.2,71.4
													l-2.8-12.7l-0.1-5.9c0,0-6.3-1.1-6.2-7.4C47.1,42.4,47.7,36.1,48.3,30.5z"/>
											</g>
										</g>
									</g>
								</g>
							</g>
						</g>
					</g>
				</g>
				<g>
					<g>
						<g>
							<g>
								<g>
									<g>
										<g>
											<g>
												<g>
													<g>
														<path class="st2" d="M53.3,52.8c0,0,4,0.3,8.2-2.3c0,0-2,4.5-8.2,3.8L53.3,52.8z"/>
													</g>
												</g>
											</g>
										</g>
									</g>
								</g>
							</g>
						</g>
					</g>
				</g>
				<g>
					<g>
						<g>
							<g>
								<g>
									<g>
										<g>
											<g>
												<g>
													<g>
														<g>
															<g>
																<g>
																	<path class="st3" d="M51,36.6c0,0.5,0.4,0.9,0.8,0.9c0.5,0,0.9-0.3,0.9-0.8c0-0.5-0.4-0.9-0.8-0.9
																		C51.5,35.8,51.1,36.1,51,36.6z"/>
																</g>
															</g>
														</g>
													</g>
												</g>
											</g>
										</g>
									</g>
								</g>
							</g>
						</g>
					</g>
				</g>
				<g>
					<g>
						<g>
							<g>
								<g>
									<g>
										<g>
											<g>
												<g>
													<g>
														<g>
															<g>
																<g>
																	<path class="st3" d="M59.7,36.6c0,0.5,0.4,0.9,0.8,0.9c0.5,0,0.9-0.3,0.9-0.8c0-0.5-0.4-0.9-0.8-0.9
																		C60.1,35.8,59.7,36.1,59.7,36.6z"/>
																</g>
															</g>
														</g>
													</g>
												</g>
											</g>
										</g>
									</g>
								</g>
							</g>
						</g>
					</g>
				</g>
				<g>
					<g>
						<g>
							<g>
								<g>
									<g>
										<g>
											<g>
												<g>
													<g>
														<g>
															<g>
																<g>
																	<g>
																		<path class="st3" d="M49.5,33.9c0.1,0.1,0.8-0.4,1.8-0.3c1,0,1.7,0.5,1.8,0.4c0.1-0.1-0.1-0.3-0.4-0.5
																			c-0.3-0.2-0.8-0.5-1.4-0.5c-0.6,0-1.1,0.2-1.4,0.4C49.5,33.6,49.4,33.8,49.5,33.9z"/>
																	</g>
																</g>
															</g>
														</g>
													</g>
												</g>
											</g>
										</g>
									</g>
								</g>
							</g>
						</g>
					</g>
				</g>
				<g>
					<g>
						<g>
							<g>
								<g>
									<g>
										<g>
											<g>
												<g>
													<g>
														<g>
															<g>
																<g>
																	<g>
																		<path class="st3" d="M59.1,34.4c0.1,0.1,0.8-0.4,1.8-0.3c1,0,1.7,0.5,1.8,0.4c0.1-0.1-0.1-0.3-0.4-0.5
																			c-0.3-0.2-0.8-0.5-1.4-0.5c-0.6,0-1.1,0.2-1.4,0.4C59.2,34.1,59.1,34.3,59.1,34.4z"/>
																	</g>
																</g>
															</g>
														</g>
													</g>
												</g>
											</g>
										</g>
									</g>
								</g>
							</g>
						</g>
					</g>
				</g>
				<g>
					<g>
						<g>
							<g>
								<g>
									<g>
										<g>
											<g>
												<g>
													<g>
														<g>
															<g>
																<g>
																	<path class="st3" d="M55.4,41c0-0.1-0.6-0.2-1.6-0.3c-0.2,0-0.5-0.1-0.5-0.3c-0.1-0.2,0.1-0.4,0.2-0.7
																		c0.2-0.6,0.5-1.2,0.8-1.9c1.1-2.7,1.8-4.8,1.7-4.9c-0.1,0-1.1,2.1-2.1,4.7c-0.3,0.7-0.5,1.3-0.7,1.9
																		c-0.1,0.3-0.3,0.6-0.1,1c0.1,0.2,0.2,0.3,0.4,0.4c0.2,0.1,0.3,0.1,0.4,0.1C54.8,41.1,55.4,41.1,55.4,41z"/>
																</g>
															</g>
														</g>
													</g>
												</g>
											</g>
										</g>
									</g>
								</g>
							</g>
						</g>
					</g>
				</g>
				<g>
					<g>
						<g>
							<g>
								<g>
									<g>
										<g>
											<g>
												<g>
													<path class="st3" d="M58.9,31.9c0.1,0.3,0.9,0,2,0.1c1,0,1.8,0.3,2,0c0-0.1-0.1-0.4-0.5-0.6C62,31.2,61.5,31,60.9,31
														c-0.6,0-1.1,0.1-1.5,0.4C59.1,31.6,58.9,31.8,58.9,31.9z"/>
												</g>
											</g>
										</g>
									</g>
								</g>
							</g>
						</g>
					</g>
				</g>
				<g>
					<g>
						<g>
							<g>
								<g>
									<g>
										<g>
											<g>
												<g>
													<path class="st3" d="M49.7,31.3c0.1,0.2,0.8,0.1,1.6,0.1c0.8,0,1.5,0.3,1.6,0.1c0.1-0.1,0-0.3-0.3-0.6
														c-0.3-0.2-0.7-0.5-1.3-0.5c-0.5,0-1,0.1-1.3,0.3C49.8,30.9,49.7,31.1,49.7,31.3z"/>
												</g>
											</g>
										</g>
									</g>
								</g>
							</g>
						</g>
					</g>
				</g>
				<g>
					<g>
						<g>
							<g>
								<g>
									<g>
										<g>
											<g>
												<path class="st3" d="M48.9,27.6c0,0,1.7-3.9,3.7-4.8c2.3-1.1,3.3,1.5,5.5,0.9c2.2-0.6,4.4-1.6,6.6,0.2
													c2.4,1.9,1.2,3.2,1.3,6c0.4,11.3,2.4,14.6,3.1,9.2c0.1-0.6,1.7-1,2-3.5c0.4-3.2,0.6-7.1-0.1-9.4
													c-0.6-1.9-1.6-3.3-3.6-4.8c-3-2.4-7.3-2.5-10.2-2.3C54.4,19.5,48.8,22.7,48.9,27.6z"/>
											</g>
										</g>
									</g>
								</g>
							</g>
						</g>
					</g>
				</g>
				<g>
					<g>
						<g>
							<g>
								<g>
									<g>
										<g>
											<g>
												<path class="st1" d="M68.7,38.9c0.1-1,0.9-1.7,1.9-1.6c1.2,0.1,2.5,0.8,2.3,3.3c-0.2,4.3-4.5,3.2-4.5,3.1
													C68.4,43.5,68.6,40.7,68.7,38.9z"/>
											</g>
										</g>
									</g>
								</g>
							</g>
						</g>
					</g>
				</g>
				<g>
					<g>
						<g>
							<g>
								<g>
									<g>
										<g>
											<g>
												<path class="st2" d="M69.4,42.1c0,0,0.1,0.1,0.2,0.1c0.1,0.1,0.3,0.1,0.6,0c0.5-0.1,0.9-0.8,0.9-1.6
													c0-0.4,0-0.8-0.2-1.1c-0.1-0.3-0.3-0.6-0.5-0.6C70.2,38.9,70,39,70,39.1c-0.1,0.1,0,0.2-0.1,0.2c0,0-0.1-0.1,0-0.3
													c0-0.1,0.1-0.2,0.2-0.3c0.1-0.1,0.3-0.1,0.4-0.1c0.3,0,0.6,0.4,0.7,0.7c0.2,0.3,0.2,0.8,0.2,1.2
													c-0.1,0.9-0.6,1.7-1.2,1.8c-0.3,0.1-0.6,0-0.7-0.1C69.4,42.2,69.4,42.1,69.4,42.1z"/>
											</g>
										</g>
									</g>
								</g>
							</g>
						</g>
					</g>
				</g>
			</g>
			<g>
				<g>
					<g>
						<g>
							<g>
								<g>
									<g>
										<path class="st3" d="M68.8,30.6c-0.6,0.4-1.2,0.8-1.8,0.8c-0.7,0.1-1.4-0.3-1.5-1c0-0.3,0-0.6-0.2-0.9
											c-0.2-0.3-0.7-0.2-1-0.2c-1.3,0.1-2.5-0.8-2.8-2c-0.3,0.5-1.1,0.4-1.5,0.1c-0.5-0.3-0.8-0.8-1.1-1.3
											c-0.4-0.4-0.9-0.8-1.5-0.8c-0.3,0-0.6,0.2-0.9,0.2c-0.6-0.1-0.8-0.7-0.9-1.3c-0.1-0.6-0.1-1.2-0.6-1.5
											c-0.4-0.3-1-0.1-1.5-0.1c-0.5,0.1-1.2-0.1-1.3-0.6c-0.1-0.3,0.1-0.5,0.2-0.8c0.7-1,2.2-1.5,3.3-1c0.4-1.4,1.8-2.5,3.3-2.6
											c1.5-0.1,3,0.7,3.7,2c0.9-0.8,2.3-1.1,3.4-0.8c1.2,0.3,2.2,1.2,2.6,2.3c1.1-0.3,2.2,0.2,2.9,1c0.6,0.9,0.7,2.1,0.2,3.1
											c0.8,0.5,1.4,1.2,1.4,2.1c0,0.9-0.9,1.8-1.7,1.5c0.3,0.7,0,1.6-0.6,2c-0.7,0.4-1.6,0.1-2-0.5"/>
									</g>
								</g>
							</g>
						</g>
					</g>
				</g>
			</g>
		</g>
		<g>
			<path class="st2" d="M57.7,42.6c0.1,0,0.2-0.1,0.3,0c0.1,0,0.1,0.1,0.2,0.2c0.3,0.7,0.2,1.5-0.2,2.1c0,0,0,0,0,0
				c-0.6,0.9-2,0.7-2.4-0.3l-0.3-0.7C55.8,43.6,57.2,42.9,57.7,42.6z"/>
		</g>
		<g>
			<g>
				<path class="st3" d="M55.7,44.9c0,0,0.3,0.4,1.1,0.5c0.2,0,0.4,0,0.6-0.1c0.2-0.1,0.4-0.2,0.6-0.4c0.3-0.4,0.4-1,0.4-1.6
					c0-0.1,0-0.3,0-0.4c0-0.1-0.1-0.3-0.3-0.4c-0.2-0.1-0.4,0-0.5,0c-0.1,0.1-0.2,0.1-0.3,0.2c-0.4,0.2-0.8,0.4-1.1,0.6
					c-0.6,0.3-1,0.6-1,0.6c0,0,0.4-0.1,1.1-0.4c0.4-0.2,0.8-0.3,1.2-0.5c0.2-0.1,0.5-0.3,0.6-0.2c0.1,0.1,0.1,0.4,0.1,0.6
					c0,0.5-0.1,1-0.4,1.4c-0.1,0.2-0.3,0.3-0.5,0.4c-0.2,0.1-0.3,0.1-0.5,0.1C56.1,45.2,55.8,44.9,55.7,44.9z"/>
			</g>
		</g>
		<g>
			<g>
				<g>
					<g>
						<g>
							<g>
								<g>
									<path class="st4" d="M71.5,29c0,0,0.1,0.4-0.3,0.8c-0.2,0.2-0.5,0.4-0.9,0.5c-0.4,0.1-0.9,0-1.2-0.4l0.2,0
										c-0.2,0.4-0.5,0.7-0.9,1.1c-0.2,0.2-0.5,0.4-0.8,0.5c-0.3,0.1-0.6,0.1-0.9,0.1c-0.5-0.1-1-0.4-1.2-0.7
										c-0.2-0.4-0.3-0.7-0.3-0.9c0-0.2,0-0.3,0-0.3c0,0,0.1,0.1,0.1,0.3c0.1,0.2,0.2,0.5,0.4,0.8c0.4,0.6,1.7,1,2.6,0.1
										c0.3-0.3,0.6-0.6,0.8-1l0.1-0.1l0.1,0.1c0.3,0.3,0.7,0.4,1,0.4c0.3,0,0.6-0.2,0.8-0.4C71.5,29.3,71.5,29,71.5,29z"/>
								</g>
							</g>
						</g>
					</g>
				</g>
			</g>
		</g>
		<g>
			<g>
				<g>
					<g>
						<g>
							<g>
								<g>
									<path class="st4" d="M63.6,19c0,0-0.1,0-0.3,0.1c-0.2,0.1-0.5,0.2-0.7,0.6l-0.1,0.1l-0.1-0.1c-0.4-0.5-1.1-1.3-2-1.7
										c-0.5-0.2-1.1-0.4-1.7-0.4c-0.6,0-1.3,0.1-1.8,0.5c-0.4,0.3-0.8,0.6-1.1,1c-0.3,0.4-0.4,0.8-0.5,1.3l0,0.1l-0.1,0
										c-0.6-0.2-1.3-0.1-1.8,0.2c-0.5,0.3-0.8,0.7-1,1c-0.4,0.7-0.3,1.3-0.3,1.3c0,0,0-0.1,0-0.4c0-0.2,0-0.6,0.2-1
										c0.2-0.4,0.5-0.8,1-1.1c0.5-0.3,1.2-0.4,1.9-0.2l-0.1,0.1c0.1-0.5,0.2-1,0.5-1.4c0.3-0.4,0.7-0.8,1.2-1.1
										c0.6-0.4,1.3-0.5,2-0.5c0.7,0,1.3,0.2,1.8,0.5c1,0.5,1.7,1.3,2.1,1.8l-0.1,0c0.2-0.3,0.6-0.5,0.8-0.5
										C63.5,19,63.6,19,63.6,19z"/>
								</g>
							</g>
						</g>
					</g>
				</g>
			</g>
		</g>
	</g>
	<g>
		<polygon class="st5" points="69.1,100.1 69.1,93.6 72,66.5 68.5,56.1 68.3,53.3 61,59 57.1,61.9 55.6,61.9 54.6,58.8 53.4,54 
			51.4,56 46.4,66.7 42.7,100.1 		"/>
		<path class="st3" d="M54.3,100.1c0.1-2.1,0.2-4.4,0.3-6.7c0.4-7.8,0.9-14.9,1.2-20c0.2-2.5,0.3-4.6,0.4-6.1c0-0.7,0.1-1.3,0.1-1.6
			c0-0.2,0-0.3,0-0.4c0-0.1,0-0.1,0-0.1c0,0,0,0,0,0.1c0,0.1,0,0.2,0,0.4c0,0.4-0.1,0.9-0.2,1.6c-0.1,1.4-0.3,3.5-0.5,6
			c-0.4,5.1-0.9,12.2-1.3,20c-0.1,2.3-0.2,4.5-0.3,6.7H54.3z"/>
		<path class="st3" d="M75.6,100.1l1.7-10.9L85,65.6l-13.9-7.3L69.4,56l-1.1-1.9c0,0-0.7,14.1-0.8,17.9c-0.1,3.7-1.2,18-2,26.6
			c0,0.5-0.1,1-0.1,1.5H75.6z"/>
		<path class="st3" d="M36.8,100.1h8.6c0.3-2,0.5-3.4,0.5-3.4l3.3-30.8c0.3-2.9,1.1-5.8,2.4-8.5l1.6-3.4l-4.2,2l-11.8,2.4l-1.6,13.6
			l1.3,27L36.8,100.1z"/>
		<path class="st4" d="M47.6,57.3c0,0-0.1,0.1-0.2,0.2c-0.1,0.2-0.3,0.4-0.5,0.6c-0.5,0.6-1.1,1.4-1.9,2.4l0,0.1l0.1,0
			c0.5,0.4,1,0.8,1.6,1.2l0-0.1c-0.6,0.2-1.2,0.4-1.9,0.6l-0.1,0l0,0.1c0,3.4,0.1,7.6,0.1,12.3c0.1,5.6,0.2,10.7,0.2,14.4
			c0,1.8,0.1,3.3,0.1,4.4c0,0.5,0,0.9,0,1.2c0,0.1,0,0.2,0,0.3c0,0.1,0,0.1,0,0.1c0,0,0,0,0-0.1c0-0.1,0-0.2,0-0.3
			c0-0.3,0-0.7,0-1.2c0-1.1,0-2.5,0-4.4c0-3.7-0.1-8.8-0.1-14.4c-0.1-4.6-0.1-8.9-0.2-12.3l-0.1,0.1c0.7-0.2,1.3-0.4,1.9-0.6l0.1,0
			l-0.1-0.1c-0.6-0.4-1.1-0.8-1.6-1.2l0,0.1c0.8-1,1.4-1.8,1.9-2.4c0.2-0.3,0.4-0.5,0.5-0.7C47.5,57.3,47.6,57.3,47.6,57.3z"/>
		<path class="st4" d="M66.1,94.1c0,0,0,0,0-0.1c0-0.1,0.1-0.2,0.1-0.3c0.1-0.3,0.2-0.7,0.4-1.2c0.3-1,0.8-2.5,1.5-4.3
			c0.3-0.9,0.7-1.9,1-2.9c0.4-1,0.7-2.2,1.1-3.4c0.6-2.4,1.1-5.2,1.5-8.1c0.5-3.7,0.8-7.3,1.1-10.3l0,0l0,0
			c-0.6-0.6-1.1-1.1-1.6-1.6l0,0.1c0.5-0.4,1.1-0.8,1.5-1.2l0.1,0l0-0.1c-1.2-1.6-2.1-2.9-2.8-3.8c-0.3-0.4-0.6-0.8-0.8-1
			c-0.1-0.1-0.2-0.2-0.2-0.3c0-0.1-0.1-0.1-0.1-0.1c0,0,0,0,0.1,0.1c0,0.1,0.1,0.2,0.2,0.3c0.2,0.3,0.4,0.6,0.7,1
			c0.7,0.9,1.6,2.2,2.7,3.8l0-0.1c-0.5,0.4-1,0.8-1.6,1.2L70.8,62l0.1,0.1c0.5,0.5,1.1,1,1.6,1.6l0-0.1c-0.2,3-0.6,6.6-1.1,10.3
			c-0.4,2.9-0.9,5.6-1.5,8c-0.3,1.2-0.7,2.4-1,3.4c-0.4,1.1-0.7,2-1,2.9c-0.6,1.8-1.1,3.3-1.4,4.3c-0.2,0.5-0.3,0.9-0.3,1.2
			c0,0.1-0.1,0.2-0.1,0.3C66.1,94.1,66.1,94.1,66.1,94.1z"/>
		<path class="st6" d="M44.7,62.3l-1.2,1.6c0,0,0.3,24.2,1.6,30.2L44.7,62.3z"/>
		<g>
			<path class="st3" d="M93.5,100.1c0-0.5-0.1-1.1-0.2-1.8c-0.6-4.8-8.4-32.7-8.4-32.7L77,87.4l3.7,12.7H93.5z"/>
		</g>
		<g>
			<g>
				<path class="st4" d="M75.7,100.1c0.6-2.8,1.5-7.9,2.6-13.8c1.6-8.9,2.8-16.1,2.8-16.1c-0.1,0-1.5,7.2-3.1,16
					c-1.1,5.9-2,11-2.4,13.8H75.7z"/>
			</g>
		</g>
		<g>
			<polygon class="st7" points="22.6,61.8 22.5,59.4 12.8,59.2 12.8,61.6 			"/>
			<path class="st3" d="M37.2,58.6c-1.5,0.8-3,2.5-6.1,8.2l-7.7,8.9L23,61.8l-10.5-0.2c0,0-0.1,15.6,0,19.5
				c0.2,4.9,1.6,10.8,8.9,10.2c6.9-0.5,16.2-12.2,16.2-12.2L37.2,58.6z"/>
		</g>
		<g>
			<path class="st4" d="M34.8,67.4c0.1,0,0.7,6.8,1.3,15.2c0.6,8.4,1,15.2,0.9,15.2c-0.1,0-0.7-6.8-1.3-15.2
				C35.1,74.3,34.7,67.4,34.8,67.4z"/>
		</g>
		<g>
			<path class="st4" d="M23,83.6c-0.1,0,0.5-2.1,0.5-4.6c0-2.6-0.4-4.7-0.2-4.7c0,0,0.2,0.5,0.3,1.3c0.1,0.8,0.3,2,0.3,3.3
				c0,1.3-0.2,2.5-0.4,3.3C23.2,83.1,23,83.6,23,83.6z"/>
		</g>
		<g>
			<path class="st3" d="M68.2,58.3c0,0-0.1,0.2-0.4,0.5c-0.3,0.3-0.7,0.8-1.3,1.3c-1.1,1.1-2.6,2.6-4.3,4.2
				c-0.4,0.4-0.8,0.7-1.1,1.1l-0.2,0.2l-0.1-0.2c-0.6-1.5-1.1-2.9-1.5-4.1l0.2,0c-0.6,0.5-1.1,1-1.4,1.3c-0.3,0.3-0.5,0.5-0.6,0.4
				c0,0,0.1-0.2,0.5-0.5c0.3-0.3,0.8-0.8,1.4-1.4l0.1-0.1l0.1,0.2c0.4,1.1,1,2.5,1.6,4l-0.3-0.1c0.4-0.4,0.7-0.7,1.1-1.1
				c1.7-1.6,3.2-3.1,4.4-4.1c0.6-0.5,1-0.9,1.4-1.2C68,58.4,68.2,58.3,68.2,58.3z"/>
		</g>
		<g>
			<path class="st3" d="M55.2,62.6c-0.1,0-0.4-0.8-1-2.2l0.2,0c-0.7,0.9-1.4,2.1-2,3.5c-0.1,0.2-0.2,0.4-0.2,0.6L51.9,65l-0.1-0.5
				c-0.4-1.6-0.6-3.1-0.6-4.1c0-1.1,0.1-1.7,0.1-1.7c0,0,0,0.6,0.1,1.7c0.1,1,0.3,2.5,0.7,4.1l-0.3,0c0.1-0.2,0.2-0.4,0.3-0.6
				c0.6-1.5,1.4-2.7,2.1-3.5l0.1-0.2l0.1,0.2C54.9,61.7,55.2,62.6,55.2,62.6z"/>
		</g>
		<g>
			<g>
				<polygon class="st8" points="53.9,64 55.3,66 57.4,66 58.5,64 57.4,61.8 55.6,61.5 				"/>
			</g>
			<g>
				<polygon class="st8" points="59.1,100.1 57.3,65 55.2,65 50.6,100.1 				"/>
			</g>
		</g>
	</g>
</g>
</svg>
