<svg id="Camada_1" data-name="Camada 1" xmlns="http://www.w3.org/2000/svg" viewBox="0 0 50 95.21"><defs><style>.cls-1{fill:#e1e1e1;}.cls-2{fill:#ececec;}.cls-3{fill:#f5f5f5;}.cls-4{fill:#fafafa;}.cls-5{fill:#fff;}</style></defs><rect class="cls-1" x="3.45" y="20.92" width="43.71" height="70.66"/><rect class="cls-2" x="32.54" y="19.94" width="16.93" height="19.82"/><polygon class="cls-3" points="43.7 0 43.71 2.89 42.63 3.36 44.04 3.36 44.32 5.17 18.81 8.05 16.25 4.07 43.7 0"/><polygon class="cls-1" points="47.68 6.1 47.34 4.42 44.18 4.81 29.42 6.62 29.98 8.45 47.68 6.1"/><path class="cls-1" d="M44.35,12.06l14.37-1.65h0a4.84,4.84,0,0,0-5.2-3.32L42.2,8.51Z" transform="translate(-25 -2.4)"/><path class="cls-2" d="M25,8.65l0,9.71,50-.13h0a4.6,4.6,0,0,0-4.61-4.59L47.9,13.7,42.09,5.82,27.64,6A2.68,2.68,0,0,0,25,8.65Z" transform="translate(-25 -2.4)"/><path class="cls-2" d="M25.17,19v3.79a1.6,1.6,0,0,0,1.6,1.59h47.7V19Z" transform="translate(-25 -2.4)"/><path class="cls-2" d="M8.8,39.77H49.47a0,0,0,0,1,0,0V62a0,0,0,0,1,0,0H.23a0,0,0,0,1,0,0V48.34A8.57,8.57,0,0,1,8.8,39.77Z"/><path class="cls-2" d="M7,62.45H44.74a4.73,4.73,0,0,1,4.73,4.73v3.33a0,0,0,0,1,0,0H.23a0,0,0,0,1,0,0v-1.3A6.76,6.76,0,0,1,7,62.45Z"/><path class="cls-1" d="M16.86,62.45H32.62a0,0,0,0,1,0,0v0a3.73,3.73,0,0,1-3.73,3.73H20.6a3.73,3.73,0,0,1-3.73-3.73v0A0,0,0,0,1,16.86,62.45Z"/><path class="cls-2" d="M7.35,70.83h35A7.13,7.13,0,0,1,49.47,78v9.17a0,0,0,0,1,0,0H.23a0,0,0,0,1,0,0V78A7.13,7.13,0,0,1,7.35,70.83Z"/><path class="cls-1" d="M16.86,70.83H32.62a0,0,0,0,1,0,0v0a3.73,3.73,0,0,1-3.73,3.73H20.6a3.73,3.73,0,0,1-3.73-3.73v0A0,0,0,0,1,16.86,70.83Z"/><rect class="cls-2" x="0.23" y="87.96" width="49.24" height="7.25"/><rect class="cls-4" x="13.22" y="34.37" width="19.32" height="1.21"/><rect class="cls-3" x="6.53" y="29.85" width="26.01" height="4.52"/><path class="cls-3" d="M47.39,30.7V19H74.47V28.6a2.1,2.1,0,0,1-2.1,2.1h-25" transform="translate(-25 -2.4)"/><rect class="cls-5" x="24.28" y="18.16" width="14.37" height="7.48"/><rect class="cls-1" x="41" y="18.16" width="0.81" height="0.81"/><rect class="cls-1" x="42.56" y="18.16" width="0.81" height="0.81"/><rect class="cls-1" x="44.12" y="18.16" width="0.81" height="0.81"/><rect class="cls-1" x="45.99" y="18.16" width="2.18" height="0.81"/><rect class="cls-1" x="45.99" y="19.54" width="2.18" height="0.81"/><rect class="cls-1" x="45.99" y="20.92" width="2.18" height="0.81"/><rect class="cls-1" x="45.99" y="22.41" width="2.18" height="0.81"/><rect class="cls-1" x="44.12" y="19.56" width="0.81" height="0.81"/><rect class="cls-1" x="41" y="19.61" width="0.81" height="0.81"/><rect class="cls-1" x="41" y="20.95" width="0.81" height="0.81"/><rect class="cls-1" x="42.61" y="19.61" width="0.81" height="0.81"/><rect class="cls-1" x="42.61" y="20.95" width="0.81" height="0.81"/><rect class="cls-1" x="44.19" y="20.95" width="0.81" height="0.81"/><path class="cls-1" d="M70.82,27.32a1.4,1.4,0,1,1-1.4-1.4A1.4,1.4,0,0,1,70.82,27.32Z" transform="translate(-25 -2.4)"/><path class="cls-1" d="M67.49,27.32a.83.83,0,1,1-.83-.83A.83.83,0,0,1,67.49,27.32Z" transform="translate(-25 -2.4)"/><path class="cls-1" d="M73,27.34a.83.83,0,0,1-1.66,0,.83.83,0,0,1,1.66,0Z" transform="translate(-25 -2.4)"/><path class="cls-1" d="M74.44,62.22c0,.05-11,.09-24.57.09s-24.58,0-24.58-.09,11-.08,24.58-.08S74.44,62.17,74.44,62.22Z" transform="translate(-25 -2.4)"/><path class="cls-1" d="M74.44,60.41c0,.05-11,.09-24.57.09s-24.58,0-24.58-.09,11-.08,24.58-.08S74.44,60.37,74.44,60.41Z" transform="translate(-25 -2.4)"/><path class="cls-1" d="M74.44,58.61s-11,.08-24.57.08-24.58,0-24.58-.08,11-.09,24.58-.09S74.44,58.56,74.44,58.61Z" transform="translate(-25 -2.4)"/><path class="cls-1" d="M74.44,56.8c0,.05-11,.09-24.57.09s-24.58,0-24.58-.09,11-.08,24.58-.08S74.44,56.76,74.44,56.8Z" transform="translate(-25 -2.4)"/></svg>