<?xml version="1.0" encoding="utf-8"?>
<!-- Generator: Adobe Illustrator 26.0.3, SVG Export Plug-In . SVG Version: 6.00 Build 0)  -->
<svg version="1.1" id="Camada_1" xmlns="http://www.w3.org/2000/svg" xmlns:xlink="http://www.w3.org/1999/xlink" x="0px" y="0px"
	 viewBox="0 0 1920 1271" style="enable-background:new 0 0 1920 1271;" xml:space="preserve">
<style type="text/css">
	.st0{fill:#ECECEC;}
	.st1{fill:#E1E0E0;}
	.st2{fill:#F5F5F5;}
	.st3{fill:#FFFFFF;}
	.st4{fill:#192E35;}
	.st5{fill:#385A65;}
	.st6{fill:#EA505E;}
	.st7{opacity:0.6;enable-background:new    ;}
	.st8{opacity:0.3;enable-background:new    ;}
	.st9{fill:#FBFBFB;}
	.st10{opacity:0.5;fill:#FFFFFF;enable-background:new    ;}
</style>
<g>
	<g>
		<g>
			<rect x="79.7" y="791.9" class="st0" width="331" height="25.6"/>
			<rect x="319.8" y="791.9" class="st1" width="90.9" height="25.6"/>
		</g>
		<path class="st2" d="M37.7,817.6c0,2.1,0,115.6,0,115.6H19.6v12.6h18.1v77.4h338.9v-70.4h-25.1v-15.3h25.1v-23.1h11.1V904h-13.3
			v-86.4H37.7L37.7,817.6z"/>
		<polygon class="st1" points="286.6,817.9 286.6,1021.9 376.7,1021.9 376.7,951.5 351.5,951.5 351.5,937.4 376.7,937.4 
			376.7,914.5 387.9,914.5 387.9,902.7 374.6,902.7 374.6,817.6 		"/>
		<g>
			<path class="st1" d="M292.9,944.1c0,0.7-61.3,1.3-136.9,1.3s-136.9-0.5-136.9-1.3c0-0.7,61.3-1.3,136.9-1.3
				C231.6,942.9,292.9,943.4,292.9,944.1z"/>
		</g>
		<g>
			<path class="st1" d="M292.9,932.4c0,0.7-61.3,1.3-136.9,1.3s-136.9-0.5-136.9-1.3c0-0.7,61.3-1.3,136.9-1.3
				S292.9,931.6,292.9,932.4z"/>
		</g>
		<g>
			<path class="st1" d="M310.8,900.8c0,0.7-61.3,1.3-136.9,1.3S37,901.6,37,900.8c0-0.7,61.3-1.3,136.9-1.3
				C249.3,899.4,310.8,900.1,310.8,900.8z"/>
		</g>
		<g>
			<path class="st1" d="M312.4,986.9c0,0.7-61.3,1.3-136.9,1.3s-136.9-0.5-136.9-1.3c0-0.7,61.3-1.3,136.9-1.3
				C251.1,985.7,312.4,986.2,312.4,986.9z"/>
		</g>
		<g>
			<path class="st2" d="M76.1,1047.8c0,2.1,0,115.6,0,115.6H58v12.6h18.1v77.4H415V1183h-25.1v-15.4H415v-23.1h11.1V1134h-13.3
				v-86.4L76.1,1047.8L76.1,1047.8z"/>
			<polygon class="st1" points="325.1,1048 325.1,1252 415,1252 415,1181.6 390,1181.6 390,1167.5 415,1168 415,1145 426.5,1145 
				426.4,1133.2 413.1,1132.8 413.1,1047.8 			"/>
			<g>
				<path class="st1" d="M331.6,1174.2c0,0.7-61.3,1.3-136.9,1.3s-136.9-0.5-136.9-1.3c0-0.7,61.3-1.3,136.9-1.3
					C270.1,1173,331.6,1173.5,331.6,1174.2z"/>
			</g>
			<g>
				<path class="st1" d="M331.6,1162.5c0,0.7-61.3,1.3-136.9,1.3s-136.9-0.5-136.9-1.3c0-0.7,61.3-1.3,136.9-1.3
					C270.1,1161.2,331.6,1161.7,331.6,1162.5z"/>
			</g>
			<g>
				<path class="st1" d="M349.1,1130.9c0,0.7-61.3,1.3-136.9,1.3s-136.9-0.5-136.9-1.3c0-0.7,61.3-1.3,136.9-1.3
					S349.1,1130.2,349.1,1130.9z"/>
			</g>
			<g>
				<path class="st1" d="M350.9,1217c0,0.7-61.3,1.3-136.9,1.3s-137-0.5-137-1.3c0-0.7,61.3-1.3,136.9-1.3
					C289.6,1215.8,350.9,1216.3,350.9,1217z"/>
			</g>
		</g>
		<g>
			<path class="st2" d="M71.3,586.3c0,2.1,0,115.6,0,115.6H53.2v12.6h18.1v77.4h338.9v-70.4h-25.1v-15.3h25.1v-23.1h11.1v-10.5H408
				v-86.4H71.3V586.3z"/>
			<polygon class="st1" points="320.3,586.7 320.3,790.7 410.3,790.7 410.3,720.1 385.1,720.1 385.1,706.2 410.3,706.6 410.3,683.7 
				421.5,683.7 421.4,671.7 408.1,671.3 408.1,586.3 			"/>
			<g>
				<path class="st1" d="M326.5,712.9c0,0.7-61.3,1.3-136.9,1.3s-136.9-0.5-136.9-1.3c0-0.7,61.3-1.3,136.9-1.3
					S326.5,712.1,326.5,712.9z"/>
			</g>
			<g>
				<path class="st1" d="M326.5,701.1c0,0.7-61.3,1.3-136.9,1.3s-136.9-0.5-136.9-1.3c0-0.7,61.3-1.3,136.9-1.3
					C265.2,699.9,326.5,700.4,326.5,701.1z"/>
			</g>
			<g>
				<path class="st1" d="M344.3,669.4c0,0.7-61.3,1.3-136.9,1.3s-136.9-0.5-136.9-1.3c0-0.7,61.3-1.3,136.9-1.3
					C282.9,668.2,344.3,668.8,344.3,669.4z"/>
			</g>
			<g>
				<path class="st1" d="M345.9,755.7c0,0.7-61.3,1.3-136.9,1.3s-136.9-0.5-136.9-1.3c0-0.7,61.3-1.3,136.9-1.3
					S345.9,754.9,345.9,755.7z"/>
			</g>
		</g>
		<g>
			<rect x="57.6" y="1022" class="st0" width="331" height="25.6"/>
			<rect x="297.8" y="1022" class="st1" width="90.9" height="25.6"/>
		</g>
	</g>
	<g>
		<g>
			<g>
				<g>
					<g>
						<g>
							<g>
								<polygon class="st2" points="1312.1,1103.4 1312.1,1253.3 1531.2,1253.3 1773,1253.3 1773,1103.4 								"/>
							</g>
						</g>
					</g>
				</g>
			</g>
			<g>
				<g>
					<g>
						<g>
							<g>
								<polygon class="st1" points="1292.7,1061.6 1292.7,1103.4 1789.1,1103.4 1789.1,1061.6 1531.2,1061.6 								"/>
							</g>
						</g>
					</g>
				</g>
			</g>
			<g>
				<g>
					<g>
						<g>
							<g>
								<polygon class="st1" points="1540.8,1253.3 1773,1253.3 1773,1103.4 1789.1,1103.4 1789.1,1061.6 1531.2,1061.6 
									1531.2,1099.5 								"/>
							</g>
						</g>
					</g>
				</g>
			</g>
			<g>
				<g>
					<g>
						<g>
							<g>
								<rect x="1376.6" y="1127.5" class="st1" width="93.5" height="22.5"/>
							</g>
						</g>
					</g>
				</g>
			</g>
			<g>
				<g>
					<g>
						<g>
							<g>
								<rect x="1364.5" y="1178.4" class="st3" width="120" height="47.6"/>
							</g>
						</g>
					</g>
				</g>
			</g>
		</g>
	</g>
	<g>
		<g>
			<g>
				<g>
					<g>
						<g>
							<g>
								<polygon class="st2" points="1342.1,875.1 1342.1,1050.8 1598.9,1050.8 1882,1050.8 1882,875.1 								"/>
							</g>
						</g>
					</g>
				</g>
			</g>
			<g>
				<g>
					<g>
						<g>
							<g>
								<polygon class="st1" points="1319.4,826 1319.4,875.1 1900.9,875.1 1900.9,826 1598.9,826 								"/>
							</g>
						</g>
					</g>
				</g>
			</g>
			<g>
				<g>
					<g>
						<g>
							<g>
								<polygon class="st1" points="1610.2,1050.8 1882,1050.8 1882,875.1 1900.9,875.1 1900.9,826 1598.9,826 1598.9,870.5 
																	"/>
							</g>
						</g>
					</g>
				</g>
			</g>
			<g>
				<g>
					<g>
						<g>
							<g>
								<rect x="1417.6" y="903.4" class="st1" width="109.6" height="26.4"/>
							</g>
						</g>
					</g>
				</g>
			</g>
			<g>
				<g>
					<g>
						<g>
							<g>
								<rect x="1403.5" y="962.9" class="st3" width="140.5" height="55.8"/>
							</g>
						</g>
					</g>
				</g>
			</g>
		</g>
	</g>
	<g>
		<g>
			<polygon class="st2" points="432,15.2 432,53 446.2,59.1 427.7,59.1 424.2,83 759.2,119.1 792.6,66.5 			"/>
			<polygon class="st4" points="380.2,95.5 384.5,73.4 426,78.2 619.9,101 612.6,125 			"/>
			<path class="st5" d="M752.2,140.3l-188.7-20.7l0,0c9.1-29.1,37.7-47.6,68-44l148.7,17.8L752.2,140.3z"/>
		</g>
		<path class="st6" d="M1006.1,94.1l0.3,127.5l-656,1.7l0,0c-0.1-33.4,27-60.5,60.2-60.6l295.2-0.8l75.6-103.8l189.6,1
			C990.4,59.3,1006,75,1006.1,94.1z"/>
		<g>
			<path class="st4" d="M1003.8,197c0,0.5-145.1,1.1-324,1.1s-324-0.5-324-1.1c0-0.5,145-1.1,324-1.1
				C858.7,195.9,1003.8,196.3,1003.8,197z"/>
		</g>
		<polygon class="st2" points="1634.8,295.8 1377.8,439.9 1377.8,407 1623.6,278.4 		"/>
		<polygon class="st4" points="1377.8,439.9 1579.9,326.4 1596.8,350.4 1472,424.6 1471.2,456.8 1377.8,507.4 		"/>
		<polygon class="st4" points="1377.8,752.3 1579.9,638.9 1596.8,663 1472,737 1471.2,769.4 1377.8,820 		"/>
		<path class="st6" d="M842.9,660.7h534.9V338.9c0-6.8-5.5-12.5-12.5-12.5H842.9V660.7z"/>
		<rect x="843" y="673.1" class="st6" width="534.9" height="391.3"/>
		<polygon class="st4" points="1380.8,990.4 1608,990.4 1608,1011.1 1377.7,1035.8 		"/>
		<path class="st4" d="M1413.5,1072L1413.5,1072c10.9,0,19.6-8.9,19.6-19.6v-19.6c0-10.9-8.9-19.6-19.6-19.6l0,0
			c-10.9,0-19.6,8.9-19.6,19.6v19.6C1393.9,1063.2,1402.8,1072,1413.5,1072z"/>
		<polygon class="st4" points="1583.3,1002.7 1583.3,935 1552.6,935 1552.6,1007.4 		"/>
		<rect x="843" y="1078.2" class="st6" width="534.8" height="124.6"/>
		<path class="st7" d="M842.9,660.7h534.9V338.9c0-6.8-5.5-12.5-12.5-12.5H842.9V660.7z"/>
		<rect x="843" y="673.1" class="st7" width="534.9" height="391.3"/>
		<rect x="843" y="1078.2" class="st7" width="534.8" height="124.6"/>
		<rect x="843" y="1202.9" class="st6" width="534.8" height="50.4"/>
		<rect x="389.5" y="278.1" class="st6" width="573.8" height="927.6"/>
		<rect x="389.5" y="278.1" class="st8" width="573.8" height="927.6"/>
		<rect x="359.3" y="265.1" class="st6" width="222.2" height="260.3"/>
		<path class="st6" d="M1006.4,221v49.8c0,11.5-9.4,20.9-20.9,20.9H714.8H359.3V221H1006.4L1006.4,221z"/>
		<path class="st4" d="M714.8,375V221H359.3v126.5c0,15.2,12.3,27.5,27.5,27.5H714.8"/>
		<rect x="501.3" y="241.9" class="st5" width="188.7" height="98.2"/>
		<rect x="459.9" y="241.8" class="st5" width="10.6" height="10.6"/>
		<rect x="439.2" y="241.8" class="st5" width="10.6" height="10.6"/>
		<rect x="418.9" y="241.8" class="st5" width="10.6" height="10.6"/>
		<rect x="376.3" y="241.8" class="st2" width="28.6" height="10.6"/>
		<rect x="376.3" y="260" class="st2" width="28.6" height="10.6"/>
		<rect x="376.3" y="278.1" class="st2" width="28.6" height="10.6"/>
		<rect x="376.3" y="297.7" class="st2" width="28.6" height="10.6"/>
		<rect x="418.9" y="260.3" class="st5" width="10.6" height="10.6"/>
		<rect x="459.9" y="260.8" class="st5" width="10.6" height="10.6"/>
		<rect x="459.9" y="278.4" class="st5" width="10.6" height="10.6"/>
		<rect x="438.6" y="260.8" class="st5" width="10.6" height="10.6"/>
		<rect x="438.6" y="278.4" class="st5" width="10.6" height="10.6"/>
		<rect x="418.1" y="278.4" class="st5" width="10.6" height="10.6"/>
		<path class="st6" d="M407.1,330.7c0,10.2,8.3,18.4,18.4,18.4c10.2,0,18.4-8.2,18.4-18.4c0-10.2-8.2-18.4-18.4-18.4
			C415.4,312.2,407.1,320.5,407.1,330.7z"/>
		<path class="st5" d="M450.9,330.7c0,6,4.8,10.9,10.9,10.9c6,0,10.9-4.8,10.9-10.9c0-6-4.8-10.9-10.9-10.9
			C455.7,319.8,450.9,324.7,450.9,330.7z"/>
		<path class="st5" d="M378.6,330.8c0,6,4.8,10.9,10.9,10.9c6,0,10.9-4.8,10.9-10.9c0-6-4.8-10.9-10.9-10.9
			C383.5,320,378.6,324.8,378.6,330.8z"/>
		<path class="st6" d="M359.3,817.1h646.4V537c0-6.3-5.1-11.5-11.5-11.5H359.3V817.1z"/>
		<path class="st6" d="M359.3,929.1h646.4v-97.6c0-4.6-3.6-8.2-8.2-8.2H365.1c-3.2,0-5.8,2.5-5.8,5.8L359.3,929.1L359.3,929.1z"/>
		<path class="st8" d="M584.2,872.2h199.3c2.1,0,3.8-1.7,3.8-3.8v-45.2H580.5v45.2C580.5,870.6,582.1,872.2,584.2,872.2z"/>
		<path class="st6" d="M359.3,1147.1h646.4V942.8c0-5.2-4.3-9.5-9.5-9.5H368.8c-5.2,0-9.5,4.3-9.5,9.5V1147.1z"/>
		<path class="st8" d="M584.2,982.3h199.3c2.1,0,3.8-1.7,3.8-3.8v-45.3H580.5v45.2C580.5,980.6,582.1,982.3,584.2,982.3z"/>
		<rect x="359.3" y="1158" class="st6" width="646.4" height="95.2"/>
		<rect x="581.4" y="454.6" class="st4" width="253.7" height="16"/>
		<rect x="581.4" y="395.5" class="st2" width="341.4" height="59.3"/>
		<g>
			<path class="st9" d="M582.5,254.7c0,0.7,21.1,1.1,47.1,1.1s47.1-0.5,47.1-1.1c0-0.7-21.1-1.1-47.1-1.1S582.5,254,582.5,254.7z"/>
		</g>
		<g>
			<path class="st9" d="M636.8,269.8c0,0.7,9,1.1,20,1.1s20-0.5,20-1.1c0-0.7-9-1.1-20-1.1C645.6,268.7,636.8,269.3,636.8,269.8z"/>
		</g>
		<g>
			<path class="st9" d="M636.8,285.9c0,0.7,9,1.1,20,1.1s20-0.5,20-1.1c0-0.7-9-1.1-20-1.1C645.6,284.8,636.8,285.2,636.8,285.9z"/>
		</g>
		<g>
			<path class="st9" d="M635.6,312.2c0,0.7,9,1.1,20,1.1s20-0.5,20-1.1c0-0.7-9-1.1-20-1.1C644.4,311.1,635.6,311.7,635.6,312.2z"/>
		</g>
		<g>
			<path class="st9" d="M526.3,312.2c0,0.7,9,1.1,20,1.1s20-0.5,20-1.1c0-0.7-9-1.1-20-1.1S526.3,311.7,526.3,312.2z"/>
		</g>
		<rect x="359.3" y="1158" class="st10" width="646.4" height="95.2"/>
		<g>
			<path class="st4" d="M359.7,788.8c0,0.7,144.4,1.1,322.5,1.1c178.2,0,322.7-0.5,322.7-1.1c0-0.7-144.4-1.1-322.7-1.1
				C504.1,787.7,359.7,788.1,359.7,788.8z"/>
		</g>
		<g>
			<path class="st4" d="M359.7,765.1c0,0.7,144.4,1.1,322.5,1.1c178.2,0,322.7-0.5,322.7-1.1c0-0.7-144.4-1.1-322.7-1.1
				C504.1,764,359.7,764.5,359.7,765.1z"/>
		</g>
		<g>
			<path class="st4" d="M359.7,741.3c0,0.7,144.4,1.1,322.5,1.1c178.2,0,322.7-0.5,322.7-1.1c0-0.7-144.4-1.1-322.7-1.1
				C504.1,740.3,359.7,740.8,359.7,741.3z"/>
		</g>
		<g>
			<path class="st4" d="M359.7,717.7c0,0.7,144.4,1.1,322.5,1.1c178.2,0,322.7-0.5,322.7-1.1c0-0.7-144.4-1.1-322.7-1.1
				C504.1,716.5,359.7,717.1,359.7,717.7z"/>
		</g>
		<g>
			<path class="st4" d="M358.6,928.9c0,0.7,145.1,1.1,324,1.1c179,0,324.1-0.5,324.1-1.1c0-0.7-145.1-1.1-324.1-1.1
				C503.7,927.9,358.6,928.4,358.6,928.9z"/>
		</g>
		<g>
			<path class="st4" d="M358.6,1147.1c0,0.7,145.1,1.1,324,1.1c179,0,324.1-0.5,324.1-1.1c0-0.7-145.1-1.1-324.1-1.1
				C503.7,1146.1,358.6,1146.6,358.6,1147.1z"/>
		</g>
		<g>
			<path class="st4" d="M580.5,823.3c-0.1,0-0.1,0.9-0.3,2.8c-0.1,2.1-0.3,4.8-0.5,8.2c-0.3,3.6-0.5,8-0.1,13.1
				c0.5,5.1,2.1,11.1,6.3,16.2c2.1,2.5,5,4.7,8.3,6c3.4,1.3,7,2.1,10.7,2.8c7.5,1.5,15.6,2,24.1,2.3c17,0.1,35.5-0.3,55.1-0.5
				c19.6-0.3,38.1-0.5,55.1-0.8c8.4-0.3,16.5-0.1,24.1-0.5c3.8-0.3,7.5-0.9,10.9-2.4s6.2-3.8,8.2-6.3c4.2-5.2,5.5-11.3,5.9-16.4
				c0.3-5.1,0.1-9.5,0-13.1s-0.4-6.3-0.5-8.2s-0.3-2.8-0.4-2.8c-0.1,0-0.1,0.9,0,2.8c0,2.1,0.1,4.8,0.1,8.2c0,3.6,0.1,7.9-0.3,13
				c-0.4,5-2,10.7-5.9,15.6c-1.9,2.4-4.6,4.4-7.6,5.8c-3.1,1.3-6.7,1.9-10.3,2.1c-7.4,0.4-15.6,0.3-24,0.4
				c-17,0.3-35.5,0.4-55.1,0.7c-19.6,0.1-38.2,0.7-55.1,0.7c-8.4-0.1-16.4-0.7-23.7-2c-3.6-0.7-7.2-1.3-10.3-2.7
				c-3.2-1.2-5.8-3.2-7.8-5.5c-4-4.7-5.8-10.5-6.3-15.4c-0.5-5-0.4-9.4-0.3-13c0.1-3.6,0.1-6.3,0.1-8.3
				C580.6,824.2,580.5,823.3,580.5,823.3z"/>
		</g>
		<g>
			<path class="st4" d="M580.5,931.4c-0.1,0-0.1,0.9-0.3,2.8c-0.1,2.1-0.3,4.8-0.5,8.2c-0.3,3.6-0.5,8-0.1,13.1
				c0.5,5.1,2.1,11.1,6.3,16.2c2.1,2.5,5,4.7,8.3,6c3.4,1.3,7,2.1,10.7,2.8c7.5,1.5,15.6,2,24.1,2.3c17,0.1,35.5-0.3,55.1-0.5
				c19.6-0.3,38.1-0.5,55.1-0.8c8.4-0.3,16.5-0.1,24.1-0.5c3.8-0.3,7.5-0.9,10.9-2.4s6.2-3.8,8.2-6.3c4.2-5.2,5.5-11.3,5.9-16.4
				c0.3-5.1,0.1-9.5,0-13.1s-0.4-6.3-0.5-8.2s-0.3-2.8-0.4-2.8c-0.1,0-0.1,0.9,0,2.8c0,2.1,0.1,4.8,0.1,8.2c0,3.6,0.1,7.9-0.3,13
				c-0.4,5-2,10.7-5.9,15.6c-1.9,2.4-4.6,4.4-7.6,5.8s-6.7,1.9-10.3,2.1c-7.4,0.4-15.6,0.3-24,0.4c-17,0.3-35.5,0.4-55.1,0.7
				c-19.6,0.1-38.2,0.7-55.1,0.7c-8.4-0.1-16.4-0.7-23.7-2c-3.6-0.7-7.2-1.3-10.3-2.7c-3.2-1.2-5.8-3.2-7.8-5.5
				c-4-4.7-5.8-10.5-6.3-15.4c-0.5-5-0.4-9.4-0.3-13c0.1-3.6,0.1-6.3,0.1-8.3C580.6,932.3,580.5,931.4,580.5,931.4z"/>
		</g>
	</g>
</g>
</svg>
