<?xml version="1.0" encoding="utf-8"?>
<!-- Generator: Adobe Illustrator 26.0.3, SVG Export Plug-In . SVG Version: 6.00 Build 0)  -->
<svg version="1.1" id="Camada_1" xmlns="http://www.w3.org/2000/svg" xmlns:xlink="http://www.w3.org/1999/xlink" x="0px" y="0px"
	 viewBox="0 0 1920 1920" style="enable-background:new 0 0 1920 1920;" xml:space="preserve">
<style type="text/css">
	.st0{fill:#192E35;}
	.st1{fill:#FFFFFF;}
	.st2{fill:#E9505E;}
	.st3{fill:#385A65;}
	.st4{fill:#E1E0E0;}
	.st5{opacity:0.3;}
	.st6{fill:#ECECEC;}
	.st7{opacity:0.1;}
	.st8{fill:#F5F5F5;}
	.st9{fill:#F9BE9D;}
	.st10{fill:#F3986E;}
</style>
<g>
	<g>
		<polygon class="st0" points="489.5,1780.2 686.5,1780.2 717.8,1912.5 414.9,1912.5 		"/>
	</g>
	<g>
		<g>
			<path class="st0" d="M1520.2,1017c0.6,0,1.1,22.1,1.1,49.3c0,27.2-0.6,49.3-1.1,49.3c-0.6,0-1.1-22.1-1.1-49.3
				C1519,1039.1,1519.6,1017,1520.2,1017z"/>
		</g>
	</g>
	<g>
		<g>
			<path class="st0" d="M1149.6,491.4c-0.6,0-1.1-36.7-1.1-82.1s0.6-82.1,1.1-82.1c0.6,0,1.1,36.7,1.1,82.1
				S1150.2,491.4,1149.6,491.4z"/>
		</g>
	</g>
	<g>
		<g>
			<path class="st0" d="M1022.7,686c0,0-1.1,0.2-3,0.2c-2.2,0-5.1,0.2-8.6,0.2c-7.9,0-18.7,0.2-31.9,0.4c-27.2,0-64.3,0.2-105.3,0.4
				c-5.1,0-10.3,0-15.2,0c-2.4,0-5.1,0-7.7-0.4c-2.6-0.4-5.1-0.9-7.3-2.1c-9.4-4.1-15.4-12.7-18-21.4c-1.3-4.3-1.9-8.8-1.9-13.1
				s0.2-8.2,0.2-12.4c0.2-7.9,0.2-15.4,0.4-22.1c0.2-13.3,0.4-24.2,0.6-31.9c0.2-3.6,0.2-6.4,0.2-8.6c0-2.1,0.2-3,0.2-3
				s0.2,1.1,0.2,3c0,2.2,0,5.1,0.2,8.6c0,7.9,0,18.7,0.2,31.9c0,6.7,0,14.1,0,22.1c0.2,7.9-0.9,16.5,1.9,24.7
				c2.6,8.2,8.4,16.3,17.1,20.1c2.1,0.9,4.5,1.5,6.7,1.9s4.7,0.2,7.3,0.2c5.1,0,10.1,0,15.2,0c41,0.2,78.2,0.2,105.3,0.4
				c13.3,0.2,24.2,0.2,31.9,0.4c3.6,0,6.6,0.2,8.6,0.2C1021.6,685.8,1022.7,685.8,1022.7,686z"/>
		</g>
	</g>
	<g>
		<g>
			<g>
				<g>
					<g>
						<g>
							<path class="st1" d="M1229.8,326.3H1054c-25.1,0-45.4-20.4-45.4-45.4V105.1c0-25.1,20.4-45.4,45.4-45.4h175.8
								c25.1,0,45.4,20.4,45.4,45.4v175.8C1275.4,306,1255,326.3,1229.8,326.3z"/>
						</g>
						<g>
							<g>
								<path class="st0" d="M1229.8,326.3c0-0.2,3.6,0,9.9-1.3c6.2-1.5,15.7-5.1,24-14.6c4.1-4.7,7.7-10.7,9.4-18
									c2.1-7.3,1.3-15.6,1.5-24.6c0-17.8-0.2-38-0.2-60.4s0-46.9-0.2-73.1c0-6.6,0-13.3,0-20.1c0-6.7,0.4-13.7-1.5-20.2
									c-3.4-13.3-13.5-25.1-27.2-30.2c-3.4-1.3-6.9-2.1-10.5-2.6c-3.6-0.4-7.3-0.4-11.1-0.4c-7.5,0-15.2,0-22.9,0
									c-15.6,0-31.3,0-47.4,0c-32.2,0-65.4,0-99.5,0c-8.2,0-16.5,2.4-23.4,6.7c-3.6,2.2-6.7,4.9-9.4,7.9c-2.8,3-5.1,6.4-6.7,10.1
									c-1.9,3.6-3,7.5-3.7,11.4s-0.7,7.9-0.7,12c0,8.2,0,16.3,0,24.4c0,32.2,0,63.2,0,92.8c0,14.8,0,29.2,0,43.1
									c0.2,6.9-0.4,13.9,0.9,20.4s4.1,12.6,8.1,17.8c7.7,10.3,19.7,16.7,31.5,17.6c12,0.4,23.8,0.2,35.1,0.2
									c44.6,0.2,80.8,0.2,105.9,0.4c12.4,0,22.1,0.2,28.9,0.2c3.2,0,5.6,0,7.5,0.2C1229.1,326.3,1229.8,326.3,1229.8,326.3
									s-0.9,0-2.6,0.2c-1.7,0-4.3,0-7.5,0.2c-6.7,0-16.3,0.2-28.9,0.2c-25.1,0-61.3,0.2-105.9,0.4c-11.2,0-22.9,0.2-35.2-0.2
									c-12.4-0.9-24.9-7.5-33-18.4c-4.1-5.4-6.9-11.6-8.4-18.6c-1.5-6.9-0.7-13.9-0.9-20.8c0-14.1,0-28.5,0-43.1
									c0-29.6,0-60.5,0-92.8c0-8.1,0-16.1,0-24.4c0-4.1,0-8.2,0.7-12.6c0.9-4.1,2.1-8.2,3.9-12c1.9-3.7,4.3-7.5,7.1-10.5
									c2.8-3.2,6.2-6,9.9-8.2c7.3-4.7,15.9-7.1,24.7-7.1c34.1,0,67.5,0,99.5,0c16.1,0,31.9,0,47.4,0c7.7,0,15.4,0,22.9,0
									c3.7,0,7.5,0,11.4,0.4c3.7,0.6,7.5,1.3,11.1,2.8c14.2,5.4,24.9,17.8,28.3,31.7c1.9,6.9,1.5,14.1,1.5,20.8
									c0,6.7,0,13.5,0,20.1c0,26.2-0.2,50.8-0.2,73.1s-0.2,42.5-0.2,60.4c-0.2,8.8,0.6,17.2-1.7,24.7c-1.9,7.5-5.6,13.7-9.7,18.4
									c-8.4,9.6-18.2,13.1-24.6,14.4c-3.2,0.6-5.8,0.9-7.5,0.9C1230.8,326.3,1229.8,326.3,1229.8,326.3z"/>
							</g>
						</g>
					</g>
				</g>
			</g>
		</g>
	</g>
	<g>
		<g>
			<g>
				<g>
					<g>
						<g>
							<path class="st1" d="M1559,417.7h-175.8c-25.1,0-45.4-20.4-45.4-45.4V196.6c0-25.1,20.4-45.4,45.4-45.4H1559
								c25.1,0,45.4,20.4,45.4,45.4v175.8C1604.5,397.5,1584.1,417.7,1559,417.7z"/>
						</g>
						<g>
							<g>
								<path class="st0" d="M1559,417.7c0-0.2,3.6,0,9.9-1.3c6.2-1.5,15.7-5.1,24-14.6c4.1-4.7,7.7-10.7,9.4-18
									c2.1-7.3,1.3-15.6,1.5-24.6c0-17.8-0.2-38-0.2-60.4c0-22.3,0-46.9-0.2-73.1c0-6.6,0-13.3,0-20.1c0-6.7,0.4-13.7-1.5-20.2
									c-3.4-13.3-13.5-25.1-27.2-30.2c-3.4-1.3-6.9-2.1-10.5-2.6c-3.6-0.4-7.3-0.4-11.1-0.4c-7.5,0-15.2,0-22.9,0
									c-15.6,0-31.3,0-47.4,0c-32.2,0-65.4,0-99.5,0c-8.2,0-16.5,2.4-23.4,6.7c-3.6,2.2-6.7,4.9-9.4,7.9c-2.8,3-5.1,6.4-6.7,10.1
									c-1.9,3.6-3,7.5-3.7,11.4s-0.7,7.9-0.7,12c0,8.2,0,16.3,0,24.4c0,32.2,0,63.2,0,92.8c0,14.8,0,29.2,0,43.1
									c0.2,6.9-0.4,13.9,0.9,20.4c1.3,6.6,4.1,12.6,8.1,17.8c7.7,10.3,19.7,16.7,31.5,17.6c12,0.4,23.8,0.2,35.1,0.2
									c44.6,0.2,80.8,0.2,105.9,0.4c12.4,0,22.1,0.2,28.9,0.2c3.2,0,5.6,0,7.5,0.2C1558.2,417.7,1559,417.7,1559,417.7
									s-0.9,0-2.6,0.2c-1.7,0-4.3,0-7.5,0.2c-6.7,0-16.3,0.2-28.9,0.2c-25.1,0-61.3,0.2-105.9,0.4c-11.2,0-22.9,0.2-35.2-0.2
									c-12.4-0.9-24.9-7.5-33-18.4c-4.1-5.4-6.9-11.6-8.4-18.6c-1.5-6.9-0.7-13.9-0.9-20.8c0-14.1,0-28.5,0-43.1
									c0-29.6,0-60.5,0-92.8c0-8.1,0-16.1,0-24.4c0-4.1,0-8.2,0.7-12.6c0.9-4.1,2.1-8.2,3.9-12c1.9-3.7,4.3-7.5,7.1-10.5
									c2.8-3.2,6.2-6,9.9-8.2c7.3-4.7,15.9-7.1,24.7-7.1c34.1,0,67.5,0,99.5,0c16.1,0,31.9,0,47.4,0c7.7,0,15.4,0,22.9,0
									c3.7,0,7.5,0,11.4,0.4c3.7,0.6,7.5,1.3,11.1,2.8c14.2,5.4,24.9,17.8,28.3,31.7c1.9,6.9,1.5,14.1,1.5,20.8s0,13.5,0,20.1
									c0,26.2-0.2,50.8-0.2,73.1s-0.2,42.5-0.2,60.4c-0.2,8.8,0.6,17.2-1.7,24.7c-1.9,7.5-5.6,13.7-9.7,18.4
									c-8.4,9.6-18.2,13.1-24.6,14.4c-3.2,0.6-5.8,0.9-7.5,0.9C1559.9,417.9,1559,417.7,1559,417.7z"/>
							</g>
						</g>
					</g>
				</g>
			</g>
		</g>
	</g>
	<g>
		<g>
			<g>
				<g>
					<g>
						<g>
							<path class="st1" d="M1848.9,739.8h-175.8c-25.1,0-45.4-20.4-45.4-45.4V518.6c0-25.1,20.4-45.4,45.4-45.4h175.8
								c25.1,0,45.4,20.4,45.4,45.4v175.8C1894.5,719.5,1874.1,739.8,1848.9,739.8z"/>
						</g>
						<g>
							<g>
								<path class="st0" d="M1848.9,739.8c0-0.2,3.6,0,9.9-1.3c6.2-1.5,15.7-5.1,24-14.6c4.1-4.7,7.7-10.7,9.4-18
									c2.1-7.3,1.3-15.6,1.5-24.6c0-17.8-0.2-38-0.2-60.4c0-22.3,0-46.9-0.2-73.1c0-6.6,0-13.3,0-20.1c0-6.7,0.4-13.7-1.5-20.2
									c-3.4-13.3-13.5-25.1-27.2-30.2c-3.4-1.3-6.9-2.1-10.5-2.6c-3.6-0.4-7.3-0.4-11.1-0.4c-7.5,0-15.2,0-22.9,0
									c-15.6,0-31.3,0-47.4,0c-32.2,0-65.4,0-99.5,0c-8.2,0-16.5,2.4-23.4,6.7c-3.6,2.2-6.7,4.9-9.4,7.9c-2.8,3-5.1,6.4-6.7,10.1
									c-1.9,3.6-3,7.5-3.7,11.4s-0.7,7.9-0.7,12c0,8.2,0,16.3,0,24.4c0,32.2,0,63.2,0,92.8c0,14.8,0,29.2,0,43.1
									c0.2,6.9-0.4,13.9,0.9,20.4c1.3,6.6,4.1,12.6,8.1,17.8c7.7,10.3,19.7,16.7,31.5,17.6c12,0.4,23.8,0.2,35.1,0.2
									c44.6,0.2,80.8,0.2,105.9,0.4c12.4,0,22.1,0.2,28.9,0.2c3.2,0,5.6,0,7.5,0.2C1848.2,739.8,1848.9,739.8,1848.9,739.8
									s-0.9,0-2.6,0.2c-1.7,0-4.3,0-7.5,0.2c-6.7,0-16.3,0.2-28.9,0.2c-25.1,0-61.3,0.2-105.9,0.4c-11.2,0-22.9,0.2-35.2-0.2
									c-12.4-0.9-24.9-7.5-33-18.4c-4.1-5.4-6.9-11.6-8.4-18.6c-1.5-6.9-0.7-13.9-0.9-20.8c0-14.1,0-28.5,0-43.1
									c0-29.6,0-60.5,0-92.8c0-8.1,0-16.1,0-24.4c0-4.1,0-8.2,0.7-12.6c0.9-4.1,2.1-8.2,3.9-12c1.9-3.7,4.3-7.5,7.1-10.5
									c2.8-3.2,6.2-6,9.9-8.2c7.3-4.7,15.9-7.1,24.7-7.1c34.1,0,67.5,0,99.5,0c16.1,0,31.9,0,47.4,0c7.7,0,15.4,0,22.9,0
									c3.7,0,7.5,0,11.4,0.4c3.7,0.6,7.5,1.3,11.1,2.8c14.2,5.4,24.9,17.8,28.3,31.7c1.9,6.9,1.5,14.1,1.5,20.8s0,13.5,0,20.1
									c0,26.2-0.2,50.8-0.2,73.1s-0.2,42.5-0.2,60.4c-0.2,8.8,0.6,17.2-1.7,24.7c-1.9,7.5-5.6,13.7-9.7,18.4
									c-8.4,9.6-18.2,13.1-24.6,14.4c-3.2,0.6-5.8,0.9-7.5,0.9C1849.9,739.8,1848.9,739.8,1848.9,739.8z"/>
							</g>
						</g>
					</g>
				</g>
			</g>
		</g>
	</g>
	<g>
		<g>
			<g>
				<g>
					<g>
						<g>
							<path class="st1" d="M866,551.2H690.2c-25.1,0-45.4-20.4-45.4-45.4V330c0-25.1,20.4-45.4,45.4-45.4H866
								c25.1,0,45.4,20.4,45.4,45.4v175.8C911.4,530.8,891,551.2,866,551.2z"/>
						</g>
						<g>
							<g>
								<path class="st0" d="M866,551.2c0-0.2,3.6,0,9.9-1.3c6.2-1.5,15.7-5.1,24-14.6c4.1-4.7,7.7-10.7,9.4-18
									c2.1-7.3,1.3-15.6,1.5-24.6c0-17.8-0.2-38-0.2-60.4s0-46.9-0.2-73.1c0-6.6,0-13.3,0-20.1c0-6.7,0.4-13.7-1.5-20.2
									c-3.4-13.3-13.5-25.1-27.2-30.2c-3.4-1.3-6.9-2.1-10.5-2.6c-3.6-0.4-7.3-0.4-11.1-0.4c-7.5,0-15.2,0-22.9,0
									c-15.6,0-31.3,0-47.4,0c-32.2,0-65.4,0-99.5,0c-8.2,0-16.5,2.4-23.4,6.7c-3.6,2.2-6.7,4.9-9.4,7.9c-2.8,3-5.1,6.4-6.7,10.1
									c-1.9,3.6-3,7.5-3.7,11.4s-0.7,7.9-0.7,12c0,8.2,0,16.3,0,24.4c0,32.2,0,63.2,0,92.8c0,14.8,0,29.2,0,43.1
									c0.2,6.9-0.4,13.9,0.9,20.4s4.1,12.6,8.1,17.8c7.7,10.3,19.7,16.7,31.5,17.6c12,0.4,23.8,0.2,35.1,0.2
									c44.6,0.2,80.8,0.2,105.9,0.4c12.4,0,22.1,0.2,28.9,0.2c3.2,0,5.6,0,7.5,0.2C865.1,551,866,551.2,866,551.2s-0.9,0-2.6,0.2
									c-1.7,0-4.3,0-7.5,0.2c-6.7,0-16.3,0.2-28.9,0.2c-25.1,0-61.3,0.2-105.9,0.4c-11.2,0-22.9,0.2-35.2-0.2
									c-12.4-0.9-24.9-7.5-33-18.4c-4.1-5.4-6.9-11.6-8.4-18.6c-1.5-6.9-0.7-13.9-0.9-20.8c0-14.1,0-28.5,0-43.1
									c0-29.6,0-60.5,0-92.8c0-8.1,0-16.1,0-24.4c0-4.1,0-8.2,0.7-12.6c0.9-4.1,2.1-8.2,3.9-12c1.9-3.7,4.3-7.5,7.1-10.5
									c2.8-3.2,6.2-6,9.9-8.2c7.3-4.7,15.9-7.1,24.7-7.1c34.1,0,67.5,0,99.5,0c16.1,0,31.9,0,47.4,0c7.7,0,15.4,0,22.9,0
									c3.7,0,7.5,0,11.4,0.4c3.7,0.6,7.5,1.3,11.1,2.8c14.2,5.4,24.9,17.8,28.3,31.7c1.9,6.9,1.5,14.1,1.5,20.8
									c0,6.7,0,13.5,0,20.1c0,26.2-0.2,50.8-0.2,73.1s-0.2,42.5-0.2,60.4c-0.2,8.8,0.6,17.2-1.7,24.7c-1.9,7.5-5.6,13.7-9.7,18.4
									c-8.4,9.6-18.2,13.1-24.6,14.4c-3.2,0.6-5.8,0.9-7.5,0.9C866.8,551.2,866,551.2,866,551.2z"/>
							</g>
						</g>
					</g>
				</g>
			</g>
		</g>
	</g>
	<g>
		<g>
			<path class="st0" d="M1633.9,611.9c0,0.6-30.2,1.1-67.7,1.1c-37.3,0-67.7-0.6-67.7-1.1c0-0.6,30.2-1.1,67.7-1.1
				S1633.9,611.2,1633.9,611.9z"/>
		</g>
	</g>
	<g>
		<g>
			<rect x="687.2" y="471" class="st2" width="33.6" height="25.7"/>
		</g>
		<g>
			<rect x="729.8" y="411.6" class="st2" width="33.6" height="85.1"/>
		</g>
		<g>
			<rect x="776.6" y="448.1" class="st2" width="33.6" height="48.5"/>
		</g>
		<g>
			<rect x="821.2" y="386.8" class="st2" width="33.6" height="109.8"/>
		</g>
		<g>
			<path class="st2" d="M701.8,444.4c-9.2,0-16.7-7.5-16.7-16.7s7.5-16.7,16.7-16.7s16.7,7.5,16.7,16.7S711,444.4,701.8,444.4z
				 M701.8,415.3c-6.7,0-12.4,5.6-12.4,12.4s5.6,12.4,12.4,12.4c6.7,0,12.4-5.6,12.4-12.4S708.6,415.3,701.8,415.3z"/>
		</g>
		<g>
			<path class="st2" d="M750,380.6c-9.2,0-16.7-7.5-16.7-16.7s7.5-16.7,16.7-16.7s16.7,7.5,16.7,16.7S759.2,380.6,750,380.6z
				 M750,351.6c-6.7,0-12.4,5.6-12.4,12.4c0,6.7,5.6,12.4,12.4,12.4s12.4-5.6,12.4-12.4S756.7,351.6,750,351.6z"/>
		</g>
		<g>
			<path class="st2" d="M793.5,421.1c-9.2,0-16.7-7.5-16.7-16.7s7.5-16.7,16.7-16.7s16.7,7.5,16.7,16.7S802.7,421.1,793.5,421.1z
				 M793.5,391.9c-6.7,0-12.4,5.6-12.4,12.4c0,6.7,5.6,12.4,12.4,12.4c6.7,0,12.4-5.6,12.4-12.4S800.2,391.9,793.5,391.9z"/>
		</g>
		<g>
			<path class="st2" d="M840,362.5c-9.2,0-16.7-7.5-16.7-16.7s7.5-16.7,16.7-16.7s16.7,7.5,16.7,16.7S849.2,362.5,840,362.5z
				 M840,333.4c-6.7,0-12.4,5.6-12.4,12.4s5.6,12.4,12.4,12.4s12.4-5.6,12.4-12.4C852.3,339,846.7,333.4,840,333.4z"/>
		</g>
		<g>
			
				<rect x="792.8" y="373.6" transform="matrix(0.575 -0.8181 0.8181 0.575 39.4896 827.5317)" class="st2" width="47" height="4.3"/>
		</g>
		<g>
			
				<rect x="769.4" y="371.5" transform="matrix(0.7227 -0.6912 0.6912 0.7227 -53.084 640.4306)" class="st2" width="4.3" height="29.8"/>
		</g>
		<g>
			
				<rect x="700.1" y="393.7" transform="matrix(0.6132 -0.7899 0.7899 0.6132 -32.3191 725.6334)" class="st2" width="49.5" height="4.3"/>
		</g>
	</g>
	<g>
		<path class="st0" d="M842.8,554.2c0,7.1-5.6,12.7-12.7,12.7c-7.1,0-12.7-5.6-12.7-12.7c0-7.1,5.6-12.7,12.7-12.7
			S842.8,547.3,842.8,554.2z"/>
	</g>
	<g>
		<path class="st0" d="M1162.2,326.3c0,7.1-5.6,12.7-12.7,12.7s-12.7-5.6-12.7-12.7s5.6-12.7,12.7-12.7
			C1156.4,313.5,1162.2,319.3,1162.2,326.3z"/>
	</g>
	<g>
		<path class="st0" d="M1639.6,611.9c0,7.1-5.6,12.7-12.7,12.7s-12.7-5.6-12.7-12.7c0-7.1,5.6-12.7,12.7-12.7
			C1633.9,599.2,1639.6,604.8,1639.6,611.9z"/>
	</g>
	<g>
		<path class="st0" d="M1487.2,419.8c0,7.1-5.6,12.7-12.7,12.7s-12.7-5.6-12.7-12.7s5.6-12.7,12.7-12.7S1487.2,412.7,1487.2,419.8z"
			/>
	</g>
	<g>
		<g>
			<g>
				<g>
					<g>
						<g>
							<path class="st1" d="M756.6,181.4h-82.1c-25.1,0-45.4-20.4-45.4-45.4V53.9c0-25.1,20.4-45.4,45.4-45.4h82.1
								c25.1,0,45.4,20.4,45.4,45.4V136C801.9,161.1,781.7,181.4,756.6,181.4z"/>
						</g>
						<g>
							<g>
								<path class="st0" d="M756.6,181.4c0-0.2,2.2-0.2,6.2-0.7c3.9-0.6,9.9-1.9,16.5-6c6.6-3.9,13.9-10.5,18.2-20.6
									c2.2-5.1,3.6-10.7,3.7-16.9c0.2-6.2,0-12.9,0-19.7c0-13.9,0-29.1-0.2-45.4c0-4.1,0-8.2,0-12.4c0-4.3,0.2-8.4-0.6-12.6
									c-0.6-4.1-1.9-8.4-3.9-12.2c-1.9-3.9-4.3-7.7-7.5-10.9c-6-6.6-14.4-11.2-23.6-13.3c-4.7-0.9-9.4-0.9-14.2-0.9
									c-4.9,0-9.9,0-14.8,0c-20.1,0-40.7,0-61.9,0c-10.3,0-20.4,3.7-28.3,10.1c-7.7,6.4-13.1,15.4-15.2,24.9
									c-0.9,4.9-0.9,9.6-0.9,14.6c0,4.9,0,9.7,0,14.6c0,9.6,0,18.9,0,28.1s0,18.2,0,26.8c0,4.3-0.2,8.6,0.4,12.7
									c0.4,4.1,1.7,8.1,3,11.8c6.2,14.8,19.9,24.6,33.4,26.6c6.7,1.1,13.3,0.6,19.7,0.7c6.2,0,12.2,0,17.6,0
									c11.1,0,20.4,0.2,28.3,0.2c7.7,0,13.7,0.2,17.8,0.2c1.9,0,3.6,0,4.7,0.2C756,181.4,756.6,181.4,756.6,181.4s-0.6,0-1.5,0.2
									c-1.1,0-2.6,0-4.7,0.2c-4.3,0-10.3,0.2-17.8,0.2c-7.9,0-17.2,0.2-28.3,0.2c-5.4,0-11.4,0-17.6,0c-6.2-0.2-12.9,0.6-19.9-0.6
									c-13.9-2.1-28.1-12-34.9-27.6c-1.5-3.9-2.8-7.9-3.2-12.2c-0.6-4.3-0.4-8.6-0.4-12.9c0-8.6,0-17.6,0-26.8s0-18.6,0-28.1
									c0-4.9,0-9.7,0-14.6s0-9.9,0.9-15c2.1-9.9,7.7-19.5,15.9-26.2S664,7.5,674.8,7.5c21.2,0,41.8,0,61.9,0c5.1,0,9.9,0,14.8,0
									c4.9,0,9.9,0,14.6,0.9c9.6,2.1,18.4,7.1,24.7,14.1c3.2,3.4,5.8,7.3,7.7,11.4c2.1,4.1,3.4,8.4,3.9,12.9
									c0.7,4.3,0.6,8.8,0.6,12.9s0,8.4,0,12.4c0,16.3-0.2,31.5-0.2,45.4c0,6.9,0,13.5-0.2,19.9c-0.2,6.4-1.7,12.2-3.9,17.4
									c-4.5,10.3-12.2,17.1-18.9,20.8c-6.7,3.9-12.9,5.2-16.9,5.6C758.6,181.6,756.6,181.4,756.6,181.4z"/>
							</g>
						</g>
					</g>
				</g>
			</g>
		</g>
		<g>
			<g>
				<g>
					<g>
						<g>
							<path class="st3" d="M723,94c7.3-3,12.6-10.7,12.6-19.7c0-11.8-8.8-21.4-19.9-21.4c-11.1,0-19.9,9.4-20.1,21.2
								c0,9,5.2,16.7,12.7,19.9c-30.6,4.7-29.2,37.9-29.2,37.9l72.5,0.4C751.7,132.3,753.4,98.7,723,94z"/>
							<path class="st0" d="M751.9,132.5L751.9,132.5l-72.7-0.4v-0.2c0,0-0.4-8.4,3.2-17.2c2.1-5.2,4.9-9.6,8.6-12.9
								c4.5-4.1,10.3-6.7,17.2-7.9c-7.5-3.4-12.4-11.1-12.4-19.9c0-5.6,2.1-11.1,6-15c3.7-3.9,8.8-6.2,14.1-6.2l0,0
								c11.1,0,20.1,9.7,19.9,21.4c0,8.6-4.9,16.3-12.4,19.7c6.7,1.1,12.6,3.7,17.1,7.9c3.6,3.4,6.6,7.7,8.4,12.9
								C752.2,123.8,751.9,132.3,751.9,132.5L751.9,132.5z M679.3,131.9l72.2,0.4c0-0.9,0.2-9-3-17.2c-1.9-5.2-4.9-9.6-8.4-12.9
								c-4.5-4.1-10.3-6.7-17.2-7.9h-0.4l0.4-0.2c7.7-3.2,12.6-10.9,12.6-19.5c0-11.6-8.8-21.2-19.7-21.2l0,0
								c-5.2,0-10.1,2.2-13.9,6.2c-3.7,3.9-5.8,9.2-5.8,15c0,8.8,4.9,16.5,12.6,19.7l0.4,0.2h-0.4c-6.9,1.1-12.7,3.7-17.4,7.9
								c-3.7,3.4-6.6,7.7-8.6,12.7C679.3,123.1,679.3,131,679.3,131.9z"/>
						</g>
					</g>
				</g>
			</g>
		</g>
	</g>
	<g>
		<g>
			<g>
				<g>
					<g>
						<g>
							<path class="st1" d="M1796.8,1017h-105.9c-25.1,0-45.4-20.4-45.4-45.4V865.7c0-25.1,20.4-45.4,45.4-45.4h105.9
								c25.1,0,45.4,20.4,45.4,45.4v105.9C1842.4,996.5,1821.9,1017,1796.8,1017z"/>
						</g>
						<g>
							<g>
								<path class="st0" d="M1796.8,1017c0-0.2,2.4,0,7.1-0.9c4.5-0.7,11.4-2.6,18.7-7.9c7.1-5.1,14.6-13.9,17.6-26.2
									c1.7-6.2,1.1-12.9,1.1-20.2s0-14.8,0-22.9c0-16.1,0-33.6-0.2-52.5c0-4.7,0-9.6,0-14.4c0-4.9,0.2-9.7-0.7-14.6
									c-1.9-9.6-6.9-19.1-14.8-25.7c-7.9-6.7-18.4-10.7-29.2-10.7c-11.1,0-22.5,0-33.9,0c-23.1,0-47,0-71.4,0
									c-12,0-23.6,5.1-31.7,13.3c-8.2,8.2-12.6,19.7-12.6,30.9c0,23.1,0,45.4,0,66.5c0,10.7,0,21,0,30.9c0,5.1-0.2,9.9,0.6,14.6
									c0.6,4.7,2.1,9.2,4.1,13.3c4.1,8.2,10.7,14.8,18.2,19.1c7.5,4.1,15.7,6,23.8,5.6c32.1,0.2,57.9,0.2,75.9,0.4
									c8.8,0,15.7,0.2,20.6,0.2c2.2,0,4.1,0,5.4,0.2C1796.3,1016.8,1796.8,1017,1796.8,1017s-0.6,0-1.9,0.2c-1.3,0-3.2,0-5.4,0.2
									c-4.9,0-11.8,0.2-20.6,0.2c-18,0-44,0.2-75.9,0.4c-8.1,0.4-16.9-1.5-24.6-5.8s-14.6-11.1-18.9-19.9c-2.2-4.3-3.7-9-4.3-13.9
									c-0.7-4.9-0.6-9.9-0.6-15c0-10.1,0-20.4,0-30.9c0-21.2,0-43.5,0-66.5c0-11.8,4.7-23.8,13.3-32.6
									c8.4-8.8,20.8-14.2,33.4-14.1c24.6,0,48.4,0,71.4,0c11.6,0,22.9,0,33.9,0c11.4,0,22.5,4.1,30.6,11.2
									c8.4,6.9,13.7,16.9,15.6,27c1.1,5.1,0.7,10.1,0.7,15s0,9.7,0,14.4c0,18.9-0.2,36.4-0.2,52.5c0,8.1,0,15.7,0,22.9
									c0,7.1,0.4,14.1-1.5,20.4c-3.2,12.6-10.9,21.6-18.4,26.6c-7.5,5.2-14.6,6.9-19.1,7.5c-2.4,0.4-4.1,0.4-5.4,0.4
									C1797.4,1017,1796.8,1017,1796.8,1017z"/>
							</g>
						</g>
					</g>
				</g>
			</g>
		</g>
	</g>
	<g>
		<g>
			<g>
				<g>
					<g>
						<path class="st1" d="M898.6,972.7H792.7c-25.1,0-45.4-20.4-45.4-45.4V821.5c0-25.1,20.4-45.4,45.4-45.4h105.9
							c25.1,0,45.4,20.4,45.4,45.4v105.9C944,952.5,923.8,972.7,898.6,972.7z"/>
					</g>
					<g>
						<g>
							<path class="st0" d="M898.6,972.7c0-0.2,2.4,0,7.1-0.9c4.5-0.7,11.4-2.6,18.7-7.9c7.1-5.1,14.6-13.9,17.6-26.2
								c1.7-6.2,1.1-12.9,1.1-20.2s0-14.8,0-22.9c0-16.1,0-33.6-0.2-52.5c0-4.7,0-9.6,0-14.4c0-4.9,0.2-9.7-0.7-14.6
								c-1.9-9.6-6.9-19.1-14.8-25.7c-7.9-6.7-18.4-10.7-29.2-10.7c-11.1,0-22.5,0-33.9,0c-23.1,0-47,0-71.4,0
								c-12,0-23.6,5.1-31.7,13.3c-8.2,8.2-12.6,19.7-12.6,30.9c0,23.1,0,45.4,0,66.5c0,10.7,0,21,0,30.9c0,5.1-0.2,9.9,0.6,14.6
								c0.6,4.7,2.1,9.2,4.1,13.3c4.1,8.2,10.7,14.8,18.2,19.1c7.5,4.1,15.7,6,23.8,5.6c32.1,0.2,57.9,0.2,75.9,0.4
								c8.8,0,15.7,0.2,20.6,0.2c2.2,0,4.1,0,5.4,0.2C897.9,972.7,898.6,972.7,898.6,972.7s-0.6,0-1.9,0.2c-1.3,0-3.2,0-5.4,0.2
								c-4.9,0-11.8,0.2-20.6,0.2c-18,0-44,0.2-75.9,0.4c-8.1,0.4-16.9-1.5-24.6-5.8c-7.7-4.3-14.6-11.1-18.9-19.9
								c-2.2-4.3-3.7-9-4.3-13.9c-0.7-4.9-0.6-9.9-0.6-15c0-10.1,0-20.4,0-30.9c0-21.2,0-43.5,0-66.5c0-11.8,4.7-23.8,13.3-32.6
								c8.4-8.8,20.8-14.2,33.4-14.1c24.6,0,48.4,0,71.4,0c11.6,0,22.9,0,33.9,0c11.4,0,22.5,4.1,30.6,11.2
								c8.4,6.9,13.7,16.9,15.6,27c1.1,5.1,0.7,10.1,0.7,15s0,9.7,0,14.4c0,18.9-0.2,36.4-0.2,52.5c0,8.1,0,15.7,0,22.9
								c0,7.1,0.4,14.1-1.5,20.4c-3.2,12.6-10.9,21.6-18.4,26.6c-7.5,5.2-14.6,6.9-19.1,7.5c-2.4,0.4-4.1,0.4-5.4,0.4
								C899.2,972.9,898.6,972.9,898.6,972.7z"/>
						</g>
					</g>
				</g>
			</g>
		</g>
	</g>
	<g>
		<g>
			<g>
				<g>
					<g>
						<path class="st2" d="M854.2,873.4c8.4-3.6,14.4-12.2,14.4-22.3c0-13.3-10.1-24.2-22.5-24.4c-12.6,0-22.7,10.7-22.7,24
							c0,10.3,6,19.1,14.4,22.5c-34.9,5.2-33.4,43.1-33.4,43.1l82.5,0.4C886.8,916.9,888.7,878.7,854.2,873.4z"/>
					</g>
				</g>
			</g>
		</g>
	</g>
	<g>
		<g>
			<path class="st0" d="M1132,227.1c-4.9,0-9.9-0.7-14.8-2.4c-25.5-8.2-39.5-35.6-31.3-61.1s35.6-39.5,61.1-31.3
				c12.4,3.9,22.5,12.6,28.3,24.2c6,11.6,6.9,24.7,3,37.1l0,0C1171.5,214,1152.4,227.1,1132,227.1z M1132,138.7
				c-16.9,0-32.6,10.7-38,27.6c-6.7,21,4.7,43.5,25.7,50.2s43.5-4.7,50.2-25.7l0,0c6.7-21-4.7-43.5-25.7-50.2
				C1140.2,139.2,1136.1,138.7,1132,138.7z"/>
		</g>
		<g>
			<path class="st0" d="M1196.3,256.2c-1.1,0-2.4-0.6-3.2-1.5l-36.2-39.4c-1.7-1.7-1.5-4.5,0.2-6.2s4.5-1.5,6.2,0.2l36.2,39.4
				c1.7,1.7,1.5,4.5-0.2,6.2C1198.3,255.8,1197.4,256.2,1196.3,256.2z"/>
		</g>
	</g>
	<g>
		<g>
			<path class="st2" d="M1764.6,687.5c-44.8,0-81.2-36.4-81.2-81.2s36.4-81.2,81.2-81.2c44.8,0,81.2,36.4,81.2,81.2
				C1845.6,651.1,1809.2,687.5,1764.6,687.5z M1764.6,529.6c-42.4,0-76.7,34.5-76.7,76.7c0,42.4,34.5,76.7,76.7,76.7
				c42.4,0,76.7-34.5,76.7-76.7C1841.2,564.1,1806.8,529.6,1764.6,529.6z"/>
		</g>
		<g>
			<path class="st2" d="M1762.2,687.1c-0.4-0.2-10.7-6-20.8-19.1c-9.2-12-20.1-32.8-18.9-63.4c1.1-30.6,12.7-50.4,22.3-61.7
				c10.3-12.4,20.4-17.2,20.8-17.6l1.9,3.9c-0.4,0.2-38.6,19.7-40.7,75.3c-2.1,55.7,37.1,78.2,37.5,78.5L1762.2,687.1z"/>
		</g>
		<g>
			<path class="st2" d="M1765.7,687.1l-2.2-3.7c0.4-0.2,38.2-24.4,36.2-80.2c-2.1-55.7-38.6-73.7-39-73.7l1.9-3.9
				c1.7,0.7,39.4,19.1,41.4,77.6C1806.2,661.4,1766.1,686.9,1765.7,687.1z"/>
		</g>
		<g>
			<path class="st2" d="M1765.7,580.6c-32.8,0-54-11.1-66-20.4l2.6-3.4c11.4,9,31.7,19.5,63.4,19.5c30.6,0,49.9-10.7,60.7-19.5
				l2.8,3.4C1817.8,569.6,1797.6,580.6,1765.7,580.6z"/>
		</g>
		<g>
			<path class="st2" d="M1826.6,653.5c-11.4-8.6-31.7-18.9-63.4-18.9c-30.6,0-50,10.3-60.9,18.9l-2.6-3.4
				c11.4-9,31.7-19.9,63.5-19.9c32.8,0,54,10.9,66,19.9L1826.6,653.5z"/>
		</g>
		<g>
			<rect x="1687.6" y="604.4" class="st2" width="155.9" height="4.3"/>
		</g>
	</g>
	<g>
		<g>
			<g>
				<rect x="1394" y="1221.7" class="st4" width="111" height="111"/>
			</g>
			<g>
				<rect x="1532.9" y="1228.4" class="st4" width="114.3" height="9.6"/>
			</g>
			<g>
				<rect x="1532.9" y="1250.3" class="st4" width="114.3" height="9.6"/>
			</g>
			<g>
				<rect x="1532.9" y="1272.3" class="st4" width="114.3" height="9.6"/>
			</g>
			<g>
				<rect x="1532.9" y="1294.2" class="st4" width="114.3" height="9.6"/>
			</g>
			<g>
				<rect x="1532.9" y="1316.1" class="st4" width="114.3" height="9.6"/>
			</g>
		</g>
		<g>
			<path class="st4" d="M1667.9,1191.7H1365v-68.6c0-3,2.4-5.6,5.6-5.6h291.8c3,0,5.6,2.4,5.6,5.6L1667.9,1191.7L1667.9,1191.7z"/>
		</g>
		<g>
			<g>
				<g>
					<g>
						<g>
							<g>
								<path class="st0" d="M1639.6,1384c0-0.2,3.9,0.4,10.7-2.4c3.4-1.3,7.1-3.9,10.5-7.9c3.4-3.9,6.2-9.7,6.4-16.5
									c0-27.7-0.2-67.5-0.4-116.8c0-24.7,0-51.7-0.2-80.6c0-3.6,0-7.3,0-11.1c0-3.7-0.2-7.3-1.1-10.7c-2.1-6.9-7.1-13.1-13.7-16.5
									c-3.4-1.7-6.9-2.8-10.7-3c-3.7-0.2-7.9,0-11.8,0c-7.9,0-15.9,0-24.2,0c-65.2,0-137,0-212.2,0c-4.5,0-9,1.1-12.9,3.2
									c-3.9,2.2-7.3,5.2-9.7,9c-2.4,3.7-3.9,8.1-4.3,12.6c-0.2,4.5,0,9.2-0.2,13.7c0,18.4,0,36.4,0,54.2c0,35.4,0,69.7,0,102.3
									c0,8.2,0,16.1,0,24.2c0,3.9,0,7.9,0,11.8s-0.2,7.9,0.6,11.4c1.5,7.3,6,13.9,12.2,17.8c3,2.1,6.4,3.4,9.9,3.9
									c3.4,0.7,7.1,0.4,10.7,0.6c29.1,0,56,0.2,80.6,0.2c49.3,0.2,89.2,0.2,116.8,0.4c13.7,0,24.4,0.2,31.7,0.2
									c3.6,0,6.4,0,8.2,0.2C1638.6,1384,1639.6,1384,1639.6,1384s-0.9,0-2.8,0.2c-1.9,0-4.7,0-8.2,0.2c-7.3,0-18,0.2-31.7,0.2
									c-27.7,0-67.5,0.2-116.8,0.4c-24.7,0-51.7,0-80.6,0.2c-3.6,0-7.3,0.2-11.1-0.6c-3.7-0.7-7.3-2.1-10.7-4.3
									c-6.6-4.1-11.4-11.1-12.9-18.9c-0.9-3.9-0.6-8.1-0.6-11.8c0-3.9,0-7.9,0-11.8c0-7.9,0-15.9,0-24.2c0-32.6,0-66.9,0-102.3
									c0-17.8,0-35.8,0-54.2c0-4.7-0.2-9.2,0.2-13.9c0.4-4.9,2.1-9.6,4.7-13.5c2.6-4.1,6.4-7.5,10.7-9.7c4.3-2.2,9.2-3.6,14.1-3.4
									c75.3,0,146.9,0,212.2,0c8.1,0,16.1,0,24.2,0c3.9,0,7.9-0.2,12,0.2c4.1,0.4,8.1,1.5,11.6,3.4c7.1,3.7,12.6,10.3,14.6,17.6
									c1.1,3.7,1.3,7.7,1.3,11.2c0,3.7,0,7.3,0,11.1c0,29.1-0.2,56-0.2,80.6c-0.2,49.3-0.2,89.2-0.4,116.8
									c-0.4,7.1-3.4,12.9-6.7,16.9c-3.6,4.1-7.5,6.6-10.9,7.9c-3.4,1.5-6.2,1.7-8.1,1.9C1640.5,1384.2,1639.6,1384,1639.6,1384z"
									/>
							</g>
						</g>
					</g>
				</g>
			</g>
		</g>
	</g>
	<g>
		<path class="st0" d="M1532.9,1117.4c0,7.1-5.6,12.7-12.7,12.7s-12.7-5.6-12.7-12.7s5.6-12.7,12.7-12.7
			S1532.9,1110.3,1532.9,1117.4z"/>
	</g>
	<g id="XMLID_00000126299447121899767360000014931297739666043554_">
		<path class="st3" d="M1695.6,952.7c9.9,6.4,21.6,9.9,34.1,9.9c41.4,0,64.7-34.9,63.4-66.4c4.3-3.2,8.1-7.1,11.1-11.6
			c-3.9,1.7-8.2,3-12.7,3.6c4.7-2.8,8.1-7.1,9.7-12.4c-4.3,2.6-9,4.5-14.1,5.4c-4.1-4.3-9.9-7.1-16.3-7.1
			c-14.4,0-24.9,13.5-21.7,27.4c-18.6-0.9-34.9-9.7-45.9-23.2c-5.8,9.9-3,23.1,6.9,29.8c-3.6-0.2-7.1-1.1-10.1-2.8
			c-0.2,10.3,7.1,20.1,17.8,22.1c-3.2,0.9-6.6,1.1-10.1,0.4c2.8,8.8,11.1,15.4,20.8,15.6C1719.2,950.8,1707.4,954,1695.6,952.7z"/>
	</g>
	<path class="st2" d="M1571.9,295c-8.6-30-41.2-28.3-41.2-28.3c-8.8-24.2-34.9-40.7-60.2-37.9c-25.3,2.8-47.4,24.6-50.8,50.2
		c-14.6-2.8-30.6,5.8-36.2,19.7c-0.4,0.9-0.7,2.1-1.1,3c-5.8,19.9,10.1,39.7,30.6,39.7h52.1v-26.1h-18.9c-2.2,0-3.6-2.4-2.2-4.3
		l31.3-44c1.1-1.5,3.4-1.5,4.5,0l31.3,43.9c1.3,1.9,0,4.3-2.2,4.3h-18.6v26.2h49.3C1563.5,341.5,1578.7,318.4,1571.9,295z"/>
	<g>
		<g>
			<g>
				<path class="st4" d="M1577.9,1006.3l-57.2-201.1l0,0h-499.1l-65,200.4c-3.9,12.2,5.1,24.6,17.6,24.6h227.9l9.2-9.2h107.6
					l9.2,9.2h232C1572.3,1030.1,1581.3,1018.3,1577.9,1006.3z"/>
			</g>
			<g class="st5">
				<path d="M1577.9,1006.3l-57.2-201.1l0,0h-499.1l-65,200.4c-3.9,12.2,5.1,24.6,17.6,24.6h227.9l9.2-9.2h107.6l9.2,9.2h232
					C1572.3,1030.1,1581.3,1018.3,1577.9,1006.3z"/>
			</g>
			<g>
				<g>
					<path class="st4" d="M1021.4,800.1v-295c0-11.6,9.4-21.2,21-21.2h458.7c11.6,0,21,9.6,21,21.2v294.8h-500.6v0.2H1021.4z"/>
				</g>
				<g>
					<g>
						<rect x="1051.8" y="513.2" class="st1" width="440.3" height="262.2"/>
					</g>
					<g>
						<g>
							<path class="st0" d="M1491.9,775.4c0,0,0-1.7-0.2-4.7c0-3.2,0-7.7-0.2-13.7c0-12.2-0.2-29.8-0.2-52.5
								c-0.2-45.5-0.2-111-0.6-191.2l0.9,0.9c-118.6,0-272.5,0.2-440.1,0.2l0,0l1.1-1.1c0,93,0,181.6,0,262.2l-1.1-1.1
								c129,0.2,238.8,0.4,316.6,0.6c38.8,0.2,69.7,0.2,90.9,0.4c10.5,0,18.7,0.2,24.2,0.2c2.8,0,4.9,0,6.2,0
								C1491.1,775.4,1491.9,775.4,1491.9,775.4s-0.7,0-2.1,0c-1.5,0-3.6,0-6.2,0c-5.4,0-13.5,0-24,0.2c-21.2,0-51.9,0.2-90.7,0.4
								c-78,0.2-188,0.4-317.3,0.6h-1.1v-1.1c0-80.8,0-169.4,0-262.2V512h1.1l0,0c167.6,0.2,321.5,0.2,440.1,0.2h0.9v0.9
								c-0.2,80.4-0.4,146-0.4,191.7c-0.2,22.7-0.2,40.3-0.2,52.3c0,6,0,10.5-0.2,13.7C1491.9,773.9,1491.9,775.4,1491.9,775.4z"/>
						</g>
					</g>
				</g>
				<g>
					<path class="st0" d="M1279.9,499.3c0,4.3-3.6,7.9-8.1,7.9s-8.1-3.6-8.1-7.9s3.6-7.9,8.1-7.9S1279.9,495,1279.9,499.3z"/>
				</g>
			</g>
			<g>
				<path class="st4" d="M1577.9,998.8l-57.2-200.9l0,0h-499.1l-65,200.2c-3.9,12.2,5.1,24.6,17.6,24.6h227.9l9.2-9.2h107.6l9.2,9.2
					h232C1572.3,1022.8,1581.3,1010.8,1577.9,998.8z"/>
			</g>
			<g>
				<path class="st6" d="M1485.3,810.6l-435-1.3c-4.5,0-8.6,2.4-9.7,6l-34.9,99c-1.9,5.4,3,10.7,9.7,10.7h503.5
					c6.7,0,11.6-5.2,9.7-10.7l-33.6-97.5C1493.9,813.2,1489.8,810.8,1485.3,810.6z"/>
			</g>
			<g class="st7">
				<path d="M1350.2,1000.5h-171.7c-7.1,0-12.2-7.3-10.5-14.8l9.7-40.7c1.3-5.2,5.4-8.8,10.5-8.8h153.3c5.1,0,9.4,3.7,10.5,9.2
					l8.6,40.7C1362.4,993.6,1357.1,1000.5,1350.2,1000.5z"/>
			</g>
			<g>
				<g>
					<path class="st0" d="M1349.6,841.9l-4.5-20.6c-0.4-1.5-1.5-2.4-3-2.4h-26.8c-1.9,0-3.4,1.7-3,3.6l3,20.8c0.2,1.5,1.5,2.6,3,2.6
						h28.3C1348.7,845.7,1350,844,1349.6,841.9z"/>
				</g>
				<g>
					<path class="st0" d="M1269,842.5l-1.9-20.8c-0.2-1.5-1.5-2.8-3-2.8h-27.4c-1.7,0-3.2,1.5-3,3.2l0.7,20.8c0,1.7,1.5,3,3,3h28.5
						C1267.7,845.9,1269.2,844.4,1269,842.5z"/>
				</g>
				<g>
					<path class="st0" d="M1311.4,842.3l-3-20.8c-0.2-1.5-1.5-2.6-3-2.6h-31.5c-1.9,0-3.2,1.5-3,3.4l1.9,20.8c0.2,1.5,1.5,2.8,3,2.8
						h32.6C1310.2,845.9,1311.7,844.2,1311.4,842.3z"/>
				</g>
				<g>
					<path class="st0" d="M1111.8,842.9l4.3-18.9c0.6-2.6-1.3-5.1-4.1-5.1h-26.1c-1.9,0-3.6,1.3-3.9,3l-5.4,18.9
						c-0.7,2.6,1.3,5.2,3.9,5.2h27.2C1109.5,846,1111.2,844.7,1111.8,842.9z"/>
				</g>
				<g>
					<path class="st0" d="M1489.6,841.4l-7.9-20.4c-0.4-1.1-1.7-2.1-2.8-2.1h-51c-2.1,0-3.6,2.1-2.8,4.1l7.7,20.6
						c0.4,1.1,1.7,2.1,2.8,2.1h51.2C1488.9,845.5,1490.4,843.4,1489.6,841.4z"/>
				</g>
				<g>
					<path class="st0" d="M1226.6,818.9H1197c-1.7,0-3,1.3-3,3l-0.9,21c0,1.7,1.3,3.2,3,3.2h31.3c1.7,0,3.2-1.5,3-3.2l-0.7-20.8
						C1229.6,820.2,1228.3,818.9,1226.6,818.9z"/>
				</g>
				<g>
					<path class="st0" d="M1073.5,818.9h-20.6c-1.7,0-3.4,1.1-3.9,2.8l-6.7,18.9c-0.9,2.6,1.1,5.6,3.9,5.6h22.1c1.9,0,3.6-1.3,3.9-3
						l5.4-18.9C1078.2,821.5,1076.1,818.9,1073.5,818.9z"/>
				</g>
				<g>
					<path class="st0" d="M1150,843.2l2.8-21c0.2-1.9-1.1-3.6-3-3.6h-26.2c-1.5,0-2.6,0.9-3,2.4l-4.7,21c-0.4,1.9,1.1,3.7,3,3.7
						h28.3C1148.5,846,1149.8,844.9,1150,843.2z"/>
				</g>
				<g>
					<path class="st0" d="M1156.5,821.5l-2.8,21c-0.2,1.9,1.1,3.6,3,3.6h29.2c1.7,0,3-1.3,3-3l0.9-21c0-1.7-1.3-3.2-3-3.2h-27.6
						C1158,818.9,1156.7,820,1156.5,821.5z"/>
				</g>
				<g>
					<path class="st0" d="M1389.9,841.7l-6.2-20.6c-0.4-1.3-1.5-2.2-3-2.2h-28.5c-2.1,0-3.4,1.9-3,3.7l4.5,20.6
						c0.4,1.5,1.5,2.4,3,2.4h30.2C1389,845.7,1390.5,843.6,1389.9,841.7z"/>
				</g>
				<g>
					<path class="st0" d="M1428,841.5l-7.7-20.6c-0.4-1.1-1.7-2.1-2.8-2.1h-26.2c-2.1,0-3.6,2.1-3,3.9l6.2,20.6
						c0.4,1.3,1.7,2.2,3,2.2h27.7C1427.2,845.7,1428.7,843.4,1428,841.5z"/>
				</g>
				<g>
					<path class="st0" d="M1228,850.5h-32.2c-1.7,0-3,1.3-3,3l-1.1,21.6c0,1.7,1.3,3.2,3,3.2h34.1c1.7,0,3.2-1.5,3-3.2l-0.7-21.6
						C1231,851.8,1229.5,850.5,1228,850.5z"/>
				</g>
				<g>
					<path class="st0" d="M1440,873.8l-7.9-21.2c-0.4-1.1-1.7-2.1-2.8-2.1h-28.7c-2.1,0-3.6,2.1-3,3.9l6.4,21.2
						c0.4,1.3,1.7,2.2,3,2.2h30.2C1439.2,878.1,1440.7,875.8,1440,873.8z"/>
				</g>
				<g>
					<path class="st0" d="M1399.5,874.2l-6.4-21.4c-0.4-1.3-1.5-2.2-3-2.2H1359c-1.9,0-3.4,1.9-3,3.7l4.7,21.4
						c0.4,1.5,1.5,2.4,3,2.4h32.8C1398.7,878.1,1400,876,1399.5,874.2z"/>
				</g>
				<g>
					<path class="st0" d="M1152.6,878.5h32.1c1.7,0,3-1.3,3-3l1.1-21.6c0-1.7-1.3-3.2-3-3.2h-30.2c-1.5,0-2.8,1.1-3,2.6l-2.8,21.6
						C1149.4,876.8,1150.7,878.5,1152.6,878.5z"/>
				</g>
				<g>
					<path class="st0" d="M1238.6,878.3h30.4c1.9,0,3.2-1.5,3-3.4l-2.1-21.6c-0.2-1.5-1.5-2.8-3-2.8h-29.1c-1.7,0-3.2,1.5-3,3.2
						l0.7,21.6C1235.5,877,1237,878.3,1238.6,878.3z"/>
				</g>
				<g>
					<path class="st0" d="M1273.7,853.9l1.9,21.4c0.2,1.5,1.5,2.8,3,2.8h34.1c1.9,0,3.4-1.7,3-3.6l-3-21.4c-0.2-1.5-1.5-2.6-3-2.6
						h-33.2C1275,850.5,1273.5,852.2,1273.7,853.9z"/>
				</g>
				<g>
					<path class="st0" d="M1356.7,874.3L1352,853c-0.4-1.5-1.5-2.4-3-2.4h-29c-1.9,0-3.4,1.7-3,3.6l3,21.4c0.2,1.5,1.5,2.6,3,2.6
						h30.7C1355.6,878.1,1357.1,876.4,1356.7,874.3z"/>
				</g>
				<g>
					<path class="st0" d="M1106.1,850.5h-64.5c-1.3,0-2.4,0.7-2.8,2.1l-8.4,21.7c-0.7,2.1,0.7,4.1,2.8,4.1h68c1.5,0,2.6-0.9,3-2.4
						l4.9-21.7C1109.5,852.4,1108,850.5,1106.1,850.5z"/>
				</g>
				<g>
					<path class="st0" d="M1111.4,878.5h31.3c1.5,0,2.8-1.1,3-2.6l2.8-21.7c0.2-1.9-1.1-3.6-3-3.6h-29.2c-1.5,0-2.6,0.9-3,2.4
						l-4.9,21.7C1108,876.6,1109.3,878.5,1111.4,878.5z"/>
				</g>
				<g>
					<path class="st0" d="M1478.6,877.9h20.2c2.2,0,3.7-2.2,2.8-4.3l-8.4-21.2c-0.6-1.1-1.7-1.9-2.8-1.9h-18.6c-2.1,0-3.6,2.1-3,4.1
						l6.9,21.2C1475.9,877.2,1477.1,877.9,1478.6,877.9z"/>
				</g>
				<g>
					<path class="st0" d="M1471.1,874l-6.9-21.2c-0.4-1.3-1.7-2.1-3-2.1h-21.6c-2.1,0-3.6,2.1-2.8,4.1l7.9,21.2
						c0.4,1.1,1.7,2.1,2.8,2.1h20.4C1470.1,877.9,1471.6,876,1471.1,874z"/>
				</g>
				<g>
					<path class="st0" d="M1149.6,914.8h31.7c2.4,0,4.5-1.9,4.7-4.5l1.1-22.5c0.2-2.6-2.1-4.9-4.7-4.9h-29.8c-2.2,0-4.3,1.7-4.7,4.1
						l-3,22.5C1144.7,912.2,1146.8,914.8,1149.6,914.8z"/>
				</g>
				<g>
					<path class="st0" d="M1502.7,883H1454c-3.2,0-5.4,3.2-4.3,6.2l8.6,23.1c0.7,1.9,2.4,3,4.3,3h49.1c3.2,0,5.6-3.4,4.3-6.4
						l-9-23.1C1506.3,884.1,1504.6,883,1502.7,883z"/>
				</g>
				<g>
					<path class="st0" d="M1105.8,886.5l-5.1,22.5c-0.6,2.8,1.5,5.6,4.5,5.6h31.3c2.2,0,4.3-1.7,4.7-4.1l3-22.5
						c0.4-2.8-1.9-5.2-4.7-5.2h-29.2C1108,883,1106.1,884.5,1105.8,886.5z"/>
				</g>
				<g>
					<path class="st0" d="M1063.2,886.3l-6.6,23.1c-0.7,2.6,1.1,5.1,3.9,5.1h32.1c1.9,0,3.6-1.3,3.9-3.2l5.2-23.6
						c0.6-2.4-1.3-4.9-3.9-4.9l-30.7,0.4C1065.1,883.5,1063.6,884.7,1063.2,886.3z"/>
				</g>
				<g>
					<path class="st0" d="M1363.5,888.6l4.9,22.9c0.4,2.1,2.4,3.7,4.5,3.7h32.4c3.2,0,5.4-3,4.5-6l-6.7-22.9
						c-0.6-2.1-2.4-3.4-4.5-3.4H1368C1365.2,883,1362.9,885.8,1363.5,888.6z"/>
				</g>
				<g>
					<path class="st0" d="M1190.8,887.5l-1.1,22.5c-0.2,2.6,2.1,4.9,4.7,4.9l165.3,0.2c3,0,5.2-2.8,4.5-5.6l-4.9-22.9
						c-0.4-2.1-2.4-3.7-4.5-3.7h-159.3C1193.1,883,1191,884.8,1190.8,887.5z"/>
				</g>
				<g>
					<path class="st0" d="M1027,885.4l-9,24.2c-0.9,2.4,0.9,4.9,3.4,4.9h26.8c1.7,0,3.2-1.1,3.6-2.6l6.9-24.2
						c0.7-2.4-1.1-4.7-3.6-4.7h-24.9C1028.9,883,1027.6,883.9,1027,885.4z"/>
				</g>
				<g>
					<path class="st0" d="M1407.7,889l6.7,22.9c0.6,2.1,2.4,3.4,4.5,3.4h29.6c3.2,0,5.4-3.2,4.3-6.2l-8.6-23.1c-0.7-1.9-2.4-3-4.3-3
						H1412C1409.2,883,1407,886,1407.7,889z"/>
				</g>
			</g>
			<g>
				<g>
					<path class="st0" d="M1522.6,798.6c0,0.6-111.9,1.1-249.9,1.1c-138.1,0-249.9-0.6-249.9-1.1c0-0.6,111.9-1.1,249.9-1.1
						S1522.6,797.9,1522.6,798.6z"/>
				</g>
			</g>
		</g>
		<g>
			<g>
				<g>
					<g>
						<g>
							<g>
								<g>
									<path class="st8" d="M1174.9,588.5c4.7-3.9,9.7-6.9,15-9.4l0.9-16.5l27-4.5l6.2,15.2c5.8,0.6,11.6,1.9,17.2,3.9l12.4-11.1
										l22.1,15.9l-6.4,15.2c3.9,4.7,6.9,9.7,9.4,15l16.5,0.9l4.5,27l-15.2,6.2c-0.6,5.8-1.9,11.6-3.9,17.2l11.1,12.4L1276,698
										l-15.2-6.4c-4.7,3.9-9.7,6.9-15,9.4l-0.9,16.5l-27,4.5l-6.2-15.2c-5.8-0.6-11.6-1.9-17.2-3.9l-12.4,11.1l-22.1-15.9
										l6.4-15.2c-3.9-4.7-6.9-9.7-9.4-15l-16.5-0.9l-4.5-27l15.2-6.2c0.6-5.8,1.9-11.6,3.9-17.2l-11.1-12.4l15.7-22.1
										L1174.9,588.5L1174.9,588.5z M1194.8,622.2c-9.4,13.1-6.4,31.5,6.7,40.9s31.5,6.4,40.9-6.7c9.4-13.1,6.4-31.5-6.7-40.9
										C1222.3,606.1,1204.2,609.1,1194.8,622.2z"/>
								</g>
							</g>
						</g>
					</g>
				</g>
			</g>
			<g>
				<g>
					<g>
						<g>
							<g>
								<g>
									<path class="st8" d="M1323.2,657.1c3.2-2.6,6.6-4.7,10.1-6.4l0.6-11.1l18.2-3l4.3,10.3c3.9,0.4,7.9,1.3,11.8,2.6l8.2-7.5
										l15,10.7l-4.3,10.3c2.6,3.2,4.7,6.6,6.4,10.1l11.1,0.6l3,18.2l-10.3,4.3c-0.4,3.9-1.3,7.9-2.6,11.8l7.5,8.2l-10.7,15
										l-10.3-4.3c-3.2,2.6-6.6,4.7-10.1,6.4l-0.6,11.1l-18.2,3l-4.3-10.3c-3.9-0.4-7.9-1.3-11.8-2.6l-8.2,7.5l-15-10.7l4.3-10.3
										c-2.6-3.2-4.7-6.6-6.4-10.1l-11.1-0.6l-3-18.2l10.3-4.3c0.4-3.9,1.3-7.9,2.6-11.8l-7.5-8.2l10.7-15L1323.2,657.1
										L1323.2,657.1z M1336.7,680c-6.4,9-4.3,21.4,4.7,27.6c9,6.4,21.4,4.3,27.6-4.7c6.4-9,4.3-21.4-4.7-27.6
										C1355.4,668.9,1343,671,1336.7,680z"/>
								</g>
							</g>
						</g>
					</g>
				</g>
			</g>
			<g>
				<g>
					<g>
						<g>
							<g>
								<g>
									<path class="st8" d="M1314.7,550.5c2.8-2.2,5.8-4.1,9-5.6l0.6-9.9l16.1-2.6l3.7,9.2c3.6,0.4,6.9,1.1,10.3,2.4l7.3-6.6
										l13.3,9.6l-3.7,9.2c2.2,2.8,4.1,5.8,5.6,9l9.9,0.6l2.6,16.1l-9.2,3.7c-0.4,3.6-1.1,6.9-2.4,10.3l6.6,7.3l-9.6,13.3
										l-9.2-3.7c-2.8,2.2-5.8,4.1-9,5.6l-0.6,9.9l-16.1,2.6l-3.7-9.2c-3.6-0.4-6.9-1.1-10.3-2.4l-7.3,6.6l-13.3-9.6l3.7-9.2
										c-2.2-2.8-4.1-5.8-5.6-9l-9.9-0.6l-2.6-16.1l9.2-3.7c0.4-3.6,1.1-6.9,2.4-10.3l-6.6-7.3l9.6-13.3L1314.7,550.5
										L1314.7,550.5z M1326.6,570.7c-5.6,7.9-3.7,18.9,4.1,24.6c7.9,5.6,18.9,3.7,24.6-4.1c5.6-7.9,3.7-18.9-4.1-24.6
										C1343,560.9,1332.2,562.8,1326.6,570.7z"/>
								</g>
							</g>
						</g>
					</g>
				</g>
			</g>
		</g>
	</g>
	<g>
		<g>
			<g>
				<g>
					<g>
						<g>
							<g>
								<g>
									<g>
										<g>
											<path class="st0" d="M328.3,574.1c-20.1-12.4-25.1-41.4-14.8-62.4c10.5-21,33-34.1,56.2-38c33.4-5.8,69.5,5.4,93.5,29.4
												c12.9,12.9,23.6,30,41,35.8c15.4,5.1,32.1,0,48.2,1.9c21.6,2.4,40.1,17.4,51.4,36c11.2,18.6,16.1,40.1,18.9,61.5
												c2.6,19.7,4.5,41.2,18.4,55.5c13.5,13.9,34.7,16.5,51.4,26.2c31.5,18.4,42.4,64.7,22.1,95c-6.4,9.7-15.7,18.6-16.3,30.2
												c-0.6,10.5,6.4,19.9,9.7,30c8.6,25.9-12.2,57.2-39.4,59c-13.7,0.9-28.5-4.1-40.9,2.2c-12.2,6.4-16.5,21.2-24.2,32.4
												c-15.2,22.3-47.2,31.1-71.6,19.7c-10.1-4.9-19.9-12.9-31.1-12c-11.2,0.9-19.9,10.7-30.9,12.9c-14.4,3-28.3-7.5-37.1-19.3
												c-8.8-11.8-15-25.9-26.1-35.4c-14.6-12.6-34.9-15.6-53.2-21.6c-40.5-13.3-74.6-44.8-91.1-84s-15.2-85.7,3.7-123.7"/>
										</g>
									</g>
								</g>
							</g>
						</g>
					</g>
				</g>
			</g>
		</g>
		<g>
			<g>
				<g>
					<g>
						<g>
							<g>
								<g>
									<g>
										<g>
											<path class="st3" d="M541.6,830.1c4.1-4.5,9.9-8.8,15.9-10.9h-1.3c1.1-0.4,2.2-0.6,3.4-0.6c4.5-1.1,8.8-0.9,12.6,1.3H572
												c6.9,2.4,13.1,7.3,16.5,13.9c6,11.4,3.9,26.1-3.6,36.4c-6.6,9-18.2,15-29.1,12.6c-9.9-2.2-17.4-11.2-20.4-21
												C532.4,850.9,534.1,838.4,541.6,830.1z"/>
										</g>
									</g>
								</g>
							</g>
						</g>
					</g>
				</g>
			</g>
		</g>
		<g>
			<g>
				<g>
					<g>
						<g>
							<path class="st9" d="M283.8,1050.9l-26.6-386.1c-1.1-17.1,11.1-32.1,27.9-34.5l172.1-51.5c55.5-8.2,95.4,58.7,101.4,114.5
								c6.6,62,12.2,137.8,6.7,184.4C554.5,971.6,478,986.8,478,986.8c0-0.4,0.7,95.4,1.9,129.3l22.9,104.8L283.8,1050.9z"/>
						</g>
					</g>
				</g>
			</g>
			<g>
				<g>
					<g>
						<g>
							<path class="st0" d="M524.5,773.5c0.6,6.4-4.5,12-11.1,12.6c-6.6,0.6-12.4-3.9-12.7-10.3c-0.6-6.4,4.5-12,11.1-12.6
								C518.3,762.6,524.1,767.1,524.5,773.5z"/>
						</g>
					</g>
				</g>
			</g>
			<g>
				<g>
					<g>
						<g>
							<path class="st0" d="M543.1,727.2c-1.5,1.7-10.7-4.7-23.6-4.1c-12.9,0.4-21.9,7.5-23.4,6c-0.7-0.7,0.7-3.6,4.7-6.7
								c3.9-3.2,10.7-6.4,18.7-6.7c8.1-0.4,14.8,2.4,18.9,5.2C542.3,723.6,543.8,726.5,543.1,727.2z"/>
						</g>
					</g>
				</g>
			</g>
			<g>
				<g>
					<g>
						<g>
							<path class="st0" d="M408.9,777.4c0.6,6.4-4.5,12-11.1,12.6s-12.4-3.9-12.7-10.3c-0.6-6.4,4.5-12,11.1-12.6
								C402.5,766.6,408.3,771.1,408.9,777.4z"/>
						</g>
					</g>
				</g>
			</g>
			<g>
				<g>
					<g>
						<g>
							<path class="st0" d="M416.7,735.1c-1.5,1.7-10.7-4.7-23.6-4.1c-12.9,0.4-21.9,7.5-23.4,6c-0.7-0.7,0.7-3.6,4.7-6.7
								c3.9-3.2,10.7-6.4,18.7-6.7c8.1-0.4,14.8,2.4,18.9,5.2C416,731.5,417.5,734.3,416.7,735.1z"/>
						</g>
					</g>
				</g>
			</g>
			<g>
				<g>
					<g>
						<g>
							<path class="st0" d="M467.5,828.4c0-0.7,7.9-2.4,20.8-4.7c3.2-0.6,6.4-1.3,6.7-3.6c0.7-2.4-0.9-5.8-2.6-9.6
								c-3.4-7.9-6.9-15.9-10.9-24.6c-15-35.1-26.1-63.9-24.6-64.5s14.8,27.4,29.8,62.4c3.6,8.6,7.1,16.9,10.3,24.7
								c1.3,3.7,3.7,7.9,2.2,12.7c-0.7,2.4-3.2,4.3-5.2,5.1c-2.1,0.7-3.9,0.9-5.6,0.9C475.8,828.8,467.7,829.2,467.5,828.4z"/>
						</g>
					</g>
				</g>
			</g>
			<g>
				<g>
					<g>
						<g>
							<path class="st10" d="M477.5,980.6c0,0-57,6.4-120.7-28.3c0,0,27.9,69,120.9,56.2L477.5,980.6z"/>
						</g>
					</g>
				</g>
			</g>
			<g>
				<g>
					<g>
						<g>
							<path class="st10" d="M467,859.2c-6.6-8.6-17.1-13.5-26.6-12.7c-6.7,0.6-13.1,3.9-16.5,9.9s-3.2,14.8,1.1,20.8
								c5.1,6.7,14.1,8.6,21.2,6.6c7.1-2.1,12.9-7.3,18.4-12.6c1.5-1.5,3-3,3.9-5.1c0.7-2.1,0.7-4.7-0.7-6.6"/>
						</g>
					</g>
				</g>
			</g>
			<g>
				<g>
					<g>
						<g>
							<path class="st0" d="M430,838.9c2.1-0.2,2.6,13.7,15.2,23.1c12.4,9.4,27.2,7.3,27.4,9.2c0.2,0.9-3.2,2.8-9.6,3.4
								c-6.2,0.6-15.2-1.1-22.9-6.9c-7.5-5.8-11.1-13.7-11.8-19.5C427.8,842.5,429.1,838.9,430,838.9z"/>
						</g>
					</g>
				</g>
			</g>
			<g>
				<g>
					<g>
						<g>
							<path class="st0" d="M420.1,681.8c-1.1,3.6-14.1,2.4-29.1,4.9c-15,2.2-27,7.1-29.2,4.1c-0.9-1.5,0.9-4.9,5.8-8.4
								c4.7-3.6,12.4-7.1,21.4-8.6c9-1.3,17.4-0.4,23.1,1.7C417.7,677.5,420.7,680.2,420.1,681.8z"/>
						</g>
					</g>
				</g>
			</g>
			<g>
				<g>
					<g>
						<g>
							<path class="st0" d="M536.7,683.2c-2.1,3-11.1,0.4-21.7,0.7c-10.7,0-19.7,2.8-21.7-0.2c-0.9-1.5,0.4-4.5,4.1-7.3
								c3.7-3,10.1-5.4,17.4-5.6c7.3,0,13.9,2.2,17.6,5.1C536.3,678.7,537.6,681.7,536.7,683.2z"/>
						</g>
					</g>
				</g>
			</g>
		</g>
		<g>
			<g>
				<g>
					<g>
						<g>
							<g>
								<path class="st0" d="M620.5,666.5c-4.5-13.9-12.7-27.2-25.1-34.9c-6.7-4.3-14.6-6.7-21-11.8c-13.7-10.7-17.1-29.6-25.5-44.6
									c-11.1-19.5-31.9-32.8-54.2-34.9c-18.6-1.7-37.5,4.1-55.5,0c-13.3-3.2-25.1-11.6-38.6-14.1c-26.4-4.7-50.4,14.6-69.2,33.6
									c0.2,18.7,15.4,31.1,30,42.9c14.6,11.8,34.5,16.9,53,13.1c14.2-2.8,30-10.3,42.5-2.8c13.1,7.9,14.1,27.6,25.7,37.5
									c16.7,14.1,42.9,0.2,63.9,6.2c16.3,4.5,26.6,19.9,37.7,32.8c11.1,12.9,27.4,25.1,43.5,20.1
									C626.3,695.2,625,680.3,620.5,666.5z"/>
							</g>
						</g>
					</g>
				</g>
			</g>
		</g>
		<g>
			<g>
				<g>
					<g>
						<g>
							<g>
								<path class="st0" d="M422.2,589.8c-11.8-3.2-36-10.5-42.5-20.6c-14.1-21.9-38.4-36.7-63.2-35.1
									c-24.7,1.7-48.2,21.6-52.9,47.8c-29.8,0.7-58.9,19.9-72.7,48.4c-1.7,3.6-3.2,7.3-4.5,11.1c-9,16.5-10.5,37.1-3.6,54.5
									c4.3,10.5,11.4,22.3,6,32.4c-5.4,10.3-19.5,10.7-30.4,14.6c-18.9,6.9-30.9,28.9-26.4,48.5c1.7,7.1,5.1,14.1,3.7,21.2
									c-1.5,7.3-7.7,12.7-12.4,18.6c-11.8,14.4-15.2,35.4-8.6,52.9c6.6,17.4,23.1,30.9,41.4,34.1c8.4,1.3,17.4,0.9,24.7,5.2
									c8.4,5.1,12.2,15,18.2,22.7c11.4,14.8,32.8,21.2,50.4,15c3.6-1.3,6.9-3,9.9-5.2c5.8,7.7,14.6,12.7,29.6,12.6l-6.4-196.6
									c1.9,4.1,5.6,7.9,12,9.2c31.7,6.7,35.2-58.5,27.9-75.9c11.2-10.3,22.7-20.8,31.1-33.7s15.7-48.2,13.5-63.9
									C379.1,608,427.2,591.3,422.2,589.8z"/>
							</g>
						</g>
					</g>
				</g>
			</g>
		</g>
		<g>
			<g>
				<g>
					<g>
						<g>
							<g>
								<g>
									<g>
										<g>
											<g>
												<g>
													<g>
														<g>
															<g>
																<g>
																	<g>
																		<g>
																			<g>
																				<path class="st9" d="M291.7,787.9c-1.3-20.1-25.9-23.8-42.9-13.7c-9.4,5.6-16.5,16.9-15.4,38
																					c3.2,56.6,59.2,41.8,59.2,40.1C292.7,851.3,293.2,811.2,291.7,787.9z"/>
																			</g>
																		</g>
																	</g>
																</g>
															</g>
														</g>
													</g>
												</g>
											</g>
										</g>
									</g>
								</g>
							</g>
						</g>
					</g>
				</g>
			</g>
		</g>
		<g>
			<g>
				<g>
					<g>
						<g>
							<g>
								<g>
									<g>
										<g>
											<g>
												<g>
													<g>
														<g>
															<g>
																<g>
																	<g>
																		<g>
																			<g>
																				<g>
																					<path class="st10" d="M274.3,831.8c-0.2-0.2-0.9,0.7-2.6,1.7c-1.5,0.7-4.3,1.5-7.3,0.6
																						c-6.2-1.9-11.6-11.1-12.6-21.2c-0.4-5.1,0.4-10.1,2.1-14.2c1.5-4.3,3.9-7.3,6.9-8.1c3-0.9,5.2,0.7,6,2.4
																						c0.9,1.5,0.6,2.6,0.9,2.8c0.2,0.2,1.1-0.9,0.6-3.4c-0.4-1.1-1.1-2.4-2.4-3.4c-1.5-0.9-3.4-1.5-5.4-1.1
																						c-4.3,0.6-8.1,4.7-9.7,9.4c-2.1,4.7-3,10.1-2.6,15.9c0.9,11.4,7.5,21.7,15.7,23.6c4.1,0.7,7.3-0.6,9-2.1
																						C274.3,833.3,274.5,832,274.3,831.8z"/>
																				</g>
																			</g>
																		</g>
																	</g>
																</g>
															</g>
														</g>
													</g>
												</g>
											</g>
										</g>
									</g>
								</g>
							</g>
						</g>
					</g>
				</g>
			</g>
		</g>
		<g>
			<g>
				<g>
					<g>
						<g>
							<g>
								<g>
									<g>
										<g>
											<path class="st3" d="M344,575.8c0.4,0.6-5.6,1.7-11.1,9.6c-5.4,7.9-7.3,22.7-3.6,39.2l0.4,1.5l-1.3,0.4
												c-13.9,3.7-29.2,15-36,32.6c-1.7,4.3-2.6,9.2-2.8,13.9c0,4.9,0.9,9.7,2.1,15c0.9,5.1,2.1,10.5,2.4,16.1
												c0.4,5.4-0.9,12-4.3,16.7c-6.9,10.9-18.2,16.3-27.7,21.6c-9.9,5.1-19.1,10.3-26.1,17.6c-14.1,14.2-20.2,32.6-20.4,47.8
												c-0.4,15.2,4.1,27.4,8.1,34.9c3.9,7.7,7.1,11.2,6.7,11.6c-0.2,0-0.9-0.7-2.4-2.4c-1.5-1.9-3.6-4.5-5.6-8.2
												c-4.3-7.5-9.4-19.7-9.4-35.6c-0.2-15.7,6-35.1,20.6-50.2c7.1-7.7,17.1-13.3,26.8-18.6c9.6-5.2,20.2-10.7,26.2-20.2
												c6.2-8.6,3.2-19.9,1.3-30c-0.9-5.1-1.9-10.3-2.1-15.7c0.2-5.4,1.3-10.5,3-15.2c7.5-18.9,23.8-30.6,38.8-34.1l-1.1,1.9
												c-3.6-17.4-1.1-32.8,5.1-40.9c3-4.1,6.4-6.2,8.8-7.3C342.7,575.9,343.8,575.6,344,575.8z"/>
										</g>
									</g>
								</g>
							</g>
						</g>
					</g>
				</g>
			</g>
		</g>
		<g>
			<g>
				<g>
					<g>
						<g>
							<g>
								<g>
									<path class="st3" d="M253.5,853.3c4.1-4.5,9.9-8.8,15.9-10.9h-1.3c1.1-0.4,2.2-0.6,3.4-0.6c4.5-1.1,8.8-0.9,12.6,1.3h-0.2
										c6.9,2.4,13.1,7.3,16.5,13.9c6,11.4,3.9,26.1-3.6,36.4c-6.6,9-18.2,15-29.1,12.6c-9.9-2.2-17.4-11.2-20.4-21
										C244.1,874.2,246,861.6,253.5,853.3z"/>
								</g>
							</g>
						</g>
					</g>
				</g>
			</g>
		</g>
	</g>
	<g>
		<g>
			<g>
				<g>
					<g>
						<g>
							<path class="st9" d="M1073.3,1280l38.6-14.8c0,0,10.5-33.6,17.4-43.5s44.2-40.1,46.5-40.9c2.2-0.7,26.6-55.7,37.9-53.8
								c11.1,1.9,18.7,9.6,15.7,24.6c-3.2,14.8-27.7,44.6-21,49.5s18,6.7,18,6.7s3-17.1,12.4-22.7s20.1,3.6,20.1,3.6l0.4,7.3
								l9.2-8.4c0,0,9.7-34.3,24.6-34.1c0,0,5.8-12.7,14.6-19.5c6.7-5.2,16.5-2.2,19.5,5.8l0,0l-26.4,77.8l-72.9,80.4
								c0,0-34.1,13.1-42.9,17.2c-8.6,3.9-48.2,31.3-65.8,37.3c-17.4,5.8-37.9,14.8-37.9,14.8L1073.3,1280z"/>
						</g>
					</g>
				</g>
			</g>
			<g>
				<g>
					<g>
						<g>
							<g>
								<path class="st10" d="M1175.7,1256c0-0.6-5.2-1.1-13.9-1.5c-8.4,0-21,0.4-33,7.3c-6,3.4-10.5,8.2-13.7,13.1
									s-5.1,9.7-6.6,13.9c-2.8,8.2-3.6,13.5-3.2,13.5c0.6,0.2,2.4-4.9,5.6-12.6c3.4-7.7,8.6-18.6,19.7-24.7
									c10.9-6.2,22.9-7.3,31.1-7.9C1170.2,1256.7,1175.7,1256.5,1175.7,1256z"/>
							</g>
						</g>
					</g>
				</g>
			</g>
			<g>
				<g>
					<g>
						<g>
							<g>
								<path class="st10" d="M1209.2,1202.7c0.6-0.7-3.4-4.5-9.6-6.2c-6.2-1.9-11.4-1.1-11.4,0s4.9,1.9,10.3,3.6
									C1204.2,1201.8,1208.7,1203.7,1209.2,1202.7z"/>
							</g>
						</g>
					</g>
				</g>
			</g>
		</g>
		<g>
			<g>
				<g>
					<path class="st10" d="M1291.9,1217.3c-0.6,0,0.2-6.4,1.7-16.9s3.9-25.1,6.7-42l1.1,2.2c-2.6-1.1-5.6-3-8.1-3.7
						c-2.4-0.7-5.2-0.4-7.7,0.9c-4.1,2.2-6.9,6.6-9,10.9c-2.1,4.5-3.7,9.2-4.7,13.5c-2.1,9-3.6,17.4-4.9,24.4
						c-2.4,13.9-4.1,22.5-4.7,22.5s0-8.8,1.7-22.9c0.9-7.1,2.1-15.4,3.9-24.7c1.1-4.9,2.6-9.4,4.9-14.2c2.2-4.7,5.2-9.9,10.9-12.9
						c3.2-1.7,7.3-2.4,10.9-1.3c3.7,1.3,5.8,2.8,8.6,4.1l1.3,0.6l-0.4,1.5c-3.2,16.9-6,31.3-8.2,41.8
						C1293.9,1211.4,1292.4,1217.3,1291.9,1217.3z"/>
				</g>
			</g>
		</g>
		<g>
			<g>
				<g>
					<path class="st10" d="M1196.1,1283.7c-0.2,0,0-1.1,0.4-3.4c0.6-2.1,1.5-5.2,3.2-9c3.4-7.5,9.6-17.4,19.1-27.9l-0.4,0.7
						c5.1-15,0.4-36.6,14.1-55.9c3.4-3.9,8.8-6.6,14.1-6.2c5.2,0.2,9.7,2.1,13.7,4.7l0.9,0.7l-0.2,1.1c-2.6,21.9-5.2,40.7-7.1,54.2
						c-0.4,6.7-3,12.2-4.9,15.2c-1.9,3.2-3.2,4.7-3.4,4.7c-0.2-0.2,0.7-1.9,2.2-5.2c1.5-3.4,3.4-8.1,3.6-15
						c1.3-13.5,3.2-32.4,5.6-54.2l0.7,1.9c-3.2-2.1-7.3-3.7-11.2-3.9c-4.1-0.2-7.9,1.7-10.7,4.9c-3.4,3.6-4.9,8.2-6.4,13.1
						c-1.3,4.7-2.2,9.6-3,14.2c-0.7,4.7-0.9,9.2-1.5,13.9c-0.6,4.5-1.7,8.8-2.8,12.9l-0.2,0.4l-0.4,0.4
						c-9.4,9.9-16.1,19.3-19.9,26.4C1197.4,1279.4,1196.7,1283.9,1196.1,1283.7z"/>
				</g>
			</g>
		</g>
	</g>
	<g>
		<path class="st1" d="M258.9,1041.5c2.2-3.4,17.8-33.2,17.8-33.2l87.7,75.7c0,0,86,72,86,67.3l13.7-69.4l16.9-63l31.5,47.6
			c0,0,99.2,194.4,99.2,196.6s61.3,203.6,61.3,203.6l-13.1,81.5l-1.5,289l-184.8-7.7l-36.5-58.3l-63-370.6L258.9,1041.5z"/>
	</g>
	<g>
		<path class="st2" d="M483.3,1724.4c-6.2-94.8-3.6-273.8-39.9-367.4c-36.4-93.3-182.2-323-182.2-323l-35.8,55.7l-93.9,35.2
			l127.3,516.2c0,0-49.1,115.5-72.4,182.9c-6.9,20.2-16.3,54.4-26.8,88.5h322.2C485,1837.4,486.3,1769.2,483.3,1724.4z"/>
	</g>
	<g>
		<path class="st2" d="M1100.3,1251.5L852,1389.6l-172.1-245.5c-0.4-0.6-0.9-1.3-1.5-2.1c-19.5-25.9-38.8-54.5-70.5-61.7l-4.9-1.1
			l9.2,294.1c0,0,122.4,135,191,190.6c20.4,16.7,72.2,6.2,96.9-7.3c98.8-54.5,267.7-194.4,267.7-194.4L1100.3,1251.5z"/>
	</g>
	<g>
		<path class="st2" d="M684.8,1643.2c0,0,18.2-140.4,24-175.6c31.1-184.4-105.7-388.4-105.7-388.4l-62.6-10.3l-54-44.6l23.8,66.5
			c0,0,78.3,219.3,93.9,289.4c15.6,70.1,23.4,285.5,25.9,280.2c1.5-3,10.9,130.1,22.7,251.9h132.7L684.8,1643.2z"/>
	</g>
	<g>
		<path class="st0" d="M673.2,1487.1c-0.2,0,0-1.5,0-4.5c0.2-3.2,0.4-7.7,0.7-13.1c0.2-2.8,0.4-6,0.6-9.4c0-3.4,0-7.1,0-11.2
			c0-8.1,0.2-17.2-0.6-27.4c-1.9-40.3-10.5-96.2-30.7-154.4c-7.5-21.9-15.9-42.9-24.9-61.3l0,0l0,0c-8.8-21-19.3-39.5-28.7-56
			c-9.6-16.5-18.2-30.9-25.7-42.7c-7.3-11.6-13.1-21-17.2-27.7c-1.9-3-3.4-5.4-4.7-7.5c-1.1-1.7-1.5-2.6-1.5-2.6s0.7,0.7,1.9,2.4
			c1.3,1.9,3,4.1,5.1,7.1c4.3,6.4,10.5,15.6,18,27.4s16.5,26.1,26.2,42.5c9.6,16.5,20.2,35.1,29.2,56.2v-0.2
			c9.2,18.6,17.6,39.5,25.3,61.7c20.2,58.7,28.7,114.9,30,155.4c0.6,10.1,0.4,19.3,0.2,27.4c-0.2,3.9-0.2,7.7-0.2,11.2
			c-0.4,3.4-0.6,6.6-0.9,9.4c-0.6,5.4-0.9,9.7-1.3,12.9C673.5,1485.4,673.3,1487.1,673.2,1487.1z"/>
	</g>
	<g>
		<path class="st0" d="M448.8,1152.3c0,0.2-1.3-0.4-3.6-1.5c-2.6-1.3-5.8-3-9.6-5.1c-8.6-4.7-20.1-11.1-33.4-18.6l1.9-0.9
			c-1.7,15-4.3,32.6-7.1,51.2c-1.1,7.7-2.2,15-3,22.1l-0.4,2.8l-2.1-1.9c-17.8-15.2-33.4-28.5-44.4-38.2c-5.1-4.5-9.4-8.4-12.9-11.4
			c-3-2.8-4.5-4.3-4.5-4.5c0.2-0.2,1.9,1.1,5.1,3.6c3.6,2.8,8.1,6.4,13.5,10.7c11.4,9.2,27.2,22.3,45.2,37.5l-2.4,0.9
			c0.7-7.1,1.9-14.6,3-22.3c2.8-18.7,5.6-36.2,7.5-51.2l0.2-2.1l1.7,0.9c13.1,7.9,24.4,14.4,32.8,19.5c3.6,2.2,6.6,4.1,9.2,5.6
			C447.9,1151.4,449,1152.1,448.8,1152.3z"/>
	</g>
	<g>
		<path class="st0" d="M500,1066.7c0.2,0,0.4,2.8,0.2,7.9c-0.2,5.6-0.2,12.9-0.4,21.6c-0.4,18.2-1.3,43.3-2.4,71c0,0.7,0,1.3,0,2.1
			l-0.2,4.9l-2.6-4.1c-12.6-19.9-24-38-33.2-52.3l2.1-0.2c-3.7,10.1-6.7,18.6-9.2,24.9c-2.2,5.8-3.6,9.2-3.7,9
			c-0.2,0,0.7-3.6,2.6-9.6c2.1-6.6,4.9-15.2,8.1-25.3l0.7-2.2l1.3,2.1c9.4,14.2,21,32.2,33.7,51.9l-2.8,0.7c0-0.7,0-1.3,0-2.1
			c1.1-27.7,2.2-52.9,3.4-70.9c0.6-8.6,0.9-15.7,1.3-21.6C499.4,1069.5,499.8,1066.7,500,1066.7z"/>
	</g>
	<g>
		<path class="st2" d="M131.6,1124.9c-7.7,4.7-15,10.3-21.7,16.7c-17.4,16.3-30,37.1-38,59.8c-8.8,25.3-17.6,56.4-22.7,76.1
			l-23.8,360.3c-2.1,32.1,3,64.1,15.2,93.7l73.5,180.9h158.6l-85.5-242l29.2-267.1L131.6,1124.9z"/>
	</g>
	<g>
		<g>
			<polyline class="st2" points="229.3,1083.7 264.2,1188.3 301.5,1188.3 277.3,1203.7 467.9,1568.2 			"/>
		</g>
		<g>
			<g>
				<path class="st0" d="M467.9,1568.2c0,0-0.4-0.4-0.7-1.3c-0.6-0.9-1.3-2.2-2.2-3.9c-2.1-3.6-4.7-8.6-8.2-15
					c-7.1-13.3-17.2-32.2-29.6-55.5c-24.9-47.2-59-112.1-96.7-183.9c-19.5-37.1-37.9-72.5-54.5-104.4l-0.6-1.1l1.1-0.7
					c8.4-5.2,16.3-10.3,24.2-15.4l0.7,2.4c-13.1,0-25.5,0-37.1-0.2h-0.9l-0.2-0.7c-10.5-32.1-18.9-58.1-24.9-76.5
					c-2.8-9-5.1-15.9-6.7-21c-0.7-2.2-1.3-4.1-1.7-5.4s-0.6-1.9-0.4-1.9c0,0,0.4,0.6,0.7,1.9c0.6,1.3,1.1,3.2,2.1,5.4
					c1.7,5.1,4.1,12,7.3,20.8c6.2,18.4,15.2,44.4,25.9,76.3l-1.1-0.7c11.6,0,24,0,37.1-0.2h4.5l-3.7,2.4c-7.7,4.9-15.7,10.1-24,15.4
					l0.6-1.9c16.7,31.7,35.2,67.1,54.7,104.2c37.5,71.8,71.2,136.8,96,184.2c12,23.4,21.9,42.5,28.7,56c3.2,6.6,5.8,11.6,7.7,15.4
					c0.7,1.7,1.5,3,1.9,3.9C467.9,1567.7,468.1,1568.2,467.9,1568.2z"/>
			</g>
		</g>
	</g>
	<g>
		<g>
			<path class="st2" d="M159,1175.9c46.5,53.2,66.2,128.8,51.5,197.9"/>
		</g>
		<g>
			<g>
				<path class="st0" d="M210.4,1373.9c-0.6-0.2,2.1-11.8,3-30.7c0.6-9.6,0.6-20.8-0.6-33.4c-1.1-12.6-3.4-26.2-6.9-40.3
					c-3.7-14.1-8.6-27-13.7-38.6c-5.2-11.4-10.7-21.4-15.9-29.4c-10.3-16.1-18.2-24.9-17.6-25.3c0.2-0.2,2.2,2.1,5.8,6
					c1.9,2.1,3.9,4.5,6.2,7.7c2.2,3,5.1,6.4,7.5,10.5c5.4,7.9,11.1,18,16.7,29.4c5.2,11.6,10.3,24.7,14.1,39
					c3.6,14.2,5.6,28.1,6.7,40.9c0.7,12.7,0.7,24.2-0.2,33.7c-0.2,4.9-0.9,9.2-1.5,12.9c-0.4,3.7-1.1,6.9-1.7,9.6
					C211.3,1371,210.6,1373.9,210.4,1373.9z"/>
			</g>
		</g>
	</g>
	<g>
		<g>
			<path class="st0" d="M272.6,1912.5c0,0-0.2-0.4-0.6-1.1c-0.4-0.9-0.7-2.1-1.3-3.6c-1.3-3.4-3-8.1-5.2-14.1
				c-4.5-12.4-10.9-30-18.6-51.5c-15.6-43.9-37.1-104.2-60.9-171.3v-0.2v-0.2c0.2-1.9,0.4-3.9,0.6-5.8c8.1-72,15.4-137.2,20.6-184.6
				c2.8-23.4,4.9-42.5,6.6-55.9c0.7-6.6,1.5-11.6,1.9-15.2c0.2-1.7,0.4-3,0.6-3.9c0.2-0.9,0.2-1.3,0.2-1.3s0,0.4,0,1.3
				s-0.2,2.2-0.4,3.9c-0.4,3.6-0.7,8.8-1.5,15.2c-1.3,13.3-3.4,32.4-5.8,56c-5.1,47.4-12.2,112.6-19.9,184.8
				c-0.2,2.1-0.4,4.1-0.6,5.8v-0.6c23.6,67.1,44.8,127.6,60.4,171.5c7.5,21.7,13.7,39.5,18,51.9c2.1,6,3.6,10.7,4.7,14.1
				c0.6,1.5,0.9,2.8,1.1,3.7C272.6,1912,272.8,1912.5,272.6,1912.5z"/>
		</g>
	</g>
	<g>
		<g>
			<path class="st0" d="M644.7,1172.7c0,0,11.8,17.6,25.7,48.9c3.7,7.7,6.7,16.7,10.5,25.9c3.2,9.6,6.9,19.7,9.7,30.6
				c3.4,10.9,5.8,22.5,8.6,34.5c1.1,6,2.2,12.2,3.4,18.6c1.1,6.2,1.9,12.7,2.8,19.1c6.6,51.9,4.9,99.5,1.7,133.5
				c-0.9,8.4-1.9,16.1-2.6,22.9c-0.7,6.7-1.9,12.6-2.4,17.2c-0.7,4.5-1.3,8.2-1.7,10.9c-0.4,2.4-0.7,3.7-0.7,3.7s0-1.3,0.4-3.7
				c0.4-2.6,0.7-6.4,1.3-10.9c0.6-4.7,1.5-10.5,2.1-17.2c0.7-6.7,1.5-14.4,2.2-22.9c2.6-33.9,4.1-81.3-2.4-133.1
				c-0.9-6.4-1.7-12.7-2.8-19.1c-1.1-6.2-2.2-12.4-3.4-18.4c-2.6-12-5.2-23.6-8.4-34.3c-2.8-10.9-6.6-21-9.6-30.6
				c-3.7-9.4-6.6-18.2-10.1-25.9c-1.7-3.9-3.4-7.7-4.9-11.2c-1.5-3.6-3.2-6.7-4.7-9.7c-3-6.2-5.4-11.4-7.9-15.6
				c-2.2-4.1-3.9-7.3-5.2-9.7C645.2,1174.1,644.7,1172.9,644.7,1172.7z"/>
		</g>
	</g>
	<g>
		<g>
			<path class="st0" d="M854.4,1466.3c-0.2,0.2-2.2-3.9-4.5-10.9c-2.2-6.9-4.5-16.7-4.9-27.9c-0.6-11.1,0.7-21.2,2.4-28.1
				c1.7-7.1,3.4-11.2,3.6-11.1c0.4,0.2-0.7,4.5-2.1,11.4c-1.1,7.1-2.2,16.9-1.7,27.7c0.6,10.9,2.4,20.6,4.1,27.6
				C853.1,1462,854.8,1466.1,854.4,1466.3z"/>
		</g>
	</g>
</g>
</svg>
