<svg id="Camada_1" data-name="Camada 1" xmlns="http://www.w3.org/2000/svg" viewBox="0 0 46 94.27"><defs><style>.cls-1{fill:#455a64;}.cls-2{fill:#fff;}.cls-3{fill:#263238;}.cls-4{fill:#e1e1e1;}.cls-5{fill:#ececec;}.cls-6{fill:#f5f5f5;}</style></defs><rect class="cls-1" x="0.01" y="0.01" width="45.98" height="94.25" rx="6.98"/><path class="cls-2" d="M66,5.72H59.78a1.54,1.54,0,0,0-1.51,1.57V8.42A1.54,1.54,0,0,1,56.77,10H44.66a1.55,1.55,0,0,1-1.51-1.58V7.29a1.54,1.54,0,0,0-1.5-1.58H34a4.89,4.89,0,0,0-4.89,4.89l0,78.38A4.9,4.9,0,0,0,34,93.86H66A4.88,4.88,0,0,0,70.86,89l0-78.38A4.89,4.89,0,0,0,66,5.72Z" transform="translate(-27 -2.86)"/><path class="cls-3" d="M66.46,12.09s-.81,0-1.8.05-1.81,0-1.81,0,.81,0,1.81,0S66.46,12.07,66.46,12.09Z" transform="translate(-27 -2.86)"/><path class="cls-3" d="M66.47,13s-.81.05-1.81.06-1.8,0-1.8,0,.81,0,1.8,0S66.47,13,66.47,13Z" transform="translate(-27 -2.86)"/><path class="cls-3" d="M66.48,13.94s-.81,0-1.81.05-1.8,0-1.8,0a17,17,0,0,1,1.8-.06C65.67,13.9,66.48,13.92,66.48,13.94Z" transform="translate(-27 -2.86)"/><path class="cls-1" d="M32.49,14.84h.36l1,0,0,0,0-.71c0-.13,0-.25,0-.4a.36.36,0,0,1,.32-.3h.47a.38.38,0,0,1,.31.38l0,1,0-.05h1.23l-.05.05c0-.5,0-1,0-1.53v-.39a.39.39,0,0,0-.17-.29l-.54-.52-.51-.51-.25-.25c-.09-.08-.16-.17-.26-.19a.32.32,0,0,0-.28,0l-.22.23-.44.44c-.28.29-.57.55-.78.8s0,.3-.06.45v1.58a.46.46,0,0,1,0,.16v-.15l0-.44V12.87a.58.58,0,0,1,.06-.26c.23-.27.5-.52.78-.82l.44-.44a2.55,2.55,0,0,1,.23-.24.45.45,0,0,1,.36-.07.7.7,0,0,1,.29.21l.25.25.52.51.54.52c0,.05.09.09.13.15a.4.4,0,0,1,.07.21v2H34.82v0c0-.36,0-.7,0-1a.29.29,0,0,0-.25-.3h-.44a.3.3,0,0,0-.26.24,2.54,2.54,0,0,0,0,.39v.73H32.49Z" transform="translate(-27 -2.86)"/><path class="cls-1" d="M53.62,76.08a1.5,1.5,0,0,1-.33,0h-.92c-.77,0-1.84,0-3,0s-2.24,0-3,0h-.91a1.55,1.55,0,0,1-.34,0,2.3,2.3,0,0,1,.34,0l.91,0,3,0,3,0,.92,0A2.22,2.22,0,0,1,53.62,76.08Z" transform="translate(-27 -2.86)"/><path class="cls-1" d="M67.05,78.18s-4.92.06-11,.06-11,0-11-.06,4.92-.06,11-.06S67.05,78.15,67.05,78.18Z" transform="translate(-27 -2.86)"/><path class="cls-1" d="M60.18,80.16s-3.38.06-7.55.06-7.55,0-7.55-.06,3.38-.06,7.55-.06S60.18,80.13,60.18,80.16Z" transform="translate(-27 -2.86)"/><path class="cls-3" d="M67.48,84l-.68-.69-.65.65V82h1.34Zm-.68-.77,0,0,.6.6V82.07H66.21v1.76Z" transform="translate(-27 -2.86)"/><path class="cls-3" d="M49.31,83.75l-.24-.1a.71.71,0,0,1-.31.09.68.68,0,0,1-.68-.66.69.69,0,0,1,.67-.68.67.67,0,0,1,.67.67.66.66,0,0,1-.17.44Zm-.56-1.3a.62.62,0,0,0-.62.63.61.61,0,0,0,.63.61.67.67,0,0,0,.3-.09h0l.17.08,0-.17h0a.63.63,0,0,0,.17-.42A.63.63,0,0,0,48.75,82.45Z" transform="translate(-27 -2.86)"/><path class="cls-3" d="M50.86,83.65,50.58,83l-.52-.48h1.26Zm-.68-1.1.44.4.24.58.39-1Z" transform="translate(-27 -2.86)"/><rect class="cls-3" x="50.56" y="82.71" width="0.82" height="0.05" transform="translate(-63.88 38.33) rotate(-33.05)"/><path class="cls-4" d="M47.33,82.64a.38.38,0,0,0-.76,0,.4.4,0,0,0-.38-.33.4.4,0,0,0-.39.32.5.5,0,0,0,.1.37,1.24,1.24,0,0,0,.27.29l.41.37.39-.37a1.61,1.61,0,0,0,.28-.3A.5.5,0,0,0,47.33,82.64Z" transform="translate(-27 -2.86)"/><path class="cls-3" d="M68.88,85.74V82.43c0-2.13,0-5.24,0-9.13l0,0-37.15,0h0l.06-.06V85.74l-.06-.06,26.58,0,7.76,0H58.35l-26.62,0h-.06V73.24h.06l37.15,0h0v0c0,3.9,0,7,0,9.16,0,1.06,0,1.88,0,2.44v.63C68.88,85.67,68.88,85.74,68.88,85.74Z" transform="translate(-27 -2.86)"/><rect class="cls-5" x="34.29" y="74.37" width="8.23" height="10.29" transform="matrix(0.01, -1, 1, 0.01, -68.34, 114.6)"/><path class="cls-3" d="M43.57,75.43H40.7l-7.42,0,0-.05c0,2.45,0,5.25,0,8.22,0,0-.11-.11-.06-.06H36l2.67,0,4.82,0-.05,0c0-2.47.05-4.52.06-6l0-1.67v-.44a1.08,1.08,0,0,1,0-.16v2.24c0,1.45,0,3.51,0,6v0h0l-4.82,0H33.23l-.06-.06c0-3,0-5.77,0-8.22v-.06h.06l7.45.07,2.1,0h.74Z" transform="translate(-27 -2.86)"/><rect class="cls-4" x="34.8" y="74.73" width="7.19" height="9.57" transform="translate(-68.34 114.59) rotate(-89.67)"/><polygon class="cls-6" points="6.59 80.22 9.96 75.77 12.01 78.58 13.42 77.09 16.16 80.28 6.59 80.22"/><path class="cls-6" d="M39.91,78.11a.76.76,0,1,1-.75-.76A.76.76,0,0,1,39.91,78.11Z" transform="translate(-27 -2.86)"/><path class="cls-3" d="M50.63,22.07H50.2l-1.15,0-3.83,0-3.82,0-1.16,0h-.43s0,0,.11,0h.32l1.16,0h7.65l1.15,0h.32C50.59,22.06,50.63,22.06,50.63,22.07Z" transform="translate(-27 -2.86)"/><path class="cls-3" d="M65.83,67.54l-1-1-1,1V64.58h2Zm-1-1.14,0,0,.89.9V64.67H64v2.6Z" transform="translate(-27 -2.86)"/><path class="cls-3" d="M40.08,67.24,39.61,67a1.35,1.35,0,0,1-.62.18,1.33,1.33,0,1,1,1-.45ZM39,64.67a1.23,1.23,0,0,0,0,2.45,1.24,1.24,0,0,0,.59-.18h0l.35.15-.08-.34,0,0a1.22,1.22,0,0,0-.92-2Z" transform="translate(-27 -2.86)"/><path class="cls-3" d="M43.13,67l-.55-1.32-1-.93,2.47,0ZM41.8,64.87l.86.79.47,1.13.77-1.94Z" transform="translate(-27 -2.86)"/><rect class="cls-3" x="42.53" y="65.19" width="1.61" height="0.09" transform="translate(-55.56 31.33) rotate(-33.05)"/><path class="cls-4" d="M36.19,65.06a.76.76,0,0,0-1.51,0,.79.79,0,0,0-.73-.66.8.8,0,0,0-.77.63,1,1,0,0,0,.18.74,3,3,0,0,0,.55.57l.8.72.77-.73A3.29,3.29,0,0,0,36,65.8,1,1,0,0,0,36.19,65.06Z" transform="translate(-27 -2.86)"/><circle class="cls-5" cx="8.97" cy="19.2" r="1.68"/><path class="cls-1" d="M65.2,57.93s-7,.06-15.7.06-15.7,0-15.7-.06,7-.06,15.7-.06S65.2,57.89,65.2,57.93Z" transform="translate(-27 -2.86)"/><path class="cls-1" d="M65.2,55.31s-7,.06-15.7.06-15.7,0-15.7-.06,7-.06,15.7-.06S65.2,55.28,65.2,55.31Z" transform="translate(-27 -2.86)"/><path class="cls-1" d="M50.89,60.58s-3.83.06-8.54.06-8.55,0-8.55-.06,3.83-.06,8.55-.06S50.89,60.54,50.89,60.58Z" transform="translate(-27 -2.86)"/><path class="cls-1" d="M48.78,89.06a.67.67,0,1,1-.66-.68A.67.67,0,0,1,48.78,89.06Z" transform="translate(-27 -2.86)"/><path class="cls-1" d="M50.85,89.07a.67.67,0,0,1-.67.68.68.68,0,1,1,.67-.68Z" transform="translate(-27 -2.86)"/><path class="cls-1" d="M52.92,89.08a.67.67,0,1,1-1.34,0,.67.67,0,1,1,1.34,0Z" transform="translate(-27 -2.86)"/><rect class="cls-4" x="4.95" y="22.52" width="37.15" height="22.72"/><polygon class="cls-6" points="8.38 45.24 19.03 31 25.63 39.91 30.1 35.14 38.88 45.23 8.38 45.24"/><path class="cls-6" d="M55.43,32.11A2.41,2.41,0,1,1,53,29.71,2.4,2.4,0,0,1,55.43,32.11Z" transform="translate(-27 -2.86)"/><path class="cls-3" d="M69,69.22c0-.49,0-21,0-51.4l0,.06H31.85l.07-.06c0,19.22,0,37,0,51.4l0,0,37.15,0-37.15,0h0v0c0-14.39,0-32.18,0-51.4v-.06H69.06v.05c0,15.21,0,28.06,0,37.12,0,4.52,0,8.09,0,10.53,0,1.22,0,2.16,0,2.79V69A2.17,2.17,0,0,1,69,69.22Z" transform="translate(-27 -2.86)"/></svg>