<?xml version="1.0" encoding="utf-8"?>
<!-- Generator: Adobe Illustrator 26.0.3, SVG Export Plug-In . SVG Version: 6.00 Build 0)  -->
<svg version="1.1" id="Camada_1" xmlns="http://www.w3.org/2000/svg" xmlns:xlink="http://www.w3.org/1999/xlink" x="0px" y="0px"
	 viewBox="0 0 1920 1920" style="enable-background:new 0 0 1920 1920;" xml:space="preserve">
<style type="text/css">
	.st0{fill:#B66956;}
	.st1{fill:#7D3B29;}
	.st2{fill:#192E35;}
	.st3{fill:#EA505E;}
	.st4{opacity:0.3;}
	.st5{fill:#385A65;}
	.st6{fill:#FBFBFB;}
	.st7{opacity:0.2;}
	.st8{fill:#FBD0BE;}
	.st9{fill:#CC9076;}
	.st10{opacity:0.78;}
</style>
<g>
	<g>
		<g>
			<g>
				<g>
					<g>
						<g>
							<g>
								<path class="st0" d="M1840.2,848.6c-3.6-16,15-70.5,3-71.8c-15.3-1.6-18,60.8-18.5,66.3s-8.7,4.8-7.9-0.3
									c1.1-7.2,11.4-77.7-4.3-77.8c-8.6-0.1-9,15.6-9,15.6s-5.8,69.5-13.1,69.2c-7.5-0.3-2.1-39.8-1.3-54.6
									c0.7-14.1-6.3-22.3-11.5-16.1c-7.6,8.9-7.5,44.7-8.6,58.9c-0.9,14.1-4.8,54.6-19.2,34.3c-14.6-20.3-33.3-30.4-40-29.8
									c-6.8,0.7-8.2,10.6-1.5,14.5c5.5,3.1,12.7,11.1,18.2,17.3c4.4,5.1,7.4,11.3,10.5,17.2c2.3,4.3,5.9,12.7,7.6,24.5
									c2,13.7,9.9,25.8,21.5,33.4l-0.8,111.3l-3.5,55l86.6,30L1837,949.6c4.3-37.7,20.9-85.4,27-107.6c9.7-35.3,5.1-36.7,0.8-37
									C1855.1,804.5,1843.7,864.1,1840.2,848.6z"/>
							</g>
						</g>
					</g>
				</g>
			</g>
			<g>
				<g>
					<g>
						<g>
							<path class="st1" d="M1829.1,896.5c0,0.3-4.3,0-10.7,1.7c-6.3,1.7-14.9,6.2-21.2,14.5c-1.6,2.3-3,4.6-4.3,6.8l-0.5,1.1
								l-0.9-0.9c-5.6-5.9-11.9-9.8-16.5-12.1s-7.5-3.2-7.5-3.5s3.1,0.3,7.9,2.4c4.8,2,11.3,5.8,17.2,11.8l-1.5,0.3
								c1.2-2.4,2.5-4.8,4.3-7.2c3.2-4.2,7.2-7.5,11.1-10.1c3.9-2.3,7.8-3.8,11.1-4.6c3.4-0.9,6.2-0.9,8-0.9
								C1828,896.3,1829.1,896.4,1829.1,896.5z"/>
						</g>
					</g>
				</g>
			</g>
			<g>
				<g>
					<g>
						<g>
							<path class="st1" d="M1824.8,948.6c0.1,0.4-8.2,3.1-18.6,3.5c-10.6,0.3-19-1.7-18.9-2.3c0.1-0.5,8.4,0.8,18.9,0.4
								C1816.3,949.9,1824.8,948,1824.8,948.6z"/>
						</g>
					</g>
				</g>
			</g>
		</g>
		<g>
			<g>
				<g>
					<path class="st2" d="M1301.3,658.5c1.7-28.4,25.1-54.2,53.2-58.5c7.4-1.1,15.2-0.9,22-4.2c5.5-2.5,10.1-6.8,15.3-10.2
						c16.6-10.6,40.6-7.4,53.8,7.2c12.5,13.7,15.6-6.8,43.6,7.2c23.1,11.5,12.9,30.8,12.9,30.8c22.9-2.7,46.4,13.5,52.2,35.8
						c3.6,14.1,2,31.8,13.8,40.4c5.8,4.2,13.3,4.8,19.2,8.7c11,7.2,12.5,22.8,11,35.8c-1.5,13.1-4.4,27,1.2,38.9
						c9.4,19.4,38.4,25.3,43.5,46.4c2.3,9.9-0.9,22.3,6.6,29.1c3,2.8,7.1,3.9,10.9,5.5c15.3,6.2,26.7,21.5,28.3,38.1
						c1.6,16.6-6.8,33.5-20.8,42.5c-3.9,2.4-8.6,4.8-9.8,9.4c-1.3,5,2.3,9.8,4.8,14.2c9.7,16.2,7.1,38.8-5.9,52.4
						c-13,13.7-35.4,17.3-52,8.6c-7.5,16-21.3,28.7-37.8,34.7c-7.5,2.8-16,4.3-23.7,2.3c-6.3-1.6-11.9-5-17.2-8.9
						c-24.7-18.5-59.4-47.1-63.8-77.7"/>
				</g>
			</g>
			<g>
				<g>
					<path class="st0" d="M1300.8,706.1l-1.1-21.9l130.8-29.1c40.4-5.5,85.4,33.7,89.3,74.4c4.3,45.2,7.6,100.5,3.4,134.3
						c-8.7,68.1-60.4,78.3-60.4,78.3l1.7,67.3l-149.8,6.6L1300.8,706.1z"/>
				</g>
			</g>
			<g>
				<g>
					<g>
						<g>
							<g>
								<g>
									<g>
										<g>
											<g>
												<g>
													<path class="st2" d="M1495.1,778.6c0.3,4.6-3.4,8.7-8.2,9c-4.8,0.4-8.9-3-9.3-7.5c-0.4-4.6,3.4-8.7,8.2-9
														C1490.7,770.6,1494.7,774.1,1495.1,778.6z"/>
												</g>
											</g>
										</g>
									</g>
								</g>
							</g>
						</g>
					</g>
				</g>
			</g>
			<g>
				<g>
					<g>
						<g>
							<g>
								<g>
									<g>
										<g>
											<g>
												<g>
													<g>
														<path class="st2" d="M1506.2,758.6c-0.9,1.1-7.8-3.6-17.2-3.2c-9.4,0.3-16.1,5.2-17.2,4.2c-0.5-0.4,0.5-2.5,3.5-4.8
															s7.8-4.6,13.7-4.7c5.8-0.1,10.7,1.9,13.7,4C1505.6,756.1,1506.8,758.1,1506.2,758.6z"/>
													</g>
												</g>
											</g>
										</g>
									</g>
								</g>
							</g>
						</g>
					</g>
				</g>
			</g>
			<g>
				<g>
					<g>
						<g>
							<g>
								<g>
									<g>
										<g>
											<g>
												<g>
													<path class="st2" d="M1407.6,783.1c0.3,4.6-3.4,8.7-8.2,9c-4.8,0.4-8.9-3-9.3-7.5c-0.3-4.6,3.4-8.7,8.2-9
														C1403.2,775,1407.4,778.4,1407.6,783.1z"/>
												</g>
											</g>
										</g>
									</g>
								</g>
							</g>
						</g>
					</g>
				</g>
			</g>
			<g>
				<g>
					<g>
						<g>
							<g>
								<g>
									<g>
										<g>
											<g>
												<g>
													<g>
														<path class="st2" d="M1414.2,763.2c-0.9,1.1-7.8-3.6-17.2-3.2c-9.4,0.3-16.1,5.2-17.2,4.2c-0.5-0.4,0.5-2.5,3.5-4.8
															s7.8-4.6,13.7-4.7c5.8-0.1,10.7,1.9,13.7,4C1413.7,760.7,1414.8,762.7,1414.2,763.2z"/>
													</g>
												</g>
											</g>
										</g>
									</g>
								</g>
							</g>
						</g>
					</g>
				</g>
			</g>
			<g>
				<g>
					<g>
						<g>
							<g>
								<g>
									<g>
										<g>
											<g>
												<g>
													<path class="st2" d="M1450.3,831.6c-0.1-0.5,5.8-1.6,15.2-3.2c2.3-0.3,4.7-0.9,5-2.5c0.5-1.7-0.5-4.3-1.7-7
														c-2.4-5.6-5-11.7-7.6-18c-10.7-25.6-18.4-46.7-17.3-47.1c0.9-0.4,10.5,20,21.2,45.6c2.5,6.3,5,12.3,7.4,18.1
														c0.9,2.7,2.7,5.6,1.6,9.4c-0.5,1.7-2.3,3.1-3.8,3.6c-1.6,0.5-3,0.5-4,0.7C1456.2,831.9,1450.3,832.1,1450.3,831.6z"/>
												</g>
											</g>
										</g>
									</g>
								</g>
							</g>
						</g>
					</g>
				</g>
			</g>
			<g>
				<g>
					<g>
						<g>
							<g>
								<g>
									<g>
										<g>
											<g>
												<path class="st1" d="M1462.6,942.1c0,0-47.7,4.3-93.9-21.5c0,0,24.4,46.8,94.4,38.4L1462.6,942.1z"/>
											</g>
										</g>
									</g>
								</g>
							</g>
						</g>
					</g>
				</g>
			</g>
			<g>
				<g>
					<g>
						<g>
							<g>
								<g>
									<g>
										<g>
											<g>
												<path class="st1" d="M1447.1,854.3c-3.6-4.3-9.4-6.6-15.3-5.8c-4,0.5-8.2,2.7-10.5,6c-2.3,3.4-2.8,8.2-0.4,11.3
													c2.7,3.5,7.9,4.2,12.3,2.7s8.2-4.4,11.8-7.5c0.9-0.9,2-1.6,2.5-3c0.5-1.1,0.7-2.5-0.1-3.5"/>
											</g>
										</g>
									</g>
								</g>
							</g>
						</g>
					</g>
				</g>
			</g>
			<g>
				<g>
					<g>
						<g>
							<g>
								<g>
									<g>
										<g>
											<g>
												<g>
													<path class="st2" d="M1423.1,838.9c1.6-0.1,1.9,10.1,10.7,17c8.9,7,19.7,5.5,19.9,6.8c0.1,0.7-2.3,2-6.8,2.3
														c-4.4,0.3-11.1-0.9-16.6-5.2c-5.5-4.2-7.9-10.1-8.3-14.2C1421.2,841.4,1422.4,838.9,1423.1,838.9z"/>
												</g>
											</g>
										</g>
									</g>
								</g>
							</g>
						</g>
					</g>
				</g>
			</g>
			<g>
				<g>
					<g>
						<g>
							<g>
								<g>
									<path class="st2" d="M1415.6,726.5c-0.9,2.5-10.2,1.6-21.2,3.4c-11,1.5-19.7,4.8-21.2,2.7c-0.7-1.1,0.8-3.6,4.3-6.2
										s9.1-5.1,15.7-6s12.6-0.1,16.6,1.5C1413.8,723.2,1416,725.3,1415.6,726.5z"/>
								</g>
							</g>
						</g>
					</g>
				</g>
			</g>
			<g>
				<g>
					<g>
						<g>
							<g>
								<g>
									<path class="st2" d="M1501.8,731.6c-1.6,2.3-8.2,0.3-16,0.3c-7.8-0.1-14.2,1.9-16-0.3c-0.7-1.1,0.3-3.2,3.1-5.4
										s7.5-3.9,12.7-3.9c5.4,0,10.1,1.7,12.7,3.9C1501.7,728.3,1502.6,730.6,1501.8,731.6z"/>
								</g>
							</g>
						</g>
					</g>
				</g>
			</g>
			<g>
				<g>
					<path class="st2" d="M1531,646.3c-9.3,24.4-31,61.4-56.9,65.9c-25.6,4.4-53.5-5.8-70.3-25.8c-3,19.4-23.9,30.8-43.2,34.9
						c-13.7,3-28.2,3.8-41.3-0.8c-13.3-4.6-24.8-15.3-27.6-29c-2.8-13.7,15.3-48.4,28.8-51.6"/>
				</g>
			</g>
			<g>
				<g>
					<path class="st2" d="M1344.9,1006.9c0.3,21.9-14.8,43.2-35.7,50.2c2,17.7-10.3,35.9-27.6,40.6c-17.2,4.8-37.2-4.6-44.5-20.7
						c-1.9-4.3-3.2-9-6.3-12.5c-7.2-7.9-20-5.4-30.4-7.9c-18.8-4.7-28.3-26.4-27.6-45.9c0.1-3.8,0.5-7.6-0.3-11.4
						c-1.6-7.5-8.2-13-13-19c-20.4-24.8-15.3-63.3,3.4-89.3c6.2-8.7,14.2-17.8,12.7-28.4c-0.8-5.9-4.4-11-7-16.4
						c-8.3-17.4-4.4-40,9.3-53.6c2.1-2.1,4.6-4.2,5.1-7.1c0.3-1.9-0.1-3.8-0.4-5.5c-5.4-28,15.3-58.5,43.3-63.7
						c1.6-0.3,3.5-0.5,4.8-1.5c4.3-2.5,3.9-8.6,4.2-13.4c0.5-13,8.7-37.7,18-46.8c25.6-25.2,53.5-8.2,63.4,0
						c0,0,25.3,91.3,22.9,108.9c-2.3,17.4-12.1,61.4-5.5,80.6c6.4,19.2,17.6,58.6,10.9,76.9
						C1338.3,938.9,1344.9,1006.9,1344.9,1006.9z"/>
				</g>
			</g>
		</g>
		<g>
			<g>
				<g>
					<g>
						<g>
							<g>
								<g>
									<g>
										<g>
											<g>
												<path class="st3" d="M1509.3,1767.4c0,0,198,54.9,205.9,57.5c11.9,4.3,9.9,47.9-8.7,47.2c-8.7-0.3-152.1,5.4-170.1,4.3
													c-18.1-1.1-72.7-22.7-72.7-22.7L1509.3,1767.4z"/>
											</g>
										</g>
									</g>
								</g>
							</g>
						</g>
					</g>
				</g>
				<g>
					<g>
						<g>
							<g>
								<g>
									<g>
										<g>
											<g>
												<g>
													<path class="st2" d="M1591.8,1843c0.9,0.1,2.3-10.3,8.7-21.2c6.2-11,14.6-17.4,13.9-18.2c-0.3-0.8-10.2,4.8-16.9,16.6
														C1590.9,1831.8,1591,1843,1591.8,1843z"/>
												</g>
											</g>
										</g>
									</g>
								</g>
							</g>
						</g>
					</g>
				</g>
				<g>
					<g>
						<g>
							<g>
								<g>
									<g>
										<g>
											<g>
												<g>
													<path class="st2" d="M1571.1,1833.5c0.9,0.3,3-9.3,8.2-19.6c5.1-10.5,11.4-17.6,10.7-18.2c-0.5-0.7-8.2,5.8-13.8,16.8
														C1570.9,1823.5,1570.3,1833.5,1571.1,1833.5z"/>
												</g>
											</g>
										</g>
									</g>
								</g>
							</g>
						</g>
					</g>
				</g>
				<g>
					<g>
						<g>
							<g>
								<g>
									<g>
										<g>
											<g>
												<g>
													<path class="st2" d="M1551.7,1828.4c0.9-0.1,0.3-9.9,4.7-20.9c4.3-11,11.4-17.8,10.7-18.5c-0.4-0.8-9.3,5.4-13.9,17.3
														C1548.6,1818.2,1551,1828.7,1551.7,1828.4z"/>
												</g>
											</g>
										</g>
									</g>
								</g>
							</g>
						</g>
					</g>
				</g>
				<g>
					<g>
						<g>
							<g>
								<g>
									<g>
										<g>
											<g>
												<g>
													<path class="st2" d="M1555.3,1802.8c0.3,0.1,2.1-5.5,2.1-14.6c0-4.7-0.5-10.1-2-16.1c-0.8-3-1.6-6.2-3-9.3
														c-0.7-1.6-1.3-3.4-3.2-4.8c-1.9-1.6-5.2-1.3-6.8,0.3c-1.7,1.6-2.3,3.8-2.7,5.5c-0.3,1.7-0.3,3.6-0.3,5.2
														c0,3.5,0.4,6.7,1.2,9.7c1.5,6,3.8,11.1,6.2,15.2c4.6,8,8.6,12.1,8.9,11.9c0.4-0.3-3-4.8-6.8-13c-1.9-4-4-9-5.2-14.6
														c-0.5-3-0.9-5.9-0.9-9c0.1-3,0-6.8,1.7-8.3c0.9-0.8,1.7-0.9,2.7-0.3c0.9,0.7,1.6,2,2.3,3.5c1.2,3,2.3,5.9,3,8.7
														c1.6,5.6,2.3,11,2.7,15.4C1555.6,1797.2,1554.8,1802.7,1555.3,1802.8z"/>
												</g>
											</g>
										</g>
									</g>
								</g>
							</g>
						</g>
					</g>
				</g>
				<g>
					<g>
						<g>
							<g>
								<g>
									<g>
										<g>
											<g>
												<g>
													<path class="st2" d="M1555,1800.8c0.1-0.3-4.7-2-12.7-2.1c-4,0-8.9,0.4-13.9,1.6c-2.5,0.7-5.4,1.3-8.2,3
														c-2.7,1.3-5.5,5.1-4.4,9c0.9,3.6,4,6.2,7.1,7.1s6.2,0.5,8.9,0c5.5-1.2,9.7-3.9,12.9-6.3c6.3-5,9.4-8.7,9.3-9.1
														c-0.3-0.4-4.2,3-10.6,7.1c-3.2,2.1-7.4,4.3-12.1,5.2c-2.4,0.4-5,0.5-7.4-0.1c-2.3-0.7-4.3-2.4-4.8-4.7
														c-0.5-2.3,0.8-4.3,3-5.5c2.1-1.3,4.8-2.1,7.2-2.8c4.8-1.5,9.4-2,13.3-2.3C1550.1,1800.5,1555,1801.3,1555,1800.8z"/>
												</g>
											</g>
										</g>
									</g>
								</g>
							</g>
						</g>
					</g>
				</g>
				<g>
					<g>
						<g>
							<g>
								<g>
									<g>
										<g>
											<g>
												<g>
													<path class="st2" d="M1622.2,1845c0.9-0.1,0-8.6,3.9-17.8c3.6-9.4,10.3-14.8,9.7-15.4c-0.3-0.8-8.6,3.9-12.7,14.2
														C1618.8,1836.3,1621.3,1845.5,1622.2,1845z"/>
												</g>
											</g>
										</g>
									</g>
								</g>
							</g>
						</g>
					</g>
				</g>
				<g>
					<g>
						<g>
							<g>
								<g>
									<g>
										<g>
											<g>
												<g>
													<path class="st2" d="M1484.1,1854.2c-0.1,0.3,2.7,1.5,7.6,3.6c5.1,1.9,12.6,4.6,22,6.8c18.9,4.8,45.9,7.5,75.6,7.1
														s56.3-1.6,75.8-2.4c9.3-0.4,16.9-0.9,22.9-1.2c5.5-0.3,8.4-0.7,8.4-0.9c0-0.3-3-0.3-8.4-0.4c-6.2,0-13.8,0.1-23.1,0.1
														c-20,0.4-46.5,0.9-75.8,1.5c-29.5,0.3-56.2-2-75.1-6.2C1495.4,1858.5,1484.2,1853.5,1484.1,1854.2z"/>
												</g>
											</g>
										</g>
									</g>
								</g>
							</g>
						</g>
					</g>
				</g>
				<g>
					<g>
						<g>
							<g>
								<g>
									<g>
										<g>
											<g>
												<g>
													<path class="st2" d="M1478.3,1858.6c0.3,0.4,5.6-2.7,14.8-6.7c9-3.9,22.5-8.6,37.4-6.2c14.9,2.3,25.5,12.3,32.3,19.2
														c6.8,7.2,11,12.1,11.4,11.7c0.3-0.3-3.1-5.5-9.7-13.3c-3.4-3.8-7.5-8.2-13.1-12.2c-5.5-4-12.6-7.5-20.5-8.7
														c-16-2.4-30,3-38.9,7.4C1483,1854.6,1478.1,1858.3,1478.3,1858.6z"/>
												</g>
											</g>
										</g>
									</g>
								</g>
							</g>
						</g>
					</g>
				</g>
				<g class="st4">
					<g>
						<g>
							<g>
								<g>
									<g>
										<g>
											<g>
												<path d="M1509.3,1767.4c0,0,198,54.9,205.9,57.5c11.9,4.3,9.9,47.9-8.7,47.2c-8.7-0.3-152.1,5.4-170.1,4.3
													c-18.1-1.1-72.7-22.7-72.7-22.7L1509.3,1767.4z"/>
											</g>
										</g>
									</g>
								</g>
							</g>
						</g>
					</g>
				</g>
			</g>
			<g>
				<g>
					<g>
						<g>
							<g>
								<g>
									<g>
										<path class="st2" d="M1289.4,1540.1l-42.7,87.9c0,0-228.4-69.5-286.1-66.3c-57.5,3.2-104.8,26.3-116,73.1
											s-12.7,111.3,54.5,156.1s400.9,69.5,400.9,69.5h132.1l215.9-284.6l-34.7-28.4L1289.4,1540.1z"/>
									</g>
								</g>
							</g>
						</g>
					</g>
					<g>
						<g>
							<g>
								<g>
									<g>
										<g>
											<path class="st5" d="M1361.2,1732.7c0,0.1-1.5,0.1-4.3-0.1s-7-0.3-12.3-0.9c-10.7-1.1-26.3-3.9-44.8-9.3
												s-40-13.8-63.2-24.7c-23.1-10.9-47.7-24.4-73.6-38.2c-25.9-13.9-51-26.3-74.6-35.8c-23.6-9.4-45.6-16-64.5-19.3
												c-18.9-3.5-34.5-4.3-45.2-3.9c-5.4-0.1-9.5,0.4-12.3,0.4c-2.8,0.1-4.3,0.1-4.3,0.1c0-0.1,1.5-0.3,4.3-0.7
												c2.8-0.3,7-0.9,12.3-0.9c10.7-0.7,26.6-0.1,45.6,3.1c19.2,3.1,41.3,9.4,65.2,18.8c23.7,9.4,49.1,21.7,75,35.7
												c25.9,13.9,50.4,27.4,73.4,38.4c22.9,11,44.3,19.6,62.6,25.1s33.7,8.7,44.4,10.1c5.4,0.9,9.4,1.1,12.3,1.5
												C1359.8,1732.4,1361.2,1732.5,1361.2,1732.7z"/>
										</g>
									</g>
								</g>
							</g>
						</g>
					</g>
					<g>
						<g>
							<g>
								<g>
									<g>
										<path class="st2" d="M1517.4,1836.9c42.5-16.6,275.9-90.9,358.5-186.4c22.9-26.4,27.1-54.2,22.5-79.3
											c-11.5-63.7-70-106.2-130.9-82.1c-8.7,3.5-28.4,11.1-36.7,15.6c-22.7,12.2-389.8,245-389.8,245s64,124.7,62.4,129.6
											L1517.4,1836.9z"/>
									</g>
								</g>
							</g>
						</g>
					</g>
					<g>
						<g>
							<g>
								<g>
									<g>
										<g>
											<path class="st5" d="M1632.3,1560.2c0,0-0.3,0.3-0.9,0.8c-0.9,0.5-1.9,1.2-3.1,2.1c-3,1.9-6.8,4.6-12.1,7.8
												c-10.7,6.8-25.8,16.5-44.4,28.3c-37.8,23.7-89.6,56.2-146.9,92.3c-28.3,17.7-55.3,34.5-79.7,49.8l0.5-1.6
												c17,40.9,31.5,75.8,41.8,100.6c5,12.2,8.9,21.9,11.8,29c1.2,3.2,2.3,5.8,3,7.6c0.7,1.7,0.9,2.7,0.9,2.7
												c-0.1,0-0.5-0.9-1.3-2.5c-0.9-1.9-2-4.4-3.5-7.5c-3-6.8-7.2-16.6-12.5-28.6c-10.6-24.8-25.3-59.4-42.8-100.2l-0.4-0.9
												l0.9-0.5c24.4-15.3,51.4-32.2,79.7-49.9c57.4-35.7,109.4-68,147.3-91.6c18.8-11.4,34.1-20.9,44.8-27.5
												c5.1-3.1,9.3-5.5,12.2-7.4c1.3-0.8,2.3-1.3,3.2-1.9C1631.9,1560.2,1632.3,1560,1632.3,1560.2z"/>
										</g>
									</g>
								</g>
							</g>
						</g>
					</g>
					<g>
						<g>
							<g>
								<g>
									<g>
										<g>
											<path class="st5" d="M1309.9,1670.2c-0.1,0.3-4.3-0.9-10.9-4.2c-6.4-3-15.2-7.9-24-14.4c-8.7-6.4-16.1-13.3-20.9-18.5
												s-7.5-8.9-7.1-9.1c0.7-0.5,12.3,12.6,29.8,25.3C1294.2,1662.2,1310.3,1669.5,1309.9,1670.2z"/>
										</g>
									</g>
								</g>
							</g>
						</g>
					</g>
					<g>
						<g>
							<g>
								<g>
									<g>
										<g>
											<path class="st5" d="M1437,1566.7c0.4,0,0.4,5.5,0.5,14.6s0.4,21.5,1.6,35.1c1.2,13.7,3.1,25.9,4.6,34.7
												c1.5,8.9,2.4,14.4,2.1,14.5s-2-5.2-4.2-14.1c-2-8.7-4.3-21.2-5.5-34.9c-1.2-13.8-1.3-26.3-0.9-35.4
												C1435.7,1572.2,1436.6,1566.7,1437,1566.7z"/>
										</g>
									</g>
								</g>
							</g>
						</g>
					</g>
					<g>
						<g>
							<g>
								<g>
									<g>
										<g>
											<path class="st5" d="M1464.2,1563.7c0-0.1,1.1-0.3,3,0.4c1.7,0.7,4.3,2.3,6.2,5.1c1.7,2.8,3.2,7.1,1.7,11.8
												c-1.3,4.7-6.4,8.2-11.9,8.3c-5.4,0.3-10.7-2.5-12.6-7.4c-1.6-4.6-0.3-9,1.6-11.8c2-3,4.6-4.3,6.3-4.8c1.9-0.4,3-0.1,3,0
												c0.3,0.4-4.4,0.4-7.5,5.8c-1.5,2.5-2.3,6.3-0.9,9.7c1.3,3.5,5.5,5.6,9.9,5.5c4.4-0.3,8.3-2.8,9.4-6.3
												c1.3-3.6,0.4-7.2-0.9-9.9C1468.5,1564.7,1464,1564.2,1464.2,1563.7z"/>
										</g>
									</g>
								</g>
							</g>
						</g>
					</g>
					<g>
						<g>
							<g>
								<g>
									<g>
										<g>
											<path class="st5" d="M1351.4,1554.4c0.1-0.1,0.9,1.5,2,4.3s1.9,7.4,1.9,12.9s-1.2,12.2-4.3,18.9
												c-3,6.7-8.2,13.4-15.3,18.4c-7.2,4.8-15.3,6.8-22.7,7.2c-7.4,0.3-13.9-1.1-19.2-3.2c-5.1-2.1-8.9-4.6-11.3-6.7
												c-2.3-2-3.4-3.4-3.2-3.5c0.3-0.4,5.1,4.7,15.3,8.2c5,1.7,11.4,3,18.4,2.4c7-0.4,14.6-2.5,21.2-7
												c6.6-4.6,11.4-10.7,14.5-17c3-6.3,4.3-12.6,4.7-17.8C1353.9,1560.8,1350.8,1554.5,1351.4,1554.4z"/>
										</g>
									</g>
								</g>
							</g>
						</g>
					</g>
					<g>
						<g>
							<g>
								<g>
									<g>
										<g>
											<path class="st5" d="M1569.1,1598c0,0.3-3.5,0.5-8.7-1.2c-5.1-1.6-12.1-5.9-16.6-13c-4.7-7.1-5.8-15.2-5.2-20.5
												c0.4-5.5,2.1-8.6,2.3-8.4c0.4,0.1-0.4,3.4-0.3,8.4c0,5.1,1.3,12.3,5.5,18.9c4.3,6.6,10.3,10.7,15,12.6
												C1565.9,1596.9,1569.3,1597.5,1569.1,1598z"/>
										</g>
									</g>
								</g>
							</g>
						</g>
					</g>
				</g>
				<g>
					<g>
						<g>
							<g>
								<path class="st5" d="M1683.3,1772.5c0,0,0.4-0.3,1.5-0.8c0.9-0.4,2.4-1.2,4.3-2c3.8-1.7,9.3-4.4,16.2-7.8
									c13.9-6.8,34.3-16.6,58.9-29.9c24.5-13.3,53.4-30,81.3-54.1c13.8-12.1,27.4-26,38.9-42.4c11-16.6,15.7-37.8,14.1-58.7
									c-0.9-10.5-3.6-20.7-7.8-30c-2.1-4.7-4.7-9.1-7.5-13.3c-2.8-4.2-6.2-7.9-9.5-11.5c-6.8-7.2-14.5-13.5-21.9-19.7
									s-15-11.8-23.7-14.2c-8.7-2.5-17.8-3-26.4-3s-17.2,1.1-25.1,2.8c-16,3.2-30,9.4-42.4,16c-24.4,13.4-44,24.4-57.7,32.1
									c-6.8,3.6-12.1,6.7-15.8,8.7c-1.7,0.9-3.1,1.6-4.2,2.3c-0.9,0.4-1.5,0.8-1.5,0.7c0,0,0.4-0.3,1.3-0.9c0.9-0.5,2.3-1.3,4-2.3
									c3.6-2.1,8.9-5.1,15.6-9c13.5-7.6,33-19,57.5-32.6c12.2-6.7,26.4-13,42.5-16.4c8.2-1.6,16.6-2.7,25.3-3
									c8.7-0.1,17.8,0.3,27,3c9.1,2.5,17.2,8.3,24.4,14.6c7.5,6.2,15,12.6,22,19.9c3.5,3.6,6.8,7.5,9.8,11.8s5.5,8.7,7.6,13.5
									c4.3,9.5,7,20,7.9,30.7c1.6,21.3-3.1,42.9-14.5,60c-11.7,16.6-25.3,30.4-39.3,42.5c-28.2,24.1-57.1,40.8-81.7,53.9
									c-24.7,13.1-45.1,22.8-59.1,29.4c-7,3.2-12.6,5.6-16.4,7.5c-1.7,0.8-3.2,1.5-4.3,1.9
									C1683.8,1772.2,1683.3,1772.5,1683.3,1772.5z"/>
							</g>
						</g>
					</g>
				</g>
			</g>
			<g>
				<g>
					<g>
						<g>
							<g>
								<g>
									<g>
										<g>
											<g>
												<g>
													<path class="st3" d="M1356.4,1768.6c0,0-198.5,52.3-206.6,55c-12.1,4-10.6,47.7,8,47.3c8.7-0.3,152,7.2,170.1,6.3
														s67.1-19.6,67.1-19.6L1356.4,1768.6z"/>
												</g>
											</g>
										</g>
									</g>
								</g>
							</g>
						</g>
					</g>
					<g>
						<g>
							<g>
								<g>
									<g>
										<g>
											<g>
												<g>
													<g>
														<path class="st2" d="M1273,1843c-0.9,0.1-2.3-10.3-8.4-21.3c-6.2-11.1-14.4-17.6-13.8-18.4
															c0.3-0.8,10.1,4.8,16.6,16.8C1274.2,1831.9,1273.9,1843.2,1273,1843z"/>
													</g>
												</g>
											</g>
										</g>
									</g>
								</g>
							</g>
						</g>
					</g>
					<g>
						<g>
							<g>
								<g>
									<g>
										<g>
											<g>
												<g>
													<g>
														<path class="st2" d="M1293.8,1834.1c-0.9,0.1-3-9.3-8-19.7c-5-10.5-11.3-17.7-10.6-18.4c0.5-0.7,8.2,5.9,13.5,16.9
															C1294.2,1824,1294.6,1833.9,1293.8,1834.1z"/>
													</g>
												</g>
											</g>
										</g>
									</g>
								</g>
							</g>
						</g>
					</g>
					<g>
						<g>
							<g>
								<g>
									<g>
										<g>
											<g>
												<g>
													<g>
														<path class="st2" d="M1313.2,1829.1c-0.9-0.1-0.1-10.1-4.3-21.1c-4.2-11.1-11.3-17.8-10.6-18.6
															c0.4-0.8,9.3,5.5,13.7,17.4C1316.4,1818.8,1314,1829.4,1313.2,1829.1z"/>
													</g>
												</g>
											</g>
										</g>
									</g>
								</g>
							</g>
						</g>
					</g>
					<g>
						<g>
							<g>
								<g>
									<g>
										<g>
											<g>
												<g>
													<g>
														<path class="st2" d="M1310,1803.5c-0.3,0.1-2-5.5-1.9-14.8c0.1-4.7,0.7-10.1,2.3-16.1c0.8-3,1.7-6,3.1-9.1
															c0.7-1.6,1.5-3.4,3.2-4.8c1.9-1.6,5.2-1.2,6.8,0.4c1.7,1.6,2.3,3.9,2.5,5.6c0.3,1.7,0.3,3.6,0.3,5.2
															c-0.1,3.5-0.5,6.7-1.3,9.7c-1.6,6-4,11.1-6.2,15c-4.7,8-8.7,12.1-9,11.8c-0.4-0.3,3-4.8,7-12.9c2-4,4.2-8.9,5.4-14.6
															c0.7-3,0.9-5.9,1.1-9c0-3,0-6.8-1.6-8.3c-0.9-0.8-1.7-0.9-2.7-0.3c-0.9,0.7-1.6,2-2.3,3.5c-1.2,3-2.3,5.9-3.1,8.7
															c-1.6,5.6-2.4,11-2.8,15.4C1309.7,1797.8,1310.5,1803.3,1310,1803.5z"/>
													</g>
												</g>
											</g>
										</g>
									</g>
								</g>
							</g>
						</g>
					</g>
					<g>
						<g>
							<g>
								<g>
									<g>
										<g>
											<g>
												<g>
													<g>
														<path class="st2" d="M1310.3,1801.5c-0.1-0.3,4.7-2,12.7-1.9c4,0,8.9,0.5,13.9,1.9c2.5,0.8,5.4,1.5,8,3.1
															c2.7,1.5,5.5,5.2,4.3,9.1c-0.9,3.6-4.2,6.2-7.2,7c-3.1,0.9-6.2,0.4-8.9-0.1c-5.5-1.3-9.5-4-12.7-6.4
															c-6.3-5-9.4-8.9-9.1-9.3s4.2,3,10.5,7.2c3.2,2.1,7.2,4.4,12.1,5.5c2.4,0.4,5,0.7,7.4,0c2.3-0.7,4.3-2.3,4.8-4.7
															c0.5-2.3-0.7-4.3-3-5.5c-2.1-1.3-4.7-2.1-7.1-3c-4.8-1.5-9.4-2.1-13.3-2.4C1315.2,1801.3,1310.4,1802,1310.3,1801.5z"
															/>
													</g>
												</g>
											</g>
										</g>
									</g>
								</g>
							</g>
						</g>
					</g>
					<g>
						<g>
							<g>
								<g>
									<g>
										<g>
											<g>
												<g>
													<g>
														<path class="st2" d="M1242.5,1844.9c-0.9-0.1,0.1-8.6-3.6-17.8c-3.6-9.4-10.1-14.9-9.4-15.6c0.3-0.8,8.6,4,12.6,14.5
															C1246.2,1836.1,1243.5,1845.2,1242.5,1844.9z"/>
													</g>
												</g>
											</g>
										</g>
									</g>
								</g>
							</g>
						</g>
					</g>
					<g>
						<g>
							<g>
								<g>
									<g>
										<g>
											<g>
												<g>
													<g>
														<path class="st2" d="M1380.7,1855.8c0.1,0.3-2.7,1.5-7.6,3.6c-5.1,1.9-12.6,4.4-22.1,6.6c-19,4.6-46,6.8-75.6,6.2
															c-29.6-0.7-56.3-2.3-75.8-3.4c-9.1-0.5-16.9-1.1-22.9-1.5c-5.5-0.4-8.4-0.8-8.3-0.9c0-0.3,3-0.3,8.4-0.3
															c6.2,0.1,13.8,0.3,23.1,0.4c20,0.7,46.5,1.5,75.8,2.4c29.5,0.7,56.2-1.3,75.1-5.2
															C1369.3,1859.9,1380.4,1855.1,1380.7,1855.8z"/>
													</g>
												</g>
											</g>
										</g>
									</g>
								</g>
							</g>
						</g>
					</g>
					<g>
						<g>
							<g>
								<g>
									<g>
										<g>
											<g>
												<g>
													<g>
														<path class="st2" d="M1386.5,1860.3c-0.3,0.4-5.6-2.8-14.8-6.8c-9-4-22.4-8.7-37.4-6.7c-14.9,2.1-25.6,12.1-32.6,18.9
															c-7,7.1-11.1,11.9-11.5,11.5c-0.3-0.3,3.1-5.5,9.9-13.1c3.4-3.8,7.6-8.2,13.3-12.1c5.5-4,12.7-7.4,20.5-8.4
															c16-2.3,30,3.2,38.9,7.9C1381.6,1856.2,1386.6,1859.9,1386.5,1860.3z"/>
													</g>
												</g>
											</g>
										</g>
									</g>
								</g>
							</g>
						</g>
					</g>
				</g>
				<g>
					<g>
						<g>
							<g>
								<g>
									<g>
										<path class="st2" d="M1187.8,1866.4c-0.3-0.3,1.3-3,3-7.5c1.6-4.6,3-11.4,1.6-18.5c-1.2-7.2-4.8-13.3-7.8-17
											c-3.1-3.8-5.5-5.6-5.4-6c0.1-0.3,3.1,1.1,6.7,4.8c3.6,3.6,7.6,9.9,9,17.8c1.3,7.9-0.3,15.2-2.5,19.9
											C1190.4,1864.4,1188,1866.6,1187.8,1866.4z"/>
									</g>
								</g>
							</g>
						</g>
					</g>
				</g>
			</g>
		</g>
		<g>
			<g>
				<g>
					<g>
						<g>
							<path class="st3" d="M1347.3,997.3l-102.1,28.6l33.3,317.6c0,0-19.2,113.5-19.2,143.2c0,38.6,30.2,53.2,30.2,53.2l326.2,9.9
								l16.6-14.5c8.6-10.1,12.6-23.2,10.9-36.3l-60.6-484.7l-113.5-24.7L1347.3,997.3z"/>
						</g>
					</g>
				</g>
				<g>
					<g>
						<g>
							<g>
								<path class="st2" d="M1278.8,1343.2c-0.1,0-0.3-0.8-0.5-2.4c-0.3-1.7-0.8-4.2-1.3-7c-1.1-6.2-2.8-15-4.7-25.6
									c-3.8-21.9-9-51.6-14.8-84.8c-5.5-33-10.6-62.9-14.2-84.8c-1.6-10.7-3.1-19.4-4.2-25.6c-0.4-3-0.8-5.2-0.9-7
									c-0.3-1.6-0.3-2.4-0.3-2.4c0.1,0,0.3,0.8,0.5,2.4c0.3,1.7,0.8,4.2,1.3,7c1.1,6.2,2.8,15,4.7,25.6c3.8,21.9,9,51.6,14.8,84.8
									c5.5,33,10.6,62.9,14.2,84.8c1.6,10.7,3.1,19.4,4.2,25.6c0.4,3,0.8,5.2,0.9,7C1278.8,1342.4,1278.8,1343.2,1278.8,1343.2z"
									/>
							</g>
						</g>
					</g>
				</g>
				<g>
					<g>
						<g>
							<g>
								<path class="st2" d="M1483.4,995.4c0.1,0.1-1.6,1.5-4.7,3.8c-1.6,1.1-3.6,2.3-6,3.8c-2.4,1.2-5.1,3-8.3,4.2
									c-6.3,2.8-14.2,5.5-23.1,7.2c-9,1.7-19,2.8-29.5,3.1c-10.6,0.3-20.5-0.3-29.6-0.9c-9.1-0.7-17.2-1.6-24-3.1
									s-12.1-3.6-15.6-5.2c-1.7-0.9-3-1.6-3.9-2.1s-1.3-0.9-1.2-0.9c0.1-0.1,2,0.9,5.5,2.3c3.6,1.5,8.7,3.2,15.4,4.6
									s14.8,2.1,23.9,2.7c9,0.5,19,0.9,29.5,0.8c10.5-0.3,20.4-1.2,29.2-3c8.9-1.6,16.6-4.2,23.1-6.8
									C1476.5,1000.7,1483,995,1483.4,995.4z"/>
							</g>
						</g>
					</g>
				</g>
				<g>
					<g>
						<g>
							<g>
								<path class="st2" d="M1588.8,1485.5c0,0.1-0.8,0.3-2.3,0.4c-1.6,0.3-3.8,0.5-6.4,0.9c-2.8,0.4-6.2,0.9-10.2,1.2
									c-4,0.3-8.6,0.9-13.5,1.1c-10.1,0.7-22,0.9-35.4,0.9c-13.3-0.3-28-1.2-43.2-3c-15.3-1.9-29.6-4.4-42.7-7.4
									c-13-3-24.5-6.2-34.2-9.1c-4.8-1.5-9.1-3-12.9-4.3c-3.8-1.2-7-2.5-9.7-3.6c-2.4-0.9-4.4-1.7-6-2.4c-1.3-0.5-2.1-0.9-2-0.9
									c0-0.1,0.8,0.1,2.3,0.5c1.6,0.5,3.6,1.2,6.2,2.1c2.7,0.9,5.9,2.1,9.7,3.2c3.8,1.2,8.2,2.7,12.9,4c9.7,3,21.2,5.9,34.1,8.7
									c13,2.8,27.4,5.2,42.5,7.1c15.3,1.7,29.8,2.7,43.1,3.1c13.3,0.3,25.2,0.1,35.3-0.4c5-0.1,9.5-0.5,13.5-0.9
									c4-0.3,7.5-0.5,10.2-0.9c2.7-0.3,4.8-0.4,6.4-0.5C1588,1485.5,1588.8,1485.3,1588.8,1485.5z"/>
							</g>
						</g>
					</g>
				</g>
				<g>
					<g>
						<g>
							<g>
								<path class="st2" d="M1626.7,1213.1c-0.1,0-0.7-1.6-1.6-4.4c-0.9-3-2.1-7-3.5-12.2c-2.8-10.3-6.4-24.8-10.1-40.8
									c-3.6-16-6.3-30.6-8.2-41.3c-0.9-5.4-1.6-9.5-2-12.6c-0.4-3-0.5-4.7-0.4-4.7s0.5,1.6,1.2,4.6c0.7,3.4,1.6,7.5,2.7,12.5
									c2.3,10.6,5.2,25.1,8.7,41c3.6,16,7,30.4,9.4,40.9c1.1,4.8,2.1,9.1,3,12.3C1626.5,1211.3,1626.8,1213.1,1626.7,1213.1z"/>
							</g>
						</g>
					</g>
				</g>
			</g>
			<g>
				<g>
					<g class="st4">
						<g>
							<g>
								<g>
									<path d="M1382.8,1011.6c4.2,14.2,0.3,34.9,2.3,47.6c8,51,11.9,102.6,8.2,154c-0.3,2.8-0.4,5.6,0.5,8.3
										c0.9,2.4,2.5,4.4,4.2,6.4c10.3,13.7,13,31.9,10.9,49c-2.1,17-8.4,33.1-14.8,49.1c-0.3-13.7,0.3-34.2,1.5-47.9
										c0.3-2.8,1.6-0.9,1.6-3.6c0.4-16.5-2.3-31.7-13.9-43.5c-2.3-2.3-5-4.4-6.6-7.4c-1.5-2.7-1.9-5.8-2.3-8.7
										c-7.1-57.5-11.9-115.2-14.6-173c-0.1-3.4-0.3-6.8,1.9-9.4c1.6-2,4.3-3,6.3-4.3c4.4-3,7.2-8.2,12.1-10.3"/>
								</g>
							</g>
						</g>
					</g>
					<g>
						<g>
							<g>
								<path class="st3" d="M1245.1,1025.8c0,0-93.2,22-70.5,161.6c7.9,49.1,23.2,122.1,55.5,198.5c15.3,35.9,49.9,60.8,88.7,55.5
									c16.9-2.3,33.7,0.4,45.1-6.3c17.2-10.3,24.7-45.3,27.9-83c2.3-25.6,1.3-52.4,4.7-74.4c5.5-35.8-10.9-52.7-31.9-56.9
									l-82.4-16.5l-4.8,43.6L1245.1,1025.8z"/>
							</g>
						</g>
					</g>
					<g>
						<g>
							<g>
								<g>
									<path class="st2" d="M1310.8,1304c0.3-0.3,1.6,1.6,4.8,4.2c3.1,2.3,8.3,5.1,15.3,6.2s15.6-0.3,24.4-3.5
										c8.7-3.4,18.5-7.8,26.3-15.3s12.3-17.2,13.7-26.3c1.5-9.3-0.3-17.8-3-24.4c-5.5-13.3-13.7-18.5-13.1-18.9
										c0.1-0.1,2.1,0.9,5.1,3.8c3,2.8,7,7.5,10.1,14.2s5.2,15.8,3.8,25.6c-1.3,9.8-6,20.4-14.5,28.3s-18.5,12.3-27.6,15.7
										c-9.3,3.2-18.4,4.3-25.8,3c-7.5-1.3-12.7-4.6-16-7.5C1311.7,1306.1,1310.7,1304,1310.8,1304z"/>
								</g>
							</g>
						</g>
					</g>
					<g>
						<g>
							<g>
								<g>
									<path class="st2" d="M1225.2,1373.7c0.3-0.1,1.7,4.4,5.5,11.9s10.3,18,21.2,28.6c10.7,10.5,26.3,20.5,45.6,25.2
										c19.2,4.8,42.1,4.3,63.2-4.4c10.6-4.3,14.4-16,18.5-25.8c3.6-10.1,6.2-20.4,7.9-30.2c3.4-19.7,4.2-38,5.2-53
										c1.1-14.8,2-27,2.7-35.9c0.3-3.9,0.7-7.1,0.9-9.8c0.3-2.3,0.4-3.5,0.5-3.5s0.1,1.2,0.1,3.5c-0.1,2.5-0.1,5.9-0.3,9.8
										c-0.4,9-0.9,21.2-1.6,36.1c-0.8,15.3-1.3,33.4-4.6,53.4c-1.6,10.1-4,20.5-7.8,30.8c-2,5.2-4.2,10.3-7,15.4
										s-7.5,9.8-13.1,12.1c-22,9.3-45.6,9.4-65.3,4.3c-19.9-5-35.7-15.7-46.5-26.4c-10.9-10.9-17.2-21.7-20.8-29.6
										c-1.7-3.9-3-7-3.6-9.3C1225.4,1374.9,1225.1,1373.7,1225.2,1373.7z"/>
								</g>
							</g>
						</g>
					</g>
					<g>
						<g>
							<g>
								<g>
									<path class="st2" d="M1256.2,1313.1c-0.4,0-0.3-6.4,0.3-16.8c0.5-10.3,1.6-24.5,2.8-40.4c0.7-7.9,1.2-15.3,2-22.3
										c0.9-6.8,3-13.3,6.3-17.6c3.5-4.3,7.5-6.3,10.6-6.8c3-0.5,4.7,0,4.7,0.1c0,0.3-1.6,0.1-4.3,1.1c-2.5,0.9-6.2,3-9,7.1
										c-6.2,8.2-5.4,23.1-7,38.6c-1.3,15.8-2.7,30-3.8,40.2C1257.6,1306.7,1256.6,1313.2,1256.2,1313.1z"/>
								</g>
							</g>
						</g>
					</g>
					<g>
						<g>
							<path class="st2" d="M1285.3,1164.6c-0.8-4.4-2.1-10.7-3.8-18.6c-3.4-15.8-8.2-37.4-13.8-61.4c-2.8-11.9-5.2-23.5-8.9-33.5
								c-3.6-10.2-8.3-18.9-13.7-25.1l-1.7,1.5c4.8,6.2,9.4,14.6,12.6,24.7c3.4,10.1,5.6,21.5,8.6,33.4
								c5.5,23.9,10.7,45.6,14.8,61.2c2,7.8,3.6,14.1,4.8,18.5c1.2,4.3,2,6.7,2.3,6.7C1286.5,1171.5,1286.1,1169.1,1285.3,1164.6z"
								/>
						</g>
					</g>
					<g class="st4">
						<g>
							<g>
								<g>
									<path d="M1286.1,1194.8c-7.5-0.3-14.8,3-21.1,7.1c-13.5,9.1-23.5,23.5-27.8,39.3s-3.4,32.9,2.1,48.4
										c1.6,4.8,5,10.2,10.1,10.1c6-0.3,8.4-7.6,9.3-13.7c2.3-16.5,4.6-32.9,6.8-49.4c0.8-5.5,1.6-11.4,4.3-16.2
										c2.8-4.8,7.9-8.9,13.5-8.7c0.5-5.9,0.9-11.7,1.6-17.6"/>
								</g>
							</g>
						</g>
					</g>
				</g>
			</g>
			<g>
				<g>
					<g>
						<path class="st3" d="M1841,1269.9c0,0,17.4-26.2,19.2-64.6c1.7-38.6-9.1-71.1-9.1-71.1l-99.1-30.7l-0.7,33L1841,1269.9z"/>
					</g>
				</g>
				<g>
					<g>
						<path class="st3" d="M1751.5,1136.5l-169-122.2v8.4l18.2,190.2c0,0,139.6,62.6,176.6,71.8c37,9.3,63.6-14.9,63.6-14.9
							L1751.5,1136.5z"/>
					</g>
				</g>
				<g>
					<g>
						<g>
							<path class="st2" d="M1801.6,1228.9c-0.1,0.1-1.5-0.5-3.8-2s-5.6-3.9-9.4-7.2c-7.5-6.7-16-17.8-22.5-31.5
								c-6.6-13.8-10.3-27-12.9-36.6c-1.2-4.8-2.1-8.7-2.8-11.4c-0.5-2.7-0.8-4.3-0.7-4.3c0.3-0.1,2.1,5.8,5.1,15.3
								c3,9.4,7,22.4,13.4,35.9c6.4,13.4,14.6,24.4,21.6,31.4C1796.6,1225.4,1802,1228.5,1801.6,1228.9z"/>
						</g>
					</g>
				</g>
				<g>
					<g>
						<g>
							<path class="st2" d="M1850.8,1158.1c0,0.3-1.6,0.3-4.3,0.1c-2.8-0.1-6.8-0.5-11.9-1.3c-9.9-1.6-23.6-5.1-37.6-11.5
								c-13.9-6.6-25.5-14.6-33-21.2c-3.8-3.4-6.8-6.2-8.7-8.2c-1.9-2.1-3-3.2-2.8-3.4c0.3-0.3,4.7,4.2,12.5,10.2
								c7.8,6.2,19.2,13.9,33,20.4c13.8,6.3,27,10.1,36.7,12.1C1844.5,1157.1,1850.8,1157.7,1850.8,1158.1z"/>
						</g>
					</g>
				</g>
				<g>
					<g>
						<g>
							<path class="st2" d="M1759.1,1213.1c-0.3,0.1-2.7-3.6-5.2-10.5c-2.5-6.8-4.8-16.6-5.6-27.6c-0.8-11-0.3-21.1,0.3-28.3
								c0.5-7.2,1.1-11.5,1.5-11.5s0.3,4.4,0.3,11.7c-0.1,7.2-0.3,17.2,0.4,28c0.8,10.9,2.7,20.5,4.8,27.4
								C1757.4,1208.8,1759.3,1212.8,1759.1,1213.1z"/>
						</g>
					</g>
				</g>
			</g>
			<g>
				<g>
					<g>
						<path class="st2" d="M1580,1087.4c0.1,0,0.8,1.7,1.7,5.2c0.9,3.4,2.3,8.2,3.9,14.4c3.1,12.1,7.1,29,11,47.7
							c3.9,18.8,7,35.8,9.1,48.2c0.9,6.2,1.7,11.3,2.3,14.6c0.5,3.4,0.7,5.5,0.4,5.5c-0.1,0-0.7-1.9-1.5-5.4
							c-0.8-3.9-1.7-8.7-3-14.6c-2.5-12.7-6-29.5-9.8-47.9c-4-18.5-7.5-35-10.3-47.7c-1.2-5.8-2.3-10.6-3.1-14.6
							C1580.3,1089.3,1579.9,1087.4,1580,1087.4z"/>
					</g>
				</g>
			</g>
		</g>
		<g>
			<g>
				<g>
					<g>
						<path class="st0" d="M1281.2,1221.6l20.7-229.1l68.5,27.1l8.7,233c0,0-22,33.3-59,19.6
							C1283.2,1258.7,1281.2,1221.6,1281.2,1221.6z"/>
					</g>
				</g>
			</g>
			<g>
				<g>
					<g>
						<polygon class="st2" points="1294.4,791.9 1422.7,904.8 1399.6,989.1 1390.2,991.9 1278.1,877.1 1285.2,794.7 						"/>
					</g>
				</g>
			</g>
			<g>
				<g>
					<g>
						<polygon class="st5" points="1285.2,794.7 1413.4,907.7 1390.2,991.9 1268.7,879.8 						"/>
					</g>
				</g>
			</g>
			<g>
				<g>
					<g>
						<path class="st0" d="M1373.3,1027.2c0,0,13.3-13.8,12.9-31.5c-0.3-17.2-5-58.9-5-58.9s22.3-46.9,21.7-53.1
							c-0.5-6.2-1.6-6.2-9.5-3.6c-8,2.5-32.9,45.2-32.9,45.2l-8.2-31.7c0,0,20.7-33.3,22.4-38c1.6-4.7,4.3-8.4-0.8-8.9
							s-44,37.2-44,37.2l3.1,34.7c0,0-0.8,2.8-6.3-2.1s-4.3-46.4-4.3-46.4s13.3-24.5,12.9-28.2c-0.3-3.6,2.4-7.5-0.3-13.4
							c-2.5-6-10.2,0.9-10.2,0.9l-25.8,33.8l-9.3-33.4c0,0,0.3-7.1-8.9-7.2l3.6,108.2l23.5,83.4L1373.3,1027.2z"/>
					</g>
				</g>
			</g>
			<g>
				<g>
					<g>
						<g>
							<path class="st1" d="M1379.2,1252.8c0,0-0.3-1.3-0.3-4.2c-0.1-3-0.3-6.8-0.7-11.9c-0.4-10.7-1.1-26-2-45.5
								c-1.6-39.4-3.8-95.8-6.6-163.9v-0.7l0.5-0.4c5.2-4.4,9.8-10.7,12.5-17.6c2.8-6.8,3.1-14.6,2.5-22.5c-0.8-16-2.8-32.3-5-49.2
								l-0.1-0.4l0.3-0.4c4.3-8.9,8.3-18.1,12.5-27.6c2-4.7,4-9.4,5.9-14.4c0.9-2.4,1.7-4.8,2.5-7.4l0.4-1.7
								c0.1-0.5,0.1-0.9,0.1-1.6c-0.1-1.2-0.3-2.5-0.7-3.2c0.3-0.8-3.4,0-5.5,0.8c-1.5,0.4-2,0.8-3,1.6c-0.9,0.8-1.9,1.6-2.8,2.7
								c-3.6,3.9-6.7,8.3-9.8,12.7c-6.2,9-12.1,18.5-17.7,28l-2,3.5l-0.9-3.9c-2.5-10.1-5.4-20.8-8.2-31.7l-0.3-0.7l0.3-0.5
								c3.4-5.5,6.8-11.3,10.5-17.2c4-6.8,8.3-13.7,11.5-20.4c0.7-1.9,1.6-3.8,2-5.4c0.3-0.9,0.1-1.2,0.1-1.1c0-0.1-0.9-0.4-1.6-0.3
								c-0.3,0-1.1,0.4-1.9,0.9c-0.8,0.4-1.6,0.9-2.3,1.6c-1.6,1.1-3.1,2.3-4.6,3.5c-11.9,9.8-23.1,20.4-33.9,30.7l0.4-1.3
								c0.9,11.8,2.1,23.3,3.1,34.7v0.3l-0.1,0.3c-0.5,1.6-2.1,2-3.1,1.9c-0.9-0.1-1.6-0.4-2.3-0.7c-1.2-0.7-2.3-1.5-3.1-2.3
								c-2.3-2.1-2.8-4.8-3.4-7.1c-0.9-4.7-1.3-9.4-1.6-13.9c-0.4-9.1-0.4-18.1-0.3-27v-0.3l0.3-0.3c4.6-8.7,9.3-17.2,12.5-25.8
								c0.1-0.5,0.3-1.1,0.3-1.3s0-1.3,0.1-1.9c0.1-1.3,0.4-2.4,0.7-3.6c0.4-2.3,0.4-4.2-0.3-6.2c-0.7-2.3-1.5-3.2-3.1-3
								c-1.7,0.3-3.6,1.6-5.2,3l0.3-0.3c-9,11.7-17.6,22.9-25.8,33.7l-1.6,2.3l-0.7-2.7c-3.1-11.5-6.2-22.7-9.1-33.5v-0.5v-0.3
								c0-1.7-0.9-3.6-2.3-4.6c-1.5-0.9-3.4-1.3-5.2-1.3l1.2-1.2c1.2,44,2.3,80.6,3.1,108.4v-0.3c5.1,19.9,9.1,35.4,11.9,45.9
								c1.2,5.1,2.3,9,3,11.9c0.7,2.7,0.9,4.2,0.9,4.2s-0.4-1.3-1.2-4c-0.8-2.8-1.9-6.7-3.4-11.8c-3-10.6-7.1-25.9-12.6-45.7v-0.1
								v-0.1c-0.9-27.6-2.3-64.2-4-108.2V821h1.3c2.3,0,4.6,0.3,6.7,1.7s3.5,3.9,3.5,6.7V829c3,10.7,6,21.7,9.3,33.4l-2.4-0.4
								c8.2-10.7,16.8-22,25.6-33.8l0.1-0.1l0.1-0.1c1.9-1.6,3.9-3,6.7-3.6c1.3-0.3,3.4,0,4.4,1.2c1.2,1.2,1.6,2.5,2,3.6
								c0.8,2.4,0.8,5.2,0.3,7.6c-0.3,1.2-0.4,2.3-0.5,3.4c-0.1,0.5,0,0.8,0,1.6c0,0.9-0.3,1.6-0.4,2.3c-3.5,9.3-8,17.6-12.6,26.4
								l0.3-0.7c-0.3,8.7-0.3,17.7,0.3,26.7c0.3,4.4,0.5,9,1.6,13.3c0.5,2.1,0.9,4.3,2.3,5.4c0.8,0.7,1.6,1.3,2.5,1.7
								c0.4,0.3,0.9,0.3,0.9,0.3h0.1l0.1,0.3v0.1l0,0h0.1l0.3,0.1l0,0c0.8,0.3-0.9-0.3-0.8-0.3v0.1v0.5c-0.9-11.4-2.1-23.1-3.1-34.7
								l-0.1-0.8l0.5-0.5c10.9-10.5,22-21.1,34.1-30.8c1.6-1.2,3.1-2.4,4.7-3.6c0.9-0.5,1.6-1.1,2.5-1.6c0.9-0.4,1.6-1.1,3.5-1.5
								c1.3,0,2.4,0,3.9,1.2c1.5,1.5,1.1,3.5,0.8,4.3c-0.7,2.3-1.5,3.8-2.1,5.6c-3.6,7.5-7.8,13.9-11.9,20.9
								c-3.6,5.9-7.2,11.8-10.5,17.2l0.3-1.2c2.8,10.9,5.5,21.7,8.2,31.7l-3-0.4c5.6-9.7,11.5-19.2,17.8-28.3
								c3.1-4.6,6.3-9,10.1-13.1c0.9-0.9,1.9-2,3.1-3c0.9-0.9,3-1.7,4.2-2.1c1.3-0.4,2.5-0.8,4.2-1.1c0.7-0.1,1.6-0.3,2.5-0.1
								s2.3,0.9,2.7,1.9c0.8,1.7,0.9,3.1,0.9,4.4c0,0.8-0.1,1.6-0.3,2.4l-0.5,2c-0.8,2.7-1.6,5.1-2.7,7.5c-1.9,4.8-3.9,9.7-6,14.5
								c-4.2,9.4-8.3,18.6-12.6,27.6l0.1-0.9c2.3,17,4.2,33.5,4.8,49.5c0.4,7.9,0.3,16.4-3,23.7c-3,7.4-7.5,13.7-13.3,18.6l0.5-1.1
								c2.3,68.1,4.2,124.5,5.4,164c0.5,19.6,0.9,34.9,1.2,45.5c0.1,5.1,0.3,9.1,0.3,11.9
								C1379.3,1251.4,1379.2,1252.8,1379.2,1252.8z"/>
						</g>
					</g>
				</g>
			</g>
			<g>
				<g>
					<g>
						<g>
							<path class="st1" d="M1304.6,922c-0.9,0.1-2.7-13.1-4-29.5c-1.3-16.5-1.6-29.8-0.7-29.9c0.9,0,2.7,13.3,4,29.5
								C1305.2,908.6,1305.4,922,1304.6,922z"/>
						</g>
					</g>
				</g>
			</g>
		</g>
	</g>
	<g>
		<g>
			<g>
				<g>
					<path class="st6" d="M1131.1,960.4l-73.4-148.1c40.6-88.3,58.2-188.6,45.9-292.1C1067.6,222.3,797.1,10,499.2,45.9
						C201.2,82-11.1,352.5,25,650.4c35.9,297.9,306.5,510.2,604.4,474.3c124.5-15,233.6-71.1,316.4-152.8l-0.1,0.3L1131.1,960.4z"/>
				</g>
			</g>
			<g>
				<g>
					<g>
						<path class="st2" d="M1131.1,960.4c-3.8,0.3-64.9,4.3-185.5,12.2l-0.9,0.1l0.5-0.9c0-0.1,0.1-0.3,0.1-0.3l0.9,0.7
							c-12.7,12.3-26.7,25.5-42.7,38c-7.8,6.6-16.4,12.6-24.9,18.9c-8.9,6-17.8,12.5-27.6,18.2c-38.4,24.1-84,45.5-136,60.6
							c-51.9,15.3-110.5,23.1-172.6,21.1c-62.1-2.3-127.6-15.8-191.1-42.9c-63.6-27-125.1-67.7-177.7-121.8
							C120.9,910.6,77.9,843,51,767.2C23.9,691.5,13.6,607,23.2,522.7c0.9-10.6,3-21.1,4.4-31.5c1.7-10.6,4.3-20.9,6.3-31.5
							c5.2-20.8,11-41.6,18.8-61.8c7.2-20.5,16.4-40.2,26-59.8c10.2-19.3,21.1-38.5,33.5-56.7c12.3-18.9,26.4-36.5,40.9-53.5
							l11.3-12.5l5.6-6.2l5.9-5.9l11.8-11.8l12.2-11.3c32.9-29.8,69.2-55,107.3-75.4c9.4-5.4,19.3-9.8,29-14.5
							c9.8-4.6,19.9-8.4,29.5-12.7c10.1-3.6,20-7.5,30.2-10.7c10.2-3,20.3-6.4,30.6-8.7C467.4,47.6,509,42,550,40.8
							c82.2-2.3,161.9,14.8,231.9,45.5c70.3,30.6,130.8,75.1,178.7,126.3c48,51.1,83.7,108.9,107,167c11.8,29,20.7,58.2,27.1,86.8
							c1.5,7.2,2.8,14.4,4.3,21.3c1.5,7,2.3,14.1,3.4,21.2c0.5,3.5,0.9,7,1.6,10.5c0.3,3.5,0.8,6.8,1.1,10.3
							c0.8,6.8,1.3,13.7,1.6,20.5c3.6,54.3-1.5,104.3-10.9,148.5c-4.8,22-10.6,42.5-17,61.4c-6.6,18.9-13.7,36.2-20.9,52.2v-0.4
							C1105.3,908.3,1129.5,957.2,1131.1,960.4c-1.6-3.2-25.9-52-73.8-147.9l-0.1-0.3l0.1-0.3c7.1-15.8,14.2-33.1,20.7-52
							c6.4-18.9,12.1-39.4,16.8-61.4c9.4-43.9,14.2-93.9,10.7-148.1c-0.4-6.8-0.9-13.5-1.7-20.5c-0.3-3.5-0.8-6.8-1.1-10.3
							c-0.5-3.5-0.9-6.8-1.6-10.5c-1.1-7-1.9-13.9-3.4-21.2c-1.5-7-2.8-14.1-4.3-21.3c-6.6-28.4-15.3-57.5-27.1-86.5
							c-23.3-57.9-58.9-115.3-106.9-166.3c-47.7-51-108.1-95.2-178.1-125.7c-69.9-30.4-149.1-47.6-231-45.2
							c-40.8,1.2-82.2,6.8-123,17.4C417.1,62.5,407.1,66,397,69c-10.1,3.1-20,7.1-30,10.6c-9.8,4.2-19.9,8-29.5,12.6
							c-9.7,4.7-19.4,9-29,14.5c-38.1,20.4-74.2,45.3-106.9,75.1l-12.2,11.1l-11.7,11.8l-5.9,5.9l-5.5,6.2L155,229.1
							c-14.4,17-28.3,34.5-40.6,53.2C102,300.5,91.2,319.7,81,338.8c-9.5,19.6-18.8,39.3-25.9,59.6c-7.6,20.1-13.4,40.9-18.6,61.6
							c-2.1,10.5-4.6,20.8-6.3,31.3c-1.6,10.5-3.6,20.9-4.4,31.5c-9.5,84,0.7,168.1,27.6,243.4c26.8,75.6,69.5,142.7,121.9,196.2
							c52.3,53.6,113.5,94.4,176.9,121.2c63.3,27,128.6,40.6,190.5,42.9c61.8,2.1,120.2-5.5,171.9-20.7
							c51.8-15,97.4-36.2,135.6-60.2c9.7-5.8,18.6-12.1,27.6-18.1c8.6-6.4,17.2-12.3,24.9-18.9c16-12.5,29.8-25.5,42.7-37.7l2.8-2.7
							l-2,3.4c0,0.1-0.1,0.3-0.1,0.3l-0.4-0.8C1066.2,964.4,1127.3,960.8,1131.1,960.4z"/>
					</g>
				</g>
			</g>
		</g>
	</g>
	<g>
		<g>
			<path class="st5" d="M145.5,1072l675.4-1.1c0,0-161.5,107-355.4,94.4C297,1154.2,145.5,1072,145.5,1072z"/>
		</g>
	</g>
	<g>
		<g>
			<g>
				<g>
					<path class="st6" d="M529.9,677.1l31.9,116.8l116.7-157.6L651,1049.4H484.5l-48.6,2.3c0,0,7.2-65.2,10.1-101.8
						c0.5-7,3-47.9,14.8-86.5C485.8,782.3,529.9,677.1,529.9,677.1z"/>
				</g>
			</g>
			<g>
				<g>
					<g>
						<path class="st2" d="M567.6,859.9c0.4,0.5-18.5,15.7-42,33.9c-23.6,18.1-43.2,32.5-43.5,31.9c-0.4-0.5,18.4-15.7,42-33.9
							C547.6,873.7,567.1,859.4,567.6,859.9z"/>
					</g>
				</g>
			</g>
		</g>
		<g>
			<g>
				<g>
					<polygon class="st3" points="857.6,620.2 766.8,576.5 731.3,534.3 680.8,586.6 547.5,1048.4 776.3,1048.4 805.6,969.1 
						857.6,663.2 					"/>
				</g>
			</g>
			<g>
				<g>
					<path class="st3" d="M449.3,1055.1l-6.2-97.9l276.4-46.9c0,0,47.2-228,76.3-265.6c26.8-34.5,61.8-22.5,61.8-22.5
						s31.5,21.6,24,104.3c-4,43.3-19.9,193.4-25.6,247.7c-1.3,13-5.6,25.5-12.6,36.6l0,0c-15.8,25.5-43.6,40.9-73.6,40.9
						L449.3,1055.1z"/>
				</g>
			</g>
			<g>
				<g>
					<g>
						<path class="st2" d="M764.7,967.1c-0.4,0-0.8-4.3-2.8-11s-5.9-15.7-12.7-23.7c-6.8-8.2-15-13.5-21.3-16.6
							c-6.2-3.1-10.6-4.2-10.5-4.7c0-0.3,4.6,0.3,11.1,3.1c6.6,2.8,15.3,8.2,22.4,16.6c7.1,8.4,11,17.8,12.6,24.9
							C765.3,962.6,765.1,967.1,764.7,967.1z"/>
					</g>
				</g>
			</g>
			<g class="st7">
				<g>
					<g>
						<path d="M759.7,583.2c-2.7,28.8-8.2,57.4-16.5,85.2c-6.8-2-13.9-4.2-20.8-6.2c8.6,12.2,9.5,28.4,6.2,42.9
							c-3.4,14.6-10.7,27.8-18,40.8c-34.3,61.8-68.8,123.5-103.1,185.4l103.9-236.1l-2.7-43.7l20-4.3L759.7,583.2z"/>
					</g>
				</g>
			</g>
			<g class="st7">
				<g>
					<g>
						<path d="M718.7,907.5c12.6-0.8,25.3,3,35.5,10.3c10.2,7.4,17.8,18.4,21.1,30.6c0.8,3,1.3,6.2,0.1,8.9
							c-1.1,2.8-4.4,4.8-7.2,3.6c-2.1-0.9-3.1-3.2-4-5.4c-9-20.5-26.8-37.3-48-44.8"/>
					</g>
				</g>
			</g>
			<g>
				<g>
					<g>
						<path class="st2" d="M608.3,929.1c-0.1,0,0.4-1.3,1.5-3.8c1.1-2.7,2.5-6.2,4.4-10.7c4.2-9.4,9.8-22.7,16.8-39
							c14.5-33.1,34.3-78.3,56.3-128.5c8-18.2,15.8-35.8,23.1-52.3l-0.1,0.5c-0.9-15.4-1.7-30.2-2.5-43.7v-0.9l0.9-0.3
							c7-1.5,13.7-3,20-4.2l-0.7,0.5c10.3-21.1,18.9-38.2,24.9-50.4c3-5.8,5.2-10.5,7-13.8c0.8-1.5,1.3-2.7,1.9-3.6
							c0.4-0.8,0.7-1.2,0.8-1.2c0,0-0.1,0.4-0.4,1.3c-0.4,0.9-0.9,2.3-1.6,3.6c-1.6,3.5-3.8,8.2-6.6,13.9
							c-5.9,12.3-14.1,29.6-24.1,50.8l-0.3,0.4l-0.4,0.1c-6.3,1.3-13,2.8-20,4.3l0.8-1.1c0.9,13.4,1.7,28.2,2.8,43.6v0.3l-0.1,0.3
							c-7.2,16.5-15,34.1-23.1,52.3c-22.3,50-42.4,95.2-57,128.2c-7.4,16.2-13.3,29.4-17.6,38.8c-2,4.4-3.6,7.9-4.8,10.5
							C608.9,927.8,608.4,929.1,608.3,929.1z"/>
					</g>
				</g>
			</g>
			<g>
				<g>
					<g>
						<path class="st2" d="M449.2,1051.8c0,0-0.1-0.5-0.3-1.6c-0.1-1.2-0.3-2.8-0.4-4.8c-0.3-4.3-0.8-10.6-1.3-18.5
							c-1.1-16.1-2.5-39.3-4.4-67.9v-0.8l0.8-0.1c51.9-9.5,122.5-22.4,199.8-36.7c25.6-4.7,50.4-9.1,73.8-13.3l-0.9,0.9
							c16.2-61.6,30.2-114.9,40.4-153.2c5.1-18.9,9.1-34.1,12.1-44.5c1.5-5.1,2.5-9,3.4-11.9c0.3-1.2,0.7-2.3,0.9-3.1
							c0.3-0.7,0.3-0.9,0.3-0.9s0,0.3-0.3,1.1s-0.4,1.9-0.7,3.1c-0.7,3-1.6,6.8-3,12.1c-2.7,10.6-6.6,25.8-11.4,44.8
							c-9.9,38.2-23.7,91.7-39.4,153.4l-0.3,0.8l-0.8,0.1c-23.2,4.3-48,8.7-73.8,13.4c-77.7,13.9-148.1,26.7-200,36.1l0.7-0.9
							c1.6,28.4,2.8,51.6,3.6,67.9c0.3,7.9,0.7,14.1,0.9,18.5c0.1,2,0.1,3.6,0.1,4.8C449.2,1051.3,449.2,1051.8,449.2,1051.8z"/>
					</g>
				</g>
			</g>
		</g>
		<g>
			<g>
				<g>
					<path class="st2" d="M843.5,612.6c0.1,0.4-4.7,1.1-11.7,3.8c-7,2.5-16.4,7.5-24.8,15.4c-8.3,7.9-13.9,16.8-17,23.7
						c-3.1,7-4.2,11.5-4.6,11.4c-0.1,0,0-1.2,0.3-3.4c0.3-2.1,1.2-5.1,2.5-8.7c2.7-7.2,8.2-16.6,16.9-24.8s18.5-13,25.9-15.3
						c3.6-1.1,6.8-1.7,8.9-2C842.3,612.5,843.5,612.5,843.5,612.6z"/>
				</g>
			</g>
		</g>
		<g>
			<g>
				<g>
					<g>
						<g>
							<g>
								<path class="st8" d="M321.1,508.6c8.2-15.2,4.6-76,17.2-73.9c16.1,2.8,1.2,66.8,0.3,72.7c-0.9,5.6,7.5,7.4,8,2
									c0.9-7.6,10.3-82.2,26.2-78.1c8.7,2.3,4.8,18.4,4.8,18.4s-13.7,72.3-6.2,74c7.6,1.7,13.3-40,16.6-55.1
									c3.2-14.6,12.6-20.8,16.2-13.1c5.2,11.3-4.8,47.6-7.9,62.2c-3,14.6-10.6,56.9,10.1,40.4c20.5-16.6,42.4-21.7,49.1-19
									s5.4,13.1-2.5,15.2c-6.3,1.6-16.2,7.6-23.3,12.6c-5.9,4-10.7,9.4-15.4,14.6c-3.5,3.6-9.5,11.4-14.6,22.8
									c-5.9,13.3-17.3,23.5-31.1,27.9l0,0L356.4,689l-77.5-16.6l17.2-60.2c6.3-39.6,2.8-92.7,3-117c0.1-38.6,5.1-38.9,9.5-38
									C318.3,459.6,313.1,523.4,321.1,508.6z"/>
							</g>
						</g>
					</g>
				</g>
			</g>
			<g>
				<g>
					<g>
						<g>
							<path class="st9" d="M318.8,560.4c-0.1,0.3,4.3,1.1,10.3,4.8c6,3.6,13.4,10.6,17.4,20.7c1.1,2.7,1.7,5.5,2.3,8.2l0.3,1.3
								l1.1-0.7c7.5-4.4,14.8-6.6,20.1-7.5c5.4-0.9,8.6-1.1,8.6-1.5c0-0.3-3.4-0.5-8.7,0.3c-5.5,0.7-13,2.7-20.8,7.1l1.3,0.7
								c-0.5-2.8-1.2-5.8-2.4-8.6c-2.1-5.2-5.2-9.8-8.6-13.3s-6.8-6.2-10.1-7.8c-3.1-1.7-6-2.5-7.9-3.2
								C320,560.5,318.8,560.3,318.8,560.4z"/>
						</g>
					</g>
				</g>
			</g>
			<g>
				<g>
					<g>
						<g>
							<path class="st9" d="M308.5,614.6c-0.3,0.4,7.4,5.5,18.1,8.7c10.7,3.4,19.9,3.6,19.9,3.1c0.1-0.5-8.9-1.6-19.3-4.8
								C316.8,618.4,308.9,614.2,308.5,614.6z"/>
						</g>
					</g>
				</g>
			</g>
		</g>
		<g>
			<g>
				<polygon class="st8" points="589.1,558.7 529.9,677.1 561.9,793.9 647,704.1 730.9,548.3 				"/>
			</g>
		</g>
		<g>
			<g>
				<g>
					<path class="st3" d="M533.4,569.7c0,0-84.2,29.9-84.2,35.4l0,0c-14.9,11.7-64.4,131.4-80.2,154l-45.1,66.4l0,0l0,0l38-147.3
						l-83-24.4c0,0-71,171.4-79.7,209.6c-8.7,38.1,1.3,68.4,1.3,68.4l0.4-0.4c6,18.5,17.7,33.3,31.1,42c35.3,22.5,68.1,26.8,101.7,2
						c19.2-14.1,40.9-31.1,60.8-47.1l5.2,123.8h45.9c0-7-1.5-91.7-1.5-91.7s9.8-32.1,13.9-61.2c4.4-29.4,72.8-221,72.8-221l53-102.2
						l1.2-37.8L533.4,569.7z"/>
				</g>
			</g>
			<g>
				<g>
					<g>
						<path class="st2" d="M399,1050.9c-0.1,0-0.3-1.3-0.4-3.9c-0.3-2.8-0.4-6.4-0.7-11.1c-0.5-9.9-1.2-23.7-2.1-41
							c-1.6-35-3.8-83.2-6.2-137.2v-0.1v-0.1c0.9-5.1,2-10.6,3.1-16.1c11.1-56.9,21.2-108.2,28.6-145.7c3.8-18.5,6.8-33.5,8.9-44
							c1.1-5,1.9-9,2.5-12.1c0.3-1.2,0.5-2.3,0.7-3.1c0.3-0.7,0.3-0.9,0.3-0.9s0,0.3-0.1,1.1c-0.1,0.9-0.3,1.9-0.4,3.1
							c-0.5,3-1.2,7-2.1,12.1c-2,10.7-4.8,25.6-8.2,44.3c-7.1,37.4-17,88.9-27.8,145.8c-1.1,5.5-2.1,11-3.1,16.1v-0.3
							c2.1,54.1,4,102.3,5.5,137.3c0.5,17.2,0.9,31.3,1.3,41c0.1,4.7,0.3,8.3,0.3,11.1C399.2,1049.6,399.2,1050.9,399,1050.9z"/>
					</g>
				</g>
			</g>
			<g>
				<g>
					<g>
						<path class="st2" d="M446.1,940.9c-0.1,0,0.1-1.3,0.4-3.9c0.4-2.8,0.9-6.4,1.6-11c1.6-9.8,3.9-23.6,6.6-40.6
							c5.9-34.5,13.9-81.5,22.7-133.6c5.9-34.1,11.5-66,16.2-93.2v-0.1v-0.1c11.7-26.4,21.5-48.6,28.3-64.4c3.5-7.5,6.2-13.5,8.2-18
							c0.9-1.9,1.6-3.5,2.3-4.7c0.5-1.1,0.8-1.6,0.9-1.6c0.1,0-0.1,0.5-0.5,1.6c-0.5,1.2-1.1,3-1.9,4.8c-1.9,4.4-4.3,10.6-7.5,18.2
							c-6.8,16-16.2,38.1-27.6,64.6l0.1-0.3c-4.7,27.2-10.1,59.3-16,93.3c-9.1,52-17.3,99.1-23.5,133.6c-3.1,16.9-5.5,30.7-7.4,40.5
							c-0.9,4.6-1.6,8.2-2.1,11C446.5,939.7,446.1,941.1,446.1,940.9z"/>
					</g>
				</g>
			</g>
			<g>
				<g>
					<g>
						<path class="st2" d="M284.9,927.2c-0.3-0.3,3.4-5.5,8.3-14.1c5.1-8.7,11.4-21.2,16.9-35.7s9.3-27.9,11.5-37.8
							c2.3-9.9,3.5-16,3.8-16c0.1,0,0.1,1.6-0.3,4.4c-0.3,3-0.9,6.8-1.9,11.9c-1.9,10.1-5.5,23.7-11,38.4
							c-5.5,14.6-12.2,27.1-17.7,35.7c-2.8,4.3-5.1,7.6-6.8,9.9C286,926.2,284.9,927.4,284.9,927.2z"/>
					</g>
				</g>
			</g>
			<g class="st7">
				<g>
					<g>
						<path d="M291.2,920.4c-3.1,0.3-4.8,4.3-3.6,7.2c1.3,3,4.8,4.2,8,3.6s5.9-2.3,8.2-4.4c7.1-6.6,11.4-15.7,14.4-25.1
							c7.1-22.5,7.5-46.5,7.8-70.1c-6.6,30.8-18.4,60.4-34.5,87.4"/>
					</g>
				</g>
			</g>
			<g class="st7">
				<g>
					<g>
						<path d="M393.4,931.4c-14.2-22.7-18.8-49.1-17-75.8c2.5-36.1,20-68.9,33-102.5c-7.5,35.4-11.8,70.5-18.5,104.3
							c0,0,3.6,50.4,3.6,73"/>
					</g>
				</g>
			</g>
			<g class="st7">
				<g>
					<g>
						<path d="M451.5,908.9c3.6-53.8,7.4-107.8,16.9-160.9s28-108.2,54.3-155.3c-6.8,21.3-27.6,66.1-27.6,66.1
							s-30.2,159.1-43.3,239.1"/>
					</g>
				</g>
			</g>
		</g>
		<g>
			<g>
				<g>
					<g>
						<path class="st8" d="M444.6,970.7l7.5,83.6l-39.4-0.1c-0.9,0-17.2-0.3-34.9-0.5c-13,1.6-33.8,1.7-40,1.1
							c-1.1-0.1-1.7-0.3-1.9-0.4c0,0-3-0.3-6.2-1.5c-0.1,0-0.3,0-0.3,0v-0.1c-3.6-1.3-7.2-3.6-6.7-7.5c1.7-12.1,8.9-12.9,8.9-12.9
							s1.3-0.1,3.6-0.3l0.3-0.9c-5.5,0-10.1-0.1-12.3-0.4c-1.1-0.1-1.7-0.3-1.9-0.4c0,0-13.9-1.6-12.9-9c1.7-12.1,8.9-12.9,8.9-12.9
							s4.8-0.3,11.4-0.8c-5.5,0-10.3-0.1-12.7-0.3c-1.1-0.1-1.7-0.3-1.9-0.4c0,0-13.9-1.6-12.9-9c1.7-12.1,8.9-12.9,8.9-12.9
							s3.9-0.3,9.5-0.7c-4.6,0-8.2-0.1-10.3-0.3c-1.1-0.1-1.7-0.3-1.9-0.4c0,0-13.9-1.6-12.9-9c1.7-12.1,8.9-12.9,8.9-12.9
							s22-1.6,37.2-2.3c0,0,17.2-15.4,23.9-14.8c10.1,1.1,68.7,22.7,68.7,22.7L444.6,970.7z"/>
					</g>
				</g>
			</g>
			<g>
				<g>
					<g>
						<g>
							<g>
								<g>
									<g>
										<g>
											<g>
												<g>
													<g>
														<path class="st9" d="M370.7,1029.8c-0.1,0.7-8.7,1.6-19.6,1.9s-19.3,0.1-19.3-0.7c0.1-0.7,8.7-1.6,19.6-1.9
															C362.3,1028.9,370.7,1029.2,370.7,1029.8z"/>
													</g>
												</g>
											</g>
										</g>
									</g>
								</g>
							</g>
							<g>
								<g>
									<g>
										<g>
											<g>
												<g>
													<g>
														<path class="st9" d="M370.7,1006.1c0,0.7-12.5,1.6-27.8,2.3c-15.3,0.5-27.9,0.4-27.9-0.3s12.5-1.6,27.8-2.3
															C358.4,1005.2,370.7,1005.4,370.7,1006.1z"/>
													</g>
												</g>
											</g>
										</g>
									</g>
								</g>
							</g>
							<g class="st10">
								<g>
									<g>
										<g>
											<g>
												<g>
													<g>
														<path class="st9" d="M368.7,982c0,0.7-12.5,1.6-27.8,2.3c-15.3,0.5-27.8,0.4-27.9-0.3c0-0.7,12.5-1.6,27.8-2.3
															C356.4,981.2,368.7,981.3,368.7,982z"/>
													</g>
												</g>
											</g>
										</g>
									</g>
								</g>
							</g>
						</g>
					</g>
				</g>
			</g>
			<g>
				<g>
					<g>
						<g>
							<path class="st9" d="M334.4,959.4c0,0.3,3.4,0.4,8.9,0.7c6.2,0.3,13.4,0.4,21.3,0.7s15.2,0.5,21.3,0.8
								c5.5,0.3,8.9,0.3,8.9-0.1c0-0.3-3.4-0.8-8.7-1.3c-5.5-0.5-13-1.1-21.3-1.3c-8.3-0.3-16-0.3-21.5-0.1
								C337.6,958.9,334.4,959.2,334.4,959.4z"/>
						</g>
					</g>
				</g>
			</g>
		</g>
		<g>
			<g>
				<g>
					<path class="st2" d="M769.5,279.3c9.9-24.1,41.3-35,65.7-26.2c24.4,9,40.8,34.1,43.7,60c1.5,12.7-0.1,26.3-7.5,36.7
						c-7.6,11.1-20.9,17.3-34.2,19.2c-23.7,3.4-49.1-7-63.7-26.3c-14.6-19.2-17.8-46.3-8.3-68.4"/>
				</g>
			</g>
			<g>
				<g>
					<g>
						<path class="st5" d="M869,282.5c0.1,0.1-0.4,1.2-1.7,3.2s-3.4,4.7-6.3,7.6c-5.8,6.2-15.3,13.3-27.6,17.6
							c-12.2,4.2-24.3,4.3-32.5,3.1c-4.2-0.5-7.5-1.5-9.7-2.3c-2.1-0.8-3.5-1.3-3.4-1.5c0.1-0.4,5,1.1,13.3,1.9
							c8.2,0.8,19.7,0.3,31.5-3.6s21.2-10.7,27.1-16.5C865.8,286.5,868.6,282.2,869,282.5z"/>
					</g>
				</g>
			</g>
			<g>
				<g>
					<g>
						<path class="st5" d="M879.5,310c0.1,0.1-0.9,0.9-2.7,2.5s-4.6,3.6-8.2,5.9c-7.1,4.6-17.7,10.1-30.4,12.7
							c-6.3,1.3-12.7,1.6-18.2,1.5c-5.6-0.3-10.7-1.2-14.8-2.4c-4.2-1.2-7.4-2.4-9.4-3.6c-2.1-0.9-3.2-1.6-3.2-1.9
							c0.3-0.4,4.8,1.7,13,3.6c4,0.9,8.9,1.6,14.5,1.9c5.5,0.1,11.4-0.3,17.7-1.6c12.5-2.5,22.9-7.8,30.2-11.9
							C875,312.7,879.2,309.6,879.5,310z"/>
					</g>
				</g>
			</g>
			<g>
				<g>
					<path class="st2" d="M516.7,351.3c-58-127.3,79.8-191.2,154.9-169.9c70.5,19.9,100.7,55,112.3,102.3
						c11.7,47.2,11.1,98.4-7.5,143.4c-9.1,22.3-25.6,44.7-49.4,47.5"/>
				</g>
			</g>
			<g>
				<g>
					<path class="st8" d="M585.9,665.8c-0.9-60.8-1.6-144.3-1.7-143.9c0,0-52.3-8.7-63.2-77c-5.4-33.9-3.6-89.5-0.8-134.9
						c2.5-40.9,29.6-91.2,70.5-86.8L718,255.4c12.3,1.3,21.7,11.9,21.5,24.4l0,0l-8.3,263.4"/>
				</g>
			</g>
			<g>
				<g>
					<g>
						<g>
							<g>
								<g>
									<g>
										<path class="st2" d="M551.4,358.4c-0.3,4.6,3.5,8.6,8.2,8.9s8.7-3.1,9-7.8c0.3-4.6-3.5-8.6-8.2-8.9
											C555.7,350.4,551.5,353.9,551.4,358.4z"/>
									</g>
								</g>
							</g>
						</g>
					</g>
				</g>
			</g>
			<g>
				<g>
					<g>
						<g>
							<g>
								<g>
									<g>
										<path class="st2" d="M645.7,358.4c-0.3,4.6,3.5,8.6,8.2,8.9c4.8,0.3,8.7-3.1,9-7.8c0.3-4.6-3.5-8.6-8.2-8.9
											C650,350.4,646,353.9,645.7,358.4z"/>
									</g>
								</g>
							</g>
						</g>
					</g>
				</g>
			</g>
			<g>
				<g>
					<g>
						<path class="st2" d="M589.2,406.7c0-0.5-5.8-1.6-15.3-2.8c-2.4-0.3-4.7-0.8-5.1-2.3c-0.5-1.7,0.4-4.3,1.6-7.1
							c2.3-5.8,4.7-11.9,7.1-18.4c9.9-26,17-47.5,16-47.9c-0.9-0.3-9.9,20.5-19.9,46.4c-2.3,6.4-4.7,12.6-6.8,18.5
							c-0.9,2.8-2.4,5.8-1.2,9.4c0.7,1.7,2.4,3.1,4,3.6c1.6,0.4,3,0.4,4.2,0.5C583.3,407.1,589.2,407.2,589.2,406.7z"/>
					</g>
				</g>
			</g>
			<g>
				<g>
					<path class="st9" d="M583.9,522.2c0,0,45.9,3,91.3-24.4c0,0-23.1,47.5-91.3,41V522.2z"/>
				</g>
			</g>
			<g>
				<g>
					<g>
						<g>
							<g>
								<g>
									<g>
										<path class="st8" d="M726.3,365.7c0.9-0.4,36.5-16.2,36.9,24.7c0.4,40.8-40.6,32.9-40.8,31.7
											C722.4,420.8,726.3,365.7,726.3,365.7z"/>
									</g>
								</g>
							</g>
						</g>
					</g>
				</g>
			</g>
			<g>
				<g>
					<g>
						<g>
							<g>
								<g>
									<g>
										<g>
											<path class="st9" d="M734.9,406.4c0.3-0.1,0.7,0.4,1.9,0.9s3.2,0.9,5.4,0.1c4.3-1.6,7.9-8.6,8-16
												c0.1-3.6-0.8-7.2-2.1-10.1c-1.2-3-3.2-5-5.5-5.5c-2.1-0.4-3.6,0.9-4.2,2c-0.5,1.1-0.3,2-0.4,2c-0.1,0.1-0.9-0.7-0.5-2.3
												c0.1-0.8,0.7-1.7,1.6-2.5c0.9-0.8,2.4-1.2,3.9-1.1c3.1,0.3,6,3,7.5,6.2c1.6,3.2,2.7,7.2,2.5,11.4
												c-0.3,8.2-4.3,16-10.2,17.8c-3,0.8-5.2-0.1-6.6-0.9C734.9,407.4,734.7,406.6,734.9,406.4z"/>
										</g>
									</g>
								</g>
							</g>
						</g>
					</g>
				</g>
			</g>
			<g>
				<g>
					<g>
						<g>
							<g>
								<path class="st9" d="M592,433c1.3,3.5,2.8,7,5.1,9.9c2.3,3,5.6,5.2,9.4,5.5c4,0.3,7.8-2.1,10.1-5.5s3-7.5,2.8-11.4
									c-0.1-3.6-1.7-7.9-5.4-8.3c-1.5-0.3-3,0.4-4.3,0.9c-6.2,2.5-12.6,5.1-18.8,7.6"/>
							</g>
						</g>
					</g>
				</g>
				<g>
					<g>
						<g>
							<g>
								<g>
									<path class="st2" d="M599.6,448.4c0.1-0.5,4.2,1.1,10.1-1.2c2.8-1.1,5.9-3.4,7.5-6.8c1.6-3.5,2-8.2,0.3-12.2
										c-0.4-0.9-0.9-2-1.6-2.8c-0.8-0.8-0.5-0.8-1.5-0.7c-0.8,0.3-2,0.8-3,1.2c-0.9,0.4-2.1,0.9-3.1,1.2c-4,1.6-7.6,3-10.7,4.3
										c-6.2,2.3-10.1,3.6-10.2,3.1c-0.3-0.4,3.4-2.4,9.4-5.2c3-1.5,6.4-3.1,10.5-4.8c0.9-0.4,2-0.9,3-1.3
										c1.1-0.4,1.9-0.9,3.5-1.5c0.8-0.3,1.7-0.3,2.8,0.1c0.9,0.4,1.6,1.1,2.1,1.6c0.9,1.1,1.6,2.3,2.1,3.6
										c2.3,5.1,1.6,10.7-0.5,15c-2.3,4.3-6.2,6.7-9.5,7.6c-3.4,0.9-6.3,0.8-8.2,0.3C600.4,449.4,599.6,448.7,599.6,448.4z"/>
								</g>
							</g>
						</g>
					</g>
				</g>
			</g>
			<g>
				<g>
					<path class="st5" d="M772.2,337.8c-4.2-0.3-38,4.2-35.3,66.8c2.4,58.6,43.6,45.7,56.7,23.6C806,407.2,813.2,340.7,772.2,337.8z
						"/>
				</g>
			</g>
			<g>
				<g>
					<g>
						<path class="st5" d="M793.1,345.1c0,0-0.1-0.5-0.1-1.6c0-1.2-0.1-2.8-0.3-4.8c-0.1-4.3-0.3-10.3-0.4-17.8
							c-0.3-15.3-0.8-36.7-1.2-61.4l0.8,0.8c-5.5,0-11.4,0-17.3,0l0.8-0.8c0.1,4.7,0.3,9.5,0.4,14.6c0.5,23.6,1.1,45.5,1.6,63.8v0.5
							l-0.5,0.1c-7.8,1.7-13.9,6.3-17.8,11.5c-4,5.1-5.9,10.7-7.1,15.2c-1.2,4.6-1.6,8.2-1.9,10.7c-0.1,1.2-0.3,2.3-0.3,3
							s-0.1,0.9-0.1,0.9s-0.1-0.3-0.1-0.9c0-0.7,0-1.6,0-3c0.1-2.5,0.4-6.2,1.6-10.9c1.1-4.6,3-10.2,7-15.6
							c3.9-5.4,10.3-10.2,18.5-12.1l-0.5,0.7c-0.5-18.4-1.1-40.2-1.7-63.8c-0.1-5-0.3-9.9-0.3-14.6v-0.8h0.8c6,0,11.8,0,17.3,0h0.8
							v0.8c0.3,24.7,0.5,46.1,0.7,61.4c0,7.5,0,13.5,0.1,17.8c0,2,0,3.6,0,4.8C793.1,344.6,793.1,345.1,793.1,345.1z"/>
					</g>
				</g>
			</g>
			<g>
				<g>
					<path class="st5" d="M772.2,259.4c0,0-17.7-41.3-59.7-61.6c-20.4-9.9-35.5-15-50.4-18.6c0,0,24.5-5.8,64.1,11.8
						c18,8,36.2,18.5,48.3,34.1c7.6,9.9,17.2,29.4,17.2,34.3L772.2,259.4L772.2,259.4z"/>
				</g>
			</g>
			<g>
				<g>
					<g>
						<path class="st2" d="M767.7,445.6c0,0-0.4-0.1-1.2-0.3c-0.8-0.3-1.9-0.8-3.1-1.6c-2.5-1.6-6-4.7-8.9-9.4
							c-2.8-4.8-4.7-11.3-5.5-18.4c-0.7-7.2-0.7-15.2,0-23.5s2.1-16.1,3.9-23.1c1.7-7,3.9-13.3,6.8-17.8c3-4.8,6.2-7.8,8.9-9.4
							c1.3-0.8,2.4-1.3,3.1-1.6c0.8-0.3,1.2-0.3,1.2-0.3c0.1,0.1-1.6,0.7-4,2.4c-2.4,1.6-5.6,4.8-8.2,9.4
							c-2.7,4.7-4.7,10.7-6.3,17.7c-1.6,6.8-3,14.6-3.6,22.9c-0.7,8.2-0.7,16.1-0.1,23.1c0.7,7.1,2.3,13.3,5,18
							c2.5,4.7,5.8,7.8,8.2,9.4C766.1,444.9,767.7,445.5,767.7,445.6z"/>
					</g>
				</g>
			</g>
			<g>
				<g>
					<g>
						<path class="st5" d="M643.1,452.7l-46.5,9.1c-0.3,0.1-0.7-0.1-0.8-0.5l-3.4-16.8c-0.1-0.3,0.1-0.7,0.5-0.8l46.5-9.1
							c0.3-0.1,0.7,0.1,0.8,0.5l3.4,16.8C643.7,452.4,643.5,452.7,643.1,452.7z"/>
					</g>
				</g>
				<g>
					<g>
						<path class="st5" d="M637.8,440.9l143.4-45.1c3.6-1.1,7.4,0.9,8.4,4.3l0,0c1.2,3.6-0.9,7.5-4.7,8.6l-146.6,39.6L637.8,440.9z"
							/>
					</g>
				</g>
				<g>
					<g>
						<g>
							<path class="st2" d="M743.7,421.2c0-0.1,1.6-0.7,4.8-1.6c3.4-0.9,7.8-2.3,13.1-4c5.5-1.6,12.2-3.5,19.3-5.8
								c1.7-0.7,3.5-1.6,4.7-3s2-3.1,2-5s-1.2-3.5-3-4.2c-1.7-0.5-3.9-0.3-6,0.3c-16.6,5.4-31.7,10.2-42.9,13.8
								c-5.4,1.6-9.8,3-13.1,4c-3.1,0.9-4.8,1.3-4.8,1.3c-0.1,0,1.6-0.8,4.7-1.9c3.4-1.1,7.6-2.7,12.9-4.6c11-3.8,26-8.9,42.9-14.4
								c2.3-0.5,4.6-0.9,6.8-0.1c2.3,0.8,4,3.2,4,5.5s-0.9,4.4-2.4,6.2c-1.6,1.6-3.5,2.4-5.2,3.2c-7.5,2.3-13.9,4-19.6,5.5
								c-5.4,1.5-9.9,2.5-13.3,3.6C745.5,420.8,743.7,421.3,743.7,421.2z"/>
						</g>
					</g>
				</g>
			</g>
			<g>
				<g>
					<g>
						<path class="st9" d="M668.4,338.3c-1.1,1.7-10.9-3.6-23.1-1.5c-12.2,2-19.7,10.3-21.2,9.1c-0.8-0.5,0-3.6,3.4-7.2
							c3.2-3.6,9.1-7.8,16.8-9c7.5-1.3,14.6,0.5,18.8,3C667.2,335,669,337.6,668.4,338.3z"/>
					</g>
				</g>
			</g>
			<g>
				<g>
					<g>
						<path class="st2" d="M667.2,339.9c-0.3,0.3-2.5-0.8-6.7-1.6c-4.2-0.9-9.9-1.5-16.1-0.1c-6.2,1.5-11.3,4.4-14.6,7
							c-3.4,2.5-5,4.7-5.4,4.4c-0.3-0.1,0.9-2.7,4.3-5.6c3.1-3.1,8.4-6.6,15.2-8c6.7-1.6,13-0.7,17.2,0.8
							C665,338,667.2,339.6,667.2,339.9z"/>
					</g>
				</g>
			</g>
			<g>
				<g>
					<g>
						<path class="st2" d="M673.5,312.4c-0.9,3.2-11.4,3-23.7,3.6c-12.5,0.3-22.9,1.3-24-1.9c-0.5-1.6,1.6-4,5.9-6.2
							c4.3-2.1,10.6-3.9,17.7-4.2c7.1-0.3,13.7,0.9,18,3C671.6,308.7,673.7,310.9,673.5,312.4z"/>
					</g>
				</g>
			</g>
			<g>
				<g>
					<g>
						<path class="st9" d="M570.6,345.5c-0.9,0.5-2.8-1.2-5.8-3.2c-3-2.1-7.2-4.2-12.5-5c-10.6-1.7-19,3.1-20.3,1.5
							c-0.5-0.8,0.9-3.1,4.7-5.5c3.6-2.3,9.9-4.2,16.8-3.1c6.8,0.9,12.3,4.8,14.9,8.6C571.1,342.3,571.4,345.1,570.6,345.5z"/>
					</g>
				</g>
			</g>
			<g>
				<g>
					<g>
						<path class="st2" d="M571.7,350.6c-0.3,0.3-1.9-2.1-5.2-5c-3.2-3-8.6-6.3-15-7.6c-6.6-1.5-12.7-0.5-16.9,0.8s-6.7,2.8-6.8,2.4
							c-0.3-0.3,1.9-2.3,6.2-4c4.2-1.7,10.9-3.1,18-1.6s12.6,5.5,15.7,8.9C571,347.8,572.1,350.6,571.7,350.6z"/>
					</g>
				</g>
			</g>
			<g>
				<g>
					<g>
						<path class="st2" d="M575.9,316.6c-0.5,3.4-10.6,4.3-22.4,4.4c-11.8,0-21.7-0.8-22.4-4.2c-0.7-3.2,9.3-8,22.4-8.2
							C566.6,308.8,576.6,313.4,575.9,316.6z"/>
					</g>
				</g>
			</g>
			<g>
				<g>
					<path class="st2" d="M686.1,219.9c-7.4,11.1-14.9,22.4-18.6,35.1c-3.8,12.7-3.5,27.5,4,38.5c7.2,10.6,19.4,16.1,30.7,22.3
						s22.7,14.6,25.5,27c0.9,3.9-0.8,17.4,2.1,20.3c4,3.8,11.1,1.5,14.1-3.1s5-19.6,5.1-25.1c0.3-17,0.4-34.1,0.7-51
						c0.3-14.4,0-29.4-6.2-42.2c-8.7-18.1-26.8-23.9-53.1-22.7"/>
				</g>
			</g>
			<g>
				<g>
					<path class="st2" d="M518.7,322.1c2.3-17.2,8.6-34.1,19.3-47.6c10.9-13.5,26.4-23.6,43.6-26.2c17.2-2.5,34.6,2.3,51.9,3.1
						c17.3,0.9,37.2-3.2,46.3-18.1c2.8-4.7,4.2-11.1,0.5-15.2c-1.3-1.6-3.2-2.4-5.1-3.4c-23.1-10.9-49.1-15.8-74.4-12.1
						c-25.2,3.8-49.2,16.5-65.2,36.5C519.8,259,512.9,286.2,519,311"/>
				</g>
			</g>
			<g>
				<g>
					<g>
						<path class="st5" d="M508.2,296.6c-0.1,0-0.3-0.8-0.8-2.3c-0.4-1.5-0.9-3.6-1.3-6.7c-0.8-5.8-0.9-14.6,2.3-24.8
							c3.1-10.1,9.7-21.6,20.5-30.6c10.7-9.1,25.1-16,41.2-18.5c16-2.7,31.5-1.1,45.2,2c6.8,1.6,13.1,3.6,18.9,5.6
							c5.8,2.1,11,4.4,16,5.8c10.1,2.1,18.6,3.4,24.3,2.1c5.6-1.1,7.8-4.2,7.9-3.9c0,0-0.4,0.8-1.6,1.7c-1.1,1.1-3.2,2.3-6.2,3
							c-5.9,1.6-14.5,0.5-24.9-1.5c-5.2-1.2-10.5-3.6-16.2-5.5c-5.8-2-12.1-3.9-18.8-5.5c-13.3-3-28.7-4.4-44.3-1.7
							c-15.6,2.5-29.6,9-40.1,17.8c-10.6,8.7-17,19.7-20.4,29.5c-3.4,9.8-3.6,18.4-3,24.1C507.4,293.4,508.5,296.5,508.2,296.6z"/>
					</g>
				</g>
			</g>
			<g>
				<g>
					<g>
						<path class="st5" d="M583.7,189.3c0-0.1,1.5-0.5,4.3-0.8s6.8-0.4,11.9,0c10.1,0.9,24,4.8,36.2,14.6c6,4.8,11.1,10.1,16.5,13.7
							c5.2,3.6,11,5.4,15.8,6.3c4.8,0.9,8.7,1.1,11.5,0.8c2.7-0.3,4.2-1.1,4.3-0.9c0.1,0.1-1.2,1.1-4,1.7c-2.8,0.7-7,0.8-12.1,0
							c-5-0.9-11-2.3-16.6-6.2c-5.6-3.6-10.7-8.9-16.6-13.5c-11.8-9.4-25.2-13.4-35-14.6C589.9,188.8,583.7,189.7,583.7,189.3z"/>
					</g>
				</g>
			</g>
			<g>
				<g>
					<g>
						<path class="st5" d="M790.1,314.6c-0.3,0.1-0.9-1.6-3-4.2c-2-2.5-5.5-5.9-10.9-8.3c-5.2-2.4-12.2-4.2-19.9-4
							c-7.8,0.1-16.2,1.7-25.2,3.5c-8.9,1.6-17.8,2.8-25.8,2c-8-0.7-15-2.7-20.5-5s-9.8-4.8-12.6-6.8c-2.8-1.9-4.2-3.2-4-3.4
							c0.3-0.4,6.2,4.3,17.2,8.4c5.5,2,12.3,3.8,20.1,4.3c7.8,0.7,16.2-0.4,25.2-2.1c8.9-1.6,17.6-3.4,25.6-3.4
							c8.2,0,15.3,1.9,20.7,4.7c5.5,2.8,9,6.6,10.9,9.4c0.9,1.5,1.6,2.7,1.7,3.5C790,314,790.3,314.4,790.1,314.6z"/>
					</g>
				</g>
			</g>
			<g>
				<g>
					<g>
						<path class="st5" d="M782.8,281.7c-0.3,0.1-0.9-1.6-3-4.2c-2-2.4-5.5-5.5-10.9-7.6c-5.2-2.3-12.1-3-19.7-2.1
							c-7.5,0.8-15.7,3-24.5,4.7c-8.7,1.6-17.8,2.1-25.5-0.4c-7.6-2.3-13.5-6.7-17.7-10.9c-4.2-4.3-6.4-8.6-7.8-11.7
							c-0.7-1.6-0.9-2.8-1.2-3.6c-0.3-0.9-0.3-1.3-0.3-1.3c0.5-0.3,2.1,7.2,10.5,15.3c4.2,4,9.9,7.9,17.2,10.1
							c7.2,2.3,15.7,1.7,24.4,0.1s16.9-3.9,24.8-4.6c7.8-0.8,15.2,0.3,20.5,2.8c5.5,2.4,9.1,6,11,8.7
							C782.5,279.8,782.8,281.7,782.8,281.7z"/>
					</g>
				</g>
			</g>
			<g>
				<g>
					<g>
						<path class="st2" d="M607.5,749.4c0,0,0.3-0.3,0.9-0.8c0.5-0.4,1.5-1.1,2.5-2c2.3-1.9,5.5-4.7,9.5-8.7s8.4-9.3,13.4-15.6
							c4.8-6.4,10.1-13.9,16-22.5c11.4-17,25.1-37.8,39.3-61.7c7.1-12.1,14.6-24.7,22-38.1c1.9-3.4,3.6-6.8,5.5-10.2
							c1.9-3.5,3.8-7,6.4-10.1c2.5-3.2,6-5.8,9.9-7.2c2-0.7,4.2-1.1,6.3-0.7c1.1,0.3,2.3,0.8,3,1.6c0.9,0.9,1.3,2,1.6,3l0.1,0.3
							l-0.1,0.3c-0.5,1.3-1.1,2.8-2.3,3.9c-0.9,1.1-2.5,1.9-4.2,2c-3.1,0.3-5.8-1.2-8.2-2.8c-5.1-3.1-7.4-10.1-5.2-16
							c0.9-3,3.2-5.5,6-6.8c2.7-1.3,5.9-1.9,8.9-1.2s6,2.3,7.2,5.5c0.7,1.6,0.3,3.8-0.9,5s-2.7,1.9-4.3,2.3
							c-5.4,1.3-11.1-1.3-13.7-6.2c-1.2-2.4-1.6-5.5-0.8-8c0.7-2.7,2.1-5,4.2-6.8c2-1.7,4.6-3,7.4-2.8c2.7,0.1,5.4,1.2,6.8,3.6
							c0.8,1.1,1.1,2.7,0.9,4.2c-0.3,1.5-1.1,2.8-2.3,3.6c-2.3,1.6-5.1,1.9-7.5,0.9c-2.5-0.9-4.3-3.4-5.1-5.6
							c-0.9-2.4-1.1-4.8-1.1-7.5c0.1-4.8,0.9-9.9,3.6-14.1c1.5-2,3.4-3.8,5.9-4.4c2.4-0.5,5,0,7.1,1.2c2,1.2,3.9,3.6,3.6,6.3
							c-0.3,2.7-2.3,4.8-4.7,5.5c-2.3,0.8-4.8,0.4-6.8-1.1c-1.9-1.5-3-3.8-3.5-6c-0.4-2.3-0.1-4.8,0.5-6.8c0.5-2.1,1.3-4.3,2.3-6.2
							c0.9-1.9,2.5-3.8,4.4-4.8c1.9-1.1,3.9-1.9,6-2c0.9-0.1,2.3-0.1,3.4,0.4c0.9,0.5,1.7,1.3,2.4,2.3c0.7,0.9,1.1,1.9,1.3,3
							c0.3,1.1,0.3,2.3-0.4,3.5c-1.2,2.3-3.9,2.5-5.8,2.3c-2-0.3-3.9-1.5-5.4-2.8c-3-2.8-4.4-6.7-4.6-10.6c-0.3-3.8,0.8-7.6,3-10.7
							c1.1-1.5,2.3-3,4-3.8c1.6-0.9,3.4-1.3,5.1-1.5c1.7,0,3.6,0.3,5,1.5c1.5,1.1,2.3,3,2.1,4.8c-0.4,3.6-3.6,6.2-6.7,6.6
							c-3.4,0.4-6.2-1.9-7.6-4.3c-1.6-2.5-2.1-5.5-1.9-8.3c0.5-5.6,3.5-10.1,5.1-14.2c1.9-4.2,3.6-8.2,5.1-11.5
							c3.1-6.8,5.5-12.3,7.1-16c0.8-1.7,1.5-3.1,1.9-4.2c0.4-0.9,0.7-1.3,0.7-1.3s-0.1,0.5-0.5,1.5c-0.4,0.9-0.9,2.4-1.7,4.3
							c-1.6,3.8-3.9,9.3-6.8,16.1c-1.5,3.6-3.1,7.4-5,11.7c-1.6,4.3-4.4,8.7-4.8,13.9c-0.3,2.5,0.3,5.4,1.7,7.6
							c1.3,2.3,4,4.3,6.8,3.8c2.7-0.3,5.5-2.7,5.8-5.5c0.1-1.5-0.5-3-1.6-3.8c-1.1-0.9-2.8-1.2-4.3-1.2c-1.6,0.1-3.1,0.4-4.6,1.3
							c-1.5,0.8-2.5,2-3.6,3.5c-1.9,2.8-3,6.4-2.5,10.1c0.3,3.6,1.6,7.1,4.3,9.7c1.3,1.2,3,2.1,4.7,2.4c1.6,0.3,3.6-0.1,4.4-1.6
							c0.8-1.5,0.1-3.5-0.9-4.8c-0.5-0.8-1.2-1.3-2-1.7c-0.7-0.3-1.6-0.3-2.5-0.3c-3.8,0.4-7.6,2.4-9.4,6.2
							c-0.9,1.7-1.6,3.8-2.3,5.9c-0.7,2.1-0.9,4-0.5,6.2c0.3,2,1.3,3.9,3,5.1c1.6,1.2,3.6,1.5,5.5,0.9c1.9-0.5,3.5-2.1,3.6-4.2
							c0.3-2-1.1-3.8-3-4.8c-1.7-1.1-4-1.6-5.9-1.1c-2,0.4-3.6,2.1-5,3.8c-2.4,3.6-3.4,8.6-3.4,13.3c0,2.3,0.3,4.7,0.9,6.8
							c0.8,2.1,2.3,4,4.2,4.8c2,0.8,4.4,0.4,6.2-0.8c1.7-1.1,2.3-3.6,0.9-5.5c-1.1-1.7-3.5-3-5.6-3s-4.4,0.9-6.2,2.4
							c-3.6,3-5.2,8.6-3,12.7c2.1,4.3,7.4,6.7,11.9,5.5c1.3-0.3,2.5-0.9,3.5-1.9c0.9-0.9,1.1-2.1,0.7-3.4c-0.9-2.4-3.5-4-6-4.6
							c-5.2-1.1-11.4,1.7-13,7c-1.7,5.1,0.1,11.4,4.6,14.1c2.1,1.6,4.7,2.7,7.1,2.5c2.4-0.1,4.2-2.3,5-4.8v0.4
							c-0.4-1.9-1.6-3.2-3.5-3.6c-1.7-0.3-3.6,0-5.5,0.7c-3.6,1.2-6.8,3.6-9.3,6.7c-2.4,3-4.3,6.4-6.2,9.9s-3.8,6.8-5.6,10.2
							c-7.5,13.4-14.9,26.3-22.1,38.1c-14.4,23.9-27.9,44.5-39.6,61.6c-5.8,8.4-11.1,16.1-16.1,22.4c-5,6.3-9.7,11.5-13.7,15.4
							C612.8,746.2,607.5,749.4,607.5,749.4z"/>
					</g>
				</g>
			</g>
		</g>
	</g>
</g>
</svg>
