<svg id="Camada_1" data-name="Camada 1" xmlns="http://www.w3.org/2000/svg" viewBox="0 0 100 100.11"><defs><style>.cls-1{fill:#f7f7f7;}.cls-2{fill:#375a64;}.cls-3{fill:#1a2e35;}.cls-4{fill:#ffbf9d;}.cls-5{fill:#ff9a6c;}.cls-6{opacity:0.3;}</style></defs><rect class="cls-1" width="100" height="100"/><path class="cls-2" d="M76.66,49.38l-12-2.93-2.8-4.54L43.23,46.28l-1.67,3.94-10,5a22.15,22.15,0,0,0-3.42,9.39c-.24,4,.34,26.63.34,26.63L28,100a1.14,1.14,0,0,0,.11.11H38.94l.47-.11H67.65a41.61,41.61,0,0,0,11.29-7.29l1.17-13.9Z"/><path class="cls-3" d="M60.61,30.08a53.89,53.89,0,0,0,1.92-9.3,19.26,19.26,0,0,0-1.23-9.31c-.19-.44-1.77-3.39-2.25-3.31s.69,2.81.53,3.12a16.29,16.29,0,0,0-1.34,9.58,43.38,43.38,0,0,0,2.37,9.22"/><path class="cls-4" d="M60.3,18c-.15-7.94-4.89-14.47-12.82-14.1L46.74,4A14.2,14.2,0,0,0,34,18.44c.17,6.88.44,14.48.87,18.13.9,7.57,8.6,8,8.6,8s.35,5,.35,5L47.12,53,62.2,43.69Z"/><path class="cls-5" d="M43.51,44.58a18.38,18.38,0,0,0,9.56-4,9.44,9.44,0,0,1-9.23,7Z"/><path class="cls-3" d="M38.4,24.61a1.09,1.09,0,0,0,1.16,1,1,1,0,0,0,1-1.09,1.08,1.08,0,0,0-1.16-1A1,1,0,0,0,38.4,24.61Z"/><path class="cls-3" d="M36,21.41c.15.13.9-.56,2.07-.68s2.08.37,2.19.21-.11-.31-.51-.54A3,3,0,0,0,38,20.05a2.85,2.85,0,0,0-1.63.72C36,21.09,35.92,21.36,36,21.41Z"/><path class="cls-3" d="M48.68,23.74a1.09,1.09,0,0,0,1.16,1,1,1,0,0,0,1-1.1,1.09,1.09,0,0,0-1.16-1A1,1,0,0,0,48.68,23.74Z"/><path class="cls-3" d="M47.45,20.68c.14.13.9-.57,2.07-.69s2.07.38,2.19.22-.11-.31-.51-.54a3,3,0,0,0-1.78-.35A2.85,2.85,0,0,0,47.8,20C47.47,20.36,47.37,20.62,47.45,20.68Z"/><path class="cls-3" d="M44.21,30.07a7.29,7.29,0,0,0-1.93-.14c-.3,0-.58,0-.66-.23a1.52,1.52,0,0,1,.11-.9c.2-.75.42-1.54.64-2.36a38.67,38.67,0,0,0,1.35-6.13,40.22,40.22,0,0,0-1.84,6l-.6,2.36a1.72,1.72,0,0,0,0,1.19.75.75,0,0,0,.53.38,2.3,2.3,0,0,0,.51,0A8,8,0,0,0,44.21,30.07Z"/><path class="cls-3" d="M47.72,30.51c-.19,0-.06,1.28-1,2.29s-2.35,1-2.34,1.19.32.21.89.17a3.16,3.16,0,0,0,2-.93,2.72,2.72,0,0,0,.8-1.9C48,30.79,47.81,30.5,47.72,30.51Z"/><path class="cls-3" d="M47,16c.15.3,1.3,0,2.68.05s2.53.28,2.68,0c.07-.14-.16-.42-.64-.68a4.46,4.46,0,0,0-2-.48,4.6,4.6,0,0,0-2.05.46C47.17,15.53,47,15.8,47,16Z"/><path class="cls-3" d="M36.06,17.49c.24.24,1-.12,2-.23s1.8,0,2-.31c.07-.14-.09-.39-.47-.6a2.69,2.69,0,0,0-1.65-.27,2.73,2.73,0,0,0-1.52.7C36,17.09,36,17.37,36.06,17.49Z"/><path class="cls-4" d="M60.28,23.67c.12-.07,5-2.09,5.42,3.11s-4.91,4.51-4.93,4.36S60.28,23.67,60.28,23.67Z"/><path class="cls-5" d="M62.21,29.05s.09.06.25.12a.86.86,0,0,0,.68,0A2.25,2.25,0,0,0,64,27.05a2.89,2.89,0,0,0-.35-1.28,1.06,1.06,0,0,0-.73-.65.48.48,0,0,0-.52.29c-.06.15,0,.25,0,.27s-.12-.08-.09-.3a.52.52,0,0,1,.18-.34.65.65,0,0,1,.49-.17,1.27,1.27,0,0,1,1,.74A3,3,0,0,1,64.39,27a2.35,2.35,0,0,1-1.15,2.34,1,1,0,0,1-.84-.07C62.23,29.18,62.19,29.06,62.21,29.05Z"/><path class="cls-3" d="M36.85,9.6c-.87-.41,1.48-3.29,3.49-4.37,3-1.62,7.75-2.8,10.68-2.16,3.54.76,6.53,2.3,8.48,5.34a20.68,20.68,0,0,1,3,10.3,6.23,6.23,0,0,1-.53,3.23c-.65,1.19-2,2-1.84,3.59a2.18,2.18,0,0,1-.44,1.62c-.88,1.08-2.11.2-2.71-.72-1.27-2-1.55-4.39-1.8-6.72a15,15,0,0,1,0-5c.19-.89.55-1.73.7-2.62a3.13,3.13,0,0,0-.54-2.58,2.76,2.76,0,0,0-.45-.4,5.42,5.42,0,0,0-5.44-.67c-2.86,1.22-7.77,3.09-9.14,2.18a8.08,8.08,0,0,1-2.48-2.21Z"/><path class="cls-2" d="M28.49,100.11l3.05-44.88c-.3.42-4.56,1.83-6.18,4.53s-3.21,14.78-3.21,14.78l-2,25.57Z"/><g class="cls-6"><path d="M63.55,66.91a20.4,20.4,0,0,0,.92,4.79,6.93,6.93,0,0,0,3,3.77,8.63,8.63,0,0,1,1.78,1,20.69,20.69,0,0,1,1.29,1.78,5.15,5.15,0,0,0,2.19,1.28A19.3,19.3,0,0,0,80,80.69c.07-.83.08-3.9.16-4.73Z"/></g><path class="cls-2" d="M76.66,49.38s5.38,1.59,7,3.88S88,64.41,88.54,66.06s.08,5.46-1,8.2-2.93,5.1-6.15,5.46S73.09,78.22,72,77a9.6,9.6,0,0,1-1.62-3.94A32.16,32.16,0,0,0,74.55,72"/><path class="cls-3" d="M74.55,72l-.07,0-.2.07-.81.26a28.78,28.78,0,0,1-3.13.75l0-.06a14.17,14.17,0,0,0,.55,2,8.71,8.71,0,0,0,.47,1,3.59,3.59,0,0,0,.72,1,5,5,0,0,0,1.08.72c.4.21.83.4,1.27.58a20.69,20.69,0,0,0,2.85.9,13.89,13.89,0,0,0,3.21.41,5.84,5.84,0,0,0,.83,0,5.91,5.91,0,0,0,.84-.15,5.71,5.71,0,0,0,1.62-.62,7.37,7.37,0,0,0,2.56-2.5,13.14,13.14,0,0,0,1.52-3.46A20.44,20.44,0,0,0,88.52,70a14.28,14.28,0,0,0,.14-2.83,4.92,4.92,0,0,0-.28-1.33c-.15-.44-.29-.87-.43-1.3-.29-.86-.57-1.69-.84-2.51-.55-1.63-1.1-3.17-1.64-4.6a29.26,29.26,0,0,0-1.73-3.87,4.58,4.58,0,0,0-1.22-1.36,11.51,11.51,0,0,0-1.36-.91,21.62,21.62,0,0,0-2.38-1.15c-.67-.28-1.2-.48-1.57-.6l-.41-.15-.14,0,.15,0,.42.13c.36.11.9.3,1.58.56a21.16,21.16,0,0,1,2.4,1.13,9.17,9.17,0,0,1,1.39.91,4.71,4.71,0,0,1,1.26,1.39,27.51,27.51,0,0,1,1.76,3.88c.56,1.43,1.11,3,1.67,4.6.27.82.55,1.65.84,2.51l.44,1.29a5.74,5.74,0,0,1,.29,1.38,14.57,14.57,0,0,1-.14,2.87A19.64,19.64,0,0,1,88.09,73a13.33,13.33,0,0,1-1.54,3.51A7.6,7.6,0,0,1,83.91,79a6,6,0,0,1-1.66.64,6.6,6.6,0,0,1-.87.15,8.06,8.06,0,0,1-.85,0,14.74,14.74,0,0,1-3.25-.43,20.22,20.22,0,0,1-2.88-.92c-.44-.19-.87-.38-1.27-.6A5,5,0,0,1,72,77.16a4,4,0,0,1-.75-1,9,9,0,0,1-.46-1.08,12.71,12.71,0,0,1-.53-2v0h0a29.5,29.5,0,0,0,3.14-.7l.81-.23.2-.06S74.55,72,74.55,72Z"/><path class="cls-3" d="M84.4,69.13s-.16-.67-.61-1.66A11.29,11.29,0,0,0,81.36,64a8.16,8.16,0,0,0-1.88-1.34L79,62.48c-.16-.07-.32-.1-.47-.15a4.13,4.13,0,0,0-.86-.18l-.2,0H77a2.76,2.76,0,0,0-.54.05,3.13,3.13,0,0,1-.48,0,1.77,1.77,0,0,1,.46-.13A2.68,2.68,0,0,1,77,62l.35,0h.19l.2,0a3.89,3.89,0,0,1,.9.16c.15,0,.32.07.48.14l.49.21a7.65,7.65,0,0,1,1.94,1.37,10.47,10.47,0,0,1,2.42,3.53,5.53,5.53,0,0,1,.26.69c.06.21.12.39.15.54A2.35,2.35,0,0,1,84.4,69.13Z"/><path class="cls-3" d="M87.33,64.31a9.31,9.31,0,0,0-.81-1.64,6.39,6.39,0,0,0-3.42-2.59,11,11,0,0,0-4.37-.24L77.4,60a2.65,2.65,0,0,1-.5,0,2.38,2.38,0,0,1,.48-.12c.32-.06.77-.14,1.33-.22a10.27,10.27,0,0,1,4.45.19,5.93,5.93,0,0,1,2.16,1.18,6.37,6.37,0,0,1,1.32,1.52,5.56,5.56,0,0,1,.58,1.23A2.07,2.07,0,0,1,87.33,64.31Z"/><path class="cls-3" d="M83.28,58.54a16.65,16.65,0,0,0-3.19-.31,16,16,0,0,0-3.16.56,3.28,3.28,0,0,1,.88-.37A9,9,0,0,1,80.08,58a9.38,9.38,0,0,1,2.3.21A3.4,3.4,0,0,1,83.28,58.54Z"/><path class="cls-3" d="M74.59,50.72s0,.55-.11,1.43a22.22,22.22,0,0,0,0,3.44,21.14,21.14,0,0,0,.55,3.28l-.14,0c-.16-.45-.29-.81-.37-1.07a2,2,0,0,1-.11-.4,1.51,1.51,0,0,1,.19.38l.43,1-.14,0a17.63,17.63,0,0,1-.61-3.3,17.88,17.88,0,0,1,0-3.48c0-.44.11-.79.15-1A1.59,1.59,0,0,1,74.59,50.72Z"/><path class="cls-4" d="M67,40.72s-2.79,0-3.14,3.35a46.07,46.07,0,0,0,0,6.2c0,1.12-.5,5.13-.5,5.13a5.72,5.72,0,0,0-1.87,3.71A2.83,2.83,0,0,0,63,61.77a3.44,3.44,0,0,0,.81,3.7s-.81,1.87-.15,3.13a3,3,0,0,0,1.68,1.3,1.89,1.89,0,0,0,1.15,2.61,8.29,8.29,0,0,0,2.9.36l2.08,0,1.83,1s3.14-1.37,3.22-3.22l.08-1.85a38.08,38.08,0,0,1-1-4c-.08-1,.72-3.3.24-4.35s-2.18-1.66-2-3.12A3.48,3.48,0,0,0,73,54.21,22.16,22.16,0,0,0,69,51.79a15,15,0,0,1-.83-3.94C68.2,46.24,69.81,41.33,67,40.72Z"/><path class="cls-5" d="M68.87,52.4a3.47,3.47,0,0,1-.77.51c-.49.28-1.17.67-1.93,1.08s-1.46.78-2,1a4,4,0,0,1-.84.38,3.58,3.58,0,0,1,.77-.5c.49-.29,1.18-.67,1.94-1.09s1.45-.77,2-1A5.6,5.6,0,0,1,68.87,52.4Z"/><path class="cls-5" d="M70.7,58.7s-.07.09-.24.22a8.61,8.61,0,0,1-.72.51,14.38,14.38,0,0,1-2.62,1.32,13.85,13.85,0,0,1-2.82.76c-.37.06-.68.1-.88.11a1.41,1.41,0,0,1-.33,0s.45-.09,1.18-.25a17.62,17.62,0,0,0,2.78-.81,17.93,17.93,0,0,0,2.61-1.25C70.3,58.94,70.69,58.68,70.7,58.7Z"/><path class="cls-5" d="M73.1,56.7c.05,0-.06.38-.39.68s-.69.37-.7.31.28-.2.57-.46S73,56.68,73.1,56.7Z"/><path class="cls-5" d="M72,64.22a5.09,5.09,0,0,1-1.17.43,23.63,23.63,0,0,1-2.92.67,22.42,22.42,0,0,1-3,.28,5.46,5.46,0,0,1-1.24,0,9.92,9.92,0,0,1,1.24-.1c.76-.06,1.81-.16,3-.34s2.18-.42,2.92-.61A9.44,9.44,0,0,1,72,64.22Z"/><path class="cls-5" d="M74.5,63.76a4.15,4.15,0,0,1,.21-.6,3.45,3.45,0,0,0,.15-1.47,3.52,3.52,0,0,0-.49-1.4,5.06,5.06,0,0,1-.35-.53s.22.12.47.44a3.08,3.08,0,0,1,.57,1.46,3,3,0,0,1-.21,1.55A1.35,1.35,0,0,1,74.5,63.76Z"/><path class="cls-5" d="M72.09,69.87a4.19,4.19,0,0,1-1,.23,15.49,15.49,0,0,1-4.9,0,4.25,4.25,0,0,1-1-.24,6,6,0,0,1,1,.09c.62.07,1.48.14,2.43.15S70.46,70,71.08,70A5,5,0,0,1,72.09,69.87Z"/><path class="cls-5" d="M67.15,47.9s-.13.12-.39.22a2.48,2.48,0,0,1-1.07.11,2.43,2.43,0,0,1-1-.36.92.92,0,0,1-.33-.3,5.4,5.4,0,0,0,1.37.46A5.37,5.37,0,0,0,67.15,47.9Z"/><path class="cls-5" d="M75.08,64a.82.82,0,0,1,0,.3,3.14,3.14,0,0,1-.1.82c-.07.34-.2.73-.32,1.17a3.33,3.33,0,0,0-.15,1.42c.07.49.44.89.5,1.39a1.9,1.9,0,0,1-.31,1.21,4.39,4.39,0,0,1-.5.65c-.14.15-.22.22-.23.21s.27-.34.6-.93a1.76,1.76,0,0,0,.25-1.11c0-.42-.42-.82-.51-1.39a3.31,3.31,0,0,1,.17-1.5c.13-.44.27-.83.36-1.16A8.18,8.18,0,0,0,75.08,64Z"/><path class="cls-3" d="M76.12,66.44a1.25,1.25,0,0,1,.13.37c.07.24.17.59.26,1a9.45,9.45,0,0,1,.18,1.56,4.16,4.16,0,0,1-.35,1.91,5.51,5.51,0,0,1-1.2,1.53,11,11,0,0,1-1.24,1c-.37.25-.68.44-.89.56a1.85,1.85,0,0,1-.35.17s.45-.32,1.16-.85a11.5,11.5,0,0,0,1.19-1,5.42,5.42,0,0,0,1.15-1.48,4.24,4.24,0,0,0,.35-1.82,10.86,10.86,0,0,0-.15-1.54C76.22,67,76.09,66.45,76.12,66.44Z"/><path class="cls-3" d="M46.71,53.47a4.78,4.78,0,0,1-.45-.34l-1.18-1-.81-.69a2.56,2.56,0,0,0-.46-.33.56.56,0,0,0-.52,0c-.33.17-.56.6-.85,1l-.86,1.16c-.47.63-.92,1.24-1.34,1.79l-.25.34.08-.41a20.26,20.26,0,0,1,1-3.4c.16-.41.3-.73.4-.94a1.71,1.71,0,0,1,.17-.33,1.54,1.54,0,0,1-.11.35c-.09.22-.21.55-.35,1A24.26,24.26,0,0,0,40.26,55l-.17-.07,1.33-1.8c.3-.4.59-.78.86-1.16l.42-.55a1.41,1.41,0,0,1,.51-.46.74.74,0,0,1,.68,0,2.1,2.1,0,0,1,.49.37l.8.7,1.13,1A2.88,2.88,0,0,1,46.71,53.47Z"/><path class="cls-3" d="M63.17,50.17s-.05.06-.15.14l-.46.36L60.84,52l-5.73,4.22-.09.07L55,56.16l-.14-.23c-1.06-1.66-2-3.22-2.88-4.54l.11,0a21.36,21.36,0,0,0-3.2,1.6c-.36.22-.65.4-.84.53a1.27,1.27,0,0,1-.31.18l.28-.22c.18-.14.46-.34.82-.58A19.4,19.4,0,0,1,52,51.26l.07,0,0,.06L55,55.82l.14.23L55,56l5.77-4.17,1.75-1.24.49-.33Z"/><path class="cls-3" d="M28.21,65.68a.94.94,0,0,1,0,.27l0,.79c0,.71,0,1.69.07,2.9.06,2.45.19,5.83.36,9.57s.27,7.12.29,9.57c0,1.23,0,2.22,0,2.9l0,.79a1.07,1.07,0,0,1,0,.28s0-.1,0-.28l0-.79c0-.7-.05-1.69-.08-2.9-.06-2.45-.19-5.83-.36-9.57s-.27-7.12-.28-9.57c0-1.22,0-2.22,0-2.9l0-.79A.94.94,0,0,1,28.21,65.68Z"/><path class="cls-3" d="M46.3,94.47c.13,2,.25,3.59.36,4.69l.08.84h.06c0-.24,0-.51-.06-.84-.08-1.11-.19-2.72-.29-4.7s-.2-4.35-.26-7,0-5.51,0-8.55.2-5.91.36-8.54.37-5,.56-7,.37-3.57.5-4.68c.06-.54.11-1,.14-1.27l0-.33a1.09,1.09,0,0,0,0-.12s0,0,0,.12l-.05.32c0,.31-.1.73-.18,1.27-.16,1.1-.35,2.7-.56,4.68s-.42,4.34-.6,7-.31,5.51-.38,8.55,0,5.93,0,8.56S46.18,92.48,46.3,94.47Z"/></svg>