<?xml version="1.0" encoding="utf-8"?>
<!-- Generator: Adobe Illustrator 26.0.3, SVG Export Plug-In . SVG Version: 6.00 Build 0)  -->
<svg version="1.1" id="Camada_1" xmlns="http://www.w3.org/2000/svg" xmlns:xlink="http://www.w3.org/1999/xlink" x="0px" y="0px"
	 viewBox="0 0 1920 1341.1" style="enable-background:new 0 0 1920 1341.1;" xml:space="preserve">
<style type="text/css">
	.st0{fill:#FBFFFF;}
	.st1{fill:#FF4E5B;}
	.st2{fill:#FFF8FF;}
	.st3{fill:none;stroke:#FF4E5B;stroke-width:2.7588;stroke-linecap:round;stroke-linejoin:round;stroke-miterlimit:10;}
	.st4{fill:#1A2E35;}
	.st5{opacity:0.3;}
	.st6{fill:#662025;}
	.st7{fill:#F4F4F4;}
	.st8{fill:none;stroke:#662025;stroke-width:1.0617;stroke-miterlimit:10;}
	.st9{fill:none;stroke:#662025;stroke-width:2.1233;stroke-miterlimit:10;}
	.st10{fill:#FFFFFF;}
	.st11{fill:#05ACED;}
	.st12{fill:#E9018B;}
	.st13{fill:#FAEF04;}
	.st14{fill:#ECECEC;}
	.st15{fill:#E1E1E1;}
	.st16{fill:#F5F5F5;}
</style>
<g>
	<g>
		
			<ellipse transform="matrix(0.7071 -0.7071 0.7071 0.7071 259.9715 1071.541)" class="st0" cx="1423.5" cy="222" rx="166.3" ry="166.3"/>
		<g>
			<path class="st1" d="M1496,273.8h-20.7v-6.9h20.7c1.9,0,3.5-1.6,3.5-3.5V184c0-1.9-1.6-3.5-3.5-3.5h-145.1
				c-1.9,0-3.5,1.6-3.5,3.5v79.5c0,1.9,1.5,3.5,3.5,3.5h20.7v6.9h-20.7c-5.7,0-10.4-4.6-10.4-10.4V184c0-5.7,4.6-10.4,10.4-10.4
				H1496c5.7,0,10.4,4.6,10.4,10.4v79.5C1506.4,269.1,1501.7,273.8,1496,273.8z"/>
			<path class="st1" d="M1478.7,304.9h-110.6v-58.7h110.6V304.9z M1375.1,298h96.7v-44.9h-96.7V298z"/>
			<path class="st1" d="M1478.7,180.5h-110.6V139h110.6V180.5z M1375.1,173.6h96.7v-27.6h-96.7V173.6z"/>
			<rect x="1361.3" y="246.1" class="st1" width="124.4" height="6.9"/>
			<rect x="1458" y="190.9" class="st1" width="10.4" height="6.9"/>
			<rect x="1478.7" y="190.9" class="st1" width="10.4" height="6.9"/>
			<rect x="1385.4" y="263.4" class="st1" width="76" height="6.9"/>
			<rect x="1385.4" y="284.1" class="st1" width="76" height="6.9"/>
		</g>
		<circle class="st1" cx="1630.8" cy="125.3" r="95.9"/>
		<g>
			<path class="st2" d="M1634.3,163.9c-23.2,0-42.1-18.9-42.1-42.1c0-23.2,18.9-42.1,42.1-42.1c23.2,0,42.1,18.9,42.1,42.1
				C1676.4,145,1657.5,163.9,1634.3,163.9z M1634.3,84.6c-20.5,0-37.2,16.7-37.2,37.2s16.7,37.2,37.2,37.2
				c20.5,0,37.2-16.7,37.2-37.2S1654.8,84.6,1634.3,84.6z"/>
			<g>
				<path class="st2" d="M1634.3,175.8c-1.4,0-2.5-1.1-2.5-2.5V70.3c0-1.4,1.1-2.5,2.5-2.5c1.4,0,2.5,1.1,2.5,2.5v103.1
					C1636.8,174.7,1635.7,175.8,1634.3,175.8z"/>
				<path class="st2" d="M1685.8,124.3h-103.1c-1.4,0-2.5-1.1-2.5-2.5c0-1.4,1.1-2.5,2.5-2.5h103.1c1.3,0,2.5,1.1,2.5,2.5
					C1688.3,123.2,1687.2,124.3,1685.8,124.3z"/>
			</g>
		</g>
		<g>
			<circle class="st0" cx="397.3" cy="136.6" r="136.6"/>
		</g>
		<g>
			<path class="st3" d="M452.5,115c2.4,6.4,3.7,13.4,3.7,20.7c0,32.5-26.4,58.9-58.9,58.9s-58.9-26.4-58.9-58.9
				c0-32.5,26.4-58.9,58.9-58.9c10.4,0,20.2,2.7,28.7,7.4"/>
			<polyline class="st3" points="388.4,111.2 409.7,133 451.4,84.2 			"/>
		</g>
		<rect x="1407.2" y="848.2" class="st1" width="90.6" height="458.7"/>
		<rect x="1381.4" y="848.2" class="st4" width="90.6" height="458.7"/>
		<polygon class="st5" points="1381.4,848.2 1381.4,908.4 1497.8,869.1 1497.8,848.2 		"/>
		<rect x="453.3" y="848.2" class="st1" width="90.6" height="464.9"/>
		<path class="st6" d="M602.8,1264.2H396.7c-7.3,0-13.2,5.9-13.2,13.2v35.6H616v-35.6C616,1270.1,610.1,1264.2,602.8,1264.2z"/>
		<rect x="427.4" y="848.2" class="st4" width="90.6" height="464.9"/>
		<path class="st4" d="M577,1264.2H370.9c-7.3,0-13.2,5.9-13.2,13.2v35.6h232.6v-35.6C590.2,1270.1,584.3,1264.2,577,1264.2z"/>
		<polygon class="st5" points="427.4,848.2 427.4,908.4 543.9,869.1 543.9,848.2 		"/>
		<path class="st4" d="M1316.5,477.7h236.2c19.2,0,36.9,10.3,46.3,27.1l69.2,124.3c8.5,15.2-2.4,33.9-19.8,33.9h-251.6L1316.5,477.7
			z"/>
		<polygon class="st5" points="1431.9,477.7 1535.9,662.9 1452.5,662.9 1351.5,477.7 		"/>
		<polygon class="st1" points="1483.9,523 1495.6,543.7 1557.9,543.7 1545.9,523 		"/>
		<polygon class="st7" points="1499.3,550.5 1502.8,556.7 1565.1,556.7 1561.3,550.5 		"/>
		<polygon class="st7" points="1505.6,561.6 1509.1,567.8 1571.4,567.8 1567.6,561.6 		"/>
		<polygon class="st7" points="1510.8,572.7 1514.3,578.9 1576.6,578.9 1572.8,572.7 		"/>
		<polygon class="st7" points="1526.5,599.4 1530,605.6 1592.3,605.6 1588.5,599.4 		"/>
		<polygon class="st7" points="1532.8,610.6 1536.3,616.7 1598.6,616.7 1594.8,610.6 		"/>
		<polygon class="st1" points="1517,584 1522.3,593.5 1618.6,593.5 1612.8,584 		"/>
		<polygon class="st1" points="1557.9,523 1589.5,577.7 1611,577.7 1579.1,523 		"/>
		<polygon class="st1" points="1598.6,599.4 1609,616.7 1630.5,616.7 1619.8,599.4 		"/>
		<path class="st1" d="M428.7,848.2h1114.9v-70.3c0-26.1-6.5-51.7-18.8-74.6l-104.1-193.4c-10.7-19.8-31.4-32.2-53.9-32.2H428.7
			V848.2z"/>
		<path class="st4" d="M343.6,848.2h270.6v-70.3c0-26.1-6.5-51.7-18.8-74.6L490.7,508.8c-10.3-19.2-30.4-31.2-52.2-31.2h-94.9V848.2
			z"/>
		<g>
			<polyline class="st8" points="734.2,651.5 671.7,540.5 1267.1,540.5 1346.3,674 			"/>
			<line class="st9" x1="700.6" y1="591.9" x2="1298.1" y2="591.9"/>
			<polygon class="st6" points="723.4,632.3 1321.8,632.3 1346.3,674 734.2,651.5 			"/>
		</g>
		<rect x="664.4" y="346.6" class="st1" width="28.7" height="131.1"/>
		<rect x="592.8" y="346.6" class="st4" width="71.6" height="131.1"/>
		<rect x="614.9" y="346.6" class="st1" width="28.7" height="131.1"/>
		<rect x="543.3" y="346.6" class="st4" width="71.6" height="131.1"/>
		<rect x="564.7" y="346.6" class="st1" width="28.7" height="131.1"/>
		<rect x="493.1" y="346.6" class="st4" width="71.6" height="131.1"/>
		<rect x="511.3" y="346.6" class="st1" width="28.7" height="131.1"/>
		<rect x="439.7" y="346.6" class="st4" width="71.6" height="131.1"/>
		<g>
			<g>
				<path class="st7" d="M533.1,366.9c0,4.1-3.3,7.4-7.4,7.4c-4.1,0-7.4-3.3-7.4-7.4c0-4.1,3.3-7.4,7.4-7.4
					C529.8,359.5,533.1,362.8,533.1,366.9z"/>
				<path class="st7" d="M586.5,366.9c0,4.1-3.3,7.4-7.4,7.4c-4.1,0-7.4-3.3-7.4-7.4c0-4.1,3.3-7.4,7.4-7.4
					C583.2,359.5,586.5,362.8,586.5,366.9z"/>
				<path class="st7" d="M636.6,366.9c0,4.1-3.3,7.4-7.4,7.4c-4.1,0-7.4-3.3-7.4-7.4c0-4.1,3.3-7.4,7.4-7.4
					C633.3,359.5,636.6,362.8,636.6,366.9z"/>
				<circle class="st7" cx="678.5" cy="366.9" r="7.4"/>
			</g>
		</g>
		<rect x="439.7" y="458.6" class="st5" width="253.3" height="19"/>
		<path class="st10" d="M788,1116.7L788,1116.7c0,61.7,50,111.6,111.6,111.6h244.8v-111.6H788z"/>
		<path class="st0" d="M734.2,651.5h568c0,0,79.1,6.3,79.1,107.6c0,101.3,0,357.6,0,357.6H788V764.3c0-33.2-12.1-65.3-34-90.3
			L734.2,651.5z"/>
		<g>
			<circle class="st11" cx="1101.1" cy="853.8" r="95"/>
			<circle class="st12" cx="1038.4" cy="960.3" r="95"/>
			<circle class="st13" cx="1173.4" cy="960.3" r="95"/>
		</g>
		<path class="st6" d="M1102.7,1116.7c0,0-52.5-4.6-52.5,50.9c0,55.5-45,60.7-45,60.7h139.3v-111.6H1102.7z"/>
		<path class="st1" d="M1102.7,1116.7h597c0,0,55.7,2.9,55.7,64.2v72.4h-611v-76.3C1144.4,1176.9,1144.1,1116.7,1102.7,1116.7z"/>
		<path class="st10" d="M1891.2,1253.2c0,0,7.3,45-66,59.3H1246l70.5-59.3v-61.3h575L1891.2,1253.2z"/>
		<path class="st1" d="M1144.4,1253.2L1144.4,1253.2c0,32.7,26.5,59.3,59.3,59.3h53.5c32.7,0,59.3-26.5,59.3-59.3v0H1144.4z"/>
	</g>
	<g>
		<g>
			<rect x="73.3" y="968" class="st14" width="243.9" height="18.9"/>
			<rect x="250.2" y="968" class="st15" width="67" height="18.9"/>
		</g>
		<path class="st16" d="M42.3,986.9c0,1.5,0,85.2,0,85.2H28.9v9.3h13.4v57h249.8v-51.9h-18.5v-11.3h18.5v-17h8.2v-7.7h-9.8v-63.6
			H42.3z"/>
		<polygon class="st15" points="225.7,987.2 225.7,1137.5 292.1,1137.5 292.1,1085.6 273.6,1085.6 273.6,1075.2 292.1,1075.2 
			292.1,1058.3 300.3,1058.3 300.3,1049.6 290.5,1049.6 290.5,986.9 		"/>
		<g>
			<path class="st15" d="M230.5,1080.2c0,0.5-45.2,0.9-100.9,0.9c-55.8,0-100.9-0.4-100.9-0.9c0-0.5,45.2-0.9,100.9-0.9
				C185.3,1079.2,230.5,1079.7,230.5,1080.2z"/>
		</g>
		<g>
			<path class="st15" d="M230.5,1071.5c0,0.5-45.2,0.9-100.9,0.9c-55.8,0-100.9-0.4-100.9-0.9c0-0.5,45.2-0.9,100.9-0.9
				C185.3,1070.6,230.5,1071,230.5,1071.5z"/>
		</g>
		<g>
			<path class="st15" d="M243.4,1048.2c0,0.5-45.2,0.9-100.9,0.9c-55.8,0-100.9-0.4-100.9-0.9c0-0.5,45.2-0.9,100.9-0.9
				C198.2,1047.3,243.4,1047.7,243.4,1048.2z"/>
		</g>
		<g>
			<path class="st15" d="M244.7,1111.7c0,0.5-45.2,0.9-100.9,0.9c-55.8,0-100.9-0.4-100.9-0.9c0-0.5,45.2-0.9,100.9-0.9
				C199.5,1110.8,244.7,1111.2,244.7,1111.7z"/>
		</g>
		<g>
			<path class="st16" d="M70.6,1156.5c0,1.5,0,85.2,0,85.2H57.3v9.3h13.4v57h249.8v-51.9h-18.5v-11.3h18.5v-17h8.2v-7.7h-9.8v-63.6
				H70.6z"/>
			<polygon class="st15" points="254.1,1156.8 254.1,1307.1 320.4,1307.1 320.4,1255.2 301.9,1255.2 301.9,1244.8 320.4,1245.2 
				320.4,1228.2 328.8,1228.2 328.6,1219.5 318.9,1219.2 318.9,1156.5 			"/>
			<g>
				<path class="st15" d="M258.8,1249.8c0,0.5-45.2,0.9-100.9,0.9c-55.8,0-100.9-0.4-100.9-0.9c0-0.5,45.2-0.9,100.9-0.9
					C213.6,1248.8,258.8,1249.3,258.8,1249.8z"/>
			</g>
			<g>
				<path class="st15" d="M258.8,1241.1c0,0.5-45.2,0.9-100.9,0.9c-55.8,0-100.9-0.4-100.9-0.9c0-0.5,45.2-0.9,100.9-0.9
					C213.6,1240.2,258.8,1240.6,258.8,1241.1z"/>
			</g>
			<g>
				<path class="st15" d="M271.8,1217.8c0,0.5-45.2,0.9-100.9,0.9c-55.8,0-100.9-0.4-100.9-0.9c0-0.5,45.2-0.9,100.9-0.9
					C226.6,1216.9,271.8,1217.3,271.8,1217.8z"/>
			</g>
			<g>
				<path class="st15" d="M273,1281.3c0,0.5-45.2,0.9-100.9,0.9c-55.8,0-100.9-0.4-100.9-0.9c0-0.5,45.2-0.9,100.9-0.9
					C227.8,1280.4,273,1280.8,273,1281.3z"/>
			</g>
		</g>
		<g>
			<path class="st16" d="M67,816.5c0,1.5,0,85.2,0,85.2H53.6v9.3H67v57h249.8v-51.9h-18.5v-11.3h18.5v-17h8.2v-7.7h-9.8v-63.6H67z"
				/>
			<polygon class="st15" points="250.4,816.7 250.4,967 316.8,967 316.8,915.1 298.3,915.1 298.3,904.8 316.8,905.1 316.8,888.2 
				325.1,888.2 325,879.4 315.2,879.2 315.2,816.5 			"/>
			<g>
				<path class="st15" d="M255.2,909.7c0,0.5-45.2,0.9-100.9,0.9c-55.8,0-100.9-0.4-100.9-0.9c0-0.5,45.2-0.9,100.9-0.9
					C210,908.8,255.2,909.2,255.2,909.7z"/>
			</g>
			<g>
				<path class="st15" d="M255.2,901.1c0,0.5-45.2,0.9-100.9,0.9c-55.8,0-100.9-0.4-100.9-0.9c0-0.5,45.2-0.9,100.9-0.9
					C210,900.1,255.2,900.5,255.2,901.1z"/>
			</g>
			<g>
				<path class="st15" d="M268.1,877.8c0,0.5-45.2,0.9-100.9,0.9c-55.8,0-100.9-0.4-100.9-0.9c0-0.5,45.2-0.9,100.9-0.9
					C222.9,876.8,268.1,877.2,268.1,877.8z"/>
			</g>
			<g>
				<path class="st15" d="M269.4,941.3c0,0.5-45.2,0.9-100.9,0.9c-55.8,0-100.9-0.4-100.9-0.9c0-0.5,45.2-0.9,100.9-0.9
					C224.2,940.3,269.4,940.7,269.4,941.3z"/>
			</g>
		</g>
		<g>
			<rect x="56.9" y="1137.6" class="st14" width="243.9" height="18.9"/>
			<rect x="233.9" y="1137.6" class="st15" width="67" height="18.9"/>
		</g>
	</g>
</g>
</svg>
